<?xml version="1.0" encoding="utf-8"?>
<!-- Generator: Adobe Illustrator 24.2.1, SVG Export Plug-In . SVG Version: 6.00 Build 0)  -->
<svg version="1.1" id="Слой_1" width="100%" xmlns="http://www.w3.org/2000/svg" xmlns:xlink="http://www.w3.org/1999/xlink" x="0px" y="0px"
	 viewBox="0 0 678 230" style="enable-background:new 0 0 678 230;" xml:space="preserve">
<style type="text/css">
	.st0{fill:#fff;}
	.st1{fill:#fff;}
	.st2{fill:#fff;}
	.st3{fill:#fff;}
</style>
<g>
	<path class="st0" d="M602.6,134.79l0-39.59l-34.28-19.79l-34.28,19.79l0,39.59l34.28,19.79l13.28-7.67l0,0l7.72-4.46l0,0
		L602.6,134.79z M568.31,144.46l-25.51-14.73l0-29.46l25.52-14.73l25.51,14.73l0,29.46l-8.9,5.14L576,119.41l5.88-3.39l-17.94-8.6
		l-1.53,19.84l5.87-3.39l8.93,15.46L568.31,144.46z"/>
	<rect x="298.49" y="77.28" class="st1" width="9.09" height="75.44"/>
	<polygon class="st1" points="436.56,77.28 423.7,77.28 390.51,110.47 369.32,110.47 369.32,77.28 360.23,77.28 360.23,152.72 
		369.32,152.72 369.32,119.53 390.51,119.53 423.7,152.72 436.56,152.72 398.84,115 	"/>
	<rect x="478.83" y="77.28" class="st1" width="9.09" height="75.44"/>
	<path class="st1" d="M244.27,132.69c-5.53,7.75-14.59,12.81-24.84,12.81c-16.85,0-30.51-13.66-30.51-30.51
		c0-16.85,13.66-30.51,30.51-30.51c9.93,0,18.75,4.75,24.32,12.1l6.47-6.47c-7.26-8.97-18.35-14.72-30.79-14.72
		c-21.86,0-39.59,17.72-39.59,39.59c0,21.86,17.72,39.59,39.59,39.59c12.76,0,24.09-6.04,31.33-15.41L244.27,132.69z"/>
	<path class="st1" d="M144.03,131.59c0-11.65-9.43-21.09-21.07-21.13v0H96.54l0,0c-6.65,0-12.04-5.39-12.04-12.04
		s5.39-12.04,12.04-12.04v0h26.36v0c3.68,0,6.97,1.66,9.18,4.26l6.43-6.43c-3.85-4.23-9.38-6.9-15.54-6.92v0h-0.06c0,0,0,0,0,0l0,0
		H96.54v0c-11.67,0-21.13,9.46-21.13,21.13c0,11.67,9.46,21.13,21.13,21.13v0h26.36v0c6.65,0,12.04,5.39,12.04,12.04
		c0,6.65-5.39,12.04-12.04,12.04v0H93.01v0c-3.68,0-6.97-1.66-9.18-4.26l-6.43,6.43c3.85,4.23,9.38,6.9,15.54,6.92v0h0.06
		c0,0,0,0,0,0v0h30.33v-0.02C134.81,152.46,144.03,143.11,144.03,131.59z"/>
</g>
</svg>
