<?xml version="1.0" encoding="utf-8"?>
<!-- Generator: Adobe Illustrator 25.4.1, SVG Export Plug-In . SVG Version: 6.00 Build 0)  -->
<svg version="1.1" id="Layer_1" xmlns="http://www.w3.org/2000/svg" xmlns:xlink="http://www.w3.org/1999/xlink" x="0px" y="0px"
	 viewBox="0 0 2000 400" style="enable-background:new 0 0 2000 400;" xml:space="preserve">
<style type="text/css">
	.st0{fill:#1E1E1E;}
	.st1{fill:#0168FA;}
</style>
<g id="Сгруппировать_8432" transform="translate(-64.969 -75.412)">
	<rect id="Прямоугольник_225" x="882.2" y="141.9" class="st0" width="32.6" height="270.7"/>
	<path id="Контур_3860" class="st0" d="M1377.5,142h-46.1L1212.3,261h-76V142h-32.6v270.7h32.6V293.5h76l119.1,119.1h46.1
		l-135.3-135.3L1377.5,142z"/>
	<rect id="Прямоугольник_226" x="1529.2" y="141.9" class="st1" width="32.6" height="270.7"/>
	<path id="Контур_3861" class="st0" d="M687.7,340.8c-35.1,49.2-103.4,60.7-152.6,25.6S474.4,263,509.4,213.8
		c35.1-49.2,103.4-60.7,152.6-25.6c9,6.4,17.1,14.2,23.8,23.1L709,188c-49.3-61-138.7-70.6-199.7-21.3
		c-61,49.3-70.6,138.7-21.3,199.7c49.3,61,138.7,70.6,199.7,21.3c8.6-7,16.4-14.9,23.2-23.7L687.7,340.8z"/>
	<path id="Контур_3862" class="st0" d="M328.1,336.8c0-41.8-33.8-75.7-75.6-75.8h-94.8c-23.8,0-43.2-19.3-43.2-43.1
		c0-23.8,19.3-43.2,43.1-43.2c0,0,0,0,0.1,0h94.6c12.7,0,24.8,5.6,33,15.3l23.1-23.1c-14.3-15.7-34.5-24.8-55.8-24.8h-94.8
		c-41.9,0-75.8,33.9-75.8,75.8c0,41.9,33.9,75.8,75.8,75.8h94.6c23.8,0,43.2,19.3,43.2,43.1c0,23.8-19.3,43.2-43.1,43.2
		c0,0,0,0-0.1,0H145c-12.7,0-24.8-5.6-33-15.3l-23,23.1c14.3,15.7,34.5,24.8,55.8,24.8h109.1v-0.1C295.1,411.7,328,378,328.1,336.8z
		"/>
	<path id="Контур_3863" class="st1" d="M1987.6,379.1l-12.7,22.1l73.3-5.7l-31.8-66.3l-12.7,22.1l-34.6-20l1.1-1.9l30.2-52.3
		L1922,142h-156.2l-78.1,135.3l78.1,135.3H1922l30.9-53.5L1987.6,379.1z M1846.7,278.6l31.8,66.3l12.7-22.1l34.7,20.3l-22,38.1h-120
		l-0.5-0.9l-59.5-103l60-103.9h120l0.5,0.9l59.5,103l-22,38.1l-34.7-20.3L1920,273L1846.7,278.6z"/>
</g>
</svg>
