<svg xmlns="http://www.w3.org/2000/svg" width="235.598" height="60" viewBox="0 0 235.598 60">
  <g id="Сгруппировать_8431" data-name="Сгруппировать 8431" transform="translate(726.824 -74.314)">
    <g id="Сгруппировать_8429" data-name="Сгруппировать 8429" transform="translate(-726.824 124.86)">
      <g id="Сгруппировать_8428" data-name="Сгруппировать 8428" transform="translate(0 0)">
        <path id="Контур_3834" data-name="Контур 3834" d="M-720.6,217.481h-4.6l-.891,2.33h-.733l3.562-9.166h.733l3.548,9.166h-.733Zm-.249-.655L-722.9,211.5l-2.043,5.329Z" transform="translate(726.824 -210.502)" fill="#fff"/>
        <path id="Контур_3835" data-name="Контур 3835" d="M-690.085,219.157v.654H-695.1v-9.166h.694v8.511Z" transform="translate(706.895 -210.502)" fill="#fff"/>
        <path id="Контур_3836" data-name="Контур 3836" d="M-665.684,219.157v.654H-670.7v-9.166H-670v8.511Z" transform="translate(691.567 -210.502)" fill="#fff"/>
        <path id="Контур_3837" data-name="Контур 3837" d="M-647.706,223.571h4.714v.628h-4.714Z" transform="translate(677.123 -218.621)" fill="#fff"/>
        <path id="Контур_3838" data-name="Контур 3838" d="M-621.2,210.646v9.166h-.694v-9.166Z" transform="translate(660.91 -210.502)" fill="#fff"/>
        <path id="Контур_3839" data-name="Контур 3839" d="M-600.146,210.646v9.166h-.615l-5.408-7.883v7.883h-.694v-9.166h.6l5.421,7.883v-7.883Z" transform="translate(651.466 -210.502)" fill="#fff"/>
        <path id="Контур_3840" data-name="Контур 3840" d="M-575.632,223.571h4.714v.628h-4.714Z" transform="translate(631.847 -218.621)" fill="#fff"/>
        <path id="Контур_3841" data-name="Контур 3841" d="M-551.23,214.986a4.7,4.7,0,0,1,4.727-4.727,4.7,4.7,0,0,1,4.727,4.727,4.7,4.7,0,0,1-4.727,4.727A4.7,4.7,0,0,1-551.23,214.986Zm8.76,0a4.016,4.016,0,0,0-4.033-4.059,4.015,4.015,0,0,0-4.033,4.059,4.015,4.015,0,0,0,4.033,4.059A4.015,4.015,0,0,0-542.47,214.986Z" transform="translate(616.518 -210.259)" fill="#fff"/>
        <path id="Контур_3842" data-name="Контур 3842" d="M-507.331,210.646v9.166h-.616l-5.408-7.883v7.883h-.694v-9.166h.6l5.421,7.883v-7.883Z" transform="translate(593.161 -210.502)" fill="#fff"/>
        <path id="Контур_3843" data-name="Контур 3843" d="M-477.54,219.157v.654h-5.277v-9.166h5.211v.655h-4.518v3.562h4.19v.655h-4.19v3.64Z" transform="translate(573.542 -210.502)" fill="#fff"/>
        <path id="Контур_3844" data-name="Контур 3844" d="M-432.8,215.229a4.372,4.372,0,0,1-4.321,4.583h-3.444v-9.166h3.444A4.372,4.372,0,0,1-432.8,215.229Zm-.681,0a3.7,3.7,0,0,0-3.64-3.928h-2.75v7.857h2.75A3.7,3.7,0,0,0-433.481,215.229Z" transform="translate(547 -210.502)" fill="#fff"/>
        <path id="Контур_3845" data-name="Контур 3845" d="M-405.121,217.481h-4.6l-.891,2.33h-.733l3.562-9.166h.733l3.549,9.166h-.733Zm-.249-.655-2.042-5.329-2.043,5.329Z" transform="translate(528.641 -210.502)" fill="#fff"/>
        <path id="Контур_3846" data-name="Контур 3846" d="M-377.161,211.3h-2.88v8.511h-.708V211.3h-2.881v-.655h6.469Z" transform="translate(511.234 -210.502)" fill="#fff"/>
        <path id="Контур_3847" data-name="Контур 3847" d="M-353.4,217.481h-4.6l-.891,2.33h-.733l3.562-9.166h.733l3.548,9.166h-.733Zm-.249-.655-2.042-5.329-2.043,5.329Z" transform="translate(496.148 -210.502)" fill="#fff"/>
        <path id="Контур_3848" data-name="Контур 3848" d="M-305.477,213.488a2.767,2.767,0,0,1-2.854,2.828h-2.423v3.5h-.694v-9.166h3.117A2.77,2.77,0,0,1-305.477,213.488Zm-.694,0a2.1,2.1,0,0,0-2.16-2.187h-2.423v4.36h2.423A2.094,2.094,0,0,0-306.171,213.488Z" transform="translate(465.89 -210.502)" fill="#fff"/>
        <path id="Контур_3849" data-name="Контур 3849" d="M-278.723,219.157v.654h-5.015v-9.166h.694v8.511Z" transform="translate(448.483 -210.502)" fill="#fff"/>
        <path id="Контур_3850" data-name="Контур 3850" d="M-254.949,217.481h-4.6l-.89,2.33h-.733l3.562-9.166h.733l3.549,9.166h-.733Zm-.249-.655-2.043-5.329-2.043,5.329Z" transform="translate(434.305 -210.502)" fill="#fff"/>
        <path id="Контур_3851" data-name="Контур 3851" d="M-226.99,211.3h-2.88v8.511h-.707V211.3h-2.881v-.655h6.469Z" transform="translate(416.897 -210.502)" fill="#fff"/>
        <path id="Контур_3852" data-name="Контур 3852" d="M-204.454,211.3v3.667h4.229v.655h-4.229v4.19h-.694v-9.166h5.081v.655Z" transform="translate(399.113 -210.502)" fill="#fff"/>
        <path id="Контур_3853" data-name="Контур 3853" d="M-181.276,214.986a4.7,4.7,0,0,1,4.727-4.727,4.7,4.7,0,0,1,4.727,4.727,4.7,4.7,0,0,1-4.727,4.727A4.7,4.7,0,0,1-181.276,214.986Zm8.76,0a4.016,4.016,0,0,0-4.033-4.059,4.016,4.016,0,0,0-4.033,4.059,4.016,4.016,0,0,0,4.033,4.059A4.016,4.016,0,0,0-172.516,214.986Z" transform="translate(384.117 -210.259)" fill="#fff"/>
        <path id="Контур_3854" data-name="Контур 3854" d="M-140.506,216.054H-143.4v3.758h-.694v-9.166h3.615a2.716,2.716,0,0,1,2.71,2.71,2.708,2.708,0,0,1-2.017,2.606l2.278,3.849h-.8Zm-2.894-.655h2.92a2.031,2.031,0,0,0,2.016-2.043,2.034,2.034,0,0,0-2.016-2.056h-2.92Z" transform="translate(360.761 -210.502)" fill="#fff"/>
        <path id="Контур_3855" data-name="Контур 3855" d="M-107.18,219.812h-.694v-8.145l-3.391,5.631h-.118l-3.392-5.631v8.145h-.694v-9.166h.864l3.273,5.421,3.274-5.421h.877Z" transform="translate(342.778 -210.502)" fill="#fff"/>
      </g>
    </g>
    <g id="Сгруппировать_8430" data-name="Сгруппировать 8430" transform="translate(-705.43 74.314)">
      <rect id="Прямоугольник_223" data-name="Прямоугольник 223" width="3.381" height="28.051" transform="translate(82.947 0.694)" fill="#fff"/>
      <path id="Контур_3856" data-name="Контур 3856" d="M-356.082,76.18h-4.782L-373.2,88.521h-7.879V76.18h-3.381v28.051h3.381V91.89h7.879l12.341,12.341h4.782l-14.025-14.025Z" transform="translate(490.364 -75.486)" fill="#fff"/>
      <rect id="Прямоугольник_224" data-name="Прямоугольник 224" width="3.381" height="28.051" transform="translate(149.998 0.694)" fill="#0168fa"/>
      <path id="Контур_3857" data-name="Контур 3857" d="M-540.894,95.611a11.325,11.325,0,0,1-9.237,4.764,11.342,11.342,0,0,1-11.342-11.343,11.342,11.342,0,0,1,11.342-11.342,11.325,11.325,0,0,1,9.044,4.5l2.4-2.4a14.687,14.687,0,0,0-11.448-5.471A14.719,14.719,0,0,0-564.85,89.033a14.719,14.719,0,0,0,14.719,14.719,14.691,14.691,0,0,0,11.65-5.728Z" transform="translate(603.681 -74.314)" fill="#fff"/>
      <path id="Контур_3858" data-name="Контур 3858" d="M-643.771,96.372a7.857,7.857,0,0,0-7.833-7.856v0h-9.824a4.476,4.476,0,0,1-4.477-4.476,4.477,4.477,0,0,1,4.477-4.477h9.8a4.465,4.465,0,0,1,3.412,1.582l2.391-2.391A7.828,7.828,0,0,0-651.6,76.18h-9.825a7.858,7.858,0,0,0-7.857,7.858,7.858,7.858,0,0,0,7.858,7.858h9.8a4.476,4.476,0,0,1,4.477,4.476,4.476,4.476,0,0,1-4.477,4.477h-11.11a4.466,4.466,0,0,1-3.412-1.582l-2.391,2.391a7.827,7.827,0,0,0,5.779,2.572h11.3v-.009A7.853,7.853,0,0,0-643.771,96.372Z" transform="translate(669.286 -75.486)" fill="#fff"/>
      <path id="Контур_3859" data-name="Контур 3859" d="M-190.6,100.756l-1.322,2.29,7.594-.584-3.291-6.869-1.322,2.289-3.583-2.069.111-.194,3.125-5.413-8.1-14.025h-16.195l-8.1,14.026,8.1,14.025h16.195l3.2-5.544Zm-14.6-10.415,3.291,6.869,1.322-2.29,3.6,2.107-2.277,3.944H-211.7l-.054-.094-6.162-10.672,6.216-10.767h12.433l.054.094,6.162,10.672-2.279,3.948-3.6-2.107,1.322-2.289Z" transform="translate(388.105 -75.486)" fill="#0168fa"/>
    </g>
  </g>
</svg>
