<?xml version="1.0" standalone="no"?>
<!DOCTYPE svg PUBLIC "-//W3C//DTD SVG 1.1//EN" "http://www.w3.org/Graphics/SVG/1.1/DTD/svg11.dtd" >
<svg xmlns="http://www.w3.org/2000/svg" xmlns:xlink="http://www.w3.org/1999/xlink" version="1.1">
<metadata>
Created by FontForge 20190801 at Wed Jun 19 21:10:23 2019
 By Jimmy Wärting
Copyright 2019 The Darkergrotesque Project Authors (https://github.com/bettergui/DarkerGrotesque)
</metadata>
<defs>
<font id="DarkerGrotesque-Bold" horiz-adv-x="0" >
  <font-face 
    font-family="Darker Grotesque"
    font-weight="700"
    font-stretch="normal"
    units-per-em="1000"
    panose-1="0 0 0 0 0 0 0 0 0 0"
    ascent="800"
    descent="-200"
    x-height="411"
    cap-height="563"
    bbox="-47 -296 1767 1060"
    underline-thickness="50"
    underline-position="-125"
    unicode-range="U+000D-240D"
  />
<missing-glyph horiz-adv-x="500" 
d="M50 -296h400v1356h-400v-1356zM100 -246v1256h300v-1256h-300z" />
    <glyph glyph-name="w_w_w.liga" unicode="www" horiz-adv-x="1792" 
d="M102 0l-96 394v18h100l68 -327h2l88 327h88l91 -327h2l68 327h99v-18l-97 -394h-142l-64 235h-2l-61 -235h-144zM680 0l-96 394v18h100l68 -327h2l88 327h88l91 -327h2l68 327h99v-18l-97 -394h-142l-64 235h-2l-61 -235h-144zM1257 0l-96 394v18h100l68 -327h2l88 327
h88l91 -327h2l68 327h99v-18l-97 -394h-142l-64 235h-2l-61 -235h-144z" />
    <glyph glyph-name=".notdef" horiz-adv-x="500" 
d="M50 -296h400v1356h-400v-1356zM100 -246v1256h300v-1256h-300z" />
    <glyph glyph-name="A" unicode="A" horiz-adv-x="566" 
d="M19 0l180 563h167l185 -563h-109l-48 159h-219l-48 -159h-108zM284 520l-85 -282h171z" />
    <glyph glyph-name="Aacute" unicode="&#xc1;" horiz-adv-x="566" 
d="M19 0l180 563h167l185 -563h-109l-48 159h-219l-48 -159h-108zM284 520l-85 -282h171zM303 610h-46v13l45 100h86v-18z" />
    <glyph glyph-name="Abreve" unicode="&#x102;" horiz-adv-x="566" 
d="M19 0l180 563h167l185 -563h-109l-48 159h-219l-48 -159h-108zM284 520l-85 -282h171zM285 623q-62 0 -97 28.5t-35 76.5h72q0 -28 17 -38t43 -10q25 0 42 9.5t17 38.5h72q0 -48 -34 -76.5t-97 -28.5z" />
    <glyph glyph-name="uni1EAE" unicode="&#x1eae;" horiz-adv-x="566" 
d="M19 0l180 563h167l185 -563h-109l-48 159h-219l-48 -159h-108zM284 520l-85 -282h171zM285 623q-62 0 -97 28.5t-35 76.5h72q0 -28 17 -38t43 -10q25 0 42 9.5t17 38.5h72q0 -48 -34 -76.5t-97 -28.5zM306 746h-46v13l45 100h86v-18z" />
    <glyph glyph-name="uni1EB6" unicode="&#x1eb6;" horiz-adv-x="566" 
d="M19 0l180 563h167l185 -563h-109l-48 159h-219l-48 -159h-108zM284 520l-85 -282h171zM279 -175q-31 0 -42 16t-11 38q0 20 11 35.5t42 15.5q32 0 42 -15.5t10 -35.5q0 -22 -10 -38t-42 -16zM285 623q-62 0 -97 28.5t-35 76.5h72q0 -28 17 -38t43 -10q25 0 42 9.5
t17 38.5h72q0 -48 -34 -76.5t-97 -28.5z" />
    <glyph glyph-name="uni1EB0" unicode="&#x1eb0;" horiz-adv-x="566" 
d="M19 0l180 563h167l185 -563h-109l-48 159h-219l-48 -159h-108zM284 520l-85 -282h171zM284 623q-62 0 -97 28.5t-35 76.5h72q0 -28 17 -38t43 -10q25 0 42 9.5t17 38.5h72q0 -48 -34 -76.5t-97 -28.5zM258 746l-85 95v18h86l45 -100v-13h-46z" />
    <glyph glyph-name="uni1EB2" unicode="&#x1eb2;" horiz-adv-x="566" 
d="M19 0l180 563h167l185 -563h-109l-48 159h-219l-48 -159h-108zM284 520l-85 -282h171zM284 623q-62 0 -97 28.5t-35 76.5h72q0 -28 17 -38t43 -10q25 0 42 9.5t17 38.5h72q0 -48 -34 -76.5t-97 -28.5zM252 744v15q6 13 21.5 22.5t29 20t13.5 28.5q0 16 -15 21.5t-33 0
t-25 -24.5l-42 27q7 27 27 42.5t45.5 20t49.5 -2.5t39.5 -25.5t15.5 -47.5q0 -30 -13 -45.5t-27.5 -26.5t-19.5 -25h-66z" />
    <glyph glyph-name="uni1EB4" unicode="&#x1eb4;" horiz-adv-x="566" 
d="M19 0l180 563h167l185 -563h-109l-48 159h-219l-48 -159h-108zM284 520l-85 -282h171zM284 623q-62 0 -97 28.5t-35 76.5h72q0 -28 17 -38t43 -10q25 0 42 9.5t17 38.5h72q0 -48 -34 -76.5t-97 -28.5zM338 779q-26 0 -41 8.5t-24.5 19.5t-18 19.5t-22.5 8.5
q-16 0 -19.5 -13.5t-2.5 -39.5h-61q0 14 1 32.5t7.5 37t22.5 31t46 12.5q25 0 40.5 -8.5t25 -20t18.5 -20t22 -8.5q16 0 19 14.5t3 39.5h60q1 -24 -3 -50t-20.5 -44.5t-52.5 -18.5z" />
    <glyph glyph-name="Acircumflex" unicode="&#xc2;" horiz-adv-x="566" 
d="M19 0l180 563h167l185 -563h-109l-48 159h-219l-48 -159h-108zM284 520l-85 -282h171zM145 619v8l118 109h43l118 -109v-8h-91l-46 51h-5l-44 -51h-93z" />
    <glyph glyph-name="uni1EA4" unicode="&#x1ea4;" horiz-adv-x="566" 
d="M19 0l180 563h167l185 -563h-109l-48 159h-219l-48 -159h-108zM284 520l-85 -282h171zM145 612v8l118 109h43l118 -109v-8h-91l-46 51h-5l-44 -51h-93zM429 706h-46v13l45 100h86v-18z" />
    <glyph glyph-name="uni1EAC" unicode="&#x1eac;" horiz-adv-x="566" 
d="M19 0l180 563h167l185 -563h-109l-48 159h-219l-48 -159h-108zM284 520l-85 -282h171zM275 -175q-31 0 -42 16t-11 38q0 20 11 35.5t42 15.5q32 0 42 -15.5t10 -35.5q0 -22 -10 -38t-42 -16zM145 616v8l118 109h43l118 -109v-8h-91l-46 51h-5l-44 -51h-93z" />
    <glyph glyph-name="uni1EA6" unicode="&#x1ea6;" horiz-adv-x="566" 
d="M19 0l180 563h167l185 -563h-109l-48 159h-219l-48 -159h-108zM284 520l-85 -282h171zM126 705l-85 95v18h86l45 -100v-13h-46zM145 612v8l118 109h43l118 -109v-8h-91l-46 51h-5l-44 -51h-93z" />
    <glyph glyph-name="uni1EA8" unicode="&#x1ea8;" horiz-adv-x="566" 
d="M19 0l180 563h167l185 -563h-109l-48 159h-219l-48 -159h-108zM284 520l-85 -282h171zM145 616v8l118 109h43l118 -109v-8h-91l-46 51h-5l-44 -51h-93zM372 709v15q6 13 21.5 22.5t29 20t13.5 28.5q0 16 -15 21.5t-33 0t-25 -24.5l-42 27q7 27 27 42.5t45.5 20t49.5 -2.5
t39.5 -25.5t15.5 -47.5q0 -30 -13 -45.5t-27.5 -26.5t-19.5 -25h-66z" />
    <glyph glyph-name="uni1EAA" unicode="&#x1eaa;" horiz-adv-x="566" 
d="M19 0l180 563h167l185 -563h-109l-48 159h-219l-48 -159h-108zM284 520l-85 -282h171zM145 616v8l118 109h43l118 -109v-8h-91l-46 51h-5l-44 -51h-93zM336 766q-26 0 -41 8.5t-24.5 19.5t-18 19.5t-22.5 8.5q-16 0 -19.5 -13.5t-2.5 -39.5h-61q0 14 1 32.5t7.5 37
t22.5 31t46 12.5q25 0 40.5 -8.5t25 -20t18.5 -20t22 -8.5q16 0 19 14.5t3 39.5h60q1 -24 -3 -50t-20.5 -44.5t-52.5 -18.5z" />
    <glyph glyph-name="Adieresis" unicode="&#xc4;" horiz-adv-x="566" 
d="M19 0l180 563h167l185 -563h-109l-48 159h-219l-48 -159h-108zM284 520l-85 -282h171zM195 623q-37 0 -49.5 18.5t-12.5 43.5q0 24 12.5 42t49.5 18t48.5 -18t11.5 -42q0 -25 -11.5 -43.5t-48.5 -18.5zM376 623q-36 0 -49 18.5t-13 43.5q0 24 13 42t49 18q37 0 49 -18
t12 -42q0 -25 -12 -43.5t-49 -18.5z" />
    <glyph glyph-name="uni1EA0" unicode="&#x1ea0;" horiz-adv-x="566" 
d="M19 0l180 563h167l185 -563h-109l-48 159h-219l-48 -159h-108zM284 520l-85 -282h171zM275 -175q-31 0 -42 16t-11 38q0 20 11 35.5t42 15.5q32 0 42 -15.5t10 -35.5q0 -22 -10 -38t-42 -16z" />
    <glyph glyph-name="Agrave" unicode="&#xc0;" horiz-adv-x="566" 
d="M19 0l180 563h167l185 -563h-109l-48 159h-219l-48 -159h-108zM284 520l-85 -282h171zM259 610l-85 95v18h86l45 -100v-13h-46z" />
    <glyph glyph-name="uni1EA2" unicode="&#x1ea2;" horiz-adv-x="566" 
d="M19 0l180 563h167l185 -563h-109l-48 159h-219l-48 -159h-108zM284 520l-85 -282h171zM252 619v15q6 13 21.5 22.5t29 20t13.5 28.5q0 16 -15 21.5t-33 0t-25 -24.5l-42 27q7 27 27 42.5t45.5 20t49.5 -2.5t39.5 -25.5t15.5 -47.5q0 -30 -13 -45.5t-27.5 -26.5t-19.5 -25
h-66z" />
    <glyph glyph-name="Amacron" unicode="&#x100;" horiz-adv-x="600" 
d="M19 0l180 563h167l185 -563h-109l-48 159h-219l-48 -159h-108zM284 520l-85 -282h171zM147 623v71h275v-71h-275z" />
    <glyph glyph-name="Aogonek" unicode="&#x104;" horiz-adv-x="578" 
d="M19 0l180 563h167l170 -518v1l15 -46l-15 -5.5t-34 -16t-33.5 -25.5t-14.5 -34q0 -32 34 -32q15 0 24.5 7.5t14 14.5l4.5 7l55 -48l-11.5 -13.5t-35 -27t-60.5 -13.5q-36 0 -68 21t-32 67q0 32 19 57t44 42l-48 158h-219l-48 -159h-108zM284 520l-85 -282h171z" />
    <glyph glyph-name="Aring" unicode="&#xc5;" horiz-adv-x="566" 
d="M19 0l180 563h167l185 -563h-109l-48 159h-219l-48 -159h-108zM284 520l-85 -282h171zM276 609q-50 0 -74.5 26.5t-24.5 70.5q0 46 24.5 73.5t74.5 27.5t76 -27.5t26 -73.5q0 -42 -26 -69.5t-76 -27.5zM275 668q21 0 31 11.5t10 29.5q0 17 -10 29t-31 12
q-20 0 -30.5 -12.5t-10.5 -28.5q0 -18 11 -29.5t30 -11.5z" />
    <glyph glyph-name="Atilde" unicode="&#xc3;" horiz-adv-x="566" 
d="M19 0l180 563h167l185 -563h-109l-48 159h-219l-48 -159h-108zM284 520l-85 -282h171zM340 620q-26 0 -41 8.5t-24.5 19.5t-18 19.5t-22.5 8.5q-16 0 -19.5 -13.5t-2.5 -39.5h-61q0 14 1 32.5t7.5 37t22.5 31t46 12.5q25 0 40.5 -8.5t25 -20t18.5 -20t22 -8.5
q16 0 19 14.5t3 39.5h60q1 -24 -3 -50t-20.5 -44.5t-52.5 -18.5z" />
    <glyph glyph-name="AE" unicode="&#xc6;" horiz-adv-x="857" 
d="M19 0l316 563h476v-88h-302v-148h232v-84h-232v-161h312v-82h-412v159h-195l-86 -159h-109zM257 238h152v280z" />
    <glyph glyph-name="B" unicode="B" horiz-adv-x="560" 
d="M55 0v563h223q31 0 68.5 -4t72.5 -18t57.5 -44t22.5 -83q0 -32 -12.5 -59t-46 -44.5t-95.5 -20.5v-3q72 -2 111 -20.5t54 -48.5t15 -67q0 -54 -24 -84.5t-62 -45t-79.5 -18t-76.5 -3.5h-228zM155 329h111q35 0 65.5 4t48.5 19.5t18 50.5q0 37 -18.5 53t-48.5 20t-65 4
h-111v-151zM156 82h119q39 0 72 5t53 22.5t20 55.5q0 39 -21 57.5t-55 23.5t-75 5h-113v-169z" />
    <glyph glyph-name="C" unicode="C" horiz-adv-x="602" 
d="M301 -10q-79 0 -143 32.5t-101.5 96.5t-37.5 160q1 94 38 160t101 100t146 34q78 0 133 -28t88.5 -76t43.5 -108h-105q-7 44 -32.5 69.5t-59.5 36t-68 10.5q-89 0 -136.5 -50t-47.5 -141q0 -97 46.5 -149t135.5 -52q37 0 72 11.5t60 38t32 71.5h106q-11 -62 -44.5 -110.5
t-90 -77t-136.5 -28.5z" />
    <glyph glyph-name="Cacute" unicode="&#x106;" horiz-adv-x="602" 
d="M301 -10q-79 0 -143 32.5t-101.5 96.5t-37.5 160q1 94 38 160t101 100t146 34q78 0 133 -28t88.5 -76t43.5 -108h-105q-7 44 -32.5 69.5t-59.5 36t-68 10.5q-89 0 -136.5 -50t-47.5 -141q0 -97 46.5 -149t135.5 -52q37 0 72 11.5t60 38t32 71.5h106q-11 -62 -44.5 -110.5
t-90 -77t-136.5 -28.5zM328 610h-46v13l45 100h86v-18z" />
    <glyph glyph-name="Ccaron" unicode="&#x10c;" horiz-adv-x="600" 
d="M301 -10q-79 0 -143 32.5t-101.5 96.5t-37.5 160q1 94 38 160t101 100t146 34q78 0 133 -28t88.5 -76t43.5 -108h-105q-7 44 -32.5 69.5t-59.5 36t-68 10.5q-89 0 -136.5 -50t-47.5 -141q0 -97 46.5 -149t135.5 -52q37 0 72 11.5t60 38t32 71.5h106q-11 -62 -44.5 -110.5
t-90 -77t-136.5 -28.5zM146 751h105l57 -91l59 91h103l-140 -136h-44z" />
    <glyph glyph-name="Ccedilla" unicode="&#xc7;" horiz-adv-x="602" 
d="M301 -10q-79 0 -143 32.5t-101.5 96.5t-37.5 160q1 94 38 160t101 100t146 34q78 0 133 -28t88.5 -76t43.5 -108h-105q-7 44 -32.5 69.5t-59.5 36t-68 10.5q-89 0 -136.5 -50t-47.5 -141q0 -97 46.5 -149t135.5 -52q37 0 72 11.5t60 38t32 71.5h106q-11 -62 -44.5 -110.5
t-90 -77t-136.5 -28.5zM196 -140l31 49q10 -10 31 -17.5t43.5 -9t38 4.5t14.5 24q0 14 -14 20t-33 3t-33 -15l-43 23l43 91l47 -18l-37 -61q14 12 37 16.5t46.5 0t39.5 -20t16 -43.5q0 -32 -22 -52t-57 -26.5t-74.5 1t-73.5 30.5z" />
    <glyph glyph-name="Cdotaccent" unicode="&#x10a;" horiz-adv-x="602" 
d="M301 -10q-79 0 -143 32.5t-101.5 96.5t-37.5 160q1 94 38 160t101 100t146 34q78 0 133 -28t88.5 -76t43.5 -108h-105q-7 44 -32.5 69.5t-59.5 36t-68 10.5q-89 0 -136.5 -50t-47.5 -141q0 -97 46.5 -149t135.5 -52q37 0 72 11.5t60 38t32 71.5h106q-11 -62 -44.5 -110.5
t-90 -77t-136.5 -28.5zM309 624q-37 0 -49.5 18.5t-12.5 43.5q0 23 12.5 41.5t49.5 18.5t48.5 -18.5t11.5 -41.5q0 -25 -11.5 -43.5t-48.5 -18.5z" />
    <glyph glyph-name="D" unicode="D" horiz-adv-x="606" 
d="M570 282q0 -111 -43.5 -172.5t-122.5 -85.5t-186 -24h-155v563h155q107 0 186 -31.5t122.5 -93.5t43.5 -156zM164 84h83q66 0 114 15.5t74 58.5t26 125q0 97 -57.5 144.5t-156.5 47.5h-83v-391z" />
    <glyph glyph-name="Eth" unicode="&#xd0;" horiz-adv-x="600" 
d="M63 0v252h-63v68h63v243h155q107 0 186 -31.5t122.5 -93.5t43.5 -156q0 -111 -43.5 -172.5t-122.5 -85.5t-186 -24h-155zM164 84h83q66 0 114 15.5t74 58.5t26 125q0 97 -57.5 144.5t-156.5 47.5h-83v-155h144v-68h-144v-168z" />
    <glyph glyph-name="Dcaron" unicode="&#x10e;" horiz-adv-x="606" 
d="M570 282q0 -111 -43.5 -172.5t-122.5 -85.5t-186 -24h-155v563h155q107 0 186 -31.5t122.5 -93.5t43.5 -156zM164 84h83q66 0 114 15.5t74 58.5t26 125q0 97 -57.5 144.5t-156.5 47.5h-83v-391zM102 751h105l57 -91l59 91h103l-140 -136h-44z" />
    <glyph glyph-name="Dcroat" unicode="&#x110;" horiz-adv-x="600" 
d="M63 0v252h-63v68h63v243h155q107 0 186 -31.5t122.5 -93.5t43.5 -156q0 -111 -43.5 -172.5t-122.5 -85.5t-186 -24h-155zM164 84h83q66 0 114 15.5t74 58.5t26 125q0 97 -57.5 144.5t-156.5 47.5h-83v-155h144v-68h-144v-168z" />
    <glyph glyph-name="E" unicode="E" horiz-adv-x="501" 
d="M154 82h311v-82h-412v563h402v-88h-301v-148h231v-84h-231v-161z" />
    <glyph glyph-name="Eacute" unicode="&#xc9;" horiz-adv-x="501" 
d="M154 82h311v-82h-412v563h402v-88h-301v-148h231v-84h-231v-161zM257 610h-46v13l45 100h86v-18z" />
    <glyph glyph-name="Ecaron" unicode="&#x11a;" horiz-adv-x="501" 
d="M154 82h311v-82h-412v563h402v-88h-301v-148h231v-84h-231v-161zM90 751h105l57 -91l59 91h103l-140 -136h-44z" />
    <glyph glyph-name="Ecircumflex" unicode="&#xca;" horiz-adv-x="501" 
d="M154 82h311v-82h-412v563h402v-88h-301v-148h231v-84h-231v-161zM111 625v8l118 109h43l118 -109v-8h-91l-46 51h-5l-44 -51h-93z" />
    <glyph glyph-name="uni1EBE" unicode="&#x1ebe;" horiz-adv-x="501" 
d="M154 82h311v-82h-412v563h402v-88h-301v-148h231v-84h-231v-161zM111 621v8l118 109h43l118 -109v-8h-91l-46 51h-5l-44 -51h-93zM395 715h-46v13l45 100h86v-18z" />
    <glyph glyph-name="uni1EC6" unicode="&#x1ec6;" horiz-adv-x="501" 
d="M154 82h311v-82h-412v563h402v-88h-301v-148h231v-84h-231v-161zM249 -175q-31 0 -42 16t-11 38q0 20 11 35.5t42 15.5q32 0 42 -15.5t10 -35.5q0 -22 -10 -38t-42 -16zM111 625v8l118 109h43l118 -109v-8h-91l-46 51h-5l-44 -51h-93z" />
    <glyph glyph-name="uni1EC0" unicode="&#x1ec0;" horiz-adv-x="501" 
d="M154 82h311v-82h-412v563h402v-88h-301v-148h231v-84h-231v-161zM92 714l-85 95v18h86l45 -100v-13h-46zM111 621v8l118 109h43l118 -109v-8h-91l-46 51h-5l-44 -51h-93z" />
    <glyph glyph-name="uni1EC2" unicode="&#x1ec2;" horiz-adv-x="501" 
d="M154 82h311v-82h-412v563h402v-88h-301v-148h231v-84h-231v-161zM111 625v8l118 109h43l118 -109v-8h-91l-46 51h-5l-44 -51h-93zM338 718v15q6 13 21.5 22.5t29 20t13.5 28.5q0 16 -15 21.5t-33 0t-25 -24.5l-42 27q7 27 27 42.5t45.5 20t49.5 -2.5t39.5 -25.5
t15.5 -47.5q0 -30 -13 -45.5t-27.5 -26.5t-19.5 -25h-66z" />
    <glyph glyph-name="uni1EC4" unicode="&#x1ec4;" horiz-adv-x="501" 
d="M154 82h311v-82h-412v563h402v-88h-301v-148h231v-84h-231v-161zM112 625v8l118 109h43l118 -109v-8h-91l-46 51h-5l-44 -51h-93zM303 775q-26 0 -41 8.5t-24.5 19.5t-18 19.5t-22.5 8.5q-16 0 -19.5 -13.5t-2.5 -39.5h-61q0 14 1 32.5t7.5 37t22.5 31t46 12.5
q25 0 40.5 -8.5t25 -20t18.5 -20t22 -8.5q16 0 19 14.5t3 39.5h60q1 -24 -3 -50t-20.5 -44.5t-52.5 -18.5z" />
    <glyph glyph-name="Edieresis" unicode="&#xcb;" horiz-adv-x="501" 
d="M154 82h311v-82h-412v563h402v-88h-301v-148h231v-84h-231v-161zM168 623q-37 0 -49.5 18.5t-12.5 43.5q0 24 12.5 42t49.5 18t48.5 -18t11.5 -42q0 -25 -11.5 -43.5t-48.5 -18.5zM349 623q-36 0 -49 18.5t-13 43.5q0 24 13 42t49 18q37 0 49 -18t12 -42q0 -25 -12 -43.5
t-49 -18.5z" />
    <glyph glyph-name="Edotaccent" unicode="&#x116;" horiz-adv-x="501" 
d="M154 82h311v-82h-412v563h402v-88h-301v-148h231v-84h-231v-161zM259 624q-37 0 -49.5 18.5t-12.5 43.5q0 23 12.5 41.5t49.5 18.5t48.5 -18.5t11.5 -41.5q0 -25 -11.5 -43.5t-48.5 -18.5z" />
    <glyph glyph-name="uni1EB8" unicode="&#x1eb8;" horiz-adv-x="501" 
d="M154 82h311v-82h-412v563h402v-88h-301v-148h231v-84h-231v-161zM251 -175q-31 0 -42 16t-11 38q0 20 11 35.5t42 15.5q32 0 42 -15.5t10 -35.5q0 -22 -10 -38t-42 -16z" />
    <glyph glyph-name="Egrave" unicode="&#xc8;" horiz-adv-x="501" 
d="M154 82h311v-82h-412v563h402v-88h-301v-148h231v-84h-231v-161zM213 610l-85 95v18h86l45 -100v-13h-46z" />
    <glyph glyph-name="uni1EBA" unicode="&#x1eba;" horiz-adv-x="501" 
d="M154 82h311v-82h-412v563h402v-88h-301v-148h231v-84h-231v-161zM218 619v15q6 13 21.5 22.5t29 20t13.5 28.5q0 16 -15 21.5t-33 0t-25 -24.5l-42 27q7 27 27 42.5t45.5 20t49.5 -2.5t39.5 -25.5t15.5 -47.5q0 -30 -13 -45.5t-27.5 -26.5t-19.5 -25h-66z" />
    <glyph glyph-name="Emacron" unicode="&#x112;" horiz-adv-x="501" 
d="M154 82h311v-82h-412v563h402v-88h-301v-148h231v-84h-231v-161zM113 623v71h275v-71h-275z" />
    <glyph glyph-name="Eogonek" unicode="&#x118;" horiz-adv-x="501" 
d="M154 82h311v-82l-12 -5.5t-28 -16t-28 -25.5t-12 -34q0 -32 34 -32q14 0 23.5 7.5t14.5 14.5l5 7l55 -48l-11.5 -13.5t-35 -27t-60.5 -13.5t-68.5 21t-31.5 67q0 32 18 56.5t42 41.5h-317v563h402v-88h-301v-148h231v-84h-231v-161z" />
    <glyph glyph-name="uni1EBC" unicode="&#x1ebc;" horiz-adv-x="501" 
d="M154 82h311v-82h-412v563h402v-88h-301v-148h231v-84h-231v-161zM305 626q-26 0 -41 8.5t-24.5 19.5t-18 19.5t-22.5 8.5q-16 0 -19.5 -13.5t-2.5 -39.5h-61q0 14 1 32.5t7.5 37t22.5 31t46 12.5q25 0 40.5 -8.5t25 -20t18.5 -20t22 -8.5q16 0 19 14.5t3 39.5h60
q1 -24 -3 -50t-20.5 -44.5t-52.5 -18.5z" />
    <glyph glyph-name="F" unicode="F" horiz-adv-x="474" 
d="M165 0h-100v563h401v-88h-301v-138h230v-83h-230v-254z" />
    <glyph glyph-name="G" unicode="G" horiz-adv-x="623" 
d="M290 -11q-82 0 -143.5 33t-94.5 97.5t-31 158.5q1 95 37.5 161t100.5 100t148 34q115 0 178 -50t84 -145l-98 -14q-15 63 -61.5 88t-102.5 25q-96 0 -140.5 -52t-45.5 -139q0 -96 51 -147.5t146 -51.5q58 0 105 27.5t61 88.5h-124v75h220v-278h-69l-23 98h-2
q-10 -25 -34.5 -50t-64.5 -42t-97 -17z" />
    <glyph glyph-name="Gbreve" unicode="&#x11e;" horiz-adv-x="623" 
d="M290 -11q-82 0 -143.5 33t-94.5 97.5t-31 158.5q1 95 37.5 161t100.5 100t148 34q115 0 178 -50t84 -145l-98 -14q-15 63 -61.5 88t-102.5 25q-96 0 -140.5 -52t-45.5 -139q0 -96 51 -147.5t146 -51.5q58 0 105 27.5t61 88.5h-124v75h220v-278h-69l-23 98h-2
q-10 -25 -34.5 -50t-64.5 -42t-97 -17zM304 623q-62 0 -97 28.5t-35 76.5h72q0 -28 17 -38t43 -10q25 0 42 9.5t17 38.5h72q0 -48 -34 -76.5t-97 -28.5z" />
    <glyph glyph-name="uni0122" unicode="&#x122;" horiz-adv-x="623" 
d="M290 -11q-82 0 -143.5 33t-94.5 97.5t-31 158.5q1 95 37.5 161t100.5 100t148 34q115 0 178 -50t84 -145l-98 -14q-15 63 -61.5 88t-102.5 25q-96 0 -140.5 -52t-45.5 -139q0 -96 51 -147.5t146 -51.5q58 0 105 27.5t61 88.5h-124v75h220v-278h-69l-23 98h-2
q-10 -25 -34.5 -50t-64.5 -42t-97 -17zM244 -264v67h25q25 0 35 8t10 27q-37 -1 -52.5 15.5t-15.5 41.5q0 24 13 40.5t45 16.5q26 0 41 -15.5t15 -62.5q0 -56 -20.5 -97t-69.5 -41h-26z" />
    <glyph glyph-name="Gdotaccent" unicode="&#x120;" horiz-adv-x="623" 
d="M290 -11q-82 0 -143.5 33t-94.5 97.5t-31 158.5q1 95 37.5 161t100.5 100t148 34q115 0 178 -50t84 -145l-98 -14q-15 63 -61.5 88t-102.5 25q-96 0 -140.5 -52t-45.5 -139q0 -96 51 -147.5t146 -51.5q58 0 105 27.5t61 88.5h-124v75h220v-278h-69l-23 98h-2
q-10 -25 -34.5 -50t-64.5 -42t-97 -17zM304 624q-37 0 -49.5 18.5t-12.5 43.5q0 23 12.5 41.5t49.5 18.5t48.5 -18.5t11.5 -41.5q0 -25 -11.5 -43.5t-48.5 -18.5z" />
    <glyph glyph-name="H" unicode="H" horiz-adv-x="588" 
d="M161 0h-103v563h103v-237h267v237h102v-563h-102v247h-267v-247z" />
    <glyph glyph-name="Hbar" unicode="&#x126;" horiz-adv-x="593" 
d="M58 0v414h-47v72h47v77h103v-77h267v77h102v-77h47v-72h-47v-414h-102v247h-267v-247h-103zM161 326h267v88h-267v-88z" />
    <glyph glyph-name="I" unicode="I" horiz-adv-x="378" 
d="M311 87v-87h-251v87h76v388h-76v88h251v-88h-74v-388h74z" />
    <glyph glyph-name="Iacute" unicode="&#xcd;" horiz-adv-x="378" 
d="M311 87v-87h-251v87h76v388h-76v88h251v-88h-74v-388h74zM199 610h-46v13l45 100h86v-18z" />
    <glyph glyph-name="Icircumflex" unicode="&#xce;" horiz-adv-x="378" 
d="M311 87v-87h-251v87h76v388h-76v88h251v-88h-74v-388h74zM45 625v8l118 109h43l118 -109v-8h-91l-46 51h-5l-44 -51h-93z" />
    <glyph glyph-name="Idieresis" unicode="&#xcf;" horiz-adv-x="378" 
d="M311 87v-87h-251v87h76v388h-76v88h251v-88h-74v-388h74zM95 623q-37 0 -49.5 18.5t-12.5 43.5q0 24 12.5 42t49.5 18t48.5 -18t11.5 -42q0 -25 -11.5 -43.5t-48.5 -18.5zM276 623q-36 0 -49 18.5t-13 43.5q0 24 13 42t49 18q37 0 49 -18t12 -42q0 -25 -12 -43.5
t-49 -18.5z" />
    <glyph glyph-name="Idotaccent" unicode="&#x130;" horiz-adv-x="378" 
d="M311 87v-87h-251v87h76v388h-76v88h251v-88h-74v-388h74zM130 654q-37 0 -49.5 18.5t-12.5 43.5q0 23 12.5 41.5t49.5 18.5t48.5 -18.5t11.5 -41.5q0 -25 -11.5 -43.5t-48.5 -18.5z" />
    <glyph glyph-name="uni1ECA" unicode="&#x1eca;" horiz-adv-x="378" 
d="M311 87v-87h-251v87h76v388h-76v88h251v-88h-74v-388h74zM181 -175q-31 0 -42 16t-11 38q0 20 11 35.5t42 15.5q32 0 42 -15.5t10 -35.5q0 -22 -10 -38t-42 -16z" />
    <glyph glyph-name="Igrave" unicode="&#xcc;" horiz-adv-x="378" 
d="M311 87v-87h-251v87h76v388h-76v88h251v-88h-74v-388h74zM149 610l-85 95v18h86l45 -100v-13h-46z" />
    <glyph glyph-name="uni1EC8" unicode="&#x1ec8;" horiz-adv-x="378" 
d="M311 87v-87h-251v87h76v388h-76v88h251v-88h-74v-388h74zM151 619v15q6 13 21.5 22.5t29 20t13.5 28.5q0 16 -15 21.5t-33 0t-25 -24.5l-42 27q7 27 27 42.5t45.5 20t49.5 -2.5t39.5 -25.5t15.5 -47.5q0 -30 -13 -45.5t-27.5 -26.5t-19.5 -25h-66z" />
    <glyph glyph-name="Imacron" unicode="&#x12a;" horiz-adv-x="376" 
d="M311 87v-87h-251v87h76v388h-76v88h251v-88h-74v-388h74zM47 623v71h275v-71h-275z" />
    <glyph glyph-name="Iogonek" unicode="&#x12e;" horiz-adv-x="378" 
d="M189 -186q-36 0 -68 21t-32 67q0 32 18 56.5t43 41.5h-90v87h76v388h-76v88h251v-88h-74v-388h74v-87h-66l-12.5 -5.5t-28.5 -16t-28 -25.5t-12 -34q0 -32 34 -32q15 0 24.5 7.5t14 14.5l4.5 7l55 -48l-11.5 -13.5t-35 -27t-60.5 -13.5z" />
    <glyph glyph-name="Itilde" unicode="&#x128;" horiz-adv-x="378" 
d="M311 87v-87h-251v87h76v388h-76v88h251v-88h-74v-388h74zM242 625q-26 0 -41 8.5t-24.5 19.5t-18 19.5t-22.5 8.5q-16 0 -19.5 -13.5t-2.5 -39.5h-61q0 14 1 32.5t7.5 37t22.5 31t46 12.5q25 0 40.5 -8.5t25 -20t18.5 -20t22 -8.5q16 0 19 14.5t3 39.5h60q1 -24 -3 -50
t-20.5 -44.5t-52.5 -18.5z" />
    <glyph glyph-name="J" unicode="J" horiz-adv-x="470" 
d="M224 -10q-84 0 -135 45.5t-51 135.5h96q0 -23 7.5 -44t26.5 -35t53 -14q44 0 64.5 25.5t20.5 91.5v289h-114v79h216v-352q0 -68 -14.5 -118t-54.5 -76.5t-115 -26.5z" />
    <glyph glyph-name="K" unicode="K" horiz-adv-x="578" 
d="M65 0v563h102v-266l249 266h133v-12l-223 -215l235 -324v-12h-117l-192 265l-85 -82v-183h-102z" />
    <glyph glyph-name="uni0136" unicode="&#x136;" horiz-adv-x="580" 
d="M65 0v563h102v-266l254 266h144l-237 -227l242 -336h-121l-195 266l-87 -83v-183h-102zM232 -264v67h24q26 0 35.5 8t9.5 27q-37 -1 -52 15.5t-15 41.5q0 24 12.5 40.5t45.5 16.5q25 0 40 -15.5t15 -62.5q0 -56 -20.5 -97t-69.5 -41h-25z" />
    <glyph glyph-name="L" unicode="L" horiz-adv-x="470" 
d="M63 0v563h102v-476h278v-87h-380z" />
    <glyph glyph-name="Lacute" unicode="&#x139;" horiz-adv-x="470" 
d="M63 0v563h102v-476h278v-87h-380zM132 610h-46v13l45 100h86v-18z" />
    <glyph glyph-name="Lcaron" unicode="&#x13d;" horiz-adv-x="466" 
d="M63 0v563h102v-476h278v-87h-380zM-47 751h105l57 -91l59 91h103l-140 -136h-44z" />
    <glyph glyph-name="uni013B" unicode="&#x13b;" horiz-adv-x="470" 
d="M63 0v563h102v-476h278v-87h-380zM191 -264v67h25q25 0 35 8t10 27q-37 -1 -52.5 15.5t-15.5 41.5q0 24 13 40.5t45 16.5q26 0 41 -15.5t15 -62.5q0 -56 -20.5 -97t-69.5 -41h-26z" />
    <glyph glyph-name="Lslash" unicode="&#x141;" horiz-adv-x="470" 
d="M63 0v217l-64 -30v90l64 30v256h102v-208l119 56v-90l-119 -56v-178h278v-87h-380z" />
    <glyph glyph-name="M" unicode="M" horiz-adv-x="734" 
d="M58 0v563h178l132 -519h2l131 519h177v-563h-106l7 517h-1l-135 -517h-150l-133 517h-2l6 -517h-106z" />
    <glyph glyph-name="N" unicode="N" horiz-adv-x="606" 
d="M443 563h106v-563h-194l-193 518h-2v-518h-105v563h180l206 -518h2v518z" />
    <glyph glyph-name="Nacute" unicode="&#x143;" horiz-adv-x="606" 
d="M443 563h106v-563h-194l-193 518h-2v-518h-105v563h180l206 -518h2v518zM297 610h-46v13l45 100h86v-18z" />
    <glyph glyph-name="Ncaron" unicode="&#x147;" horiz-adv-x="600" 
d="M443 563h106v-563h-194l-193 518h-2v-518h-105v563h180l206 -518h2v518zM143 751h105l57 -91l59 91h103l-140 -136h-44z" />
    <glyph glyph-name="uni0145" unicode="&#x145;" horiz-adv-x="606" 
d="M443 563h106v-563h-194l-193 518h-2v-518h-105v563h180l206 -518h2v518zM243 -264v67h25q25 0 35 8t10 27q-37 -1 -52.5 15.5t-15.5 41.5q0 24 13 40.5t45 16.5q26 0 41 -15.5t15 -62.5q0 -56 -20.5 -97t-69.5 -41h-26z" />
    <glyph glyph-name="Eng" unicode="&#x14a;" horiz-adv-x="600" 
d="M413 -204q-31 0 -53.5 9t-35 19.5t-15.5 13.5l56 68q3 -3 13.5 -10.5t26.5 -7.5q18 0 30.5 12t11.5 40v60h-92l-193 518h-2v-518h-105v563h180l206 -518h2v518h106v-636q0 -35 -13.5 -65t-43.5 -48t-79 -18z" />
    <glyph glyph-name="Ntilde" unicode="&#xd1;" horiz-adv-x="606" 
d="M443 563h106v-563h-194l-193 518h-2v-518h-105v563h180l206 -518h2v518zM351 620q-26 0 -41 8.5t-24.5 19.5t-18 19.5t-22.5 8.5q-16 0 -19.5 -13.5t-2.5 -39.5h-61q0 14 1 32.5t7.5 37t22.5 31t46 12.5q25 0 40.5 -8.5t25 -20t18.5 -20t22 -8.5q16 0 19 14.5t3 39.5h60
q1 -24 -3 -50t-20.5 -44.5t-52.5 -18.5z" />
    <glyph glyph-name="O" unicode="O" horiz-adv-x="612" 
d="M298 -14q-136 0 -208 79.5t-72 214.5q0 89 31 154.5t93.5 102t155.5 36.5q138 0 209 -79.5t71 -213.5q0 -87 -32 -153.5t-94 -103.5t-154 -37zM297 84q90 0 135.5 56t45.5 140q0 57 -20 101.5t-60 70t-101 25.5q-88 0 -134 -54t-46 -143q0 -55 19.5 -99.5t59.5 -70.5
t101 -26z" />
    <glyph glyph-name="Oacute" unicode="&#xd3;" horiz-adv-x="612" 
d="M298 -14q-136 0 -208 79.5t-72 214.5q0 89 31 154.5t93.5 102t155.5 36.5q138 0 209 -79.5t71 -213.5q0 -87 -32 -153.5t-94 -103.5t-154 -37zM297 84q90 0 135.5 56t45.5 140q0 57 -20 101.5t-60 70t-101 25.5q-88 0 -134 -54t-46 -143q0 -55 19.5 -99.5t59.5 -70.5
t101 -26zM328 610h-46v13l45 100h86v-18z" />
    <glyph glyph-name="Ocircumflex" unicode="&#xd4;" horiz-adv-x="612" 
d="M298 -14q-136 0 -208 79.5t-72 214.5q0 89 31 154.5t93.5 102t155.5 36.5q138 0 209 -79.5t71 -213.5q0 -87 -32 -153.5t-94 -103.5t-154 -37zM297 84q90 0 135.5 56t45.5 140q0 57 -20 101.5t-60 70t-101 25.5q-88 0 -134 -54t-46 -143q0 -55 19.5 -99.5t59.5 -70.5
t101 -26zM160 625v8l118 109h43l118 -109v-8h-91l-46 51h-5l-44 -51h-93z" />
    <glyph glyph-name="uni1ED0" unicode="&#x1ed0;" horiz-adv-x="612" 
d="M298 -14q-136 0 -208 79.5t-72 214.5q0 89 31 154.5t93.5 102t155.5 36.5q138 0 209 -79.5t71 -213.5q0 -87 -32 -153.5t-94 -103.5t-154 -37zM297 84q90 0 135.5 56t45.5 140q0 57 -20 101.5t-60 70t-101 25.5q-88 0 -134 -54t-46 -143q0 -55 19.5 -99.5t59.5 -70.5
t101 -26zM159 625v8l118 109h43l118 -109v-8h-91l-46 51h-5l-44 -51h-93zM443 719h-46v13l45 100h86v-18z" />
    <glyph glyph-name="uni1ED8" unicode="&#x1ed8;" horiz-adv-x="612" 
d="M298 -14q-136 0 -208 79.5t-72 214.5q0 89 31 154.5t93.5 102t155.5 36.5q138 0 209 -79.5t71 -213.5q0 -87 -32 -153.5t-94 -103.5t-154 -37zM297 84q90 0 135.5 56t45.5 140q0 57 -20 101.5t-60 70t-101 25.5q-88 0 -134 -54t-46 -143q0 -55 19.5 -99.5t59.5 -70.5
t101 -26zM298 -175q-31 0 -42 16t-11 38q0 20 11 35.5t42 15.5q32 0 42 -15.5t10 -35.5q0 -22 -10 -38t-42 -16zM159 625v8l118 109h43l118 -109v-8h-91l-46 51h-5l-44 -51h-93z" />
    <glyph glyph-name="uni1ED2" unicode="&#x1ed2;" horiz-adv-x="612" 
d="M298 -14q-136 0 -208 79.5t-72 214.5q0 89 31 154.5t93.5 102t155.5 36.5q138 0 209 -79.5t71 -213.5q0 -87 -32 -153.5t-94 -103.5t-154 -37zM297 84q90 0 135.5 56t45.5 140q0 57 -20 101.5t-60 70t-101 25.5q-88 0 -134 -54t-46 -143q0 -55 19.5 -99.5t59.5 -70.5
t101 -26zM141 718l-85 95v18h86l45 -100v-13h-46zM160 625v8l118 109h43l118 -109v-8h-91l-46 51h-5l-44 -51h-93z" />
    <glyph glyph-name="uni1ED4" unicode="&#x1ed4;" horiz-adv-x="612" 
d="M298 -14q-136 0 -208 79.5t-72 214.5q0 89 31 154.5t93.5 102t155.5 36.5q138 0 209 -79.5t71 -213.5q0 -87 -32 -153.5t-94 -103.5t-154 -37zM297 84q90 0 135.5 56t45.5 140q0 57 -20 101.5t-60 70t-101 25.5q-88 0 -134 -54t-46 -143q0 -55 19.5 -99.5t59.5 -70.5
t101 -26zM159 625v8l118 109h43l118 -109v-8h-91l-46 51h-5l-44 -51h-93zM386 718v15q6 13 21.5 22.5t29 20t13.5 28.5q0 16 -15 21.5t-33 0t-25 -24.5l-42 27q7 27 27 42.5t45.5 20t49.5 -2.5t39.5 -25.5t15.5 -47.5q0 -30 -13 -45.5t-27.5 -26.5t-19.5 -25h-66z" />
    <glyph glyph-name="uni1ED6" unicode="&#x1ed6;" horiz-adv-x="612" 
d="M298 -14q-136 0 -208 79.5t-72 214.5q0 89 31 154.5t93.5 102t155.5 36.5q138 0 209 -79.5t71 -213.5q0 -87 -32 -153.5t-94 -103.5t-154 -37zM297 84q90 0 135.5 56t45.5 140q0 57 -20 101.5t-60 70t-101 25.5q-88 0 -134 -54t-46 -143q0 -55 19.5 -99.5t59.5 -70.5
t101 -26zM159 625v8l118 109h43l118 -109v-8h-91l-46 51h-5l-44 -51h-93zM350 775q-26 0 -41 8.5t-24.5 19.5t-18 19.5t-22.5 8.5q-16 0 -19.5 -13.5t-2.5 -39.5h-61q0 14 1 32.5t7.5 37t22.5 31t46 12.5q25 0 40.5 -8.5t25 -20t18.5 -20t22 -8.5q16 0 19 14.5t3 39.5h60
q1 -24 -3 -50t-20.5 -44.5t-52.5 -18.5z" />
    <glyph glyph-name="Odieresis" unicode="&#xd6;" horiz-adv-x="612" 
d="M298 -14q-136 0 -208 79.5t-72 214.5q0 89 31 154.5t93.5 102t155.5 36.5q138 0 209 -79.5t71 -213.5q0 -87 -32 -153.5t-94 -103.5t-154 -37zM297 84q90 0 135.5 56t45.5 140q0 57 -20 101.5t-60 70t-101 25.5q-88 0 -134 -54t-46 -143q0 -55 19.5 -99.5t59.5 -70.5
t101 -26zM216 623q-37 0 -49.5 18.5t-12.5 43.5q0 24 12.5 42t49.5 18t48.5 -18t11.5 -42q0 -25 -11.5 -43.5t-48.5 -18.5zM397 623q-36 0 -49 18.5t-13 43.5q0 24 13 42t49 18q37 0 49 -18t12 -42q0 -25 -12 -43.5t-49 -18.5z" />
    <glyph glyph-name="uni1ECC" unicode="&#x1ecc;" horiz-adv-x="612" 
d="M298 -14q-136 0 -208 79.5t-72 214.5q0 89 31 154.5t93.5 102t155.5 36.5q138 0 209 -79.5t71 -213.5q0 -87 -32 -153.5t-94 -103.5t-154 -37zM297 84q90 0 135.5 56t45.5 140q0 57 -20 101.5t-60 70t-101 25.5q-88 0 -134 -54t-46 -143q0 -55 19.5 -99.5t59.5 -70.5
t101 -26zM305 -175q-31 0 -42 16t-11 38q0 20 11 35.5t42 15.5q32 0 42 -15.5t10 -35.5q0 -22 -10 -38t-42 -16z" />
    <glyph glyph-name="Ograve" unicode="&#xd2;" horiz-adv-x="612" 
d="M298 -14q-136 0 -208 79.5t-72 214.5q0 89 31 154.5t93.5 102t155.5 36.5q138 0 209 -79.5t71 -213.5q0 -87 -32 -153.5t-94 -103.5t-154 -37zM297 84q90 0 135.5 56t45.5 140q0 57 -20 101.5t-60 70t-101 25.5q-88 0 -134 -54t-46 -143q0 -55 19.5 -99.5t59.5 -70.5
t101 -26zM269 610l-85 95v18h86l45 -100v-13h-46z" />
    <glyph glyph-name="uni1ECE" unicode="&#x1ece;" horiz-adv-x="612" 
d="M298 -14q-136 0 -208 79.5t-72 214.5q0 89 31 154.5t93.5 102t155.5 36.5q138 0 209 -79.5t71 -213.5q0 -87 -32 -153.5t-94 -103.5t-154 -37zM297 84q90 0 135.5 56t45.5 140q0 57 -20 101.5t-60 70t-101 25.5q-88 0 -134 -54t-46 -143q0 -55 19.5 -99.5t59.5 -70.5
t101 -26zM270 621v15q6 13 21.5 22.5t29 20t13.5 28.5q0 16 -15 21.5t-33 0t-25 -24.5l-42 27q7 27 27 42.5t45.5 20t49.5 -2.5t39.5 -25.5t15.5 -47.5q0 -30 -13 -45.5t-27.5 -26.5t-19.5 -25h-66z" />
    <glyph glyph-name="Ohorn" unicode="&#x1a0;" horiz-adv-x="612" 
d="M298 -14q-136 0 -208 79.5t-72 214.5q0 89 31 154.5t93.5 102t155.5 36.5q138 0 209 -79.5t71 -213.5q0 -87 -32 -153.5t-94 -103.5t-154 -37zM297 84q90 0 135.5 56t45.5 140q0 57 -20 101.5t-60 70t-101 25.5q-88 0 -134 -54t-46 -143q0 -55 19.5 -99.5t59.5 -70.5
t101 -26zM373 503l1 60h41q22 0 25.5 8.5t4.5 41.5h71q0 -62 -23.5 -86t-86.5 -24h-33z" />
    <glyph glyph-name="uni1EDA" unicode="&#x1eda;" horiz-adv-x="612" 
d="M298 -14q-136 0 -208 79.5t-72 214.5q0 89 31 154.5t93.5 102t155.5 36.5q138 0 209 -79.5t71 -213.5q0 -87 -32 -153.5t-94 -103.5t-154 -37zM297 84q90 0 135.5 56t45.5 140q0 57 -20 101.5t-60 70t-101 25.5q-88 0 -134 -54t-46 -143q0 -55 19.5 -99.5t59.5 -70.5
t101 -26zM373 503l1 60h41q22 0 25.5 8.5t4.5 41.5h71q0 -62 -23.5 -86t-86.5 -24h-33zM328 610h-46v13l45 100h86v-18z" />
    <glyph glyph-name="uni1EE2" unicode="&#x1ee2;" horiz-adv-x="612" 
d="M298 -14q-136 0 -208 79.5t-72 214.5q0 89 31 154.5t93.5 102t155.5 36.5q138 0 209 -79.5t71 -213.5q0 -87 -32 -153.5t-94 -103.5t-154 -37zM297 84q90 0 135.5 56t45.5 140q0 57 -20 101.5t-60 70t-101 25.5q-88 0 -134 -54t-46 -143q0 -55 19.5 -99.5t59.5 -70.5
t101 -26zM373 503l1 60h41q22 0 25.5 8.5t4.5 41.5h71q0 -62 -23.5 -86t-86.5 -24h-33zM299 -175q-31 0 -42 16t-11 38q0 20 11 35.5t42 15.5q32 0 42 -15.5t10 -35.5q0 -22 -10 -38t-42 -16z" />
    <glyph glyph-name="uni1EDC" unicode="&#x1edc;" horiz-adv-x="612" 
d="M298 -14q-136 0 -208 79.5t-72 214.5q0 89 31 154.5t93.5 102t155.5 36.5q138 0 209 -79.5t71 -213.5q0 -87 -32 -153.5t-94 -103.5t-154 -37zM297 84q90 0 135.5 56t45.5 140q0 57 -20 101.5t-60 70t-101 25.5q-88 0 -134 -54t-46 -143q0 -55 19.5 -99.5t59.5 -70.5
t101 -26zM373 503l1 60h41q22 0 25.5 8.5t4.5 41.5h71q0 -62 -23.5 -86t-86.5 -24h-33zM269 610l-85 95v18h86l45 -100v-13h-46z" />
    <glyph glyph-name="uni1EDE" unicode="&#x1ede;" horiz-adv-x="612" 
d="M298 -14q-136 0 -208 79.5t-72 214.5q0 89 31 154.5t93.5 102t155.5 36.5q138 0 209 -79.5t71 -213.5q0 -87 -32 -153.5t-94 -103.5t-154 -37zM297 84q90 0 135.5 56t45.5 140q0 57 -20 101.5t-60 70t-101 25.5q-88 0 -134 -54t-46 -143q0 -55 19.5 -99.5t59.5 -70.5
t101 -26zM373 503l1 60h41q22 0 25.5 8.5t4.5 41.5h71q0 -62 -23.5 -86t-86.5 -24h-33zM270 621v15q6 13 21.5 22.5t29 20t13.5 28.5q0 16 -15 21.5t-33 0t-25 -24.5l-42 27q7 27 27 42.5t45.5 20t49.5 -2.5t39.5 -25.5t15.5 -47.5q0 -30 -13 -45.5t-27.5 -26.5t-19.5 -25
h-66z" />
    <glyph glyph-name="uni1EE0" unicode="&#x1ee0;" horiz-adv-x="612" 
d="M298 -14q-136 0 -208 79.5t-72 214.5q0 89 31 154.5t93.5 102t155.5 36.5q138 0 209 -79.5t71 -213.5q0 -87 -32 -153.5t-94 -103.5t-154 -37zM297 84q90 0 135.5 56t45.5 140q0 57 -20 101.5t-60 70t-101 25.5q-88 0 -134 -54t-46 -143q0 -55 19.5 -99.5t59.5 -70.5
t101 -26zM373 503l1 60h41q22 0 25.5 8.5t4.5 41.5h71q0 -62 -23.5 -86t-86.5 -24h-33zM360 624q-26 0 -41 8.5t-24.5 19.5t-18 19.5t-22.5 8.5q-16 0 -19.5 -13.5t-2.5 -39.5h-61q0 14 1 32.5t7.5 37t22.5 31t46 12.5q25 0 40.5 -8.5t25 -20t18.5 -20t22 -8.5q16 0 19 14.5
t3 39.5h60q1 -24 -3 -50t-20.5 -44.5t-52.5 -18.5z" />
    <glyph glyph-name="Ohungarumlaut" unicode="&#x150;" horiz-adv-x="599" 
d="M177 640l72 147l81 -39l-106 -131zM348 640l72 147l81 -39l-107 -131zM298 -14q-136 0 -208 79.5t-72 214.5q0 89 31 154.5t93.5 102t155.5 36.5q138 0 209 -79.5t71 -213.5q0 -87 -32 -153.5t-94 -103.5t-154 -37zM297 84q90 0 135.5 56t45.5 140q0 57 -20 101.5t-60 70
t-101 25.5q-88 0 -134 -54t-46 -143q0 -55 19.5 -99.5t59.5 -70.5t101 -26z" />
    <glyph glyph-name="Omacron" unicode="&#x14c;" horiz-adv-x="600" 
d="M298 -14q-136 0 -208 79.5t-72 214.5q0 89 31 154.5t93.5 102t155.5 36.5q138 0 209 -79.5t71 -213.5q0 -87 -32 -153.5t-94 -103.5t-154 -37zM297 84q90 0 135.5 56t45.5 140q0 57 -20 101.5t-60 70t-101 25.5q-88 0 -134 -54t-46 -143q0 -55 19.5 -99.5t59.5 -70.5
t101 -26zM168 623v71h275v-71h-275z" />
    <glyph glyph-name="Oslash" unicode="&#xd8;" horiz-adv-x="600" 
d="M84 -25l41 59q-53 38 -80 100.5t-27 145.5q0 89 31 154.5t93.5 102t155.5 36.5q101 0 168 -45l45 65l27 -15l-47 -69q87 -77 87 -229q0 -87 -32 -153.5t-94 -103.5t-154 -37q-85 0 -146 32l-41 -59zM117 280q0 -51 16.5 -93t50.5 -68l224 325q-21 16 -49 24.5t-62 8.5
q-88 0 -134 -54t-46 -143zM297 84q90 0 135.5 56t45.5 140q0 43 -12 80t-35 63l-221 -320q37 -19 87 -19z" />
    <glyph glyph-name="Otilde" unicode="&#xd5;" horiz-adv-x="612" 
d="M298 -14q-136 0 -208 79.5t-72 214.5q0 89 31 154.5t93.5 102t155.5 36.5q138 0 209 -79.5t71 -213.5q0 -87 -32 -153.5t-94 -103.5t-154 -37zM297 84q90 0 135.5 56t45.5 140q0 57 -20 101.5t-60 70t-101 25.5q-88 0 -134 -54t-46 -143q0 -55 19.5 -99.5t59.5 -70.5
t101 -26zM356 624q-26 0 -41 8.5t-24.5 19.5t-18 19.5t-22.5 8.5q-16 0 -19.5 -13.5t-2.5 -39.5h-61q0 14 1 32.5t7.5 37t22.5 31t46 12.5q25 0 40.5 -8.5t25 -20t18.5 -20t22 -8.5q16 0 19 14.5t3 39.5h60q1 -24 -3 -50t-20.5 -44.5t-52.5 -18.5z" />
    <glyph glyph-name="OE" unicode="&#x152;" horiz-adv-x="847" 
d="M382 0q-106 0 -183.5 24t-119.5 85.5t-42 172.5q0 140 92.5 210.5t252.5 70.5h419v-88h-301v-148h231v-84h-231v-161h311v-82h-429zM359 84h40v391h-40q-98 0 -156 -47.5t-58 -144.5q0 -82 26 -125t74 -58.5t114 -15.5z" />
    <glyph glyph-name="P" unicode="P" horiz-adv-x="498" 
d="M159 0h-102v563h226q94 0 146 -47t52 -142q0 -83 -53.5 -130t-144.5 -47h-124v-197zM269 480h-110v-208h110q54 0 87 26t33 78q0 53 -32.5 78.5t-87.5 25.5z" />
    <glyph glyph-name="Thorn" unicode="&#xde;" horiz-adv-x="491" 
d="M159 0h-102v563h102v-99h117q94 0 146 -47t52 -141q0 -84 -53.5 -130.5t-144.5 -46.5h-117v-99zM262 381h-103v-208h103q54 0 87 26t33 78q0 53 -32.5 78.5t-87.5 25.5z" />
    <glyph glyph-name="Q" unicode="Q" horiz-adv-x="624" 
d="M386 -128q-24 0 -49 5.5t-43 30t-21 80.5q-118 12 -179 90t-61 202q0 88 31 154t93.5 102.5t156.5 36.5q92 0 154.5 -36.5t94 -102t31.5 -153.5q0 -118 -57 -196.5t-168 -94.5q1 -22 8.5 -31t37.5 -9q5 0 20.5 4.5t28.5 4.5l1 -77q-2 0 -20.5 -2.5t-36.5 -5t-22 -2.5z
M313 86q88 0 132.5 53.5t44.5 143.5t-44 144t-133 54q-87 0 -132 -52t-45 -145q0 -90 43.5 -144t133.5 -54z" />
    <glyph glyph-name="R" unicode="R" horiz-adv-x="555" 
d="M56 0v563h207q109 0 170 -36.5t61 -128.5q0 -69 -33 -111.5t-95 -42.5q35 0 52.5 -15.5t24.5 -38.5t10 -48t7.5 -44.5t18 -27.5t42.5 3v-59q-19 -16 -45 -21.5t-51 3.5t-42 35.5t-17 74.5q0 44 -5 70.5t-25 40t-62 17t-116 -0.5v-233h-102zM158 307h101q49 0 81 4.5
t47.5 22t15.5 56.5q0 43 -19 62t-55.5 23.5t-89.5 4.5h-81v-173z" />
    <glyph glyph-name="Racute" unicode="&#x154;" horiz-adv-x="555" 
d="M56 0v563h207q109 0 170 -36.5t61 -128.5q0 -69 -33 -111.5t-95 -42.5q35 0 52.5 -15.5t24.5 -38.5t10 -48t7.5 -44.5t18 -27.5t42.5 3v-59q-19 -16 -45 -21.5t-51 3.5t-42 35.5t-17 74.5q0 44 -5 70.5t-25 40t-62 17t-116 -0.5v-233h-102zM158 307h101q49 0 81 4.5
t47.5 22t15.5 56.5q0 43 -19 62t-55.5 23.5t-89.5 4.5h-81v-173zM275 610h-46v13l45 100h86v-18z" />
    <glyph glyph-name="Rcaron" unicode="&#x158;" horiz-adv-x="569" 
d="M56 0v563h207q109 0 170 -36.5t61 -128.5q0 -69 -33 -111.5t-95 -42.5q35 0 52.5 -15.5t24.5 -38.5t10 -48t7.5 -44.5t18 -27.5t42.5 3v-59q-19 -16 -45 -21.5t-51 3.5t-42 35.5t-17 74.5q0 44 -5 70.5t-25 40t-62 17t-116 -0.5v-233h-102zM158 307h101q49 0 81 4.5
t47.5 22t15.5 56.5q0 43 -19 62t-55.5 23.5t-89.5 4.5h-81v-173zM93 751h105l57 -91l59 91h103l-140 -136h-44z" />
    <glyph glyph-name="uni0156" unicode="&#x156;" horiz-adv-x="555" 
d="M56 0v563h207q109 0 170 -36.5t61 -128.5q0 -69 -33 -111.5t-95 -42.5q35 0 52.5 -15.5t24.5 -38.5t10 -48t7.5 -44.5t18 -27.5t42.5 3v-59q-19 -16 -45 -21.5t-51 3.5t-42 35.5t-17 74.5q0 44 -5 70.5t-25 40t-62 17t-116 -0.5v-233h-102zM158 307h101q49 0 81 4.5
t47.5 22t15.5 56.5q0 43 -19 62t-55.5 23.5t-89.5 4.5h-81v-173zM215 -264v67h25q25 0 35 8t10 27q-37 -1 -52.5 15.5t-15.5 41.5q0 24 13 40.5t45 16.5q26 0 41 -15.5t15 -62.5q0 -56 -20.5 -97t-69.5 -41h-26z" />
    <glyph glyph-name="S" unicode="S" horiz-adv-x="555" 
d="M276 -11q-46 0 -90.5 11t-80.5 34t-57 60.5t-22 90.5h103q0 -5 4 -21.5t18.5 -35.5t46 -33t85.5 -14q59 0 87.5 22t28.5 47q0 28 -19.5 44.5t-52 27t-71 19.5t-77 20.5t-70 31t-49.5 50.5t-16 79q5 71 68 111t167 40q60 0 111.5 -21.5t83 -64t31.5 -108.5h-99
q0 31 -14 50.5t-35.5 30t-45.5 14t-43 3.5q-50 0 -82.5 -17t-32.5 -50q-1 -28 19 -45t53 -27t72 -18t78 -19.5t71 -30t50 -50t15 -81.5q-4 -71 -69 -110.5t-166 -39.5z" />
    <glyph glyph-name="Sacute" unicode="&#x15a;" horiz-adv-x="555" 
d="M276 -11q-46 0 -90.5 11t-80.5 34t-57 60.5t-22 90.5h103q0 -5 4 -21.5t18.5 -35.5t46 -33t85.5 -14q59 0 87.5 22t28.5 47q0 28 -19.5 44.5t-52 27t-71 19.5t-77 20.5t-70 31t-49.5 50.5t-16 79q5 71 68 111t167 40q60 0 111.5 -21.5t83 -64t31.5 -108.5h-99
q0 31 -14 50.5t-35.5 30t-45.5 14t-43 3.5q-50 0 -82.5 -17t-32.5 -50q-1 -28 19 -45t53 -27t72 -18t78 -19.5t71 -30t50 -50t15 -81.5q-4 -71 -69 -110.5t-166 -39.5zM288 610h-46v13l45 100h86v-18z" />
    <glyph glyph-name="Scaron" unicode="&#x160;" horiz-adv-x="545" 
d="M276 -11q-46 0 -90.5 11t-80.5 34t-57 60.5t-22 90.5h103q0 -5 4 -21.5t18.5 -35.5t46 -33t85.5 -14q59 0 87.5 22t28.5 47q0 28 -19.5 44.5t-52 27t-71 19.5t-77 20.5t-70 31t-49.5 50.5t-16 79q5 71 68 111t167 40q60 0 111.5 -21.5t83 -64t31.5 -108.5h-99
q0 31 -14 50.5t-35.5 30t-45.5 14t-43 3.5q-50 0 -82.5 -17t-32.5 -50q-1 -28 19 -45t53 -27t72 -18t78 -19.5t71 -30t50 -50t15 -81.5q-4 -71 -69 -110.5t-166 -39.5zM116 751h105l57 -91l59 91h103l-140 -136h-44z" />
    <glyph glyph-name="Scedilla" unicode="&#x15e;" horiz-adv-x="555" 
d="M276 -11q-46 0 -90.5 11t-80.5 34t-57 60.5t-22 90.5h103q0 -5 4 -21.5t18.5 -35.5t46 -33t85.5 -14q59 0 87.5 22t28.5 47q0 28 -19.5 44.5t-52 27t-71 19.5t-77 20.5t-70 31t-49.5 50.5t-16 79q5 71 68 111t167 40q60 0 111.5 -21.5t83 -64t31.5 -108.5h-99
q0 31 -14 50.5t-35.5 30t-45.5 14t-43 3.5q-50 0 -82.5 -17t-32.5 -50q-1 -28 19 -45t53 -27t72 -18t78 -19.5t71 -30t50 -50t15 -81.5q-4 -71 -69 -110.5t-166 -39.5zM154 -149l31 49q10 -10 31 -17.5t43.5 -9t38 4.5t14.5 24q0 14 -14 20t-33 3t-33 -15l-43 23l43 91
l47 -18l-37 -61q14 12 37 16.5t46.5 0t39.5 -20t16 -43.5q0 -32 -22 -52t-57 -26.5t-74.5 1t-73.5 30.5z" />
    <glyph glyph-name="uni0218" unicode="&#x218;" horiz-adv-x="555" 
d="M276 -11q-46 0 -90.5 11t-80.5 34t-57 60.5t-22 90.5h103q0 -5 4 -21.5t18.5 -35.5t46 -33t85.5 -14q59 0 87.5 22t28.5 47q0 28 -19.5 44.5t-52 27t-71 19.5t-77 20.5t-70 31t-49.5 50.5t-16 79q5 71 68 111t167 40q60 0 111.5 -21.5t83 -64t31.5 -108.5h-99
q0 31 -14 50.5t-35.5 30t-45.5 14t-43 3.5q-50 0 -82.5 -17t-32.5 -50q-1 -28 19 -45t53 -27t72 -18t78 -19.5t71 -30t50 -50t15 -81.5q-4 -71 -69 -110.5t-166 -39.5zM215 -264v67h25q25 0 35 8t10 27q-37 -1 -52.5 15.5t-15.5 41.5q0 24 13 40.5t45 16.5q26 0 41 -15.5
t15 -62.5q0 -56 -20.5 -97t-69.5 -41h-26z" />
    <glyph glyph-name="T" unicode="T" horiz-adv-x="465" 
d="M10 475v88h435v-88h-167v-475h-102v475h-166z" />
    <glyph glyph-name="Tbar" unicode="&#x166;" horiz-adv-x="465" 
d="M57 259v72h120v144h-167v88h435v-88h-166v-144h120v-72h-120v-259h-102v259h-120z" />
    <glyph glyph-name="Tcaron" unicode="&#x164;" horiz-adv-x="465" 
d="M10 475v88h435v-88h-167v-475h-102v475h-166zM69 751h105l57 -91l59 91h103l-140 -136h-44z" />
    <glyph glyph-name="uni0162" unicode="&#x162;" horiz-adv-x="465" 
d="M10 475v88h435v-88h-167v-475h-102v475h-166zM110 -149l31 49q10 -10 31 -17.5t43.5 -9t38 4.5t14.5 24q0 14 -14 20t-33 3t-33 -15l-43 23l43 91l47 -18l-37 -61q14 12 37 16.5t46.5 0t39.5 -20t16 -43.5q0 -32 -22 -52t-57 -26.5t-74.5 1t-73.5 30.5z" />
    <glyph glyph-name="uni021A" unicode="&#x21a;" horiz-adv-x="465" 
d="M10 475v88h435v-88h-167v-475h-102v475h-166zM161 -264v67h25q25 0 35 8t10 27q-37 -1 -52.5 15.5t-15.5 41.5q0 24 13 40.5t45 16.5q26 0 41 -15.5t15 -62.5q0 -56 -20.5 -97t-69.5 -41h-26z" />
    <glyph glyph-name="U" unicode="U" horiz-adv-x="595" 
d="M298 -14q-120 0 -182.5 66.5t-62.5 187.5v323h109v-322q0 -62 20 -96t51 -48t65 -14q38 0 69 13.5t49.5 47.5t18.5 97v322h108v-323q0 -123 -61.5 -188.5t-183.5 -65.5z" />
    <glyph glyph-name="Uacute" unicode="&#xda;" horiz-adv-x="595" 
d="M298 -14q-120 0 -182.5 66.5t-62.5 187.5v323h109v-322q0 -62 20 -96t51 -48t65 -14q38 0 69 13.5t49.5 47.5t18.5 97v322h108v-323q0 -123 -61.5 -188.5t-183.5 -65.5zM317 610h-46v13l45 100h86v-18z" />
    <glyph glyph-name="Ucircumflex" unicode="&#xdb;" horiz-adv-x="595" 
d="M298 -14q-120 0 -182.5 66.5t-62.5 187.5v323h109v-322q0 -62 20 -96t51 -48t65 -14q38 0 69 13.5t49.5 47.5t18.5 97v322h108v-323q0 -123 -61.5 -188.5t-183.5 -65.5zM160 619v8l118 109h43l118 -109v-8h-91l-46 51h-5l-44 -51h-93z" />
    <glyph glyph-name="Udieresis" unicode="&#xdc;" horiz-adv-x="595" 
d="M298 -14q-120 0 -182.5 66.5t-62.5 187.5v323h109v-322q0 -62 20 -96t51 -48t65 -14q38 0 69 13.5t49.5 47.5t18.5 97v322h108v-323q0 -123 -61.5 -188.5t-183.5 -65.5zM210 623q-37 0 -49.5 18.5t-12.5 43.5q0 24 12.5 42t49.5 18t48.5 -18t11.5 -42q0 -25 -11.5 -43.5
t-48.5 -18.5zM391 623q-36 0 -49 18.5t-13 43.5q0 24 13 42t49 18q37 0 49 -18t12 -42q0 -25 -12 -43.5t-49 -18.5z" />
    <glyph glyph-name="uni1EE4" unicode="&#x1ee4;" horiz-adv-x="595" 
d="M298 -14q-120 0 -182.5 66.5t-62.5 187.5v323h109v-322q0 -62 20 -96t51 -48t65 -14q38 0 69 13.5t49.5 47.5t18.5 97v322h108v-323q0 -123 -61.5 -188.5t-183.5 -65.5zM292 -175q-31 0 -42 16t-11 38q0 20 11 35.5t42 15.5q32 0 42 -15.5t10 -35.5q0 -22 -10 -38
t-42 -16z" />
    <glyph glyph-name="Ugrave" unicode="&#xd9;" horiz-adv-x="595" 
d="M298 -14q-120 0 -182.5 66.5t-62.5 187.5v323h109v-322q0 -62 20 -96t51 -48t65 -14q38 0 69 13.5t49.5 47.5t18.5 97v322h108v-323q0 -123 -61.5 -188.5t-183.5 -65.5zM267 610l-85 95v18h86l45 -100v-13h-46z" />
    <glyph glyph-name="uni1EE6" unicode="&#x1ee6;" horiz-adv-x="595" 
d="M298 -14q-120 0 -182.5 66.5t-62.5 187.5v323h109v-322q0 -62 20 -96t51 -48t65 -14q38 0 69 13.5t49.5 47.5t18.5 97v322h108v-323q0 -123 -61.5 -188.5t-183.5 -65.5zM262 619v15q6 13 21.5 22.5t29 20t13.5 28.5q0 16 -15 21.5t-33 0t-25 -24.5l-42 27q7 27 27 42.5
t45.5 20t49.5 -2.5t39.5 -25.5t15.5 -47.5q0 -30 -13 -45.5t-27.5 -26.5t-19.5 -25h-66z" />
    <glyph glyph-name="Uhorn" unicode="&#x1af;" horiz-adv-x="595" 
d="M500 503l1 60h41q22 0 25.5 8.5t4.5 41.5h71q0 -62 -23.5 -86t-86.5 -24h-33zM298 -14q-120 0 -182.5 66.5t-62.5 187.5v323h109v-322q0 -62 20 -96t51 -48t65 -14q38 0 69 13.5t49.5 47.5t18.5 97v322h108v-323q0 -123 -61.5 -188.5t-183.5 -65.5z" />
    <glyph glyph-name="uni1EE8" unicode="&#x1ee8;" horiz-adv-x="595" 
d="M500 503l1 60h41q22 0 25.5 8.5t4.5 41.5h71q0 -62 -23.5 -86t-86.5 -24h-33zM298 -14q-120 0 -182.5 66.5t-62.5 187.5v323h109v-322q0 -62 20 -96t51 -48t65 -14q38 0 69 13.5t49.5 47.5t18.5 97v322h108v-323q0 -123 -61.5 -188.5t-183.5 -65.5zM313 610h-46v13
l45 100h86v-18z" />
    <glyph glyph-name="uni1EF0" unicode="&#x1ef0;" horiz-adv-x="595" 
d="M500 503l1 60h41q22 0 25.5 8.5t4.5 41.5h71q0 -62 -23.5 -86t-86.5 -24h-33zM298 -14q-120 0 -182.5 66.5t-62.5 187.5v323h109v-322q0 -62 20 -96t51 -48t65 -14q38 0 69 13.5t49.5 47.5t18.5 97v322h108v-323q0 -123 -61.5 -188.5t-183.5 -65.5zM292 -175
q-31 0 -42 16t-11 38q0 20 11 35.5t42 15.5q32 0 42 -15.5t10 -35.5q0 -22 -10 -38t-42 -16z" />
    <glyph glyph-name="uni1EEA" unicode="&#x1eea;" horiz-adv-x="595" 
d="M500 503l1 60h41q22 0 25.5 8.5t4.5 41.5h71q0 -62 -23.5 -86t-86.5 -24h-33zM298 -14q-120 0 -182.5 66.5t-62.5 187.5v323h109v-322q0 -62 20 -96t51 -48t65 -14q38 0 69 13.5t49.5 47.5t18.5 97v322h108v-323q0 -123 -61.5 -188.5t-183.5 -65.5zM270 610l-85 95v18h86
l45 -100v-13h-46z" />
    <glyph glyph-name="uni1EEC" unicode="&#x1eec;" horiz-adv-x="595" 
d="M500 503l1 60h41q22 0 25.5 8.5t4.5 41.5h71q0 -62 -23.5 -86t-86.5 -24h-33zM298 -14q-120 0 -182.5 66.5t-62.5 187.5v323h109v-322q0 -62 20 -96t51 -48t65 -14q38 0 69 13.5t49.5 47.5t18.5 97v322h108v-323q0 -123 -61.5 -188.5t-183.5 -65.5zM262 619v15
q6 13 21.5 22.5t29 20t13.5 28.5q0 16 -15 21.5t-33 0t-25 -24.5l-42 27q7 27 27 42.5t45.5 20t49.5 -2.5t39.5 -25.5t15.5 -47.5q0 -30 -13 -45.5t-27.5 -26.5t-19.5 -25h-66z" />
    <glyph glyph-name="uni1EEE" unicode="&#x1eee;" horiz-adv-x="595" 
d="M500 503l1 60h41q22 0 25.5 8.5t4.5 41.5h71q0 -62 -23.5 -86t-86.5 -24h-33zM298 -14q-120 0 -182.5 66.5t-62.5 187.5v323h109v-322q0 -62 20 -96t51 -48t65 -14q38 0 69 13.5t49.5 47.5t18.5 97v322h108v-323q0 -123 -61.5 -188.5t-183.5 -65.5zM356 625
q-26 0 -41 8.5t-24.5 19.5t-18 19.5t-22.5 8.5q-16 0 -19.5 -13.5t-2.5 -39.5h-61q0 14 1 32.5t7.5 37t22.5 31t46 12.5q25 0 40.5 -8.5t25 -20t18.5 -20t22 -8.5q16 0 19 14.5t3 39.5h60q1 -24 -3 -50t-20.5 -44.5t-52.5 -18.5z" />
    <glyph glyph-name="Uhungarumlaut" unicode="&#x170;" horiz-adv-x="586" 
d="M164 640l72 147l81 -39l-107 -131zM334 640l72 147l82 -39l-107 -131zM298 -14q-120 0 -182.5 66.5t-62.5 187.5v323h109v-322q0 -62 20 -96t51 -48t65 -14q38 0 69 13.5t49.5 47.5t18.5 97v322h108v-323q0 -123 -61.5 -188.5t-183.5 -65.5z" />
    <glyph glyph-name="Umacron" unicode="&#x16a;" horiz-adv-x="586" 
d="M298 -14q-120 0 -182.5 66.5t-62.5 187.5v323h109v-322q0 -62 20 -96t51 -48t65 -14q38 0 69 13.5t49.5 47.5t18.5 97v322h108v-323q0 -123 -61.5 -188.5t-183.5 -65.5zM161 623v71h275v-71h-275z" />
    <glyph glyph-name="Uogonek" unicode="&#x172;" horiz-adv-x="595" 
d="M305 -190q-36 0 -68 21t-32 67q0 29 15 51.5t36 38.5q-99 12 -151 77t-52 175v323h109v-322q0 -62 20 -96t51 -48t65 -14q38 0 69 13.5t49.5 47.5t18.5 97v322h108v-323q0 -109 -48.5 -173.5t-145.5 -77.5q-11 -5 -27.5 -15t-29 -25t-12.5 -34q0 -32 34 -32
q15 0 24.5 7.5t14 14.5l4.5 7l55 -48l-11.5 -13.5t-35 -27t-60.5 -13.5z" />
    <glyph glyph-name="Uring" unicode="&#x16e;" horiz-adv-x="595" 
d="M298 -14q-120 0 -182.5 66.5t-62.5 187.5v323h109v-322q0 -62 20 -96t51 -48t65 -14q38 0 69 13.5t49.5 47.5t18.5 97v322h108v-323q0 -123 -61.5 -188.5t-183.5 -65.5zM295 589q-50 0 -74.5 26.5t-24.5 70.5q0 46 24.5 73.5t74.5 27.5t76 -27.5t26 -73.5
q0 -42 -26 -69.5t-76 -27.5zM294 648q21 0 31 11.5t10 29.5q0 17 -10 29t-31 12q-20 0 -30.5 -12.5t-10.5 -28.5q0 -18 11 -29.5t30 -11.5z" />
    <glyph glyph-name="Utilde" unicode="&#x168;" horiz-adv-x="595" 
d="M298 -14q-120 0 -182.5 66.5t-62.5 187.5v323h109v-322q0 -62 20 -96t51 -48t65 -14q38 0 69 13.5t49.5 47.5t18.5 97v322h108v-323q0 -123 -61.5 -188.5t-183.5 -65.5zM356 625q-26 0 -41 8.5t-24.5 19.5t-18 19.5t-22.5 8.5q-16 0 -19.5 -13.5t-2.5 -39.5h-61
q0 14 1 32.5t7.5 37t22.5 31t46 12.5q25 0 40.5 -8.5t25 -20t18.5 -20t22 -8.5q16 0 19 14.5t3 39.5h60q1 -24 -3 -50t-20.5 -44.5t-52.5 -18.5z" />
    <glyph glyph-name="V" unicode="V" horiz-adv-x="556" 
d="M437 563h112l-186 -563h-170l-186 563h111l159 -520z" />
    <glyph glyph-name="W" unicode="W" horiz-adv-x="820" 
d="M692 563h108l-135 -563h-164l-94 432l-93 -432h-165l-136 563h109l109 -520l122 518l-1 2h109l122 -520z" />
    <glyph glyph-name="Wacute" unicode="&#x1e82;" horiz-adv-x="820" 
d="M692 563h108l-135 -563h-164l-94 432l-93 -432h-165l-136 563h109l109 -520l122 518l-1 2h109l122 -520zM426 610h-46v13l45 100h86v-18z" />
    <glyph glyph-name="Wcircumflex" unicode="&#x174;" horiz-adv-x="820" 
d="M692 563h108l-135 -563h-164l-94 432l-93 -432h-165l-136 563h109l109 -520l122 518l-1 2h109l122 -520zM268 625v8l118 109h43l118 -109v-8h-91l-46 51h-5l-44 -51h-93z" />
    <glyph glyph-name="Wdieresis" unicode="&#x1e84;" horiz-adv-x="820" 
d="M692 563h108l-135 -563h-164l-94 432l-93 -432h-165l-136 563h109l109 -520l122 518l-1 2h109l122 -520zM317 623q-37 0 -49.5 18.5t-12.5 43.5q0 24 12.5 42t49.5 18t48.5 -18t11.5 -42q0 -25 -11.5 -43.5t-48.5 -18.5zM498 623q-36 0 -49 18.5t-13 43.5q0 24 13 42
t49 18q37 0 49 -18t12 -42q0 -25 -12 -43.5t-49 -18.5z" />
    <glyph glyph-name="Wgrave" unicode="&#x1e80;" horiz-adv-x="820" 
d="M692 563h108l-135 -563h-164l-94 432l-93 -432h-165l-136 563h109l109 -520l122 518l-1 2h109l122 -520zM362 610l-85 95v18h86l45 -100v-13h-46z" />
    <glyph glyph-name="X" unicode="X" horiz-adv-x="570" 
d="M21 0l200 297l-184 266h121l130 -205l131 205h119l-181 -266l200 -297h-119l-150 233l-149 -233h-118z" />
    <glyph glyph-name="Y" unicode="Y" horiz-adv-x="447" 
d="M171 0v199l-192 364h114l131 -275l129 275h114l-195 -363v-200h-101z" />
    <glyph glyph-name="Yacute" unicode="&#xdd;" horiz-adv-x="447" 
d="M171 0v199l-192 364h114l131 -275l129 275h114l-195 -363v-200h-101zM238 610h-46v13l45 100h86v-18z" />
    <glyph glyph-name="Ycircumflex" unicode="&#x176;" horiz-adv-x="447" 
d="M171 0v199l-192 364h114l131 -275l129 275h114l-195 -363v-200h-101zM84 625v8l118 109h43l118 -109v-8h-91l-46 51h-5l-44 -51h-93z" />
    <glyph glyph-name="Ydieresis" unicode="&#x178;" horiz-adv-x="447" 
d="M171 0v199l-192 364h114l131 -275l129 275h114l-195 -363v-200h-101zM134 623q-37 0 -49.5 18.5t-12.5 43.5q0 24 12.5 42t49.5 18t48.5 -18t11.5 -42q0 -25 -11.5 -43.5t-48.5 -18.5zM315 623q-36 0 -49 18.5t-13 43.5q0 24 13 42t49 18q37 0 49 -18t12 -42
q0 -25 -12 -43.5t-49 -18.5z" />
    <glyph glyph-name="uni1EF4" unicode="&#x1ef4;" horiz-adv-x="447" 
d="M171 0v199l-192 364h114l131 -275l129 275h114l-195 -363v-200h-101zM218 -175q-31 0 -42 16t-11 38q0 20 11 35.5t42 15.5q32 0 42 -15.5t10 -35.5q0 -22 -10 -38t-42 -16z" />
    <glyph glyph-name="Ygrave" unicode="&#x1ef2;" horiz-adv-x="447" 
d="M171 0v199l-192 364h114l131 -275l129 275h114l-195 -363v-200h-101zM185 610l-85 95v18h86l45 -100v-13h-46z" />
    <glyph glyph-name="uni1EF6" unicode="&#x1ef6;" horiz-adv-x="447" 
d="M171 0v199l-192 364h114l131 -275l129 275h114l-195 -363v-200h-101zM187 619v15q6 13 21.5 22.5t29 20t13.5 28.5q0 16 -15 21.5t-33 0t-25 -24.5l-42 27q7 27 27 42.5t45.5 20t49.5 -2.5t39.5 -25.5t15.5 -47.5q0 -30 -13 -45.5t-27.5 -26.5t-19.5 -25h-66z" />
    <glyph glyph-name="uni1EF8" unicode="&#x1ef8;" horiz-adv-x="447" 
d="M171 0v199l-192 364h114l131 -275l129 275h114l-195 -363v-200h-101zM279 624q-26 0 -41 8.5t-24.5 19.5t-18 19.5t-22.5 8.5q-16 0 -19.5 -13.5t-2.5 -39.5h-61q0 14 1 32.5t7.5 37t22.5 31t46 12.5q25 0 40.5 -8.5t25 -20t18.5 -20t22 -8.5q16 0 19 14.5t3 39.5h60
q1 -24 -3 -50t-20.5 -44.5t-52.5 -18.5z" />
    <glyph glyph-name="Z" unicode="Z" horiz-adv-x="564" 
d="M43 0v86l343 389h-317v88h448v-87l-338 -388h336v-88h-472z" />
    <glyph glyph-name="Zacute" unicode="&#x179;" horiz-adv-x="564" 
d="M43 0v86l343 389h-317v88h448v-87l-338 -388h336v-88h-472zM308 610h-46v13l45 100h86v-18z" />
    <glyph glyph-name="Zcaron" unicode="&#x17d;" horiz-adv-x="564" 
d="M43 0v86l343 389h-317v88h448v-87l-338 -388h336v-88h-472zM133 751h105l57 -91l59 91h103l-140 -136h-44z" />
    <glyph glyph-name="Zdotaccent" unicode="&#x17b;" horiz-adv-x="564" 
d="M43 0v86l343 389h-317v88h448v-87l-338 -388h336v-88h-472zM284 654q-37 0 -49.5 18.5t-12.5 43.5q0 23 12.5 41.5t49.5 18.5t48.5 -18.5t11.5 -41.5q0 -25 -11.5 -43.5t-48.5 -18.5z" />
    <glyph glyph-name="I.ss01" horiz-adv-x="501" 
d="M205 -67q-1 127 -2 211t-7 133.5t-22.5 74t-50 32.5t-88.5 8v83q63 0 98 11t50.5 36.5t18.5 68.5t3 106h84q0 -63 3.5 -106t19 -68.5t52 -36.5t102.5 -11v-83q-57 0 -92 -8t-53 -32.5t-25 -74.5t-7.5 -134t-1.5 -211zM244 204h7q1 73 2 117.5t7 68.5t21.5 32.5t45.5 8.5
q-39 0 -55 9.5t-18.5 28.5t-2.5 50h-7q0 -31 -2.5 -50.5t-18 -28.5t-54.5 -9q31 0 46.5 -8.5t21 -32.5t6 -68.5t1.5 -117.5z" />
    <glyph glyph-name="a" unicode="a" horiz-adv-x="453" 
d="M178 -10q-85 0 -121 58t-36 152q0 95 36.5 153.5t120.5 58.5q48 0 76 -16.5t42 -36.5t17 -30h2v82h105v-411h-88l-17 67h-2q-3 -9 -17.5 -27.5t-43 -34t-74.5 -15.5zM220 76q56 0 75.5 35.5t19.5 87.5q0 55 -20 89t-75 34q-39 0 -60.5 -17t-30 -44.5t-8.5 -61.5t8.5 -62
t30 -44.5t60.5 -16.5z" />
    <glyph glyph-name="aacute" unicode="&#xe1;" horiz-adv-x="453" 
d="M178 -10q-85 0 -121 58t-36 152q0 95 36.5 153.5t120.5 58.5q48 0 76 -16.5t42 -36.5t17 -30h2v82h105v-411h-88l-17 67h-2q-3 -9 -17.5 -27.5t-43 -34t-74.5 -15.5zM220 76q56 0 75.5 35.5t19.5 87.5q0 55 -20 89t-75 34q-39 0 -60.5 -17t-30 -44.5t-8.5 -61.5t8.5 -62
t30 -44.5t60.5 -16.5zM250 455h-46v13l45 100h86v-18z" />
    <glyph glyph-name="abreve" unicode="&#x103;" horiz-adv-x="453" 
d="M178 -10q-85 0 -121 58t-36 152q0 95 36.5 153.5t120.5 58.5q48 0 76 -16.5t42 -36.5t17 -30h2v82h105v-411h-88l-17 67h-2q-3 -9 -17.5 -27.5t-43 -34t-74.5 -15.5zM220 76q56 0 75.5 35.5t19.5 87.5q0 55 -20 89t-75 34q-39 0 -60.5 -17t-30 -44.5t-8.5 -61.5t8.5 -62
t30 -44.5t60.5 -16.5zM223 462q-62 0 -97 28.5t-35 76.5h72q0 -28 17 -38t43 -10q25 0 42 9.5t17 38.5h72q0 -48 -34 -76.5t-97 -28.5z" />
    <glyph glyph-name="uni1EAF" unicode="&#x1eaf;" horiz-adv-x="453" 
d="M178 -10q-85 0 -121 58t-36 152q0 95 36.5 153.5t120.5 58.5q48 0 76 -16.5t42 -36.5t17 -30h2v82h105v-411h-88l-17 67h-2q-3 -9 -17.5 -27.5t-43 -34t-74.5 -15.5zM220 76q56 0 75.5 35.5t19.5 87.5q0 55 -20 89t-75 34q-39 0 -60.5 -17t-30 -44.5t-8.5 -61.5t8.5 -62
t30 -44.5t60.5 -16.5zM223 462q-62 0 -97 28.5t-35 76.5h72q0 -28 17 -38t43 -10q25 0 42 9.5t17 38.5h72q0 -48 -34 -76.5t-97 -28.5zM244 585h-46v13l45 100h86v-18z" />
    <glyph glyph-name="uni1EB7" unicode="&#x1eb7;" horiz-adv-x="453" 
d="M178 -10q-85 0 -121 58t-36 152q0 95 36.5 153.5t120.5 58.5q48 0 76 -16.5t42 -36.5t17 -30h2v82h105v-411h-88l-17 67h-2q-3 -9 -17.5 -27.5t-43 -34t-74.5 -15.5zM220 76q56 0 75.5 35.5t19.5 87.5q0 55 -20 89t-75 34q-39 0 -60.5 -17t-30 -44.5t-8.5 -61.5t8.5 -62
t30 -44.5t60.5 -16.5zM223 462q-62 0 -97 28.5t-35 76.5h72q0 -28 17 -38t43 -10q25 0 42 9.5t17 38.5h72q0 -48 -34 -76.5t-97 -28.5zM218 -175q-31 0 -42 16t-11 38q0 20 11 35.5t42 15.5q32 0 42 -15.5t10 -35.5q0 -22 -10 -38t-42 -16z" />
    <glyph glyph-name="uni1EB1" unicode="&#x1eb1;" horiz-adv-x="453" 
d="M178 -10q-85 0 -121 58t-36 152q0 95 36.5 153.5t120.5 58.5q48 0 76 -16.5t42 -36.5t17 -30h2v82h105v-411h-88l-17 67h-2q-3 -9 -17.5 -27.5t-43 -34t-74.5 -15.5zM220 76q56 0 75.5 35.5t19.5 87.5q0 55 -20 89t-75 34q-39 0 -60.5 -17t-30 -44.5t-8.5 -61.5t8.5 -62
t30 -44.5t60.5 -16.5zM223 462q-62 0 -97 28.5t-35 76.5h72q0 -28 17 -38t43 -10q25 0 42 9.5t17 38.5h72q0 -48 -34 -76.5t-97 -28.5zM197 585l-85 95v18h86l45 -100v-13h-46z" />
    <glyph glyph-name="uni1EB3" unicode="&#x1eb3;" horiz-adv-x="453" 
d="M178 -10q-85 0 -121 58t-36 152q0 95 36.5 153.5t120.5 58.5q48 0 76 -16.5t42 -36.5t17 -30h2v82h105v-411h-88l-17 67h-2q-3 -9 -17.5 -27.5t-43 -34t-74.5 -15.5zM220 76q56 0 75.5 35.5t19.5 87.5q0 55 -20 89t-75 34q-39 0 -60.5 -17t-30 -44.5t-8.5 -61.5t8.5 -62
t30 -44.5t60.5 -16.5zM223 462q-62 0 -97 28.5t-35 76.5h72q0 -28 17 -38t43 -10q25 0 42 9.5t17 38.5h72q0 -48 -34 -76.5t-97 -28.5zM191 583v15q6 13 21.5 22.5t29 20t13.5 28.5q0 16 -15 21.5t-33 0t-25 -24.5l-42 27q7 27 27 42.5t45.5 20t49.5 -2.5t39.5 -25.5
t15.5 -47.5q0 -30 -13 -45.5t-27.5 -26.5t-19.5 -25h-66z" />
    <glyph glyph-name="uni1EB5" unicode="&#x1eb5;" horiz-adv-x="453" 
d="M178 -10q-85 0 -121 58t-36 152q0 95 36.5 153.5t120.5 58.5q48 0 76 -16.5t42 -36.5t17 -30h2v82h105v-411h-88l-17 67h-2q-3 -9 -17.5 -27.5t-43 -34t-74.5 -15.5zM220 76q56 0 75.5 35.5t19.5 87.5q0 55 -20 89t-75 34q-39 0 -60.5 -17t-30 -44.5t-8.5 -61.5t8.5 -62
t30 -44.5t60.5 -16.5zM219 462q-62 0 -97 28.5t-35 76.5h72q0 -28 17 -38t43 -10q25 0 42 9.5t17 38.5h72q0 -48 -34 -76.5t-97 -28.5zM273 618q-26 0 -41 8.5t-24.5 19.5t-18 19.5t-22.5 8.5q-16 0 -19.5 -13.5t-2.5 -39.5h-61q0 14 1 32.5t7.5 37t22.5 31t46 12.5
q25 0 40.5 -8.5t25 -20t18.5 -20t22 -8.5q16 0 19 14.5t3 39.5h60q1 -24 -3 -50t-20.5 -44.5t-52.5 -18.5z" />
    <glyph glyph-name="acircumflex" unicode="&#xe2;" horiz-adv-x="453" 
d="M178 -10q-85 0 -121 58t-36 152q0 95 36.5 153.5t120.5 58.5q48 0 76 -16.5t42 -36.5t17 -30h2v82h105v-411h-88l-17 67h-2q-3 -9 -17.5 -27.5t-43 -34t-74.5 -15.5zM220 76q56 0 75.5 35.5t19.5 87.5q0 55 -20 89t-75 34q-39 0 -60.5 -17t-30 -44.5t-8.5 -61.5t8.5 -62
t30 -44.5t60.5 -16.5zM85 463v8l118 109h43l118 -109v-8h-91l-46 51h-5l-44 -51h-93z" />
    <glyph glyph-name="uni1EA5" unicode="&#x1ea5;" horiz-adv-x="453" 
d="M178 -10q-85 0 -121 58t-36 152q0 95 36.5 153.5t120.5 58.5q48 0 76 -16.5t42 -36.5t17 -30h2v82h105v-411h-88l-17 67h-2q-3 -9 -17.5 -27.5t-43 -34t-74.5 -15.5zM220 76q56 0 75.5 35.5t19.5 87.5q0 55 -20 89t-75 34q-39 0 -60.5 -17t-30 -44.5t-8.5 -61.5t8.5 -62
t30 -44.5t60.5 -16.5zM84 464v8l118 109h43l118 -109v-8h-91l-46 51h-5l-44 -51h-93zM368 558h-46v13l45 100h86v-18z" />
    <glyph glyph-name="uni1EAD" unicode="&#x1ead;" horiz-adv-x="453" 
d="M178 -10q-85 0 -121 58t-36 152q0 95 36.5 153.5t120.5 58.5q48 0 76 -16.5t42 -36.5t17 -30h2v82h105v-411h-88l-17 67h-2q-3 -9 -17.5 -27.5t-43 -34t-74.5 -15.5zM220 76q56 0 75.5 35.5t19.5 87.5q0 55 -20 89t-75 34q-39 0 -60.5 -17t-30 -44.5t-8.5 -61.5t8.5 -62
t30 -44.5t60.5 -16.5zM85 463v8l118 109h43l118 -109v-8h-91l-46 51h-5l-44 -51h-93zM218 -175q-31 0 -42 16t-11 38q0 20 11 35.5t42 15.5q32 0 42 -15.5t10 -35.5q0 -22 -10 -38t-42 -16z" />
    <glyph glyph-name="uni1EA7" unicode="&#x1ea7;" horiz-adv-x="453" 
d="M178 -10q-85 0 -121 58t-36 152q0 95 36.5 153.5t120.5 58.5q48 0 76 -16.5t42 -36.5t17 -30h2v82h105v-411h-88l-17 67h-2q-3 -9 -17.5 -27.5t-43 -34t-74.5 -15.5zM220 76q56 0 75.5 35.5t19.5 87.5q0 55 -20 89t-75 34q-39 0 -60.5 -17t-30 -44.5t-8.5 -61.5t8.5 -62
t30 -44.5t60.5 -16.5zM66 557l-85 95v18h86l45 -100v-13h-46zM85 464v8l118 109h43l118 -109v-8h-91l-46 51h-5l-44 -51h-93z" />
    <glyph glyph-name="uni1EA9" unicode="&#x1ea9;" horiz-adv-x="453" 
d="M178 -10q-85 0 -121 58t-36 152q0 95 36.5 153.5t120.5 58.5q48 0 76 -16.5t42 -36.5t17 -30h2v82h105v-411h-88l-17 67h-2q-3 -9 -17.5 -27.5t-43 -34t-74.5 -15.5zM220 76q56 0 75.5 35.5t19.5 87.5q0 55 -20 89t-75 34q-39 0 -60.5 -17t-30 -44.5t-8.5 -61.5t8.5 -62
t30 -44.5t60.5 -16.5zM84 463v8l118 109h43l118 -109v-8h-91l-46 51h-5l-44 -51h-93zM311 556v15q6 13 21.5 22.5t29 20t13.5 28.5q0 16 -15 21.5t-33 0t-25 -24.5l-42 27q7 27 27 42.5t45.5 20t49.5 -2.5t39.5 -25.5t15.5 -47.5q0 -30 -13 -45.5t-27.5 -26.5t-19.5 -25h-66
z" />
    <glyph glyph-name="uni1EAB" unicode="&#x1eab;" horiz-adv-x="453" 
d="M178 -10q-85 0 -121 58t-36 152q0 95 36.5 153.5t120.5 58.5q48 0 76 -16.5t42 -36.5t17 -30h2v82h105v-411h-88l-17 67h-2q-3 -9 -17.5 -27.5t-43 -34t-74.5 -15.5zM220 76q56 0 75.5 35.5t19.5 87.5q0 55 -20 89t-75 34q-39 0 -60.5 -17t-30 -44.5t-8.5 -61.5t8.5 -62
t30 -44.5t60.5 -16.5zM85 463v8l118 109h43l118 -109v-8h-91l-46 51h-5l-44 -51h-93zM276 613q-26 0 -41 8.5t-24.5 19.5t-18 19.5t-22.5 8.5q-16 0 -19.5 -13.5t-2.5 -39.5h-61q0 14 1 32.5t7.5 37t22.5 31t46 12.5q25 0 40.5 -8.5t25 -20t18.5 -20t22 -8.5q16 0 19 14.5
t3 39.5h60q1 -24 -3 -50t-20.5 -44.5t-52.5 -18.5z" />
    <glyph glyph-name="adieresis" unicode="&#xe4;" horiz-adv-x="513" 
d="M149 456q-37 0 -49.5 18.5t-12.5 43.5q0 24 12.5 42t49.5 18t48.5 -18t11.5 -42q0 -25 -11.5 -43.5t-48.5 -18.5zM330 456q-36 0 -49 18.5t-13 43.5q0 24 13 42t49 18q37 0 49 -18t12 -42q0 -25 -12 -43.5t-49 -18.5zM200 -10q-61 0 -101.5 29.5t-61 78t-20.5 107.5
q0 60 21 108.5t61.5 77t100.5 28.5q47 0 81.5 -18.5t57.5 -47.5v58h101v-291q0 -34 13 -48t43 1l1 -58q-1 1 -18.5 -12t-56.5 -13q-32 0 -49.5 12t-24.5 29.5t-8 33.5q-22 -33 -56.5 -54t-83.5 -21zM227 70q41 0 63.5 18.5t32 49.5t9.5 67q0 38 -9.5 69t-32.5 49.5t-63 18.5
q-42 0 -65.5 -19t-32.5 -50.5t-9 -67.5q0 -35 9 -66t32.5 -50t65.5 -19z" />
    <glyph glyph-name="uni1EA1" unicode="&#x1ea1;" horiz-adv-x="453" 
d="M178 -10q-85 0 -121 58t-36 152q0 95 36.5 153.5t120.5 58.5q48 0 76 -16.5t42 -36.5t17 -30h2v82h105v-411h-88l-17 67h-2q-3 -9 -17.5 -27.5t-43 -34t-74.5 -15.5zM220 76q56 0 75.5 35.5t19.5 87.5q0 55 -20 89t-75 34q-39 0 -60.5 -17t-30 -44.5t-8.5 -61.5t8.5 -62
t30 -44.5t60.5 -16.5zM218 -175q-31 0 -42 16t-11 38q0 20 11 35.5t42 15.5q32 0 42 -15.5t10 -35.5q0 -22 -10 -38t-42 -16z" />
    <glyph glyph-name="agrave" unicode="&#xe0;" horiz-adv-x="453" 
d="M178 -10q-85 0 -121 58t-36 152q0 95 36.5 153.5t120.5 58.5q48 0 76 -16.5t42 -36.5t17 -30h2v82h105v-411h-88l-17 67h-2q-3 -9 -17.5 -27.5t-43 -34t-74.5 -15.5zM220 76q56 0 75.5 35.5t19.5 87.5q0 55 -20 89t-75 34q-39 0 -60.5 -17t-30 -44.5t-8.5 -61.5t8.5 -62
t30 -44.5t60.5 -16.5zM204 455l-85 95v18h86l45 -100v-13h-46z" />
    <glyph glyph-name="uni1EA3" unicode="&#x1ea3;" horiz-adv-x="453" 
d="M178 -10q-85 0 -121 58t-36 152q0 95 36.5 153.5t120.5 58.5q48 0 76 -16.5t42 -36.5t17 -30h2v82h105v-411h-88l-17 67h-2q-3 -9 -17.5 -27.5t-43 -34t-74.5 -15.5zM220 76q56 0 75.5 35.5t19.5 87.5q0 55 -20 89t-75 34q-39 0 -60.5 -17t-30 -44.5t-8.5 -61.5t8.5 -62
t30 -44.5t60.5 -16.5zM192 469v15q6 13 21.5 22.5t29 20t13.5 28.5q0 16 -15 21.5t-33 0t-25 -24.5l-42 27q7 27 27 42.5t45.5 20t49.5 -2.5t39.5 -25.5t15.5 -47.5q0 -30 -13 -45.5t-27.5 -26.5t-19.5 -25h-66z" />
    <glyph glyph-name="amacron" unicode="&#x101;" horiz-adv-x="453" 
d="M178 -10q-85 0 -121 58t-36 152q0 95 36.5 153.5t120.5 58.5q48 0 76 -16.5t42 -36.5t17 -30h2v82h105v-411h-88l-17 67h-2q-3 -9 -17.5 -27.5t-43 -34t-74.5 -15.5zM220 76q56 0 75.5 35.5t19.5 87.5q0 55 -20 89t-75 34q-39 0 -60.5 -17t-30 -44.5t-8.5 -61.5t8.5 -62
t30 -44.5t60.5 -16.5zM86 458v71h275v-71h-275z" />
    <glyph glyph-name="aogonek" unicode="&#x105;" horiz-adv-x="453" 
d="M178 -10q-85 0 -121 58t-36 152q0 95 36.5 153.5t120.5 58.5q48 0 76 -16.5t42 -36.5t17 -30h2v82h105v-411h-88l-17 67h-2q-3 -9 -17.5 -27.5t-43 -34t-74.5 -15.5zM220 76q56 0 75.5 35.5t19.5 87.5q0 55 -20 89t-75 34q-39 0 -60.5 -17t-30 -44.5t-8.5 -61.5t8.5 -62
t30 -44.5t60.5 -16.5zM369 -199q-37 0 -68.5 21t-31.5 67q0 30 15 53t37.5 40t45 28.5t38 17l15.5 5.5v-46l-11.5 -5.5t-27 -16t-27 -25.5t-11.5 -34q0 -32 34 -32q15 0 24.5 7.5t14.5 14.5l5 7l54 -48l-11 -13.5t-35 -27t-60 -13.5z" />
    <glyph glyph-name="aring" unicode="&#xe5;" horiz-adv-x="453" 
d="M178 -10q-85 0 -121 58t-36 152q0 95 36.5 153.5t120.5 58.5q48 0 76 -16.5t42 -36.5t17 -30h2v82h105v-411h-88l-17 67h-2q-3 -9 -17.5 -27.5t-43 -34t-74.5 -15.5zM220 76q56 0 75.5 35.5t19.5 87.5q0 55 -20 89t-75 34q-39 0 -60.5 -17t-30 -44.5t-8.5 -61.5t8.5 -62
t30 -44.5t60.5 -16.5zM222 470q-50 0 -74.5 26.5t-24.5 70.5q0 46 24.5 73.5t74.5 27.5t76 -27.5t26 -73.5q0 -42 -26 -69.5t-76 -27.5zM221 529q21 0 31 11.5t10 29.5q0 17 -10 29t-31 12q-20 0 -30.5 -12.5t-10.5 -28.5q0 -18 11 -29.5t30 -11.5z" />
    <glyph glyph-name="atilde" unicode="&#xe3;" horiz-adv-x="453" 
d="M178 -10q-85 0 -121 58t-36 152q0 95 36.5 153.5t120.5 58.5q48 0 76 -16.5t42 -36.5t17 -30h2v82h105v-411h-88l-17 67h-2q-3 -9 -17.5 -27.5t-43 -34t-74.5 -15.5zM220 76q56 0 75.5 35.5t19.5 87.5q0 55 -20 89t-75 34q-39 0 -60.5 -17t-30 -44.5t-8.5 -61.5t8.5 -62
t30 -44.5t60.5 -16.5zM278 471q-26 0 -41 8.5t-24.5 19.5t-18 19.5t-22.5 8.5q-16 0 -19.5 -13.5t-2.5 -39.5h-61q0 14 1 32.5t7.5 37t22.5 31t46 12.5q25 0 40.5 -8.5t25 -20t18.5 -20t22 -8.5q16 0 19 14.5t3 39.5h60q1 -24 -3 -50t-20.5 -44.5t-52.5 -18.5z" />
    <glyph glyph-name="ae" unicode="&#xe6;" horiz-adv-x="729" 
d="M145 0q-56 0 -90 29.5t-34 77.5q0 44 25.5 68.5t65 37.5t82.5 22q43 10 65 17t29.5 15.5t7.5 22.5q0 26 -21.5 41t-50.5 15q-20 0 -40 -7.5t-32.5 -25t-10.5 -47.5h-96q2 56 28.5 90.5t67 50t84.5 15.5q40 0 77 -14t57 -43q24 26 60 42t85 16q52 0 94 -25.5t67.5 -69
t26.5 -99.5l1 -26h-298q0 -54 28.5 -84.5t79.5 -30.5q40 0 63.5 19t30.5 52l98 -18q-16 -59 -63 -100t-128 -41q-87 0 -134.5 42.5t-63.5 101.5q-2 -19 -12 -43.5t-29.5 -47.5t-49 -38t-70.5 -15zM396 257h194q0 7 -3 22.5t-11.5 32t-26.5 27.5t-49 11q-39 0 -61 -17
t-31.5 -39t-11.5 -37zM185 73q32 2 57 24.5t39 58t14 76.5q-8 -8 -29.5 -14.5t-40.5 -12.5q-40 -11 -71 -30.5t-30 -55.5q2 -25 20.5 -36t40.5 -10z" />
    <glyph glyph-name="b" unicode="b" horiz-adv-x="494" 
d="M288 -10q-37 0 -63 11.5t-42.5 27.5t-24 29t-8.5 15h-2l-17 -73h-88v563h105v-242h2q1 3 8 17t22.5 31t42 29.5t65.5 12.5q90 0 130 -58t40 -155q0 -94 -39.5 -151t-130.5 -57zM255 76q41 0 63.5 17.5t31 46t8.5 59.5t-9 58.5t-32.5 45t-64.5 17.5q-56 0 -79.5 -34.5
t-23.5 -86.5q0 -54 24.5 -88.5t81.5 -34.5z" />
    <glyph glyph-name="c" unicode="c" horiz-adv-x="469" 
d="M235 -10q-58 0 -105 23.5t-75 70t-28 113.5q2 67 29.5 115t74 74t106.5 26q61 0 104.5 -23.5t67.5 -61t27 -77.5h-94q-15 74 -102 74q-54 0 -83.5 -33t-29.5 -86q0 -58 28.5 -92.5t84.5 -34.5q38 0 66.5 20t35.5 59h94q-3 -43 -27.5 -81t-68 -62t-105.5 -24z" />
    <glyph glyph-name="cacute" unicode="&#x107;" horiz-adv-x="469" 
d="M235 -10q-58 0 -105 23.5t-75 70t-28 113.5q2 67 29.5 115t74 74t106.5 26q61 0 104.5 -23.5t67.5 -61t27 -77.5h-94q-15 74 -102 74q-54 0 -83.5 -33t-29.5 -86q0 -58 28.5 -92.5t84.5 -34.5q38 0 66.5 20t35.5 59h94q-3 -43 -27.5 -81t-68 -62t-105.5 -24zM244 460h-46
v13l45 100h86v-18z" />
    <glyph glyph-name="ccaron" unicode="&#x10d;" horiz-adv-x="469" 
d="M235 -10q-58 0 -105 23.5t-75 70t-28 113.5q2 67 29.5 115t74 74t106.5 26q61 0 104.5 -23.5t67.5 -61t27 -77.5h-94q-15 74 -102 74q-54 0 -83.5 -33t-29.5 -86q0 -58 28.5 -92.5t84.5 -34.5q38 0 66.5 20t35.5 59h94q-3 -43 -27.5 -81t-68 -62t-105.5 -24zM70 597h105
l57 -91l59 91h103l-140 -136h-44z" />
    <glyph glyph-name="ccedilla" unicode="&#xe7;" horiz-adv-x="469" 
d="M235 -10q-58 0 -105 23.5t-75 70t-28 113.5q2 67 29.5 115t74 74t106.5 26q61 0 104.5 -23.5t67.5 -61t27 -77.5h-94q-15 74 -102 74q-54 0 -83.5 -33t-29.5 -86q0 -58 28.5 -92.5t84.5 -34.5q38 0 66.5 20t35.5 59h94q-3 -43 -27.5 -81t-68 -62t-105.5 -24zM115 -139
l31 49q10 -10 31 -17.5t43.5 -9t38 4.5t14.5 24q0 14 -14 20t-33 3t-33 -15l-43 23l43 91l47 -18l-37 -61q14 12 37 16.5t46.5 0t39.5 -20t16 -43.5q0 -32 -22 -52t-57 -26.5t-74.5 1t-73.5 30.5z" />
    <glyph glyph-name="cdotaccent" unicode="&#x10b;" horiz-adv-x="469" 
d="M235 -10q-58 0 -105 23.5t-75 70t-28 113.5q2 67 29.5 115t74 74t106.5 26q61 0 104.5 -23.5t67.5 -61t27 -77.5h-94q-15 74 -102 74q-54 0 -83.5 -33t-29.5 -86q0 -58 28.5 -92.5t84.5 -34.5q38 0 66.5 20t35.5 59h94q-3 -43 -27.5 -81t-68 -62t-105.5 -24zM232 456
q-37 0 -49.5 18.5t-12.5 43.5q0 23 12.5 41.5t49.5 18.5t48.5 -18.5t11.5 -41.5q0 -25 -11.5 -43.5t-48.5 -18.5z" />
    <glyph glyph-name="d" unicode="d" horiz-adv-x="505" 
d="M212 -10q-92 0 -131 57.5t-39 150.5q0 97 40 155t130 58q39 0 65.5 -12.5t42 -29.5t22.5 -31t8 -17h2v242h105v-563h-88l-17 73h-2q-1 -2 -8.5 -15t-24 -29t-42.5 -27.5t-63 -11.5zM245 76q57 0 81.5 34.5t24.5 88.5q0 52 -23.5 86.5t-79.5 34.5q-41 0 -64.5 -17.5
t-32.5 -45t-9 -58.5t8.5 -59.5t31 -46t63.5 -17.5z" />
    <glyph glyph-name="eth" unicode="&#xf0;" horiz-adv-x="516" 
d="M253 -10q-69 0 -116 29t-71.5 74.5t-26.5 97t16.5 97t58.5 74.5t100 29q47 0 80.5 -17t53.5 -40t29.5 -40.5l9.5 -17.5h2q-10 49 -45 95t-74 82l-54 -32l-37 31l54 33q-22 17 -40 28.5t-28 15.5l74 85q54 -25 98 -66l63 38l37 -32l-67 -40q50 -59 76.5 -129t29 -139.5
t-21 -127.5t-73.5 -93t-128 -35zM390 172q0 45 -19.5 76t-49.5 47.5t-63 18.5t-62 -10.5t-45.5 -40t-12.5 -70.5q3 -44 27.5 -72t58.5 -39.5t69.5 -5.5t62 30t34.5 66z" />
    <glyph glyph-name="dcaron" unicode="&#x10f;" horiz-adv-x="595" 
d="M489 406l31 161h96l-67 -161h-60zM212 -10q-92 0 -131 57.5t-39 150.5q0 97 40 155t130 58q39 0 65.5 -12.5t42 -29.5t22.5 -31t8 -17h2v242h105v-563h-88l-17 73h-2q-1 -2 -8.5 -15t-24 -29t-42.5 -27.5t-63 -11.5zM245 76q57 0 81.5 34.5t24.5 88.5q0 52 -23.5 86.5
t-79.5 34.5q-41 0 -64.5 -17.5t-32.5 -45t-9 -58.5t8.5 -59.5t31 -46t63.5 -17.5z" />
    <glyph glyph-name="dcroat" unicode="&#x111;" horiz-adv-x="505" 
d="M208 -10q-91 0 -130 57.5t-39 150.5q0 97 40 155t130 58q39 0 65.5 -12.5t42 -29.5t22.5 -31t8 -17h2v135h-142v61h142v46h105v-46h35v-61h-35v-456h-89l-16 73h-2q-1 -2 -9 -15t-24 -29t-42 -27.5t-64 -11.5zM242 76q56 0 81 34.5t25 88.5q0 52 -23.5 86.5t-79.5 34.5
q-42 0 -65 -17.5t-32.5 -45t-9.5 -58.5t9 -59.5t31.5 -46t63.5 -17.5z" />
    <glyph glyph-name="e" unicode="e" horiz-adv-x="462" 
d="M229 -10q-71 0 -115.5 30.5t-66 78t-22.5 100.5q-1 62 23.5 110.5t70 76t107.5 27.5q55 0 98.5 -24t69.5 -67.5t27 -102.5v-11v-15h-299q0 -57 28 -87.5t77 -30.5q38 0 63.5 19t30.5 50h99q-7 -65 -56 -109.5t-135 -44.5zM125 239h194q-1 7 -4.5 22t-13 31t-28.5 27
t-49 11q-40 0 -60.5 -16.5t-29 -38t-9.5 -36.5z" />
    <glyph glyph-name="eacute" unicode="&#xe9;" horiz-adv-x="462" 
d="M229 -10q-71 0 -115.5 30.5t-66 78t-22.5 100.5q-1 62 23.5 110.5t70 76t107.5 27.5q55 0 98.5 -24t69.5 -67.5t27 -102.5v-11v-15h-299q0 -57 28 -87.5t77 -30.5q38 0 63.5 19t30.5 50h99q-7 -65 -56 -109.5t-135 -44.5zM125 239h194q-1 7 -4.5 22t-13 31t-28.5 27
t-49 11q-40 0 -60.5 -16.5t-29 -38t-9.5 -36.5zM248 455h-46v13l45 100h86v-18z" />
    <glyph glyph-name="ecaron" unicode="&#x11b;" horiz-adv-x="462" 
d="M229 -10q-71 0 -115.5 30.5t-66 78t-22.5 100.5q-1 62 23.5 110.5t70 76t107.5 27.5q55 0 98.5 -24t69.5 -67.5t27 -102.5v-11v-15h-299q0 -57 28 -87.5t77 -30.5q38 0 63.5 19t30.5 50h99q-7 -65 -56 -109.5t-135 -44.5zM125 239h194q-1 7 -4.5 22t-13 31t-28.5 27
t-49 11q-40 0 -60.5 -16.5t-29 -38t-9.5 -36.5zM58 596h105l57 -75l59 75h103v-16l-140 -120h-44l-140 121v15z" />
    <glyph glyph-name="ecircumflex" unicode="&#xea;" horiz-adv-x="462" 
d="M229 -10q-71 0 -115.5 30.5t-66 78t-22.5 100.5q-1 62 23.5 110.5t70 76t107.5 27.5q55 0 98.5 -24t69.5 -67.5t27 -102.5v-11v-15h-299q0 -57 28 -87.5t77 -30.5q38 0 63.5 19t30.5 50h99q-7 -65 -56 -109.5t-135 -44.5zM125 239h194q-1 7 -4.5 22t-13 31t-28.5 27
t-49 11q-40 0 -60.5 -16.5t-29 -38t-9.5 -36.5zM86 458v8l118 109h43l118 -109v-8h-91l-46 51h-5l-44 -51h-93z" />
    <glyph glyph-name="uni1EBF" unicode="&#x1ebf;" horiz-adv-x="462" 
d="M229 -10q-71 0 -115.5 30.5t-66 78t-22.5 100.5q-1 62 23.5 110.5t70 76t107.5 27.5q55 0 98.5 -24t69.5 -67.5t27 -102.5v-11v-15h-299q0 -57 28 -87.5t77 -30.5q38 0 63.5 19t30.5 50h99q-7 -65 -56 -109.5t-135 -44.5zM125 239h194q-1 7 -4.5 22t-13 31t-28.5 27
t-49 11q-40 0 -60.5 -16.5t-29 -38t-9.5 -36.5zM85 458v8l118 109h43l118 -109v-8h-91l-46 51h-5l-44 -51h-93zM369 552h-46v13l45 100h86v-18z" />
    <glyph glyph-name="uni1EC7" unicode="&#x1ec7;" horiz-adv-x="462" 
d="M229 -10q-71 0 -115.5 30.5t-66 78t-22.5 100.5q-1 62 23.5 110.5t70 76t107.5 27.5q55 0 98.5 -24t69.5 -67.5t27 -102.5v-11v-15h-299q0 -57 28 -87.5t77 -30.5q38 0 63.5 19t30.5 50h99q-7 -65 -56 -109.5t-135 -44.5zM125 239h194q-1 7 -4.5 22t-13 31t-28.5 27
t-49 11q-40 0 -60.5 -16.5t-29 -38t-9.5 -36.5zM86 458v8l118 109h43l118 -109v-8h-91l-46 51h-5l-44 -51h-93zM225 -175q-31 0 -42 16t-11 38q0 20 11 35.5t42 15.5q32 0 42 -15.5t10 -35.5q0 -22 -10 -38t-42 -16z" />
    <glyph glyph-name="uni1EC1" unicode="&#x1ec1;" horiz-adv-x="462" 
d="M229 -10q-71 0 -115.5 30.5t-66 78t-22.5 100.5q-1 62 23.5 110.5t70 76t107.5 27.5q55 0 98.5 -24t69.5 -67.5t27 -102.5v-11v-15h-299q0 -57 28 -87.5t77 -30.5q38 0 63.5 19t30.5 50h99q-7 -65 -56 -109.5t-135 -44.5zM125 239h194q-1 7 -4.5 22t-13 31t-28.5 27
t-49 11q-40 0 -60.5 -16.5t-29 -38t-9.5 -36.5zM67 551l-85 95v18h86l45 -100v-13h-46zM86 458v8l118 109h43l118 -109v-8h-91l-46 51h-5l-44 -51h-93z" />
    <glyph glyph-name="uni1EC3" unicode="&#x1ec3;" horiz-adv-x="462" 
d="M229 -10q-71 0 -115.5 30.5t-66 78t-22.5 100.5q-1 62 23.5 110.5t70 76t107.5 27.5q55 0 98.5 -24t69.5 -67.5t27 -102.5v-11v-15h-299q0 -57 28 -87.5t77 -30.5q38 0 63.5 19t30.5 50h99q-7 -65 -56 -109.5t-135 -44.5zM125 239h194q-1 7 -4.5 22t-13 31t-28.5 27
t-49 11q-40 0 -60.5 -16.5t-29 -38t-9.5 -36.5zM85 458v8l118 109h43l118 -109v-8h-91l-46 51h-5l-44 -51h-93zM312 551v15q6 13 21.5 22.5t29 20t13.5 28.5q0 16 -15 21.5t-33 0t-25 -24.5l-42 27q7 27 27 42.5t45.5 20t49.5 -2.5t39.5 -25.5t15.5 -47.5q0 -30 -13 -45.5
t-27.5 -26.5t-19.5 -25h-66z" />
    <glyph glyph-name="uni1EC5" unicode="&#x1ec5;" horiz-adv-x="462" 
d="M229 -10q-71 0 -115.5 30.5t-66 78t-22.5 100.5q-1 62 23.5 110.5t70 76t107.5 27.5q55 0 98.5 -24t69.5 -67.5t27 -102.5v-11v-15h-299q0 -57 28 -87.5t77 -30.5q38 0 63.5 19t30.5 50h99q-7 -65 -56 -109.5t-135 -44.5zM125 239h194q-1 7 -4.5 22t-13 31t-28.5 27
t-49 11q-40 0 -60.5 -16.5t-29 -38t-9.5 -36.5zM86 458v8l118 109h43l118 -109v-8h-91l-46 51h-5l-44 -51h-93zM277 608q-26 0 -41 8.5t-24.5 19.5t-18 19.5t-22.5 8.5q-16 0 -19.5 -13.5t-2.5 -39.5h-61q0 14 1 32.5t7.5 37t22.5 31t46 12.5q25 0 40.5 -8.5t25 -20
t18.5 -20t22 -8.5q16 0 19 14.5t3 39.5h60q1 -24 -3 -50t-20.5 -44.5t-52.5 -18.5z" />
    <glyph glyph-name="edieresis" unicode="&#xeb;" horiz-adv-x="462" 
d="M229 -10q-71 0 -115.5 30.5t-66 78t-22.5 100.5q-1 62 23.5 110.5t70 76t107.5 27.5q55 0 98.5 -24t69.5 -67.5t27 -102.5v-11v-15h-299q0 -57 28 -87.5t77 -30.5q38 0 63.5 19t30.5 50h99q-7 -65 -56 -109.5t-135 -44.5zM125 239h194q-1 7 -4.5 22t-13 31t-28.5 27
t-49 11q-40 0 -60.5 -16.5t-29 -38t-9.5 -36.5zM134 456q-37 0 -49.5 18.5t-12.5 43.5q0 24 12.5 42t49.5 18t48.5 -18t11.5 -42q0 -25 -11.5 -43.5t-48.5 -18.5zM315 456q-36 0 -49 18.5t-13 43.5q0 24 13 42t49 18q37 0 49 -18t12 -42q0 -25 -12 -43.5t-49 -18.5z" />
    <glyph glyph-name="edotaccent" unicode="&#x117;" horiz-adv-x="462" 
d="M229 -10q-71 0 -115.5 30.5t-66 78t-22.5 100.5q-1 62 23.5 110.5t70 76t107.5 27.5q55 0 98.5 -24t69.5 -67.5t27 -102.5v-11v-15h-299q0 -57 28 -87.5t77 -30.5q38 0 63.5 19t30.5 50h99q-7 -65 -56 -109.5t-135 -44.5zM125 239h194q-1 7 -4.5 22t-13 31t-28.5 27
t-49 11q-40 0 -60.5 -16.5t-29 -38t-9.5 -36.5zM224 456q-37 0 -49.5 18.5t-12.5 43.5q0 23 12.5 41.5t49.5 18.5t48.5 -18.5t11.5 -41.5q0 -25 -11.5 -43.5t-48.5 -18.5z" />
    <glyph glyph-name="uni1EB9" unicode="&#x1eb9;" horiz-adv-x="462" 
d="M229 -10q-71 0 -115.5 30.5t-66 78t-22.5 100.5q-1 62 23.5 110.5t70 76t107.5 27.5q55 0 98.5 -24t69.5 -67.5t27 -102.5v-11v-15h-299q0 -57 28 -87.5t77 -30.5q38 0 63.5 19t30.5 50h99q-7 -65 -56 -109.5t-135 -44.5zM125 239h194q-1 7 -4.5 22t-13 31t-28.5 27
t-49 11q-40 0 -60.5 -16.5t-29 -38t-9.5 -36.5zM225 -175q-31 0 -42 16t-11 38q0 20 11 35.5t42 15.5q32 0 42 -15.5t10 -35.5q0 -22 -10 -38t-42 -16z" />
    <glyph glyph-name="egrave" unicode="&#xe8;" horiz-adv-x="462" 
d="M229 -10q-71 0 -115.5 30.5t-66 78t-22.5 100.5q-1 62 23.5 110.5t70 76t107.5 27.5q55 0 98.5 -24t69.5 -67.5t27 -102.5v-11v-15h-299q0 -57 28 -87.5t77 -30.5q38 0 63.5 19t30.5 50h99q-7 -65 -56 -109.5t-135 -44.5zM125 239h194q-1 7 -4.5 22t-13 31t-28.5 27
t-49 11q-40 0 -60.5 -16.5t-29 -38t-9.5 -36.5zM204 455l-85 95v18h86l45 -100v-13h-46z" />
    <glyph glyph-name="uni1EBB" unicode="&#x1ebb;" horiz-adv-x="462" 
d="M229 -10q-71 0 -115.5 30.5t-66 78t-22.5 100.5q-1 62 23.5 110.5t70 76t107.5 27.5q55 0 98.5 -24t69.5 -67.5t27 -102.5v-11v-15h-299q0 -57 28 -87.5t77 -30.5q38 0 63.5 19t30.5 50h99q-7 -65 -56 -109.5t-135 -44.5zM125 239h194q-1 7 -4.5 22t-13 31t-28.5 27
t-49 11q-40 0 -60.5 -16.5t-29 -38t-9.5 -36.5zM136 550v15q6 13 21.5 22.5t29 20t13.5 28.5q0 16 -15 21.5t-33 0t-25 -24.5l-42 27q7 27 27 42.5t45.5 20t49.5 -2.5t39.5 -25.5t15.5 -47.5q0 -30 -13 -45.5t-27.5 -26.5t-19.5 -25h-66z" />
    <glyph glyph-name="emacron" unicode="&#x113;" horiz-adv-x="459" 
d="M229 -10q-71 0 -115.5 30.5t-66 78t-22.5 100.5q-1 62 23.5 110.5t70 76t107.5 27.5q55 0 98.5 -24t69.5 -67.5t27 -102.5v-11v-15h-299q0 -57 28 -87.5t77 -30.5q38 0 63.5 19t30.5 50h99q-7 -65 -56 -109.5t-135 -44.5zM125 239h194q-1 7 -4.5 22t-13 31t-28.5 27
t-49 11q-40 0 -60.5 -16.5t-29 -38t-9.5 -36.5zM88 474v71h275v-71h-275z" />
    <glyph glyph-name="eogonek" unicode="&#x119;" horiz-adv-x="462" 
d="M229 -10q-71 0 -115.5 30.5t-66 78t-22.5 100.5q-1 62 23.5 110.5t70 76t107.5 27.5q55 0 98.5 -24t69.5 -67.5t27 -102.5v-11v-15h-299q0 -57 28 -87.5t77 -30.5q38 0 63.5 19t30.5 50h99q-7 -65 -56 -109.5t-135 -44.5zM125 239h194q-1 7 -4.5 22t-13 31t-28.5 27
t-49 11q-40 0 -60.5 -16.5t-29 -38t-9.5 -36.5zM246 -187q-37 0 -68.5 21t-31.5 67q0 30 15 53t37.5 40t45 28.5t38 17l15.5 5.5v-46l-11.5 -5.5t-27 -16t-27 -25.5t-11.5 -34q0 -32 34 -32q15 0 24.5 7.5t14.5 14.5l5 7l54 -48l-11 -13.5t-35 -27t-60 -13.5z" />
    <glyph glyph-name="uni1EBD" unicode="&#x1ebd;" horiz-adv-x="462" 
d="M229 -10q-71 0 -115.5 30.5t-66 78t-22.5 100.5q-1 62 23.5 110.5t70 76t107.5 27.5q55 0 98.5 -24t69.5 -67.5t27 -102.5v-11v-15h-299q0 -57 28 -87.5t77 -30.5q38 0 63.5 19t30.5 50h99q-7 -65 -56 -109.5t-135 -44.5zM125 239h194q-1 7 -4.5 22t-13 31t-28.5 27
t-49 11q-40 0 -60.5 -16.5t-29 -38t-9.5 -36.5zM284 471q-26 0 -41 8.5t-24.5 19.5t-18 19.5t-22.5 8.5q-16 0 -19.5 -13.5t-2.5 -39.5h-61q0 14 1 32.5t7.5 37t22.5 31t46 12.5q25 0 40.5 -8.5t25 -20t18.5 -20t22 -8.5q16 0 19 14.5t3 39.5h60q1 -24 -3 -50t-20.5 -44.5
t-52.5 -18.5z" />
    <glyph glyph-name="f" unicode="f" horiz-adv-x="288" 
d="M73 -1v340h-56v72h56v67q0 54 24.5 78t73.5 24h108v-79h-104v-90h101v-72h-101v-340h-102z" />
    <glyph glyph-name="g" unicode="g" horiz-adv-x="475" 
d="M152 -183v96h180v160h-2q-1 -2 -8.5 -15t-23.5 -29t-41.5 -27.5t-63.5 -11.5q-91 0 -131 58t-40 151q0 97 40.5 154.5t130.5 57.5q40 0 66 -12.5t41 -29.5t21.5 -31t7.5 -17h2l1 90h105v-446q0 -82 -32.5 -115t-100.5 -33h-152zM225 76q56 0 81 34.5t25 88.5
q0 52 -24 86.5t-80 34.5q-41 0 -64 -17.5t-32.5 -45t-9.5 -58.5t8.5 -59.5t31 -46t64.5 -17.5z" />
    <glyph glyph-name="gbreve" unicode="&#x11f;" horiz-adv-x="462" 
d="M239 463q-62 0 -97 28t-35 77h72q0 -28 17 -38t43 -10q25 0 42 9.5t17 38.5h72q0 -48 -34 -76.5t-97 -28.5zM152 -183v96h180v160h-2q-1 -2 -8.5 -15t-23.5 -29t-41.5 -27.5t-63.5 -11.5q-91 0 -131 58t-40 151q0 97 40.5 154.5t130.5 57.5q40 0 66 -12.5t41 -29.5
t21.5 -31t7.5 -17h2l1 90h105v-446q0 -82 -32.5 -115t-100.5 -33h-152zM225 75q56 0 81 35t25 89q0 52 -24 87t-80 35q-41 0 -64 -17.5t-32.5 -45.5t-9.5 -59t8.5 -59.5t31 -46.5t64.5 -18z" />
    <glyph glyph-name="uni0123" unicode="&#x123;" horiz-adv-x="462" 
d="M250 460h-46v13l45 100h86v-18zM152 -183v96h180v160h-2q-1 -2 -8.5 -15t-23.5 -29t-41.5 -27.5t-63.5 -11.5q-91 0 -131 58t-40 151q0 97 40.5 154.5t130.5 57.5q40 0 66 -12.5t41 -29.5t21.5 -31t7.5 -17h2l1 90h105v-446q0 -82 -32.5 -115t-100.5 -33h-152zM225 75
q56 0 81 35t25 89q0 52 -24 87t-80 35q-41 0 -64 -17.5t-32.5 -45.5t-9.5 -59t8.5 -59.5t31 -46.5t64.5 -18z" />
    <glyph glyph-name="gdotaccent" unicode="&#x121;" horiz-adv-x="462" 
d="M230 460q-37 0 -49.5 18.5t-12.5 43.5q0 23 12.5 41.5t49.5 18.5t48.5 -18.5t11.5 -41.5q0 -25 -11.5 -43.5t-48.5 -18.5zM152 -183v96h180v160h-2q-1 -2 -8.5 -15t-23.5 -29t-41.5 -27.5t-63.5 -11.5q-91 0 -131 58t-40 151q0 97 40.5 154.5t130.5 57.5q40 0 66 -12.5
t41 -29.5t21.5 -31t7.5 -17h2l1 90h105v-446q0 -82 -32.5 -115t-100.5 -33h-152zM225 75q56 0 81 35t25 89q0 52 -24 87t-80 35q-41 0 -64 -17.5t-32.5 -45.5t-9.5 -59t8.5 -59.5t31 -46.5t64.5 -18z" />
    <glyph glyph-name="h" unicode="h" horiz-adv-x="479" 
d="M43 0v563h105v-241h2q1 3 7.5 16.5t21 30.5t40 29.5t64.5 12.5q54 0 85 -22.5t45 -56.5t17.5 -70t3.5 -63v-199h-99v200q0 33 -6.5 60.5t-25.5 44t-58 16.5t-60 -18t-29 -46.5t-8 -60.5v-196h-105z" />
    <glyph glyph-name="hbar" unicode="&#x127;" horiz-adv-x="479" 
d="M50 0v456h-51v61h51v46h102v-46h129v-61h-129v-163q2 7 9 26t22 40.5t39.5 37.5t61.5 16q47 0 75 -17t43.5 -45t21 -61t6 -66t0.5 -59v-165h-102v155q0 47 -4 85t-22 60.5t-61 22.5q-47 0 -68 -42t-21 -118v-163h-102z" />
    <glyph glyph-name="i" unicode="i" horiz-adv-x="207" 
d="M105 456q-33 -1 -43.5 15.5t-10.5 39.5q0 22 11 38t43 16q31 0 41.5 -16t10.5 -38q0 -23 -10.5 -38.5t-41.5 -16.5zM53 0v411h102v-411h-102z" />
    <glyph glyph-name="dotlessi" unicode="&#x131;" horiz-adv-x="199" 
d="M48 0v413h102v-413h-102z" />
    <glyph glyph-name="iacute" unicode="&#xed;" horiz-adv-x="202" 
d="M115 459h-47v14l45 100h87v-19zM42 0v413h102v-413h-102z" />
    <glyph glyph-name="icircumflex" unicode="&#xee;" horiz-adv-x="246" 
d="M-16 458v8l118 109h44l117 -109v-8h-90l-47 51h-4l-45 -51h-93zM73 0v413h102v-413h-102z" />
    <glyph glyph-name="idieresis" unicode="&#xef;" horiz-adv-x="260" 
d="M40 456q-36 0 -49 18.5t-13 43.5q0 24 13 42t49 18q37 0 49 -18t12 -42q0 -25 -12 -43.5t-49 -18.5zM222 456q-37 0 -49.5 18.5t-12.5 43.5q0 24 12.5 42t49.5 18q36 0 48 -18t12 -42q0 -25 -12 -43.5t-48 -18.5zM79 0v413h102v-413h-102z" />
    <glyph glyph-name="i.loclTRK" horiz-adv-x="207" 
d="M48 0v413h102v-413h-102zM104 456q-37 0 -49.5 18.5t-12.5 43.5q0 23 12.5 41.5t49.5 18.5t48.5 -18.5t11.5 -41.5q0 -25 -11.5 -43.5t-48.5 -18.5z" />
    <glyph glyph-name="uni1ECB" unicode="&#x1ecb;" horiz-adv-x="207" 
d="M105 456q-33 -1 -43.5 15.5t-10.5 39.5q0 22 11 38t43 16q31 0 41.5 -16t10.5 -38q0 -23 -10.5 -38.5t-41.5 -16.5zM53 0v411h102v-411h-102zM97 -175q-31 0 -42 16t-11 38q0 20 11 35.5t42 15.5q32 0 42 -15.5t10 -35.5q0 -22 -10 -38t-42 -16z" />
    <glyph glyph-name="igrave" unicode="&#xec;" horiz-adv-x="207" 
d="M85 458l-85 95v18h87l45 -100v-13h-47zM53 0v411h102v-411h-102z" />
    <glyph glyph-name="uni1EC9" unicode="&#x1ec9;" horiz-adv-x="245" 
d="M87 464v16q5 13 20.5 22t29 19.5t13.5 28.5q0 16 -15 22t-32.5 0t-25.5 -24l-42 27q7 26 27.5 42t46 20t49 -3t39.5 -25t16 -48q0 -29 -13 -45t-28 -26.5t-20 -25.5h-65zM65 0v411h102v-411h-102z" />
    <glyph glyph-name="imacron" unicode="&#x12b;" horiz-adv-x="218" 
d="M-32 473v72h248v-72h-248zM44 0v413h102v-413h-102z" />
    <glyph glyph-name="iogonek" unicode="&#x12f;" horiz-adv-x="231" 
d="M103 441q-34 0 -45.5 17t-11.5 41q0 23 12 39.5t45 16.5t44 -16.5t11 -39.5q0 -24 -11 -41t-44 -17zM52 0v413l12.5 -5t37.5 -5q26 0 39 5l13 5v-413l-12.5 -5.5t-28.5 -16t-28 -25.5t-12 -34q0 -32 34 -32q15 0 24.5 7.5t14 14.5l4.5 7l55 -48l-11.5 -13.5t-35 -27
t-60.5 -13.5q-36 0 -68 21t-32 67q0 32 18 56.5t43 41.5h-7z" />
    <glyph glyph-name="itilde" unicode="&#x129;" horiz-adv-x="227" 
d="M163 471q-25 0 -40 8.5t-24.5 19.5t-18.5 19.5t-22 8.5q-17 0 -20 -14t-3 -39h-60q0 13 1 32t7.5 37.5t22.5 30.5t46 12q25 0 40 -8.5t25 -19.5t19 -19.5t22 -8.5q16 0 19 14t3 40h60q1 -24 -3 -50.5t-20.5 -44.5t-53.5 -18zM58 0v413h102v-413h-102z" />
    <glyph glyph-name="j" unicode="j" horiz-adv-x="236" 
d="M133 442q-34 0 -45.5 16.5t-11.5 40.5t11.5 40t45.5 16q32 0 43 -16t11 -40t-11 -40.5t-43 -16.5zM80 411h102v-492q0 -54 -24.5 -78t-73.5 -24h-72v79h68v515z" />
    <glyph glyph-name="k" unicode="k" horiz-adv-x="448" 
d="M144 0h-102v563h102v-345l175 195h125l-168 -174l171 -239h-122l-121 165l-60 -62v-103z" />
    <glyph glyph-name="uni0137" unicode="&#x137;" horiz-adv-x="462" 
d="M154 0h-102v563h102v-345l175 195h125l-168 -174l171 -239h-122l-121 165l-60 -62v-103zM169 -254v67h25q25 0 35 8t10 27q-37 -2 -52.5 14.5t-15.5 42.5q0 24 13 40.5t45 16.5q26 0 41 -15.5t15 -62.5q0 -56 -20.5 -97t-69.5 -41h-26z" />
    <glyph glyph-name="l" unicode="l" horiz-adv-x="196" 
d="M48 0v563h100v-563h-100z" />
    <glyph glyph-name="lacute" unicode="&#x13a;" horiz-adv-x="196" 
d="M48 0v563h100v-563h-100zM121 632h-46v13l45 100h86v-18z" />
    <glyph glyph-name="lcaron" unicode="&#x13e;" horiz-adv-x="277" 
d="M197 406l30 161h97l-68 -161h-59zM48 0v563h100v-563h-100z" />
    <glyph glyph-name="uni013C" unicode="&#x13c;" horiz-adv-x="256" 
d="M67 -254v67h25q25 0 35 8t10 27q-37 -1 -52.5 15.5t-15.5 41.5q0 24 13 40.5t45 16.5q26 0 41 -15.5t15 -62.5q0 -56 -20.5 -97t-69.5 -41h-26zM50 0v563h100v-563h-100z" />
    <glyph glyph-name="lslash" unicode="&#x142;" horiz-adv-x="254" 
d="M48 0v220l-56 -33v90l56 33v253h100v-195l73 43v-90l-73 -43v-278h-100z" />
    <glyph glyph-name="m" unicode="m" horiz-adv-x="660" 
d="M37 0v411h89l1 -89h2q1 4 8 17.5t21 30t37 29t57 12.5q50 0 75 -26.5t36 -62.5h2q1 4 8.5 17.5t23 30t39.5 29t59 12.5q39 0 63 -16.5t37.5 -42t19 -54.5t6 -55.5t0.5 -43.5v-199h-86v200q0 15 -1 35.5t-8 40t-23 32.5t-44 13q-35 0 -53 -18.5t-25 -47t-7 -59.5v-196h-86
v200q0 15 -1 35.5t-8 40t-23 32.5t-44 13q-35 0 -53 -18.5t-25 -47t-7 -59.5v-196h-90z" />
    <glyph glyph-name="n" unicode="n" horiz-adv-x="466" 
d="M37 0v409h87l17 -87h2q1 3 7.5 16.5t22 30.5t42 29.5t66.5 12.5q55 0 85 -22t43 -55.5t16 -69.5t3 -65v-199h-100v200q0 33 -6 60.5t-25.5 44t-57.5 16.5q-40 0 -61 -18t-29 -46.5t-8 -60.5v-196h-104z" />
    <glyph glyph-name="nacute" unicode="&#x144;" horiz-adv-x="466" 
d="M37 0v409h87l17 -87h2q1 3 7.5 16.5t22 30.5t42 29.5t66.5 12.5q55 0 85 -22t43 -55.5t16 -69.5t3 -65v-199h-100v200q0 33 -6 60.5t-25.5 44t-57.5 16.5q-40 0 -61 -18t-29 -46.5t-8 -60.5v-196h-104zM261 460h-46v13l45 100h86v-18z" />
    <glyph glyph-name="ncaron" unicode="&#x148;" horiz-adv-x="488" 
d="M37 0v409h87l17 -87h2q1 3 7.5 16.5t22 30.5t42 29.5t66.5 12.5q55 0 85 -22t43 -55.5t16 -69.5t3 -65v-199h-100v200q0 33 -6 60.5t-25.5 44t-57.5 16.5q-40 0 -61 -18t-29 -46.5t-8 -60.5v-196h-104zM82 597h105l57 -91l59 91h103l-140 -136h-44z" />
    <glyph glyph-name="uni0146" unicode="&#x146;" horiz-adv-x="466" 
d="M37 0v409h87l17 -87h2q1 3 7.5 16.5t22 30.5t42 29.5t66.5 12.5q55 0 85 -22t43 -55.5t16 -69.5t3 -65v-199h-100v200q0 33 -6 60.5t-25.5 44t-57.5 16.5q-40 0 -61 -18t-29 -46.5t-8 -60.5v-196h-104zM169 -254v67h25q25 0 35 8t10 27q-37 -1 -52.5 15.5t-15.5 41.5
q0 24 13 40.5t45 16.5q26 0 41 -15.5t15 -62.5q0 -56 -20.5 -97t-69.5 -41h-26z" />
    <glyph glyph-name="eng" unicode="&#x14b;" horiz-adv-x="488" 
d="M37 0v409h87l17 -87h2q1 3 7.5 16.5t22 30.5t42 29.5t66.5 12.5q55 0 85 -22t43 -55.5t16 -69.5t3 -65v-182h11v-84q0 -35 -13.5 -65t-43.5 -48t-79 -18q-31 0 -53.5 9t-35 19.5t-15.5 13.5l56 68q3 -3 13.5 -10.5t26.5 -7.5q18 0 30.5 12t11.5 40v54h-9v200
q0 33 -6 60.5t-25.5 44t-57.5 16.5q-40 0 -61 -18t-29 -46.5t-8 -60.5v-196h-104z" />
    <glyph glyph-name="ntilde" unicode="&#xf1;" horiz-adv-x="466" 
d="M37 0v409h87l17 -87h2q1 3 7.5 16.5t22 30.5t42 29.5t66.5 12.5q55 0 85 -22t43 -55.5t16 -69.5t3 -65v-199h-100v200q0 33 -6 60.5t-25.5 44t-57.5 16.5q-40 0 -61 -18t-29 -46.5t-8 -60.5v-196h-104zM300 471q-26 0 -41 8.5t-24.5 19.5t-18 19.5t-22.5 8.5
q-16 0 -19.5 -13.5t-2.5 -39.5h-61q0 14 1 32.5t7.5 37t22.5 31t46 12.5q25 0 40.5 -8.5t25 -20t18.5 -20t22 -8.5q16 0 19 14.5t3 39.5h60q1 -24 -3 -50t-20.5 -44.5t-52.5 -18.5z" />
    <glyph glyph-name="o" unicode="o" horiz-adv-x="472" 
d="M231 -10q-70 0 -116 27t-69 74.5t-23 108.5q-1 92 51.5 151.5t156.5 59.5q101 0 153.5 -58t52.5 -153q0 -59 -22 -107t-68 -75.5t-116 -27.5zM231 76q44 0 67.5 19t31.5 48.5t8 59.5q0 31 -8 61t-31.5 49t-67.5 19q-45 0 -68.5 -19.5t-32 -49t-8.5 -60.5q0 -30 8.5 -59.5
t32 -48.5t68.5 -19z" />
    <glyph glyph-name="oacute" unicode="&#xf3;" horiz-adv-x="472" 
d="M231 -10q-70 0 -116 27t-69 74.5t-23 108.5q-1 92 51.5 151.5t156.5 59.5q101 0 153.5 -58t52.5 -153q0 -59 -22 -107t-68 -75.5t-116 -27.5zM231 76q44 0 67.5 19t31.5 48.5t8 59.5q0 31 -8 61t-31.5 49t-67.5 19q-45 0 -68.5 -19.5t-32 -49t-8.5 -60.5q0 -30 8.5 -59.5
t32 -48.5t68.5 -19zM248 455h-46v13l45 100h86v-18z" />
    <glyph glyph-name="ocircumflex" unicode="&#xf4;" horiz-adv-x="472" 
d="M231 -10q-70 0 -116 27t-69 74.5t-23 108.5q-1 92 51.5 151.5t156.5 59.5q101 0 153.5 -58t52.5 -153q0 -59 -22 -107t-68 -75.5t-116 -27.5zM231 76q44 0 67.5 19t31.5 48.5t8 59.5q0 31 -8 61t-31.5 49t-67.5 19q-45 0 -68.5 -19.5t-32 -49t-8.5 -60.5q0 -30 8.5 -59.5
t32 -48.5t68.5 -19zM86 458v8l118 109h43l118 -109v-8h-91l-46 51h-5l-44 -51h-93z" />
    <glyph glyph-name="uni1ED1" unicode="&#x1ed1;" horiz-adv-x="472" 
d="M231 -10q-70 0 -116 27t-69 74.5t-23 108.5q-1 92 51.5 151.5t156.5 59.5q101 0 153.5 -58t52.5 -153q0 -59 -22 -107t-68 -75.5t-116 -27.5zM231 76q44 0 67.5 19t31.5 48.5t8 59.5q0 31 -8 61t-31.5 49t-67.5 19q-45 0 -68.5 -19.5t-32 -49t-8.5 -60.5q0 -30 8.5 -59.5
t32 -48.5t68.5 -19zM85 458v8l118 109h43l118 -109v-8h-91l-46 51h-5l-44 -51h-93zM369 552h-46v13l45 100h86v-18z" />
    <glyph glyph-name="uni1ED9" unicode="&#x1ed9;" horiz-adv-x="472" 
d="M231 -10q-70 0 -116 27t-69 74.5t-23 108.5q-1 92 51.5 151.5t156.5 59.5q101 0 153.5 -58t52.5 -153q0 -59 -22 -107t-68 -75.5t-116 -27.5zM231 76q44 0 67.5 19t31.5 48.5t8 59.5q0 31 -8 61t-31.5 49t-67.5 19q-45 0 -68.5 -19.5t-32 -49t-8.5 -60.5q0 -30 8.5 -59.5
t32 -48.5t68.5 -19zM225 -175q-31 0 -42 16t-11 38q0 20 11 35.5t42 15.5q32 0 42 -15.5t10 -35.5q0 -22 -10 -38t-42 -16zM86 458v8l118 109h43l118 -109v-8h-91l-46 51h-5l-44 -51h-93z" />
    <glyph glyph-name="uni1ED3" unicode="&#x1ed3;" horiz-adv-x="472" 
d="M231 -10q-70 0 -116 27t-69 74.5t-23 108.5q-1 92 51.5 151.5t156.5 59.5q101 0 153.5 -58t52.5 -153q0 -59 -22 -107t-68 -75.5t-116 -27.5zM231 76q44 0 67.5 19t31.5 48.5t8 59.5q0 31 -8 61t-31.5 49t-67.5 19q-45 0 -68.5 -19.5t-32 -49t-8.5 -60.5q0 -30 8.5 -59.5
t32 -48.5t68.5 -19zM67 551l-85 95v18h86l45 -100v-13h-46zM86 458v8l118 109h43l118 -109v-8h-91l-46 51h-5l-44 -51h-93z" />
    <glyph glyph-name="uni1ED5" unicode="&#x1ed5;" horiz-adv-x="472" 
d="M231 -10q-70 0 -116 27t-69 74.5t-23 108.5q-1 92 51.5 151.5t156.5 59.5q101 0 153.5 -58t52.5 -153q0 -59 -22 -107t-68 -75.5t-116 -27.5zM231 76q44 0 67.5 19t31.5 48.5t8 59.5q0 31 -8 61t-31.5 49t-67.5 19q-45 0 -68.5 -19.5t-32 -49t-8.5 -60.5q0 -30 8.5 -59.5
t32 -48.5t68.5 -19zM85 458v8l118 109h43l118 -109v-8h-91l-46 51h-5l-44 -51h-93zM312 551v15q6 13 21.5 22.5t29 20t13.5 28.5q0 16 -15 21.5t-33 0t-25 -24.5l-42 27q7 27 27 42.5t45.5 20t49.5 -2.5t39.5 -25.5t15.5 -47.5q0 -30 -13 -45.5t-27.5 -26.5t-19.5 -25h-66z
" />
    <glyph glyph-name="uni1ED7" unicode="&#x1ed7;" horiz-adv-x="472" 
d="M231 -10q-70 0 -116 27t-69 74.5t-23 108.5q-1 92 51.5 151.5t156.5 59.5q101 0 153.5 -58t52.5 -153q0 -59 -22 -107t-68 -75.5t-116 -27.5zM231 76q44 0 67.5 19t31.5 48.5t8 59.5q0 31 -8 61t-31.5 49t-67.5 19q-45 0 -68.5 -19.5t-32 -49t-8.5 -60.5q0 -30 8.5 -59.5
t32 -48.5t68.5 -19zM86 458v8l118 109h43l118 -109v-8h-91l-46 51h-5l-44 -51h-93zM277 608q-26 0 -41 8.5t-24.5 19.5t-18 19.5t-22.5 8.5q-16 0 -19.5 -13.5t-2.5 -39.5h-61q0 14 1 32.5t7.5 37t22.5 31t46 12.5q25 0 40.5 -8.5t25 -20t18.5 -20t22 -8.5q16 0 19 14.5
t3 39.5h60q1 -24 -3 -50t-20.5 -44.5t-52.5 -18.5z" />
    <glyph glyph-name="odieresis" unicode="&#xf6;" horiz-adv-x="472" 
d="M231 -10q-70 0 -116 27t-69 74.5t-23 108.5q-1 92 51.5 151.5t156.5 59.5q101 0 153.5 -58t52.5 -153q0 -59 -22 -107t-68 -75.5t-116 -27.5zM231 76q44 0 67.5 19t31.5 48.5t8 59.5q0 31 -8 61t-31.5 49t-67.5 19q-45 0 -68.5 -19.5t-32 -49t-8.5 -60.5q0 -30 8.5 -59.5
t32 -48.5t68.5 -19zM134 456q-37 0 -49.5 18.5t-12.5 43.5q0 24 12.5 42t49.5 18t48.5 -18t11.5 -42q0 -25 -11.5 -43.5t-48.5 -18.5zM315 456q-36 0 -49 18.5t-13 43.5q0 24 13 42t49 18q37 0 49 -18t12 -42q0 -25 -12 -43.5t-49 -18.5z" />
    <glyph glyph-name="uni1ECD" unicode="&#x1ecd;" horiz-adv-x="472" 
d="M231 -10q-70 0 -116 27t-69 74.5t-23 108.5q-1 92 51.5 151.5t156.5 59.5q101 0 153.5 -58t52.5 -153q0 -59 -22 -107t-68 -75.5t-116 -27.5zM231 76q44 0 67.5 19t31.5 48.5t8 59.5q0 31 -8 61t-31.5 49t-67.5 19q-45 0 -68.5 -19.5t-32 -49t-8.5 -60.5q0 -30 8.5 -59.5
t32 -48.5t68.5 -19zM225 -175q-31 0 -42 16t-11 38q0 20 11 35.5t42 15.5q32 0 42 -15.5t10 -35.5q0 -22 -10 -38t-42 -16z" />
    <glyph glyph-name="ograve" unicode="&#xf2;" horiz-adv-x="472" 
d="M231 -10q-70 0 -116 27t-69 74.5t-23 108.5q-1 92 51.5 151.5t156.5 59.5q101 0 153.5 -58t52.5 -153q0 -59 -22 -107t-68 -75.5t-116 -27.5zM231 76q44 0 67.5 19t31.5 48.5t8 59.5q0 31 -8 61t-31.5 49t-67.5 19q-45 0 -68.5 -19.5t-32 -49t-8.5 -60.5q0 -30 8.5 -59.5
t32 -48.5t68.5 -19zM204 455l-85 95v18h86l45 -100v-13h-46z" />
    <glyph glyph-name="uni1ECF" unicode="&#x1ecf;" horiz-adv-x="472" 
d="M231 -10q-70 0 -116 27t-69 74.5t-23 108.5q-1 92 51.5 151.5t156.5 59.5q101 0 153.5 -58t52.5 -153q0 -59 -22 -107t-68 -75.5t-116 -27.5zM231 76q44 0 67.5 19t31.5 48.5t8 59.5q0 31 -8 61t-31.5 49t-67.5 19q-45 0 -68.5 -19.5t-32 -49t-8.5 -60.5q0 -30 8.5 -59.5
t32 -48.5t68.5 -19zM195 469v15q6 13 21.5 22.5t29 20t13.5 28.5q0 16 -15 21.5t-33 0t-25 -24.5l-42 27q7 27 27 42.5t45.5 20t49.5 -2.5t39.5 -25.5t15.5 -47.5q0 -30 -13 -45.5t-27.5 -26.5t-19.5 -25h-66z" />
    <glyph glyph-name="ohorn" unicode="&#x1a1;" horiz-adv-x="472" 
d="M231 -10q-70 0 -116 27t-69 74.5t-23 108.5q-1 92 51.5 151.5t156.5 59.5q101 0 153.5 -58t52.5 -153q0 -59 -22 -107t-68 -75.5t-116 -27.5zM231 76q44 0 67.5 19t31.5 48.5t8 59.5q0 31 -8 61t-31.5 49t-67.5 19q-45 0 -68.5 -19.5t-32 -49t-8.5 -60.5q0 -30 8.5 -59.5
t32 -48.5t68.5 -19zM277 345l1 60h41q22 0 25.5 8.5t4.5 41.5h71q0 -62 -23.5 -86t-86.5 -24h-33z" />
    <glyph glyph-name="uni1EDB" unicode="&#x1edb;" horiz-adv-x="472" 
d="M231 -10q-70 0 -116 27t-69 74.5t-23 108.5q-1 92 51.5 151.5t156.5 59.5q101 0 153.5 -58t52.5 -153q0 -59 -22 -107t-68 -75.5t-116 -27.5zM231 76q44 0 67.5 19t31.5 48.5t8 59.5q0 31 -8 61t-31.5 49t-67.5 19q-45 0 -68.5 -19.5t-32 -49t-8.5 -60.5q0 -30 8.5 -59.5
t32 -48.5t68.5 -19zM277 345l1 60h41q22 0 25.5 8.5t4.5 41.5h71q0 -62 -23.5 -86t-86.5 -24h-33zM248 455h-46v13l45 100h86v-18z" />
    <glyph glyph-name="uni1EE3" unicode="&#x1ee3;" horiz-adv-x="472" 
d="M231 -10q-70 0 -116 27t-69 74.5t-23 108.5q-1 92 51.5 151.5t156.5 59.5q101 0 153.5 -58t52.5 -153q0 -59 -22 -107t-68 -75.5t-116 -27.5zM231 76q44 0 67.5 19t31.5 48.5t8 59.5q0 31 -8 61t-31.5 49t-67.5 19q-45 0 -68.5 -19.5t-32 -49t-8.5 -60.5q0 -30 8.5 -59.5
t32 -48.5t68.5 -19zM277 345l1 60h41q22 0 25.5 8.5t4.5 41.5h71q0 -62 -23.5 -86t-86.5 -24h-33zM229 -175q-31 0 -42 16t-11 38q0 20 11 35.5t42 15.5q32 0 42 -15.5t10 -35.5q0 -22 -10 -38t-42 -16z" />
    <glyph glyph-name="uni1EDD" unicode="&#x1edd;" horiz-adv-x="472" 
d="M231 -10q-70 0 -116 27t-69 74.5t-23 108.5q-1 92 51.5 151.5t156.5 59.5q101 0 153.5 -58t52.5 -153q0 -59 -22 -107t-68 -75.5t-116 -27.5zM231 76q44 0 67.5 19t31.5 48.5t8 59.5q0 31 -8 61t-31.5 49t-67.5 19q-45 0 -68.5 -19.5t-32 -49t-8.5 -60.5q0 -30 8.5 -59.5
t32 -48.5t68.5 -19zM277 345l1 60h41q22 0 25.5 8.5t4.5 41.5h71q0 -62 -23.5 -86t-86.5 -24h-33zM204 458l-85 95v18h86l45 -100v-13h-46z" />
    <glyph glyph-name="uni1EDF" unicode="&#x1edf;" horiz-adv-x="472" 
d="M231 -10q-70 0 -116 27t-69 74.5t-23 108.5q-1 92 51.5 151.5t156.5 59.5q101 0 153.5 -58t52.5 -153q0 -59 -22 -107t-68 -75.5t-116 -27.5zM231 76q44 0 67.5 19t31.5 48.5t8 59.5q0 31 -8 61t-31.5 49t-67.5 19q-45 0 -68.5 -19.5t-32 -49t-8.5 -60.5q0 -30 8.5 -59.5
t32 -48.5t68.5 -19zM277 345l1 60h41q22 0 25.5 8.5t4.5 41.5h71q0 -62 -23.5 -86t-86.5 -24h-33zM195 469v15q6 13 21.5 22.5t29 20t13.5 28.5q0 16 -15 21.5t-33 0t-25 -24.5l-42 27q7 27 27 42.5t45.5 20t49.5 -2.5t39.5 -25.5t15.5 -47.5q0 -30 -13 -45.5t-27.5 -26.5
t-19.5 -25h-66z" />
    <glyph glyph-name="uni1EE1" unicode="&#x1ee1;" horiz-adv-x="472" 
d="M231 -10q-70 0 -116 27t-69 74.5t-23 108.5q-1 92 51.5 151.5t156.5 59.5q101 0 153.5 -58t52.5 -153q0 -59 -22 -107t-68 -75.5t-116 -27.5zM231 76q44 0 67.5 19t31.5 48.5t8 59.5q0 31 -8 61t-31.5 49t-67.5 19q-45 0 -68.5 -19.5t-32 -49t-8.5 -60.5q0 -30 8.5 -59.5
t32 -48.5t68.5 -19zM277 345l1 60h41q22 0 25.5 8.5t4.5 41.5h71q0 -62 -23.5 -86t-86.5 -24h-33zM284 482q-26 0 -41 8.5t-24.5 19.5t-18 19.5t-22.5 8.5q-16 0 -19.5 -13.5t-2.5 -39.5h-61q0 14 1 32.5t7.5 37t22.5 31t46 12.5q25 0 40.5 -8.5t25 -20t18.5 -20t22 -8.5
q16 0 19 14.5t3 39.5h60q1 -24 -3 -50t-20.5 -44.5t-52.5 -18.5z" />
    <glyph glyph-name="ohungarumlaut" unicode="&#x151;" horiz-adv-x="478" 
d="M111 478l72 147l81 -39l-107 -131zM281 478l72 147l82 -39l-107 -131zM231 -10q-70 0 -116 27t-69 74.5t-23 108.5q-1 92 51.5 151.5t156.5 59.5q101 0 153.5 -58t52.5 -153q0 -59 -22 -107t-68 -75.5t-116 -27.5zM231 76q44 0 67.5 19t31.5 48.5t8 59.5q0 31 -8 61
t-31.5 49t-67.5 19q-45 0 -68.5 -19.5t-32 -49t-8.5 -60.5q0 -30 8.5 -59.5t32 -48.5t68.5 -19z" />
    <glyph glyph-name="omacron" unicode="&#x14d;" horiz-adv-x="465" 
d="M231 -10q-70 0 -116 27t-69 74.5t-23 108.5q-1 92 51.5 151.5t156.5 59.5q101 0 153.5 -58t52.5 -153q0 -59 -22 -107t-68 -75.5t-116 -27.5zM231 76q44 0 67.5 19t31.5 48.5t8 59.5q0 31 -8 61t-31.5 49t-67.5 19q-45 0 -68.5 -19.5t-32 -49t-8.5 -60.5q0 -30 8.5 -59.5
t32 -48.5t68.5 -19zM88 474v71h275v-71h-275z" />
    <glyph glyph-name="oslash" unicode="&#xf8;" horiz-adv-x="465" 
d="M60 -25l35 55q-36 28 -54 72t-18 98q-1 92 51.5 151.5t156.5 59.5q52 0 93 -17l36 57l27 -15l-35 -56q42 -26 63.5 -72.5t21.5 -107.5q0 -59 -22 -107t-68 -75.5t-116 -27.5q-63 0 -109 24l-35 -55zM122 203q0 -24 5 -48.5t19 -42.5l133 211q-20 9 -48 9
q-45 0 -68.5 -19.5t-32 -49t-8.5 -60.5zM231 76q44 0 67.5 19t31.5 48.5t8 59.5q0 29 -6.5 56.5t-26.5 46.5l-135 -215q24 -15 61 -15z" />
    <glyph glyph-name="otilde" unicode="&#xf5;" horiz-adv-x="472" 
d="M231 -10q-70 0 -116 27t-69 74.5t-23 108.5q-1 92 51.5 151.5t156.5 59.5q101 0 153.5 -58t52.5 -153q0 -59 -22 -107t-68 -75.5t-116 -27.5zM231 76q44 0 67.5 19t31.5 48.5t8 59.5q0 31 -8 61t-31.5 49t-67.5 19q-45 0 -68.5 -19.5t-32 -49t-8.5 -60.5q0 -30 8.5 -59.5
t32 -48.5t68.5 -19zM284 471q-26 0 -41 8.5t-24.5 19.5t-18 19.5t-22.5 8.5q-16 0 -19.5 -13.5t-2.5 -39.5h-61q0 14 1 32.5t7.5 37t22.5 31t46 12.5q25 0 40.5 -8.5t25 -20t18.5 -20t22 -8.5q16 0 19 14.5t3 39.5h60q1 -24 -3 -50t-20.5 -44.5t-52.5 -18.5z" />
    <glyph glyph-name="oe" unicode="&#x153;" horiz-adv-x="761" 
d="M225 -10q-69 0 -115 27t-69 74.5t-23 108.5q-1 92 51 151.5t156 59.5q53 0 92.5 -16t65.5 -46q25 29 64 46.5t95 17.5q52 0 94 -25.5t67 -69t27 -99.5v-11v-15h-298q0 -54 29 -84.5t79 -30.5q41 0 64 19.5t31 51.5l97 -18q-16 -59 -63 -100t-128 -41q-54 0 -93 17.5
t-64 46.5q-25 -30 -64.5 -47t-94.5 -17zM433 247h194q0 7 -2.5 22.5t-11.5 32t-27 27.5t-48 11q-42 0 -64 -17t-30.5 -39t-10.5 -37zM225 76q45 0 68 19t31.5 48.5t8.5 59.5q0 31 -8.5 61t-31.5 49t-68 19q-44 0 -67.5 -19.5t-32 -49t-8.5 -60.5q0 -30 8.5 -59.5t32 -48.5
t67.5 -19z" />
    <glyph glyph-name="p" unicode="p" horiz-adv-x="492" 
d="M292 -10q-38 0 -63.5 11.5t-41 27.5t-23 29t-8.5 15h-2v-256h-105v594h89l17 -90h2q1 3 7.5 17t21 31t40.5 29.5t65 12.5q92 0 132 -59t40 -154t-41 -151.5t-130 -56.5zM261 76q42 0 64.5 17.5t31 46t8.5 59.5t-9.5 58.5t-32.5 45t-64 17.5q-56 0 -80 -34.5t-24 -86.5
q0 -54 25 -88.5t81 -34.5z" />
    <glyph glyph-name="thorn" unicode="&#xfe;" horiz-adv-x="494" 
d="M50 -199v762h105v-264q1 3 9 20t24.5 38.5t44 37t68.5 15.5q55 0 90 -30t51.5 -77.5t16.5 -98.5q0 -53 -16 -102t-51 -80.5t-92 -31.5q-36 0 -63 13.5t-44.5 32t-26.5 33.5t-11 18v-286h-105zM251 75q38 0 59 18t29.5 46t8.5 58q0 31 -9 59.5t-30.5 46.5t-59.5 18
q-41 0 -64 -23.5t-30 -62.5v-75q7 -38 29.5 -61.5t66.5 -23.5zM152 197q0 -19 3 -35v71q-3 -16 -3 -36z" />
    <glyph glyph-name="q" unicode="q" horiz-adv-x="492" 
d="M201 -10q-91 0 -131.5 56.5t-40.5 151.5q0 96 40.5 154.5t131.5 58.5q39 0 65 -12.5t41 -29.5t21.5 -31t7.5 -17h2l16 90h89v-594h-105v256h-2q-1 -2 -8.5 -15t-23 -29t-41 -27.5t-62.5 -11.5zM231 76q56 0 81 34.5t25 88.5q0 52 -23.5 86.5t-79.5 34.5q-42 0 -65 -17.5
t-32.5 -45t-9.5 -58.5t9 -59.5t31.5 -46t63.5 -17.5z" />
    <glyph glyph-name="r" unicode="r" horiz-adv-x="338" 
d="M42 0v411h95l7 -114q6 26 23.5 52.5t49 44t81.5 17.5h15v-114h-15q-86 0 -120 -27.5t-34 -92.5v-177h-102z" />
    <glyph glyph-name="racute" unicode="&#x155;" horiz-adv-x="338" 
d="M42 0v411h95l7 -114q6 26 23.5 52.5t49 44t81.5 17.5h15v-114h-15q-86 0 -120 -27.5t-34 -92.5v-177h-102zM218 460h-46v13l45 100h86v-18z" />
    <glyph glyph-name="rcaron" unicode="&#x159;" horiz-adv-x="384" 
d="M42 0v411h95l7 -114q6 26 23.5 52.5t49 44t81.5 17.5h15v-114h-15q-86 0 -120 -27.5t-34 -92.5v-177h-102zM44 597h105l57 -91l59 91h103l-140 -136h-44z" />
    <glyph glyph-name="uni0157" unicode="&#x157;" horiz-adv-x="368" 
d="M41 -254v67h25q25 0 35 8t10 27q-37 -1 -52.5 15.5t-15.5 41.5q0 24 13 40.5t45 16.5q26 0 41 -15.5t15 -62.5q0 -56 -20.5 -97t-69.5 -41h-26zM47 0v411h95l7 -114q6 26 23.5 52.5t49 44t81.5 17.5h15v-114h-15q-86 0 -120 -27.5t-34 -92.5v-177h-102z" />
    <glyph glyph-name="s" unicode="s" horiz-adv-x="415" 
d="M210 -10q-26 0 -57.5 9t-60 27t-47 46.5t-18.5 67.5h94q0 -2 1 -13.5t8.5 -26t25.5 -25.5t52 -11q40 0 60 14.5t20 33.5q0 22 -18.5 34.5t-47.5 20.5t-61.5 16.5t-61 22.5t-46.5 38.5t-18 63.5q0 57 46 86.5t117 29.5q50 0 93 -15.5t69 -49t26 -87.5h-94q1 31 -13.5 46.5
t-36 21.5t-41.5 6q-36 0 -54.5 -12.5t-18.5 -32.5q0 -23 18.5 -35.5t48 -20.5t62 -16.5t62 -22.5t48 -37.5t18.5 -62.5q0 -59 -48.5 -87.5t-126.5 -28.5z" />
    <glyph glyph-name="sacute" unicode="&#x15b;" horiz-adv-x="415" 
d="M210 -10q-26 0 -57.5 9t-60 27t-47 46.5t-18.5 67.5h94q0 -2 1 -13.5t8.5 -26t25.5 -25.5t52 -11q40 0 60 14.5t20 33.5q0 22 -18.5 34.5t-47.5 20.5t-61.5 16.5t-61 22.5t-46.5 38.5t-18 63.5q0 57 46 86.5t117 29.5q50 0 93 -15.5t69 -49t26 -87.5h-94q1 31 -13.5 46.5
t-36 21.5t-41.5 6q-36 0 -54.5 -12.5t-18.5 -32.5q0 -23 18.5 -35.5t48 -20.5t62 -16.5t62 -22.5t48 -37.5t18.5 -62.5q0 -59 -48.5 -87.5t-126.5 -28.5zM231 460h-46v13l45 100h86v-18z" />
    <glyph glyph-name="scaron" unicode="&#x161;" horiz-adv-x="451" 
d="M210 -10q-26 0 -57.5 9t-60 27t-47 46.5t-18.5 67.5h94q0 -2 1 -13.5t8.5 -26t25.5 -25.5t52 -11q40 0 60 14.5t20 33.5q0 22 -18.5 34.5t-47.5 20.5t-61.5 16.5t-61 22.5t-46.5 38.5t-18 63.5q0 57 46 86.5t117 29.5q50 0 93 -15.5t69 -49t26 -87.5h-94q1 31 -13.5 46.5
t-36 21.5t-41.5 6q-36 0 -54.5 -12.5t-18.5 -32.5q0 -23 18.5 -35.5t48 -20.5t62 -16.5t62 -22.5t48 -37.5t18.5 -62.5q0 -59 -48.5 -87.5t-126.5 -28.5zM54 597h105l57 -91l59 91h103l-140 -136h-44z" />
    <glyph glyph-name="scedilla" unicode="&#x15f;" horiz-adv-x="415" 
d="M210 -10q-26 0 -57.5 9t-60 27t-47 46.5t-18.5 67.5h94q0 -2 1 -13.5t8.5 -26t25.5 -25.5t52 -11q40 0 60 14.5t20 33.5q0 22 -18.5 34.5t-47.5 20.5t-61.5 16.5t-61 22.5t-46.5 38.5t-18 63.5q0 57 46 86.5t117 29.5q50 0 93 -15.5t69 -49t26 -87.5h-94q1 31 -13.5 46.5
t-36 21.5t-41.5 6q-36 0 -54.5 -12.5t-18.5 -32.5q0 -23 18.5 -35.5t48 -20.5t62 -16.5t62 -22.5t48 -37.5t18.5 -62.5q0 -59 -48.5 -87.5t-126.5 -28.5zM107 -139l31 49q10 -10 31 -17.5t43.5 -9t38 4.5t14.5 24q0 14 -14 20t-33 3t-33 -15l-43 23l43 91l47 -18l-37 -61
q14 12 37 16.5t46.5 0t39.5 -20t16 -43.5q0 -32 -22 -52t-57 -26.5t-74.5 1t-73.5 30.5z" />
    <glyph glyph-name="uni0219" unicode="&#x219;" horiz-adv-x="415" 
d="M210 -10q-26 0 -57.5 9t-60 27t-47 46.5t-18.5 67.5h94q0 -2 1 -13.5t8.5 -26t25.5 -25.5t52 -11q40 0 60 14.5t20 33.5q0 22 -18.5 34.5t-47.5 20.5t-61.5 16.5t-61 22.5t-46.5 38.5t-18 63.5q0 57 46 86.5t117 29.5q50 0 93 -15.5t69 -49t26 -87.5h-94q1 31 -13.5 46.5
t-36 21.5t-41.5 6q-36 0 -54.5 -12.5t-18.5 -32.5q0 -23 18.5 -35.5t48 -20.5t62 -16.5t62 -22.5t48 -37.5t18.5 -62.5q0 -59 -48.5 -87.5t-126.5 -28.5zM156 -254v67h25q25 0 35 8t10 27q-37 -1 -52.5 15.5t-15.5 41.5q0 24 13 40.5t45 16.5q26 0 41 -15.5t15 -62.5
q0 -56 -20.5 -97t-69.5 -41h-26z" />
    <glyph glyph-name="germandbls" unicode="&#xdf;" horiz-adv-x="582" 
d="M377 -10q-66 0 -105.5 23t-57.5 58t-21 72h88q0 -1 2.5 -10.5t10.5 -22t25 -22t46 -9.5q45 0 69.5 25.5t24.5 56.5t-19.5 50.5t-48 33t-57.5 25t-48.5 26.5t-19.5 38q0 20 12 31t29 18t34.5 15t29 21.5t11.5 38.5q0 9 -18 14t-41 6.5t-38 1.5h-128v-480h-102v563h230
q24 0 56.5 -0.5t63.5 -7.5t51.5 -25t20.5 -52q0 -31 -13 -50t-32.5 -30t-39 -19.5t-32.5 -18t-13 -24.5q0 -17 21.5 -28t53 -22t63 -27t53 -43.5t21.5 -72.5q0 -47 -25.5 -81t-67 -53t-89.5 -19z" />
    <glyph glyph-name="t" unicode="t" horiz-adv-x="305" 
d="M172 0q-49 0 -73.5 24t-24.5 78v237h-62v72q29 0 45 6t23 28t7 71h82v-105h94v-72h-94v-259h96v-80h-93z" />
    <glyph glyph-name="tbar" unicode="&#x167;" horiz-adv-x="305" 
d="M16 176v72h58v85h-62v80q29 0 45 6t23 28t7 71h82v-105h94v-80h-94v-85h88v-72h-88v-30q0 -47 16.5 -64.5t38.5 -16.5t37 11l2 -58q-31 -22 -64 -26.5t-61.5 8.5t-46 43t-17.5 76v57h-58z" />
    <glyph glyph-name="tcaron" unicode="&#x165;" horiz-adv-x="310" 
d="M210 458l31 161h96l-67 -161h-60zM172 0q-49 0 -73.5 24t-24.5 78v237h-62v72q29 0 45 6t23 28t7 71h82v-105h94v-72h-94v-259h96v-80h-93z" />
    <glyph glyph-name="uni0163" unicode="&#x163;" horiz-adv-x="305" 
d="M172 0q-49 0 -73.5 24t-24.5 78v237h-62v72q29 0 45 6t23 28t7 71h82v-105h94v-72h-94v-259h96v-80h-93zM46 -139l31 49q10 -10 31 -17.5t43.5 -9t38 4.5t14.5 24q0 14 -14 20t-33 3t-33 -15l-43 23l43 91l47 -18l-37 -61q14 12 37 16.5t46.5 0t39.5 -20t16 -43.5
q0 -32 -22 -52t-57 -26.5t-74.5 1t-73.5 30.5z" />
    <glyph glyph-name="uni021B" unicode="&#x21b;" horiz-adv-x="305" 
d="M172 0q-49 0 -73.5 24t-24.5 78v237h-62v72q29 0 45 6t23 28t7 71h82v-105h94v-72h-94v-259h96v-80h-93zM92 -254v67h25q25 0 35 8t10 27q-37 -1 -52.5 15.5t-15.5 41.5q0 24 13 40.5t45 16.5q26 0 41 -15.5t15 -62.5q0 -56 -20.5 -97t-69.5 -41h-26z" />
    <glyph glyph-name="u" unicode="u" horiz-adv-x="461" 
d="M180 -10q-54 0 -84 21t-43.5 54t-16.5 69.5t-3 66.5v210h99v-210q0 -31 6 -59t25.5 -45t59.5 -17q39 0 59 17.5t27 44.5t8 56l1 213h104v-411h-87l-17 78h-2q-2 -6 -10 -20t-23.5 -30t-40.5 -27t-62 -11z" />
    <glyph glyph-name="uacute" unicode="&#xfa;" horiz-adv-x="461" 
d="M180 -10q-54 0 -84 21t-43.5 54t-16.5 69.5t-3 66.5v210h99v-210q0 -31 6 -59t25.5 -45t59.5 -17q39 0 59 17.5t27 44.5t8 56l1 213h104v-411h-87l-17 78h-2q-2 -6 -10 -20t-23.5 -30t-40.5 -27t-62 -11zM250 459h-46v13l45 100h86v-18z" />
    <glyph glyph-name="ucircumflex" unicode="&#xfb;" horiz-adv-x="461" 
d="M180 -10q-54 0 -84 21t-43.5 54t-16.5 69.5t-3 66.5v210h99v-210q0 -31 6 -59t25.5 -45t59.5 -17q39 0 59 17.5t27 44.5t8 56l1 213h104v-411h-87l-17 78h-2q-2 -6 -10 -20t-23.5 -30t-40.5 -27t-62 -11zM85 458v8l118 109h43l118 -109v-8h-91l-46 51h-5l-44 -51h-93z
" />
    <glyph glyph-name="udieresis" unicode="&#xfc;" horiz-adv-x="461" 
d="M180 -10q-54 0 -84 21t-43.5 54t-16.5 69.5t-3 66.5v210h99v-210q0 -31 6 -59t25.5 -45t59.5 -17q39 0 59 17.5t27 44.5t8 56l1 213h104v-411h-87l-17 78h-2q-2 -6 -10 -20t-23.5 -30t-40.5 -27t-62 -11zM133 456q-37 0 -49.5 18.5t-12.5 43.5q0 24 12.5 42t49.5 18
t48.5 -18t11.5 -42q0 -25 -11.5 -43.5t-48.5 -18.5zM314 456q-36 0 -49 18.5t-13 43.5q0 24 13 42t49 18q37 0 49 -18t12 -42q0 -25 -12 -43.5t-49 -18.5z" />
    <glyph glyph-name="uni1EE5" unicode="&#x1ee5;" horiz-adv-x="461" 
d="M180 -10q-54 0 -84 21t-43.5 54t-16.5 69.5t-3 66.5v210h99v-210q0 -31 6 -59t25.5 -45t59.5 -17q39 0 59 17.5t27 44.5t8 56l1 213h104v-411h-87l-17 78h-2q-2 -6 -10 -20t-23.5 -30t-40.5 -27t-62 -11zM229 -175q-31 0 -42 16t-11 38q0 20 11 35.5t42 15.5
q32 0 42 -15.5t10 -35.5q0 -22 -10 -38t-42 -16z" />
    <glyph glyph-name="ugrave" unicode="&#xf9;" horiz-adv-x="461" 
d="M180 -10q-54 0 -84 21t-43.5 54t-16.5 69.5t-3 66.5v210h99v-210q0 -31 6 -59t25.5 -45t59.5 -17q39 0 59 17.5t27 44.5t8 56l1 213h104v-411h-87l-17 78h-2q-2 -6 -10 -20t-23.5 -30t-40.5 -27t-62 -11zM207 458l-85 95v18h86l45 -100v-13h-46z" />
    <glyph glyph-name="uni1EE7" unicode="&#x1ee7;" horiz-adv-x="461" 
d="M180 -10q-54 0 -84 21t-43.5 54t-16.5 69.5t-3 66.5v210h99v-210q0 -31 6 -59t25.5 -45t59.5 -17q39 0 59 17.5t27 44.5t8 56l1 213h104v-411h-87l-17 78h-2q-2 -6 -10 -20t-23.5 -30t-40.5 -27t-62 -11zM196 469v15q6 13 21.5 22.5t29 20t13.5 28.5q0 16 -15 21.5t-33 0
t-25 -24.5l-42 27q7 27 27 42.5t45.5 20t49.5 -2.5t39.5 -25.5t15.5 -47.5q0 -30 -13 -45.5t-27.5 -26.5t-19.5 -25h-66z" />
    <glyph glyph-name="uhorn" unicode="&#x1b0;" horiz-adv-x="478" 
d="M180 -10q-54 0 -84 21t-43.5 54t-16.5 69.5t-3 66.5v210h99v-210q0 -31 6 -59t25.5 -45t59.5 -17q39 0 59 17.5t27 44.5t8 56l1 213h104v-411h-87l-17 78h-2q-2 -6 -10 -20t-23.5 -30t-40.5 -27t-62 -11zM363 351l1 60h41q22 0 25.5 8.5t4.5 41.5h71q0 -62 -23.5 -86
t-86.5 -24h-33z" />
    <glyph glyph-name="uni1EE9" unicode="&#x1ee9;" horiz-adv-x="478" 
d="M180 -10q-54 0 -84 21t-43.5 54t-16.5 69.5t-3 66.5v210h99v-210q0 -31 6 -59t25.5 -45t59.5 -17q39 0 59 17.5t27 44.5t8 56l1 213h104v-411h-87l-17 78h-2q-2 -6 -10 -20t-23.5 -30t-40.5 -27t-62 -11zM363 351l1 60h41q22 0 25.5 8.5t4.5 41.5h71q0 -62 -23.5 -86
t-86.5 -24h-33zM250 459h-46v13l45 100h86v-18z" />
    <glyph glyph-name="uni1EF1" unicode="&#x1ef1;" horiz-adv-x="478" 
d="M180 -10q-54 0 -84 21t-43.5 54t-16.5 69.5t-3 66.5v210h99v-210q0 -31 6 -59t25.5 -45t59.5 -17q39 0 59 17.5t27 44.5t8 56l1 213h104v-411h-87l-17 78h-2q-2 -6 -10 -20t-23.5 -30t-40.5 -27t-62 -11zM363 351l1 60h41q22 0 25.5 8.5t4.5 41.5h71q0 -62 -23.5 -86
t-86.5 -24h-33zM229 -175q-31 0 -42 16t-11 38q0 20 11 35.5t42 15.5q32 0 42 -15.5t10 -35.5q0 -22 -10 -38t-42 -16z" />
    <glyph glyph-name="uni1EEB" unicode="&#x1eeb;" horiz-adv-x="478" 
d="M180 -10q-54 0 -84 21t-43.5 54t-16.5 69.5t-3 66.5v210h99v-210q0 -31 6 -59t25.5 -45t59.5 -17q39 0 59 17.5t27 44.5t8 56l1 213h104v-411h-87l-17 78h-2q-2 -6 -10 -20t-23.5 -30t-40.5 -27t-62 -11zM363 351l1 60h41q22 0 25.5 8.5t4.5 41.5h71q0 -62 -23.5 -86
t-86.5 -24h-33zM207 458l-85 95v18h86l45 -100v-13h-46z" />
    <glyph glyph-name="uni1EED" unicode="&#x1eed;" horiz-adv-x="478" 
d="M180 -10q-54 0 -84 21t-43.5 54t-16.5 69.5t-3 66.5v210h99v-210q0 -31 6 -59t25.5 -45t59.5 -17q39 0 59 17.5t27 44.5t8 56l1 213h104v-411h-87l-17 78h-2q-2 -6 -10 -20t-23.5 -30t-40.5 -27t-62 -11zM363 351l1 60h41q22 0 25.5 8.5t4.5 41.5h71q0 -62 -23.5 -86
t-86.5 -24h-33zM196 469v15q6 13 21.5 22.5t29 20t13.5 28.5q0 16 -15 21.5t-33 0t-25 -24.5l-42 27q7 27 27 42.5t45.5 20t49.5 -2.5t39.5 -25.5t15.5 -47.5q0 -30 -13 -45.5t-27.5 -26.5t-19.5 -25h-66z" />
    <glyph glyph-name="uni1EEF" unicode="&#x1eef;" horiz-adv-x="478" 
d="M180 -10q-54 0 -84 21t-43.5 54t-16.5 69.5t-3 66.5v210h99v-210q0 -31 6 -59t25.5 -45t59.5 -17q39 0 59 17.5t27 44.5t8 56l1 213h104v-411h-87l-17 78h-2q-2 -6 -10 -20t-23.5 -30t-40.5 -27t-62 -11zM363 351l1 60h41q22 0 25.5 8.5t4.5 41.5h71q0 -62 -23.5 -86
t-86.5 -24h-33zM284 482q-26 0 -41 8.5t-24.5 19.5t-18 19.5t-22.5 8.5q-16 0 -19.5 -13.5t-2.5 -39.5h-61q0 14 1 32.5t7.5 37t22.5 31t46 12.5q25 0 40.5 -8.5t25 -20t18.5 -20t22 -8.5q16 0 19 14.5t3 39.5h60q1 -24 -3 -50t-20.5 -44.5t-52.5 -18.5z" />
    <glyph glyph-name="uhungarumlaut" unicode="&#x171;" horiz-adv-x="483" 
d="M101 478l72 147l81 -39l-107 -131zM271 478l72 147l82 -39l-107 -131zM180 -10q-54 0 -84 21t-43.5 54t-16.5 69.5t-3 66.5v210h99v-210q0 -31 6 -59t25.5 -45t59.5 -17q39 0 59 17.5t27 44.5t8 56l1 213h104v-411h-87l-17 78h-2q-2 -6 -10 -20t-23.5 -30t-40.5 -27
t-62 -11z" />
    <glyph glyph-name="umacron" unicode="&#x16b;" horiz-adv-x="469" 
d="M180 -10q-54 0 -84 21t-43.5 54t-16.5 69.5t-3 66.5v210h99v-210q0 -31 6 -59t25.5 -45t59.5 -17q39 0 59 17.5t27 44.5t8 56l1 213h104v-411h-87l-17 78h-2q-2 -6 -10 -20t-23.5 -30t-40.5 -27t-62 -11zM86 474v71h275v-71h-275z" />
    <glyph glyph-name="uogonek" unicode="&#x173;" horiz-adv-x="469" 
d="M180 -10q-54 0 -84 21t-43.5 54t-16.5 69.5t-3 66.5v210h99v-210q0 -31 6 -59t25.5 -45t59.5 -17q39 0 59 17.5t27 44.5t8 56l1 213h104v-411h-4l-12.5 -5.5t-28.5 -16t-28 -25.5t-12 -34q0 -32 34 -32q15 0 24.5 7.5t14 14.5l4.5 7l55 -48l-11.5 -13.5t-35 -27
t-60.5 -13.5q-36 0 -68 21t-32 67q0 35 22 61.5t49 43.5l-15 71h-2q-2 -6 -10 -20t-23.5 -30t-40.5 -27t-62 -11z" />
    <glyph glyph-name="uring" unicode="&#x16f;" horiz-adv-x="461" 
d="M180 -10q-54 0 -84 21t-43.5 54t-16.5 69.5t-3 66.5v210h99v-210q0 -31 6 -59t25.5 -45t59.5 -17q39 0 59 17.5t27 44.5t8 56l1 213h104v-411h-87l-17 78h-2q-2 -6 -10 -20t-23.5 -30t-40.5 -27t-62 -11zM223 457q-50 0 -74.5 26.5t-24.5 70.5q0 46 24.5 73.5t74.5 27.5
t76 -27.5t26 -73.5q0 -42 -26 -69.5t-76 -27.5zM222 516q21 0 31 11.5t10 29.5q0 17 -10 29t-31 12q-20 0 -30.5 -12.5t-10.5 -28.5q0 -18 11 -29.5t30 -11.5z" />
    <glyph glyph-name="utilde" unicode="&#x169;" horiz-adv-x="461" 
d="M180 -10q-54 0 -84 21t-43.5 54t-16.5 69.5t-3 66.5v210h99v-210q0 -31 6 -59t25.5 -45t59.5 -17q39 0 59 17.5t27 44.5t8 56l1 213h104v-411h-87l-17 78h-2q-2 -6 -10 -20t-23.5 -30t-40.5 -27t-62 -11zM284 482q-26 0 -41 8.5t-24.5 19.5t-18 19.5t-22.5 8.5
q-16 0 -19.5 -13.5t-2.5 -39.5h-61q0 14 1 32.5t7.5 37t22.5 31t46 12.5q25 0 40.5 -8.5t25 -20t18.5 -20t22 -8.5q16 0 19 14.5t3 39.5h60q1 -24 -3 -50t-20.5 -44.5t-52.5 -18.5z" />
    <glyph glyph-name="v" unicode="v" horiz-adv-x="447" 
d="M321 411h100v-17l-141 -394h-142l-141 393v18h98l115 -327h2z" />
    <glyph glyph-name="w" unicode="w" horiz-adv-x="636" 
d="M102 0l-96 394v18h100l68 -327h2l88 327h88l91 -327h2l68 327h99v-18l-97 -394h-142l-64 235h-2l-61 -235h-144z" />
    <glyph glyph-name="wacute" unicode="&#x1e83;" horiz-adv-x="636" 
d="M102 0l-96 394v18h100l68 -327h2l88 327h88l91 -327h2l68 327h99v-18l-97 -394h-142l-64 235h-2l-61 -235h-144zM330 459h-46v13l45 100h86v-18z" />
    <glyph glyph-name="wcircumflex" unicode="&#x175;" horiz-adv-x="636" 
d="M102 0l-96 394v18h100l68 -327h2l88 327h88l91 -327h2l68 327h99v-18l-97 -394h-142l-64 235h-2l-61 -235h-144zM167 458v8l118 109h43l118 -109v-8h-91l-46 51h-5l-44 -51h-93z" />
    <glyph glyph-name="wdieresis" unicode="&#x1e85;" horiz-adv-x="636" 
d="M102 0l-96 394v18h100l68 -327h2l88 327h88l91 -327h2l68 327h99v-18l-97 -394h-142l-64 235h-2l-61 -235h-144zM217 456q-37 0 -49.5 18.5t-12.5 43.5q0 24 12.5 42t49.5 18t48.5 -18t11.5 -42q0 -25 -11.5 -43.5t-48.5 -18.5zM398 456q-36 0 -49 18.5t-13 43.5
q0 24 13 42t49 18q37 0 49 -18t12 -42q0 -25 -12 -43.5t-49 -18.5z" />
    <glyph glyph-name="wgrave" unicode="&#x1e81;" horiz-adv-x="636" 
d="M102 0l-96 394v18h100l68 -327h2l88 327h88l91 -327h2l68 327h99v-18l-97 -394h-142l-64 235h-2l-61 -235h-144zM260 459l-85 95v18h86l45 -100v-13h-46z" />
    <glyph glyph-name="x" unicode="x" horiz-adv-x="446" 
d="M0 0l150 212l-142 199h112l94 -140l94 140h113l-142 -199l151 -212h-112l-104 151l-102 -151h-112z" />
    <glyph glyph-name="y" unicode="y" horiz-adv-x="441" 
d="M-2 -191v79h63q15 0 26 3t22 15.5t25 40.5l27 60l-160 404h105l105 -299l113 299h105l-202 -474q-24 -56 -44 -83.5t-44.5 -36t-62.5 -8.5h-78z" />
    <glyph glyph-name="yacute" unicode="&#xfd;" horiz-adv-x="441" 
d="M-2 -191v79h63q15 0 26 3t22 15.5t25 40.5l27 60l-160 404h105l105 -299l113 299h105l-202 -474q-24 -56 -44 -83.5t-44.5 -36t-62.5 -8.5h-78zM223 459h-46v13l45 100h86v-18z" />
    <glyph glyph-name="ycircumflex" unicode="&#x177;" horiz-adv-x="441" 
d="M-2 -191v79h63q15 0 26 3t22 15.5t25 40.5l27 60l-160 404h105l105 -299l113 299h105l-202 -474q-24 -56 -44 -83.5t-44.5 -36t-62.5 -8.5h-78zM78 458v8l118 109h43l118 -109v-8h-91l-46 51h-5l-44 -51h-93z" />
    <glyph glyph-name="ydieresis" unicode="&#xff;" horiz-adv-x="441" 
d="M-2 -191v79h63q15 0 26 3t22 15.5t25 40.5l27 60l-160 404h105l105 -299l113 299h105l-202 -474q-24 -56 -44 -83.5t-44.5 -36t-62.5 -8.5h-78zM126 456q-37 0 -49.5 18.5t-12.5 43.5q0 24 12.5 42t49.5 18t48.5 -18t11.5 -42q0 -25 -11.5 -43.5t-48.5 -18.5zM307 456
q-36 0 -49 18.5t-13 43.5q0 24 13 42t49 18q37 0 49 -18t12 -42q0 -25 -12 -43.5t-49 -18.5z" />
    <glyph glyph-name="uni1EF5" unicode="&#x1ef5;" horiz-adv-x="441" 
d="M-2 -191v79h63q15 0 26 3t22 15.5t25 40.5l27 60l-160 404h105l105 -299l113 299h105l-202 -474q-24 -56 -44 -83.5t-44.5 -36t-62.5 -8.5h-78zM341 -175q-31 0 -42 16t-11 38q0 20 11 35.5t42 15.5q32 0 42 -15.5t10 -35.5q0 -22 -10 -38t-42 -16z" />
    <glyph glyph-name="ygrave" unicode="&#x1ef3;" horiz-adv-x="441" 
d="M-2 -191v79h63q15 0 26 3t22 15.5t25 40.5l27 60l-160 404h105l105 -299l113 299h105l-202 -474q-24 -56 -44 -83.5t-44.5 -36t-62.5 -8.5h-78zM183 459l-85 95v18h86l45 -100v-13h-46z" />
    <glyph glyph-name="uni1EF7" unicode="&#x1ef7;" horiz-adv-x="441" 
d="M-2 -191v79h63q15 0 26 3t22 15.5t25 40.5l27 60l-160 404h105l105 -299l113 299h105l-202 -474q-24 -56 -44 -83.5t-44.5 -36t-62.5 -8.5h-78zM186 469v15q6 13 21.5 22.5t29 20t13.5 28.5q0 16 -15 21.5t-33 0t-25 -24.5l-42 27q7 27 27 42.5t45.5 20t49.5 -2.5
t39.5 -25.5t15.5 -47.5q0 -30 -13 -45.5t-27.5 -26.5t-19.5 -25h-66z" />
    <glyph glyph-name="uni1EF9" unicode="&#x1ef9;" horiz-adv-x="441" 
d="M-2 -191v79h63q15 0 26 3t22 15.5t25 40.5l27 60l-160 404h105l105 -299l113 299h105l-202 -474q-24 -56 -44 -83.5t-44.5 -36t-62.5 -8.5h-78zM271 478q-26 0 -41 8.5t-24.5 19.5t-18 19.5t-22.5 8.5q-16 0 -19.5 -13.5t-2.5 -39.5h-61q0 14 1 32.5t7.5 37t22.5 31
t46 12.5q25 0 40.5 -8.5t25 -20t18.5 -20t22 -8.5q16 0 19 14.5t3 39.5h60q1 -24 -3 -50t-20.5 -44.5t-52.5 -18.5z" />
    <glyph glyph-name="z" unicode="z" horiz-adv-x="445" 
d="M35 0v74l249 262h-235v77h354v-74l-244 -262h244v-77h-368z" />
    <glyph glyph-name="zacute" unicode="&#x17a;" horiz-adv-x="445" 
d="M35 0v74l249 262h-235v77h354v-74l-244 -262h244v-77h-368zM234 460h-46v13l45 100h86v-18z" />
    <glyph glyph-name="zcaron" unicode="&#x17e;" horiz-adv-x="445" 
d="M35 0v74l249 262h-235v77h354v-74l-244 -262h244v-77h-368zM65 597h105l57 -91l59 91h103l-140 -136h-44z" />
    <glyph glyph-name="zdotaccent" unicode="&#x17c;" horiz-adv-x="445" 
d="M35 0v74l249 262h-235v77h354v-74l-244 -262h244v-77h-368zM224 456q-37 0 -49.5 18.5t-12.5 43.5q0 23 12.5 41.5t49.5 18.5t48.5 -18.5t11.5 -41.5q0 -25 -11.5 -43.5t-48.5 -18.5z" />
    <glyph glyph-name="a.ss01" horiz-adv-x="481" 
d="M142 -10q-54 0 -87.5 30t-33.5 78q0 43 25.5 67.5t65 37.5t82.5 22q43 10 65 17t29.5 15.5t7.5 22.5q0 26 -21.5 41.5t-50.5 15.5q-20 0 -40 -8t-32.5 -25.5t-10.5 -47.5h-96q2 57 28.5 91t67 49.5t84.5 15.5t83.5 -14.5t64.5 -46.5t25 -83v-148q0 -34 14 -48t43 1l2 -58
q-1 1 -19.5 -12t-57.5 -13q-39 1 -56.5 17.5t-22.5 38.5t-5 39v34q-18 -57 -55.5 -93t-98.5 -36zM183 64q28 2 54 24.5t42 58t16 75.5q-8 -8 -29.5 -14.5t-40.5 -11.5q-40 -12 -71 -31t-30 -56q2 -25 19.5 -35.5t39.5 -9.5z" />
    <glyph glyph-name="aacute.ss01" horiz-adv-x="481" 
d="M142 -10q-54 0 -87.5 30t-33.5 78q0 43 25.5 67.5t65 37.5t82.5 22q43 10 65 17t29.5 15.5t7.5 22.5q0 26 -21.5 41.5t-50.5 15.5q-20 0 -40 -8t-32.5 -25.5t-10.5 -47.5h-96q2 57 28.5 91t67 49.5t84.5 15.5t83.5 -14.5t64.5 -46.5t25 -83v-148q0 -34 14 -48t43 1l2 -58
q-1 1 -19.5 -12t-57.5 -13q-39 1 -56.5 17.5t-22.5 38.5t-5 39v34q-18 -57 -55.5 -93t-98.5 -36zM183 64q28 2 54 24.5t42 58t16 75.5q-8 -8 -29.5 -14.5t-40.5 -11.5q-40 -12 -71 -31t-30 -56q2 -25 19.5 -35.5t39.5 -9.5zM250 460h-46v13l45 100h86v-18z" />
    <glyph glyph-name="abreve.ss01" horiz-adv-x="481" 
d="M142 -10q-54 0 -87.5 30t-33.5 78q0 43 25.5 67.5t65 37.5t82.5 22q43 10 65 17t29.5 15.5t7.5 22.5q0 26 -21.5 41.5t-50.5 15.5q-20 0 -40 -8t-32.5 -25.5t-10.5 -47.5h-96q2 57 28.5 91t67 49.5t84.5 15.5t83.5 -14.5t64.5 -46.5t25 -83v-148q0 -34 14 -48t43 1l2 -58
q-1 1 -19.5 -12t-57.5 -13q-39 1 -56.5 17.5t-22.5 38.5t-5 39v34q-18 -57 -55.5 -93t-98.5 -36zM183 64q28 2 54 24.5t42 58t16 75.5q-8 -8 -29.5 -14.5t-40.5 -11.5q-40 -12 -71 -31t-30 -56q2 -25 19.5 -35.5t39.5 -9.5zM226 463q-62 0 -97 28.5t-35 76.5h72
q0 -28 17 -38t43 -10q25 0 42 9.5t17 38.5h72q0 -48 -34 -76.5t-97 -28.5z" />
    <glyph glyph-name="uni1EAF.ss01" horiz-adv-x="481" 
d="M142 -10q-54 0 -87.5 30t-33.5 78q0 43 25.5 67.5t65 37.5t82.5 22q43 10 65 17t29.5 15.5t7.5 22.5q0 26 -21.5 41.5t-50.5 15.5q-20 0 -40 -8t-32.5 -25.5t-10.5 -47.5h-96q2 57 28.5 91t67 49.5t84.5 15.5t83.5 -14.5t64.5 -46.5t25 -83v-148q0 -34 14 -48t43 1l2 -58
q-1 1 -19.5 -12t-57.5 -13q-39 1 -56.5 17.5t-22.5 38.5t-5 39v34q-18 -57 -55.5 -93t-98.5 -36zM183 64q28 2 54 24.5t42 58t16 75.5q-8 -8 -29.5 -14.5t-40.5 -11.5q-40 -12 -71 -31t-30 -56q2 -25 19.5 -35.5t39.5 -9.5zM226 463q-62 0 -97 28.5t-35 76.5h72
q0 -28 17 -38t43 -10q25 0 42 9.5t17 38.5h72q0 -48 -34 -76.5t-97 -28.5zM247 586h-46v13l45 100h86v-18z" />
    <glyph glyph-name="uni1EB7.ss01" horiz-adv-x="481" 
d="M142 -10q-54 0 -87.5 30t-33.5 78q0 43 25.5 67.5t65 37.5t82.5 22q43 10 65 17t29.5 15.5t7.5 22.5q0 26 -21.5 41.5t-50.5 15.5q-20 0 -40 -8t-32.5 -25.5t-10.5 -47.5h-96q2 57 28.5 91t67 49.5t84.5 15.5t83.5 -14.5t64.5 -46.5t25 -83v-148q0 -34 14 -48t43 1l2 -58
q-1 1 -19.5 -12t-57.5 -13q-39 1 -56.5 17.5t-22.5 38.5t-5 39v34q-18 -57 -55.5 -93t-98.5 -36zM183 64q28 2 54 24.5t42 58t16 75.5q-8 -8 -29.5 -14.5t-40.5 -11.5q-40 -12 -71 -31t-30 -56q2 -25 19.5 -35.5t39.5 -9.5zM225 463q-62 0 -97 28.5t-35 76.5h72
q0 -28 17 -38t43 -10q25 0 42 9.5t17 38.5h72q0 -48 -34 -76.5t-97 -28.5zM222 -175q-31 0 -42 16t-11 38q0 20 11 35.5t42 15.5q32 0 42 -15.5t10 -35.5q0 -22 -10 -38t-42 -16z" />
    <glyph glyph-name="uni1EB1.ss01" horiz-adv-x="481" 
d="M142 -10q-54 0 -87.5 30t-33.5 78q0 43 25.5 67.5t65 37.5t82.5 22q43 10 65 17t29.5 15.5t7.5 22.5q0 26 -21.5 41.5t-50.5 15.5q-20 0 -40 -8t-32.5 -25.5t-10.5 -47.5h-96q2 57 28.5 91t67 49.5t84.5 15.5t83.5 -14.5t64.5 -46.5t25 -83v-148q0 -34 14 -48t43 1l2 -58
q-1 1 -19.5 -12t-57.5 -13q-39 1 -56.5 17.5t-22.5 38.5t-5 39v34q-18 -57 -55.5 -93t-98.5 -36zM183 64q28 2 54 24.5t42 58t16 75.5q-8 -8 -29.5 -14.5t-40.5 -11.5q-40 -12 -71 -31t-30 -56q2 -25 19.5 -35.5t39.5 -9.5zM226 463q-62 0 -97 28.5t-35 76.5h72
q0 -28 17 -38t43 -10q25 0 42 9.5t17 38.5h72q0 -48 -34 -76.5t-97 -28.5zM200 586l-85 95v18h86l45 -100v-13h-46z" />
    <glyph glyph-name="uni1EB3.ss01" horiz-adv-x="481" 
d="M142 -10q-54 0 -87.5 30t-33.5 78q0 43 25.5 67.5t65 37.5t82.5 22q43 10 65 17t29.5 15.5t7.5 22.5q0 26 -21.5 41.5t-50.5 15.5q-20 0 -40 -8t-32.5 -25.5t-10.5 -47.5h-96q2 57 28.5 91t67 49.5t84.5 15.5t83.5 -14.5t64.5 -46.5t25 -83v-148q0 -34 14 -48t43 1l2 -58
q-1 1 -19.5 -12t-57.5 -13q-39 1 -56.5 17.5t-22.5 38.5t-5 39v34q-18 -57 -55.5 -93t-98.5 -36zM183 64q28 2 54 24.5t42 58t16 75.5q-8 -8 -29.5 -14.5t-40.5 -11.5q-40 -12 -71 -31t-30 -56q2 -25 19.5 -35.5t39.5 -9.5zM226 463q-62 0 -97 28.5t-35 76.5h72
q0 -28 17 -38t43 -10q25 0 42 9.5t17 38.5h72q0 -48 -34 -76.5t-97 -28.5zM194 584v15q6 13 21.5 22.5t29 20t13.5 28.5q0 16 -15 21.5t-33 0t-25 -24.5l-42 27q7 27 27 42.5t45.5 20t49.5 -2.5t39.5 -25.5t15.5 -47.5q0 -30 -13 -45.5t-27.5 -26.5t-19.5 -25h-66z" />
    <glyph glyph-name="uni1EB5.ss01" horiz-adv-x="481" 
d="M142 -10q-54 0 -87.5 30t-33.5 78q0 43 25.5 67.5t65 37.5t82.5 22q43 10 65 17t29.5 15.5t7.5 22.5q0 26 -21.5 41.5t-50.5 15.5q-20 0 -40 -8t-32.5 -25.5t-10.5 -47.5h-96q2 57 28.5 91t67 49.5t84.5 15.5t83.5 -14.5t64.5 -46.5t25 -83v-148q0 -34 14 -48t43 1l2 -58
q-1 1 -19.5 -12t-57.5 -13q-39 1 -56.5 17.5t-22.5 38.5t-5 39v34q-18 -57 -55.5 -93t-98.5 -36zM183 64q28 2 54 24.5t42 58t16 75.5q-8 -8 -29.5 -14.5t-40.5 -11.5q-40 -12 -71 -31t-30 -56q2 -25 19.5 -35.5t39.5 -9.5zM226 463q-62 0 -97 28.5t-35 76.5h72
q0 -28 17 -38t43 -10q25 0 42 9.5t17 38.5h72q0 -48 -34 -76.5t-97 -28.5zM280 619q-26 0 -41 8.5t-24.5 19.5t-18 19.5t-22.5 8.5q-16 0 -19.5 -13.5t-2.5 -39.5h-61q0 14 1 32.5t7.5 37t22.5 31t46 12.5q25 0 40.5 -8.5t25 -20t18.5 -20t22 -8.5q16 0 19 14.5t3 39.5h60
q1 -24 -3 -50t-20.5 -44.5t-52.5 -18.5z" />
    <glyph glyph-name="acircumflex.ss01" horiz-adv-x="481" 
d="M142 -10q-54 0 -87.5 30t-33.5 78q0 43 25.5 67.5t65 37.5t82.5 22q43 10 65 17t29.5 15.5t7.5 22.5q0 26 -21.5 41.5t-50.5 15.5q-20 0 -40 -8t-32.5 -25.5t-10.5 -47.5h-96q2 57 28.5 91t67 49.5t84.5 15.5t83.5 -14.5t64.5 -46.5t25 -83v-148q0 -34 14 -48t43 1l2 -58
q-1 1 -19.5 -12t-57.5 -13q-39 1 -56.5 17.5t-22.5 38.5t-5 39v34q-18 -57 -55.5 -93t-98.5 -36zM183 64q28 2 54 24.5t42 58t16 75.5q-8 -8 -29.5 -14.5t-40.5 -11.5q-40 -12 -71 -31t-30 -56q2 -25 19.5 -35.5t39.5 -9.5zM86 458v8l118 109h43l118 -109v-8h-91l-46 51h-5
l-44 -51h-93z" />
    <glyph glyph-name="uni1EA5.ss01" horiz-adv-x="481" 
d="M142 -10q-54 0 -87.5 30t-33.5 78q0 43 25.5 67.5t65 37.5t82.5 22q43 10 65 17t29.5 15.5t7.5 22.5q0 26 -21.5 41.5t-50.5 15.5q-20 0 -40 -8t-32.5 -25.5t-10.5 -47.5h-96q2 57 28.5 91t67 49.5t84.5 15.5t83.5 -14.5t64.5 -46.5t25 -83v-148q0 -34 14 -48t43 1l2 -58
q-1 1 -19.5 -12t-57.5 -13q-39 1 -56.5 17.5t-22.5 38.5t-5 39v34q-18 -57 -55.5 -93t-98.5 -36zM183 64q28 2 54 24.5t42 58t16 75.5q-8 -8 -29.5 -14.5t-40.5 -11.5q-40 -12 -71 -31t-30 -56q2 -25 19.5 -35.5t39.5 -9.5zM86 454v8l118 109h43l118 -109v-8h-91l-46 51h-5
l-44 -51h-93zM370 548h-46v13l45 100h86v-18z" />
    <glyph glyph-name="uni1EAD.ss01" horiz-adv-x="481" 
d="M142 -10q-54 0 -87.5 30t-33.5 78q0 43 25.5 67.5t65 37.5t82.5 22q43 10 65 17t29.5 15.5t7.5 22.5q0 26 -21.5 41.5t-50.5 15.5q-20 0 -40 -8t-32.5 -25.5t-10.5 -47.5h-96q2 57 28.5 91t67 49.5t84.5 15.5t83.5 -14.5t64.5 -46.5t25 -83v-148q0 -34 14 -48t43 1l2 -58
q-1 1 -19.5 -12t-57.5 -13q-39 1 -56.5 17.5t-22.5 38.5t-5 39v34q-18 -57 -55.5 -93t-98.5 -36zM183 64q28 2 54 24.5t42 58t16 75.5q-8 -8 -29.5 -14.5t-40.5 -11.5q-40 -12 -71 -31t-30 -56q2 -25 19.5 -35.5t39.5 -9.5zM86 458v8l118 109h43l118 -109v-8h-91l-46 51h-5
l-44 -51h-93zM222 -175q-31 0 -42 16t-11 38q0 20 11 35.5t42 15.5q32 0 42 -15.5t10 -35.5q0 -22 -10 -38t-42 -16z" />
    <glyph glyph-name="uni1EA7.ss01" horiz-adv-x="481" 
d="M142 -10q-54 0 -87.5 30t-33.5 78q0 43 25.5 67.5t65 37.5t82.5 22q43 10 65 17t29.5 15.5t7.5 22.5q0 26 -21.5 41.5t-50.5 15.5q-20 0 -40 -8t-32.5 -25.5t-10.5 -47.5h-96q2 57 28.5 91t67 49.5t84.5 15.5t83.5 -14.5t64.5 -46.5t25 -83v-148q0 -34 14 -48t43 1l2 -58
q-1 1 -19.5 -12t-57.5 -13q-39 1 -56.5 17.5t-22.5 38.5t-5 39v34q-18 -57 -55.5 -93t-98.5 -36zM183 64q28 2 54 24.5t42 58t16 75.5q-8 -8 -29.5 -14.5t-40.5 -11.5q-40 -12 -71 -31t-30 -56q2 -25 19.5 -35.5t39.5 -9.5zM68 547l-85 95v18h86l45 -100v-13h-46zM87 454v8
l118 109h43l118 -109v-8h-91l-46 51h-5l-44 -51h-93z" />
    <glyph glyph-name="uni1EA9.ss01" horiz-adv-x="481" 
d="M142 -10q-54 0 -87.5 30t-33.5 78q0 43 25.5 67.5t65 37.5t82.5 22q43 10 65 17t29.5 15.5t7.5 22.5q0 26 -21.5 41.5t-50.5 15.5q-20 0 -40 -8t-32.5 -25.5t-10.5 -47.5h-96q2 57 28.5 91t67 49.5t84.5 15.5t83.5 -14.5t64.5 -46.5t25 -83v-148q0 -34 14 -48t43 1l2 -58
q-1 1 -19.5 -12t-57.5 -13q-39 1 -56.5 17.5t-22.5 38.5t-5 39v34q-18 -57 -55.5 -93t-98.5 -36zM183 64q28 2 54 24.5t42 58t16 75.5q-8 -8 -29.5 -14.5t-40.5 -11.5q-40 -12 -71 -31t-30 -56q2 -25 19.5 -35.5t39.5 -9.5zM86 458v8l118 109h43l118 -109v-8h-91l-46 51h-5
l-44 -51h-93zM313 551v15q6 13 21.5 22.5t29 20t13.5 28.5q0 16 -15 21.5t-33 0t-25 -24.5l-42 27q7 27 27 42.5t45.5 20t49.5 -2.5t39.5 -25.5t15.5 -47.5q0 -30 -13 -45.5t-27.5 -26.5t-19.5 -25h-66z" />
    <glyph glyph-name="uni1EAB.ss01" horiz-adv-x="481" 
d="M142 -10q-54 0 -87.5 30t-33.5 78q0 43 25.5 67.5t65 37.5t82.5 22q43 10 65 17t29.5 15.5t7.5 22.5q0 26 -21.5 41.5t-50.5 15.5q-20 0 -40 -8t-32.5 -25.5t-10.5 -47.5h-96q2 57 28.5 91t67 49.5t84.5 15.5t83.5 -14.5t64.5 -46.5t25 -83v-148q0 -34 14 -48t43 1l2 -58
q-1 1 -19.5 -12t-57.5 -13q-39 1 -56.5 17.5t-22.5 38.5t-5 39v34q-18 -57 -55.5 -93t-98.5 -36zM183 64q28 2 54 24.5t42 58t16 75.5q-8 -8 -29.5 -14.5t-40.5 -11.5q-40 -12 -71 -31t-30 -56q2 -25 19.5 -35.5t39.5 -9.5zM86 458v8l118 109h43l118 -109v-8h-91l-46 51h-5
l-44 -51h-93zM277 608q-26 0 -41 8.5t-24.5 19.5t-18 19.5t-22.5 8.5q-16 0 -19.5 -13.5t-2.5 -39.5h-61q0 14 1 32.5t7.5 37t22.5 31t46 12.5q25 0 40.5 -8.5t25 -20t18.5 -20t22 -8.5q16 0 19 14.5t3 39.5h60q1 -24 -3 -50t-20.5 -44.5t-52.5 -18.5z" />
    <glyph glyph-name="adieresis.ss01" horiz-adv-x="481" 
d="M142 -10q-54 0 -87.5 30t-33.5 78q0 43 25.5 67.5t65 37.5t82.5 22q43 10 65 17t29.5 15.5t7.5 22.5q0 26 -21.5 41.5t-50.5 15.5q-20 0 -40 -8t-32.5 -25.5t-10.5 -47.5h-96q2 57 28.5 91t67 49.5t84.5 15.5t83.5 -14.5t64.5 -46.5t25 -83v-148q0 -34 14 -48t43 1l2 -58
q-1 1 -19.5 -12t-57.5 -13q-39 1 -56.5 17.5t-22.5 38.5t-5 39v34q-18 -57 -55.5 -93t-98.5 -36zM183 64q28 2 54 24.5t42 58t16 75.5q-8 -8 -29.5 -14.5t-40.5 -11.5q-40 -12 -71 -31t-30 -56q2 -25 19.5 -35.5t39.5 -9.5zM134 456q-37 0 -49.5 18.5t-12.5 43.5
q0 24 12.5 42t49.5 18t48.5 -18t11.5 -42q0 -25 -11.5 -43.5t-48.5 -18.5zM315 456q-36 0 -49 18.5t-13 43.5q0 24 13 42t49 18q37 0 49 -18t12 -42q0 -25 -12 -43.5t-49 -18.5z" />
    <glyph glyph-name="uni1EA1.ss01" horiz-adv-x="481" 
d="M142 -10q-54 0 -87.5 30t-33.5 78q0 43 25.5 67.5t65 37.5t82.5 22q43 10 65 17t29.5 15.5t7.5 22.5q0 26 -21.5 41.5t-50.5 15.5q-20 0 -40 -8t-32.5 -25.5t-10.5 -47.5h-96q2 57 28.5 91t67 49.5t84.5 15.5t83.5 -14.5t64.5 -46.5t25 -83v-148q0 -34 14 -48t43 1l2 -58
q-1 1 -19.5 -12t-57.5 -13q-39 1 -56.5 17.5t-22.5 38.5t-5 39v34q-18 -57 -55.5 -93t-98.5 -36zM183 64q28 2 54 24.5t42 58t16 75.5q-8 -8 -29.5 -14.5t-40.5 -11.5q-40 -12 -71 -31t-30 -56q2 -25 19.5 -35.5t39.5 -9.5zM222 -175q-31 0 -42 16t-11 38q0 20 11 35.5
t42 15.5q32 0 42 -15.5t10 -35.5q0 -22 -10 -38t-42 -16z" />
    <glyph glyph-name="agrave.ss01" horiz-adv-x="481" 
d="M142 -10q-54 0 -87.5 30t-33.5 78q0 43 25.5 67.5t65 37.5t82.5 22q43 10 65 17t29.5 15.5t7.5 22.5q0 26 -21.5 41.5t-50.5 15.5q-20 0 -40 -8t-32.5 -25.5t-10.5 -47.5h-96q2 57 28.5 91t67 49.5t84.5 15.5t83.5 -14.5t64.5 -46.5t25 -83v-148q0 -34 14 -48t43 1l2 -58
q-1 1 -19.5 -12t-57.5 -13q-39 1 -56.5 17.5t-22.5 38.5t-5 39v34q-18 -57 -55.5 -93t-98.5 -36zM183 64q28 2 54 24.5t42 58t16 75.5q-8 -8 -29.5 -14.5t-40.5 -11.5q-40 -12 -71 -31t-30 -56q2 -25 19.5 -35.5t39.5 -9.5zM187 465l-85 95v18h86l45 -100v-13h-46z" />
    <glyph glyph-name="uni1EA3.ss01" horiz-adv-x="481" 
d="M142 -10q-54 0 -87.5 30t-33.5 78q0 43 25.5 67.5t65 37.5t82.5 22q43 10 65 17t29.5 15.5t7.5 22.5q0 26 -21.5 41.5t-50.5 15.5q-20 0 -40 -8t-32.5 -25.5t-10.5 -47.5h-96q2 57 28.5 91t67 49.5t84.5 15.5t83.5 -14.5t64.5 -46.5t25 -83v-148q0 -34 14 -48t43 1l2 -58
q-1 1 -19.5 -12t-57.5 -13q-39 1 -56.5 17.5t-22.5 38.5t-5 39v34q-18 -57 -55.5 -93t-98.5 -36zM183 64q28 2 54 24.5t42 58t16 75.5q-8 -8 -29.5 -14.5t-40.5 -11.5q-40 -12 -71 -31t-30 -56q2 -25 19.5 -35.5t39.5 -9.5zM199 469v15q6 13 21.5 22.5t29 20t13.5 28.5
q0 16 -15 21.5t-33 0t-25 -24.5l-42 27q7 27 27 42.5t45.5 20t49.5 -2.5t39.5 -25.5t15.5 -47.5q0 -30 -13 -45.5t-27.5 -26.5t-19.5 -25h-66z" />
    <glyph glyph-name="amacron.ss01" horiz-adv-x="481" 
d="M142 -10q-54 0 -87.5 30t-33.5 78q0 43 25.5 67.5t65 37.5t82.5 22q43 10 65 17t29.5 15.5t7.5 22.5q0 26 -21.5 41.5t-50.5 15.5q-20 0 -40 -8t-32.5 -25.5t-10.5 -47.5h-96q2 57 28.5 91t67 49.5t84.5 15.5t83.5 -14.5t64.5 -46.5t25 -83v-148q0 -34 14 -48t43 1l2 -58
q-1 1 -19.5 -12t-57.5 -13q-39 1 -56.5 17.5t-22.5 38.5t-5 39v34q-18 -57 -55.5 -93t-98.5 -36zM183 64q28 2 54 24.5t42 58t16 75.5q-8 -8 -29.5 -14.5t-40.5 -11.5q-40 -12 -71 -31t-30 -56q2 -25 19.5 -35.5t39.5 -9.5zM88 474v71h275v-71h-275z" />
    <glyph glyph-name="aogonek.ss01" horiz-adv-x="491" 
d="M144 -10q-56 0 -89.5 29.5t-33.5 76.5q0 45 25.5 69.5t65 37.5t82.5 22q43 10 65 17t29.5 15.5t7.5 22.5q0 26 -21.5 41.5t-50.5 15.5q-20 0 -40 -8t-32.5 -25.5t-10.5 -47.5h-96q2 57 28.5 91t67 49.5t84.5 15.5t83.5 -14.5t64.5 -46.5t25 -83v-148q0 -34 14 -48t43 1
l2 -58v0l1 -28l-12 -5.5t-28 -16t-28.5 -25.5t-12.5 -34q0 -32 34 -32q15 0 24.5 7.5t14.5 14.5l5 7l54 -48l-11 -13.5t-35 -27t-60 -13.5q-37 0 -68.5 21t-31.5 67q0 34 20 59t45 43q-33 3 -48.5 19.5t-19.5 37.5t-4 37v34q-18 -57 -55.5 -93t-96.5 -36zM183 64
q30 2 56 24.5t41.5 58t15.5 76.5q-8 -8 -30 -15t-41 -12q-27 -8 -51 -19t-38 -27.5t-12 -40.5q2 -25 20 -35.5t39 -9.5z" />
    <glyph glyph-name="aring.ss01" horiz-adv-x="481" 
d="M142 -10q-54 0 -87.5 30t-33.5 78q0 43 25.5 67.5t65 37.5t82.5 22q43 10 65 17t29.5 15.5t7.5 22.5q0 26 -21.5 41.5t-50.5 15.5q-20 0 -40 -8t-32.5 -25.5t-10.5 -47.5h-96q2 57 28.5 91t67 49.5t84.5 15.5t83.5 -14.5t64.5 -46.5t25 -83v-148q0 -34 14 -48t43 1l2 -58
q-1 1 -19.5 -12t-57.5 -13q-39 1 -56.5 17.5t-22.5 38.5t-5 39v34q-18 -57 -55.5 -93t-98.5 -36zM183 64q28 2 54 24.5t42 58t16 75.5q-8 -8 -29.5 -14.5t-40.5 -11.5q-40 -12 -71 -31t-30 -56q2 -25 19.5 -35.5t39.5 -9.5zM225 457q-50 0 -74.5 26.5t-24.5 70.5
q0 46 24.5 73.5t74.5 27.5t76 -27.5t26 -73.5q0 -42 -26 -69.5t-76 -27.5zM224 516q21 0 31 11.5t10 29.5q0 17 -10 29t-31 12q-20 0 -30.5 -12.5t-10.5 -28.5q0 -18 11 -29.5t30 -11.5z" />
    <glyph glyph-name="atilde.ss01" horiz-adv-x="481" 
d="M142 -10q-54 0 -87.5 30t-33.5 78q0 43 25.5 67.5t65 37.5t82.5 22q43 10 65 17t29.5 15.5t7.5 22.5q0 26 -21.5 41.5t-50.5 15.5q-20 0 -40 -8t-32.5 -25.5t-10.5 -47.5h-96q2 57 28.5 91t67 49.5t84.5 15.5t83.5 -14.5t64.5 -46.5t25 -83v-148q0 -34 14 -48t43 1l2 -58
q-1 1 -19.5 -12t-57.5 -13q-39 1 -56.5 17.5t-22.5 38.5t-5 39v34q-18 -57 -55.5 -93t-98.5 -36zM183 64q28 2 54 24.5t42 58t16 75.5q-8 -8 -29.5 -14.5t-40.5 -11.5q-40 -12 -71 -31t-30 -56q2 -25 19.5 -35.5t39.5 -9.5zM282 471q-26 0 -41 8.5t-24.5 19.5t-18 19.5
t-22.5 8.5q-16 0 -19.5 -13.5t-2.5 -39.5h-61q0 14 1 32.5t7.5 37t22.5 31t46 12.5q25 0 40.5 -8.5t25 -20t18.5 -20t22 -8.5q16 0 19 14.5t3 39.5h60q1 -24 -3 -50t-20.5 -44.5t-52.5 -18.5z" />
    <glyph glyph-name="f.ss01" horiz-adv-x="342" 
d="M299 264h-92l-1 -264h-101l1 264h-78v79h101q-42 7 -76 33t-34 76q0 32 21 57t55.5 39.5t76.5 14.5q55 0 93 -21.5t58.5 -55t23.5 -67.5h-99q0 9 -6.5 23t-23 24.5t-46.5 10.5q-33 0 -48.5 -18t-15.5 -34q0 -21 11.5 -38.5t42.5 -29.5t88 -14h49v-79z" />
    <glyph glyph-name="g.ss01" horiz-adv-x="468" 
d="M139 87q0 -18 14.5 -24.5t35 -7t38.5 -0.5q36 0 73.5 -4.5t69.5 -17.5t51.5 -38t19.5 -68q0 -44 -28.5 -71.5t-77.5 -40.5t-109 -13q-100 -1 -156 28t-55 91q1 40 29 71t83 31q-28 1 -47.5 16t-19.5 38q0 20 15 32t37.5 17.5t44.5 5.5q-59 9 -86.5 45.5t-27.5 79.5
q0 71 49.5 113.5t136.5 42.5q26 0 50 -0.5t39 4.5t15 21q0 18 -23 23.5t-56 -8.5l-14 68q35 12 68 6.5t55 -23.5t22 -47q0 -26 -15.5 -39t-31.5 -18t-19 -6q42 -13 69.5 -51t27.5 -86q0 -57 -46 -98t-143 -41h-36.5t-36 -6t-15.5 -25zM147 261q0 -82 82 -82q42 0 60.5 22
t18.5 60q0 37 -18 61.5t-62 24.5q-47 0 -64 -25t-17 -61zM227 -121q47 0 80.5 12t33.5 49q0 31 -32 44.5t-82 13.5q-47 0 -79.5 -12t-32.5 -46q0 -26 16 -39t41.5 -17.5t54.5 -4.5z" />
    <glyph glyph-name="gbreve.ss01" horiz-adv-x="468" 
d="M139 87q0 -18 14.5 -24.5t35 -7t38.5 -0.5q36 0 73.5 -4.5t69.5 -17.5t51.5 -38t19.5 -68q0 -44 -28.5 -71.5t-77.5 -40.5t-109 -13q-100 -1 -156 28t-55 91q1 40 29 71t83 31q-28 1 -47.5 16t-19.5 38q0 20 15 32t37.5 17.5t44.5 5.5q-59 9 -86.5 45.5t-27.5 79.5
q0 71 49.5 113.5t136.5 42.5q26 0 50 -0.5t39 4.5t15 21q0 18 -23 23.5t-56 -8.5l-14 68q35 12 68 6.5t55 -23.5t22 -47q0 -26 -15.5 -39t-31.5 -18t-19 -6q42 -13 69.5 -51t27.5 -86q0 -57 -46 -98t-143 -41h-36.5t-36 -6t-15.5 -25zM147 261q0 -82 82 -82q42 0 60.5 22
t18.5 60q0 37 -18 61.5t-62 24.5q-47 0 -64 -25t-17 -61zM227 -121q47 0 80.5 12t33.5 49q0 31 -32 44.5t-82 13.5q-47 0 -79.5 -12t-32.5 -46q0 -26 16 -39t41.5 -17.5t54.5 -4.5zM230 591q-62 0 -97 28.5t-35 76.5h72q0 -28 17 -38t43 -10q25 0 42 9.5t17 38.5h72
q0 -48 -34 -76.5t-97 -28.5z" />
    <glyph glyph-name="uni0123.ss01" horiz-adv-x="469" 
d="M188 588l31 160h96l-67 -160h-60zM139 87q0 -18 14.5 -24.5t35 -7t38.5 -0.5q36 0 73.5 -4.5t69.5 -17.5t51.5 -38t19.5 -68q0 -44 -28.5 -71.5t-77.5 -40.5t-109 -13q-100 -1 -156 28t-55 91q1 40 29 71t83 31q-28 1 -47.5 16t-19.5 38q0 20 15 32t37.5 17.5t44.5 5.5
q-59 9 -86.5 45.5t-27.5 79.5q0 71 49.5 113.5t136.5 42.5q26 0 50 -0.5t39 4.5t15 21q0 18 -23 23.5t-56 -8.5l-14 68q35 12 68 6.5t55 -23.5t22 -47q0 -26 -15.5 -39t-31.5 -18t-19 -6q42 -13 69.5 -51t27.5 -86q0 -57 -46 -98t-143 -41h-36.5t-36 -6t-15.5 -25zM147 261
q0 -82 82 -82q42 0 60.5 22t18.5 60q0 37 -18 61.5t-62 24.5q-47 0 -64 -25t-17 -61zM227 -121q47 0 80.5 12t33.5 49q0 31 -32 44.5t-82 13.5q-47 0 -79.5 -12t-32.5 -46q0 -26 16 -39t41.5 -17.5t54.5 -4.5z" />
    <glyph glyph-name="gdotaccent.ss01" horiz-adv-x="468" 
d="M139 87q0 -18 14.5 -24.5t35 -7t38.5 -0.5q36 0 73.5 -4.5t69.5 -17.5t51.5 -38t19.5 -68q0 -44 -28.5 -71.5t-77.5 -40.5t-109 -13q-100 -1 -156 28t-55 91q1 40 29 71t83 31q-28 1 -47.5 16t-19.5 38q0 20 15 32t37.5 17.5t44.5 5.5q-59 9 -86.5 45.5t-27.5 79.5
q0 71 49.5 113.5t136.5 42.5q26 0 50 -0.5t39 4.5t15 21q0 18 -23 23.5t-56 -8.5l-14 68q35 12 68 6.5t55 -23.5t22 -47q0 -26 -15.5 -39t-31.5 -18t-19 -6q42 -13 69.5 -51t27.5 -86q0 -57 -46 -98t-143 -41h-36.5t-36 -6t-15.5 -25zM147 261q0 -82 82 -82q42 0 60.5 22
t18.5 60q0 37 -18 61.5t-62 24.5q-47 0 -64 -25t-17 -61zM227 -121q47 0 80.5 12t33.5 49q0 31 -32 44.5t-82 13.5q-47 0 -79.5 -12t-32.5 -46q0 -26 16 -39t41.5 -17.5t54.5 -4.5zM226 595q-37 0 -49.5 18.5t-12.5 43.5q0 23 12.5 41.5t49.5 18.5t48.5 -18.5t11.5 -41.5
q0 -25 -11.5 -43.5t-48.5 -18.5z" />
    <glyph glyph-name="lcaron.ss01" horiz-adv-x="277" 
d="M197 406l30 161h97l-68 -161h-59zM48 0v563h100v-563h-100z" />
    <glyph glyph-name="x.ss01" horiz-adv-x="374" 
d="M56 183l80 80l-81 81l50 51l82 -81l81 81l50 -51l-81 -81l81 -80l-51 -51l-80 80l-80 -80z" />
    <glyph glyph-name="N_o.dlig" horiz-adv-x="902" 
d="M724 332q-58 0 -86.5 32.5t-28.5 83.5q-1 50 28 83.5t87 33.5q57 0 86 -32t29 -85q0 -49 -28 -82.5t-87 -33.5zM443 563h106v-563h-194l-193 518h-2v-518h-105v563h180l206 -518h2v518zM724 394q25 0 35.5 16.5t10.5 38.5q0 20 -10.5 37.5t-35.5 17.5q-26 0 -36.5 -17.5
t-10.5 -37.5q0 -22 10.5 -38.5t36.5 -16.5zM607 202v71h233v-71h-233z" />
    <glyph glyph-name="f_f.dlig" horiz-adv-x="561" 
d="M73 -1v340h-56v72h56v67q0 54 24.5 78t73.5 24h108v-79h-104v-90h170v67q0 54 25 78t73 24h109v-79h-105v-90h101v-72h-101v-340h-102v340h-170v-340h-102z" />
    <glyph glyph-name="f_i.dlig" horiz-adv-x="484" 
d="M73 -1v340h-56v72h56v67q0 54 24.5 78t73.5 24h108v-79h-104v-90h260v-411h-102v339h-158v-340h-102z" />
    <glyph glyph-name="f_t.dlig" horiz-adv-x="568" 
d="M73 -1v340h-56v72h56v67q0 54 24.5 78t73.5 24h108v-79h-104v-90h100q29 0 45 6t23 28t7 71h82v-105h94v-72h-94v-259h96v-80h-93q-49 0 -73.5 24t-24.5 78v237h-162v-340h-102z" />
    <glyph glyph-name="t_t.dlig" horiz-adv-x="579" 
d="M172 0q-49 0 -73.5 24t-24.5 78v237h-62v72q29 0 45 6t23 28t7 71h82v-105h117q29 0 45 6t23 28t7 71h82v-105h94v-72h-94v-259h96v-80h-93q-49 0 -73.5 24t-24.5 78v237h-179v-259h96v-80h-93z" />
    <glyph glyph-name="ordfeminine" unicode="&#xaa;" horiz-adv-x="314" 
d="M129 404q-56 0 -79.5 38t-23.5 100t24 100.5t79 38.5q32 0 50.5 -11t27 -24t11.5 -19l1 53h71v-269h-60l-11 43h-1q-3 -6 -12 -18t-27.5 -22t-49.5 -10zM157 463q37 0 49 22t12 56q0 35 -12.5 57t-48.5 22q-38 0 -51 -23.5t-13 -55.5t13.5 -55t50.5 -23z" />
    <glyph glyph-name="ordmasculine" unicode="&#xba;" horiz-adv-x="315" 
d="M158 411q-72 0 -107.5 41t-35.5 105q0 62 35.5 102.5t107.5 41.5q69 0 105.5 -40t36.5 -104q0 -63 -34.5 -104.5t-107.5 -41.5zM158 470q30 0 46 13.5t22 33.5t6 41t-6 41.5t-22 34t-46 13.5q-31 0 -47.5 -13.5t-22 -34t-5.5 -41.5t5.5 -41t22 -33.5t47.5 -13.5z" />
    <glyph glyph-name="zero" unicode="0" horiz-adv-x="545" 
d="M272 -14q-124 0 -184 79.5t-60 214.5q0 89 25.5 154.5t79.5 102t139 36.5q126 0 185 -79.5t59 -213.5q0 -87 -26 -153.5t-80 -103.5t-138 -37zM272 71q77 0 113 53.5t36 155.5t-35.5 155t-113.5 53q-76 0 -112.5 -51t-36.5 -157q0 -102 35.5 -155.5t113.5 -53.5z" />
    <glyph glyph-name="one" unicode="1" horiz-adv-x="377" 
d="M335 88v-88h-269v88h92v352q-8 -36 -26 -55.5t-38 -27.5t-36 -9.5t-21 -1.5v111q6 -1 26 0.5t43.5 11.5t41.5 32t20 62h90v-475h77z" />
    <glyph glyph-name="two" unicode="2" horiz-adv-x="519" 
d="M42 0v85l25.5 13.5t64.5 37t82 54t79 66t55 73.5q23 46 14.5 81t-37.5 54.5t-69 19.5q-54 0 -86 -36t-22 -111l-95 13q-7 69 19.5 118t77.5 75.5t117 26.5q54 0 97 -20t69.5 -55t30.5 -80t-21 -96q-19 -38 -52.5 -72.5t-72 -62.5t-75 -48.5t-63.5 -33t-36 -14.5h330v-88
h-432z" />
    <glyph glyph-name="three" unicode="3" horiz-adv-x="516" 
d="M267 -10q-67 0 -120 23t-83.5 69.5t-30.5 115.5l98 14q2 -65 40.5 -99.5t97.5 -34.5q51 0 84.5 27.5t33.5 69.5q0 33 -17 51.5t-42.5 27t-50.5 8.5h-67v53h69q41 0 70.5 17t29.5 56q0 46 -32 73t-86 27q-43 0 -70 -18t-40.5 -44t-14.5 -50l-91 15q0 16 10 45.5t33.5 61
t65 53.5t104.5 22q101 0 157 -43.5t56 -117.5q0 -49 -27.5 -84t-80.5 -42q53 -7 86 -43.5t33 -89.5q0 -51 -27.5 -87.5t-76.5 -56t-111 -19.5z" />
    <glyph glyph-name="four" unicode="4" horiz-adv-x="524" 
d="M30 110v88q51 22 91.5 63.5t69 93.5t43.5 106t15 102h110q0 -64 -27.5 -132t-78.5 -128.5t-120 -104.5h183v83h101v-83h71v-88h-71v-110h-101v110h-286z" />
    <glyph glyph-name="five" unicode="5" horiz-adv-x="524" 
d="M261 -10q-67 0 -113 23t-72 59.5t-34 78.5l101 14q1 -7 7.5 -21.5t20 -30t36 -26.5t57.5 -11q56 0 86 33t33 74q3 29 -9 57t-39 46t-68 18q-38 0 -60.5 -13.5t-32.5 -27.5t-11 -15l-105 18l31 297h368v-88h-297l-19 -178l8.5 11.5t27 26.5t48 26.5t71.5 11.5
q67 0 110 -28t62.5 -72t15.5 -92t-31 -91.5t-76 -71.5t-116 -28z" />
    <glyph glyph-name="six" unicode="6" horiz-adv-x="546" 
d="M280 -10q-81 0 -133.5 38t-78 102.5t-25.5 141.5q0 58 16.5 112t48 96.5t79 67.5t109.5 25q61 0 99 -18.5t58.5 -42.5t28.5 -42.5l8 -18.5l-101 -19l-8.5 13t-30 26t-60.5 13q-38 0 -75 -26t-58.5 -80.5t-12.5 -140.5q1 10 10.5 31t30 42.5t53.5 36.5t80 14q66 0 108 -27
t61 -69.5t15.5 -89.5t-30 -89.5t-74.5 -69t-118 -26.5zM286 75q47 0 76 22t40 54.5t3 66t-35.5 56.5t-73.5 25q-43 1 -74 -18.5t-47.5 -50t-16.5 -64.5q10 -46 47 -68.5t81 -22.5z" />
    <glyph glyph-name="seven" unicode="7" horiz-adv-x="513" 
d="M213 0h-102q0 115 35 207.5t95 160t136 106.5h-333v89h428v-87q-24 -13 -57.5 -36.5t-68.5 -60t-65.5 -89t-49 -124.5t-18.5 -166z" />
    <glyph glyph-name="eight" unicode="8" horiz-adv-x="560" 
d="M278 -11q-68 0 -122 19t-85 56t-31 90q0 55 38 95t103 49q-46 8 -69.5 31t-31.5 49t-8 44q0 45 26 79t72.5 53t107.5 19q95 0 151 -42.5t56 -108.5q0 -18 -7.5 -44t-30.5 -49t-71 -31q67 -10 105 -48.5t38 -95.5q0 -54 -32 -91t-86.5 -55.5t-122.5 -18.5zM278 322
q54 0 85.5 20.5t31.5 59.5q0 46 -32.5 69t-84.5 23t-83.5 -23t-31.5 -69q0 -40 32.5 -60t82.5 -20zM279 69q64 0 102 28t38 74q0 52 -38 77t-102 25q-65 0 -102.5 -25t-37.5 -77q0 -46 37.5 -74t102.5 -28z" />
    <glyph glyph-name="nine" unicode="9" horiz-adv-x="547" 
d="M261 -10q-53 0 -90 13t-61 31.5t-37 37.5t-18.5 32l-5.5 13l100 22l10 -14.5t34 -29t68 -14.5q40 0 72.5 24t50.5 76.5t15 139.5q-1 -10 -11 -30t-30.5 -41t-51.5 -35.5t-76 -14.5q-66 0 -109.5 26.5t-63.5 68.5t-17 89.5t28.5 89.5t74 69t119.5 27q88 0 141 -41
t76 -107.5t21 -143.5q-2 -78 -26 -143.5t-75.5 -105t-137.5 -39.5zM253 261q59 0 94 36t39 90q-12 52 -46 76t-78 24q-48 0 -77 -22.5t-39.5 -56t-2.5 -67t35.5 -56.5t74.5 -24z" />
    <glyph glyph-name="zero.subs" horiz-adv-x="264" 
d="M132 -139q-59 0 -88 37.5t-29 101.5q0 62 28 100t89 38q60 0 88.5 -37.5t28.5 -100.5q0 -61 -28.5 -100t-88.5 -39zM131 -95q69 0 69 95q0 47 -16.5 70.5t-52.5 23.5q-67 0 -67 -94q0 -47 16 -71t51 -24z" />
    <glyph glyph-name="one.subs" horiz-adv-x="181" 
d="M29 -139v48h46v176q-5 -24 -18 -36.5t-25.5 -17t-16.5 -4.5v60q4 -1 19.5 1t30 13t15.5 37h49v-229h37v-48h-137z" />
    <glyph glyph-name="two.subs" horiz-adv-x="243" 
d="M15 -139v45l18.5 9.5t44 25t49.5 36t35 43.5q16 32 1 52t-43 20q-25 0 -40 -17.5t-9 -53.5l-51 6q-6 53 25.5 82t80.5 29q35 0 61 -17t34.5 -45t-8.5 -61q-12 -24 -33.5 -43t-44.5 -33t-41.5 -22t-24.5 -9h159v-47h-213z" />
    <glyph glyph-name="three.subs" horiz-adv-x="246" 
d="M128 -149q-49 0 -81 25t-32 75l51 8q1 -29 18 -45.5t45 -16.5q23 0 38 12.5t15 31.5q0 21 -16.5 29t-35.5 8h-29v28h31q18 0 32.5 7.5t14.5 25.5q0 20 -15 32.5t-39 12.5q-28 0 -42 -17t-14 -35l-48 8q0 10 9 31t31 39t63 18q48 0 75 -20.5t27 -55.5q0 -23 -13 -40
t-39 -21q26 -3 41.5 -20.5t15.5 -41.5q0 -37 -29 -57.5t-74 -20.5z" />
    <glyph glyph-name="four.subs" horiz-adv-x="257" 
d="M15 -86v47q34 15 58 45.5t36 66t12 65.5h60q0 -46 -29.5 -95t-81.5 -82h84v38h55v-38h33v-47h-33v-53h-55v53h-139z" />
    <glyph glyph-name="five.subs" horiz-adv-x="246" 
d="M122 -149q-51 0 -76.5 25t-30.5 54l54 8q1 -5 6 -15t17 -18.5t32 -8.5q25 0 38.5 15.5t15.5 33.5q1 20 -12.5 37.5t-40.5 17.5q-25 0 -35.5 -12.5t-10.5 -13.5l-56 10l14 144h181v-47h-143l-9 -82l7.5 9.5t23.5 18.5t43 9q49 0 71.5 -28.5t19.5 -63.5t-31.5 -64
t-77.5 -29z" />
    <glyph glyph-name="six.subs" horiz-adv-x="251" 
d="M129 -149q-58 0 -86 39.5t-28 95.5q0 37 14 69.5t40.5 52.5t66.5 20q30 0 48.5 -9t28.5 -21.5t13.5 -21.5l3.5 -9l-53 -10l-8.5 12.5t-35.5 12.5q-15 0 -32 -10.5t-27.5 -35t-6.5 -65.5q1 5 8.5 19t25 26t46.5 11q38 -1 59.5 -18.5t27.5 -43.5t-4 -52.5t-35.5 -44
t-65.5 -17.5zM132 -105q27 0 40.5 15t14 34t-12 34.5t-38.5 16.5q-28 0 -45 -18t-17 -42q5 -20 22 -30t36 -10z" />
    <glyph glyph-name="seven.subs" horiz-adv-x="244" 
d="M101 -139h-55q0 85 38.5 144t93.5 85h-163v48h214v-47q-15 -8 -36.5 -23t-42.5 -41.5t-35 -67t-14 -98.5z" />
    <glyph glyph-name="eight.subs" horiz-adv-x="260" 
d="M129 -150q-48 0 -81 20.5t-33 58.5q0 26 18 45t50 23q-23 4 -34 15t-15 23.5t-4 19.5q0 33 27.5 52.5t71.5 19.5q46 0 73 -20t27 -52q0 -7 -3.5 -19.5t-14.5 -23.5t-35 -15q33 -5 51 -23t18 -45q0 -39 -33 -59t-83 -20zM129 10q25 0 39 9t14 27q0 20 -14.5 30t-38.5 10
q-23 0 -37 -10t-14 -30q0 -18 14.5 -27t36.5 -9zM130 -109q29 0 46 13t17 33q0 24 -17 35.5t-46 11.5t-46 -11.5t-17 -35.5q0 -20 17 -33t46 -13z" />
    <glyph glyph-name="nine.subs" horiz-adv-x="253" 
d="M122 -149q-32 0 -52.5 9.5t-31 22t-15 22l-4.5 9.5l53 11l4.5 -6.5t15 -13.5t30.5 -7q24 0 44.5 23t18.5 86q-1 -5 -9 -18.5t-25 -25t-45 -11.5q-39 0 -61 17.5t-28 44t4 52.5t35.5 44t65.5 18q43 0 68.5 -19.5t36.5 -51t10 -67.5q0 -38 -11.5 -69.5t-36.5 -50.5t-67 -19
zM118 -17q27 0 42.5 16.5t17.5 41.5q-5 23 -20.5 33.5t-35.5 10.5q-26 0 -40 -15t-14.5 -35t12 -35.5t38.5 -16.5z" />
    <glyph glyph-name="zero.dnom" horiz-adv-x="264" 
d="M132 -14q-59 0 -88 37.5t-29 101.5q0 62 28 100t89 38q60 0 88.5 -37.5t28.5 -100.5q0 -61 -28.5 -100t-88.5 -39zM131 30q69 0 69 95q0 47 -16.5 70.5t-52.5 23.5q-67 0 -67 -94q0 -47 16 -71t51 -24z" />
    <glyph glyph-name="one.dnom" horiz-adv-x="181" 
d="M29 0v48h46v176q-5 -24 -18 -36.5t-25.5 -17t-16.5 -4.5v60q4 -1 19.5 1t30 13t15.5 37h49v-229h37v-48h-137z" />
    <glyph glyph-name="two.dnom" horiz-adv-x="243" 
d="M15 0v45l18.5 9.5t44 25t49.5 36t35 43.5q16 32 1 52t-43 20q-25 0 -40 -17.5t-9 -53.5l-51 6q-6 53 25.5 82t80.5 29q35 0 60.5 -17t34.5 -45t-8 -61q-12 -24 -33.5 -43t-44.5 -33t-41.5 -22t-24.5 -9h159v-47h-213z" />
    <glyph glyph-name="three.dnom" horiz-adv-x="246" 
d="M128 -10q-50 0 -81.5 25t-31.5 75l51 8q1 -29 18 -45.5t45 -16.5q23 0 38 12.5t15 31.5q0 21 -16.5 29t-35.5 8h-29v28h31q18 0 32.5 7.5t14.5 25.5q0 20 -15 32.5t-39 12.5q-28 0 -42 -17t-14 -35l-48 8q0 10 9 31t31 39t63 18q48 0 75 -20.5t27 -55.5q0 -23 -13 -40.5
t-39 -20.5q26 -3 41.5 -20.5t15.5 -41.5q0 -37 -29 -57.5t-74 -20.5z" />
    <glyph glyph-name="four.dnom" horiz-adv-x="257" 
d="M15 53v47q34 15 58 45.5t36 66t12 65.5h60q0 -46 -29.5 -95t-81.5 -82h84v38h55v-38h33v-47h-33v-53h-55v53h-139z" />
    <glyph glyph-name="five.dnom" horiz-adv-x="246" 
d="M122 -10q-51 0 -76.5 25t-30.5 54l54 8q1 -5 6 -15t17 -18.5t32 -8.5q25 0 38.5 15.5t15.5 33.5q1 20 -12.5 37.5t-40.5 17.5q-25 0 -35.5 -12.5t-10.5 -13.5l-56 10l14 144h181v-47h-143l-9 -82l7.5 9.5t23.5 18.5t43 9q49 0 71.5 -28.5t19.5 -63.5t-31.5 -64t-77.5 -29
z" />
    <glyph glyph-name="six.dnom" horiz-adv-x="251" 
d="M129 -10q-58 0 -86 39.5t-28 95.5q0 37 14 69.5t40.5 52.5t66.5 20q30 0 48.5 -9t28.5 -21.5t13.5 -21.5l3.5 -9l-53 -10l-8.5 12.5t-35.5 12.5q-15 0 -32 -10.5t-27.5 -35t-6.5 -65.5q1 5 8.5 19t25 25.5t46.5 11.5q38 -1 59.5 -18.5t27.5 -43.5t-4 -52.5t-35.5 -44
t-65.5 -17.5zM132 34q27 0 40.5 15t14 34t-12 34.5t-38.5 16.5q-28 0 -45 -18t-17 -42q5 -20 22 -30t36 -10z" />
    <glyph glyph-name="seven.dnom" horiz-adv-x="244" 
d="M101 0h-55q0 85 38.5 144t93.5 85h-163v48h214v-47q-15 -8 -36.5 -23t-42.5 -41.5t-35 -67t-14 -98.5z" />
    <glyph glyph-name="eight.dnom" horiz-adv-x="260" 
d="M129 -11q-48 0 -81 20.5t-33 58.5q0 26 18 45t50 23q-23 4 -34 15t-15 23.5t-4 19.5q0 33 27.5 52.5t71.5 19.5q46 0 73 -20t27 -52q0 -7 -3.5 -19.5t-14.5 -23.5t-35 -15q33 -5 51 -23t18 -45q0 -39 -33 -59t-83 -20zM129 149q25 0 39 9t14 27q0 20 -14.5 30t-38.5 10
q-23 0 -37 -10t-14 -30q0 -18 14.5 -27t36.5 -9zM130 30q29 0 46 13t17 33q0 24 -17 35.5t-46 11.5t-46 -11.5t-17 -35.5q0 -20 17 -33t46 -13z" />
    <glyph glyph-name="nine.dnom" horiz-adv-x="253" 
d="M122 -10q-32 0 -52.5 9.5t-31 22t-15 22l-4.5 9.5l53 11l4.5 -6.5t15 -13.5t30.5 -7q24 0 44.5 23t18.5 86q-1 -5 -9 -18.5t-25 -25t-45 -11.5q-39 0 -61 17.5t-28 44t4 52.5t35.5 44t65.5 18q43 0 68.5 -19.5t36.5 -51t10 -67.5q0 -38 -11.5 -69.5t-36.5 -50.5t-67 -19z
M118 122q27 0 42.5 16.5t17.5 41.5q-5 23 -20.5 33.5t-35.5 10.5q-26 0 -40 -15t-14.5 -35t12 -35.5t38.5 -16.5z" />
    <glyph glyph-name="zero.numr" horiz-adv-x="264" 
d="M132 -14q-59 0 -88 37.5t-29 101.5q0 62 28 100t89 38q60 0 88.5 -37.5t28.5 -100.5q0 -61 -28.5 -100t-88.5 -39zM131 30q69 0 69 95q0 47 -16.5 70.5t-52.5 23.5q-67 0 -67 -94q0 -47 16 -71t51 -24z" />
    <glyph glyph-name="one.numr" horiz-adv-x="181" 
d="M29 0v48h46v176q-5 -24 -18 -36.5t-25.5 -17t-16.5 -4.5v60q4 -1 19.5 1t30 13t15.5 37h49v-229h37v-48h-137z" />
    <glyph glyph-name="two.numr" horiz-adv-x="243" 
d="M15 0v45l18.5 9.5t44 25t49.5 36t35 43.5q16 32 1 52t-43 20q-25 0 -40 -17.5t-9 -53.5l-51 6q-6 53 25.5 82t80.5 29q35 0 61 -17t34.5 -45t-8.5 -61q-12 -24 -33.5 -43t-44.5 -33t-41.5 -22t-24.5 -9h159v-47h-213z" />
    <glyph glyph-name="three.numr" horiz-adv-x="246" 
d="M128 -10q-49 0 -81 25t-32 75l51 8q1 -29 18 -45.5t45 -16.5q23 0 38 12.5t15 31.5q0 21 -16.5 29t-35.5 8h-29v28h31q18 0 32.5 7.5t14.5 25.5q0 20 -15 32.5t-39 12.5q-28 0 -42 -17t-14 -35l-48 8q0 10 9 31t31 39t63 18q48 0 75 -20.5t27 -55.5q0 -23 -13 -40.5
t-39 -20.5q26 -3 41.5 -20.5t15.5 -41.5q0 -37 -29 -57.5t-74 -20.5z" />
    <glyph glyph-name="four.numr" horiz-adv-x="257" 
d="M15 53v47q34 15 58 45.5t36 66t12 65.5h60q0 -46 -29.5 -95t-81.5 -82h84v38h55v-38h33v-47h-33v-53h-55v53h-139z" />
    <glyph glyph-name="five.numr" horiz-adv-x="246" 
d="M122 -10q-51 0 -76.5 25t-30.5 54l54 8q1 -5 6 -15t17 -18.5t32 -8.5q25 0 38.5 15.5t15.5 33.5q1 20 -12.5 37.5t-40.5 17.5q-25 0 -35.5 -12.5t-10.5 -13.5l-56 10l14 144h181v-47h-143l-9 -82l7.5 9.5t23.5 18.5t43 9q49 0 71.5 -28.5t19.5 -63.5t-31.5 -64t-77.5 -29
z" />
    <glyph glyph-name="six.numr" horiz-adv-x="251" 
d="M129 -10q-58 0 -86 39.5t-28 95.5q0 37 14 69.5t40.5 52.5t66.5 20q30 0 48.5 -9t28.5 -21.5t13.5 -21.5l3.5 -9l-53 -10l-8.5 12.5t-35.5 12.5q-15 0 -32 -10.5t-27.5 -35t-6.5 -65.5q1 5 8.5 19t25 25.5t46.5 11.5q38 -1 59.5 -18.5t27.5 -43.5t-4 -52.5t-35.5 -44
t-65.5 -17.5zM132 34q27 0 40.5 15t14 34t-12 34.5t-38.5 16.5q-28 0 -45 -18t-17 -42q5 -20 22 -30t36 -10z" />
    <glyph glyph-name="seven.numr" horiz-adv-x="244" 
d="M101 0h-55q0 85 38.5 144t93.5 85h-163v48h214v-47q-15 -8 -36.5 -23t-42.5 -41.5t-35 -67t-14 -98.5z" />
    <glyph glyph-name="eight.numr" horiz-adv-x="260" 
d="M129 -11q-48 0 -81 20.5t-33 58.5q0 26 18 45t50 23q-23 4 -34 15t-15 23.5t-4 19.5q0 33 27.5 52.5t71.5 19.5q46 0 73 -20t27 -52q0 -7 -3.5 -19.5t-14.5 -23.5t-35 -15q33 -5 51 -23t18 -45q0 -39 -33 -59t-83 -20zM129 149q25 0 39 9t14 27q0 20 -14.5 30t-38.5 10
q-23 0 -37 -10t-14 -30q0 -18 14.5 -27t36.5 -9zM130 30q29 0 46 13t17 33q0 24 -17 35.5t-46 11.5t-46 -11.5t-17 -35.5q0 -20 17 -33t46 -13z" />
    <glyph glyph-name="nine.numr" horiz-adv-x="253" 
d="M122 -10q-32 0 -52.5 9.5t-31 22t-15 22l-4.5 9.5l53 11l4.5 -6.5t15 -13.5t30.5 -7q24 0 44.5 23t18.5 86q-1 -5 -9 -18.5t-25 -25t-45 -11.5q-39 0 -61 17.5t-28 44t4 52.5t35.5 44t65.5 18q43 0 68.5 -19.5t36.5 -51t10 -67.5q0 -38 -11.5 -69.5t-36.5 -50.5t-67 -19z
M118 122q27 0 42.5 16.5t17.5 41.5q-5 23 -20.5 33.5t-35.5 10.5q-26 0 -40 -15t-14.5 -35t12 -35.5t38.5 -16.5z" />
    <glyph glyph-name="uni00B9" unicode="&#xb9;" horiz-adv-x="181" 
d="M29 410v47h46v177q-5 -25 -18 -37.5t-25.5 -16.5t-16.5 -4v60q4 -1 19.5 1t30 12.5t15.5 37.5h49v-230h37v-47h-137z" />
    <glyph glyph-name="uni00B2" unicode="&#xb2;" horiz-adv-x="243" 
d="M15 411v45l18.5 9t44 25t49.5 36t35 43q16 33 1 53t-43 20q-25 0 -40 -17.5t-9 -54.5l-51 7q-6 53 25.5 82t80.5 29q35 0 61 -17t34.5 -45t-8.5 -61q-12 -24 -33.5 -43.5t-44.5 -33t-41.5 -21.5t-24.5 -10h159v-46h-213z" />
    <glyph glyph-name="uni00B3" unicode="&#xb3;" horiz-adv-x="246" 
d="M128 401q-49 0 -81 25t-32 75l51 8q1 -30 18 -46t45 -16q23 0 38 12.5t15 30.5q0 21 -16.5 29.5t-35.5 8.5h-29v28h31q18 0 32.5 7.5t14.5 24.5q0 21 -15 33t-39 12q-28 0 -42 -17t-14 -34l-48 8q0 10 9 31t31 39t63 18q48 0 75 -21t27 -56q0 -22 -13 -39.5t-39 -20.5
q26 -3 41.5 -20.5t15.5 -42.5q0 -36 -29 -56.5t-74 -20.5z" />
    <glyph glyph-name="uni2074" unicode="&#x2074;" horiz-adv-x="257" 
d="M154 411v53h-139v47q34 15 58 45t36 65.5t12 66.5h60q0 -47 -29.5 -95.5t-81.5 -81.5h84v38h55v-38h33v-47h-33v-53h-55z" />
    <glyph glyph-name="zero.sups" horiz-adv-x="264" 
d="M132 401q-59 0 -88 38t-29 101t28 100.5t89 37.5q60 0 88.5 -37.5t28.5 -100.5q0 -61 -28.5 -100t-88.5 -39zM131 445q69 0 69 95q0 47 -16.5 71t-52.5 24q-67 0 -67 -95q0 -47 16 -71t51 -24z" />
    <glyph glyph-name="one.sups" horiz-adv-x="181" 
d="M29 410v47h46v177q-5 -25 -18 -37.5t-25.5 -16.5t-16.5 -4v60q4 -1 19.5 1t30 12.5t15.5 37.5h49v-230h37v-47h-137z" />
    <glyph glyph-name="two.sups" horiz-adv-x="243" 
d="M15 411v45l18.5 9t44 25t49.5 36t35 43q16 33 1 53t-43 20q-25 0 -40 -17.5t-9 -54.5l-51 7q-6 53 25.5 82t80.5 29q35 0 61 -17t34.5 -45t-8.5 -61q-12 -24 -33.5 -43.5t-44.5 -33t-41.5 -21.5t-24.5 -10h159v-46h-213z" />
    <glyph glyph-name="three.sups" horiz-adv-x="246" 
d="M128 401q-49 0 -81 25t-32 75l51 8q1 -30 18 -46t45 -16q23 0 38 12.5t15 30.5q0 21 -16.5 29.5t-35.5 8.5h-29v28h31q18 0 32.5 7.5t14.5 24.5q0 21 -15 33t-39 12q-28 0 -42 -17t-14 -34l-48 8q0 10 9 31t31 39t63 18q48 0 75 -21t27 -56q0 -22 -13 -39.5t-39 -20.5
q26 -3 41.5 -20.5t15.5 -42.5q0 -36 -29 -56.5t-74 -20.5z" />
    <glyph glyph-name="four.sups" horiz-adv-x="257" 
d="M154 411v53h-139v47q34 15 58 45t36 65.5t12 66.5h60q0 -47 -29.5 -95.5t-81.5 -81.5h84v38h55v-38h33v-47h-33v-53h-55z" />
    <glyph glyph-name="five.sups" horiz-adv-x="246" 
d="M122 401q-51 0 -76.5 25t-30.5 54l54 7q1 -4 6 -14t17 -18.5t32 -8.5q25 0 38.5 15t15.5 34q1 19 -12.5 36.5t-40.5 17.5q-25 0 -35.5 -12t-10.5 -13l-56 9l14 145h181v-47h-143l-9 -82l7.5 9t23.5 18.5t43 9.5q49 0 71.5 -29t19.5 -63q-3 -35 -31.5 -64t-77.5 -29z" />
    <glyph glyph-name="six.sups" horiz-adv-x="251" 
d="M129 401q-58 0 -86 39t-28 96q0 37 14 69t40.5 52.5t66.5 20.5q30 0 48.5 -9.5t28.5 -21.5t13.5 -21l3.5 -9l-53 -10l-8.5 12.5t-35.5 12.5q-15 0 -32 -11t-27.5 -35t-6.5 -65q1 5 8.5 19t25 25.5t46.5 10.5q38 0 59.5 -17.5t27.5 -44t-4 -52.5t-35.5 -43.5t-65.5 -17.5z
M132 445q27 0 40.5 14.5t14 34t-12 34.5t-38.5 16q-28 1 -45 -17t-17 -42q5 -20 22 -30t36 -10z" />
    <glyph glyph-name="seven.sups" horiz-adv-x="244" 
d="M101 411h-55q0 84 38.5 143.5t93.5 84.5h-163v49h214v-48q-15 -7 -36.5 -22.5t-42.5 -42t-35 -67t-14 -97.5z" />
    <glyph glyph-name="eight.sups" horiz-adv-x="260" 
d="M129 400q-48 0 -81 20.5t-33 57.5q0 26 18 45t50 24q-23 3 -34 14t-15 23.5t-4 20.5q0 33 27.5 52.5t71.5 19.5q46 0 73 -20t27 -52q0 -8 -3.5 -20.5t-14.5 -23.5t-35 -14q33 -5 51 -23t18 -46q0 -38 -33 -58t-83 -20zM129 559q25 0 39 9.5t14 26.5q0 21 -14.5 31
t-38.5 10q-23 0 -37 -10t-14 -31q0 -18 14.5 -27t36.5 -9zM130 441q29 0 46 13t17 33q0 24 -17 35.5t-46 11.5t-46 -11.5t-17 -35.5q0 -20 17 -33t46 -13z" />
    <glyph glyph-name="nine.sups" horiz-adv-x="253" 
d="M122 401q-32 0 -52.5 9.5t-31 21.5t-15 21.5t-4.5 10.5l53 11l4.5 -7t15 -13.5t30.5 -6.5q24 0 44.5 23t18.5 85q-1 -4 -9 -17.5t-25 -25.5t-45 -12q-39 0 -61 18t-28 44.5t4 52.5t35.5 44t65.5 18q43 0 68.5 -19.5t36.5 -51t10 -68.5q0 -37 -11.5 -68.5t-36.5 -50.5
t-67 -19zM118 533q27 0 42.5 16.5t17.5 40.5q-5 23 -20.5 34t-35.5 11q-26 0 -40 -15.5t-14.5 -35.5t12 -35t38.5 -16z" />
    <glyph glyph-name="fraction" unicode="&#x2044;" horiz-adv-x="568" 
d="M107 0l-70 50l234 251l191 262l69 -49l-226 -241z" />
    <glyph glyph-name="onehalf" unicode="&#xbd;" horiz-adv-x="741" 
d="M37 291v48h46v176q-5 -24 -18 -36.5t-25.5 -17t-16.5 -4.5v60q4 -1 19.5 1t30 13t15.5 37h49v-229h37v-48h-137zM176 0l-70 50l234 251l191 262l69 -49l-226 -241zM489 0v45l18.5 9.5t44 25t49.5 36t35 43.5q16 32 1 52t-43 20q-25 0 -40 -17.5t-9 -53.5l-51 6
q-6 53 25.5 82t80.5 29q35 0 60.5 -17t34.5 -45t-8 -61q-12 -24 -33.5 -43t-44.5 -33t-41.5 -22t-24.5 -9h159v-47h-213z" />
    <glyph glyph-name="onequarter" unicode="&#xbc;" horiz-adv-x="715" 
d="M37 291v48h46v176q-5 -24 -18 -36.5t-25.5 -17t-16.5 -4.5v60q4 -1 19.5 1t30 13t15.5 37h49v-229h37v-48h-137zM176 0l-70 50l234 251l191 262l69 -49l-226 -241zM450 53v47q34 15 58 45.5t36 66t12 65.5h60q0 -46 -29.5 -95t-81.5 -82h84v38h55v-38h33v-47h-33v-53h-55
v53h-139z" />
    <glyph glyph-name="threequarters" unicode="&#xbe;" horiz-adv-x="715" 
d="M136 296q-49 0 -81 25t-32 75l51 8q1 -29 18 -45.5t45 -16.5q23 0 38 12.5t15 31.5q0 21 -16.5 29t-35.5 8h-29v28h31q18 0 32.5 7.5t14.5 25.5q0 20 -15 32.5t-39 12.5q-28 0 -42 -17t-14 -35l-48 8q0 10 9 31t31 39t63 18q48 0 75 -20.5t27 -55.5q0 -23 -13 -40.5
t-39 -20.5q26 -3 41.5 -20.5t15.5 -41.5q0 -37 -29 -57.5t-74 -20.5zM176 0l-70 50l234 251l191 262l69 -49l-226 -241zM450 53v47q34 15 58 45.5t36 66t12 65.5h60q0 -46 -29.5 -95t-81.5 -82h84v38h55v-38h33v-47h-33v-53h-55v53h-139z" />
    <glyph glyph-name="oneeighth" unicode="&#x215b;" horiz-adv-x="721" 
d="M566 -11q-48 0 -81 20.5t-33 58.5q0 26 18 45t50 23q-23 4 -34 15t-15 23.5t-4 19.5q0 33 27.5 52.5t71.5 19.5q46 0 73 -20t27 -52q0 -7 -3.5 -19.5t-14.5 -23.5t-35 -15q33 -5 51 -23t18 -45q0 -39 -33 -59t-83 -20zM566 149q25 0 39 9t14 27q0 20 -14.5 30t-38.5 10
q-23 0 -37 -10t-14 -30q0 -18 14.5 -27t36.5 -9zM567 30q29 0 46 13t17 33q0 24 -17 35.5t-46 11.5t-46 -11.5t-17 -35.5q0 -20 17 -33t46 -13zM37 291v48h46v176q-5 -24 -18 -36.5t-25.5 -17t-16.5 -4.5v60q4 -1 19.5 1t30 13t15.5 37h49v-229h37v-48h-137zM176 0l-70 50
l234 251l191 262l69 -49l-226 -241z" />
    <glyph glyph-name="threeeighths" unicode="&#x215c;" horiz-adv-x="727" 
d="M136 296q-49 0 -81 25t-32 75l51 8q1 -29 18 -45.5t45 -16.5q23 0 38 12.5t15 31.5q0 21 -16.5 29t-35.5 8h-29v28h31q18 0 32.5 7.5t14.5 25.5q0 20 -15 32.5t-39 12.5q-28 0 -42 -17t-14 -35l-48 8q0 10 9 31t31 39t63 18q48 0 75 -20.5t27 -55.5q0 -23 -13 -40.5
t-39 -20.5q26 -3 41.5 -20.5t15.5 -41.5q0 -37 -29 -57.5t-74 -20.5zM176 0l-70 50l234 251l191 262l69 -49l-226 -241zM572 -11q-48 0 -81 20.5t-33 58.5q0 26 18 45t50 23q-23 4 -34 15t-15 23.5t-4 19.5q0 33 27.5 52.5t71.5 19.5q46 0 73 -20t27 -52q0 -7 -3.5 -19.5
t-14.5 -23.5t-35 -15q33 -5 51 -23t18 -45q0 -39 -33 -59t-83 -20zM572 149q25 0 39 9t14 27q0 20 -14.5 30t-38.5 10q-23 0 -37 -10t-14 -30q0 -18 14.5 -27t36.5 -9zM573 30q29 0 46 13t17 33q0 24 -17 35.5t-46 11.5t-46 -11.5t-17 -35.5q0 -20 17 -33t46 -13z" />
    <glyph glyph-name="fiveeighths" unicode="&#x215d;" horiz-adv-x="751" 
d="M130 286q-51 0 -76.5 25t-30.5 54l54 8q1 -5 6 -15t17 -18.5t32 -8.5q25 0 38.5 15.5t15.5 33.5q1 20 -12.5 37.5t-40.5 17.5q-25 0 -35.5 -12.5t-10.5 -13.5l-56 10l14 144h181v-47h-143l-9 -82l7.5 9.5t23.5 18.5t43 9q49 0 71.5 -28.5t19.5 -63.5t-31.5 -64t-77.5 -29
zM200 0l-70 50l234 251l191 262l69 -49l-226 -241zM596 -11q-48 0 -81 20.5t-33 58.5q0 26 18 45t50 23q-23 4 -34 15t-15 23.5t-4 19.5q0 33 27.5 52.5t71.5 19.5q46 0 73 -20t27 -52q0 -7 -3.5 -19.5t-14.5 -23.5t-35 -15q33 -5 51 -23t18 -45q0 -39 -33 -59t-83 -20z
M596 149q25 0 39 9t14 27q0 20 -14.5 30t-38.5 10q-23 0 -37 -10t-14 -30q0 -18 14.5 -27t36.5 -9zM597 30q29 0 46 13t17 33q0 24 -17 35.5t-46 11.5t-46 -11.5t-17 -35.5q0 -20 17 -33t46 -13z" />
    <glyph glyph-name="seveneighths" unicode="&#x215e;" horiz-adv-x="705" 
d="M109 286h-55q0 85 38.5 144t93.5 85h-163v48h214v-47q-15 -8 -36.5 -23t-42.5 -41.5t-35 -67t-14 -98.5zM154 0l-70 50l234 251l191 262l69 -49l-226 -241zM550 -11q-48 0 -81 20.5t-33 58.5q0 26 18 45t50 23q-23 4 -34 15t-15 23.5t-4 19.5q0 33 27.5 52.5t71.5 19.5
q46 0 73 -20t27 -52q0 -7 -3.5 -19.5t-14.5 -23.5t-35 -15q33 -5 51 -23t18 -45q0 -39 -33 -59t-83 -20zM550 149q25 0 39 9t14 27q0 20 -14.5 30t-38.5 10q-23 0 -37 -10t-14 -30q0 -18 14.5 -27t36.5 -9zM551 30q29 0 46 13t17 33q0 24 -17 35.5t-46 11.5t-46 -11.5
t-17 -35.5q0 -20 17 -33t46 -13z" />
    <glyph glyph-name="period" unicode="." horiz-adv-x="210" 
d="M96 0q-37 0 -49 18t-12 44q0 24 12.5 42t48.5 18q34 0 46.5 -18t12.5 -42q0 -26 -12.5 -44t-46.5 -18z" />
    <glyph glyph-name="comma" unicode="," horiz-adv-x="225" 
d="M55 -102v67h24q26 0 36 8t10 27q-38 -2 -53 14.5t-15 42.5q0 24 13 40.5t45 16.5q26 0 40.5 -15.5t14.5 -62.5q0 -57 -20 -97.5t-70 -40.5h-25z" />
    <glyph glyph-name="colon" unicode=":" horiz-adv-x="230" 
d="M115 259q-35 0 -47.5 17.5t-12.5 43.5q0 25 12.5 42.5t47.5 17.5t47 -18t12 -42q0 -25 -12 -43t-47 -18zM115 32q-36 0 -48 18t-12 43q0 24 12 42t48 18q35 0 47 -18t12 -42q0 -25 -12 -43t-47 -18z" />
    <glyph glyph-name="semicolon" unicode=";" horiz-adv-x="234" 
d="M122 291q-36 0 -48 18t-12 43t12 42.5t48 17.5q35 0 47 -17.5t12 -42.5q0 -26 -12 -43.5t-47 -17.5zM64 -102v67h24q26 0 36 8t10 27q-38 -2 -53 14.5t-15 42.5q0 24 13 40.5t45 16.5q26 0 40.5 -15.5t14.5 -62.5q0 -57 -20 -97.5t-70 -40.5h-25z" />
    <glyph glyph-name="ellipsis" unicode="&#x2026;" horiz-adv-x="621" 
d="M112 0q-36 0 -48 18t-12 44q0 24 12.5 42t47.5 18t47.5 -18t12.5 -42q0 -26 -12.5 -44t-47.5 -18zM310 0q-37 0 -49 18t-12 44q0 24 12 42t49 18q34 0 46 -18t12 -42q0 -26 -12 -44t-46 -18zM507 0q-36 0 -48.5 18t-12.5 44q0 24 12.5 42t48.5 18q34 0 46.5 -18t12.5 -42
q0 -26 -12.5 -44t-46.5 -18z" />
    <glyph glyph-name="exclam" unicode="!" horiz-adv-x="222" 
d="M84 166q-9 95 -18.5 168.5t-11.5 124.5t12 77.5t52 26.5q37 0 51 -27t12 -78t-11.5 -124.5t-17.5 -167.5l-9.5 2t-24.5 2q-12 0 -23 -2zM119 -9q-36 0 -48 17.5t-12 43.5q0 23 12.5 40.5t47.5 17.5q34 0 46.5 -17t12.5 -41q0 -26 -12.5 -43.5t-46.5 -17.5z" />
    <glyph glyph-name="exclamdown" unicode="&#xa1;" horiz-adv-x="204" 
d="M102 373q32 0 43.5 -16.5t11.5 -41.5q0 -23 -11.5 -39t-43.5 -16q-34 0 -45.5 16t-11.5 39q0 24 11.5 41t45.5 17zM64 196l11 -2t26 -2q19 0 27.5 2l8.5 2q9 -112 16 -187.5t7 -121.5t-13 -66t-47 -20q-33 0 -46 20t-13 65t7 121.5t16 188.5z" />
    <glyph glyph-name="question" unicode="?" horiz-adv-x="448" 
d="M262 168h-92q0 29 14.5 53.5t36 46.5t43.5 43.5t37 44t17 48.5q1 34 -20 56t-63 22q-40 0 -59 -19.5t-24.5 -45.5t-5.5 -45h-96q-8 46 7.5 91.5t57.5 76t114 30.5q54 0 97 -19t68.5 -53t25.5 -81q0 -38 -16 -66t-39.5 -49.5t-47 -41.5t-39.5 -42t-16 -50zM215 -9
q-35 0 -47 18t-12 42q0 25 12 42t47 17t47 -17t12 -42q0 -26 -12 -43t-47 -17z" />
    <glyph glyph-name="questiondown" unicode="&#xbf;" horiz-adv-x="443" 
d="M246 380q35 0 47 -18t12 -42q0 -25 -12 -42t-47 -17t-47 17t-12 42q0 26 12 43t47 17zM199 203h92q0 -29 -14.5 -53.5t-36 -46.5t-43.5 -43.5t-37 -44t-17 -48.5q-1 -34 20 -56t63 -22q40 0 59 19.5t24.5 45.5t5.5 45h96q8 -46 -7.5 -91.5t-57 -76t-114.5 -30.5
q-54 0 -97 19t-68.5 53.5t-25.5 80.5q0 38 16 66t39.5 50t47 41.5t39.5 41.5t16 50z" />
    <glyph glyph-name="periodcentered" unicode="&#xb7;" horiz-adv-x="246" 
d="M119 190q-44 0 -59 22t-15 51t15 50.5t59 21.5q43 0 57.5 -21.5t14.5 -50.5t-14.5 -51t-57.5 -22z" />
    <glyph glyph-name="bullet" unicode="&#x2022;" horiz-adv-x="262" 
d="M119 190q-44 0 -59 22t-15 51t15 50.5t59 21.5q43 0 57.5 -21.5t14.5 -50.5t-14.5 -51t-57.5 -22z" />
    <glyph glyph-name="asterisk" unicode="*" horiz-adv-x="382" 
d="M354 412l-126 -17l92 -87l-75 -55l-54 114l-54 -114l-75 55l93 87l-127 17l29 87l111 -62l-22 126h92l-24 -126l111 62z" />
    <glyph glyph-name="numbersign" unicode="#" horiz-adv-x="690" 
d="M75 0l58 141h-110v87h146l42 104h-133v87h162l46 144h96l-59 -144h118l46 144h96l-59 -144h107v-87h-142l-42 -104h132v-87h-161l-45 -141h-97l58 141h-118l-46 -141h-95zM244 229v-1h126l42 104h-125z" />
    <glyph glyph-name="slash" unicode="/" horiz-adv-x="386" 
d="M25 0l254 563h97l-254 -563h-97z" />
    <glyph glyph-name="backslash" unicode="\" horiz-adv-x="366" 
d="M249 0l-254 563h97l254 -563h-97z" />
    <glyph glyph-name="periodcentered.case" horiz-adv-x="246" 
d="M119 228q-44 0 -59 22t-15 52q0 28 15 50t59 22q43 0 57.5 -22t14.5 -50q0 -30 -14.5 -52t-57.5 -22z" />
    <glyph glyph-name="bullet.case" horiz-adv-x="262" 
d="M119 228q-44 0 -59 22t-15 52q0 28 15 50t59 22q43 0 57.5 -22t14.5 -50q0 -30 -14.5 -52t-57.5 -22z" />
    <glyph glyph-name="parenleft" unicode="(" horiz-adv-x="327" 
d="M233 -199l-19.5 16t-48 47.5t-57 79.5t-47.5 112t-19 144q0 81 19 145.5t47.5 112.5t57 80.5t48 48.5l19.5 16l79 -79q-4 -3 -25.5 -16.5t-51 -39t-58.5 -63t-48 -88.5t-19 -117q0 -67 20.5 -119t50.5 -89.5t60 -61.5t50.5 -36l20.5 -12z" />
    <glyph glyph-name="parenright" unicode=")" horiz-adv-x="317" 
d="M84 -199l-79 81l20.5 12t50.5 36t60 61.5t50.5 89.5t20.5 119q0 66 -19 117t-48 88.5t-58.5 63t-51 39t-25.5 16.5l79 79l19.5 -16t48 -48.5t57 -80.5t47.5 -112.5t19 -145.5q0 -80 -19 -144t-47.5 -112t-57 -79.5t-48 -47.5z" />
    <glyph glyph-name="braceleft" unicode="{" horiz-adv-x="344" 
d="M317 -196q-102 -20 -152.5 -1t-62 78t4.5 157q6 44 -0.5 68t-20 34t-28.5 12.5t-26 2.5v98q11 0 26 2.5t28.5 12.5t20 34t0.5 68q-15 98 -3.5 154.5t61.5 75.5t152 3v-95q-54 13 -80.5 6.5t-34 -26.5t-4 -50t8.5 -66q8 -48 3.5 -82.5t-28 -56t-73.5 -30.5
q74 -14 92 -54.5t6 -112.5q-5 -36 -8.5 -66.5t4 -50.5t34 -26t80.5 6v-95z" />
    <glyph glyph-name="braceright" unicode="}" horiz-adv-x="356" 
d="M38 -196v95q55 -12 81.5 -6t33.5 26t3.5 50.5t-8.5 66.5q-12 72 6 112.5t92 54.5q-49 9 -72.5 30.5t-28 56t2.5 82.5q5 36 8.5 66t-3.5 50t-33.5 26.5t-81.5 -6.5v95q85 6 133 -2t68 -34.5t20.5 -74.5t-10.5 -122q-6 -44 0 -68t19.5 -34t29 -12.5t26.5 -2.5v-98
q-11 0 -26.5 -2.5t-29 -12.5t-19.5 -34t0 -68q12 -74 11.5 -122.5t-21 -75t-68.5 -34.5t-133 -2z" />
    <glyph glyph-name="bracketleft" unicode="[" horiz-adv-x="289" 
d="M272 -199h-237v802h237v-95h-137v-612h137v-95z" />
    <glyph glyph-name="bracketright" unicode="]" horiz-adv-x="295" 
d="M35 -199v95h140v612h-137v95h237v-802h-240z" />
    <glyph glyph-name="parenleft.case" horiz-adv-x="327" 
d="M233 -142l-19.5 15.5t-48 47.5t-57 79.5t-47.5 111.5t-19 145q0 80 19 144.5t47.5 113t57 80.5t48 48.5l19.5 16.5l79 -80q-4 -3 -25.5 -16.5t-51 -38.5t-58.5 -62.5t-48 -89t-19 -116.5q0 -67 20.5 -119t50.5 -89.5t60 -62t50.5 -36l20.5 -11.5z" />
    <glyph glyph-name="parenright.case" horiz-adv-x="317" 
d="M84 -142l-79 81l20.5 11.5t50.5 36t60 62t50.5 89.5t20.5 119q0 65 -19 116.5t-48 89t-58.5 62.5t-51 38.5t-25.5 16.5l79 80l19.5 -16.5t48 -48.5t57 -80.5t47.5 -113t19 -144.5q0 -81 -19 -145t-47.5 -111.5t-57 -79.5t-48 -47.5z" />
    <glyph glyph-name="braceleft.case" horiz-adv-x="344" 
d="M317 -139q-102 -20 -152.5 -1t-62 77.5t4.5 157.5q6 43 -0.5 67t-20 34.5t-28.5 12.5t-26 2v99q11 0 26 2t28.5 12.5t20 34.5t0.5 68q-15 98 -3.5 154.5t61.5 75t152 3.5v-95q-54 12 -80.5 6t-34 -26t-4 -50.5t8.5 -65.5q8 -48 3.5 -82.5t-28 -56t-73.5 -30.5
q74 -14 92 -54.5t6 -112.5q-5 -36 -8.5 -66.5t4 -50.5t34 -26.5t80.5 5.5v-94z" />
    <glyph glyph-name="braceright.case" horiz-adv-x="356" 
d="M38 -139v94q55 -12 81.5 -5.5t33.5 26.5t3.5 50.5t-8.5 66.5q-12 72 6 112.5t92 54.5q-49 9 -72.5 30.5t-28 56t2.5 82.5q5 35 8.5 65.5t-3.5 50.5t-33.5 26t-81.5 -6v95q85 6 133 -2t68 -34.5t20.5 -75t-10.5 -121.5q-6 -44 0 -68t19.5 -34.5t29 -12.5t26.5 -2v-99
q-11 0 -26.5 -2t-29 -12.5t-19.5 -34.5t0 -67q12 -74 11.5 -122.5t-21 -75t-68.5 -35t-133 -1.5z" />
    <glyph glyph-name="bracketleft.case" horiz-adv-x="289" 
d="M35 -142v802h237v-95h-137v-612l137 -1v-94h-237z" />
    <glyph glyph-name="bracketright.case" horiz-adv-x="295" 
d="M35 -142v94l140 1v612h-137v95h237v-802h-240z" />
    <glyph glyph-name="hyphen" unicode="-" horiz-adv-x="317" 
d="M40 189v71h222v-71h-222z" />
    <glyph glyph-name="uni00AD" unicode="&#xad;" horiz-adv-x="280" 
d="M29 189v71h222v-71h-222z" />
    <glyph glyph-name="endash" unicode="&#x2013;" horiz-adv-x="424" 
d="M40 189v71h329v-71h-329z" />
    <glyph glyph-name="emdash" unicode="&#x2014;" horiz-adv-x="577" 
d="M40 189v71h482v-71h-482z" />
    <glyph glyph-name="underscore" unicode="_" horiz-adv-x="570" 
d="M33 0v71h482v-71h-482z" />
    <glyph glyph-name="hyphen.case" horiz-adv-x="317" 
d="M40 236v71h222v-71h-222z" />
    <glyph glyph-name="endash.case" horiz-adv-x="424" 
d="M40 236v71h329v-71h-329z" />
    <glyph glyph-name="emdash.case" horiz-adv-x="577" 
d="M40 236v71h482v-71h-482z" />
    <glyph glyph-name="quotesinglbase" unicode="&#x201a;" horiz-adv-x="234" 
d="M48 -93v86q39 0 58.5 13t28.5 29h-4q-33 0 -46 17t-13 40q0 24 12.5 41t44.5 17q31 0 43.5 -16.5t12.5 -40.5v0v-1v0v-1q0 -8 -2 -29t-9 -47t-21.5 -51t-40 -41t-64.5 -16z" />
    <glyph glyph-name="quotedblbase" unicode="&#x201e;" horiz-adv-x="372" 
d="M35 -93v86q38 0 58 13t29 29h-5q-32 0 -45 17t-13 40q0 24 12.5 41t43.5 17q32 0 44.5 -16.5t12.5 -40.5v0v-1v0v-1q0 -8 -2 -29t-9 -47t-21.5 -51t-40 -41t-64.5 -16zM196 -93v86q38 0 58 13t28 29h-4q-33 0 -46 17t-13 40q0 24 13 41t44 17t44 -16.5t13 -40.5v0v-1v0
v-1q0 -8 -2 -29t-9 -47t-22 -51t-40 -41t-64 -16z" />
    <glyph glyph-name="quotedblleft" unicode="&#x201c;" horiz-adv-x="394" 
d="M43 321v85q39 0 58.5 13t28.5 30h-4q-33 0 -46 16.5t-13 40.5t12.5 40.5t44.5 16.5q31 0 43.5 -16.5t12.5 -40.5v0v-1v0v0q0 -9 -2 -30t-9 -47t-21.5 -50.5t-40 -40.5t-64.5 -16zM204 321v85q38 0 58 13t29 30h-5q-32 0 -45 16.5t-13 40.5t12.5 40.5t43.5 16.5
q32 0 44.5 -16.5t12.5 -40.5v0v-1v0v0q0 -9 -2 -30t-9 -47t-21.5 -50.5t-40 -40.5t-64.5 -16z" />
    <glyph glyph-name="quotedblright" unicode="&#x201d;" horiz-adv-x="394" 
d="M261 321q-32 0 -44.5 16t-12.5 40v0v2v0v0q0 8 2 29t9 47.5t21.5 51t40 40.5t64.5 16v-86q-38 0 -58 -12.5t-29 -29.5h5q32 0 45 -16.5t13 -40.5t-12.5 -40.5t-43.5 -16.5zM100 321q-31 0 -44 16t-13 40v0v2v0v0q0 8 2 29t9 47.5t22 51t40 40.5t64 16v-86
q-38 0 -58 -12.5t-28 -29.5h4q33 0 46 -16.5t13 -40.5t-13 -40.5t-44 -16.5z" />
    <glyph glyph-name="quoteleft" unicode="&#x2018;" horiz-adv-x="240" 
d="M100 321q-31 0 -44 16t-13 40v0v2v0v0q0 8 2 29t9 47.5t22 51t40 40.5t64 16v-86q-38 0 -58 -12.5t-28 -29.5h4q33 0 46 -16.5t13 -40.5t-13 -40.5t-44 -16.5z" />
    <glyph glyph-name="quoteright" unicode="&#x2019;" horiz-adv-x="219" 
d="M35 321v85q38 0 58 13t29 30h-5q-32 0 -45 16.5t-13 40.5t12.5 40.5t43.5 16.5q32 0 44.5 -16.5t12.5 -40.5v0v-1v0v0q0 -9 -2 -30t-9 -47t-21.5 -50.5t-40 -40.5t-64.5 -16z" />
    <glyph glyph-name="guillemotleft" unicode="&#xab;" horiz-adv-x="553" 
d="M324 527v-75l-215 -157l215 -164v-71l-300 235zM500 527v-82l-214 -150l214 -157v-78l-300 235z" />
    <glyph glyph-name="guillemotright" unicode="&#xbb;" horiz-adv-x="507" 
d="M192 527l300 -232l-300 -235v71l214 164l-214 157v75zM15 527l300 -232l-300 -235v78l214 157l-214 150v82z" />
    <glyph glyph-name="guilsinglleft" unicode="&#x2039;" horiz-adv-x="409" 
d="M369 406v-81l-252 -92l252 -91v-82l-329 173z" />
    <glyph glyph-name="guilsinglright" unicode="&#x203a;" horiz-adv-x="417" 
d="M43 406l329 -173l-329 -173v82l252 91l-252 92v81z" />
    <glyph glyph-name="quotedbl" unicode="&#x22;" horiz-adv-x="348" 
d="M38 347v67h24q26 0 35.5 8t9.5 27q-37 -1 -52 15.5t-15 41.5q0 24 12.5 40.5t45.5 16.5q25 0 40 -15.5t15 -62.5q0 -56 -20.5 -97t-69.5 -41h-25zM203 347v67h24q26 0 35.5 8t9.5 27q-37 -1 -52 15.5t-15 41.5q0 24 12.5 40.5t45.5 16.5q25 0 40 -15.5t15 -62.5
q0 -56 -20.5 -97t-69.5 -41h-25z" />
    <glyph glyph-name="quotesingle" unicode="'" horiz-adv-x="214" 
d="M58 347v67h24q26 0 35.5 8t9.5 27q-37 -1 -52 15.5t-15 41.5q0 24 12.5 40.5t45.5 16.5q25 0 40 -15.5t15 -62.5q0 -56 -20.5 -97t-69.5 -41h-25z" />
    <glyph glyph-name="hyphen_greater.dlig" horiz-adv-x="519" 
d="M35 189v79h298q-13 23 -19 45t-7 36.5t-1 15.5h63q0 -1 2.5 -16t12.5 -34t33.5 -33t66.5 -14v-79q-43 0 -66.5 -14.5t-33.5 -33t-12.5 -33.5t-2.5 -16h-63l1 14.5t7 36.5t19 46h-298z" />
    <glyph glyph-name="parenleft_greater.dlig" horiz-adv-x="657" 
d="M329 -18q-61 0 -114.5 23t-93.5 63.5t-63 93.5t-23 114q0 60 23 113t63 93.5t93.5 63.5t114.5 23q60 0 113 -23t93.5 -63.5t63.5 -93.5t23 -113q0 -61 -23 -114t-63.5 -93.5t-93.5 -63.5t-113 -23zM329 33q67 0 122 33t88 88t33 122q0 66 -33 121.5t-88 88t-122 32.5
t-122 -32.5t-88 -88t-33 -121.5q0 -67 33 -122t88 -88t122 -33zM257 139v268l202 -130zM306 224l77 53l-77 49v-102z" />
    <glyph glyph-name="colon_parenleft.dlig" horiz-adv-x="657" 
d="M329 -14q-61 0 -114.5 23t-93.5 63t-63 93.5t-23 114.5q0 60 23 113t63 93.5t93.5 63.5t114.5 23q60 0 113 -23t93.5 -63.5t63.5 -93.5t23 -113q0 -61 -23 -114.5t-63.5 -93.5t-93.5 -63t-113 -23zM329 37q67 0 122 33t87.5 88t32.5 121q0 67 -32.5 122t-87.5 88t-122 33
t-122 -33t-88 -88t-33 -122q0 -66 33 -121t88 -88t122 -33zM190 288v112h62v-112h-62zM406 288v112h62v-112h-62zM172 127q5 64 47 104.5t111 40.5q67 0 110 -42t48 -103h-66q0 6 -3 21.5t-13 32.5t-28 29t-48 12q-32 0 -50.5 -12t-27.5 -29t-12 -32.5t-3 -21.5h-65z" />
    <glyph glyph-name="colon_parenright.dlig" horiz-adv-x="657" 
d="M329 -14q-61 0 -114.5 23t-93.5 63t-63 93.5t-23 114.5q0 60 23 113t63 93.5t93.5 63.5t114.5 23q60 0 113 -23t93.5 -63.5t63.5 -93.5t23 -113q0 -61 -23 -114.5t-63.5 -93.5t-93.5 -63t-113 -23zM329 37q67 0 122 33t87.5 88t32.5 121q0 67 -32.5 122t-87.5 88t-122 33
t-122 -33t-88 -88t-33 -122q0 -66 33 -121t88 -88t122 -33zM190 288v112h62v-112h-62zM406 288v112h62v-112h-62zM330 98q-50 0 -87.5 22.5t-58.5 61.5t-24 86h65q0 -1 1.5 -19.5t11 -41.5t31 -41t61.5 -18q33 0 53.5 12.5t31.5 30t14.5 35.5t4 30l0.5 12h65
q-4 -75 -49 -122.5t-120 -47.5z" />
    <glyph glyph-name="space" unicode=" " horiz-adv-x="218" 
 />
    <glyph glyph-name="uni00A0" unicode="&#xa0;" horiz-adv-x="218" 
 />
    <glyph glyph-name="CR" unicode="&#xd;" horiz-adv-x="600" 
 />
    <glyph glyph-name="cent" unicode="&#xa2;" horiz-adv-x="464" 
d="M180 -99l6 93q-71 12 -117.5 63.5t-46.5 139.5q2 86 47.5 141.5t116.5 69.5l-6 92h102l-6 -92q71 -11 108.5 -54.5t46.5 -97.5l-93 -16q-10 43 -33.5 63.5t-72.5 20.5q-54 0 -82 -33t-28 -86q0 -58 27 -92.5t83 -34.5q88 0 106 88l93 -16q-9 -55 -47 -99.5t-108 -56.5
l6 -93h-102z" />
    <glyph glyph-name="currency" unicode="&#xa4;" horiz-adv-x="567" 
d="M452 6h-34l-41 59q-38 -27 -93 -27q-57 0 -96 28l-42 -60h-31l54 77q-41 45 -41 126q0 89 50 135l-47 65h34l35 -50q34 20 84 20q48 0 82 -19l34 49h35l-47 -65q51 -47 51 -135q0 -79 -41 -126zM284 59q24 0 44.5 6t36.5 17q3 3 6.5 6t6.5 6q-10 -10 -10 -10.5t4 4t8.5 9
l4.5 4.5q32 39 32 108q0 78 -41 118q-8 8 -22 15q-31 16 -70 16q-42 0 -72 -16q-1 -1 -11 -8.5l-10 -7.5q-41 -38 -41 -117q0 -33 12 -67.5t39 -58.5q15 -12 35.5 -18t47.5 -6z" />
    <glyph glyph-name="dollar" unicode="$" horiz-adv-x="552" 
d="M241 -109l6 100q-47 6 -91 28t-74 62.5t-37 102.5l101 17q0 -3 3 -21.5t16.5 -42t42.5 -41t80 -17.5q55 0 83 23t28 47q1 28 -18 45t-49.5 27.5t-67.5 19.5t-73.5 21t-66.5 31t-47 50.5t-14 79.5q3 61 51 100.5t133 47.5l-6 101h102l-6 -103q47 -8 85 -31.5t60 -63
t22 -94.5l-97 -14q0 40 -15.5 62.5t-39 33.5t-46.5 14t-36 3q-38 0 -69 -17t-33 -51q0 -29 19 -46t50.5 -27.5t68.5 -19t74 -19.5t67.5 -30t48 -50t14.5 -80q-4 -61 -53.5 -98.5t-119.5 -47.5l6 -102h-102z" />
    <glyph glyph-name="Euro" unicode="&#x20ac;" horiz-adv-x="637" 
d="M37 226v58h51v3l-51 2l53 23q7 84 42.5 142t91.5 88.5t125 30.5q73 0 124 -28t81 -76.5t39 -108.5l-103 -17q-12 66 -44 101t-97 35q-64 0 -102.5 -39.5t-48.5 -104.5l194 -7l-101 -44h96l-15 -58h-174q21 -139 149 -139q61 0 97 35t47 101l104 -16q-9 -62 -39.5 -111
t-82.5 -77.5t-127 -28.5q-65 0 -119.5 26.5t-90 79t-45.5 130.5h-54z" />
    <glyph glyph-name="sterling" unicode="&#xa3;" horiz-adv-x="667" 
d="M115 -14l-46 76q35 28 62.5 64.5t19.5 88.5h-106v75h78q-24 52 -23 102.5t25.5 91t71.5 65t114 24.5q76 0 123.5 -27t70 -71.5t25.5 -99.5l-97 -14q-7 35 -24.5 64.5t-46.5 46.5t-71 15q-42 -3 -69.5 -28t-30.5 -68.5t26 -100.5h192v-75h-166q7 -47 -10.5 -76.5
t-42.5 -54.5q33 16 64 16t60 -7.5t55 -16t49.5 -9t42.5 14.5q20 15 23.5 41t-7.5 54l99 17q21 -87 -7 -135.5t-89 -54.5q-39 -13 -73.5 -10t-68 12t-67.5 15.5t-70.5 1t-79.5 -32.5l-1.5 -1z" />
    <glyph glyph-name="yen" unicode="&#xa5;" horiz-adv-x="523" 
d="M92 90v58h118v46l-118 -1v58h91l-165 312h115l130 -275l130 275h114l-168 -312h93v-55l-120 -1v-47h120v-58h-120v-90h-102v90h-118z" />
    <glyph glyph-name="uni2215" unicode="&#x2215;" horiz-adv-x="386" 
d="M25 0l254 563h97l-254 -563h-97z" />
    <glyph glyph-name="plus" unicode="+" horiz-adv-x="363" 
d="M146 81v108h-108v71h108v108h72v-108h107v-71h-107v-108h-72z" />
    <glyph glyph-name="minus" unicode="&#x2212;" horiz-adv-x="317" 
d="M40 189v71h222v-71h-222z" />
    <glyph glyph-name="multiply" unicode="&#xd7;" horiz-adv-x="319" 
d="M284 293l-76 -77l76 -76l-47 -48l-77 77l-77 -78l-48 49l77 76l-77 77l48 48l77 -76l76 76z" />
    <glyph glyph-name="divide" unicode="&#xf7;" horiz-adv-x="317" 
d="M151 296q-20 0 -30 11.5t-10 28.5t10 28.5t30 11.5q19 0 29 -11t10 -29q0 -17 -9.5 -28.5t-29.5 -11.5zM40 189v71h222v-71h-222zM151 71q-20 0 -30 11.5t-10 28.5t10 28.5t30 11.5q19 0 29 -11t10 -29q0 -17 -9.5 -28.5t-29.5 -11.5z" />
    <glyph glyph-name="equal" unicode="=" horiz-adv-x="416" 
d="M40 259v68h321v-68h-321zM40 118v68h321v-68h-321z" />
    <glyph glyph-name="notequal" unicode="&#x2260;" horiz-adv-x="402" 
d="M61 30l48 107h-69v68h100v1h-100v68h131l49 109h96l-49 -109h80v-68h-110v-1h110v-68h-141l-48 -107h-97z" />
    <glyph glyph-name="greater" unicode="&#x3e;" horiz-adv-x="417" 
d="M43 406l329 -173l-329 -173v82l252 91l-252 92v81z" />
    <glyph glyph-name="less" unicode="&#x3c;" horiz-adv-x="422" 
d="M372 406v-81l-252 -92l252 -91v-82l-329 173z" />
    <glyph glyph-name="plusminus" unicode="&#xb1;" horiz-adv-x="317" 
d="M124 147v76h-84v60h84v75h60v-75h78v-60h-78v-76h-60zM40 43v59h222v-59h-222z" />
    <glyph glyph-name="asciitilde" unicode="~" horiz-adv-x="355" 
d="M234 197q-26 0 -41 9.5t-24.5 22t-18.5 22t-23 9.5q-18 0 -21.5 -15.5t-3.5 -41.5h-60q-1 13 0.5 32.5t8 38.5t23 32t47.5 13q26 0 41 -9.5t25 -22t19 -22t23 -9.5q18 0 21 16.5t3 40.5h60q1 -23 -3 -50t-20.5 -46.5t-55.5 -19.5z" />
    <glyph glyph-name="logicalnot" unicode="&#xac;" horiz-adv-x="317" 
d="M40 191v66h222v-147h-67v81h-155z" />
    <glyph glyph-name="asciicircum" unicode="^" horiz-adv-x="442" 
d="M28 320v26l193 216l192 -216v-26h-96l-95 159h-2l-95 -159h-97z" />
    <glyph glyph-name="uni00B5" unicode="&#xb5;" horiz-adv-x="543" 
d="M75 -156l1 566h99v-210q0 -31 6 -58.5t25.5 -44.5t59.5 -17q38 0 58 17.5t27.5 44.5t8.5 55v213h104v-410h-87l-11 55h-2q-13 -23 -32.5 -44t-63.5 -21q-36 0 -57 11.5t-33 30.5h-3v-188h-100z" />
    <glyph glyph-name="percent" unicode="%" horiz-adv-x="609" 
d="M135 334q-56 0 -82 32t-26 86q0 55 25.5 88t82.5 33t83.5 -33t26.5 -88q0 -51 -26.5 -84.5t-83.5 -33.5zM128 0l-70 50l234 251l191 262l70 -49l-227 -241zM134 398q25 0 35 16t10 40q0 25 -10 41.5t-35 16.5q-24 0 -34.5 -16.5t-10.5 -41.5q0 -24 10.5 -40t34.5 -16z
M473 -10q-56 0 -81.5 32.5t-25.5 88.5q0 53 25 85.5t82 32.5t83 -32.5t26 -85.5q0 -54 -26 -87.5t-83 -33.5zM471 54q26 0 36.5 16t10.5 40q0 25 -10.5 41.5t-36.5 16.5q-24 0 -34.5 -16t-10.5 -42q0 -24 10.5 -40t34.5 -16z" />
    <glyph glyph-name="perthousand" unicode="&#x2030;" horiz-adv-x="806" 
d="M135 334q-56 0 -82 32t-26 86q0 55 25.5 88t82.5 33t83.5 -33t26.5 -88q0 -51 -26.5 -84.5t-83.5 -33.5zM128 0l-70 50l234 251l191 262l70 -49l-227 -241zM134 398q25 0 35 16t10 40q0 25 -10 41.5t-35 16.5q-24 0 -34.5 -16.5t-10.5 -41.5q0 -24 10.5 -40t34.5 -16z
M473 -10q-56 0 -81.5 32.5t-25.5 88.5q0 53 25 85.5t82 32.5t83 -32.5t26 -85.5q0 -54 -26 -87.5t-83 -33.5zM730 -10q-55 0 -81 32.5t-26 88.5q0 53 25.5 85.5t81.5 32.5q57 0 83 -32.5t26 -85.5q0 -54 -26 -87.5t-83 -33.5zM471 54q26 0 36.5 16t10.5 40q0 25 -10.5 41.5
t-36.5 16.5q-24 0 -34.5 -16t-10.5 -42q0 -24 10.5 -40t34.5 -16zM729 54q25 0 35.5 16t10.5 40q0 25 -10.5 41.5t-35.5 16.5q-24 0 -34.5 -16t-10.5 -42q0 -24 10.5 -40t34.5 -16z" />
    <glyph glyph-name="plus.case" horiz-adv-x="363" 
d="M146 134v108h-108v71h108v108h72v-108h107v-71h-107v-108h-72z" />
    <glyph glyph-name="minus.case" horiz-adv-x="317" 
d="M40 242v72h222v-72h-222z" />
    <glyph glyph-name="equal.case" horiz-adv-x="416" 
d="M40 322v68h321v-68h-321zM40 182v68h321v-68h-321z" />
    <glyph glyph-name="notequal.case" horiz-adv-x="402" 
d="M61 107l48 107h-69v68h100v0h-100v68h131l49 109h96l-49 -109h80v-68h-110v0h110v-68h-141l-48 -107h-97z" />
    <glyph glyph-name="greater.case" horiz-adv-x="417" 
d="M43 452l329 -172l-329 -174v82l252 92l-252 92v80z" />
    <glyph glyph-name="less.case" horiz-adv-x="422" 
d="M372 452v-80l-252 -92l252 -92v-82l-329 174z" />
    <glyph glyph-name="asciitilde.case" horiz-adv-x="444" 
d="M212 274q-13 17 -25 28.5t-31 11.5q-26 0 -24.5 -34t28.5 -80h-95q-13 22 -18 51.5t1.5 57t26.5 45.5t56 18q24 0 41.5 -12t31 -29t26.5 -34t25.5 -30t30.5 -13q26 0 25.5 33.5t-28.5 80.5h95q14 -21 18.5 -50.5t-2.5 -57t-27 -45.5t-56 -18q-25 0 -42.5 12.5t-31 30.5z
" />
    <glyph glyph-name="arrowup" unicode="&#x2191;" horiz-adv-x="343" 
d="M132 105v191q-23 -13 -45 -18.5t-36.5 -7t-15.5 -1.5v63q2 0 16.5 2.5t33.5 13t33 34t14 65.5h79q0 -42 14.5 -65.5t33 -34t33.5 -13t16 -2.5v-63l-14.5 1.5t-36.5 7t-46 18.5v-191h-79z" />
    <glyph glyph-name="uni2197" unicode="&#x2197;" horiz-adv-x="383" 
d="M82 126l-59 53l148 147q-26 7 -46 18.5t-31 21t-12 9.5l45 45q1 -1 12.5 -10.5t31 -16.5t46 -0.5t58.5 37.5l58 -53l-1 -1q-31 -32 -38 -58.5t-0.5 -46.5t16 -31.5t10.5 -12.5l-44 -45q0 1 -10 11.5t-22 30t-19 45.5z" />
    <glyph glyph-name="arrowright" unicode="&#x2192;" horiz-adv-x="412" 
d="M35 189v79h191q-13 23 -18.5 45t-7 36.5t-1.5 15.5h63q0 -1 2.5 -16t13 -34t34 -33t65.5 -14v-79q-42 0 -65.5 -14.5t-34 -33t-13 -33.5t-2.5 -16h-63l1.5 14.5t7 36.5t18.5 46h-191z" />
    <glyph glyph-name="uni2198" unicode="&#x2198;" horiz-adv-x="383" 
d="M290 118q-32 31 -58.5 37.5t-46 -0.5t-31 -16.5t-12.5 -10.5l-44 44q0 1 11.5 10.5t31 21t45.5 17.5l-151 151l58 53l147 -146q7 25 19 44.5t21.5 30.5t10.5 11l44 -44q-1 -1 -10.5 -12.5t-16 -31.5t0.5 -47t39 -59z" />
    <glyph glyph-name="arrowdown" unicode="&#x2193;" horiz-adv-x="343" 
d="M132 105q0 42 -14 65.5t-33 34t-33.5 13t-16.5 2.5v63q1 0 15.5 -1.5t36.5 -7t45 -18.5v191h79v-191q24 13 46 18.5t36.5 7l14.5 1.5v-63q-1 0 -16 -2.5t-33.5 -13t-33 -34t-14.5 -65.5h-79z" />
    <glyph glyph-name="uni2199" unicode="&#x2199;" horiz-adv-x="508" 
d="M93 118l-58 53q34 34 50 54.5t20 31t2.5 14t-2.5 4.5l33 33l4.5 -5.5t9.5 -14.5l138 137l58 -53l-141 -141q10 -4 15.5 -8.5l5.5 -4.5l-33 -33q-1 1 -4.5 2.5t-13.5 -2t-30 -18.5t-54 -49z" />
    <glyph glyph-name="arrowleft" unicode="&#x2190;" horiz-adv-x="412" 
d="M150 92q0 1 -2.5 16t-13 33.5t-34 33t-65.5 14.5v79q42 0 65.5 14t34 33t13 34t2.5 16h63q0 -1 -1.5 -15.5t-7 -36.5t-18.5 -45h191v-79h-191q13 -24 18.5 -46t7 -36.5l1.5 -14.5h-63z" />
    <glyph glyph-name="uni2196" unicode="&#x2196;" horiz-adv-x="383" 
d="M80 182l-44 45q1 1 10.5 12.5t16 31.5t-0.5 47t-39 59l58 53q32 -31 58.5 -37.5t46 0.5t31 16.5t12.5 10.5l45 -45q-1 0 -12 -9.5t-31 -21t-45 -18.5l147 -147l-58 -53l-144 143q-7 -26 -19 -45t-21.5 -30t-10.5 -12z" />
    <glyph glyph-name="arrowboth" unicode="&#x2194;" horiz-adv-x="534" 
d="M150 91q0 2 -2.5 16.5t-13 33.5t-34 33t-65.5 14v79q42 0 65.5 14.5t34 33t13 33.5t2.5 16h63l-1.5 -14.5t-7 -37t-18.5 -45.5h163q-14 23 -19.5 45.5t-6.5 37l-1 14.5h63q0 -1 2 -16t12.5 -33.5t34 -33t65.5 -14.5v-79q-42 0 -65.5 -14t-34 -33t-12.5 -33.5t-2 -16.5
h-63l1 14.5t6.5 37t19.5 45.5h-163q13 -23 18.5 -45.5t7 -37l1.5 -14.5h-63z" />
    <glyph glyph-name="arrowupdn" unicode="&#x2195;" horiz-adv-x="343" 
d="M132 -17q0 42 -14 65.5t-33 34t-33.5 12.5t-16.5 2v63q1 0 15.5 -1t36.5 -6.5t45 -19.5v163q-23 -13 -45 -18.5t-36.5 -7t-15.5 -1.5v63q2 0 16.5 2.5t33.5 13t33 34t14 65.5h79q0 -42 14.5 -65.5t33 -34t33.5 -13t16 -2.5v-63l-14.5 1.5t-36.5 7t-46 18.5v-163
q24 14 46 19.5t36.5 6.5l14.5 1v-63q-1 0 -16 -2t-33.5 -12.5t-33 -34t-14.5 -65.5h-79z" />
    <glyph glyph-name="uni21A9" unicode="&#x21a9;" horiz-adv-x="600" 
 />
    <glyph glyph-name="carriagereturn" unicode="&#x21b5;" horiz-adv-x="468" 
d="M174 115h-25q0 2 -2.5 16.5t-13 33.5t-33.5 33t-65 14v26q42 0 65 14t33.5 33t13 34t2.5 16h25q0 -1 -2 -17.5t-12.5 -39t-34.5 -40.5h280v166h28v-192h-308q24 -18 34 -40.5t12.5 -39.5z" />
    <glyph glyph-name="at" unicode="@" horiz-adv-x="821" 
d="M376 41q-63 0 -92.5 44t-19.5 109q7 43 29 77t54.5 53.5t70.5 19.5q39 0 66 -17t39 -47l6 51h77l-31 -167q-3 -19 -3.5 -38.5t6.5 -32.5t28 -13q36 0 60.5 23.5t36 61t8 80t-22.5 79.5q-26 50 -73.5 80.5t-105 42.5t-115.5 4.5t-105 -34.5q-59 -34 -95 -95t-41 -138
q-4 -69 22 -120.5t74.5 -83t111 -42t132 1.5t137.5 48l51 -89q-61 -33 -131.5 -50t-142.5 -16t-137.5 21.5t-116.5 61.5t-80 104t-28 150q2 109 55 193t142 128q53 26 114.5 35.5t123.5 2.5t117 -30t97 -62t61 -95q19 -50 14.5 -104t-29 -100t-66 -74.5t-98.5 -28.5
q-46 0 -63 22t-15 51q-22 -31 -53.5 -49t-68.5 -18zM402 98q38 0 57.5 18.5t27 41t9.5 36.5q7 41 -6.5 67.5t-55.5 26.5q-37 0 -64.5 -26t-33.5 -70q-6 -41 10.5 -67.5t55.5 -26.5z" />
    <glyph glyph-name="ampersand" unicode="&#x26;" horiz-adv-x="647" 
d="M593 -2q-70 29 -136 71q-43 -39 -96.5 -58.5t-108.5 -19.5t-101 19t-74.5 56t-28.5 93q0 41 16.5 68.5t39 45t43 27t29.5 13.5q-5 8 -20 25.5t-28 44.5t-13 61q0 42 22.5 70t58 42.5t75 15t75 -12.5t58 -41t22.5 -70q0 -35 -17 -62t-40 -45.5t-42 -28.5t-23 -12
q11 -14 43.5 -45t74.5 -65q8 11 17.5 33.5t9.5 47.5t-20 44l85 56q6 -7 16.5 -30.5t16.5 -57t-0.5 -72.5t-33.5 -77q25 -16 51.5 -30.5t65.5 -30.5zM248 347q13 7 34 19.5t38 29.5t19 37q2 23 -11 37.5t-33 20t-40.5 1t-34.5 -18.5t-13 -39q1 -39 41 -87zM378 126
q-42 32 -79 67.5t-68 72.5q-31 -16 -56.5 -36.5t-25.5 -58.5q0 -37 24.5 -60t61.5 -29.5t76 4.5t67 40z" />
    <glyph glyph-name="paragraph" unicode="&#xb6;" horiz-adv-x="526" 
d="M240 -90v403h-22q-55 1 -101 19t-73.5 60t-27.5 114q0 70 27 112t72.5 61t100.5 20h100v-1h194v-76h-59v-713h-77l-1 713h-57v-712h-76z" />
    <glyph glyph-name="section" unicode="&#xa7;" horiz-adv-x="600" 
d="M418 223v-2q23 -15 39 -40t15 -60q-3 -56 -51.5 -88t-116.5 -32q-47 0 -90.5 16t-71.5 50t-30 86h31q0 -2 1.5 -15t9 -31t24.5 -35.5t48 -29t80 -11.5q45 0 72 11t40.5 27t18 31t4.5 22q1 38 -21 59.5t-58 33.5t-76.5 21.5t-76.5 24t-58 40t-20 70.5q1 28 20.5 48.5
t47.5 31.5v1q-31 17 -50 42.5t-18 61.5q2 36 25 61.5t61.5 39.5t84.5 14q47 0 84.5 -16.5t59.5 -48.5t20 -81h-30q1 36 -13 59t-36 35.5t-45.5 17.5t-41.5 5q-59 0 -97.5 -25t-40.5 -63q0 -37 22.5 -58t58 -32.5t76 -20.5t76 -23.5t57.5 -41t20 -72.5q-1 -28 -16 -48
t-38 -35zM162 369q0 -35 17.5 -55.5t47.5 -32t65.5 -19.5t69.5 -18q11 -2 15 -3t6 -2q8 -2 12 -0.5t6 2.5q26 17 33 37t7 29q1 33 -16.5 54t-47 34t-64.5 21.5t-69 17.5q-14 3 -21.5 4.5t-20.5 -6.5q-39 -26 -40 -63z" />
    <glyph glyph-name="copyright" unicode="&#xa9;" horiz-adv-x="618" 
d="M328 -10q-61 0 -114 22.5t-93.5 63t-63 93.5t-22.5 114q0 59 22.5 111.5t63 92.5t93.5 63t114 23q59 0 111.5 -23t92.5 -63t63 -92.5t23 -111.5q0 -61 -23 -114t-63 -93.5t-92.5 -63t-111.5 -22.5zM328 47q69 0 121.5 29.5t82 82.5t29.5 123q0 69 -29.5 121.5t-82 82
t-121.5 29.5q-70 0 -123 -29.5t-83 -82t-30 -121.5q0 -70 30 -123t83 -82.5t123 -29.5zM327 115q-68 0 -115 42t-47 123q1 80 48 124t116 44q68 0 106.5 -36t46.5 -87l-62 -11q-8 37 -28.5 56t-62.5 19q-49 0 -74 -28t-25 -76q0 -52 24.5 -81t74.5 -29q76 0 91 84l64 -18
q-10 -52 -48.5 -89t-108.5 -37z" />
    <glyph glyph-name="registered" unicode="&#xae;" horiz-adv-x="408" 
d="M203 229q-48 0 -87 23t-62.5 62t-23.5 86q0 48 23.5 87t62.5 62t87 23q47 0 85.5 -23t61.5 -62t23 -87q0 -47 -23 -86t-61.5 -62t-85.5 -23zM203 265q40 0 70.5 18.5t47 49t16.5 67.5q0 56 -36.5 96t-97.5 40q-62 0 -99 -40t-37 -96q0 -37 16.5 -67.5t47.5 -49t72 -18.5z
M138 318v171h64q34 0 53 -11.5t19 -39.5q0 -21 -11.5 -34.5t-35.5 -13.5q18 0 24 -9t8 -19.5t5.5 -17t16.5 -0.5v-20q-8 -7 -20.5 -8t-21.5 7.5t-9 29.5q0 22 -8 30t-50 5v-70h-34zM172 412h28q21 0 31 3.5t10 19.5q0 19 -12 22.5t-35 3.5h-22v-49z" />
    <glyph glyph-name="trademark" unicode="&#x2122;" horiz-adv-x="465" 
d="M164 526h-66v-172h-43v172h-67v36h176v-36zM430 354h-46l4 189l-43 -189h-64l-42 189l2 -189h-45v208h76l41 -189l42 189h75v-208z" />
    <glyph glyph-name="degree" unicode="&#xb0;" horiz-adv-x="296" 
d="M139 355q-57 0 -83 29.5t-26 77.5q0 51 25.5 81t83.5 30q57 0 84 -30t27 -81q0 -46 -27 -76.5t-84 -30.5zM138 420q26 0 36 13t10 32t-10 33t-36 14t-36.5 -14t-10.5 -33q0 -20 11.5 -32.5t35.5 -12.5z" />
    <glyph glyph-name="bar" unicode="|" horiz-adv-x="222" 
d="M60 -151v752h102v-752h-102z" />
    <glyph glyph-name="brokenbar" unicode="&#xa6;" horiz-adv-x="222" 
d="M60 298v303h102v-303h-102zM60 -151v303h102v-303h-102z" />
    <glyph glyph-name="uni240D" unicode="&#x240d;" horiz-adv-x="590" 
d="M168 180q-55 0 -91.5 35.5t-36.5 105.5t36 104.5t94 34.5q44 0 76 -23.5t41 -73.5h-13q-8 41 -35 63.5t-69 22.5q-53 0 -85.5 -33t-32.5 -95q0 -64 32 -96.5t84 -32.5q46 0 73.5 22.5t34.5 62.5h14q-9 -48 -41 -72.5t-81 -24.5zM339 184v268h78q50 0 76.5 -15t26.5 -59
q0 -25 -15.5 -46.5t-48.5 -21.5q28 0 39 -13.5t12.5 -33t1 -38t3 -28.5t19.5 -5v-11l-8.5 -0.5t-17 5.5t-8.5 27q0 39 -4 58t-17.5 25.5t-43 6.5h-80.5v-119h-13zM352 316h77q40 0 59.5 14t19.5 48q0 39 -23.5 50t-67.5 11h-65v-123z" />
    <glyph glyph-name="less_hyphen.dlig" horiz-adv-x="556" 
d="M213 92h-63q0 1 -2.5 16t-13 33.5t-34 33t-65.5 14.5v79q42 0 65.5 14t34 33t13 34t2.5 16h63q0 -1 -1.5 -15.5t-7 -36.5t-18.5 -45h298v-79h-298q13 -24 18.5 -46t7 -36.5z" />
    <glyph glyph-name="less_three.dlig" horiz-adv-x="497" 
d="M245 0q-57 21 -102 59t-75 84.5t-43 94t-6.5 87t34.5 64t80 24.5q50 0 76 -32t35 -77q10 50 38 79.5t73 29.5q54 0 83 -24.5t35.5 -64.5t-7 -87.5t-44 -94t-75.5 -84.5t-102 -58zM244 83q38 14 67.5 41.5t46.5 60.5t19.5 63t-12 49.5t-47.5 19.5q-27 0 -40 -20
t-16.5 -48.5t-3.5 -52.5h-27q-1 25 -5.5 53.5t-17 48t-38.5 19.5q-34 0 -47.5 -19.5t-10 -50t21 -63.5t45.5 -60.5t65 -40.5z" />
    <glyph glyph-name="uni0308" unicode="&#x308;" 
d="M107 671q-37 0 -49.5 18.5t-12.5 43.5q0 24 12.5 42t49.5 18t48.5 -18t11.5 -42q0 -25 -11.5 -43.5t-48.5 -18.5zM288 671q-36 0 -49 18.5t-13 43.5q0 24 13 42t49 18q37 0 49 -18t12 -42q0 -25 -12 -43.5t-49 -18.5z" />
    <glyph glyph-name="uni0307" unicode="&#x307;" 
d="M107 678q-37 0 -49.5 18.5t-12.5 43.5q0 23 12.5 41.5t49.5 18.5t48.5 -18.5t11.5 -41.5q0 -25 -11.5 -43.5t-48.5 -18.5z" />
    <glyph glyph-name="gravecomb" unicode="&#x300;" 
d="M120 632l-85 95v18h86l45 -100v-13h-46z" />
    <glyph glyph-name="acutecomb" unicode="&#x301;" 
d="M81 632h-46v13l45 100h86v-18z" />
    <glyph glyph-name="uni030B" unicode="&#x30b;" 
d="M32 654l72 148l81 -40l-106 -130zM203 654l72 148l81 -40l-107 -130z" />
    <glyph glyph-name="uni0302" unicode="&#x302;" 
d="M88 671v8l118 109h43l118 -109v-8h-91l-46 51h-5l-44 -51h-93z" />
    <glyph glyph-name="uni030C" unicode="&#x30c;" 
d="M52 775h105l57 -75l59 75h103v-16l-140 -120h-44l-140 121v15z" />
    <glyph glyph-name="uni0306" unicode="&#x306;" 
d="M186 692q-62 0 -97 28.5t-35 76.5h72q0 -28 17 -38t43 -10q25 0 42 9.5t17 38.5h72q0 -48 -34 -76.5t-97 -28.5z" />
    <glyph glyph-name="uni030A" unicode="&#x30a;" 
d="M132 589q-50 0 -74.5 26.5t-24.5 70.5q0 46 24.5 73.5t74.5 27.5t76 -27.5t26 -73.5q0 -42 -26 -69.5t-76 -27.5zM131 648q21 0 31 11.5t10 29.5q0 17 -10 29t-31 12q-20 0 -30.5 -12.5t-10.5 -28.5q0 -18 11 -29.5t30 -11.5z" />
    <glyph glyph-name="tildecomb" unicode="&#x303;" 
d="M244 631q-26 0 -41 8.5t-24.5 19.5t-18 19.5t-22.5 8.5q-16 0 -19.5 -13.5t-2.5 -39.5h-61q0 14 1 32.5t7.5 37t22.5 31t46 12.5q25 0 40.5 -8.5t25 -20t18.5 -20t22 -8.5q16 0 19 14.5t3 39.5h60q1 -24 -3 -50t-20.5 -44.5t-52.5 -18.5z" />
    <glyph glyph-name="uni0304" unicode="&#x304;" 
d="M40 729v71h275v-71h-275z" />
    <glyph glyph-name="hookabovecomb" unicode="&#x309;" 
d="M94 603v15q6 13 21.5 22.5t29 20t13.5 28.5q0 16 -15 21.5t-33 0t-25 -24.5l-42 27q7 27 27 42.5t45.5 20t49.5 -2.5t39.5 -25.5t15.5 -47.5q0 -30 -13 -45.5t-27.5 -26.5t-19.5 -25h-66z" />
    <glyph glyph-name="uni0312" unicode="&#x312;" 
d="M98 682q30 0 42 -16t12 -37q0 -22 -11.5 -37.5t-40.5 -15.5q-27 0 -39.5 15t-12.5 37v0v2v0v1v1v1q1 13 4.5 40t15 56t35 49.5t62.5 20.5v-84q-28 0 -44 -10t-24 -23h1z" />
    <glyph glyph-name="uni031B" unicode="&#x31b;" 
d="M44 598l1 60h41q22 0 25.5 8.5t4.5 41.5h71q0 -62 -23.5 -86t-86.5 -24h-33z" />
    <glyph glyph-name="dotbelowcomb" unicode="&#x323;" 
d="M98 -126q-31 0 -42 16t-11 38q0 20 11 35.5t42 15.5q32 0 42 -15.5t10 -35.5q0 -22 -10 -38t-42 -16z" />
    <glyph glyph-name="uni0326" unicode="&#x326;" 
d="M54 -264v67h25q25 0 35 8t10 27q-37 -1 -52.5 15.5t-15.5 41.5q0 24 13 40.5t45 16.5q26 0 41 -15.5t15 -62.5q0 -56 -20.5 -97t-69.5 -41h-26z" />
    <glyph glyph-name="uni0327" unicode="&#x327;" 
d="M37 -119l31 49q10 -10 31 -17.5t43.5 -9t38 4.5t14.5 24q0 14 -14 20t-33 3t-33 -15l-43 23l43 91l47 -18l-37 -61q14 12 37 16.5t46.5 0t39.5 -20t16 -43.5q0 -32 -22 -52t-57 -26.5t-74.5 1t-73.5 30.5z" />
    <glyph glyph-name="uni0328" unicode="&#x328;" 
d="M143 -199q-37 0 -68.5 21t-31.5 67q0 30 15 53t37.5 40t45 28.5t38 17l15.5 5.5v-46l-11.5 -5.5t-27 -16t-27 -25.5t-11.5 -34q0 -32 34 -32q15 0 24.5 7.5t14.5 14.5l5 7l54 -48l-11 -13.5t-35 -27t-60 -13.5z" />
    <glyph glyph-name="acute" unicode="&#xb4;" horiz-adv-x="600" 
d="M81 632h-46v13l45 100h86v-18z" />
    <glyph glyph-name="breve" unicode="&#x2d8;" horiz-adv-x="600" 
d="M186 692q-62 0 -97 28.5t-35 76.5h72q0 -28 17 -38t43 -10q25 0 42 9.5t17 38.5h72q0 -48 -34 -76.5t-97 -28.5z" />
    <glyph glyph-name="caron" unicode="&#x2c7;" horiz-adv-x="428" 
d="M52 775h105l57 -91l59 91h103l-140 -136h-44z" />
    <glyph glyph-name="cedilla" unicode="&#xb8;" horiz-adv-x="301" 
d="M37 -119l31 49q10 -10 31 -17.5t43.5 -9t38 4.5t14.5 24q0 14 -14 20t-33 3t-33 -15l-43 23l43 91l47 -18l-37 -61q14 12 37 16.5t46.5 0t39.5 -20t16 -43.5q0 -32 -22 -52t-57 -26.5t-74.5 1t-73.5 30.5z" />
    <glyph glyph-name="circumflex" unicode="&#x2c6;" horiz-adv-x="528" 
d="M88 671v8l118 109h43l118 -109v-8h-91l-46 51h-5l-44 -51h-93z" />
    <glyph glyph-name="dieresis" unicode="&#xa8;" horiz-adv-x="600" 
d="M107 671q-37 0 -49.5 18.5t-12.5 43.5q0 24 12.5 42t49.5 18t48.5 -18t11.5 -42q0 -25 -11.5 -43.5t-48.5 -18.5zM288 671q-36 0 -49 18.5t-13 43.5q0 24 13 42t49 18q37 0 49 -18t12 -42q0 -25 -12 -43.5t-49 -18.5z" />
    <glyph glyph-name="dotaccent" unicode="&#x2d9;" horiz-adv-x="600" 
d="M107 678q-37 0 -49.5 18.5t-12.5 43.5q0 23 12.5 41.5t49.5 18.5t48.5 -18.5t11.5 -41.5q0 -25 -11.5 -43.5t-48.5 -18.5z" />
    <glyph glyph-name="grave" unicode="`" horiz-adv-x="600" 
d="M120 632l-85 95v18h86l45 -100v-13h-46z" />
    <glyph glyph-name="macron" unicode="&#xaf;" horiz-adv-x="355" 
d="M40 729v71h275v-71h-275z" />
    <glyph glyph-name="ring" unicode="&#x2da;" horiz-adv-x="600" 
d="M132 589q-50 0 -74.5 26.5t-24.5 70.5q0 46 24.5 73.5t74.5 27.5t76 -27.5t26 -73.5q0 -42 -26 -69.5t-76 -27.5zM131 648q21 0 31 11.5t10 29.5q0 17 -10 29t-31 12q-20 0 -30.5 -12.5t-10.5 -28.5q0 -18 11 -29.5t30 -11.5z" />
    <glyph glyph-name="tilde" unicode="&#x2dc;" horiz-adv-x="600" 
d="M244 631q-26 0 -41 8.5t-24.5 19.5t-18 19.5t-22.5 8.5q-16 0 -19.5 -13.5t-2.5 -39.5h-61q0 14 1 32.5t7.5 37t22.5 31t46 12.5q25 0 40.5 -8.5t25 -20t18.5 -20t22 -8.5q16 0 19 14.5t3 39.5h60q1 -24 -3 -50t-20.5 -44.5t-52.5 -18.5z" />
    <glyph glyph-name="uni03060301" 
d="M186 692q-62 0 -97 28.5t-35 76.5h72q0 -28 17 -38t43 -10q25 0 42 9.5t17 38.5h72q0 -48 -34 -76.5t-97 -28.5zM207 815h-46v13l45 100h86v-18z" />
    <glyph glyph-name="uni03060300" 
d="M207 692q-62 0 -97 28.5t-35 76.5h72q0 -28 17 -38t43 -10q25 0 42 9.5t17 38.5h72q0 -48 -34 -76.5t-97 -28.5zM181 815l-85 95v18h86l45 -100v-13h-46z" />
    <glyph glyph-name="uni03060309" 
d="M186 692q-62 0 -97 28.5t-35 76.5h72q0 -28 17 -38t43 -10q25 0 42 9.5t17 38.5h72q0 -48 -34 -76.5t-97 -28.5zM154 813v15q6 13 21.5 22.5t29 20t13.5 28.5q0 16 -15 21.5t-33 0t-25 -24.5l-42 27q7 27 27 42.5t45.5 20t49.5 -2.5t39.5 -25.5t15.5 -47.5
q0 -30 -13 -45.5t-27.5 -26.5t-19.5 -25h-66z" />
    <glyph glyph-name="uni03060303" 
d="M194 692q-62 0 -97 28.5t-35 76.5h72q0 -28 17 -38t43 -10q25 0 42 9.5t17 38.5h72q0 -48 -34 -76.5t-97 -28.5zM248 848q-26 0 -41 8.5t-24.5 19.5t-18 19.5t-22.5 8.5q-16 0 -19.5 -13.5t-2.5 -39.5h-61q0 14 1 32.5t7.5 37t22.5 31t46 12.5q25 0 40.5 -8.5t25 -20
t18.5 -20t22 -8.5q16 0 19 14.5t3 39.5h60q1 -24 -3 -50t-20.5 -44.5t-52.5 -18.5z" />
    <glyph glyph-name="uni03020301" 
d="M71 667v8l118 109h43l118 -109v-8h-91l-46 51h-5l-44 -51h-93zM355 761h-46v13l45 100h86v-18z" />
    <glyph glyph-name="uni03020300" 
d="M142 760l-85 95v18h86l45 -100v-13h-46zM161 667v8l118 109h43l118 -109v-8h-91l-46 51h-5l-44 -51h-93z" />
    <glyph glyph-name="uni03020309" 
d="M71 671v8l118 109h43l118 -109v-8h-91l-46 51h-5l-44 -51h-93zM298 764v15q6 13 21.5 22.5t29 20t13.5 28.5q0 16 -15 21.5t-33 0t-25 -24.5l-42 27q7 27 27 42.5t45.5 20t49.5 -2.5t39.5 -25.5t15.5 -47.5q0 -30 -13 -45.5t-27.5 -26.5t-19.5 -25h-66z" />
    <glyph glyph-name="uni03020303" 
d="M85 671v8l118 109h43l118 -109v-8h-91l-46 51h-5l-44 -51h-93zM276 821q-26 0 -41 8.5t-24.5 19.5t-18 19.5t-22.5 8.5q-16 0 -19.5 -13.5t-2.5 -39.5h-61q0 14 1 32.5t7.5 37t22.5 31t46 12.5q25 0 40.5 -8.5t25 -20t18.5 -20t22 -8.5q16 0 19 14.5t3 39.5h60
q1 -24 -3 -50t-20.5 -44.5t-52.5 -18.5z" />
    </font>
</defs>
</svg>
