<?xml version="1.0" standalone="no"?>
<!DOCTYPE svg PUBLIC "-//W3C//DTD SVG 1.1//EN" "http://www.w3.org/Graphics/SVG/1.1/DTD/svg11.dtd" >
<svg xmlns="http://www.w3.org/2000/svg" xmlns:xlink="http://www.w3.org/1999/xlink" version="1.1">
<metadata>
Created by FontForge 20190801 at Wed Jun 19 21:13:45 2019
 By Jimmy Wärting
Copyright 2019 The Darkergrotesque Project Authors (https://github.com/bettergui/DarkerGrotesque)
</metadata>
<defs>
<font id="DarkerGrotesque-ExtraBold" horiz-adv-x="468" >
  <font-face 
    font-family="Darker Grotesque ExtraBold"
    font-weight="800"
    font-stretch="normal"
    units-per-em="1000"
    panose-1="0 0 0 0 0 0 0 0 0 0"
    ascent="800"
    descent="-200"
    x-height="412"
    cap-height="563"
    bbox="-45 -296 1805 1060"
    underline-thickness="50"
    underline-position="-125"
    unicode-range="U+000D-240D"
  />
<missing-glyph horiz-adv-x="500" 
d="M50 -296h400v1356h-400v-1356zM100 -246v1256h300v-1256h-300z" />
    <glyph glyph-name="w_w_w.liga" unicode="www" horiz-adv-x="1830" 
d="M96 0l-88 395v19h119l56 -313h2l79 313h104l83 -313h2l56 313h118v-19l-91 -395h-168l-51 205h-2l-48 -205h-171zM685 0l-88 395v19h119l56 -313h2l79 313h104l83 -313h2l56 313h118v-19l-91 -395h-168l-51 205h-2l-48 -205h-171zM1274 0l-88 395v19h119l56 -313h2
l79 313h104l83 -313h2l56 313h118v-19l-91 -395h-168l-51 205h-2l-48 -205h-171z" />
    <glyph glyph-name=".notdef" horiz-adv-x="500" 
d="M50 -296h400v1356h-400v-1356zM100 -246v1256h300v-1256h-300z" />
    <glyph glyph-name="A" unicode="A" horiz-adv-x="579" 
d="M18 0l171 563h199l176 -563h-129l-42 150h-204l-41 -150h-130zM291 513l-76 -270h152z" />
    <glyph glyph-name="Aacute" unicode="&#xc1;" horiz-adv-x="579" 
d="M18 0l171 563h199l176 -563h-129l-42 150h-204l-41 -150h-130zM291 513l-76 -270h152zM312 610h-54v15l42 99h101v-20z" />
    <glyph glyph-name="Abreve" unicode="&#x102;" horiz-adv-x="579" 
d="M18 0l171 563h199l176 -563h-129l-42 150h-204l-41 -150h-130zM291 513l-76 -270h152zM292 624q-66 0 -103 30t-37 82h84q0 -27 16 -37t39 -10q24 0 39 9.5t15 37.5h85q0 -52 -35.5 -82t-102.5 -30z" />
    <glyph glyph-name="uni1EAE" unicode="&#x1eae;" horiz-adv-x="579" 
d="M18 0l171 563h199l176 -563h-129l-42 150h-204l-41 -150h-130zM291 513l-76 -270h152zM292 624q-66 0 -103 30t-37 82h84q0 -27 16 -37t39 -10q24 0 39 9.5t15 37.5h85q0 -52 -35.5 -82t-102.5 -30zM316 756h-54v15l42 99h101v-20z" />
    <glyph glyph-name="uni1EB6" unicode="&#x1eb6;" horiz-adv-x="579" 
d="M18 0l171 563h199l176 -563h-129l-42 150h-204l-41 -150h-130zM291 513l-76 -270h152zM285 -187q-36 0 -48 17.5t-12 42.5q0 23 12 40.5t48 17.5q35 0 46.5 -17.5t11.5 -40.5q0 -25 -11.5 -42.5t-46.5 -17.5zM292 625q-66 0 -103 30t-37 82h84q0 -27 16 -37t39 -10
q24 0 39 9.5t15 37.5h85q0 -52 -35.5 -82t-102.5 -30z" />
    <glyph glyph-name="uni1EB0" unicode="&#x1eb0;" horiz-adv-x="579" 
d="M18 0l171 563h199l176 -563h-129l-42 150h-204l-41 -150h-130zM291 513l-76 -270h152zM292 625q-66 0 -103 30t-37 82h84q0 -27 16 -37t39 -10q24 0 39 9.5t15 37.5h85q0 -52 -35.5 -82t-102.5 -30zM263 757l-88 94v20h101l42 -99v-15h-55z" />
    <glyph glyph-name="uni1EB2" unicode="&#x1eb2;" horiz-adv-x="579" 
d="M18 0l171 563h199l176 -563h-129l-42 150h-204l-41 -150h-130zM291 513l-76 -270h152zM291 625q-66 0 -103 30t-37 82h84q0 -27 16 -37t39 -10q24 0 39 9.5t15 37.5h85q0 -52 -35.5 -82t-102.5 -30zM256 755v18q6 13 22 22t30 19.5t14 28.5q0 16 -15.5 21.5t-33.5 -0.5
t-26 -23l-47 32q8 29 30 45.5t50 21t54 -3t43 -27.5t17 -53q0 -31 -13 -47.5t-28.5 -27.5t-21.5 -26h-75z" />
    <glyph glyph-name="uni1EB4" unicode="&#x1eb4;" horiz-adv-x="579" 
d="M18 0l171 563h199l176 -563h-129l-42 150h-204l-41 -150h-130zM291 513l-76 -270h152zM292 625q-66 0 -103 30t-37 82h84q0 -27 16 -37t39 -10q24 0 39 9.5t15 37.5h85q0 -52 -35.5 -82t-102.5 -30zM346 786q-27 0 -42.5 8.5t-25 20t-18 20t-21.5 8.5q-16 0 -19 -13.5
t-3 -39.5h-69q0 13 0.5 33t7.5 40.5t24.5 34.5t50.5 14q27 0 42.5 -8.5t25.5 -20t19 -20t22 -8.5q15 0 18 14.5t3 39.5h69q0 -24 -4 -53t-21.5 -49.5t-58.5 -20.5z" />
    <glyph glyph-name="Acircumflex" unicode="&#xc2;" horiz-adv-x="579" 
d="M18 0l171 563h199l176 -563h-129l-42 150h-204l-41 -150h-130zM291 513l-76 -270h152zM143 618v10l123 111h51l121 -111v-10h-105l-39 44h-5l-37 -44h-109z" />
    <glyph glyph-name="uni1EA4" unicode="&#x1ea4;" horiz-adv-x="579" 
d="M18 0l171 563h199l176 -563h-129l-42 150h-204l-41 -150h-130zM291 513l-76 -270h152zM142 614v10l123 111h51l121 -111v-10h-105l-39 44h-5l-37 -44h-109zM441 711h-54v15l42 99h101v-20z" />
    <glyph glyph-name="uni1EAC" unicode="&#x1eac;" horiz-adv-x="579" 
d="M18 0l171 563h199l176 -563h-129l-42 150h-204l-41 -150h-130zM291 513l-76 -270h152zM283 -187q-36 0 -48 17.5t-12 42.5q0 23 12 40.5t48 17.5q35 0 46.5 -17.5t11.5 -40.5q0 -25 -11.5 -42.5t-46.5 -17.5zM143 616v10l123 111h51l121 -111v-10h-105l-39 44h-5l-37 -44
h-109z" />
    <glyph glyph-name="uni1EA6" unicode="&#x1ea6;" horiz-adv-x="579" 
d="M18 0l171 563h199l176 -563h-129l-42 150h-204l-41 -150h-130zM291 513l-76 -270h152zM123 711l-88 94v20h101l42 -99v-15h-55zM142 614v10l123 111h51l121 -111v-10h-105l-39 44h-5l-37 -44h-109z" />
    <glyph glyph-name="uni1EA8" unicode="&#x1ea8;" horiz-adv-x="579" 
d="M18 0l171 563h199l176 -563h-129l-42 150h-204l-41 -150h-130zM291 513l-76 -270h152zM142 616v10l123 111h51l121 -111v-10h-105l-39 44h-5l-37 -44h-109zM378 713v18q6 13 22 22t30 19.5t14 28.5q0 16 -15.5 21.5t-33.5 -0.5t-26 -23l-47 32q8 29 30 45.5t50 21t54 -3
t43 -27.5t17 -53q0 -31 -13 -47.5t-28.5 -27.5t-21.5 -26h-75z" />
    <glyph glyph-name="uni1EAA" unicode="&#x1eaa;" horiz-adv-x="579" 
d="M18 0l171 563h199l176 -563h-129l-42 150h-204l-41 -150h-130zM291 513l-76 -270h152zM142 616v10l123 111h51l121 -111v-10h-105l-39 44h-5l-37 -44h-109zM342 766q-27 0 -42.5 8.5t-25 20t-18 20t-21.5 8.5q-16 0 -19 -13.5t-3 -39.5h-69q0 13 0.5 33t7.5 40.5
t24.5 34.5t50.5 14q27 0 42.5 -8.5t25.5 -20t19 -20t22 -8.5q15 0 18 14.5t3 39.5h69q0 -24 -4 -53t-21.5 -49.5t-58.5 -20.5z" />
    <glyph glyph-name="Adieresis" unicode="&#xc4;" horiz-adv-x="579" 
d="M18 0l171 563h199l176 -563h-129l-42 150h-204l-41 -150h-130zM291 513l-76 -270h152zM195 625q-41 0 -55 20.5t-14 48.5q0 26 14 46.5t55 20.5t54 -20.5t13 -46.5q0 -28 -13 -48.5t-54 -20.5zM389 625q-41 0 -55 20.5t-14 48.5q0 26 14 46.5t55 20.5t54 -20.5t13 -46.5
q0 -28 -13 -48.5t-54 -20.5z" />
    <glyph glyph-name="uni1EA0" unicode="&#x1ea0;" horiz-adv-x="579" 
d="M18 0l171 563h199l176 -563h-129l-42 150h-204l-41 -150h-130zM291 513l-76 -270h152zM283 -187q-36 0 -48 17.5t-12 42.5q0 23 12 40.5t48 17.5q35 0 46.5 -17.5t11.5 -40.5q0 -25 -11.5 -42.5t-46.5 -17.5z" />
    <glyph glyph-name="Agrave" unicode="&#xc0;" horiz-adv-x="579" 
d="M18 0l171 563h199l176 -563h-129l-42 150h-204l-41 -150h-130zM291 513l-76 -270h152zM263 610l-88 94v20h101l42 -99v-15h-55z" />
    <glyph glyph-name="uni1EA2" unicode="&#x1ea2;" horiz-adv-x="579" 
d="M18 0l171 563h199l176 -563h-129l-42 150h-204l-41 -150h-130zM291 513l-76 -270h152zM255 620v18q6 13 22 22t30 19.5t14 28.5q0 16 -15.5 21.5t-33.5 -0.5t-26 -23l-47 32q8 29 30 45.5t50 21t54 -3t43 -27.5t17 -53q0 -31 -13 -47.5t-28.5 -27.5t-21.5 -26h-75z" />
    <glyph glyph-name="Amacron" unicode="&#x100;" horiz-adv-x="600" 
d="M18 0l171 563h199l176 -563h-129l-42 150h-204l-41 -150h-130zM291 513l-76 -270h152zM147 624v83h289v-83h-289z" />
    <glyph glyph-name="Aogonek" unicode="&#x104;" horiz-adv-x="594" 
d="M18 0l171 563h199l159 -509v0l17 -54l-14.5 -4.5t-33.5 -13.5t-33 -22.5t-14 -29.5q0 -27 29 -27q13 0 22.5 6.5t14.5 13.5l5 7l63 -56l-12.5 -14t-38 -28.5t-65.5 -14.5q-24 0 -48.5 9t-41 29t-16.5 54q0 29 15.5 52t38.5 40l-42 149h-204l-41 -150h-130zM291 513
l-76 -270h152z" />
    <glyph glyph-name="Aring" unicode="&#xc5;" horiz-adv-x="579" 
d="M18 0l171 563h199l176 -563h-129l-42 150h-204l-41 -150h-130zM291 513l-76 -270h152zM282 612q-53 0 -78 28t-25 74q0 47 24.5 75.5t78.5 28.5q52 0 78.5 -28.5t26.5 -75.5q0 -44 -26.5 -73t-78.5 -29zM280 682q19 0 27.5 9.5t8.5 24.5t-8.5 26t-27.5 11
q-18 0 -26.5 -11t-8.5 -26t9 -24.5t26 -9.5z" />
    <glyph glyph-name="Atilde" unicode="&#xc3;" horiz-adv-x="579" 
d="M18 0l171 563h199l176 -563h-129l-42 150h-204l-41 -150h-130zM291 513l-76 -270h152zM347 621q-27 0 -42.5 8.5t-25 20t-18 20t-21.5 8.5q-16 0 -19 -13.5t-3 -39.5h-69q0 13 0.5 33t7.5 40.5t24.5 34.5t50.5 14q27 0 42.5 -8.5t25.5 -20t19 -20t22 -8.5q15 0 18 14.5
t3 39.5h69q0 -24 -4 -53t-21.5 -49.5t-58.5 -20.5z" />
    <glyph glyph-name="AE" unicode="&#xc6;" horiz-adv-x="867" 
d="M18 0l300 563h502v-103h-295v-126h224v-98h-224v-139h306v-97h-424v150h-183l-76 -150h-130zM271 243h136v268z" />
    <glyph glyph-name="B" unicode="B" horiz-adv-x="572" 
d="M53 0v563h233q27 0 65 -3.5t74.5 -17t60.5 -43.5t24 -84q0 -32 -12.5 -59.5t-46.5 -45t-96 -20.5v-4q72 -2 111.5 -20t55 -47.5t15.5 -65.5q0 -45 -17 -73.5t-45 -45t-61.5 -23.5t-66 -9t-59.5 -2h-235zM171 336h99q31 0 58.5 3t45 16.5t17.5 45.5q0 31 -17 44.5
t-44.5 16.5t-58.5 3h-100v-129zM172 97h105q36 0 67 3.5t50 19t19 50.5t-19.5 51t-51 20t-67.5 4h-103v-148z" />
    <glyph glyph-name="C" unicode="C" horiz-adv-x="605" 
d="M302 -10q-80 0 -145 32.5t-103 96.5t-37 159q0 94 38 160t103 100.5t147 34.5q81 0 138 -29t89.5 -78t42.5 -108h-125q-6 42 -30 63.5t-55.5 29.5t-59.5 8q-83 0 -126 -45t-43 -127q0 -88 41.5 -136t126.5 -48q29 0 61 9t56.5 32.5t30.5 65.5h126q-11 -61 -44 -110.5
t-91 -79.5t-141 -30z" />
    <glyph glyph-name="Cacute" unicode="&#x106;" horiz-adv-x="605" 
d="M302 -10q-80 0 -145 32.5t-103 96.5t-37 159q0 94 38 160t103 100.5t147 34.5q81 0 138 -29t89.5 -78t42.5 -108h-125q-6 42 -30 63.5t-55.5 29.5t-59.5 8q-83 0 -126 -45t-43 -127q0 -88 41.5 -136t126.5 -48q29 0 61 9t56.5 32.5t30.5 65.5h126q-11 -61 -44 -110.5
t-91 -79.5t-141 -30zM338 610h-54v15l42 99h101v-20z" />
    <glyph glyph-name="Ccaron" unicode="&#x10c;" horiz-adv-x="600" 
d="M302 -10q-80 0 -145 32.5t-103 96.5t-37 159q0 94 38 160t103 100.5t147 34.5q81 0 138 -29t89.5 -78t42.5 -108h-125q-6 42 -30 63.5t-55.5 29.5t-59.5 8q-83 0 -126 -45t-43 -127q0 -88 41.5 -136t126.5 -48q29 0 61 9t56.5 32.5t30.5 65.5h126q-11 -61 -44 -110.5
t-91 -79.5t-141 -30zM144 753h124l45 -85l46 85h122l-143 -136h-51z" />
    <glyph glyph-name="Ccedilla" unicode="&#xc7;" horiz-adv-x="605" 
d="M302 -10q-80 0 -145 32.5t-103 96.5t-37 159q0 94 38 160t103 100.5t147 34.5q81 0 138 -29t89.5 -78t42.5 -108h-125q-6 42 -30 63.5t-55.5 29.5t-59.5 8q-83 0 -126 -45t-43 -127q0 -88 41.5 -136t126.5 -48q29 0 61 9t56.5 32.5t30.5 65.5h126q-11 -61 -44 -110.5
t-91 -79.5t-141 -30zM191 -146l35 56q10 -8 30.5 -15t42.5 -9.5t37.5 2.5t15.5 22q0 12 -13 18t-30.5 4t-30.5 -14l-50 24l45 97l53 -21l-37 -61q15 12 39 15.5t48 -2t40 -21.5t16 -44q0 -33 -23 -54t-60 -28t-78.5 0.5t-79.5 30.5z" />
    <glyph glyph-name="Cdotaccent" unicode="&#x10a;" horiz-adv-x="605" 
d="M302 -10q-80 0 -145 32.5t-103 96.5t-37 159q0 94 38 160t103 100.5t147 34.5q81 0 138 -29t89.5 -78t42.5 -108h-125q-6 42 -30 63.5t-55.5 29.5t-59.5 8q-83 0 -126 -45t-43 -127q0 -88 41.5 -136t126.5 -48q29 0 61 9t56.5 32.5t30.5 65.5h126q-11 -61 -44 -110.5
t-91 -79.5t-141 -30zM314 624q-41 0 -55 20.5t-14 48.5q0 26 14 46.5t55 20.5t54 -20.5t13 -46.5q0 -28 -13 -48.5t-54 -20.5z" />
    <glyph glyph-name="D" unicode="D" horiz-adv-x="616" 
d="M577 282q0 -111 -44 -172.5t-124.5 -85.5t-188.5 -24h-158v563h158q108 0 188.5 -31.5t124.5 -93.5t44 -156zM181 99h75q59 0 102.5 14.5t67 54t23.5 115.5q0 88 -52 132t-141 44h-75v-360z" />
    <glyph glyph-name="Eth" unicode="&#xd0;" horiz-adv-x="600" 
d="M62 0v247h-62v79h62v237h158q108 0 188.5 -31.5t124.5 -93.5t44 -156q0 -111 -44 -172.5t-124.5 -85.5t-188.5 -24h-158zM181 99h75q59 0 102.5 14.5t67 54t23.5 115.5q0 88 -52 132t-141 44h-75v-133h130v-79h-130v-148z" />
    <glyph glyph-name="Dcaron" unicode="&#x10e;" horiz-adv-x="616" 
d="M577 282q0 -111 -44 -172.5t-124.5 -85.5t-188.5 -24h-158v563h158q108 0 188.5 -31.5t124.5 -93.5t44 -156zM181 99h75q59 0 102.5 14.5t67 54t23.5 115.5q0 88 -52 132t-141 44h-75v-360zM96 753h124l45 -85l46 85h122l-143 -136h-51z" />
    <glyph glyph-name="Dcroat" unicode="&#x110;" horiz-adv-x="600" 
d="M62 0v247h-62v79h62v237h158q108 0 188.5 -31.5t124.5 -93.5t44 -156q0 -111 -44 -172.5t-124.5 -85.5t-188.5 -24h-158zM181 99h75q59 0 102.5 14.5t67 54t23.5 115.5q0 88 -52 132t-141 44h-75v-133h130v-79h-130v-148z" />
    <glyph glyph-name="E" unicode="E" horiz-adv-x="512" 
d="M170 97h306v-97h-424v563h414v-103h-296v-126h224v-98h-224v-139z" />
    <glyph glyph-name="Eacute" unicode="&#xc9;" horiz-adv-x="512" 
d="M170 97h306v-97h-424v563h414v-103h-296v-126h224v-98h-224v-139zM265 610h-54v15l42 99h101v-20z" />
    <glyph glyph-name="Ecaron" unicode="&#x11a;" horiz-adv-x="512" 
d="M170 97h306v-97h-424v563h414v-103h-296v-126h224v-98h-224v-139zM87 753h124l45 -85l46 85h122l-143 -136h-51z" />
    <glyph glyph-name="Ecircumflex" unicode="&#xca;" horiz-adv-x="512" 
d="M170 97h306v-97h-424v563h414v-103h-296v-126h224v-98h-224v-139zM106 620v10l123 111h51l121 -111v-10h-105l-39 44h-5l-37 -44h-109z" />
    <glyph glyph-name="uni1EBE" unicode="&#x1ebe;" horiz-adv-x="512" 
d="M170 97h306v-97h-424v563h414v-103h-296v-126h224v-98h-224v-139zM106 618v10l123 111h51l121 -111v-10h-105l-39 44h-5l-37 -44h-109zM405 715h-54v15l42 99h101v-20z" />
    <glyph glyph-name="uni1EC6" unicode="&#x1ec6;" horiz-adv-x="512" 
d="M170 97h306v-97h-424v563h414v-103h-296v-126h224v-98h-224v-139zM252 -188q-36 0 -48 17.5t-12 42.5q0 23 12 40.5t48 17.5q35 0 46.5 -17.5t11.5 -40.5q0 -25 -11.5 -42.5t-46.5 -17.5zM106 620v10l123 111h51l121 -111v-10h-105l-39 44h-5l-37 -44h-109z" />
    <glyph glyph-name="uni1EC0" unicode="&#x1ec0;" horiz-adv-x="512" 
d="M170 97h306v-97h-424v563h414v-103h-296v-126h224v-98h-224v-139zM87 716l-88 94v20h101l42 -99v-15h-55zM106 619v10l123 111h51l121 -111v-10h-105l-39 44h-5l-37 -44h-109z" />
    <glyph glyph-name="uni1EC2" unicode="&#x1ec2;" horiz-adv-x="512" 
d="M170 97h306v-97h-424v563h414v-103h-296v-126h224v-98h-224v-139zM106 620v10l123 111h51l121 -111v-10h-105l-39 44h-5l-37 -44h-109zM342 717v18q6 13 22 22t30 19.5t14 28.5q0 16 -15.5 21.5t-33.5 -0.5t-26 -23l-47 32q8 29 30 45.5t50 21t54 -3t43 -27.5t17 -53
q0 -31 -13 -47.5t-28.5 -27.5t-21.5 -26h-75z" />
    <glyph glyph-name="uni1EC4" unicode="&#x1ec4;" horiz-adv-x="512" 
d="M170 97h306v-97h-424v563h414v-103h-296v-126h224v-98h-224v-139zM106 621v10l123 111h51l121 -111v-10h-105l-39 44h-5l-37 -44h-109zM306 771q-27 0 -42.5 8.5t-25 20t-18 20t-21.5 8.5q-16 0 -19 -13.5t-3 -39.5h-69q0 13 0.5 33t7.5 40.5t24.5 34.5t50.5 14
q27 0 42.5 -8.5t25.5 -20t19 -20t22 -8.5q15 0 18 14.5t3 39.5h69q0 -24 -4 -53t-21.5 -49.5t-58.5 -20.5z" />
    <glyph glyph-name="Edieresis" unicode="&#xcb;" horiz-adv-x="512" 
d="M170 97h306v-97h-424v563h414v-103h-296v-126h224v-98h-224v-139zM168 625q-41 0 -55 20.5t-14 48.5q0 26 14 46.5t55 20.5t54 -20.5t13 -46.5q0 -28 -13 -48.5t-54 -20.5zM362 625q-41 0 -55 20.5t-14 48.5q0 26 14 46.5t55 20.5t54 -20.5t13 -46.5q0 -28 -13 -48.5
t-54 -20.5z" />
    <glyph glyph-name="Edotaccent" unicode="&#x116;" horiz-adv-x="512" 
d="M170 97h306v-97h-424v563h414v-103h-296v-126h224v-98h-224v-139zM264 624q-41 0 -55 20.5t-14 48.5q0 26 14 46.5t55 20.5t54 -20.5t13 -46.5q0 -28 -13 -48.5t-54 -20.5z" />
    <glyph glyph-name="uni1EB8" unicode="&#x1eb8;" horiz-adv-x="512" 
d="M170 97h306v-97h-424v563h414v-103h-296v-126h224v-98h-224v-139zM255 -188q-36 0 -48 17.5t-12 42.5q0 23 12 40.5t48 17.5q35 0 46.5 -17.5t11.5 -40.5q0 -25 -11.5 -42.5t-46.5 -17.5z" />
    <glyph glyph-name="Egrave" unicode="&#xc8;" horiz-adv-x="512" 
d="M170 97h306v-97h-424v563h414v-103h-296v-126h224v-98h-224v-139zM212 610l-88 94v20h101l42 -99v-15h-55z" />
    <glyph glyph-name="uni1EBA" unicode="&#x1eba;" horiz-adv-x="512" 
d="M170 97h306v-97h-424v563h414v-103h-296v-126h224v-98h-224v-139zM220 620v18q6 13 22 22t30 19.5t14 28.5q0 16 -15.5 21.5t-33.5 -0.5t-26 -23l-47 32q8 29 30 45.5t50 21t54 -3t43 -27.5t17 -53q0 -31 -13 -47.5t-28.5 -27.5t-21.5 -26h-75z" />
    <glyph glyph-name="Emacron" unicode="&#x112;" horiz-adv-x="512" 
d="M170 97h306v-97h-424v563h414v-103h-296v-126h224v-98h-224v-139zM110 624v83h289v-83h-289z" />
    <glyph glyph-name="Eogonek" unicode="&#x118;" horiz-adv-x="512" 
d="M170 97h306v-97l-11.5 -4.5t-26 -13.5t-26 -22.5t-11.5 -29.5q0 -27 29 -27q13 0 22.5 6.5t14.5 13.5l5 7l63 -56l-12.5 -14t-38 -28.5t-64.5 -14.5q-25 0 -49.5 9t-40.5 29t-16 54q0 29 15 51.5t37 39.5h-314v563h414v-103h-296v-126h224v-98h-224v-139z" />
    <glyph glyph-name="uni1EBC" unicode="&#x1ebc;" horiz-adv-x="512" 
d="M170 97h306v-97h-424v563h414v-103h-296v-126h224v-98h-224v-139zM311 626q-27 0 -42.5 8.5t-25 20t-18 20t-21.5 8.5q-16 0 -19 -13.5t-3 -39.5h-69q0 13 0.5 33t7.5 40.5t24.5 34.5t50.5 14q27 0 42.5 -8.5t25.5 -20t19 -20t22 -8.5q15 0 18 14.5t3 39.5h69
q0 -24 -4 -53t-21.5 -49.5t-58.5 -20.5z" />
    <glyph glyph-name="F" unicode="F" horiz-adv-x="472" 
d="M181 0h-118v563h406v-103h-288v-118h217v-97h-217v-245z" />
    <glyph glyph-name="G" unicode="G" horiz-adv-x="629" 
d="M290 -11q-83 0 -145 33t-95.5 97.5t-31.5 158.5q2 96 40 161.5t102.5 99.5t148.5 34q119 0 182 -50t85 -145l-117 -18q-9 38 -32.5 60t-54.5 31t-63 9q-90 0 -130.5 -48t-41.5 -125q0 -88 48.5 -134t138.5 -46q48 0 91.5 20t59.5 71h-107v87h219v-285h-81l-27 85h-2
q-17 -36 -64 -66t-123 -30z" />
    <glyph glyph-name="Gbreve" unicode="&#x11e;" horiz-adv-x="629" 
d="M290 -11q-83 0 -145 33t-95.5 97.5t-31.5 158.5q2 96 40 161.5t102.5 99.5t148.5 34q119 0 182 -50t85 -145l-117 -18q-9 38 -32.5 60t-54.5 31t-63 9q-90 0 -130.5 -48t-41.5 -125q0 -88 48.5 -134t138.5 -46q48 0 91.5 20t59.5 71h-107v87h219v-285h-81l-27 85h-2
q-17 -36 -64 -66t-123 -30zM308 625q-66 0 -103 30t-37 82h84q0 -27 16 -37t39 -10q24 0 39 9.5t15 37.5h85q0 -52 -35.5 -82t-102.5 -30z" />
    <glyph glyph-name="uni0122" unicode="&#x122;" horiz-adv-x="629" 
d="M290 -11q-83 0 -145 33t-95.5 97.5t-31.5 158.5q2 96 40 161.5t102.5 99.5t148.5 34q119 0 182 -50t85 -145l-117 -18q-9 38 -32.5 60t-54.5 31t-63 9q-90 0 -130.5 -48t-41.5 -125q0 -88 48.5 -134t138.5 -46q48 0 91.5 20t59.5 71h-107v87h219v-285h-81l-27 85h-2
q-17 -36 -64 -66t-123 -30zM245 -280v76h27q27 0 38.5 6.5t11.5 26.5q-43 -1 -59.5 18t-16.5 46t14.5 45.5t51.5 18.5q27 0 44.5 -17t17.5 -70q0 -40 -10 -74t-32 -55t-59 -21h-28z" />
    <glyph glyph-name="Gdotaccent" unicode="&#x120;" horiz-adv-x="629" 
d="M290 -11q-83 0 -145 33t-95.5 97.5t-31.5 158.5q2 96 40 161.5t102.5 99.5t148.5 34q119 0 182 -50t85 -145l-117 -18q-9 38 -32.5 60t-54.5 31t-63 9q-90 0 -130.5 -48t-41.5 -125q0 -88 48.5 -134t138.5 -46q48 0 91.5 20t59.5 71h-107v87h219v-285h-81l-27 85h-2
q-17 -36 -64 -66t-123 -30zM308 624q-41 0 -55 20.5t-14 48.5q0 26 14 46.5t55 20.5t54 -20.5t13 -46.5q0 -28 -13 -48.5t-54 -20.5z" />
    <glyph glyph-name="H" unicode="H" horiz-adv-x="592" 
d="M175 0h-121v563h121v-232h242v232h120v-563h-120v239h-242v-239z" />
    <glyph glyph-name="Hbar" unicode="&#x126;" horiz-adv-x="597" 
d="M54 0v409h-46v84h46v70h121v-70h242v70h120v-70h47v-84h-47v-409h-120v239h-242v-239h-121zM175 331h242v78h-242v-78z" />
    <glyph glyph-name="I" unicode="I" horiz-adv-x="397" 
d="M329 103v-103h-267v103h74v357h-74v103h267v-103h-73v-357h73z" />
    <glyph glyph-name="Iacute" unicode="&#xcd;" horiz-adv-x="397" 
d="M329 103v-103h-267v103h74v357h-74v103h267v-103h-73v-357h73zM213 610h-54v15l42 99h101v-20z" />
    <glyph glyph-name="Icircumflex" unicode="&#xce;" horiz-adv-x="397" 
d="M329 103v-103h-267v103h74v357h-74v103h267v-103h-73v-357h73zM45 620v10l123 111h51l121 -111v-10h-105l-39 44h-5l-37 -44h-109z" />
    <glyph glyph-name="Idieresis" unicode="&#xcf;" horiz-adv-x="397" 
d="M329 103v-103h-267v103h74v357h-74v103h267v-103h-73v-357h73zM98 624q-41 0 -55 20.5t-14 48.5q0 26 14 46.5t55 20.5t54 -20.5t13 -46.5q0 -28 -13 -48.5t-54 -20.5zM292 624q-41 0 -55 20.5t-14 48.5q0 26 14 46.5t55 20.5t54 -20.5t13 -46.5q0 -28 -13 -48.5
t-54 -20.5z" />
    <glyph glyph-name="Idotaccent" unicode="&#x130;" horiz-adv-x="397" 
d="M329 103v-103h-267v103h74v357h-74v103h267v-103h-73v-357h73zM126 662q-41 0 -55 20.5t-14 48.5q0 26 14 46.5t55 20.5t54 -20.5t13 -46.5q0 -28 -13 -48.5t-54 -20.5z" />
    <glyph glyph-name="uni1ECA" unicode="&#x1eca;" horiz-adv-x="397" 
d="M329 103v-103h-267v103h74v357h-74v103h267v-103h-73v-357h73zM189 -188q-36 0 -48 17.5t-12 42.5q0 23 12 40.5t48 17.5q35 0 46.5 -17.5t11.5 -40.5q0 -25 -11.5 -42.5t-46.5 -17.5z" />
    <glyph glyph-name="Igrave" unicode="&#xcc;" horiz-adv-x="397" 
d="M329 103v-103h-267v103h74v357h-74v103h267v-103h-73v-357h73zM153 610l-88 94v20h101l42 -99v-15h-55z" />
    <glyph glyph-name="uni1EC8" unicode="&#x1ec8;" horiz-adv-x="397" 
d="M329 103v-103h-267v103h74v357h-74v103h267v-103h-73v-357h73zM156 620v18q6 13 22 22t30 19.5t14 28.5q0 16 -15.5 21.5t-33.5 -0.5t-26 -23l-47 32q8 29 30 45.5t50 21t54 -3t43 -27.5t17 -53q0 -31 -13 -47.5t-28.5 -27.5t-21.5 -26h-75z" />
    <glyph glyph-name="Imacron" unicode="&#x12a;" horiz-adv-x="396" 
d="M329 103v-103h-267v103h74v357h-74v103h267v-103h-73v-357h73zM50 624v83h289v-83h-289z" />
    <glyph glyph-name="Iogonek" unicode="&#x12e;" horiz-adv-x="397" 
d="M200 -183q-25 0 -49.5 9t-40.5 29t-16 54q0 29 15 51.5t37 39.5h-84v103h74v357h-74v103h267v-103h-73v-357h73v-103h-73l-11 -4.5t-26 -13.5t-26.5 -22.5t-11.5 -29.5q0 -27 30 -27q13 0 22 6.5t14 13.5l5 7l63 -56l-12.5 -14t-38 -28.5t-64.5 -14.5z" />
    <glyph glyph-name="Itilde" unicode="&#x128;" horiz-adv-x="397" 
d="M329 103v-103h-267v103h74v357h-74v103h267v-103h-73v-357h73zM253 626q-27 0 -42.5 8.5t-25 20t-18 20t-21.5 8.5q-16 0 -19 -13.5t-3 -39.5h-69q0 13 0.5 33t7.5 40.5t24.5 34.5t50.5 14q27 0 42.5 -8.5t25.5 -20t19 -20t22 -8.5q15 0 18 14.5t3 39.5h69q0 -24 -4 -53
t-21.5 -49.5t-58.5 -20.5z" />
    <glyph glyph-name="J" unicode="J" horiz-adv-x="489" 
d="M234 -10q-99 0 -148 51.5t-49 141.5h114q0 -34 16 -61.5t63 -27.5q39 0 58 24t19 91v262h-116v92h237v-334q0 -74 -14.5 -127.5t-56 -82.5t-123.5 -29z" />
    <glyph glyph-name="K" unicode="K" horiz-adv-x="591" 
d="M63 0v563h120v-252l226 252h157v-12l-215 -210l227 -329v-12h-138l-176 256l-81 -79v-177h-120z" />
    <glyph glyph-name="uni0136" unicode="&#x136;" horiz-adv-x="590" 
d="M63 0v563h120v-252l233 252h170l-232 -222l236 -341h-142l-182 256l-83 -79v-177h-120zM239 -280v76h28q26 0 37.5 6.5t11.5 26.5q-43 -1 -59.5 18t-16.5 46t14.5 45.5t51.5 18.5q28 0 45.5 -17t17.5 -70q0 -40 -10.5 -74t-32.5 -55t-59 -21h-28z" />
    <glyph glyph-name="L" unicode="L" horiz-adv-x="472" 
d="M62 0v563h121v-460h260v-103h-381z" />
    <glyph glyph-name="Lacute" unicode="&#x139;" horiz-adv-x="472" 
d="M62 0v563h121v-460h260v-103h-381zM140 610h-54v15l42 99h101v-20z" />
    <glyph glyph-name="Lcaron" unicode="&#x13d;" horiz-adv-x="470" 
d="M62 0v563h121v-460h260v-103h-381zM-45 753h124l45 -85l46 85h122l-143 -136h-51z" />
    <glyph glyph-name="uni013B" unicode="&#x13b;" horiz-adv-x="472" 
d="M62 0v563h121v-460h260v-103h-381zM188 -280v76h27q27 0 38.5 6.5t11.5 26.5q-43 -1 -59.5 18t-16.5 46t14.5 45.5t51.5 18.5q27 0 44.5 -17t17.5 -70q0 -40 -10 -74t-32 -55t-59 -21h-28z" />
    <glyph glyph-name="Lslash" unicode="&#x141;" horiz-adv-x="472" 
d="M62 0v202l-62 -29v105l62 29v256h121v-201l111 50v-105l-111 -50v-154h260v-103h-381z" />
    <glyph glyph-name="M" unicode="M" horiz-adv-x="750" 
d="M59 0v563h210l108 -512h2l106 512h209v-563h-125l9 511h-2l-111 -511h-176l-110 511h-2l7 -511h-125z" />
    <glyph glyph-name="N" unicode="N" horiz-adv-x="618" 
d="M436 563h126v-563h-231l-149 510h-2v-510h-125v563h214l165 -510h2v510z" />
    <glyph glyph-name="Nacute" unicode="&#x143;" horiz-adv-x="618" 
d="M436 563h126v-563h-231l-149 510h-2v-510h-125v563h214l165 -510h2v510zM301 610h-54v15l42 99h101v-20z" />
    <glyph glyph-name="Ncaron" unicode="&#x147;" horiz-adv-x="600" 
d="M436 563h126v-563h-231l-149 510h-2v-510h-125v563h214l165 -510h2v510zM143 753h124l45 -85l46 85h122l-143 -136h-51z" />
    <glyph glyph-name="uni0145" unicode="&#x145;" horiz-adv-x="618" 
d="M436 563h126v-563h-231l-149 510h-2v-510h-125v563h214l165 -510h2v510zM246 -280v76h27q27 0 38.5 6.5t11.5 26.5q-43 -1 -59.5 18t-16.5 46t14.5 45.5t51.5 18.5q27 0 44.5 -17t17.5 -70q0 -40 -10 -74t-32 -55t-59 -21h-28z" />
    <glyph glyph-name="Eng" unicode="&#x14a;" horiz-adv-x="600" 
d="M416 -206q-36 0 -61 11t-38.5 23t-14.5 13l66 81q1 -2 11 -9.5t26 -7.5q14 0 25 9.5t11 34.5v51h-110l-149 510h-2v-510h-125v563h214l165 -510h2v510h126v-632q0 -36 -15 -67t-47 -50.5t-84 -19.5z" />
    <glyph glyph-name="Ntilde" unicode="&#xd1;" horiz-adv-x="618" 
d="M436 563h126v-563h-231l-149 510h-2v-510h-125v563h214l165 -510h2v510zM355 621q-27 0 -42.5 8.5t-25 20t-18 20t-21.5 8.5q-16 0 -19 -13.5t-3 -39.5h-69q0 13 0.5 33t7.5 40.5t24.5 34.5t50.5 14q27 0 42.5 -8.5t25.5 -20t19 -20t22 -8.5q15 0 18 14.5t3 39.5h69
q0 -24 -4 -53t-21.5 -49.5t-58.5 -20.5z" />
    <glyph glyph-name="O" unicode="O" horiz-adv-x="615" 
d="M300 -14q-138 0 -211 79.5t-73 214.5q0 89 31.5 154.5t94.5 102t158 36.5q139 0 211 -79.5t72 -213.5q0 -87 -32 -153.5t-95 -103.5t-156 -37zM299 103q55 0 92 23.5t55 63.5t18 90t-18 91t-55 65t-92 24q-81 0 -123 -50.5t-42 -129.5q0 -49 18 -89t54.5 -64t92.5 -24z
" />
    <glyph glyph-name="Oacute" unicode="&#xd3;" horiz-adv-x="615" 
d="M300 -14q-138 0 -211 79.5t-73 214.5q0 89 31.5 154.5t94.5 102t158 36.5q139 0 211 -79.5t72 -213.5q0 -87 -32 -153.5t-95 -103.5t-156 -37zM299 103q55 0 92 23.5t55 63.5t18 90t-18 91t-55 65t-92 24q-81 0 -123 -50.5t-42 -129.5q0 -49 18 -89t54.5 -64t92.5 -24z
M338 610h-54v15l42 99h101v-20z" />
    <glyph glyph-name="Ocircumflex" unicode="&#xd4;" horiz-adv-x="615" 
d="M300 -14q-138 0 -211 79.5t-73 214.5q0 89 31.5 154.5t94.5 102t158 36.5q139 0 211 -79.5t72 -213.5q0 -87 -32 -153.5t-95 -103.5t-156 -37zM299 103q55 0 92 23.5t55 63.5t18 90t-18 91t-55 65t-92 24q-81 0 -123 -50.5t-42 -129.5q0 -49 18 -89t54.5 -64t92.5 -24z
M153 620v10l123 111h51l121 -111v-10h-105l-39 44h-5l-37 -44h-109z" />
    <glyph glyph-name="uni1ED0" unicode="&#x1ed0;" horiz-adv-x="615" 
d="M300 -14q-138 0 -211 79.5t-73 214.5q0 89 31.5 154.5t94.5 102t158 36.5q139 0 211 -79.5t72 -213.5q0 -87 -32 -153.5t-95 -103.5t-156 -37zM299 103q55 0 92 23.5t55 63.5t18 90t-18 91t-55 65t-92 24q-81 0 -123 -50.5t-42 -129.5q0 -49 18 -89t54.5 -64t92.5 -24z
M152 621v10l123 111h51l121 -111v-10h-105l-39 44h-5l-37 -44h-109zM451 718h-54v15l42 99h101v-20z" />
    <glyph glyph-name="uni1ED8" unicode="&#x1ed8;" horiz-adv-x="615" 
d="M300 -14q-138 0 -211 79.5t-73 214.5q0 89 31.5 154.5t94.5 102t158 36.5q139 0 211 -79.5t72 -213.5q0 -87 -32 -153.5t-95 -103.5t-156 -37zM299 103q55 0 92 23.5t55 63.5t18 90t-18 91t-55 65t-92 24q-81 0 -123 -50.5t-42 -129.5q0 -49 18 -89t54.5 -64t92.5 -24z
M301 -187q-36 0 -48 17.5t-12 42.5q0 23 12 40.5t48 17.5q35 0 46.5 -17.5t11.5 -40.5q0 -25 -11.5 -42.5t-46.5 -17.5zM152 620v10l123 111h51l121 -111v-10h-105l-39 44h-5l-37 -44h-109z" />
    <glyph glyph-name="uni1ED2" unicode="&#x1ed2;" horiz-adv-x="615" 
d="M300 -14q-138 0 -211 79.5t-73 214.5q0 89 31.5 154.5t94.5 102t158 36.5q139 0 211 -79.5t72 -213.5q0 -87 -32 -153.5t-95 -103.5t-156 -37zM299 103q55 0 92 23.5t55 63.5t18 90t-18 91t-55 65t-92 24q-81 0 -123 -50.5t-42 -129.5q0 -49 18 -89t54.5 -64t92.5 -24z
M133 718l-88 94v20h101l42 -99v-15h-55zM152 621v10l123 111h51l121 -111v-10h-105l-39 44h-5l-37 -44h-109z" />
    <glyph glyph-name="uni1ED4" unicode="&#x1ed4;" horiz-adv-x="615" 
d="M300 -14q-138 0 -211 79.5t-73 214.5q0 89 31.5 154.5t94.5 102t158 36.5q139 0 211 -79.5t72 -213.5q0 -87 -32 -153.5t-95 -103.5t-156 -37zM299 103q55 0 92 23.5t55 63.5t18 90t-18 91t-55 65t-92 24q-81 0 -123 -50.5t-42 -129.5q0 -49 18 -89t54.5 -64t92.5 -24z
M152 620v10l123 111h51l121 -111v-10h-105l-39 44h-5l-37 -44h-109zM388 717v18q6 13 22 22t30 19.5t14 28.5q0 16 -15.5 21.5t-33.5 -0.5t-26 -23l-47 32q8 29 30 45.5t50 21t54 -3t43 -27.5t17 -53q0 -31 -13 -47.5t-28.5 -27.5t-21.5 -26h-75z" />
    <glyph glyph-name="uni1ED6" unicode="&#x1ed6;" horiz-adv-x="615" 
d="M300 -14q-138 0 -211 79.5t-73 214.5q0 89 31.5 154.5t94.5 102t158 36.5q139 0 211 -79.5t72 -213.5q0 -87 -32 -153.5t-95 -103.5t-156 -37zM299 103q55 0 92 23.5t55 63.5t18 90t-18 91t-55 65t-92 24q-81 0 -123 -50.5t-42 -129.5q0 -49 18 -89t54.5 -64t92.5 -24z
M152 620v10l123 111h51l121 -111v-10h-105l-39 44h-5l-37 -44h-109zM352 770q-27 0 -42.5 8.5t-25 20t-18 20t-21.5 8.5q-16 0 -19 -13.5t-3 -39.5h-69q0 13 0.5 33t7.5 40.5t24.5 34.5t50.5 14q27 0 42.5 -8.5t25.5 -20t19 -20t22 -8.5q15 0 18 14.5t3 39.5h69
q0 -24 -4 -53t-21.5 -49.5t-58.5 -20.5z" />
    <glyph glyph-name="Odieresis" unicode="&#xd6;" horiz-adv-x="615" 
d="M300 -14q-138 0 -211 79.5t-73 214.5q0 89 31.5 154.5t94.5 102t158 36.5q139 0 211 -79.5t72 -213.5q0 -87 -32 -153.5t-95 -103.5t-156 -37zM299 103q55 0 92 23.5t55 63.5t18 90t-18 91t-55 65t-92 24q-81 0 -123 -50.5t-42 -129.5q0 -49 18 -89t54.5 -64t92.5 -24z
M213 625q-41 0 -55 20.5t-14 48.5q0 26 14 46.5t55 20.5t54 -20.5t13 -46.5q0 -28 -13 -48.5t-54 -20.5zM407 625q-41 0 -55 20.5t-14 48.5q0 26 14 46.5t55 20.5t54 -20.5t13 -46.5q0 -28 -13 -48.5t-54 -20.5z" />
    <glyph glyph-name="uni1ECC" unicode="&#x1ecc;" horiz-adv-x="615" 
d="M300 -14q-138 0 -211 79.5t-73 214.5q0 89 31.5 154.5t94.5 102t158 36.5q139 0 211 -79.5t72 -213.5q0 -87 -32 -153.5t-95 -103.5t-156 -37zM299 103q55 0 92 23.5t55 63.5t18 90t-18 91t-55 65t-92 24q-81 0 -123 -50.5t-42 -129.5q0 -49 18 -89t54.5 -64t92.5 -24z
M309 -187q-36 0 -48 17.5t-12 42.5q0 23 12 40.5t48 17.5q35 0 46.5 -17.5t11.5 -40.5q0 -25 -11.5 -42.5t-46.5 -17.5z" />
    <glyph glyph-name="Ograve" unicode="&#xd2;" horiz-adv-x="615" 
d="M300 -14q-138 0 -211 79.5t-73 214.5q0 89 31.5 154.5t94.5 102t158 36.5q139 0 211 -79.5t72 -213.5q0 -87 -32 -153.5t-95 -103.5t-156 -37zM299 103q55 0 92 23.5t55 63.5t18 90t-18 91t-55 65t-92 24q-81 0 -123 -50.5t-42 -129.5q0 -49 18 -89t54.5 -64t92.5 -24z
M265 610l-88 94v20h101l42 -99v-15h-55z" />
    <glyph glyph-name="uni1ECE" unicode="&#x1ece;" horiz-adv-x="615" 
d="M300 -14q-138 0 -211 79.5t-73 214.5q0 89 31.5 154.5t94.5 102t158 36.5q139 0 211 -79.5t72 -213.5q0 -87 -32 -153.5t-95 -103.5t-156 -37zM299 103q55 0 92 23.5t55 63.5t18 90t-18 91t-55 65t-92 24q-81 0 -123 -50.5t-42 -129.5q0 -49 18 -89t54.5 -64t92.5 -24z
M269 621v18q6 13 22 22t30 19.5t14 28.5q0 16 -15.5 21.5t-33.5 -0.5t-26 -23l-47 32q8 29 30 45.5t50 21t54 -3t43 -27.5t17 -53q0 -31 -13 -47.5t-28.5 -27.5t-21.5 -26h-75z" />
    <glyph glyph-name="Ohorn" unicode="&#x1a0;" horiz-adv-x="615" 
d="M300 -14q-138 0 -211 79.5t-73 214.5q0 89 31.5 154.5t94.5 102t158 36.5q139 0 211 -79.5t72 -213.5q0 -87 -32 -153.5t-95 -103.5t-156 -37zM299 103q55 0 92 23.5t55 63.5t18 90t-18 91t-55 65t-92 24q-81 0 -123 -50.5t-42 -129.5q0 -49 18 -89t54.5 -64t92.5 -24z
M375 493l1 70h47q24 0 27 9t4 46h78q0 -47 -10.5 -74t-36.5 -39t-74 -12h-36z" />
    <glyph glyph-name="uni1EDA" unicode="&#x1eda;" horiz-adv-x="615" 
d="M300 -14q-138 0 -211 79.5t-73 214.5q0 89 31.5 154.5t94.5 102t158 36.5q139 0 211 -79.5t72 -213.5q0 -87 -32 -153.5t-95 -103.5t-156 -37zM299 103q55 0 92 23.5t55 63.5t18 90t-18 91t-55 65t-92 24q-81 0 -123 -50.5t-42 -129.5q0 -49 18 -89t54.5 -64t92.5 -24z
M375 493l1 70h47q24 0 27 9t4 46h78q0 -47 -10.5 -74t-36.5 -39t-74 -12h-36zM338 610h-54v15l42 99h101v-20z" />
    <glyph glyph-name="uni1EE2" unicode="&#x1ee2;" horiz-adv-x="615" 
d="M300 -14q-138 0 -211 79.5t-73 214.5q0 89 31.5 154.5t94.5 102t158 36.5q139 0 211 -79.5t72 -213.5q0 -87 -32 -153.5t-95 -103.5t-156 -37zM299 103q55 0 92 23.5t55 63.5t18 90t-18 91t-55 65t-92 24q-81 0 -123 -50.5t-42 -129.5q0 -49 18 -89t54.5 -64t92.5 -24z
M375 493l1 70h47q24 0 27 9t4 46h78q0 -47 -10.5 -74t-36.5 -39t-74 -12h-36zM302 -187q-36 0 -48 17.5t-12 42.5q0 23 12 40.5t48 17.5q35 0 46.5 -17.5t11.5 -40.5q0 -25 -11.5 -42.5t-46.5 -17.5z" />
    <glyph glyph-name="uni1EDC" unicode="&#x1edc;" horiz-adv-x="615" 
d="M300 -14q-138 0 -211 79.5t-73 214.5q0 89 31.5 154.5t94.5 102t158 36.5q139 0 211 -79.5t72 -213.5q0 -87 -32 -153.5t-95 -103.5t-156 -37zM299 103q55 0 92 23.5t55 63.5t18 90t-18 91t-55 65t-92 24q-81 0 -123 -50.5t-42 -129.5q0 -49 18 -89t54.5 -64t92.5 -24z
M375 493l1 70h47q24 0 27 9t4 46h78q0 -47 -10.5 -74t-36.5 -39t-74 -12h-36zM265 610l-88 94v20h101l42 -99v-15h-55z" />
    <glyph glyph-name="uni1EDE" unicode="&#x1ede;" horiz-adv-x="615" 
d="M300 -14q-138 0 -211 79.5t-73 214.5q0 89 31.5 154.5t94.5 102t158 36.5q139 0 211 -79.5t72 -213.5q0 -87 -32 -153.5t-95 -103.5t-156 -37zM299 103q55 0 92 23.5t55 63.5t18 90t-18 91t-55 65t-92 24q-81 0 -123 -50.5t-42 -129.5q0 -49 18 -89t54.5 -64t92.5 -24z
M375 493l1 70h47q24 0 27 9t4 46h78q0 -47 -10.5 -74t-36.5 -39t-74 -12h-36zM269 621v18q6 13 22 22t30 19.5t14 28.5q0 16 -15.5 21.5t-33.5 -0.5t-26 -23l-47 32q8 29 30 45.5t50 21t54 -3t43 -27.5t17 -53q0 -31 -13 -47.5t-28.5 -27.5t-21.5 -26h-75z" />
    <glyph glyph-name="uni1EE0" unicode="&#x1ee0;" horiz-adv-x="615" 
d="M300 -14q-138 0 -211 79.5t-73 214.5q0 89 31.5 154.5t94.5 102t158 36.5q139 0 211 -79.5t72 -213.5q0 -87 -32 -153.5t-95 -103.5t-156 -37zM299 103q55 0 92 23.5t55 63.5t18 90t-18 91t-55 65t-92 24q-81 0 -123 -50.5t-42 -129.5q0 -49 18 -89t54.5 -64t92.5 -24z
M375 493l1 70h47q24 0 27 9t4 46h78q0 -47 -10.5 -74t-36.5 -39t-74 -12h-36zM365 626q-27 0 -42.5 8.5t-25 20t-18 20t-21.5 8.5q-16 0 -19 -13.5t-3 -39.5h-69q0 13 0.5 33t7.5 40.5t24.5 34.5t50.5 14q27 0 42.5 -8.5t25.5 -20t19 -20t22 -8.5q15 0 18 14.5t3 39.5h69
q0 -24 -4 -53t-21.5 -49.5t-58.5 -20.5z" />
    <glyph glyph-name="Ohungarumlaut" unicode="&#x150;" horiz-adv-x="600" 
d="M166 640l69 153l94 -47l-109 -132zM351 640l70 153l94 -47l-109 -132zM300 -14q-138 0 -211 79.5t-73 214.5q0 89 31.5 154.5t94.5 102t158 36.5q139 0 211 -79.5t72 -213.5q0 -87 -32 -153.5t-95 -103.5t-156 -37zM299 103q55 0 92 23.5t55 63.5t18 90t-18 91t-55 65
t-92 24q-81 0 -123 -50.5t-42 -129.5q0 -49 18 -89t54.5 -64t92.5 -24z" />
    <glyph glyph-name="Omacron" unicode="&#x14c;" horiz-adv-x="600" 
d="M300 -14q-138 0 -211 79.5t-73 214.5q0 89 31.5 154.5t94.5 102t158 36.5q139 0 211 -79.5t72 -213.5q0 -87 -32 -153.5t-95 -103.5t-156 -37zM299 103q55 0 92 23.5t55 63.5t18 90t-18 91t-55 65t-92 24q-81 0 -123 -50.5t-42 -129.5q0 -49 18 -89t54.5 -64t92.5 -24z
M165 624v83h289v-83h-289z" />
    <glyph glyph-name="Oslash" unicode="&#xd8;" horiz-adv-x="600" 
d="M83 -26l42 61q-54 37 -81.5 99.5t-27.5 145.5q0 89 31.5 154.5t94.5 102t158 36.5q99 0 167 -43l44 64l29 -16l-47 -68q44 -38 67 -96.5t23 -133.5q0 -87 -32 -153.5t-95 -103.5t-156 -37q-85 0 -148 32l-41 -60zM134 280q0 -45 15 -82.5t45 -62.5l204 296q-19 13 -44 21
t-55 8q-81 0 -123 -50.5t-42 -129.5zM299 103q55 0 92 23.5t55 63.5t18 90q0 38 -10.5 71t-31.5 57l-200 -290q33 -15 77 -15z" />
    <glyph glyph-name="Otilde" unicode="&#xd5;" horiz-adv-x="615" 
d="M300 -14q-138 0 -211 79.5t-73 214.5q0 89 31.5 154.5t94.5 102t158 36.5q139 0 211 -79.5t72 -213.5q0 -87 -32 -153.5t-95 -103.5t-156 -37zM299 103q55 0 92 23.5t55 63.5t18 90t-18 91t-55 65t-92 24q-81 0 -123 -50.5t-42 -129.5q0 -49 18 -89t54.5 -64t92.5 -24z
M359 626q-27 0 -42.5 8.5t-25 20t-18 20t-21.5 8.5q-16 0 -19 -13.5t-3 -39.5h-69q0 13 0.5 33t7.5 40.5t24.5 34.5t50.5 14q27 0 42.5 -8.5t25.5 -20t19 -20t22 -8.5q15 0 18 14.5t3 39.5h69q0 -24 -4 -53t-21.5 -49.5t-58.5 -20.5z" />
    <glyph glyph-name="OE" unicode="&#x152;" horiz-adv-x="853" 
d="M389 0q-109 0 -187.5 24t-121 85.5t-42.5 172.5q0 140 93.5 210.5t257.5 70.5h417v-103h-294v-126h222v-98h-222v-139h305v-97h-428zM360 99h32v360h-32q-90 0 -141.5 -44t-51.5 -132q0 -76 23.5 -115.5t66.5 -54t103 -14.5z" />
    <glyph glyph-name="P" unicode="P" horiz-adv-x="503" 
d="M174 0h-121v563h232q95 0 149 -48.5t54 -144.5q0 -84 -55.5 -131.5t-147.5 -47.5h-111v-191zM268 465h-94v-188h94q48 0 79.5 23.5t31.5 70.5q0 48 -31 71t-80 23z" />
    <glyph glyph-name="Thorn" unicode="&#xde;" horiz-adv-x="496" 
d="M174 0h-121v563h121v-95h104q95 0 149 -48.5t54 -145.5q0 -83 -55.5 -131t-147.5 -48h-104v-95zM260 370h-86v-188h86q48 0 80 23.5t32 70.5q0 48 -31.5 71t-80.5 23z" />
    <glyph glyph-name="Q" unicode="Q" horiz-adv-x="630" 
d="M393 -134q-19 0 -40 2t-39.5 12.5t-31 36t-14.5 72.5q-116 14 -176.5 91t-60.5 200q0 88 32 154t95 102.5t159 36.5q92 0 155.5 -36.5t95.5 -102t32 -154.5q0 -114 -55.5 -191.5t-162.5 -97.5q1 -21 9 -27.5t39 -6.5l16.5 2.5t32.5 2.5v-91q-3 0 -16 -1t-29.5 -2
t-28.5 -1.5zM315 105q81 0 121.5 48.5t40.5 130.5q0 81 -40.5 130.5t-121.5 49.5q-79 0 -120 -47.5t-41 -132.5q0 -81 39.5 -130t121.5 -49z" />
    <glyph glyph-name="R" unicode="R" horiz-adv-x="566" 
d="M53 0v563h218q110 0 172.5 -37.5t62.5 -130.5q0 -72 -33.5 -114t-92.5 -42q31 0 47 -14.5t22.5 -35.5t10 -43.5t9.5 -40t20.5 -24t43.5 5.5v-67q-23 -20 -53 -26.5t-58 3.5t-46.5 39.5t-18.5 81.5q0 34 -4.5 57t-21.5 36t-54 17t-103 0v-228h-121zM174 314h86
q47 0 77.5 3t45.5 17.5t15 50.5q0 41 -18 57.5t-53.5 19.5t-86.5 3h-66v-151z" />
    <glyph glyph-name="Racute" unicode="&#x154;" horiz-adv-x="566" 
d="M53 0v563h218q110 0 172.5 -37.5t62.5 -130.5q0 -72 -33.5 -114t-92.5 -42q31 0 47 -14.5t22.5 -35.5t10 -43.5t9.5 -40t20.5 -24t43.5 5.5v-67q-23 -20 -53 -26.5t-58 3.5t-46.5 39.5t-18.5 81.5q0 34 -4.5 57t-21.5 36t-54 17t-103 0v-228h-121zM174 314h86
q47 0 77.5 3t45.5 17.5t15 50.5q0 41 -18 57.5t-53.5 19.5t-86.5 3h-66v-151zM281 610h-54v15l42 99h101v-20z" />
    <glyph glyph-name="Rcaron" unicode="&#x158;" horiz-adv-x="585" 
d="M53 0v563h218q110 0 172.5 -37.5t62.5 -130.5q0 -72 -33.5 -114t-92.5 -42q31 0 47 -14.5t22.5 -35.5t10 -43.5t9.5 -40t20.5 -24t43.5 5.5v-67q-23 -20 -53 -26.5t-58 3.5t-46.5 39.5t-18.5 81.5q0 34 -4.5 57t-21.5 36t-54 17t-103 0v-228h-121zM174 314h86
q47 0 77.5 3t45.5 17.5t15 50.5q0 41 -18 57.5t-53.5 19.5t-86.5 3h-66v-151zM90 753h124l45 -85l46 85h122l-143 -136h-51z" />
    <glyph glyph-name="uni0156" unicode="&#x156;" horiz-adv-x="566" 
d="M53 0v563h218q110 0 172.5 -37.5t62.5 -130.5q0 -72 -33.5 -114t-92.5 -42q31 0 47 -14.5t22.5 -35.5t10 -43.5t9.5 -40t20.5 -24t43.5 5.5v-67q-23 -20 -53 -26.5t-58 3.5t-46.5 39.5t-18.5 81.5q0 34 -4.5 57t-21.5 36t-54 17t-103 0v-228h-121zM174 314h86
q47 0 77.5 3t45.5 17.5t15 50.5q0 41 -18 57.5t-53.5 19.5t-86.5 3h-66v-151zM218 -280v76h27q27 0 38.5 6.5t11.5 26.5q-43 -1 -59.5 18t-16.5 46t14.5 45.5t51.5 18.5q27 0 44.5 -17t17.5 -70q0 -40 -10 -74t-32 -55t-59 -21h-28z" />
    <glyph glyph-name="S" unicode="S" horiz-adv-x="569" 
d="M279 -11q-47 0 -92 11t-82 35t-58.5 62t-21.5 92h121q0 -5 4 -19.5t18 -31t43 -28t77 -11.5q44 0 72.5 14.5t29.5 42.5q0 24 -19.5 38t-51.5 23.5t-70.5 17.5t-76 20t-68.5 32t-48.5 51.5t-14.5 80.5q5 72 69 113t174 41q61 0 114 -21.5t86 -65.5t33 -111h-117
q0 36 -22 54t-52.5 24.5t-54.5 6.5q-44 0 -72.5 -13.5t-28.5 -42.5q0 -25 19.5 -40t52.5 -24t71.5 -16.5t77 -18.5t69.5 -30.5t49 -51t15 -81.5q-5 -72 -72 -112.5t-173 -40.5z" />
    <glyph glyph-name="Sacute" unicode="&#x15a;" horiz-adv-x="569" 
d="M279 -11q-47 0 -92 11t-82 35t-58.5 62t-21.5 92h121q0 -5 4 -19.5t18 -31t43 -28t77 -11.5q44 0 72.5 14.5t29.5 42.5q0 24 -19.5 38t-51.5 23.5t-70.5 17.5t-76 20t-68.5 32t-48.5 51.5t-14.5 80.5q5 72 69 113t174 41q61 0 114 -21.5t86 -65.5t33 -111h-117
q0 36 -22 54t-52.5 24.5t-54.5 6.5q-44 0 -72.5 -13.5t-28.5 -42.5q0 -25 19.5 -40t52.5 -24t71.5 -16.5t77 -18.5t69.5 -30.5t49 -51t15 -81.5q-5 -72 -72 -112.5t-173 -40.5zM295 610h-54v15l42 99h101v-20z" />
    <glyph glyph-name="Scaron" unicode="&#x160;" horiz-adv-x="557" 
d="M279 -11q-47 0 -92 11t-82 35t-58.5 62t-21.5 92h121q0 -5 4 -19.5t18 -31t43 -28t77 -11.5q44 0 72.5 14.5t29.5 42.5q0 24 -19.5 38t-51.5 23.5t-70.5 17.5t-76 20t-68.5 32t-48.5 51.5t-14.5 80.5q5 72 69 113t174 41q61 0 114 -21.5t86 -65.5t33 -111h-117
q0 36 -22 54t-52.5 24.5t-54.5 6.5q-44 0 -72.5 -13.5t-28.5 -42.5q0 -25 19.5 -40t52.5 -24t71.5 -16.5t77 -18.5t69.5 -30.5t49 -51t15 -81.5q-5 -72 -72 -112.5t-173 -40.5zM116 753h124l45 -85l46 85h122l-143 -136h-51z" />
    <glyph glyph-name="Scedilla" unicode="&#x15e;" horiz-adv-x="569" 
d="M279 -11q-47 0 -92 11t-82 35t-58.5 62t-21.5 92h121q0 -5 4 -19.5t18 -31t43 -28t77 -11.5q44 0 72.5 14.5t29.5 42.5q0 24 -19.5 38t-51.5 23.5t-70.5 17.5t-76 20t-68.5 32t-48.5 51.5t-14.5 80.5q5 72 69 113t174 41q61 0 114 -21.5t86 -65.5t33 -111h-117
q0 36 -22 54t-52.5 24.5t-54.5 6.5q-44 0 -72.5 -13.5t-28.5 -42.5q0 -25 19.5 -40t52.5 -24t71.5 -16.5t77 -18.5t69.5 -30.5t49 -51t15 -81.5q-5 -72 -72 -112.5t-173 -40.5zM151 -156l35 56q10 -8 30.5 -15t42.5 -9.5t37.5 2.5t15.5 22q0 12 -13 18t-30.5 4t-30.5 -14
l-50 24l45 97l53 -21l-37 -61q15 12 39 15.5t48 -2t40 -21.5t16 -44q0 -33 -23 -54t-60 -28t-78.5 0.5t-79.5 30.5z" />
    <glyph glyph-name="uni0218" unicode="&#x218;" horiz-adv-x="569" 
d="M279 -11q-47 0 -92 11t-82 35t-58.5 62t-21.5 92h121q0 -5 4 -19.5t18 -31t43 -28t77 -11.5q44 0 72.5 14.5t29.5 42.5q0 24 -19.5 38t-51.5 23.5t-70.5 17.5t-76 20t-68.5 32t-48.5 51.5t-14.5 80.5q5 72 69 113t174 41q61 0 114 -21.5t86 -65.5t33 -111h-117
q0 36 -22 54t-52.5 24.5t-54.5 6.5q-44 0 -72.5 -13.5t-28.5 -42.5q0 -25 19.5 -40t52.5 -24t71.5 -16.5t77 -18.5t69.5 -30.5t49 -51t15 -81.5q-5 -72 -72 -112.5t-173 -40.5zM218 -280v76h27q27 0 38.5 6.5t11.5 26.5q-43 -1 -59.5 18t-16.5 46t14.5 45.5t51.5 18.5
q27 0 44.5 -17t17.5 -70q0 -40 -10 -74t-32 -55t-59 -21h-28z" />
    <glyph glyph-name="T" unicode="T" horiz-adv-x="472" 
d="M10 460v103h440v-103h-160v-460h-121v460h-159z" />
    <glyph glyph-name="Tbar" unicode="&#x166;" horiz-adv-x="472" 
d="M58 248v84h112v128h-160v103h440v-103h-159v-128h112v-84h-112v-248h-121v248h-112z" />
    <glyph glyph-name="Tcaron" unicode="&#x164;" horiz-adv-x="472" 
d="M10 460v103h440v-103h-160v-460h-121v460h-159zM66 753h124l45 -85l46 85h122l-143 -136h-51z" />
    <glyph glyph-name="uni0162" unicode="&#x162;" horiz-adv-x="472" 
d="M10 460v103h440v-103h-160v-460h-121v460h-159zM101 -156l35 56q10 -8 30.5 -15t42.5 -9.5t37.5 2.5t15.5 22q0 12 -13 18t-30.5 4t-30.5 -14l-50 24l45 97l53 -21l-37 -61q15 12 39 15.5t48 -2t40 -21.5t16 -44q0 -33 -23 -54t-60 -28t-78.5 0.5t-79.5 30.5z" />
    <glyph glyph-name="uni021A" unicode="&#x21a;" horiz-adv-x="472" 
d="M10 460v103h440v-103h-160v-460h-121v460h-159zM162 -280v76h27q27 0 38.5 6.5t11.5 26.5q-43 -1 -59.5 18t-16.5 46t14.5 45.5t51.5 18.5q27 0 44.5 -17t17.5 -70q0 -40 -10 -74t-32 -55t-59 -21h-28z" />
    <glyph glyph-name="U" unicode="U" horiz-adv-x="605" 
d="M304 -14q-123 0 -186.5 66.5t-63.5 187.5v323h129v-322q0 -59 19.5 -89t47.5 -40.5t54 -10.5q30 0 58 10.5t46 40.5t18 89v322h129v-323q0 -123 -62.5 -188.5t-188.5 -65.5z" />
    <glyph glyph-name="Uacute" unicode="&#xda;" horiz-adv-x="605" 
d="M304 -14q-123 0 -186.5 66.5t-63.5 187.5v323h129v-322q0 -59 19.5 -89t47.5 -40.5t54 -10.5q30 0 58 10.5t46 40.5t18 89v322h129v-323q0 -123 -62.5 -188.5t-188.5 -65.5zM327 610h-54v15l42 99h101v-20z" />
    <glyph glyph-name="Ucircumflex" unicode="&#xdb;" horiz-adv-x="605" 
d="M304 -14q-123 0 -186.5 66.5t-63.5 187.5v323h129v-322q0 -59 19.5 -89t47.5 -40.5t54 -10.5q30 0 58 10.5t46 40.5t18 89v322h129v-323q0 -123 -62.5 -188.5t-188.5 -65.5zM157 618v10l123 111h51l121 -111v-10h-105l-39 44h-5l-37 -44h-109z" />
    <glyph glyph-name="Udieresis" unicode="&#xdc;" horiz-adv-x="605" 
d="M304 -14q-123 0 -186.5 66.5t-63.5 187.5v323h129v-322q0 -59 19.5 -89t47.5 -40.5t54 -10.5q30 0 58 10.5t46 40.5t18 89v322h129v-323q0 -123 -62.5 -188.5t-188.5 -65.5zM210 625q-41 0 -55 20.5t-14 48.5q0 26 14 46.5t55 20.5t54 -20.5t13 -46.5q0 -28 -13 -48.5
t-54 -20.5zM404 625q-41 0 -55 20.5t-14 48.5q0 26 14 46.5t55 20.5t54 -20.5t13 -46.5q0 -28 -13 -48.5t-54 -20.5z" />
    <glyph glyph-name="uni1EE4" unicode="&#x1ee4;" horiz-adv-x="605" 
d="M304 -14q-123 0 -186.5 66.5t-63.5 187.5v323h129v-322q0 -59 19.5 -89t47.5 -40.5t54 -10.5q30 0 58 10.5t46 40.5t18 89v322h129v-323q0 -123 -62.5 -188.5t-188.5 -65.5zM297 -187q-36 0 -48 17.5t-12 42.5q0 23 12 40.5t48 17.5q35 0 46.5 -17.5t11.5 -40.5
q0 -25 -11.5 -42.5t-46.5 -17.5z" />
    <glyph glyph-name="Ugrave" unicode="&#xd9;" horiz-adv-x="605" 
d="M304 -14q-123 0 -186.5 66.5t-63.5 187.5v323h129v-322q0 -59 19.5 -89t47.5 -40.5t54 -10.5q30 0 58 10.5t46 40.5t18 89v322h129v-323q0 -123 -62.5 -188.5t-188.5 -65.5zM269 610l-88 94v20h101l42 -99v-15h-55z" />
    <glyph glyph-name="uni1EE6" unicode="&#x1ee6;" horiz-adv-x="605" 
d="M304 -14q-123 0 -186.5 66.5t-63.5 187.5v323h129v-322q0 -59 19.5 -89t47.5 -40.5t54 -10.5q30 0 58 10.5t46 40.5t18 89v322h129v-323q0 -123 -62.5 -188.5t-188.5 -65.5zM265 620v18q6 13 22 22t30 19.5t14 28.5q0 16 -15.5 21.5t-33.5 -0.5t-26 -23l-47 32
q8 29 30 45.5t50 21t54 -3t43 -27.5t17 -53q0 -31 -13 -47.5t-28.5 -27.5t-21.5 -26h-75z" />
    <glyph glyph-name="Uhorn" unicode="&#x1af;" horiz-adv-x="605" 
d="M505 493l1 70h47q24 0 27 9t4 46h78q0 -47 -10.5 -74t-36.5 -39t-74 -12h-36zM304 -14q-123 0 -186.5 66.5t-63.5 187.5v323h129v-322q0 -59 19.5 -89t47.5 -40.5t54 -10.5q30 0 58 10.5t46 40.5t18 89v322h129v-323q0 -123 -62.5 -188.5t-188.5 -65.5z" />
    <glyph glyph-name="uni1EE8" unicode="&#x1ee8;" horiz-adv-x="605" 
d="M505 493l1 70h47q24 0 27 9t4 46h78q0 -47 -10.5 -74t-36.5 -39t-74 -12h-36zM304 -14q-123 0 -186.5 66.5t-63.5 187.5v323h129v-322q0 -59 19.5 -89t47.5 -40.5t54 -10.5q30 0 58 10.5t46 40.5t18 89v322h129v-323q0 -123 -62.5 -188.5t-188.5 -65.5zM325 610h-54v15
l42 99h101v-20z" />
    <glyph glyph-name="uni1EF0" unicode="&#x1ef0;" horiz-adv-x="605" 
d="M505 493l1 70h47q24 0 27 9t4 46h78q0 -47 -10.5 -74t-36.5 -39t-74 -12h-36zM304 -14q-123 0 -186.5 66.5t-63.5 187.5v323h129v-322q0 -59 19.5 -89t47.5 -40.5t54 -10.5q30 0 58 10.5t46 40.5t18 89v322h129v-323q0 -123 -62.5 -188.5t-188.5 -65.5zM297 -187
q-36 0 -48 17.5t-12 42.5q0 23 12 40.5t48 17.5q35 0 46.5 -17.5t11.5 -40.5q0 -25 -11.5 -42.5t-46.5 -17.5z" />
    <glyph glyph-name="uni1EEA" unicode="&#x1eea;" horiz-adv-x="605" 
d="M505 493l1 70h47q24 0 27 9t4 46h78q0 -47 -10.5 -74t-36.5 -39t-74 -12h-36zM304 -14q-123 0 -186.5 66.5t-63.5 187.5v323h129v-322q0 -59 19.5 -89t47.5 -40.5t54 -10.5q30 0 58 10.5t46 40.5t18 89v322h129v-323q0 -123 -62.5 -188.5t-188.5 -65.5zM271 610l-88 94
v20h101l42 -99v-15h-55z" />
    <glyph glyph-name="uni1EEC" unicode="&#x1eec;" horiz-adv-x="605" 
d="M505 493l1 70h47q24 0 27 9t4 46h78q0 -47 -10.5 -74t-36.5 -39t-74 -12h-36zM304 -14q-123 0 -186.5 66.5t-63.5 187.5v323h129v-322q0 -59 19.5 -89t47.5 -40.5t54 -10.5q30 0 58 10.5t46 40.5t18 89v322h129v-323q0 -123 -62.5 -188.5t-188.5 -65.5zM265 620v18
q6 13 22 22t30 19.5t14 28.5q0 16 -15.5 21.5t-33.5 -0.5t-26 -23l-47 32q8 29 30 45.5t50 21t54 -3t43 -27.5t17 -53q0 -31 -13 -47.5t-28.5 -27.5t-21.5 -26h-75z" />
    <glyph glyph-name="uni1EEE" unicode="&#x1eee;" horiz-adv-x="605" 
d="M505 493l1 70h47q24 0 27 9t4 46h78q0 -47 -10.5 -74t-36.5 -39t-74 -12h-36zM304 -14q-123 0 -186.5 66.5t-63.5 187.5v323h129v-322q0 -59 19.5 -89t47.5 -40.5t54 -10.5q30 0 58 10.5t46 40.5t18 89v322h129v-323q0 -123 -62.5 -188.5t-188.5 -65.5zM362 626
q-27 0 -42.5 8.5t-25 20t-18 20t-21.5 8.5q-16 0 -19 -13.5t-3 -39.5h-69q0 13 0.5 33t7.5 40.5t24.5 34.5t50.5 14q27 0 42.5 -8.5t25.5 -20t19 -20t22 -8.5q15 0 18 14.5t3 39.5h69q0 -24 -4 -53t-21.5 -49.5t-58.5 -20.5z" />
    <glyph glyph-name="Uhungarumlaut" unicode="&#x170;" horiz-adv-x="593" 
d="M156 640l70 153l94 -47l-109 -132zM342 640l70 153l94 -47l-109 -132zM304 -14q-123 0 -186.5 66.5t-63.5 187.5v323h129v-322q0 -59 19.5 -89t47.5 -40.5t54 -10.5q30 0 58 10.5t46 40.5t18 89v322h129v-323q0 -123 -62.5 -188.5t-188.5 -65.5z" />
    <glyph glyph-name="Umacron" unicode="&#x16a;" horiz-adv-x="593" 
d="M304 -14q-123 0 -186.5 66.5t-63.5 187.5v323h129v-322q0 -59 19.5 -89t47.5 -40.5t54 -10.5q30 0 58 10.5t46 40.5t18 89v322h129v-323q0 -123 -62.5 -188.5t-188.5 -65.5zM161 624v83h289v-83h-289z" />
    <glyph glyph-name="Uogonek" unicode="&#x172;" horiz-adv-x="605" 
d="M311 -188q-25 0 -49.5 9t-40.5 29t-16 54q0 26 13 47.5t33 38.5q-97 14 -147 78.5t-50 171.5v323h129v-322q0 -59 19.5 -89t47.5 -40.5t54 -10.5q30 0 58 10.5t46 40.5t18 89v322h129v-323q0 -110 -50 -174t-150 -77q-11 -5 -26 -13.5t-26 -21.5t-11 -29q0 -27 30 -27
q13 0 22 6.5t14 13.5l5 7l63 -56l-12.5 -14t-38 -28.5t-64.5 -14.5z" />
    <glyph glyph-name="Uring" unicode="&#x16e;" horiz-adv-x="605" 
d="M304 -14q-123 0 -186.5 66.5t-63.5 187.5v323h129v-322q0 -59 19.5 -89t47.5 -40.5t54 -10.5q30 0 58 10.5t46 40.5t18 89v322h129v-323q0 -123 -62.5 -188.5t-188.5 -65.5zM303 587q-53 0 -78 28t-25 74q0 47 24.5 75.5t78.5 28.5q52 0 78.5 -28.5t26.5 -75.5
q0 -44 -26.5 -73t-78.5 -29zM301 657q19 0 27.5 9.5t8.5 24.5t-8.5 26t-27.5 11q-18 0 -26.5 -11t-8.5 -26t9 -24.5t26 -9.5z" />
    <glyph glyph-name="Utilde" unicode="&#x168;" horiz-adv-x="605" 
d="M304 -14q-123 0 -186.5 66.5t-63.5 187.5v323h129v-322q0 -59 19.5 -89t47.5 -40.5t54 -10.5q30 0 58 10.5t46 40.5t18 89v322h129v-323q0 -123 -62.5 -188.5t-188.5 -65.5zM362 626q-27 0 -42.5 8.5t-25 20t-18 20t-21.5 8.5q-16 0 -19 -13.5t-3 -39.5h-69q0 13 0.5 33
t7.5 40.5t24.5 34.5t50.5 14q27 0 42.5 -8.5t25.5 -20t19 -20t22 -8.5q15 0 18 14.5t3 39.5h69q0 -24 -4 -53t-21.5 -49.5t-58.5 -20.5z" />
    <glyph glyph-name="V" unicode="V" horiz-adv-x="575" 
d="M440 563h132l-180 -563h-201l-180 563h132l148 -513z" />
    <glyph glyph-name="W" unicode="W" horiz-adv-x="811" 
d="M663 563h128l-119 -563h-194l-73 410l-71 -410h-194l-123 563h128l92 -513l103 511l-1 2h130l106 -513z" />
    <glyph glyph-name="Wacute" unicode="&#x1e82;" horiz-adv-x="811" 
d="M663 563h128l-119 -563h-194l-73 410l-71 -410h-194l-123 563h128l92 -513l103 511l-1 2h130l106 -513zM425 610h-54v15l42 99h101v-20z" />
    <glyph glyph-name="Wcircumflex" unicode="&#x174;" horiz-adv-x="811" 
d="M663 563h128l-119 -563h-194l-73 410l-71 -410h-194l-123 563h128l92 -513l103 511l-1 2h130l106 -513zM256 620v10l123 111h51l121 -111v-10h-105l-39 44h-5l-37 -44h-109z" />
    <glyph glyph-name="Wdieresis" unicode="&#x1e84;" horiz-adv-x="811" 
d="M663 563h128l-119 -563h-194l-73 410l-71 -410h-194l-123 563h128l92 -513l103 511l-1 2h130l106 -513zM309 625q-41 0 -55 20.5t-14 48.5q0 26 14 46.5t55 20.5t54 -20.5t13 -46.5q0 -28 -13 -48.5t-54 -20.5zM503 625q-41 0 -55 20.5t-14 48.5q0 26 14 46.5t55 20.5
t54 -20.5t13 -46.5q0 -28 -13 -48.5t-54 -20.5z" />
    <glyph glyph-name="Wgrave" unicode="&#x1e80;" horiz-adv-x="811" 
d="M663 563h128l-119 -563h-194l-73 410l-71 -410h-194l-123 563h128l92 -513l103 511l-1 2h130l106 -513zM355 610l-88 94v20h101l42 -99v-15h-55z" />
    <glyph glyph-name="X" unicode="X" horiz-adv-x="581" 
d="M18 0l197 296l-182 267h143l120 -196l120 196h141l-180 -267l197 -296h-140l-138 221l-137 -221h-141z" />
    <glyph glyph-name="Y" unicode="Y" horiz-adv-x="456" 
d="M167 0v196v0l-192 367h136l118 -263l119 263h135l-196 -366v-197h-120z" />
    <glyph glyph-name="Yacute" unicode="&#xdd;" horiz-adv-x="456" 
d="M167 0v196v0l-192 367h136l118 -263l119 263h135l-196 -366v-197h-120zM248 610h-54v15l42 99h101v-20z" />
    <glyph glyph-name="Ycircumflex" unicode="&#x176;" horiz-adv-x="456" 
d="M167 0v196v0l-192 367h136l118 -263l119 263h135l-196 -366v-197h-120zM81 620v10l123 111h51l121 -111v-10h-105l-39 44h-5l-37 -44h-109z" />
    <glyph glyph-name="Ydieresis" unicode="&#x178;" horiz-adv-x="456" 
d="M167 0v196v0l-192 367h136l118 -263l119 263h135l-196 -366v-197h-120zM134 625q-41 0 -55 20.5t-14 48.5q0 26 14 46.5t55 20.5t54 -20.5t13 -46.5q0 -28 -13 -48.5t-54 -20.5zM328 625q-41 0 -55 20.5t-14 48.5q0 26 14 46.5t55 20.5t54 -20.5t13 -46.5
q0 -28 -13 -48.5t-54 -20.5z" />
    <glyph glyph-name="uni1EF4" unicode="&#x1ef4;" horiz-adv-x="456" 
d="M167 0v196v0l-192 367h136l118 -263l119 263h135l-196 -366v-197h-120zM222 -187q-36 0 -48 17.5t-12 42.5q0 23 12 40.5t48 17.5q35 0 46.5 -17.5t11.5 -40.5q0 -25 -11.5 -42.5t-46.5 -17.5z" />
    <glyph glyph-name="Ygrave" unicode="&#x1ef2;" horiz-adv-x="456" 
d="M167 0v196v0l-192 367h136l118 -263l119 263h135l-196 -366v-197h-120zM185 610l-88 94v20h101l42 -99v-15h-55z" />
    <glyph glyph-name="uni1EF6" unicode="&#x1ef6;" horiz-adv-x="456" 
d="M167 0v196v0l-192 367h136l118 -263l119 263h135l-196 -366v-197h-120zM189 620v18q6 13 22 22t30 19.5t14 28.5q0 16 -15.5 21.5t-33.5 -0.5t-26 -23l-47 32q8 29 30 45.5t50 21t54 -3t43 -27.5t17 -53q0 -31 -13 -47.5t-28.5 -27.5t-21.5 -26h-75z" />
    <glyph glyph-name="uni1EF8" unicode="&#x1ef8;" horiz-adv-x="456" 
d="M167 0v196v0l-192 367h136l118 -263l119 263h135l-196 -366v-197h-120zM286 626q-27 0 -42.5 8.5t-25 20t-18 20t-21.5 8.5q-16 0 -19 -13.5t-3 -39.5h-69q0 13 0.5 33t7.5 40.5t24.5 34.5t50.5 14q27 0 42.5 -8.5t25.5 -20t19 -20t22 -8.5q15 0 18 14.5t3 39.5h69
q0 -24 -4 -53t-21.5 -49.5t-58.5 -20.5z" />
    <glyph glyph-name="Z" unicode="Z" horiz-adv-x="573" 
d="M47 0v101l324 359h-302v103h457v-103l-319 -356h318v-104h-478z" />
    <glyph glyph-name="Zacute" unicode="&#x179;" horiz-adv-x="573" 
d="M47 0v101l324 359h-302v103h457v-103l-319 -356h318v-104h-478zM318 610h-54v15l42 99h101v-20z" />
    <glyph glyph-name="Zcaron" unicode="&#x17d;" horiz-adv-x="573" 
d="M47 0v101l324 359h-302v103h457v-103l-319 -356h318v-104h-478zM132 753h124l45 -85l46 85h122l-143 -136h-51z" />
    <glyph glyph-name="Zdotaccent" unicode="&#x17b;" horiz-adv-x="573" 
d="M47 0v101l324 359h-302v103h457v-103l-319 -356h318v-104h-478zM288 662q-41 0 -55 20.5t-14 48.5q0 26 14 46.5t55 20.5t54 -20.5t13 -46.5q0 -28 -13 -48.5t-54 -20.5z" />
    <glyph glyph-name="I.ss01" horiz-adv-x="501" 
d="M197 -65q-2 127 -1.5 210.5t-4.5 132t-20.5 72t-48 30t-87.5 6.5v101q60 0 93.5 9.5t48 33.5t17.5 65.5t3 105.5h101q0 -64 3 -105.5t18 -65.5t49.5 -33.5t97.5 -9.5v-101q-57 0 -91 -6.5t-51 -30t-22.5 -72.5t-5 -132t-0.5 -211zM243 198h9q1 79 1.5 126.5t6.5 71
t21.5 31t45.5 8.5q-39 0 -54.5 9t-18 28.5t-2.5 50.5h-9q0 -31 -2.5 -50.5t-17.5 -28.5t-54 -9q31 -1 46.5 -8.5t21 -31t5.5 -71t1 -126.5z" />
    <glyph glyph-name="a" unicode="a" horiz-adv-x="467" 
d="M176 -10q-85 0 -119 57.5t-34 152.5q0 96 34.5 154.5t118.5 58.5q38 0 63 -10.5t40 -25.5t21.5 -27.5t8.5 -15.5h2v78h124v-412h-105l-19 62h-2q-2 -5 -14.5 -22.5t-41 -33.5t-77.5 -16zM226 91q36 0 54 15t24 39.5t6 53.5q0 30 -6 54.5t-24 39t-54 14.5t-54.5 -15
t-24.5 -39.5t-6 -53.5t6 -53.5t24.5 -39.5t54.5 -15z" />
    <glyph glyph-name="aacute" unicode="&#xe1;" horiz-adv-x="467" 
d="M176 -10q-85 0 -119 57.5t-34 152.5q0 96 34.5 154.5t118.5 58.5q38 0 63 -10.5t40 -25.5t21.5 -27.5t8.5 -15.5h2v78h124v-412h-105l-19 62h-2q-2 -5 -14.5 -22.5t-41 -33.5t-77.5 -16zM226 91q36 0 54 15t24 39.5t6 53.5q0 30 -6 54.5t-24 39t-54 14.5t-54.5 -15
t-24.5 -39.5t-6 -53.5t6 -53.5t24.5 -39.5t54.5 -15zM261 458h-54v15l42 99h101v-20z" />
    <glyph glyph-name="abreve" unicode="&#x103;" horiz-adv-x="467" 
d="M176 -10q-85 0 -119 57.5t-34 152.5q0 96 34.5 154.5t118.5 58.5q38 0 63 -10.5t40 -25.5t21.5 -27.5t8.5 -15.5h2v78h124v-412h-105l-19 62h-2q-2 -5 -14.5 -22.5t-41 -33.5t-77.5 -16zM226 91q36 0 54 15t24 39.5t6 53.5q0 30 -6 54.5t-24 39t-54 14.5t-54.5 -15
t-24.5 -39.5t-6 -53.5t6 -53.5t24.5 -39.5t54.5 -15zM232 463q-66 0 -103 30t-37 82h84q0 -27 16 -37t39 -10q24 0 39 9.5t15 37.5h85q0 -52 -35.5 -82t-102.5 -30z" />
    <glyph glyph-name="uni1EAF" unicode="&#x1eaf;" horiz-adv-x="467" 
d="M176 -10q-85 0 -119 57.5t-34 152.5q0 96 34.5 154.5t118.5 58.5q38 0 63 -10.5t40 -25.5t21.5 -27.5t8.5 -15.5h2v78h124v-412h-105l-19 62h-2q-2 -5 -14.5 -22.5t-41 -33.5t-77.5 -16zM226 91q36 0 54 15t24 39.5t6 53.5q0 30 -6 54.5t-24 39t-54 14.5t-54.5 -15
t-24.5 -39.5t-6 -53.5t6 -53.5t24.5 -39.5t54.5 -15zM232 463q-66 0 -103 30t-37 82h84q0 -27 16 -37t39 -10q24 0 39 9.5t15 37.5h85q0 -52 -35.5 -82t-102.5 -30zM256 595h-54v15l42 99h101v-20z" />
    <glyph glyph-name="uni1EB7" unicode="&#x1eb7;" horiz-adv-x="467" 
d="M176 -10q-85 0 -119 57.5t-34 152.5q0 96 34.5 154.5t118.5 58.5q38 0 63 -10.5t40 -25.5t21.5 -27.5t8.5 -15.5h2v78h124v-412h-105l-19 62h-2q-2 -5 -14.5 -22.5t-41 -33.5t-77.5 -16zM226 91q36 0 54 15t24 39.5t6 53.5q0 30 -6 54.5t-24 39t-54 14.5t-54.5 -15
t-24.5 -39.5t-6 -53.5t6 -53.5t24.5 -39.5t54.5 -15zM232 463q-66 0 -103 30t-37 82h84q0 -27 16 -37t39 -10q24 0 39 9.5t15 37.5h85q0 -52 -35.5 -82t-102.5 -30zM225 -187q-36 0 -48 17.5t-12 42.5q0 23 12 40.5t48 17.5q35 0 46.5 -17.5t11.5 -40.5q0 -25 -11.5 -42.5
t-46.5 -17.5z" />
    <glyph glyph-name="uni1EB1" unicode="&#x1eb1;" horiz-adv-x="467" 
d="M176 -10q-85 0 -119 57.5t-34 152.5q0 96 34.5 154.5t118.5 58.5q38 0 63 -10.5t40 -25.5t21.5 -27.5t8.5 -15.5h2v78h124v-412h-105l-19 62h-2q-2 -5 -14.5 -22.5t-41 -33.5t-77.5 -16zM226 91q36 0 54 15t24 39.5t6 53.5q0 30 -6 54.5t-24 39t-54 14.5t-54.5 -15
t-24.5 -39.5t-6 -53.5t6 -53.5t24.5 -39.5t54.5 -15zM232 463q-66 0 -103 30t-37 82h84q0 -27 16 -37t39 -10q24 0 39 9.5t15 37.5h85q0 -52 -35.5 -82t-102.5 -30zM203 595l-88 94v20h101l42 -99v-15h-55z" />
    <glyph glyph-name="uni1EB3" unicode="&#x1eb3;" horiz-adv-x="467" 
d="M176 -10q-85 0 -119 57.5t-34 152.5q0 96 34.5 154.5t118.5 58.5q38 0 63 -10.5t40 -25.5t21.5 -27.5t8.5 -15.5h2v78h124v-412h-105l-19 62h-2q-2 -5 -14.5 -22.5t-41 -33.5t-77.5 -16zM226 91q36 0 54 15t24 39.5t6 53.5q0 30 -6 54.5t-24 39t-54 14.5t-54.5 -15
t-24.5 -39.5t-6 -53.5t6 -53.5t24.5 -39.5t54.5 -15zM232 463q-66 0 -103 30t-37 82h84q0 -27 16 -37t39 -10q24 0 39 9.5t15 37.5h85q0 -52 -35.5 -82t-102.5 -30zM197 593v18q6 13 22 22t30 19.5t14 28.5q0 16 -15.5 21.5t-33.5 -0.5t-26 -23l-47 32q8 29 30 45.5t50 21
t54 -3t43 -27.5t17 -53q0 -31 -13 -47.5t-28.5 -27.5t-21.5 -26h-75z" />
    <glyph glyph-name="uni1EB5" unicode="&#x1eb5;" horiz-adv-x="467" 
d="M176 -10q-85 0 -119 57.5t-34 152.5q0 96 34.5 154.5t118.5 58.5q38 0 63 -10.5t40 -25.5t21.5 -27.5t8.5 -15.5h2v78h124v-412h-105l-19 62h-2q-2 -5 -14.5 -22.5t-41 -33.5t-77.5 -16zM226 91q36 0 54 15t24 39.5t6 53.5q0 30 -6 54.5t-24 39t-54 14.5t-54.5 -15
t-24.5 -39.5t-6 -53.5t6 -53.5t24.5 -39.5t54.5 -15zM227 463q-66 0 -103 30t-37 82h84q0 -27 16 -37t39 -10q24 0 39 9.5t15 37.5h85q0 -52 -35.5 -82t-102.5 -30zM281 624q-27 0 -42.5 8.5t-25 20t-18 20t-21.5 8.5q-16 0 -19 -13.5t-3 -39.5h-69q0 13 0.5 33t7.5 40.5
t24.5 34.5t50.5 14q27 0 42.5 -8.5t25.5 -20t19 -20t22 -8.5q15 0 18 14.5t3 39.5h69q0 -24 -4 -53t-21.5 -49.5t-58.5 -20.5z" />
    <glyph glyph-name="acircumflex" unicode="&#xe2;" horiz-adv-x="467" 
d="M176 -10q-85 0 -119 57.5t-34 152.5q0 96 34.5 154.5t118.5 58.5q38 0 63 -10.5t40 -25.5t21.5 -27.5t8.5 -15.5h2v78h124v-412h-105l-19 62h-2q-2 -5 -14.5 -22.5t-41 -33.5t-77.5 -16zM226 91q36 0 54 15t24 39.5t6 53.5q0 30 -6 54.5t-24 39t-54 14.5t-54.5 -15
t-24.5 -39.5t-6 -53.5t6 -53.5t24.5 -39.5t54.5 -15zM84 463v10l123 111h51l121 -111v-10h-105l-39 44h-5l-37 -44h-109z" />
    <glyph glyph-name="uni1EA5" unicode="&#x1ea5;" horiz-adv-x="467" 
d="M176 -10q-85 0 -119 57.5t-34 152.5q0 96 34.5 154.5t118.5 58.5q38 0 63 -10.5t40 -25.5t21.5 -27.5t8.5 -15.5h2v78h124v-412h-105l-19 62h-2q-2 -5 -14.5 -22.5t-41 -33.5t-77.5 -16zM226 91q36 0 54 15t24 39.5t6 53.5q0 30 -6 54.5t-24 39t-54 14.5t-54.5 -15
t-24.5 -39.5t-6 -53.5t6 -53.5t24.5 -39.5t54.5 -15zM84 463v10l123 111h51l121 -111v-10h-105l-39 44h-5l-37 -44h-109zM383 560h-54v15l42 99h101v-20z" />
    <glyph glyph-name="uni1EAD" unicode="&#x1ead;" horiz-adv-x="467" 
d="M176 -10q-85 0 -119 57.5t-34 152.5q0 96 34.5 154.5t118.5 58.5q38 0 63 -10.5t40 -25.5t21.5 -27.5t8.5 -15.5h2v78h124v-412h-105l-19 62h-2q-2 -5 -14.5 -22.5t-41 -33.5t-77.5 -16zM226 91q36 0 54 15t24 39.5t6 53.5q0 30 -6 54.5t-24 39t-54 14.5t-54.5 -15
t-24.5 -39.5t-6 -53.5t6 -53.5t24.5 -39.5t54.5 -15zM84 463v10l123 111h51l121 -111v-10h-105l-39 44h-5l-37 -44h-109zM225 -187q-36 0 -48 17.5t-12 42.5q0 23 12 40.5t48 17.5q35 0 46.5 -17.5t11.5 -40.5q0 -25 -11.5 -42.5t-46.5 -17.5z" />
    <glyph glyph-name="uni1EA7" unicode="&#x1ea7;" horiz-adv-x="467" 
d="M176 -10q-85 0 -119 57.5t-34 152.5q0 96 34.5 154.5t118.5 58.5q38 0 63 -10.5t40 -25.5t21.5 -27.5t8.5 -15.5h2v78h124v-412h-105l-19 62h-2q-2 -5 -14.5 -22.5t-41 -33.5t-77.5 -16zM226 91q36 0 54 15t24 39.5t6 53.5q0 30 -6 54.5t-24 39t-54 14.5t-54.5 -15
t-24.5 -39.5t-6 -53.5t6 -53.5t24.5 -39.5t54.5 -15zM65 560l-88 94v20h101l42 -99v-15h-55zM84 463v10l123 111h51l121 -111v-10h-105l-39 44h-5l-37 -44h-109z" />
    <glyph glyph-name="uni1EA9" unicode="&#x1ea9;" horiz-adv-x="467" 
d="M176 -10q-85 0 -119 57.5t-34 152.5q0 96 34.5 154.5t118.5 58.5q38 0 63 -10.5t40 -25.5t21.5 -27.5t8.5 -15.5h2v78h124v-412h-105l-19 62h-2q-2 -5 -14.5 -22.5t-41 -33.5t-77.5 -16zM226 91q36 0 54 15t24 39.5t6 53.5q0 30 -6 54.5t-24 39t-54 14.5t-54.5 -15
t-24.5 -39.5t-6 -53.5t6 -53.5t24.5 -39.5t54.5 -15zM84 463v10l123 111h51l121 -111v-10h-105l-39 44h-5l-37 -44h-109zM320 560v18q6 13 22 22t30 19.5t14 28.5q0 16 -15.5 21.5t-33.5 -0.5t-26 -23l-47 32q8 29 30 45.5t50 21t54 -3t43 -27.5t17 -53q0 -31 -13 -47.5
t-28.5 -27.5t-21.5 -26h-75z" />
    <glyph glyph-name="uni1EAB" unicode="&#x1eab;" horiz-adv-x="467" 
d="M176 -10q-85 0 -119 57.5t-34 152.5q0 96 34.5 154.5t118.5 58.5q38 0 63 -10.5t40 -25.5t21.5 -27.5t8.5 -15.5h2v78h124v-412h-105l-19 62h-2q-2 -5 -14.5 -22.5t-41 -33.5t-77.5 -16zM226 91q36 0 54 15t24 39.5t6 53.5q0 30 -6 54.5t-24 39t-54 14.5t-54.5 -15
t-24.5 -39.5t-6 -53.5t6 -53.5t24.5 -39.5t54.5 -15zM84 463v10l123 111h51l121 -111v-10h-105l-39 44h-5l-37 -44h-109zM284 613q-27 0 -42.5 8.5t-25 20t-18 20t-21.5 8.5q-16 0 -19 -13.5t-3 -39.5h-69q0 13 0.5 33t7.5 40.5t24.5 34.5t50.5 14q27 0 42.5 -8.5t25.5 -20
t19 -20t22 -8.5q15 0 18 14.5t3 39.5h69q0 -24 -4 -53t-21.5 -49.5t-58.5 -20.5z" />
    <glyph glyph-name="adieresis" unicode="&#xe4;" horiz-adv-x="529" 
d="M151 456q-41 0 -55 20.5t-14 48.5q0 27 14 47t55 20q40 0 53.5 -20t13.5 -47q0 -28 -13.5 -48.5t-53.5 -20.5zM344 456q-41 0 -55 20.5t-14 48.5q0 27 14 47t55 20t54 -20t13 -47q0 -28 -13 -48.5t-54 -20.5zM199 -10q-62 0 -102.5 29.5t-61 78.5t-20.5 108
q0 60 20.5 109t61.5 78t102 28q45 0 78.5 -17t56.5 -44v52h121v-278q0 -19 3 -34.5t14.5 -21t35.5 5.5v-66q0 1 -8.5 -6t-27 -14.5t-47.5 -7.5q-34 0 -52.5 11.5t-26.5 27.5t-10 32q-22 -31 -55.5 -51t-81.5 -20zM231 83q40 0 60.5 18t27.5 46t7 60t-7.5 60.5t-27.5 46.5
t-60 18t-60.5 -18t-28 -47t-7.5 -60t7.5 -59.5t28 -46.5t60.5 -18z" />
    <glyph glyph-name="uni1EA1" unicode="&#x1ea1;" horiz-adv-x="467" 
d="M176 -10q-85 0 -119 57.5t-34 152.5q0 96 34.5 154.5t118.5 58.5q38 0 63 -10.5t40 -25.5t21.5 -27.5t8.5 -15.5h2v78h124v-412h-105l-19 62h-2q-2 -5 -14.5 -22.5t-41 -33.5t-77.5 -16zM226 91q36 0 54 15t24 39.5t6 53.5q0 30 -6 54.5t-24 39t-54 14.5t-54.5 -15
t-24.5 -39.5t-6 -53.5t6 -53.5t24.5 -39.5t54.5 -15zM225 -187q-36 0 -48 17.5t-12 42.5q0 23 12 40.5t48 17.5q35 0 46.5 -17.5t11.5 -40.5q0 -25 -11.5 -42.5t-46.5 -17.5z" />
    <glyph glyph-name="agrave" unicode="&#xe0;" horiz-adv-x="467" 
d="M176 -10q-85 0 -119 57.5t-34 152.5q0 96 34.5 154.5t118.5 58.5q38 0 63 -10.5t40 -25.5t21.5 -27.5t8.5 -15.5h2v78h124v-412h-105l-19 62h-2q-2 -5 -14.5 -22.5t-41 -33.5t-77.5 -16zM226 91q36 0 54 15t24 39.5t6 53.5q0 30 -6 54.5t-24 39t-54 14.5t-54.5 -15
t-24.5 -39.5t-6 -53.5t6 -53.5t24.5 -39.5t54.5 -15zM204 458l-88 94v20h101l42 -99v-15h-55z" />
    <glyph glyph-name="uni1EA3" unicode="&#x1ea3;" horiz-adv-x="467" 
d="M176 -10q-85 0 -119 57.5t-34 152.5q0 96 34.5 154.5t118.5 58.5q38 0 63 -10.5t40 -25.5t21.5 -27.5t8.5 -15.5h2v78h124v-412h-105l-19 62h-2q-2 -5 -14.5 -22.5t-41 -33.5t-77.5 -16zM226 91q36 0 54 15t24 39.5t6 53.5q0 30 -6 54.5t-24 39t-54 14.5t-54.5 -15
t-24.5 -39.5t-6 -53.5t6 -53.5t24.5 -39.5t54.5 -15zM195 470v18q6 13 22 22t30 19.5t14 28.5q0 16 -15.5 21.5t-33.5 -0.5t-26 -23l-47 32q8 29 30 45.5t50 21t54 -3t43 -27.5t17 -53q0 -31 -13 -47.5t-28.5 -27.5t-21.5 -26h-75z" />
    <glyph glyph-name="amacron" unicode="&#x101;" horiz-adv-x="467" 
d="M176 -10q-85 0 -119 57.5t-34 152.5q0 96 34.5 154.5t118.5 58.5q38 0 63 -10.5t40 -25.5t21.5 -27.5t8.5 -15.5h2v78h124v-412h-105l-19 62h-2q-2 -5 -14.5 -22.5t-41 -33.5t-77.5 -16zM226 91q36 0 54 15t24 39.5t6 53.5q0 30 -6 54.5t-24 39t-54 14.5t-54.5 -15
t-24.5 -39.5t-6 -53.5t6 -53.5t24.5 -39.5t54.5 -15zM87 459v83h289v-83h-289z" />
    <glyph glyph-name="aogonek" unicode="&#x105;" horiz-adv-x="467" 
d="M176 -10q-85 0 -119 57.5t-34 152.5q0 96 34.5 154.5t118.5 58.5q38 0 63 -10.5t40 -25.5t21.5 -27.5t8.5 -15.5h2v78h124v-412h-105l-19 62h-2q-2 -5 -14.5 -22.5t-41 -33.5t-77.5 -16zM226 91q36 0 54 15t24 39.5t6 53.5q0 30 -6 54.5t-24 39t-54 14.5t-54.5 -15
t-24.5 -39.5t-6 -53.5t6 -53.5t24.5 -39.5t54.5 -15zM383 -199q-25 0 -49.5 9t-40.5 29t-16 54q0 30 16 54t39.5 41t47 28t39.5 16.5l16 5.5v-54l-10.5 -4.5t-24.5 -13.5t-25 -22.5t-11 -29.5q0 -27 30 -27q13 0 22 6.5t14 13.5l5 7l63 -56l-12.5 -14t-38 -28.5t-64.5 -14.5
z" />
    <glyph glyph-name="aring" unicode="&#xe5;" horiz-adv-x="467" 
d="M176 -10q-85 0 -119 57.5t-34 152.5q0 96 34.5 154.5t118.5 58.5q38 0 63 -10.5t40 -25.5t21.5 -27.5t8.5 -15.5h2v78h124v-412h-105l-19 62h-2q-2 -5 -14.5 -22.5t-41 -33.5t-77.5 -16zM226 91q36 0 54 15t24 39.5t6 53.5q0 30 -6 54.5t-24 39t-54 14.5t-54.5 -15
t-24.5 -39.5t-6 -53.5t6 -53.5t24.5 -39.5t54.5 -15zM230 471q-53 0 -78 28t-25 74q0 47 24.5 75.5t78.5 28.5q52 0 78.5 -28.5t26.5 -75.5q0 -44 -26.5 -73t-78.5 -29zM228 541q19 0 27.5 9.5t8.5 24.5t-8.5 26t-27.5 11q-18 0 -26.5 -11t-8.5 -26t9 -24.5t26 -9.5z" />
    <glyph glyph-name="atilde" unicode="&#xe3;" horiz-adv-x="467" 
d="M176 -10q-85 0 -119 57.5t-34 152.5q0 96 34.5 154.5t118.5 58.5q38 0 63 -10.5t40 -25.5t21.5 -27.5t8.5 -15.5h2v78h124v-412h-105l-19 62h-2q-2 -5 -14.5 -22.5t-41 -33.5t-77.5 -16zM226 91q36 0 54 15t24 39.5t6 53.5q0 30 -6 54.5t-24 39t-54 14.5t-54.5 -15
t-24.5 -39.5t-6 -53.5t6 -53.5t24.5 -39.5t54.5 -15zM284 471q-27 0 -42.5 8.5t-25 20t-18 20t-21.5 8.5q-16 0 -19 -13.5t-3 -39.5h-69q0 13 0.5 33t7.5 40.5t24.5 34.5t50.5 14q27 0 42.5 -8.5t25.5 -20t19 -20t22 -8.5q15 0 18 14.5t3 39.5h69q0 -24 -4 -53t-21.5 -49.5
t-58.5 -20.5z" />
    <glyph glyph-name="ae" unicode="&#xe6;" horiz-adv-x="727" 
d="M143 0q-56 0 -90 30t-34 79q0 42 24.5 66t63 37.5t80.5 22.5q43 10 65 17t29 15.5t7 21.5q0 21 -17.5 34t-42.5 13q-18 0 -35.5 -7t-28 -24t-8.5 -47h-112q1 61 28 97.5t69 52.5t88 16q38 0 73 -11.5t59 -34.5q24 21 58.5 34t81.5 13q53 0 96 -26t68.5 -70.5t26.5 -101.5
v-26h-287q0 -47 25 -72t70 -25q36 0 54.5 16.5t25.5 44.5l116 -22q-12 -39 -36.5 -71.5t-63.5 -52t-96 -19.5q-88 0 -136.5 41t-64.5 98q-1 -14 -10 -37t-27 -46.5t-47.5 -39.5t-71.5 -16zM405 262h166q0 4 -1 16.5t-7.5 27t-22 25t-44.5 10.5q-38 0 -57 -17t-26 -36t-8 -26
zM193 85q25 2 46.5 23t35 53t13.5 68q-8 -8 -28 -14t-35 -11q-34 -11 -60 -30t-24 -51q2 -23 18.5 -31t33.5 -7z" />
    <glyph glyph-name="b" unicode="b" horiz-adv-x="504" 
d="M301 -10q-37 0 -62 11t-41 25t-23 25.5t-8 13.5h-2l-19 -65h-105v563h124l1 -233h2q0 1 6.5 13.5t21.5 28.5t40.5 28t64.5 12q91 0 128.5 -57t37.5 -157q0 -95 -37 -151.5t-129 -56.5zM258 91q38 0 57.5 15.5t26.5 40t7 52.5q0 27 -7 51.5t-27 40t-58 15.5
q-55 0 -73 -31.5t-18 -75.5q0 -45 18.5 -76.5t73.5 -31.5z" />
    <glyph glyph-name="c" unicode="c" horiz-adv-x="478" 
d="M240 -10q-58 0 -106.5 23.5t-77 70t-28.5 115.5q1 67 29.5 115.5t76 74t107.5 25.5q66 0 111 -25t68.5 -64t25.5 -80h-110q-13 66 -90 66q-50 0 -75.5 -28.5t-25.5 -73.5q0 -53 25 -84t77 -31q32 0 57 17.5t32 53.5h110q-2 -43 -25.5 -83.5t-69 -66t-111.5 -25.5z" />
    <glyph glyph-name="cacute" unicode="&#x107;" horiz-adv-x="478" 
d="M240 -10q-58 0 -106.5 23.5t-77 70t-28.5 115.5q1 67 29.5 115.5t76 74t107.5 25.5q66 0 111 -25t68.5 -64t25.5 -80h-110q-13 66 -90 66q-50 0 -75.5 -28.5t-25.5 -73.5q0 -53 25 -84t77 -31q32 0 57 17.5t32 53.5h110q-2 -43 -25.5 -83.5t-69 -66t-111.5 -25.5z
M256 460h-54v15l42 99h101v-20z" />
    <glyph glyph-name="ccaron" unicode="&#x10d;" horiz-adv-x="478" 
d="M240 -10q-58 0 -106.5 23.5t-77 70t-28.5 115.5q1 67 29.5 115.5t76 74t107.5 25.5q66 0 111 -25t68.5 -64t25.5 -80h-110q-13 66 -90 66q-50 0 -75.5 -28.5t-25.5 -73.5q0 -53 25 -84t77 -31q32 0 57 17.5t32 53.5h110q-2 -43 -25.5 -83.5t-69 -66t-111.5 -25.5zM69 597
h124l45 -85l46 85h122l-143 -136h-51z" />
    <glyph glyph-name="ccedilla" unicode="&#xe7;" horiz-adv-x="478" 
d="M240 -10q-58 0 -106.5 23.5t-77 70t-28.5 115.5q1 67 29.5 115.5t76 74t107.5 25.5q66 0 111 -25t68.5 -64t25.5 -80h-110q-13 66 -90 66q-50 0 -75.5 -28.5t-25.5 -73.5q0 -53 25 -84t77 -31q32 0 57 17.5t32 53.5h110q-2 -43 -25.5 -83.5t-69 -66t-111.5 -25.5z
M110 -144l35 56q10 -8 30.5 -15t42.5 -9.5t37.5 2.5t15.5 22q0 12 -13 18t-30.5 4t-30.5 -14l-50 24l45 97l53 -21l-37 -61q15 12 39 15.5t48 -2t40 -21.5t16 -44q0 -33 -23 -54t-60 -28t-78.5 0.5t-79.5 30.5z" />
    <glyph glyph-name="cdotaccent" unicode="&#x10b;" horiz-adv-x="478" 
d="M240 -10q-58 0 -106.5 23.5t-77 70t-28.5 115.5q1 67 29.5 115.5t76 74t107.5 25.5q66 0 111 -25t68.5 -64t25.5 -80h-110q-13 66 -90 66q-50 0 -75.5 -28.5t-25.5 -73.5q0 -53 25 -84t77 -31q32 0 57 17.5t32 53.5h110q-2 -43 -25.5 -83.5t-69 -66t-111.5 -25.5z
M238 456q-41 0 -55 20.5t-14 48.5q0 26 14 46.5t55 20.5t54 -20.5t13 -46.5q0 -28 -13 -48.5t-54 -20.5z" />
    <glyph glyph-name="d" unicode="d" horiz-adv-x="514" 
d="M206 -10q-93 0 -129.5 56.5t-36.5 151.5q0 100 37.5 157t128.5 57q39 0 64.5 -12t40.5 -28t21.5 -28.5t6.5 -13.5h2v233h125v-563h-106l-19 65h-2q0 -2 -7.5 -13.5t-23 -25.5t-41 -25t-61.5 -11zM249 91q55 0 73.5 31.5t18.5 76.5q0 44 -18 75.5t-73 31.5
q-38 0 -58 -15.5t-27 -40t-7 -51.5q0 -28 6.5 -52.5t26 -40t58.5 -15.5z" />
    <glyph glyph-name="eth" unicode="&#xf0;" horiz-adv-x="527" 
d="M256 -10q-72 0 -119 29t-71.5 75t-27 97.5t17 97.5t59 75t98.5 29q47 0 79 -15.5t51.5 -36t29 -36l9.5 -15.5h1q-11 45 -46.5 87t-74.5 74l-52 -32l-44 35l52 31q-22 15 -38 24.5t-20 11.5l90 101q50 -25 92 -62l57 35l44 -34l-64 -39q52 -60 79 -131.5t28.5 -142
t-23 -129t-76.5 -94t-131 -35.5zM387 177q0 40 -18 67.5t-46 42t-58.5 16t-57 -10t-41.5 -36.5t-10 -63q4 -39 26.5 -63.5t54 -34t63.5 -3.5t56 27t31 58z" />
    <glyph glyph-name="dcaron" unicode="&#x10f;" horiz-adv-x="622" 
d="M501 398l28 167h114l-72 -167h-70zM206 -10q-93 0 -129.5 56.5t-36.5 151.5q0 100 37.5 157t128.5 57q39 0 64.5 -12t40.5 -28t21.5 -28.5t6.5 -13.5h2v233h125v-563h-106l-19 65h-2q0 -2 -7.5 -13.5t-23 -25.5t-41 -25t-61.5 -11zM249 91q55 0 73.5 31.5t18.5 76.5
q0 44 -18 75.5t-73 31.5q-38 0 -58 -15.5t-27 -40t-7 -51.5q0 -28 6.5 -52.5t26 -40t58.5 -15.5z" />
    <glyph glyph-name="dcroat" unicode="&#x111;" horiz-adv-x="513" 
d="M202 -10q-93 0 -129.5 56.5t-36.5 151.5q0 100 37.5 157t128.5 57q38 0 64 -12t40.5 -28t21 -28.5t7.5 -13.5h2v121h-138v71h138v41h125v-41h36v-71h-36v-451h-106l-19 65h-2q0 -2 -7.5 -13.5t-23 -25.5t-41 -25t-61.5 -11zM245 91q54 0 73 31.5t19 76.5q0 44 -18.5 75.5
t-72.5 31.5q-39 0 -58.5 -15.5t-26.5 -40t-7 -51.5q0 -28 6.5 -52.5t26 -40t58.5 -15.5z" />
    <glyph glyph-name="e" unicode="e" 
d="M232 -10q-73 0 -118.5 30t-67 77.5t-22.5 100.5q-1 65 24 114t71.5 76t108.5 27q57 0 102 -24t71 -68.5t27 -105.5v-11v-15h-289q0 -51 24.5 -76t66.5 -25q33 0 54.5 16t25.5 42h117q-6 -65 -55.5 -111.5t-139.5 -46.5zM141 242h166q0 4 -2 16t-10 25.5t-24.5 23.5
t-45.5 10q-38 0 -55.5 -15.5t-22.5 -34t-6 -25.5z" />
    <glyph glyph-name="eacute" unicode="&#xe9;" 
d="M232 -10q-73 0 -118.5 30t-67 77.5t-22.5 100.5q-1 65 24 114t71.5 76t108.5 27q57 0 102 -24t71 -68.5t27 -105.5v-11v-15h-289q0 -51 24.5 -76t66.5 -25q33 0 54.5 16t25.5 42h117q-6 -65 -55.5 -111.5t-139.5 -46.5zM141 242h166q0 4 -2 16t-10 25.5t-24.5 23.5
t-45.5 10q-38 0 -55.5 -15.5t-22.5 -34t-6 -25.5zM259 458h-54v15l42 99h101v-20z" />
    <glyph glyph-name="ecaron" unicode="&#x11b;" 
d="M232 -10q-73 0 -118.5 30t-67 77.5t-22.5 100.5q-1 65 24 114t71.5 76t108.5 27q57 0 102 -24t71 -68.5t27 -105.5v-11v-15h-289q0 -51 24.5 -76t66.5 -25q33 0 54.5 16t25.5 42h117q-6 -65 -55.5 -111.5t-139.5 -46.5zM141 242h166q0 4 -2 16t-10 25.5t-24.5 23.5
t-45.5 10q-38 0 -55.5 -15.5t-22.5 -34t-6 -25.5zM54 599h124l45 -67l46 67h122v-18l-143 -118h-51l-143 119v17z" />
    <glyph glyph-name="ecircumflex" unicode="&#xea;" 
d="M232 -10q-73 0 -118.5 30t-67 77.5t-22.5 100.5q-1 65 24 114t71.5 76t108.5 27q57 0 102 -24t71 -68.5t27 -105.5v-11v-15h-289q0 -51 24.5 -76t66.5 -25q33 0 54.5 16t25.5 42h117q-6 -65 -55.5 -111.5t-139.5 -46.5zM141 242h166q0 4 -2 16t-10 25.5t-24.5 23.5
t-45.5 10q-38 0 -55.5 -15.5t-22.5 -34t-6 -25.5zM80 457v10l123 111h51l121 -111v-10h-105l-39 44h-5l-37 -44h-109z" />
    <glyph glyph-name="uni1EBF" unicode="&#x1ebf;" 
d="M232 -10q-73 0 -118.5 30t-67 77.5t-22.5 100.5q-1 65 24 114t71.5 76t108.5 27q57 0 102 -24t71 -68.5t27 -105.5v-11v-15h-289q0 -51 24.5 -76t66.5 -25q33 0 54.5 16t25.5 42h117q-6 -65 -55.5 -111.5t-139.5 -46.5zM141 242h166q0 4 -2 16t-10 25.5t-24.5 23.5
t-45.5 10q-38 0 -55.5 -15.5t-22.5 -34t-6 -25.5zM80 457v10l123 111h51l121 -111v-10h-105l-39 44h-5l-37 -44h-109zM379 554h-54v15l42 99h101v-20z" />
    <glyph glyph-name="uni1EC7" unicode="&#x1ec7;" 
d="M232 -10q-73 0 -118.5 30t-67 77.5t-22.5 100.5q-1 65 24 114t71.5 76t108.5 27q57 0 102 -24t71 -68.5t27 -105.5v-11v-15h-289q0 -51 24.5 -76t66.5 -25q33 0 54.5 16t25.5 42h117q-6 -65 -55.5 -111.5t-139.5 -46.5zM141 242h166q0 4 -2 16t-10 25.5t-24.5 23.5
t-45.5 10q-38 0 -55.5 -15.5t-22.5 -34t-6 -25.5zM80 457v10l123 111h51l121 -111v-10h-105l-39 44h-5l-37 -44h-109zM229 -187q-36 0 -48 17.5t-12 42.5q0 23 12 40.5t48 17.5q35 0 46.5 -17.5t11.5 -40.5q0 -25 -11.5 -42.5t-46.5 -17.5z" />
    <glyph glyph-name="uni1EC1" unicode="&#x1ec1;" 
d="M232 -10q-73 0 -118.5 30t-67 77.5t-22.5 100.5q-1 65 24 114t71.5 76t108.5 27q57 0 102 -24t71 -68.5t27 -105.5v-11v-15h-289q0 -51 24.5 -76t66.5 -25q33 0 54.5 16t25.5 42h117q-6 -65 -55.5 -111.5t-139.5 -46.5zM141 242h166q0 4 -2 16t-10 25.5t-24.5 23.5
t-45.5 10q-38 0 -55.5 -15.5t-22.5 -34t-6 -25.5zM61 554l-88 94v20h101l42 -99v-15h-55zM80 457v10l123 111h51l121 -111v-10h-105l-39 44h-5l-37 -44h-109z" />
    <glyph glyph-name="uni1EC3" unicode="&#x1ec3;" 
d="M232 -10q-73 0 -118.5 30t-67 77.5t-22.5 100.5q-1 65 24 114t71.5 76t108.5 27q57 0 102 -24t71 -68.5t27 -105.5v-11v-15h-289q0 -51 24.5 -76t66.5 -25q33 0 54.5 16t25.5 42h117q-6 -65 -55.5 -111.5t-139.5 -46.5zM141 242h166q0 4 -2 16t-10 25.5t-24.5 23.5
t-45.5 10q-38 0 -55.5 -15.5t-22.5 -34t-6 -25.5zM79 457v10l123 111h51l121 -111v-10h-105l-39 44h-5l-37 -44h-109zM315 554v18q6 13 22 22t30 19.5t14 28.5q0 16 -15.5 21.5t-33.5 -0.5t-26 -23l-47 32q8 29 30 45.5t50 21t54 -3t43 -27.5t17 -53q0 -31 -13 -47.5
t-28.5 -27.5t-21.5 -26h-75z" />
    <glyph glyph-name="uni1EC5" unicode="&#x1ec5;" 
d="M232 -10q-73 0 -118.5 30t-67 77.5t-22.5 100.5q-1 65 24 114t71.5 76t108.5 27q57 0 102 -24t71 -68.5t27 -105.5v-11v-15h-289q0 -51 24.5 -76t66.5 -25q33 0 54.5 16t25.5 42h117q-6 -65 -55.5 -111.5t-139.5 -46.5zM141 242h166q0 4 -2 16t-10 25.5t-24.5 23.5
t-45.5 10q-38 0 -55.5 -15.5t-22.5 -34t-6 -25.5zM80 457v10l123 111h51l121 -111v-10h-105l-39 44h-5l-37 -44h-109zM280 607q-27 0 -42.5 8.5t-25 20t-18 20t-21.5 8.5q-16 0 -19 -13.5t-3 -39.5h-69q0 13 0.5 33t7.5 40.5t24.5 34.5t50.5 14q27 0 42.5 -8.5t25.5 -20
t19 -20t22 -8.5q15 0 18 14.5t3 39.5h69q0 -24 -4 -53t-21.5 -49.5t-58.5 -20.5z" />
    <glyph glyph-name="edieresis" unicode="&#xeb;" 
d="M232 -10q-73 0 -118.5 30t-67 77.5t-22.5 100.5q-1 65 24 114t71.5 76t108.5 27q57 0 102 -24t71 -68.5t27 -105.5v-11v-15h-289q0 -51 24.5 -76t66.5 -25q33 0 54.5 16t25.5 42h117q-6 -65 -55.5 -111.5t-139.5 -46.5zM141 242h166q0 4 -2 16t-10 25.5t-24.5 23.5
t-45.5 10q-38 0 -55.5 -15.5t-22.5 -34t-6 -25.5zM131 457q-41 0 -55 20.5t-14 48.5q0 26 14 46.5t55 20.5t54 -20.5t13 -46.5q0 -28 -13 -48.5t-54 -20.5zM325 457q-41 0 -55 20.5t-14 48.5q0 26 14 46.5t55 20.5t54 -20.5t13 -46.5q0 -28 -13 -48.5t-54 -20.5z" />
    <glyph glyph-name="edotaccent" unicode="&#x117;" 
d="M232 -10q-73 0 -118.5 30t-67 77.5t-22.5 100.5q-1 65 24 114t71.5 76t108.5 27q57 0 102 -24t71 -68.5t27 -105.5v-11v-15h-289q0 -51 24.5 -76t66.5 -25q33 0 54.5 16t25.5 42h117q-6 -65 -55.5 -111.5t-139.5 -46.5zM141 242h166q0 4 -2 16t-10 25.5t-24.5 23.5
t-45.5 10q-38 0 -55.5 -15.5t-22.5 -34t-6 -25.5zM227 456q-41 0 -55 20.5t-14 48.5q0 26 14 46.5t55 20.5t54 -20.5t13 -46.5q0 -28 -13 -48.5t-54 -20.5z" />
    <glyph glyph-name="uni1EB9" unicode="&#x1eb9;" 
d="M232 -10q-73 0 -118.5 30t-67 77.5t-22.5 100.5q-1 65 24 114t71.5 76t108.5 27q57 0 102 -24t71 -68.5t27 -105.5v-11v-15h-289q0 -51 24.5 -76t66.5 -25q33 0 54.5 16t25.5 42h117q-6 -65 -55.5 -111.5t-139.5 -46.5zM141 242h166q0 4 -2 16t-10 25.5t-24.5 23.5
t-45.5 10q-38 0 -55.5 -15.5t-22.5 -34t-6 -25.5zM229 -187q-36 0 -48 17.5t-12 42.5q0 23 12 40.5t48 17.5q35 0 46.5 -17.5t11.5 -40.5q0 -25 -11.5 -42.5t-46.5 -17.5z" />
    <glyph glyph-name="egrave" unicode="&#xe8;" 
d="M232 -10q-73 0 -118.5 30t-67 77.5t-22.5 100.5q-1 65 24 114t71.5 76t108.5 27q57 0 102 -24t71 -68.5t27 -105.5v-11v-15h-289q0 -51 24.5 -76t66.5 -25q33 0 54.5 16t25.5 42h117q-6 -65 -55.5 -111.5t-139.5 -46.5zM141 242h166q0 4 -2 16t-10 25.5t-24.5 23.5
t-45.5 10q-38 0 -55.5 -15.5t-22.5 -34t-6 -25.5zM204 458l-88 94v20h101l42 -99v-15h-55z" />
    <glyph glyph-name="uni1EBB" unicode="&#x1ebb;" 
d="M232 -10q-73 0 -118.5 30t-67 77.5t-22.5 100.5q-1 65 24 114t71.5 76t108.5 27q57 0 102 -24t71 -68.5t27 -105.5v-11v-15h-289q0 -51 24.5 -76t66.5 -25q33 0 54.5 16t25.5 42h117q-6 -65 -55.5 -111.5t-139.5 -46.5zM141 242h166q0 4 -2 16t-10 25.5t-24.5 23.5
t-45.5 10q-38 0 -55.5 -15.5t-22.5 -34t-6 -25.5zM122 572v18q6 13 22 22t30 19.5t14 28.5q0 16 -15.5 21.5t-33.5 -0.5t-26 -23l-47 32q8 29 30 45.5t50 21t54 -3t43 -27.5t17 -53q0 -31 -13 -47.5t-28.5 -27.5t-21.5 -26h-75z" />
    <glyph glyph-name="emacron" unicode="&#x113;" horiz-adv-x="466" 
d="M232 -10q-73 0 -118.5 30t-67 77.5t-22.5 100.5q-1 65 24 114t71.5 76t108.5 27q57 0 102 -24t71 -68.5t27 -105.5v-11v-15h-289q0 -51 24.5 -76t66.5 -25q33 0 54.5 16t25.5 42h117q-6 -65 -55.5 -111.5t-139.5 -46.5zM141 242h166q0 4 -2 16t-10 25.5t-24.5 23.5
t-45.5 10q-38 0 -55.5 -15.5t-22.5 -34t-6 -25.5zM85 476v83h289v-83h-289z" />
    <glyph glyph-name="eogonek" unicode="&#x119;" 
d="M232 -10q-73 0 -118.5 30t-67 77.5t-22.5 100.5q-1 65 24 114t71.5 76t108.5 27q57 0 102 -24t71 -68.5t27 -105.5v-11v-15h-289q0 -51 24.5 -76t66.5 -25q33 0 54.5 16t25.5 42h117q-6 -65 -55.5 -111.5t-139.5 -46.5zM141 242h166q0 4 -2 16t-10 25.5t-24.5 23.5
t-45.5 10q-38 0 -55.5 -15.5t-22.5 -34t-6 -25.5zM250 -184q-25 0 -49.5 9t-40.5 29t-16 54q0 30 16 54t39.5 41t47 28t39.5 16.5l16 5.5v-54l-10.5 -4.5t-24.5 -13.5t-25 -22.5t-11 -29.5q0 -27 30 -27q13 0 22 6.5t14 13.5l5 7l63 -56l-12.5 -14t-38 -28.5t-64.5 -14.5z
" />
    <glyph glyph-name="uni1EBD" unicode="&#x1ebd;" 
d="M232 -10q-73 0 -118.5 30t-67 77.5t-22.5 100.5q-1 65 24 114t71.5 76t108.5 27q57 0 102 -24t71 -68.5t27 -105.5v-11v-15h-289q0 -51 24.5 -76t66.5 -25q33 0 54.5 16t25.5 42h117q-6 -65 -55.5 -111.5t-139.5 -46.5zM141 242h166q0 4 -2 16t-10 25.5t-24.5 23.5
t-45.5 10q-38 0 -55.5 -15.5t-22.5 -34t-6 -25.5zM289 471q-27 0 -42.5 8.5t-25 20t-18 20t-21.5 8.5q-16 0 -19 -13.5t-3 -39.5h-69q0 13 0.5 33t7.5 40.5t24.5 34.5t50.5 14q27 0 42.5 -8.5t25.5 -20t19 -20t22 -8.5q15 0 18 14.5t3 39.5h69q0 -24 -4 -53t-21.5 -49.5
t-58.5 -20.5z" />
    <glyph glyph-name="f" unicode="f" horiz-adv-x="299" 
d="M71 -1v330h-53v83h53v57q0 64 30 90t84 26h102v-94h-96v-79h94v-83h-94v-330h-120z" />
    <glyph glyph-name="g" unicode="g" horiz-adv-x="486" 
d="M158 -191v114h169v142h-2q-1 -2 -7.5 -13.5t-22 -25.5t-40 -25t-61.5 -11q-92 0 -129.5 57t-37.5 152q0 100 38 156.5t129 56.5q39 0 64 -12t39.5 -28t20.5 -28.5t7 -13.5h2v82h124v-429q0 -99 -39 -136.5t-118 -37.5h-136zM234 91q55 0 73.5 31.5t18.5 76.5
q0 44 -18 75.5t-72 31.5q-39 0 -58.5 -15.5t-26.5 -40t-7 -51.5q0 -28 6.5 -52.5t26 -40t57.5 -15.5z" />
    <glyph glyph-name="gbreve" unicode="&#x11f;" horiz-adv-x="469" 
d="M250 462q-66 0 -103 30t-37 82h84q0 -26 16 -36.5t39 -10.5q24 0 39 9.5t15 37.5h85q0 -51 -35.5 -81.5t-102.5 -30.5zM158 -191v114h169v142h-2q-1 -2 -7.5 -13.5t-22 -25.5t-40 -25t-61.5 -11q-92 0 -129.5 57t-37.5 152q0 100 38 156.5t129 56.5q39 0 64 -12t39.5 -28
t20.5 -28.5t7 -13.5h2v82h124v-429q0 -99 -39 -136.5t-118 -37.5h-136zM234 90q55 0 73.5 32t18.5 77q0 44 -18 76t-72 32q-39 0 -58.5 -15.5t-26.5 -40.5t-7 -52q0 -28 6.5 -53t26 -40.5t57.5 -15.5z" />
    <glyph glyph-name="uni0123" unicode="&#x123;" horiz-adv-x="469" 
d="M261 460h-54v16l42 98h101v-20zM158 -191v114h169v142h-2q-1 -2 -7.5 -13.5t-22 -25.5t-40 -25t-61.5 -11q-92 0 -129.5 57t-37.5 152q0 100 38 156.5t129 56.5q39 0 64 -12t39.5 -28t20.5 -28.5t7 -13.5h2v82h124v-429q0 -99 -39 -136.5t-118 -37.5h-136zM234 90
q55 0 73.5 32t18.5 77q0 44 -18 76t-72 32q-39 0 -58.5 -15.5t-26.5 -40.5t-7 -52q0 -28 6.5 -53t26 -40.5t57.5 -15.5z" />
    <glyph glyph-name="gdotaccent" unicode="&#x121;" horiz-adv-x="469" 
d="M240 458q-41 0 -55 20.5t-14 48.5q0 26 14 46.5t55 20.5t54 -20.5t13 -46.5q0 -28 -13 -48.5t-54 -20.5zM158 -191v114h169v142h-2q-1 -2 -7.5 -13.5t-22 -25.5t-40 -25t-61.5 -11q-92 0 -129.5 57t-37.5 152q0 100 38 156.5t129 56.5q39 0 64 -12t39.5 -28t20.5 -28.5
t7 -13.5h2v82h124v-429q0 -99 -39 -136.5t-118 -37.5h-136zM234 90q55 0 73.5 32t18.5 77q0 44 -18 76t-72 32q-39 0 -58.5 -15.5t-26.5 -40.5t-7 -52q0 -28 6.5 -53t26 -40.5t57.5 -15.5z" />
    <glyph glyph-name="h" unicode="h" horiz-adv-x="493" 
d="M44 0v563h125v-233h2q0 1 5.5 14t19.5 28.5t39 27.5t64 12q43 0 71 -15.5t44 -41t23 -54.5t9 -56t2 -46v-199h-118v200q0 27 -5 51t-21.5 39.5t-52.5 15.5t-54 -16t-23 -41t-5 -51v-198h-125z" />
    <glyph glyph-name="hbar" unicode="&#x127;" horiz-adv-x="485" 
d="M48 0v451h-51v71h51v41h121v-41h126v-71h-126v-157q1 7 8 26t21 41t38 38t59 16q47 0 76 -18.5t43 -48.5t19 -65t5 -68.5v-59.5v-155h-121v143q0 46 -2.5 83.5t-18 60t-55.5 22.5t-56 -39t-16 -114v-156h-121z" />
    <glyph glyph-name="i" unicode="i" horiz-adv-x="223" 
d="M112 459q-37 -1 -49.5 17.5t-12.5 44.5q0 25 12.5 43t49.5 18q36 0 48.5 -18t12.5 -43q0 -27 -12.5 -44.5t-48.5 -17.5zM52 0v412h121v-412h-121z" />
    <glyph glyph-name="dotlessi" unicode="&#x131;" horiz-adv-x="215" 
d="M47 0v415h121v-415h-121z" />
    <glyph glyph-name="iacute" unicode="&#xed;" horiz-adv-x="220" 
d="M127 460h-54v15l42 99h100v-20zM41 0v415h121v-415h-121z" />
    <glyph glyph-name="icircumflex" unicode="&#xee;" horiz-adv-x="268" 
d="M-11 457v9l123 112h50l122 -112v-9h-105l-39 44h-6l-36 -44h-109zM77 0v415h121v-415h-121z" />
    <glyph glyph-name="idieresis" unicode="&#xef;" horiz-adv-x="278" 
d="M46 456q-41 0 -55 20.5t-14 48.5q0 27 14 47t55 20t54 -20t13 -47q0 -28 -13 -48.5t-54 -20.5zM239 456q-41 0 -55 20.5t-14 48.5q0 27 14 47t55 20t54.5 -20t13.5 -47q0 -28 -13.5 -48.5t-54.5 -20.5zM81 0v415h121v-415h-121z" />
    <glyph glyph-name="i.loclTRK" horiz-adv-x="224" 
d="M47 0v415h121v-415h-121zM113 456q-41 0 -55 20.5t-14 48.5q0 26 14 46.5t55 20.5t54 -20.5t13 -46.5q0 -28 -13 -48.5t-54 -20.5z" />
    <glyph glyph-name="uni1ECB" unicode="&#x1ecb;" horiz-adv-x="223" 
d="M112 459q-37 -1 -49.5 17.5t-12.5 44.5q0 25 12.5 43t49.5 18q36 0 48.5 -18t12.5 -43q0 -27 -12.5 -44.5t-48.5 -17.5zM52 0v412h121v-412h-121zM105 -187q-36 0 -48 17.5t-12 42.5q0 23 12 40.5t48 17.5q35 0 46.5 -17.5t11.5 -40.5q0 -25 -11.5 -42.5t-46.5 -17.5z
" />
    <glyph glyph-name="igrave" unicode="&#xec;" horiz-adv-x="224" 
d="M92 460l-89 93v20h101l42 -98v-15h-54zM52 0v412h121v-412h-121z" />
    <glyph glyph-name="uni1EC9" unicode="&#x1ec9;" horiz-adv-x="251" 
d="M87 468v17q6 14 22 23t30 19.5t14 28.5q0 16 -15.5 21.5t-33.5 -0.5t-25 -23l-47 32q8 29 29.5 45.5t49.5 21t54 -3.5t43 -28t17 -52q0 -31 -13 -47.5t-28.5 -28t-21.5 -25.5h-75zM59 0v412h121v-412h-121z" />
    <glyph glyph-name="imacron" unicode="&#x12b;" horiz-adv-x="239" 
d="M-33 477v82h274v-82h-274zM45 0v415h121v-415h-121z" />
    <glyph glyph-name="iogonek" unicode="&#x12f;" horiz-adv-x="248" 
d="M112 436q-40 0 -53 19t-13 47q0 26 13.5 44.5t52.5 18.5q37 0 50.5 -18.5t13.5 -44.5q0 -28 -13.5 -47t-50.5 -19zM51 0v415l15 -6t45 -6t45.5 6l15.5 6v-415l-11.5 -4.5t-26.5 -13.5t-26 -22.5t-11 -29.5q0 -27 29 -27q13 0 22.5 6.5t14.5 13.5l5 7l63 -56l-12.5 -14
t-38 -28.5t-65.5 -14.5q-24 0 -48.5 9t-41 29t-16.5 54q0 29 15.5 51.5t36.5 39.5h-10z" />
    <glyph glyph-name="itilde" unicode="&#x129;" horiz-adv-x="242" 
d="M172 471q-27 0 -42.5 8.5t-25 20t-18.5 20t-22 8.5q-16 0 -19 -14t-3 -39h-69q0 12 1 32.5t7.5 41t24 34.5t50.5 14q27 0 42.5 -8.5t26 -20t19 -20t21.5 -8.5q15 0 18 14t3 40h69q0 -24 -3.5 -53t-21 -49.5t-58.5 -20.5zM56 0v415h121v-415h-121z" />
    <glyph glyph-name="j" unicode="j" horiz-adv-x="258" 
d="M144 436q-39 0 -52 19t-13 46t13 45.5t52 18.5q38 0 51 -18.5t13 -45.5t-13 -46t-51 -19zM82 412h121v-487q0 -64 -30 -90t-84 -26h-75v93h68v510z" />
    <glyph glyph-name="k" unicode="k" horiz-adv-x="458" 
d="M160 0h-122v563h122v-328l151 180h147l-165 -173l168 -241h-144l-108 152l-49 -52v-101z" />
    <glyph glyph-name="uni0137" unicode="&#x137;" horiz-adv-x="472" 
d="M172 0h-121v563h121v-328l152 180h146l-164 -173l167 -241h-143l-108 152l-50 -52v-101zM174 -275v76h27q27 0 38.5 6.5t11.5 26.5q-43 -1 -59.5 18t-16.5 46t14.5 45.5t51.5 18.5q27 0 44.5 -17t17.5 -71q0 -39 -10 -73t-32 -55t-59 -21h-28z" />
    <glyph glyph-name="l" unicode="l" horiz-adv-x="211" 
d="M47 0v563h118v-563h-118z" />
    <glyph glyph-name="lacute" unicode="&#x13a;" horiz-adv-x="211" 
d="M47 0v563h118v-563h-118zM130 632h-54v15l42 99h101v-20z" />
    <glyph glyph-name="lcaron" unicode="&#x13e;" horiz-adv-x="296" 
d="M215 398l29 167h113l-72 -167h-70zM47 0v563h118v-563h-118z" />
    <glyph glyph-name="uni013C" unicode="&#x13c;" horiz-adv-x="271" 
d="M71 -275v76h27q27 0 38.5 6.5t11.5 26.5q-43 -1 -59.5 18t-16.5 46t14.5 45.5t51.5 18.5q27 0 44.5 -17t17.5 -70q0 -40 -10 -74t-32 -55t-59 -21h-28zM48 0v563h118v-563h-118z" />
    <glyph glyph-name="lslash" unicode="&#x142;" horiz-adv-x="270" 
d="M47 0v203l-55 -30v105l55 30v255h118v-190l72 39v-105l-72 -39v-268h-118z" />
    <glyph glyph-name="m" unicode="m" horiz-adv-x="659" 
d="M36 0v412h106l1 -82h2q0 2 6.5 14.5t20 28.5t36 27.5t56.5 11.5q46 0 70.5 -24t35.5 -58h2q0 2 7.5 14.5t22.5 28.5t39 27.5t58 11.5q38 0 62 -16t37 -42t18 -55.5t6 -56t1 -43.5v-199h-101v200q0 19 -3 44t-17 43.5t-48 18.5q-32 0 -47 -16.5t-19.5 -41.5t-4.5 -50v-198
h-101v200q0 19 -3 44t-17 43.5t-48 18.5q-32 0 -47 -16.5t-19.5 -41.5t-4.5 -50v-198h-107z" />
    <glyph glyph-name="n" unicode="n" horiz-adv-x="476" 
d="M36 0v411h104l20 -81h2q1 1 7 14t20.5 28.5t40.5 27.5t66 12q56 0 85.5 -23t42 -57.5t14 -70.5t1.5 -62v-199h-117v200q0 27 -5 51t-22 39.5t-53 15.5t-53.5 -16t-23 -41t-5.5 -51v-198h-124z" />
    <glyph glyph-name="nacute" unicode="&#x144;" horiz-adv-x="476" 
d="M36 0v411h104l20 -81h2q1 1 7 14t20.5 28.5t40.5 27.5t66 12q56 0 85.5 -23t42 -57.5t14 -70.5t1.5 -62v-199h-117v200q0 27 -5 51t-22 39.5t-53 15.5t-53.5 -16t-23 -41t-5.5 -51v-198h-124zM267 460h-54v15l42 99h101v-20z" />
    <glyph glyph-name="ncaron" unicode="&#x148;" horiz-adv-x="497" 
d="M36 0v411h104l20 -81h2q1 1 7 14t20.5 28.5t40.5 27.5t66 12q56 0 85.5 -23t42 -57.5t14 -70.5t1.5 -62v-199h-117v200q0 27 -5 51t-22 39.5t-53 15.5t-53.5 -16t-23 -41t-5.5 -51v-198h-124zM81 597h124l45 -85l46 85h122l-143 -136h-51z" />
    <glyph glyph-name="uni0146" unicode="&#x146;" horiz-adv-x="476" 
d="M36 0v411h104l20 -81h2q1 1 7 14t20.5 28.5t40.5 27.5t66 12q56 0 85.5 -23t42 -57.5t14 -70.5t1.5 -62v-199h-117v200q0 27 -5 51t-22 39.5t-53 15.5t-53.5 -16t-23 -41t-5.5 -51v-198h-124zM174 -275v76h27q27 0 38.5 6.5t11.5 26.5q-43 -1 -59.5 18t-16.5 46
t14.5 45.5t51.5 18.5q27 0 44.5 -17t17.5 -70q0 -40 -10 -74t-32 -55t-59 -21h-28z" />
    <glyph glyph-name="eng" unicode="&#x14b;" horiz-adv-x="497" 
d="M36 0v411h104l20 -81h2q1 1 7 14t20.5 28.5t40.5 27.5t66 12q56 0 85.5 -23t42 -57.5t14 -70.5t1.5 -62v-186h11v-74q0 -36 -15 -67.5t-47 -50.5t-84 -19q-36 0 -61 11t-38.5 22.5t-14.5 12.5l66 81q1 -1 11 -9t26 -8q14 0 25 9.5t11 34.5v44h-7v200q0 27 -5 51t-22 39.5
t-53 15.5t-53.5 -16t-23 -41t-5.5 -51v-198h-124z" />
    <glyph glyph-name="ntilde" unicode="&#xf1;" horiz-adv-x="476" 
d="M36 0v411h104l20 -81h2q1 1 7 14t20.5 28.5t40.5 27.5t66 12q56 0 85.5 -23t42 -57.5t14 -70.5t1.5 -62v-199h-117v200q0 27 -5 51t-22 39.5t-53 15.5t-53.5 -16t-23 -41t-5.5 -51v-198h-124zM306 471q-27 0 -42.5 8.5t-25 20t-18 20t-21.5 8.5q-16 0 -19 -13.5t-3 -39.5
h-69q0 13 0.5 33t7.5 40.5t24.5 34.5t50.5 14q27 0 42.5 -8.5t25.5 -20t19 -20t22 -8.5q15 0 18 14.5t3 39.5h69q0 -24 -4 -53t-21.5 -49.5t-58.5 -20.5z" />
    <glyph glyph-name="o" unicode="o" horiz-adv-x="480" 
d="M235 -10q-72 0 -119 27t-70.5 75t-23.5 109q-2 92 52 152t161 60q104 0 158 -58t54 -154q0 -60 -23 -107.5t-70 -75.5t-119 -28zM235 91q41 0 61.5 17t27.5 43.5t7 53.5q0 28 -7 54.5t-27.5 44t-61.5 17.5t-62 -17.5t-28 -44t-7 -54.5q0 -27 7 -53.5t28 -43.5t62 -17z
" />
    <glyph glyph-name="oacute" unicode="&#xf3;" horiz-adv-x="480" 
d="M235 -10q-72 0 -119 27t-70.5 75t-23.5 109q-2 92 52 152t161 60q104 0 158 -58t54 -154q0 -60 -23 -107.5t-70 -75.5t-119 -28zM235 91q41 0 61.5 17t27.5 43.5t7 53.5q0 28 -7 54.5t-27.5 44t-61.5 17.5t-62 -17.5t-28 -44t-7 -54.5q0 -27 7 -53.5t28 -43.5t62 -17z
M259 458h-54v15l42 99h101v-20z" />
    <glyph glyph-name="ocircumflex" unicode="&#xf4;" horiz-adv-x="480" 
d="M235 -10q-72 0 -119 27t-70.5 75t-23.5 109q-2 92 52 152t161 60q104 0 158 -58t54 -154q0 -60 -23 -107.5t-70 -75.5t-119 -28zM235 91q41 0 61.5 17t27.5 43.5t7 53.5q0 28 -7 54.5t-27.5 44t-61.5 17.5t-62 -17.5t-28 -44t-7 -54.5q0 -27 7 -53.5t28 -43.5t62 -17z
M80 457v10l123 111h51l121 -111v-10h-105l-39 44h-5l-37 -44h-109z" />
    <glyph glyph-name="uni1ED1" unicode="&#x1ed1;" horiz-adv-x="480" 
d="M235 -10q-72 0 -119 27t-70.5 75t-23.5 109q-2 92 52 152t161 60q104 0 158 -58t54 -154q0 -60 -23 -107.5t-70 -75.5t-119 -28zM235 91q41 0 61.5 17t27.5 43.5t7 53.5q0 28 -7 54.5t-27.5 44t-61.5 17.5t-62 -17.5t-28 -44t-7 -54.5q0 -27 7 -53.5t28 -43.5t62 -17z
M80 457v10l123 111h51l121 -111v-10h-105l-39 44h-5l-37 -44h-109zM379 554h-54v15l42 99h101v-20z" />
    <glyph glyph-name="uni1ED9" unicode="&#x1ed9;" horiz-adv-x="480" 
d="M235 -10q-72 0 -119 27t-70.5 75t-23.5 109q-2 92 52 152t161 60q104 0 158 -58t54 -154q0 -60 -23 -107.5t-70 -75.5t-119 -28zM235 91q41 0 61.5 17t27.5 43.5t7 53.5q0 28 -7 54.5t-27.5 44t-61.5 17.5t-62 -17.5t-28 -44t-7 -54.5q0 -27 7 -53.5t28 -43.5t62 -17z
M229 -187q-36 0 -48 17.5t-12 42.5q0 23 12 40.5t48 17.5q35 0 46.5 -17.5t11.5 -40.5q0 -25 -11.5 -42.5t-46.5 -17.5zM80 457v10l123 111h51l121 -111v-10h-105l-39 44h-5l-37 -44h-109z" />
    <glyph glyph-name="uni1ED3" unicode="&#x1ed3;" horiz-adv-x="480" 
d="M235 -10q-72 0 -119 27t-70.5 75t-23.5 109q-2 92 52 152t161 60q104 0 158 -58t54 -154q0 -60 -23 -107.5t-70 -75.5t-119 -28zM235 91q41 0 61.5 17t27.5 43.5t7 53.5q0 28 -7 54.5t-27.5 44t-61.5 17.5t-62 -17.5t-28 -44t-7 -54.5q0 -27 7 -53.5t28 -43.5t62 -17z
M61 554l-88 94v20h101l42 -99v-15h-55zM80 457v10l123 111h51l121 -111v-10h-105l-39 44h-5l-37 -44h-109z" />
    <glyph glyph-name="uni1ED5" unicode="&#x1ed5;" horiz-adv-x="480" 
d="M235 -10q-72 0 -119 27t-70.5 75t-23.5 109q-2 92 52 152t161 60q104 0 158 -58t54 -154q0 -60 -23 -107.5t-70 -75.5t-119 -28zM235 91q41 0 61.5 17t27.5 43.5t7 53.5q0 28 -7 54.5t-27.5 44t-61.5 17.5t-62 -17.5t-28 -44t-7 -54.5q0 -27 7 -53.5t28 -43.5t62 -17z
M79 457v10l123 111h51l121 -111v-10h-105l-39 44h-5l-37 -44h-109zM315 554v18q6 13 22 22t30 19.5t14 28.5q0 16 -15.5 21.5t-33.5 -0.5t-26 -23l-47 32q8 29 30 45.5t50 21t54 -3t43 -27.5t17 -53q0 -31 -13 -47.5t-28.5 -27.5t-21.5 -26h-75z" />
    <glyph glyph-name="uni1ED7" unicode="&#x1ed7;" horiz-adv-x="480" 
d="M235 -10q-72 0 -119 27t-70.5 75t-23.5 109q-2 92 52 152t161 60q104 0 158 -58t54 -154q0 -60 -23 -107.5t-70 -75.5t-119 -28zM235 91q41 0 61.5 17t27.5 43.5t7 53.5q0 28 -7 54.5t-27.5 44t-61.5 17.5t-62 -17.5t-28 -44t-7 -54.5q0 -27 7 -53.5t28 -43.5t62 -17z
M80 457v10l123 111h51l121 -111v-10h-105l-39 44h-5l-37 -44h-109zM280 607q-27 0 -42.5 8.5t-25 20t-18 20t-21.5 8.5q-16 0 -19 -13.5t-3 -39.5h-69q0 13 0.5 33t7.5 40.5t24.5 34.5t50.5 14q27 0 42.5 -8.5t25.5 -20t19 -20t22 -8.5q15 0 18 14.5t3 39.5h69q0 -24 -4 -53
t-21.5 -49.5t-58.5 -20.5z" />
    <glyph glyph-name="odieresis" unicode="&#xf6;" horiz-adv-x="480" 
d="M235 -10q-72 0 -119 27t-70.5 75t-23.5 109q-2 92 52 152t161 60q104 0 158 -58t54 -154q0 -60 -23 -107.5t-70 -75.5t-119 -28zM235 91q41 0 61.5 17t27.5 43.5t7 53.5q0 28 -7 54.5t-27.5 44t-61.5 17.5t-62 -17.5t-28 -44t-7 -54.5q0 -27 7 -53.5t28 -43.5t62 -17z
M131 457q-41 0 -55 20.5t-14 48.5q0 26 14 46.5t55 20.5t54 -20.5t13 -46.5q0 -28 -13 -48.5t-54 -20.5zM325 457q-41 0 -55 20.5t-14 48.5q0 26 14 46.5t55 20.5t54 -20.5t13 -46.5q0 -28 -13 -48.5t-54 -20.5z" />
    <glyph glyph-name="uni1ECD" unicode="&#x1ecd;" horiz-adv-x="480" 
d="M235 -10q-72 0 -119 27t-70.5 75t-23.5 109q-2 92 52 152t161 60q104 0 158 -58t54 -154q0 -60 -23 -107.5t-70 -75.5t-119 -28zM235 91q41 0 61.5 17t27.5 43.5t7 53.5q0 28 -7 54.5t-27.5 44t-61.5 17.5t-62 -17.5t-28 -44t-7 -54.5q0 -27 7 -53.5t28 -43.5t62 -17z
M229 -187q-36 0 -48 17.5t-12 42.5q0 23 12 40.5t48 17.5q35 0 46.5 -17.5t11.5 -40.5q0 -25 -11.5 -42.5t-46.5 -17.5z" />
    <glyph glyph-name="ograve" unicode="&#xf2;" horiz-adv-x="480" 
d="M235 -10q-72 0 -119 27t-70.5 75t-23.5 109q-2 92 52 152t161 60q104 0 158 -58t54 -154q0 -60 -23 -107.5t-70 -75.5t-119 -28zM235 91q41 0 61.5 17t27.5 43.5t7 53.5q0 28 -7 54.5t-27.5 44t-61.5 17.5t-62 -17.5t-28 -44t-7 -54.5q0 -27 7 -53.5t28 -43.5t62 -17z
M204 458l-88 94v20h101l42 -99v-15h-55z" />
    <glyph glyph-name="uni1ECF" unicode="&#x1ecf;" horiz-adv-x="480" 
d="M235 -10q-72 0 -119 27t-70.5 75t-23.5 109q-2 92 52 152t161 60q104 0 158 -58t54 -154q0 -60 -23 -107.5t-70 -75.5t-119 -28zM235 91q41 0 61.5 17t27.5 43.5t7 53.5q0 28 -7 54.5t-27.5 44t-61.5 17.5t-62 -17.5t-28 -44t-7 -54.5q0 -27 7 -53.5t28 -43.5t62 -17z
M196 470v18q6 13 22 22t30 19.5t14 28.5q0 16 -15.5 21.5t-33.5 -0.5t-26 -23l-47 32q8 29 30 45.5t50 21t54 -3t43 -27.5t17 -53q0 -31 -13 -47.5t-28.5 -27.5t-21.5 -26h-75z" />
    <glyph glyph-name="ohorn" unicode="&#x1a1;" horiz-adv-x="480" 
d="M235 -10q-72 0 -119 27t-70.5 75t-23.5 109q-2 92 52 152t161 60q104 0 158 -58t54 -154q0 -60 -23 -107.5t-70 -75.5t-119 -28zM235 91q41 0 61.5 17t27.5 43.5t7 53.5q0 28 -7 54.5t-27.5 44t-61.5 17.5t-62 -17.5t-28 -44t-7 -54.5q0 -27 7 -53.5t28 -43.5t62 -17z
M273 339l1 70h47q24 0 27 9t4 46h78q0 -47 -10.5 -74t-36.5 -39t-74 -12h-36z" />
    <glyph glyph-name="uni1EDB" unicode="&#x1edb;" horiz-adv-x="480" 
d="M235 -10q-72 0 -119 27t-70.5 75t-23.5 109q-2 92 52 152t161 60q104 0 158 -58t54 -154q0 -60 -23 -107.5t-70 -75.5t-119 -28zM235 91q41 0 61.5 17t27.5 43.5t7 53.5q0 28 -7 54.5t-27.5 44t-61.5 17.5t-62 -17.5t-28 -44t-7 -54.5q0 -27 7 -53.5t28 -43.5t62 -17z
M273 339l1 70h47q24 0 27 9t4 46h78q0 -47 -10.5 -74t-36.5 -39t-74 -12h-36zM259 458h-54v15l42 99h101v-20z" />
    <glyph glyph-name="uni1EE3" unicode="&#x1ee3;" horiz-adv-x="480" 
d="M235 -10q-72 0 -119 27t-70.5 75t-23.5 109q-2 92 52 152t161 60q104 0 158 -58t54 -154q0 -60 -23 -107.5t-70 -75.5t-119 -28zM235 91q41 0 61.5 17t27.5 43.5t7 53.5q0 28 -7 54.5t-27.5 44t-61.5 17.5t-62 -17.5t-28 -44t-7 -54.5q0 -27 7 -53.5t28 -43.5t62 -17z
M273 339l1 70h47q24 0 27 9t4 46h78q0 -47 -10.5 -74t-36.5 -39t-74 -12h-36zM234 -187q-36 0 -48 17.5t-12 42.5q0 23 12 40.5t48 17.5q35 0 46.5 -17.5t11.5 -40.5q0 -25 -11.5 -42.5t-46.5 -17.5z" />
    <glyph glyph-name="uni1EDD" unicode="&#x1edd;" horiz-adv-x="480" 
d="M235 -10q-72 0 -119 27t-70.5 75t-23.5 109q-2 92 52 152t161 60q104 0 158 -58t54 -154q0 -60 -23 -107.5t-70 -75.5t-119 -28zM235 91q41 0 61.5 17t27.5 43.5t7 53.5q0 28 -7 54.5t-27.5 44t-61.5 17.5t-62 -17.5t-28 -44t-7 -54.5q0 -27 7 -53.5t28 -43.5t62 -17z
M273 339l1 70h47q24 0 27 9t4 46h78q0 -47 -10.5 -74t-36.5 -39t-74 -12h-36zM204 460l-88 94v20h101l42 -99v-15h-55z" />
    <glyph glyph-name="uni1EDF" unicode="&#x1edf;" horiz-adv-x="480" 
d="M235 -10q-72 0 -119 27t-70.5 75t-23.5 109q-2 92 52 152t161 60q104 0 158 -58t54 -154q0 -60 -23 -107.5t-70 -75.5t-119 -28zM235 91q41 0 61.5 17t27.5 43.5t7 53.5q0 28 -7 54.5t-27.5 44t-61.5 17.5t-62 -17.5t-28 -44t-7 -54.5q0 -27 7 -53.5t28 -43.5t62 -17z
M273 339l1 70h47q24 0 27 9t4 46h78q0 -47 -10.5 -74t-36.5 -39t-74 -12h-36zM196 470v18q6 13 22 22t30 19.5t14 28.5q0 16 -15.5 21.5t-33.5 -0.5t-26 -23l-47 32q8 29 30 45.5t50 21t54 -3t43 -27.5t17 -53q0 -31 -13 -47.5t-28.5 -27.5t-21.5 -26h-75z" />
    <glyph glyph-name="uni1EE1" unicode="&#x1ee1;" horiz-adv-x="480" 
d="M235 -10q-72 0 -119 27t-70.5 75t-23.5 109q-2 92 52 152t161 60q104 0 158 -58t54 -154q0 -60 -23 -107.5t-70 -75.5t-119 -28zM235 91q41 0 61.5 17t27.5 43.5t7 53.5q0 28 -7 54.5t-27.5 44t-61.5 17.5t-62 -17.5t-28 -44t-7 -54.5q0 -27 7 -53.5t28 -43.5t62 -17z
M273 339l1 70h47q24 0 27 9t4 46h78q0 -47 -10.5 -74t-36.5 -39t-74 -12h-36zM289 482q-27 0 -42.5 8.5t-25 20t-18 20t-21.5 8.5q-16 0 -19 -13.5t-3 -39.5h-69q0 13 0.5 33t7.5 40.5t24.5 34.5t50.5 14q27 0 42.5 -8.5t25.5 -20t19 -20t22 -8.5q15 0 18 14.5t3 39.5h69
q0 -24 -4 -53t-21.5 -49.5t-58.5 -20.5z" />
    <glyph glyph-name="ohungarumlaut" unicode="&#x151;" horiz-adv-x="489" 
d="M102 484l70 153l94 -46l-109 -133zM288 484l70 153l94 -46l-109 -133zM235 -10q-72 0 -119 27t-70.5 75t-23.5 109q-2 92 52 152t161 60q104 0 158 -58t54 -154q0 -60 -23 -107.5t-70 -75.5t-119 -28zM235 91q41 0 61.5 17t27.5 43.5t7 53.5q0 28 -7 54.5t-27.5 44
t-61.5 17.5t-62 -17.5t-28 -44t-7 -54.5q0 -27 7 -53.5t28 -43.5t62 -17z" />
    <glyph glyph-name="omacron" unicode="&#x14d;" horiz-adv-x="472" 
d="M235 -10q-72 0 -119 27t-70.5 75t-23.5 109q-2 92 52 152t161 60q104 0 158 -58t54 -154q0 -60 -23 -107.5t-70 -75.5t-119 -28zM235 91q41 0 61.5 17t27.5 43.5t7 53.5q0 28 -7 54.5t-27.5 44t-61.5 17.5t-62 -17.5t-28 -44t-7 -54.5q0 -27 7 -53.5t28 -43.5t62 -17z
M85 476v83h289v-83h-289z" />
    <glyph glyph-name="oslash" unicode="&#xf8;" horiz-adv-x="472" 
d="M61 -26l36 56q-38 28 -56.5 72t-18.5 99q-2 92 52 152t161 60q52 0 93 -15l36 58l29 -16l-36 -57q45 -26 67.5 -73t22.5 -109q0 -60 -23 -107.5t-70 -75.5t-119 -28q-64 0 -111 23l-34 -55zM138 205q0 -21 4 -42t15 -37l118 188q-17 7 -40 7q-41 0 -62 -17.5t-28 -44
t-7 -54.5zM235 91q41 0 61.5 17t27.5 43.5t7 53.5q0 26 -5.5 50.5t-22.5 41.5l-122 -194q22 -12 54 -12z" />
    <glyph glyph-name="otilde" unicode="&#xf5;" horiz-adv-x="480" 
d="M235 -10q-72 0 -119 27t-70.5 75t-23.5 109q-2 92 52 152t161 60q104 0 158 -58t54 -154q0 -60 -23 -107.5t-70 -75.5t-119 -28zM235 91q41 0 61.5 17t27.5 43.5t7 53.5q0 28 -7 54.5t-27.5 44t-61.5 17.5t-62 -17.5t-28 -44t-7 -54.5q0 -27 7 -53.5t28 -43.5t62 -17z
M289 471q-27 0 -42.5 8.5t-25 20t-18 20t-21.5 8.5q-16 0 -19 -13.5t-3 -39.5h-69q0 13 0.5 33t7.5 40.5t24.5 34.5t50.5 14q27 0 42.5 -8.5t25.5 -20t19 -20t22 -8.5q15 0 18 14.5t3 39.5h69q0 -24 -4 -53t-21.5 -49.5t-58.5 -20.5z" />
    <glyph glyph-name="oe" unicode="&#x153;" horiz-adv-x="757" 
d="M228 -10q-71 0 -118.5 27t-71 75t-23.5 109q-1 92 52.5 152t160.5 60q50 0 88.5 -14t65.5 -40q26 25 64 40.5t92 15.5q53 0 96 -26t69 -70.5t26 -101.5v-11v-15h-288q0 -47 25.5 -72t69.5 -25q36 0 55 16.5t26 44.5l115 -22q-11 -39 -35.5 -71.5t-63.5 -52t-96 -19.5
q-52 0 -90 15t-64 40q-26 -26 -64.5 -40.5t-90.5 -14.5zM442 252h166q0 4 -1.5 16.5t-7.5 27t-21.5 25t-44.5 10.5q-30 0 -48 -10t-27 -24t-12.5 -27t-3.5 -18zM228 91q41 0 61.5 17t27.5 43.5t7 53.5q0 28 -7 54.5t-27.5 44t-61.5 17.5t-62 -17.5t-28 -44t-7 -54.5
q0 -27 7 -53.5t28 -43.5t62 -17z" />
    <glyph glyph-name="p" unicode="p" horiz-adv-x="501" 
d="M305 -10q-37 0 -61.5 11t-39.5 25t-21.5 25.5t-6.5 13.5h-2v-256h-125v603h106l19 -82h2q0 1 6 13.5t20 28.5t39 28t64 12q92 0 130 -58t38 -156q0 -97 -38.5 -152.5t-129.5 -55.5zM266 91q39 0 58.5 15.5t26 40t6.5 52.5q0 27 -7 51.5t-27 40t-58 15.5q-55 0 -73 -31.5
t-18 -75.5q0 -45 18.5 -76.5t73.5 -31.5z" />
    <glyph glyph-name="thorn" unicode="&#xfe;" horiz-adv-x="503" 
d="M50 -199v762h125v-262q0 3 7.5 20t23.5 38t43 37t67 16q54 0 87.5 -30.5t49 -77.5t15.5 -99q0 -53 -15 -102.5t-48.5 -81t-88.5 -31.5q-36 0 -62.5 14t-44 32t-26 32l-8.5 14v0v-281h-125zM253 90q35 0 52.5 15.5t23.5 40t6 51.5t-6.5 52t-24 41.5t-51.5 16.5
q-36 0 -54 -18t-24 -49v-86q5 -29 23 -46.5t55 -17.5zM171 197q0 -24 4 -42v84q-4 -18 -4 -42z" />
    <glyph glyph-name="q" unicode="q" horiz-adv-x="501" 
d="M196 -10q-91 0 -129.5 55.5t-38.5 152.5q0 98 38 156t131 58q38 0 63 -12t39 -28t20 -28.5t6 -13.5h2l20 82h105v-603h-124v256h-2q-1 -2 -7.5 -13.5t-21.5 -25.5t-39.5 -25t-61.5 -11zM235 91q55 0 73.5 31.5t18.5 76.5q0 44 -18 75.5t-73 31.5q-38 0 -58 -15.5t-27 -40
t-7 -51.5q0 -28 7 -52.5t26.5 -40t57.5 -15.5z" />
    <glyph glyph-name="r" unicode="r" horiz-adv-x="356" 
d="M38 0v412h114l8 -116q6 26 23 53t49 45t83 18h12v-134h-13q-80 0 -117.5 -21.5t-37.5 -85.5v-171h-121z" />
    <glyph glyph-name="racute" unicode="&#x155;" horiz-adv-x="356" 
d="M38 0v412h114l8 -116q6 26 23 53t49 45t83 18h12v-134h-13q-80 0 -117.5 -21.5t-37.5 -85.5v-171h-121zM233 460h-54v15l42 99h101v-20z" />
    <glyph glyph-name="rcaron" unicode="&#x159;" horiz-adv-x="410" 
d="M38 0v412h114l8 -116q6 26 23 53t49 45t83 18h12v-134h-13q-80 0 -117.5 -21.5t-37.5 -85.5v-171h-121zM50 597h124l45 -85l46 85h122l-143 -136h-51z" />
    <glyph glyph-name="uni0157" unicode="&#x157;" horiz-adv-x="394" 
d="M48 -275v76h27q27 0 38.5 6.5t11.5 26.5q-43 -1 -59.5 18t-16.5 46t14.5 45.5t51.5 18.5q27 0 44.5 -17t17.5 -70q0 -40 -10 -74t-32 -55t-59 -21h-28zM44 0v412h114l8 -116q6 26 23 53t49 45t83 18h12v-134h-13q-80 0 -117.5 -21.5t-37.5 -85.5v-171h-121z" />
    <glyph glyph-name="s" unicode="s" horiz-adv-x="421" 
d="M216 -10q-18 0 -49.5 6t-64 22t-55 46.5t-22.5 79.5h111q0 -1 1 -11.5t7 -23.5t22 -22.5t47 -9.5q36 0 50 13t14 26q0 18 -17.5 29t-45.5 18.5t-59.5 17t-59 24t-45.5 39.5t-17 64q0 60 46.5 89.5t118.5 29.5q54 0 98.5 -17.5t70.5 -52.5t27 -88h-110q1 27 -11.5 41.5
t-31.5 20t-38 5.5q-33 0 -46.5 -11.5t-13.5 -25.5q0 -21 18 -32.5t46.5 -19.5t60.5 -17t60 -23t46.5 -37.5t18.5 -61.5q0 -59 -48 -88.5t-129 -29.5z" />
    <glyph glyph-name="sacute" unicode="&#x15b;" horiz-adv-x="421" 
d="M216 -10q-18 0 -49.5 6t-64 22t-55 46.5t-22.5 79.5h111q0 -1 1 -11.5t7 -23.5t22 -22.5t47 -9.5q36 0 50 13t14 26q0 18 -17.5 29t-45.5 18.5t-59.5 17t-59 24t-45.5 39.5t-17 64q0 60 46.5 89.5t118.5 29.5q54 0 98.5 -17.5t70.5 -52.5t27 -88h-110q1 27 -11.5 41.5
t-31.5 20t-38 5.5q-33 0 -46.5 -11.5t-13.5 -25.5q0 -21 18 -32.5t46.5 -19.5t60.5 -17t60 -23t46.5 -37.5t18.5 -61.5q0 -59 -48 -88.5t-129 -29.5zM240 460h-54v15l42 99h101v-20z" />
    <glyph glyph-name="scaron" unicode="&#x161;" horiz-adv-x="462" 
d="M216 -10q-18 0 -49.5 6t-64 22t-55 46.5t-22.5 79.5h111q0 -1 1 -11.5t7 -23.5t22 -22.5t47 -9.5q36 0 50 13t14 26q0 18 -17.5 29t-45.5 18.5t-59.5 17t-59 24t-45.5 39.5t-17 64q0 60 46.5 89.5t118.5 29.5q54 0 98.5 -17.5t70.5 -52.5t27 -88h-110q1 27 -11.5 41.5
t-31.5 20t-38 5.5q-33 0 -46.5 -11.5t-13.5 -25.5q0 -21 18 -32.5t46.5 -19.5t60.5 -17t60 -23t46.5 -37.5t18.5 -61.5q0 -59 -48 -88.5t-129 -29.5zM54 597h124l45 -85l46 85h122l-143 -136h-51z" />
    <glyph glyph-name="scedilla" unicode="&#x15f;" horiz-adv-x="421" 
d="M216 -10q-18 0 -49.5 6t-64 22t-55 46.5t-22.5 79.5h111q0 -1 1 -11.5t7 -23.5t22 -22.5t47 -9.5q36 0 50 13t14 26q0 18 -17.5 29t-45.5 18.5t-59.5 17t-59 24t-45.5 39.5t-17 64q0 60 46.5 89.5t118.5 29.5q54 0 98.5 -17.5t70.5 -52.5t27 -88h-110q1 27 -11.5 41.5
t-31.5 20t-38 5.5q-33 0 -46.5 -11.5t-13.5 -25.5q0 -21 18 -32.5t46.5 -19.5t60.5 -17t60 -23t46.5 -37.5t18.5 -61.5q0 -59 -48 -88.5t-129 -29.5zM106 -144l35 56q10 -8 30.5 -15t42.5 -9.5t37.5 2.5t15.5 22q0 12 -13 18t-30.5 4t-30.5 -14l-50 24l45 97l53 -21l-37 -61
q15 12 39 15.5t48 -2t40 -21.5t16 -44q0 -33 -23 -54t-60 -28t-78.5 0.5t-79.5 30.5z" />
    <glyph glyph-name="uni0219" unicode="&#x219;" horiz-adv-x="421" 
d="M216 -10q-18 0 -49.5 6t-64 22t-55 46.5t-22.5 79.5h111q0 -1 1 -11.5t7 -23.5t22 -22.5t47 -9.5q36 0 50 13t14 26q0 18 -17.5 29t-45.5 18.5t-59.5 17t-59 24t-45.5 39.5t-17 64q0 60 46.5 89.5t118.5 29.5q54 0 98.5 -17.5t70.5 -52.5t27 -88h-110q1 27 -11.5 41.5
t-31.5 20t-38 5.5q-33 0 -46.5 -11.5t-13.5 -25.5q0 -21 18 -32.5t46.5 -19.5t60.5 -17t60 -23t46.5 -37.5t18.5 -61.5q0 -59 -48 -88.5t-129 -29.5zM160 -275v76h27q27 0 38.5 6.5t11.5 26.5q-43 -1 -59.5 18t-16.5 46t14.5 45.5t51.5 18.5q27 0 44.5 -17t17.5 -70
q0 -40 -10 -74t-32 -55t-59 -21h-28z" />
    <glyph glyph-name="germandbls" unicode="&#xdf;" horiz-adv-x="610" 
d="M403 -10q-74 0 -115.5 25.5t-58 64t-18.5 76.5h103l2 -9.5t8.5 -21.5t21.5 -21t41 -9q41 0 60.5 23t19.5 48q0 28 -19.5 46.5t-47.5 31.5t-56.5 25t-47.5 27t-19 38q0 21 11.5 31.5t28 17t33.5 13.5t28.5 20.5t11.5 37.5q0 5 -18.5 7.5t-39.5 3.5t-28 1h-128v-466h-121
v563h249q24 0 57.5 -0.5t65.5 -7.5t53.5 -25t21.5 -52q0 -31 -13 -50t-32.5 -30t-39 -19t-32.5 -17.5t-13 -25.5q0 -17 21.5 -28t53.5 -21.5t63.5 -27t53.5 -44t22 -72.5q0 -47 -26.5 -81.5t-68 -53t-88.5 -18.5z" />
    <glyph glyph-name="t" unicode="t" horiz-adv-x="320" 
d="M187 0q-54 0 -84 26t-30 90v213h-59v83q26 0 42.5 6.5t25 29t8.5 69.5h96v-105h94v-83h-94v-236h96v-93h-95z" />
    <glyph glyph-name="tbar" unicode="&#x167;" horiz-adv-x="320" 
d="M16 168v84h57v70h-59v93q26 0 42.5 6.5t25 28.5t8.5 70h96v-105h94v-93h-94v-70h90v-84h-90v-2q0 -39 10.5 -59t25.5 -25.5t31 -3t27 7.5v-67q-34 -24 -70 -28t-67 11t-50.5 47.5t-19.5 82.5v36h-57z" />
    <glyph glyph-name="tcaron" unicode="&#x165;" horiz-adv-x="327" 
d="M227 463l29 167h113l-72 -167h-70zM187 0q-54 0 -84 26t-30 90v213h-59v83q26 0 42.5 6.5t25 29t8.5 69.5h96v-105h94v-83h-94v-236h96v-93h-95z" />
    <glyph glyph-name="uni0163" unicode="&#x163;" horiz-adv-x="320" 
d="M187 0q-54 0 -84 26t-30 90v213h-59v83q26 0 42.5 6.5t25 29t8.5 69.5h96v-105h94v-83h-94v-236h96v-93h-95zM46 -144l35 56q10 -8 30.5 -15t42.5 -9.5t37.5 2.5t15.5 22q0 12 -13 18t-30.5 4t-30.5 -14l-50 24l45 97l53 -21l-37 -61q15 12 39 15.5t48 -2t40 -21.5
t16 -44q0 -33 -23 -54t-60 -28t-78.5 0.5t-79.5 30.5z" />
    <glyph glyph-name="uni021B" unicode="&#x21b;" horiz-adv-x="320" 
d="M187 0q-54 0 -84 26t-30 90v213h-59v83q26 0 42.5 6.5t25 29t8.5 69.5h96v-105h94v-83h-94v-236h96v-93h-95zM101 -275v76h27q27 0 38.5 6.5t11.5 26.5q-43 -1 -59.5 18t-16.5 46t14.5 45.5t51.5 18.5q27 0 44.5 -17t17.5 -70q0 -40 -10 -74t-32 -55t-59 -21h-28z" />
    <glyph glyph-name="u" unicode="u" 
d="M175 -10q-55 0 -85 22.5t-42 57t-14.5 71t-2.5 63.5v208h118v-209q0 -26 4.5 -51t21.5 -40.5t54 -15.5q36 0 53 16t22 40t6 50v210h124v-412h-104l-20 72h-2q-1 -3 -7.5 -16t-21.5 -28t-40.5 -26.5t-63.5 -11.5z" />
    <glyph glyph-name="uacute" unicode="&#xfa;" 
d="M175 -10q-55 0 -85 22.5t-42 57t-14.5 71t-2.5 63.5v208h118v-209q0 -26 4.5 -51t21.5 -40.5t54 -15.5q36 0 53 16t22 40t6 50v210h124v-412h-104l-20 72h-2q-1 -3 -7.5 -16t-21.5 -28t-40.5 -26.5t-63.5 -11.5zM262 460h-54v15l42 99h101v-20z" />
    <glyph glyph-name="ucircumflex" unicode="&#xfb;" 
d="M175 -10q-55 0 -85 22.5t-42 57t-14.5 71t-2.5 63.5v208h118v-209q0 -26 4.5 -51t21.5 -40.5t54 -15.5q36 0 53 16t22 40t6 50v210h124v-412h-104l-20 72h-2q-1 -3 -7.5 -16t-21.5 -28t-40.5 -26.5t-63.5 -11.5zM81 457v10l123 111h51l121 -111v-10h-105l-39 44h-5
l-37 -44h-109z" />
    <glyph glyph-name="udieresis" unicode="&#xfc;" 
d="M175 -10q-55 0 -85 22.5t-42 57t-14.5 71t-2.5 63.5v208h118v-209q0 -26 4.5 -51t21.5 -40.5t54 -15.5q36 0 53 16t22 40t6 50v210h124v-412h-104l-20 72h-2q-1 -3 -7.5 -16t-21.5 -28t-40.5 -26.5t-63.5 -11.5zM131 457q-41 0 -55 20.5t-14 48.5q0 26 14 46.5t55 20.5
t54 -20.5t13 -46.5q0 -28 -13 -48.5t-54 -20.5zM325 457q-41 0 -55 20.5t-14 48.5q0 26 14 46.5t55 20.5t54 -20.5t13 -46.5q0 -28 -13 -48.5t-54 -20.5z" />
    <glyph glyph-name="uni1EE5" unicode="&#x1ee5;" 
d="M175 -10q-55 0 -85 22.5t-42 57t-14.5 71t-2.5 63.5v208h118v-209q0 -26 4.5 -51t21.5 -40.5t54 -15.5q36 0 53 16t22 40t6 50v210h124v-412h-104l-20 72h-2q-1 -3 -7.5 -16t-21.5 -28t-40.5 -26.5t-63.5 -11.5zM234 -187q-36 0 -48 17.5t-12 42.5q0 23 12 40.5t48 17.5
q35 0 46.5 -17.5t11.5 -40.5q0 -25 -11.5 -42.5t-46.5 -17.5z" />
    <glyph glyph-name="ugrave" unicode="&#xf9;" 
d="M175 -10q-55 0 -85 22.5t-42 57t-14.5 71t-2.5 63.5v208h118v-209q0 -26 4.5 -51t21.5 -40.5t54 -15.5q36 0 53 16t22 40t6 50v210h124v-412h-104l-20 72h-2q-1 -3 -7.5 -16t-21.5 -28t-40.5 -26.5t-63.5 -11.5zM210 460l-88 94v20h101l42 -99v-15h-55z" />
    <glyph glyph-name="uni1EE7" unicode="&#x1ee7;" 
d="M175 -10q-55 0 -85 22.5t-42 57t-14.5 71t-2.5 63.5v208h118v-209q0 -26 4.5 -51t21.5 -40.5t54 -15.5q36 0 53 16t22 40t6 50v210h124v-412h-104l-20 72h-2q-1 -3 -7.5 -16t-21.5 -28t-40.5 -26.5t-63.5 -11.5zM196 470v18q6 13 22 22t30 19.5t14 28.5q0 16 -15.5 21.5
t-33.5 -0.5t-26 -23l-47 32q8 29 30 45.5t50 21t54 -3t43 -27.5t17 -53q0 -31 -13 -47.5t-28.5 -27.5t-21.5 -26h-75z" />
    <glyph glyph-name="uhorn" unicode="&#x1b0;" horiz-adv-x="489" 
d="M175 -10q-55 0 -85 22.5t-42 57t-14.5 71t-2.5 63.5v208h118v-209q0 -26 4.5 -51t21.5 -40.5t54 -15.5q36 0 53 16t22 40t6 50v210h124v-412h-104l-20 72h-2q-1 -3 -7.5 -16t-21.5 -28t-40.5 -26.5t-63.5 -11.5zM364 342l1 70h47q24 0 27 9t4 46h78q0 -47 -10.5 -74
t-36.5 -39t-74 -12h-36z" />
    <glyph glyph-name="uni1EE9" unicode="&#x1ee9;" horiz-adv-x="489" 
d="M175 -10q-55 0 -85 22.5t-42 57t-14.5 71t-2.5 63.5v208h118v-209q0 -26 4.5 -51t21.5 -40.5t54 -15.5q36 0 53 16t22 40t6 50v210h124v-412h-104l-20 72h-2q-1 -3 -7.5 -16t-21.5 -28t-40.5 -26.5t-63.5 -11.5zM364 342l1 70h47q24 0 27 9t4 46h78q0 -47 -10.5 -74
t-36.5 -39t-74 -12h-36zM262 460h-54v15l42 99h101v-20z" />
    <glyph glyph-name="uni1EF1" unicode="&#x1ef1;" horiz-adv-x="489" 
d="M175 -10q-55 0 -85 22.5t-42 57t-14.5 71t-2.5 63.5v208h118v-209q0 -26 4.5 -51t21.5 -40.5t54 -15.5q36 0 53 16t22 40t6 50v210h124v-412h-104l-20 72h-2q-1 -3 -7.5 -16t-21.5 -28t-40.5 -26.5t-63.5 -11.5zM364 342l1 70h47q24 0 27 9t4 46h78q0 -47 -10.5 -74
t-36.5 -39t-74 -12h-36zM234 -187q-36 0 -48 17.5t-12 42.5q0 23 12 40.5t48 17.5q35 0 46.5 -17.5t11.5 -40.5q0 -25 -11.5 -42.5t-46.5 -17.5z" />
    <glyph glyph-name="uni1EEB" unicode="&#x1eeb;" horiz-adv-x="489" 
d="M175 -10q-55 0 -85 22.5t-42 57t-14.5 71t-2.5 63.5v208h118v-209q0 -26 4.5 -51t21.5 -40.5t54 -15.5q36 0 53 16t22 40t6 50v210h124v-412h-104l-20 72h-2q-1 -3 -7.5 -16t-21.5 -28t-40.5 -26.5t-63.5 -11.5zM364 342l1 70h47q24 0 27 9t4 46h78q0 -47 -10.5 -74
t-36.5 -39t-74 -12h-36zM210 460l-88 94v20h101l42 -99v-15h-55z" />
    <glyph glyph-name="uni1EED" unicode="&#x1eed;" horiz-adv-x="489" 
d="M175 -10q-55 0 -85 22.5t-42 57t-14.5 71t-2.5 63.5v208h118v-209q0 -26 4.5 -51t21.5 -40.5t54 -15.5q36 0 53 16t22 40t6 50v210h124v-412h-104l-20 72h-2q-1 -3 -7.5 -16t-21.5 -28t-40.5 -26.5t-63.5 -11.5zM364 342l1 70h47q24 0 27 9t4 46h78q0 -47 -10.5 -74
t-36.5 -39t-74 -12h-36zM196 470v18q6 13 22 22t30 19.5t14 28.5q0 16 -15.5 21.5t-33.5 -0.5t-26 -23l-47 32q8 29 30 45.5t50 21t54 -3t43 -27.5t17 -53q0 -31 -13 -47.5t-28.5 -27.5t-21.5 -26h-75z" />
    <glyph glyph-name="uni1EEF" unicode="&#x1eef;" horiz-adv-x="489" 
d="M175 -10q-55 0 -85 22.5t-42 57t-14.5 71t-2.5 63.5v208h118v-209q0 -26 4.5 -51t21.5 -40.5t54 -15.5q36 0 53 16t22 40t6 50v210h124v-412h-104l-20 72h-2q-1 -3 -7.5 -16t-21.5 -28t-40.5 -26.5t-63.5 -11.5zM364 342l1 70h47q24 0 27 9t4 46h78q0 -47 -10.5 -74
t-36.5 -39t-74 -12h-36zM289 482q-27 0 -42.5 8.5t-25 20t-18 20t-21.5 8.5q-16 0 -19 -13.5t-3 -39.5h-69q0 13 0.5 33t7.5 40.5t24.5 34.5t50.5 14q27 0 42.5 -8.5t25.5 -20t19 -20t22 -8.5q15 0 18 14.5t3 39.5h69q0 -24 -4 -53t-21.5 -49.5t-58.5 -20.5z" />
    <glyph glyph-name="uhungarumlaut" unicode="&#x171;" horiz-adv-x="496" 
d="M92 484l70 153l94 -46l-109 -133zM278 484l70 153l94 -46l-109 -133zM175 -10q-55 0 -85 22.5t-42 57t-14.5 71t-2.5 63.5v208h118v-209q0 -26 4.5 -51t21.5 -40.5t54 -15.5q36 0 53 16t22 40t6 50v210h124v-412h-104l-20 72h-2q-1 -3 -7.5 -16t-21.5 -28t-40.5 -26.5
t-63.5 -11.5z" />
    <glyph glyph-name="umacron" unicode="&#x16b;" horiz-adv-x="479" 
d="M175 -10q-55 0 -85 22.5t-42 57t-14.5 71t-2.5 63.5v208h118v-209q0 -26 4.5 -51t21.5 -40.5t54 -15.5q36 0 53 16t22 40t6 50v210h124v-412h-104l-20 72h-2q-1 -3 -7.5 -16t-21.5 -28t-40.5 -26.5t-63.5 -11.5zM84 476v83h289v-83h-289z" />
    <glyph glyph-name="uogonek" unicode="&#x173;" horiz-adv-x="479" 
d="M175 -10q-55 0 -85 22.5t-42 57t-14.5 71t-2.5 63.5v208h118v-209q0 -26 4.5 -51t21.5 -40.5t54 -15.5q36 0 53 16t22 40t6 50v210h124v-412h-6l-11 -4.5t-26 -13.5t-26.5 -22.5t-11.5 -29.5q0 -27 30 -27q13 0 22 6.5t14 13.5l5 7l63 -56l-12.5 -14t-38 -28.5
t-64.5 -14.5q-25 0 -49.5 9t-40.5 29t-16 54q0 32 18.5 56.5t43.5 41.5l-18 65h-2q-1 -3 -7.5 -16t-21.5 -28t-40.5 -26.5t-63.5 -11.5z" />
    <glyph glyph-name="uring" unicode="&#x16f;" 
d="M175 -10q-55 0 -85 22.5t-42 57t-14.5 71t-2.5 63.5v208h118v-209q0 -26 4.5 -51t21.5 -40.5t54 -15.5q36 0 53 16t22 40t6 50v210h124v-412h-104l-20 72h-2q-1 -3 -7.5 -16t-21.5 -28t-40.5 -26.5t-63.5 -11.5zM228 458q-53 0 -78 28t-25 74q0 47 24.5 75.5t78.5 28.5
q52 0 78.5 -28.5t26.5 -75.5q0 -44 -26.5 -73t-78.5 -29zM226 528q19 0 27.5 9.5t8.5 24.5t-8.5 26t-27.5 11q-18 0 -26.5 -11t-8.5 -26t9 -24.5t26 -9.5z" />
    <glyph glyph-name="utilde" unicode="&#x169;" 
d="M175 -10q-55 0 -85 22.5t-42 57t-14.5 71t-2.5 63.5v208h118v-209q0 -26 4.5 -51t21.5 -40.5t54 -15.5q36 0 53 16t22 40t6 50v210h124v-412h-104l-20 72h-2q-1 -3 -7.5 -16t-21.5 -28t-40.5 -26.5t-63.5 -11.5zM289 482q-27 0 -42.5 8.5t-25 20t-18 20t-21.5 8.5
q-16 0 -19 -13.5t-3 -39.5h-69q0 13 0.5 33t7.5 40.5t24.5 34.5t50.5 14q27 0 42.5 -8.5t25.5 -20t19 -20t22 -8.5q15 0 18 14.5t3 39.5h69q0 -24 -4 -53t-21.5 -49.5t-58.5 -20.5z" />
    <glyph glyph-name="v" unicode="v" horiz-adv-x="464" 
d="M318 412h118v-17l-135 -395h-167l-136 394v18h117l103 -312h2z" />
    <glyph glyph-name="w" unicode="w" horiz-adv-x="653" 
d="M96 0l-88 395v19h119l56 -313h2l79 313h104l83 -313h2l56 313h118v-19l-91 -395h-168l-51 205h-2l-48 -205h-171z" />
    <glyph glyph-name="wacute" unicode="&#x1e83;" horiz-adv-x="653" 
d="M96 0l-88 395v19h119l56 -313h2l79 313h104l83 -313h2l56 313h118v-19l-91 -395h-168l-51 205h-2l-48 -205h-171zM341 460h-54v15l42 99h101v-20z" />
    <glyph glyph-name="wcircumflex" unicode="&#x175;" horiz-adv-x="653" 
d="M96 0l-88 395v19h119l56 -313h2l79 313h104l83 -313h2l56 313h118v-19l-91 -395h-168l-51 205h-2l-48 -205h-171zM167 457v10l123 111h51l121 -111v-10h-105l-39 44h-5l-37 -44h-109z" />
    <glyph glyph-name="wdieresis" unicode="&#x1e85;" horiz-adv-x="653" 
d="M96 0l-88 395v19h119l56 -313h2l79 313h104l83 -313h2l56 313h118v-19l-91 -395h-168l-51 205h-2l-48 -205h-171zM220 457q-41 0 -55 20.5t-14 48.5q0 26 14 46.5t55 20.5t54 -20.5t13 -46.5q0 -28 -13 -48.5t-54 -20.5zM414 457q-41 0 -55 20.5t-14 48.5q0 26 14 46.5
t55 20.5t54 -20.5t13 -46.5q0 -28 -13 -48.5t-54 -20.5z" />
    <glyph glyph-name="wgrave" unicode="&#x1e81;" horiz-adv-x="653" 
d="M96 0l-88 395v19h119l56 -313h2l79 313h104l83 -313h2l56 313h118v-19l-91 -395h-168l-51 205h-2l-48 -205h-171zM265 460l-88 94v20h101l42 -99v-15h-55z" />
    <glyph glyph-name="x" unicode="x" horiz-adv-x="460" 
d="M-5 0l151 213l-142 199h131l87 -131l86 131h132l-141 -199l150 -213h-131l-96 143l-96 -143h-131z" />
    <glyph glyph-name="y" unicode="y" horiz-adv-x="457" 
d="M-1 -195v93h67q14 0 26 2.5t23.5 14.5t25.5 40l20 44l-161 413h124l95 -290l103 290h125l-195 -467q-26 -62 -48 -92t-49.5 -39t-70.5 -9h-85z" />
    <glyph glyph-name="yacute" unicode="&#xfd;" horiz-adv-x="457" 
d="M-1 -195v93h67q14 0 26 2.5t23.5 14.5t25.5 40l20 44l-161 413h124l95 -290l103 290h125l-195 -467q-26 -62 -48 -92t-49.5 -39t-70.5 -9h-85zM233 460h-54v15l42 99h101v-20z" />
    <glyph glyph-name="ycircumflex" unicode="&#x177;" horiz-adv-x="457" 
d="M-1 -195v93h67q14 0 26 2.5t23.5 14.5t25.5 40l20 44l-161 413h124l95 -290l103 290h125l-195 -467q-26 -62 -48 -92t-49.5 -39t-70.5 -9h-85zM77 457v10l123 111h51l121 -111v-10h-105l-39 44h-5l-37 -44h-109z" />
    <glyph glyph-name="ydieresis" unicode="&#xff;" horiz-adv-x="457" 
d="M-1 -195v93h67q14 0 26 2.5t23.5 14.5t25.5 40l20 44l-161 413h124l95 -290l103 290h125l-195 -467q-26 -62 -48 -92t-49.5 -39t-70.5 -9h-85zM128 457q-41 0 -55 20.5t-14 48.5q0 26 14 46.5t55 20.5t54 -20.5t13 -46.5q0 -28 -13 -48.5t-54 -20.5zM322 457
q-41 0 -55 20.5t-14 48.5q0 26 14 46.5t55 20.5t54 -20.5t13 -46.5q0 -28 -13 -48.5t-54 -20.5z" />
    <glyph glyph-name="uni1EF5" unicode="&#x1ef5;" horiz-adv-x="457" 
d="M-1 -195v93h67q14 0 26 2.5t23.5 14.5t25.5 40l20 44l-161 413h124l95 -290l103 290h125l-195 -467q-26 -62 -48 -92t-49.5 -39t-70.5 -9h-85zM359 -187q-36 0 -48 17.5t-12 42.5q0 23 12 40.5t48 17.5q35 0 46.5 -17.5t11.5 -40.5q0 -25 -11.5 -42.5t-46.5 -17.5z" />
    <glyph glyph-name="ygrave" unicode="&#x1ef3;" horiz-adv-x="457" 
d="M-1 -195v93h67q14 0 26 2.5t23.5 14.5t25.5 40l20 44l-161 413h124l95 -290l103 290h125l-195 -467q-26 -62 -48 -92t-49.5 -39t-70.5 -9h-85zM185 460l-88 94v20h101l42 -99v-15h-55z" />
    <glyph glyph-name="uni1EF7" unicode="&#x1ef7;" horiz-adv-x="457" 
d="M-1 -195v93h67q14 0 26 2.5t23.5 14.5t25.5 40l20 44l-161 413h124l95 -290l103 290h125l-195 -467q-26 -62 -48 -92t-49.5 -39t-70.5 -9h-85zM191 470v18q6 13 22 22t30 19.5t14 28.5q0 16 -15.5 21.5t-33.5 -0.5t-26 -23l-47 32q8 29 30 45.5t50 21t54 -3t43 -27.5
t17 -53q0 -31 -13 -47.5t-28.5 -27.5t-21.5 -26h-75z" />
    <glyph glyph-name="uni1EF9" unicode="&#x1ef9;" horiz-adv-x="457" 
d="M-1 -195v93h67q14 0 26 2.5t23.5 14.5t25.5 40l20 44l-161 413h124l95 -290l103 290h125l-195 -467q-26 -62 -48 -92t-49.5 -39t-70.5 -9h-85zM280 479q-27 0 -42.5 8.5t-25 20t-18 20t-21.5 8.5q-16 0 -19 -13.5t-3 -39.5h-69q0 13 0.5 33t7.5 40.5t24.5 34.5t50.5 14
q27 0 42.5 -8.5t25.5 -20t19 -20t22 -8.5q15 0 18 14.5t3 39.5h69q0 -24 -4 -53t-21.5 -49.5t-58.5 -20.5z" />
    <glyph glyph-name="z" unicode="z" horiz-adv-x="452" 
d="M35 0v87l234 239h-220v89h360v-86l-228 -239h228v-90h-374z" />
    <glyph glyph-name="zacute" unicode="&#x17a;" horiz-adv-x="452" 
d="M35 0v87l234 239h-220v89h360v-86l-228 -239h228v-90h-374zM242 460h-54v15l42 99h101v-20z" />
    <glyph glyph-name="zcaron" unicode="&#x17e;" horiz-adv-x="452" 
d="M35 0v87l234 239h-220v89h360v-86l-228 -239h228v-90h-374zM61 597h124l45 -85l46 85h122l-143 -136h-51z" />
    <glyph glyph-name="zdotaccent" unicode="&#x17c;" horiz-adv-x="452" 
d="M35 0v87l234 239h-220v89h360v-86l-228 -239h228v-90h-374zM228 456q-41 0 -55 20.5t-14 48.5q0 26 14 46.5t55 20.5t54 -20.5t13 -46.5q0 -28 -13 -48.5t-54 -20.5z" />
    <glyph glyph-name="a.ss01" horiz-adv-x="490" 
d="M142 -10q-56 0 -89.5 30t-33.5 79q0 42 24.5 66.5t63 37.5t80.5 22q43 10 65 17t29 15.5t7 22.5q0 21 -17.5 33.5t-42.5 12.5q-18 0 -35.5 -7t-28 -24t-8.5 -46h-112q1 60 28 96.5t69 52.5t88 16q45 0 86.5 -15t67.5 -48t26 -86v-131q0 -19 3.5 -34.5t15.5 -21t36 5.5
l1 -66q-1 1 -9.5 -6t-27 -14.5t-48.5 -7.5q-34 0 -53 11.5t-27 28.5t-10 33.5t-2 26.5v23q-16 -53 -51 -88t-95 -35zM192 76q23 2 45 22.5t36.5 52.5t14.5 68q-8 -7 -28 -13.5t-35 -11.5q-34 -11 -60 -30t-24 -51q2 -22 18.5 -30.5t32.5 -6.5z" />
    <glyph glyph-name="aacute.ss01" horiz-adv-x="490" 
d="M142 -10q-56 0 -89.5 30t-33.5 79q0 42 24.5 66.5t63 37.5t80.5 22q43 10 65 17t29 15.5t7 22.5q0 21 -17.5 33.5t-42.5 12.5q-18 0 -35.5 -7t-28 -24t-8.5 -46h-112q1 60 28 96.5t69 52.5t88 16q45 0 86.5 -15t67.5 -48t26 -86v-131q0 -19 3.5 -34.5t15.5 -21t36 5.5
l1 -66q-1 1 -9.5 -6t-27 -14.5t-48.5 -7.5q-34 0 -53 11.5t-27 28.5t-10 33.5t-2 26.5v23q-16 -53 -51 -88t-95 -35zM192 76q23 2 45 22.5t36.5 52.5t14.5 68q-8 -7 -28 -13.5t-35 -11.5q-34 -11 -60 -30t-24 -51q2 -22 18.5 -30.5t32.5 -6.5zM259 460h-54v15l42 99h101v-20
z" />
    <glyph glyph-name="abreve.ss01" horiz-adv-x="490" 
d="M142 -10q-56 0 -89.5 30t-33.5 79q0 42 24.5 66.5t63 37.5t80.5 22q43 10 65 17t29 15.5t7 22.5q0 21 -17.5 33.5t-42.5 12.5q-18 0 -35.5 -7t-28 -24t-8.5 -46h-112q1 60 28 96.5t69 52.5t88 16q45 0 86.5 -15t67.5 -48t26 -86v-131q0 -19 3.5 -34.5t15.5 -21t36 5.5
l1 -66q-1 1 -9.5 -6t-27 -14.5t-48.5 -7.5q-34 0 -53 11.5t-27 28.5t-10 33.5t-2 26.5v23q-16 -53 -51 -88t-95 -35zM192 76q23 2 45 22.5t36.5 52.5t14.5 68q-8 -7 -28 -13.5t-35 -11.5q-34 -11 -60 -30t-24 -51q2 -22 18.5 -30.5t32.5 -6.5zM230 462q-66 0 -103 30t-37 82
h84q0 -27 16 -37t39 -10q24 0 39 9.5t15 37.5h85q0 -52 -35.5 -82t-102.5 -30z" />
    <glyph glyph-name="uni1EAF.ss01" horiz-adv-x="490" 
d="M142 -10q-56 0 -89.5 30t-33.5 79q0 42 24.5 66.5t63 37.5t80.5 22q43 10 65 17t29 15.5t7 22.5q0 21 -17.5 33.5t-42.5 12.5q-18 0 -35.5 -7t-28 -24t-8.5 -46h-112q1 60 28 96.5t69 52.5t88 16q45 0 86.5 -15t67.5 -48t26 -86v-131q0 -19 3.5 -34.5t15.5 -21t36 5.5
l1 -66q-1 1 -9.5 -6t-27 -14.5t-48.5 -7.5q-34 0 -53 11.5t-27 28.5t-10 33.5t-2 26.5v23q-16 -53 -51 -88t-95 -35zM192 76q23 2 45 22.5t36.5 52.5t14.5 68q-8 -7 -28 -13.5t-35 -11.5q-34 -11 -60 -30t-24 -51q2 -22 18.5 -30.5t32.5 -6.5zM230 462q-66 0 -103 30t-37 82
h84q0 -27 16 -37t39 -10q24 0 39 9.5t15 37.5h85q0 -52 -35.5 -82t-102.5 -30zM254 594h-54v15l42 99h101v-20z" />
    <glyph glyph-name="uni1EB7.ss01" horiz-adv-x="490" 
d="M142 -10q-56 0 -89.5 30t-33.5 79q0 42 24.5 66.5t63 37.5t80.5 22q43 10 65 17t29 15.5t7 22.5q0 21 -17.5 33.5t-42.5 12.5q-18 0 -35.5 -7t-28 -24t-8.5 -46h-112q1 60 28 96.5t69 52.5t88 16q45 0 86.5 -15t67.5 -48t26 -86v-131q0 -19 3.5 -34.5t15.5 -21t36 5.5
l1 -66q-1 1 -9.5 -6t-27 -14.5t-48.5 -7.5q-34 0 -53 11.5t-27 28.5t-10 33.5t-2 26.5v23q-16 -53 -51 -88t-95 -35zM192 76q23 2 45 22.5t36.5 52.5t14.5 68q-8 -7 -28 -13.5t-35 -11.5q-34 -11 -60 -30t-24 -51q2 -22 18.5 -30.5t32.5 -6.5zM230 462q-66 0 -103 30t-37 82
h84q0 -27 16 -37t39 -10q24 0 39 9.5t15 37.5h85q0 -52 -35.5 -82t-102.5 -30zM228 -187q-36 0 -48 17.5t-12 42.5q0 23 12 40.5t48 17.5q35 0 46.5 -17.5t11.5 -40.5q0 -25 -11.5 -42.5t-46.5 -17.5z" />
    <glyph glyph-name="uni1EB1.ss01" horiz-adv-x="490" 
d="M142 -10q-56 0 -89.5 30t-33.5 79q0 42 24.5 66.5t63 37.5t80.5 22q43 10 65 17t29 15.5t7 22.5q0 21 -17.5 33.5t-42.5 12.5q-18 0 -35.5 -7t-28 -24t-8.5 -46h-112q1 60 28 96.5t69 52.5t88 16q45 0 86.5 -15t67.5 -48t26 -86v-131q0 -19 3.5 -34.5t15.5 -21t36 5.5
l1 -66q-1 1 -9.5 -6t-27 -14.5t-48.5 -7.5q-34 0 -53 11.5t-27 28.5t-10 33.5t-2 26.5v23q-16 -53 -51 -88t-95 -35zM192 76q23 2 45 22.5t36.5 52.5t14.5 68q-8 -7 -28 -13.5t-35 -11.5q-34 -11 -60 -30t-24 -51q2 -22 18.5 -30.5t32.5 -6.5zM231 462q-66 0 -103 30t-37 82
h84q0 -27 16 -37t39 -10q24 0 39 9.5t15 37.5h85q0 -52 -35.5 -82t-102.5 -30zM202 594l-88 94v20h101l42 -99v-15h-55z" />
    <glyph glyph-name="uni1EB3.ss01" horiz-adv-x="490" 
d="M142 -10q-56 0 -89.5 30t-33.5 79q0 42 24.5 66.5t63 37.5t80.5 22q43 10 65 17t29 15.5t7 22.5q0 21 -17.5 33.5t-42.5 12.5q-18 0 -35.5 -7t-28 -24t-8.5 -46h-112q1 60 28 96.5t69 52.5t88 16q45 0 86.5 -15t67.5 -48t26 -86v-131q0 -19 3.5 -34.5t15.5 -21t36 5.5
l1 -66q-1 1 -9.5 -6t-27 -14.5t-48.5 -7.5q-34 0 -53 11.5t-27 28.5t-10 33.5t-2 26.5v23q-16 -53 -51 -88t-95 -35zM192 76q23 2 45 22.5t36.5 52.5t14.5 68q-8 -7 -28 -13.5t-35 -11.5q-34 -11 -60 -30t-24 -51q2 -22 18.5 -30.5t32.5 -6.5zM230 462q-66 0 -103 30t-37 82
h84q0 -27 16 -37t39 -10q24 0 39 9.5t15 37.5h85q0 -52 -35.5 -82t-102.5 -30zM195 592v18q6 13 22 22t30 19.5t14 28.5q0 16 -15.5 21.5t-33.5 -0.5t-26 -23l-47 32q8 29 30 45.5t50 21t54 -3t43 -27.5t17 -53q0 -31 -13 -47.5t-28.5 -27.5t-21.5 -26h-75z" />
    <glyph glyph-name="uni1EB5.ss01" horiz-adv-x="490" 
d="M142 -10q-56 0 -89.5 30t-33.5 79q0 42 24.5 66.5t63 37.5t80.5 22q43 10 65 17t29 15.5t7 22.5q0 21 -17.5 33.5t-42.5 12.5q-18 0 -35.5 -7t-28 -24t-8.5 -46h-112q1 60 28 96.5t69 52.5t88 16q45 0 86.5 -15t67.5 -48t26 -86v-131q0 -19 3.5 -34.5t15.5 -21t36 5.5
l1 -66q-1 1 -9.5 -6t-27 -14.5t-48.5 -7.5q-34 0 -53 11.5t-27 28.5t-10 33.5t-2 26.5v23q-16 -53 -51 -88t-95 -35zM192 76q23 2 45 22.5t36.5 52.5t14.5 68q-8 -7 -28 -13.5t-35 -11.5q-34 -11 -60 -30t-24 -51q2 -22 18.5 -30.5t32.5 -6.5zM230 462q-66 0 -103 30t-37 82
h84q0 -27 16 -37t39 -10q24 0 39 9.5t15 37.5h85q0 -52 -35.5 -82t-102.5 -30zM284 623q-27 0 -42.5 8.5t-25 20t-18 20t-21.5 8.5q-16 0 -19 -13.5t-3 -39.5h-69q0 13 0.5 33t7.5 40.5t24.5 34.5t50.5 14q27 0 42.5 -8.5t25.5 -20t19 -20t22 -8.5q15 0 18 14.5t3 39.5h69
q0 -24 -4 -53t-21.5 -49.5t-58.5 -20.5z" />
    <glyph glyph-name="acircumflex.ss01" horiz-adv-x="490" 
d="M142 -10q-56 0 -89.5 30t-33.5 79q0 42 24.5 66.5t63 37.5t80.5 22q43 10 65 17t29 15.5t7 22.5q0 21 -17.5 33.5t-42.5 12.5q-18 0 -35.5 -7t-28 -24t-8.5 -46h-112q1 60 28 96.5t69 52.5t88 16q45 0 86.5 -15t67.5 -48t26 -86v-131q0 -19 3.5 -34.5t15.5 -21t36 5.5
l1 -66q-1 1 -9.5 -6t-27 -14.5t-48.5 -7.5q-34 0 -53 11.5t-27 28.5t-10 33.5t-2 26.5v23q-16 -53 -51 -88t-95 -35zM192 76q23 2 45 22.5t36.5 52.5t14.5 68q-8 -7 -28 -13.5t-35 -11.5q-34 -11 -60 -30t-24 -51q2 -22 18.5 -30.5t32.5 -6.5zM81 457v10l123 111h51
l121 -111v-10h-105l-39 44h-5l-37 -44h-109z" />
    <glyph glyph-name="uni1EA5.ss01" horiz-adv-x="490" 
d="M142 -10q-56 0 -89.5 30t-33.5 79q0 42 24.5 66.5t63 37.5t80.5 22q43 10 65 17t29 15.5t7 22.5q0 21 -17.5 33.5t-42.5 12.5q-18 0 -35.5 -7t-28 -24t-8.5 -46h-112q1 60 28 96.5t69 52.5t88 16q45 0 86.5 -15t67.5 -48t26 -86v-131q0 -19 3.5 -34.5t15.5 -21t36 5.5
l1 -66q-1 1 -9.5 -6t-27 -14.5t-48.5 -7.5q-34 0 -53 11.5t-27 28.5t-10 33.5t-2 26.5v23q-16 -53 -51 -88t-95 -35zM192 76q23 2 45 22.5t36.5 52.5t14.5 68q-8 -7 -28 -13.5t-35 -11.5q-34 -11 -60 -30t-24 -51q2 -22 18.5 -30.5t32.5 -6.5zM81 455v10l123 111h51
l121 -111v-10h-105l-39 44h-5l-37 -44h-109zM380 552h-54v15l42 99h101v-20z" />
    <glyph glyph-name="uni1EAD.ss01" horiz-adv-x="490" 
d="M142 -10q-56 0 -89.5 30t-33.5 79q0 42 24.5 66.5t63 37.5t80.5 22q43 10 65 17t29 15.5t7 22.5q0 21 -17.5 33.5t-42.5 12.5q-18 0 -35.5 -7t-28 -24t-8.5 -46h-112q1 60 28 96.5t69 52.5t88 16q45 0 86.5 -15t67.5 -48t26 -86v-131q0 -19 3.5 -34.5t15.5 -21t36 5.5
l1 -66q-1 1 -9.5 -6t-27 -14.5t-48.5 -7.5q-34 0 -53 11.5t-27 28.5t-10 33.5t-2 26.5v23q-16 -53 -51 -88t-95 -35zM192 76q23 2 45 22.5t36.5 52.5t14.5 68q-8 -7 -28 -13.5t-35 -11.5q-34 -11 -60 -30t-24 -51q2 -22 18.5 -30.5t32.5 -6.5zM81 457v10l123 111h51
l121 -111v-10h-105l-39 44h-5l-37 -44h-109zM228 -187q-36 0 -48 17.5t-12 42.5q0 23 12 40.5t48 17.5q35 0 46.5 -17.5t11.5 -40.5q0 -25 -11.5 -42.5t-46.5 -17.5z" />
    <glyph glyph-name="uni1EA7.ss01" horiz-adv-x="490" 
d="M142 -10q-56 0 -89.5 30t-33.5 79q0 42 24.5 66.5t63 37.5t80.5 22q43 10 65 17t29 15.5t7 22.5q0 21 -17.5 33.5t-42.5 12.5q-18 0 -35.5 -7t-28 -24t-8.5 -46h-112q1 60 28 96.5t69 52.5t88 16q45 0 86.5 -15t67.5 -48t26 -86v-131q0 -19 3.5 -34.5t15.5 -21t36 5.5
l1 -66q-1 1 -9.5 -6t-27 -14.5t-48.5 -7.5q-34 0 -53 11.5t-27 28.5t-10 33.5t-2 26.5v23q-16 -53 -51 -88t-95 -35zM192 76q23 2 45 22.5t36.5 52.5t14.5 68q-8 -7 -28 -13.5t-35 -11.5q-34 -11 -60 -30t-24 -51q2 -22 18.5 -30.5t32.5 -6.5zM63 552l-88 94v20h101l42 -99
v-15h-55zM82 455v10l123 111h51l121 -111v-10h-105l-39 44h-5l-37 -44h-109z" />
    <glyph glyph-name="uni1EA9.ss01" horiz-adv-x="490" 
d="M142 -10q-56 0 -89.5 30t-33.5 79q0 42 24.5 66.5t63 37.5t80.5 22q43 10 65 17t29 15.5t7 22.5q0 21 -17.5 33.5t-42.5 12.5q-18 0 -35.5 -7t-28 -24t-8.5 -46h-112q1 60 28 96.5t69 52.5t88 16q45 0 86.5 -15t67.5 -48t26 -86v-131q0 -19 3.5 -34.5t15.5 -21t36 5.5
l1 -66q-1 1 -9.5 -6t-27 -14.5t-48.5 -7.5q-34 0 -53 11.5t-27 28.5t-10 33.5t-2 26.5v23q-16 -53 -51 -88t-95 -35zM192 76q23 2 45 22.5t36.5 52.5t14.5 68q-8 -7 -28 -13.5t-35 -11.5q-34 -11 -60 -30t-24 -51q2 -22 18.5 -30.5t32.5 -6.5zM81 457v10l123 111h51
l121 -111v-10h-105l-39 44h-5l-37 -44h-109zM317 554v18q6 13 22 22t30 19.5t14 28.5q0 16 -15.5 21.5t-33.5 -0.5t-26 -23l-47 32q8 29 30 45.5t50 21t54 -3t43 -27.5t17 -53q0 -31 -13 -47.5t-28.5 -27.5t-21.5 -26h-75z" />
    <glyph glyph-name="uni1EAB.ss01" horiz-adv-x="490" 
d="M142 -10q-56 0 -89.5 30t-33.5 79q0 42 24.5 66.5t63 37.5t80.5 22q43 10 65 17t29 15.5t7 22.5q0 21 -17.5 33.5t-42.5 12.5q-18 0 -35.5 -7t-28 -24t-8.5 -46h-112q1 60 28 96.5t69 52.5t88 16q45 0 86.5 -15t67.5 -48t26 -86v-131q0 -19 3.5 -34.5t15.5 -21t36 5.5
l1 -66q-1 1 -9.5 -6t-27 -14.5t-48.5 -7.5q-34 0 -53 11.5t-27 28.5t-10 33.5t-2 26.5v23q-16 -53 -51 -88t-95 -35zM192 76q23 2 45 22.5t36.5 52.5t14.5 68q-8 -7 -28 -13.5t-35 -11.5q-34 -11 -60 -30t-24 -51q2 -22 18.5 -30.5t32.5 -6.5zM81 457v10l123 111h51
l121 -111v-10h-105l-39 44h-5l-37 -44h-109zM281 607q-27 0 -42.5 8.5t-25 20t-18 20t-21.5 8.5q-16 0 -19 -13.5t-3 -39.5h-69q0 13 0.5 33t7.5 40.5t24.5 34.5t50.5 14q27 0 42.5 -8.5t25.5 -20t19 -20t22 -8.5q15 0 18 14.5t3 39.5h69q0 -24 -4 -53t-21.5 -49.5
t-58.5 -20.5z" />
    <glyph glyph-name="adieresis.ss01" horiz-adv-x="490" 
d="M142 -10q-56 0 -89.5 30t-33.5 79q0 42 24.5 66.5t63 37.5t80.5 22q43 10 65 17t29 15.5t7 22.5q0 21 -17.5 33.5t-42.5 12.5q-18 0 -35.5 -7t-28 -24t-8.5 -46h-112q1 60 28 96.5t69 52.5t88 16q45 0 86.5 -15t67.5 -48t26 -86v-131q0 -19 3.5 -34.5t15.5 -21t36 5.5
l1 -66q-1 1 -9.5 -6t-27 -14.5t-48.5 -7.5q-34 0 -53 11.5t-27 28.5t-10 33.5t-2 26.5v23q-16 -53 -51 -88t-95 -35zM192 76q23 2 45 22.5t36.5 52.5t14.5 68q-8 -7 -28 -13.5t-35 -11.5q-34 -11 -60 -30t-24 -51q2 -22 18.5 -30.5t32.5 -6.5zM132 457q-41 0 -55 20.5
t-14 48.5q0 26 14 46.5t55 20.5t54 -20.5t13 -46.5q0 -28 -13 -48.5t-54 -20.5zM326 457q-41 0 -55 20.5t-14 48.5q0 26 14 46.5t55 20.5t54 -20.5t13 -46.5q0 -28 -13 -48.5t-54 -20.5z" />
    <glyph glyph-name="uni1EA1.ss01" horiz-adv-x="490" 
d="M142 -10q-56 0 -89.5 30t-33.5 79q0 42 24.5 66.5t63 37.5t80.5 22q43 10 65 17t29 15.5t7 22.5q0 21 -17.5 33.5t-42.5 12.5q-18 0 -35.5 -7t-28 -24t-8.5 -46h-112q1 60 28 96.5t69 52.5t88 16q45 0 86.5 -15t67.5 -48t26 -86v-131q0 -19 3.5 -34.5t15.5 -21t36 5.5
l1 -66q-1 1 -9.5 -6t-27 -14.5t-48.5 -7.5q-34 0 -53 11.5t-27 28.5t-10 33.5t-2 26.5v23q-16 -53 -51 -88t-95 -35zM192 76q23 2 45 22.5t36.5 52.5t14.5 68q-8 -7 -28 -13.5t-35 -11.5q-34 -11 -60 -30t-24 -51q2 -22 18.5 -30.5t32.5 -6.5zM228 -187q-36 0 -48 17.5
t-12 42.5q0 23 12 40.5t48 17.5q35 0 46.5 -17.5t11.5 -40.5q0 -25 -11.5 -42.5t-46.5 -17.5z" />
    <glyph glyph-name="agrave.ss01" horiz-adv-x="490" 
d="M142 -10q-56 0 -89.5 30t-33.5 79q0 42 24.5 66.5t63 37.5t80.5 22q43 10 65 17t29 15.5t7 22.5q0 21 -17.5 33.5t-42.5 12.5q-18 0 -35.5 -7t-28 -24t-8.5 -46h-112q1 60 28 96.5t69 52.5t88 16q45 0 86.5 -15t67.5 -48t26 -86v-131q0 -19 3.5 -34.5t15.5 -21t36 5.5
l1 -66q-1 1 -9.5 -6t-27 -14.5t-48.5 -7.5q-34 0 -53 11.5t-27 28.5t-10 33.5t-2 26.5v23q-16 -53 -51 -88t-95 -35zM192 76q23 2 45 22.5t36.5 52.5t14.5 68q-8 -7 -28 -13.5t-35 -11.5q-34 -11 -60 -30t-24 -51q2 -22 18.5 -30.5t32.5 -6.5zM187 467l-88 94v20h101l42 -99
v-15h-55z" />
    <glyph glyph-name="uni1EA3.ss01" horiz-adv-x="490" 
d="M142 -10q-56 0 -89.5 30t-33.5 79q0 42 24.5 66.5t63 37.5t80.5 22q43 10 65 17t29 15.5t7 22.5q0 21 -17.5 33.5t-42.5 12.5q-18 0 -35.5 -7t-28 -24t-8.5 -46h-112q1 60 28 96.5t69 52.5t88 16q45 0 86.5 -15t67.5 -48t26 -86v-131q0 -19 3.5 -34.5t15.5 -21t36 5.5
l1 -66q-1 1 -9.5 -6t-27 -14.5t-48.5 -7.5q-34 0 -53 11.5t-27 28.5t-10 33.5t-2 26.5v23q-16 -53 -51 -88t-95 -35zM192 76q23 2 45 22.5t36.5 52.5t14.5 68q-8 -7 -28 -13.5t-35 -11.5q-34 -11 -60 -30t-24 -51q2 -22 18.5 -30.5t32.5 -6.5zM199 470v18q6 13 22 22
t30 19.5t14 28.5q0 16 -15.5 21.5t-33.5 -0.5t-26 -23l-47 32q8 29 30 45.5t50 21t54 -3t43 -27.5t17 -53q0 -31 -13 -47.5t-28.5 -27.5t-21.5 -26h-75z" />
    <glyph glyph-name="amacron.ss01" horiz-adv-x="490" 
d="M142 -10q-56 0 -89.5 30t-33.5 79q0 42 24.5 66.5t63 37.5t80.5 22q43 10 65 17t29 15.5t7 22.5q0 21 -17.5 33.5t-42.5 12.5q-18 0 -35.5 -7t-28 -24t-8.5 -46h-112q1 60 28 96.5t69 52.5t88 16q45 0 86.5 -15t67.5 -48t26 -86v-131q0 -19 3.5 -34.5t15.5 -21t36 5.5
l1 -66q-1 1 -9.5 -6t-27 -14.5t-48.5 -7.5q-34 0 -53 11.5t-27 28.5t-10 33.5t-2 26.5v23q-16 -53 -51 -88t-95 -35zM192 76q23 2 45 22.5t36.5 52.5t14.5 68q-8 -7 -28 -13.5t-35 -11.5q-34 -11 -60 -30t-24 -51q2 -22 18.5 -30.5t32.5 -6.5zM85 476v83h289v-83h-289z" />
    <glyph glyph-name="aogonek.ss01" horiz-adv-x="502" 
d="M144 -10q-58 0 -91.5 30t-33.5 76q0 45 24.5 69.5t63 37.5t80.5 22q43 10 65 17t29 15.5t7 22.5q0 21 -17.5 33.5t-42.5 12.5q-18 0 -35.5 -7t-28 -24t-8.5 -46h-112q1 60 28 96.5t69 52.5t88 16q45 0 86.5 -15t67.5 -48t26 -86v-131q0 -19 3.5 -34.5t15.5 -21t36 5.5
l1 -66h-1l1 -34l-11.5 -4.5t-26.5 -13.5t-26 -22.5t-11 -29.5q0 -27 29 -27q13 0 22.5 6.5t14.5 13.5l5 7l63 -56l-12.5 -14t-38 -28.5t-65.5 -14.5q-24 0 -48.5 9t-41 29t-16.5 54q0 32 18.5 56.5t43.5 41.5q-38 4 -53.5 23t-19 41t-3.5 35v23q-16 -53 -51 -88t-93 -35z
M192 75q23 3 44.5 22t35.5 49t16 64v10q-7 -8 -27.5 -14.5t-35.5 -11.5q-34 -11 -61.5 -30.5t-22.5 -50.5q2 -22 18.5 -30.5t32.5 -7.5z" />
    <glyph glyph-name="aring.ss01" horiz-adv-x="490" 
d="M142 -10q-56 0 -89.5 30t-33.5 79q0 42 24.5 66.5t63 37.5t80.5 22q43 10 65 17t29 15.5t7 22.5q0 21 -17.5 33.5t-42.5 12.5q-18 0 -35.5 -7t-28 -24t-8.5 -46h-112q1 60 28 96.5t69 52.5t88 16q45 0 86.5 -15t67.5 -48t26 -86v-131q0 -19 3.5 -34.5t15.5 -21t36 5.5
l1 -66q-1 1 -9.5 -6t-27 -14.5t-48.5 -7.5q-34 0 -53 11.5t-27 28.5t-10 33.5t-2 26.5v23q-16 -53 -51 -88t-95 -35zM192 76q23 2 45 22.5t36.5 52.5t14.5 68q-8 -7 -28 -13.5t-35 -11.5q-34 -11 -60 -30t-24 -51q2 -22 18.5 -30.5t32.5 -6.5zM230 458q-53 0 -78 28t-25 74
q0 47 24.5 75.5t78.5 28.5q52 0 78.5 -28.5t26.5 -75.5q0 -44 -26.5 -73t-78.5 -29zM228 528q19 0 27.5 9.5t8.5 24.5t-8.5 26t-27.5 11q-18 0 -26.5 -11t-8.5 -26t9 -24.5t26 -9.5z" />
    <glyph glyph-name="atilde.ss01" horiz-adv-x="490" 
d="M142 -10q-56 0 -89.5 30t-33.5 79q0 42 24.5 66.5t63 37.5t80.5 22q43 10 65 17t29 15.5t7 22.5q0 21 -17.5 33.5t-42.5 12.5q-18 0 -35.5 -7t-28 -24t-8.5 -46h-112q1 60 28 96.5t69 52.5t88 16q45 0 86.5 -15t67.5 -48t26 -86v-131q0 -19 3.5 -34.5t15.5 -21t36 5.5
l1 -66q-1 1 -9.5 -6t-27 -14.5t-48.5 -7.5q-34 0 -53 11.5t-27 28.5t-10 33.5t-2 26.5v23q-16 -53 -51 -88t-95 -35zM192 76q23 2 45 22.5t36.5 52.5t14.5 68q-8 -7 -28 -13.5t-35 -11.5q-34 -11 -60 -30t-24 -51q2 -22 18.5 -30.5t32.5 -6.5zM287 471q-27 0 -42.5 8.5
t-25 20t-18 20t-21.5 8.5q-16 0 -19 -13.5t-3 -39.5h-69q0 13 0.5 33t7.5 40.5t24.5 34.5t50.5 14q27 0 42.5 -8.5t25.5 -20t19 -20t22 -8.5q15 0 18 14.5t3 39.5h69q0 -24 -4 -53t-21.5 -49.5t-58.5 -20.5z" />
    <glyph glyph-name="f.ss01" horiz-adv-x="352" 
d="M310 250h-87l-1 -250h-120l1 250h-76v93h98q-42 8 -75 33.5t-33 75.5q0 32 21.5 57t57.5 39.5t79 14.5q60 0 100 -23.5t59.5 -58t21.5 -67.5h-118q0 15 -13.5 32t-49.5 17q-30 0 -41.5 -17t-11.5 -28q0 -18 9 -34t38.5 -27.5t89.5 -13.5h51v-93z" />
    <glyph glyph-name="g.ss01" horiz-adv-x="471" 
d="M152 91q0 -16 13.5 -21t31.5 -5h33q35 0 73.5 -5t71.5 -18.5t53.5 -40.5t20.5 -70q0 -45 -29 -73.5t-78.5 -42.5t-112.5 -14q-105 0 -161 30.5t-55 92.5q0 39 29 71.5t87 32.5q-29 0 -49 15t-20 36q0 18 15 29.5t37.5 17.5t44.5 6q-60 9 -89 45.5t-29 79.5q0 71 51 114.5
t142 43.5h50t40 4t16 16q0 17 -23 22t-57 -9l-16 78q38 13 73 7t57.5 -25.5t22.5 -47.5q0 -21 -10 -33.5t-24 -19.5t-25 -9.5t-12 -2.5q43 -13 71.5 -52t28.5 -86q0 -58 -47.5 -98.5t-147.5 -40.5q-10 0 -28.5 0.5t-33.5 -5t-15 -22.5zM163 261q0 -34 14.5 -53.5t53.5 -19.5
q36 0 51 20.5t15 52.5q0 34 -15 56.5t-51 22.5q-40 0 -54 -23t-14 -56zM230 -109q42 0 71.5 10t29.5 46q0 26 -28.5 39t-72.5 13q-42 0 -70.5 -12t-28.5 -40q0 -35 30 -45.5t69 -10.5z" />
    <glyph glyph-name="gbreve.ss01" horiz-adv-x="471" 
d="M152 91q0 -16 13.5 -21t31.5 -5h33q35 0 73.5 -5t71.5 -18.5t53.5 -40.5t20.5 -70q0 -45 -29 -73.5t-78.5 -42.5t-112.5 -14q-105 0 -161 30.5t-55 92.5q0 39 29 71.5t87 32.5q-29 0 -49 15t-20 36q0 18 15 29.5t37.5 17.5t44.5 6q-60 9 -89 45.5t-29 79.5q0 71 51 114.5
t142 43.5h50t40 4t16 16q0 17 -23 22t-57 -9l-16 78q38 13 73 7t57.5 -25.5t22.5 -47.5q0 -21 -10 -33.5t-24 -19.5t-25 -9.5t-12 -2.5q43 -13 71.5 -52t28.5 -86q0 -58 -47.5 -98.5t-147.5 -40.5q-10 0 -28.5 0.5t-33.5 -5t-15 -22.5zM163 261q0 -34 14.5 -53.5t53.5 -19.5
q36 0 51 20.5t15 52.5q0 34 -15 56.5t-51 22.5q-40 0 -54 -23t-14 -56zM230 -109q42 0 71.5 10t29.5 46q0 26 -28.5 39t-72.5 13q-42 0 -70.5 -12t-28.5 -40q0 -35 30 -45.5t69 -10.5zM232 601q-66 0 -103 30t-37 82h84q0 -27 16 -37t39 -10q24 0 39 9.5t15 37.5h85
q0 -52 -35.5 -82t-102.5 -30z" />
    <glyph glyph-name="uni0123.ss01" horiz-adv-x="473" 
d="M186 594l28 167h114l-72 -167h-70zM152 91q0 -16 13.5 -21t31.5 -5h33q35 0 73.5 -5t71.5 -18.5t53.5 -40.5t20.5 -70q0 -45 -29 -73.5t-78.5 -42.5t-112.5 -14q-105 0 -161 30.5t-55 92.5q0 39 29 71.5t87 32.5q-29 0 -49 15t-20 36q0 18 15 29.5t37.5 17.5t44.5 6
q-60 9 -89 45.5t-29 79.5q0 71 51 114.5t142 43.5h50t40 4t16 16q0 17 -23 22t-57 -9l-16 78q38 13 73 7t57.5 -25.5t22.5 -47.5q0 -21 -10 -33.5t-24 -19.5t-25 -9.5t-12 -2.5q43 -13 71.5 -52t28.5 -86q0 -58 -47.5 -98.5t-147.5 -40.5q-10 0 -28.5 0.5t-33.5 -5
t-15 -22.5zM163 261q0 -34 14.5 -53.5t53.5 -19.5q36 0 51 20.5t15 52.5q0 34 -15 56.5t-51 22.5q-40 0 -54 -23t-14 -56zM230 -109q42 0 71.5 10t29.5 46q0 26 -28.5 39t-72.5 13q-42 0 -70.5 -12t-28.5 -40q0 -35 30 -45.5t69 -10.5z" />
    <glyph glyph-name="gdotaccent.ss01" horiz-adv-x="471" 
d="M152 91q0 -16 13.5 -21t31.5 -5h33q35 0 73.5 -5t71.5 -18.5t53.5 -40.5t20.5 -70q0 -45 -29 -73.5t-78.5 -42.5t-112.5 -14q-105 0 -161 30.5t-55 92.5q0 39 29 71.5t87 32.5q-29 0 -49 15t-20 36q0 18 15 29.5t37.5 17.5t44.5 6q-60 9 -89 45.5t-29 79.5q0 71 51 114.5
t142 43.5h50t40 4t16 16q0 17 -23 22t-57 -9l-16 78q38 13 73 7t57.5 -25.5t22.5 -47.5q0 -21 -10 -33.5t-24 -19.5t-25 -9.5t-12 -2.5q43 -13 71.5 -52t28.5 -86q0 -58 -47.5 -98.5t-147.5 -40.5q-10 0 -28.5 0.5t-33.5 -5t-15 -22.5zM163 261q0 -34 14.5 -53.5t53.5 -19.5
q36 0 51 20.5t15 52.5q0 34 -15 56.5t-51 22.5q-40 0 -54 -23t-14 -56zM230 -109q42 0 71.5 10t29.5 46q0 26 -28.5 39t-72.5 13q-42 0 -70.5 -12t-28.5 -40q0 -35 30 -45.5t69 -10.5zM230 604q-41 0 -55 20.5t-14 48.5q0 26 14 46.5t55 20.5t54 -20.5t13 -46.5
q0 -28 -13 -48.5t-54 -20.5z" />
    <glyph glyph-name="lcaron.ss01" horiz-adv-x="296" 
d="M215 398l29 167h113l-72 -167h-70zM47 0v563h118v-563h-118z" />
    <glyph glyph-name="x.ss01" horiz-adv-x="382" 
d="M56 187l76 76l-77 77l58 59l78 -77l78 77l58 -59l-77 -77l76 -76l-59 -59l-76 76l-76 -76z" />
    <glyph glyph-name="N_o.dlig" horiz-adv-x="910" 
d="M732 336q-59 0 -88 32t-29 82q-1 48 28 80t89 33q58 0 87.5 -31t29.5 -82q0 -48 -28.5 -81t-88.5 -33zM436 563h126v-563h-231l-149 510h-2v-510h-125v563h214l165 -510h2v510zM732 408q19 0 28 12.5t9 30.5q0 15 -9 28t-28 13q-21 0 -29.5 -13t-8.5 -28q0 -18 8.5 -30.5
t29.5 -12.5zM613 197v83h237v-83h-237z" />
    <glyph glyph-name="f_f.dlig" horiz-adv-x="580" 
d="M71 -1v330h-53v83h53v57q0 64 30 90t84 26h102v-94h-96v-79h161v57q0 64 30 90t84 26h102v-94h-95v-79h94v-83h-94v-330h-121v330h-161v-330h-120z" />
    <glyph glyph-name="f_i.dlig" horiz-adv-x="512" 
d="M71 -1v330h-53v83h53v57q0 64 30 90t84 26h102v-94h-96v-79h273v-412h-121v329h-152v-330h-120z" />
    <glyph glyph-name="f_t.dlig" horiz-adv-x="591" 
d="M71 -1v330h-53v83h53v57q0 64 30 90t84 26h102v-94h-96v-79h94q26 0 43 6.5t25.5 29t8.5 69.5h96v-105h93v-83h-93v-236h96v-93h-95q-54 0 -84 26t-30 90v213h-154v-330h-120z" />
    <glyph glyph-name="t_t.dlig" horiz-adv-x="611" 
d="M187 0q-54 0 -84 26t-30 90v213h-59v83q26 0 42.5 6.5t25 29t8.5 69.5h96v-105h119q26 0 43 6.5t25.5 29t8.5 69.5h96v-105h93v-83h-93v-236h96v-93h-95q-54 0 -84 26t-30 90v213h-179v-236h96v-93h-95z" />
    <glyph glyph-name="ordfeminine" unicode="&#xaa;" horiz-adv-x="332" 
d="M130 405q-56 0 -79 38t-23 102t23 103.5t79 39.5q35 0 54 -12t26.5 -25t8.5 -16l1 53h86v-276h-72l-13 40h-2q0 -3 -8.5 -14.5t-27.5 -22t-53 -10.5zM165 474q35 0 45 21t10 50q0 30 -10 50.5t-45 20.5q-37 0 -47 -21.5t-10 -49.5q0 -29 10.5 -50t46.5 -21z" />
    <glyph glyph-name="ordmasculine" unicode="&#xba;" horiz-adv-x="323" 
d="M162 413q-74 0 -110.5 41t-36.5 106q-1 63 36 103.5t111 40.5q72 0 109 -39.5t37 -104.5q0 -63 -35.5 -105t-110.5 -42zM162 483q28 0 42 12t19.5 30t5.5 37t-5.5 37.5t-19.5 30.5t-42 12q-29 0 -43 -12t-19 -30.5t-5 -37.5t5 -37t19 -30t43 -12z" />
    <glyph glyph-name="zero" unicode="0" horiz-adv-x="560" 
d="M280 -14q-127 0 -189 79.5t-62 214.5q0 89 26.5 154.5t82 102t142.5 36.5q129 0 190 -79.5t61 -213.5q0 -87 -27 -153.5t-82.5 -103.5t-141.5 -37zM279 86q72 0 106 48.5t34 145.5t-33.5 145t-106.5 48q-70 0 -104 -46.5t-34 -146.5q0 -97 33 -145.5t105 -48.5z" />
    <glyph glyph-name="one" unicode="1" horiz-adv-x="401" 
d="M357 103v-103h-289v103h94v324q-7 -38 -24.5 -58.5t-38 -29t-37 -9.5t-21.5 -1v133q6 -2 26.5 -1t44 9.5t42 30.5t20.5 62h108v-460h75z" />
    <glyph glyph-name="two" unicode="2" horiz-adv-x="533" 
d="M43 0v100q1 1 26 12.5t63 31.5t80 48t78 61.5t55 71.5q21 44 13.5 77t-34 50.5t-60.5 17.5q-52 0 -81.5 -36.5t-17.5 -112.5l-112 16q-10 74 17.5 126.5t81.5 80t124 27.5q54 0 98.5 -20t72 -55.5t32 -81.5t-20.5 -98q-21 -41 -53.5 -73.5t-70 -57.5t-73 -42.5t-62 -27
t-36.5 -12.5h325v-103h-445z" />
    <glyph glyph-name="three" unicode="3" horiz-adv-x="529" 
d="M275 -10q-72 0 -126.5 24t-85 71.5t-29.5 119.5l116 17q1 -60 35 -94t92 -34q47 0 75.5 25.5t28.5 61.5q0 41 -32 58.5t-72 17.5h-60v62h63q24 0 46 5.5t36 19.5t14 39q0 41 -29.5 65.5t-78.5 24.5q-38 0 -63.5 -16.5t-38.5 -40.5t-13 -49l-108 18q1 16 10.5 46.5
t34 63.5t67 55.5t108.5 22.5q105 0 162 -43.5t57 -116.5q0 -49 -28 -86t-85 -43q56 -5 89.5 -42t33.5 -88q0 -52 -28 -88.5t-77.5 -56t-113.5 -19.5z" />
    <glyph glyph-name="four" unicode="4" horiz-adv-x="538" 
d="M33 106v103q52 22 92 63t67 91.5t40.5 102.5t13.5 97h131q0 -60 -26.5 -125.5t-77 -125t-121.5 -103.5h160v72h121v-72h66v-103h-66v-106h-121v106h-279z" />
    <glyph glyph-name="five" unicode="5" horiz-adv-x="532" 
d="M265 -10q-72 0 -119.5 25t-73 63.5t-31.5 77.5l120 18q1 -11 12 -30.5t34 -36t61 -16.5q48 0 74 29t30 64q2 27 -8.5 52t-34 41t-59.5 16q-33 0 -52 -12.5t-27 -25t-9 -13.5l-126 20l31 301h378v-103h-294l-18 -166l8 12t26 27.5t47.5 27.5t71.5 12q67 0 109 -27.5
t61 -71.5t16 -91q-4 -48 -32.5 -92.5t-77.5 -72.5t-117 -28z" />
    <glyph glyph-name="six" unicode="6" horiz-adv-x="556" 
d="M284 -10q-81 0 -135 38.5t-80.5 103.5t-26.5 145q0 58 16.5 111t49 95t80 66t108.5 24q53 0 89.5 -13.5t59.5 -33.5t35 -39.5t16.5 -33l4.5 -13.5l-119 -21l-7.5 12t-27.5 24.5t-57 12.5q-20 0 -44.5 -10t-46 -34.5t-33.5 -67t-6 -107.5q0 6 9 23.5t28 38t50.5 35
t77.5 13.5q67 0 109.5 -27t61.5 -69t15 -89t-30.5 -89t-76 -68.5t-120.5 -26.5zM292 90q42 0 67.5 19.5t34.5 48.5t1.5 58t-31.5 49.5t-66 21.5q-36 1 -64 -15.5t-43.5 -43.5t-15.5 -58q10 -42 44.5 -61t72.5 -19z" />
    <glyph glyph-name="seven" unicode="7" horiz-adv-x="532" 
d="M226 0h-120q0 115 36.5 207t98 156t137.5 95h-331v105h442v-103q-24 -11 -58 -32t-69.5 -55.5t-66 -85.5t-50 -122t-19.5 -165z" />
    <glyph glyph-name="eight" unicode="8" horiz-adv-x="571" 
d="M284 -11q-70 0 -125 19.5t-87 56.5t-32 90q0 55 38 95t106 48q-48 8 -72 31.5t-32 49.5t-8 43q0 45 26.5 79t74.5 53t111 19q98 0 155.5 -42.5t57.5 -108.5q0 -17 -7.5 -43t-31.5 -49.5t-73 -31.5q69 -9 107 -47.5t38 -95.5q0 -54 -32.5 -91t-88.5 -56t-125 -19zM284 326
q49 0 77.5 19t28.5 54q0 42 -29.5 62t-76.5 20q-48 0 -76.5 -20t-28.5 -62q0 -36 29 -54.5t76 -18.5zM284 82q59 0 93.5 25.5t34.5 67.5q0 49 -34.5 72t-93.5 23q-58 0 -92.5 -23t-34.5 -72q0 -42 34.5 -67.5t92.5 -25.5z" />
    <glyph glyph-name="nine" unicode="9" horiz-adv-x="555" 
d="M263 -10q-56 0 -94.5 13.5t-63 34t-37.5 40.5t-18 34l-5 14l120 25q0 -1 8 -14t29 -26t61 -13q22 0 44.5 9.5t41.5 32.5t30 64.5t10 106.5q-1 -5 -10 -22t-28 -37t-49.5 -35t-75.5 -15q-67 0 -110 27t-63 69t-16 89t30.5 89t75.5 68.5t121 26.5q68 0 115 -23.5t76 -64.5
t41.5 -93t11.5 -108q-1 -78 -25.5 -144.5t-78 -107t-141.5 -40.5zM255 273q53 0 84.5 32.5t34.5 81.5q-11 47 -42 67t-69 20q-41 0 -67 -20t-35.5 -50t-2.5 -59.5t31 -50t66 -21.5z" />
    <glyph glyph-name="zero.subs" horiz-adv-x="268" 
d="M135 -139q-61 0 -90.5 37.5t-29.5 101.5q0 62 28.5 100t91.5 38q61 0 89.5 -37.5t28.5 -100.5q0 -61 -28.5 -100t-89.5 -39zM134 -90q65 0 65 90q0 89 -65 89q-64 0 -64 -89q0 -90 64 -90z" />
    <glyph glyph-name="one.subs" horiz-adv-x="188" 
d="M29 -139v53h46v168q-4 -26 -17.5 -39t-26 -17.5t-16.5 -4.5v68q4 -1 19.5 0t30 11.5t16.5 37.5h55v-224h37v-53h-144z" />
    <glyph glyph-name="two.subs" horiz-adv-x="247" 
d="M15 -139v51l18 8t43.5 22t49 33.5t34.5 42.5q16 31 1.5 50t-39.5 19q-24 0 -38 -17.5t-8 -55.5l-56 8q-8 55 25 85.5t84 30.5q35 0 61 -17t35 -45.5t-7 -61.5q-13 -25 -34 -43.5t-44 -30.5t-41 -18.5t-24 -8.5h157v-52h-217z" />
    <glyph glyph-name="three.subs" horiz-adv-x="250" 
d="M131 -149q-53 0 -84.5 25.5t-31.5 77.5l58 9q0 -28 15.5 -44t43.5 -16q21 0 34 11.5t13 28.5q0 18 -14.5 26t-34.5 8h-27v31h29q17 0 31 6t14 23q0 19 -13.5 30t-36.5 11q-26 0 -39.5 -15.5t-13.5 -33.5l-53 9q0 10 9 31.5t31.5 40t64.5 18.5q50 0 77.5 -20.5t27.5 -55.5
q0 -23 -13.5 -41t-40.5 -20q26 -3 42 -20.5t16 -41.5q0 -37 -29.5 -57.5t-74.5 -20.5z" />
    <glyph glyph-name="four.subs" horiz-adv-x="261" 
d="M15 -87v52q35 15 58 45t34.5 64.5t11.5 63.5h68q0 -44 -29 -92t-82 -81h76v34h61v-34h33v-52h-33v-52h-61v52h-137z" />
    <glyph glyph-name="five.subs" horiz-adv-x="249" 
d="M124 -149q-53 0 -79 26.5t-30 54.5l61 9q1 -8 12 -23.5t38 -15.5q22 0 34 13.5t14 30.5q1 18 -10.5 34t-36.5 16q-23 0 -32 -11.5t-9 -12.5l-64 10l15 146h184v-52h-142l-8 -78l7 9.5t23 19t43 9.5q48 0 70.5 -28.5t19.5 -62.5q-3 -36 -32 -65t-78 -29z" />
    <glyph glyph-name="six.subs" horiz-adv-x="255" 
d="M130 -149q-58 0 -86.5 39.5t-28.5 97.5q0 36 14 68.5t41.5 52t65.5 19.5q32 0 51.5 -10t30 -22.5t14 -22.5l3.5 -10l-60 -10l-8 12t-34 12q-11 0 -26.5 -8.5t-26 -30.5t-7.5 -62q0 2 7.5 15t24 24t45.5 11q38 0 60 -18t27.5 -44t-4.5 -52t-36 -43.5t-67 -17.5zM135 -99
q24 0 36.5 13t12.5 30.5t-11.5 31.5t-35.5 15q-24 0 -40 -16t-16 -38q4 -20 20 -28t34 -8z" />
    <glyph glyph-name="seven.subs" horiz-adv-x="250" 
d="M105 -139h-61q0 85 39 143.5t95 79.5h-163v54h220v-53q-15 -6 -37 -20.5t-43 -40t-35.5 -65.5t-14.5 -98z" />
    <glyph glyph-name="eight.subs" horiz-adv-x="264" 
d="M131 -150q-49 0 -82.5 20.5t-33.5 58.5q0 26 18.5 45t50.5 23q-23 3 -34.5 14.5t-15.5 24t-4 19.5q0 33 28 52.5t73 19.5q47 0 74.5 -20t27.5 -52q0 -7 -3.5 -19.5t-15 -24t-35.5 -14.5q33 -5 51.5 -23t18.5 -45q0 -39 -34 -59t-84 -20zM131 11q50 0 50 33q0 20 -14 29
t-36 9t-35 -9.5t-13 -28.5q0 -16 13.5 -24.5t34.5 -8.5zM132 -104q27 0 43 11.5t16 31.5q0 23 -16 33.5t-43 10.5t-43 -10.5t-16 -33.5q0 -20 16 -31.5t43 -11.5z" />
    <glyph glyph-name="nine.subs" horiz-adv-x="256" 
d="M124 -149q-34 0 -55 10t-32 23t-14.5 23l-3.5 10l59 12l9 -12.5t37 -12.5q12 0 25.5 7.5t23.5 29t8 62.5q0 -3 -7.5 -15t-24 -24t-44.5 -12q-38 0 -60 18t-28 44t4 52.5t36 44t67 17.5q43 0 69 -19.5t37 -51t11 -66.5q-1 -37 -12.5 -69t-37 -51.5t-67.5 -19.5zM119 -13
q25 0 39.5 15.5t15.5 37.5q-4 22 -18.5 31t-31.5 9q-24 0 -36.5 -14t-13.5 -32t10 -32t35 -15z" />
    <glyph glyph-name="zero.dnom" horiz-adv-x="268" 
d="M135 -14q-61 0 -90.5 37.5t-29.5 101.5q0 62 28.5 100t91.5 38q61 0 89.5 -37.5t28.5 -100.5q0 -61 -28.5 -100t-89.5 -39zM134 35q65 0 65 90q0 89 -65 89q-64 0 -64 -89q0 -90 64 -90z" />
    <glyph glyph-name="one.dnom" horiz-adv-x="188" 
d="M29 0v53h46v168q-4 -26 -17.5 -39t-26 -17.5t-16.5 -4.5v68q4 -1 19.5 0t30 11.5t16.5 37.5h55v-224h37v-53h-144z" />
    <glyph glyph-name="two.dnom" horiz-adv-x="247" 
d="M15 0v51l18 8t43.5 22t49 33.5t34.5 42.5q16 31 1.5 50t-39.5 19q-24 0 -38 -17.5t-8 -55.5l-56 8q-8 55 25 85.5t84 30.5q35 0 61 -17t35 -45.5t-7 -61.5q-13 -25 -34 -43.5t-44 -30.5t-41 -18.5t-24 -8.5h157v-52h-217z" />
    <glyph glyph-name="three.dnom" horiz-adv-x="250" 
d="M131 -10q-53 0 -84.5 25.5t-31.5 77.5l58 9q0 -28 15.5 -44t43.5 -16q21 0 34 11.5t13 28.5q0 18 -14.5 26t-34.5 8h-27v31h29q17 0 31 6t14 23q0 19 -13.5 30t-36.5 11q-26 0 -39.5 -15.5t-13.5 -33.5l-53 9q0 10 9 31.5t31.5 40t64.5 18.5q50 0 77.5 -20.5t27.5 -55.5
q0 -23 -13.5 -41t-40.5 -20q26 -3 42 -20.5t16 -41.5q0 -37 -29.5 -57.5t-74.5 -20.5z" />
    <glyph glyph-name="four.dnom" horiz-adv-x="261" 
d="M15 52v52q35 15 58 45t34.5 64.5t11.5 63.5h68q0 -44 -29 -92t-82 -81h76v34h61v-34h33v-52h-33v-52h-61v52h-137z" />
    <glyph glyph-name="five.dnom" horiz-adv-x="249" 
d="M124 -10q-53 0 -79 26.5t-30 54.5l61 9q1 -8 12 -23.5t38 -15.5q22 0 34 13.5t14 30.5q1 18 -10.5 34t-36.5 16q-23 0 -32 -11.5t-9 -12.5l-64 10l15 146h184v-52h-142l-8 -78l7 9.5t23 19t43 9.5q48 0 70.5 -28.5t19.5 -62.5q-3 -35 -32 -64.5t-78 -29.5z" />
    <glyph glyph-name="six.dnom" horiz-adv-x="255" 
d="M130 -10q-58 0 -86.5 39.5t-28.5 97.5q0 36 14 68.5t41.5 52t65.5 19.5q32 0 51.5 -10t30 -22.5t14 -22.5l3.5 -10l-60 -10l-8 12t-34 12q-11 0 -26.5 -8.5t-26 -30.5t-7.5 -62q0 2 7.5 15t24 24.5t45.5 10.5q38 0 60 -18t27.5 -44t-4.5 -52t-36 -43.5t-67 -17.5zM135 40
q24 0 36.5 13t12.5 30.5t-11.5 31.5t-35.5 15q-24 0 -40 -16t-16 -38q4 -20 20 -28t34 -8z" />
    <glyph glyph-name="seven.dnom" horiz-adv-x="250" 
d="M105 0h-61q0 85 39 143.5t95 79.5h-163v54h220v-53q-15 -6 -37 -20.5t-43 -40t-35.5 -65.5t-14.5 -98z" />
    <glyph glyph-name="eight.dnom" horiz-adv-x="264" 
d="M131 -11q-49 0 -82.5 20.5t-33.5 58.5q0 26 18.5 45t50.5 23q-23 3 -34.5 14.5t-15.5 24t-4 19.5q0 33 28 52.5t73 19.5q47 0 74.5 -20t27.5 -52q0 -7 -3.5 -19.5t-15 -24t-35.5 -14.5q33 -5 51.5 -23t18.5 -45q0 -39 -34 -59t-84 -20zM131 150q50 0 50 33q0 20 -14 29
t-36 9t-35 -9.5t-13 -28.5q0 -16 13.5 -24.5t34.5 -8.5zM132 35q27 0 43 11.5t16 31.5q0 23 -16 33.5t-43 10.5t-43 -10.5t-16 -33.5q0 -20 16 -31.5t43 -11.5z" />
    <glyph glyph-name="nine.dnom" horiz-adv-x="256" 
d="M124 -10q-34 0 -55 10t-32 23t-14.5 23l-3.5 10l59 12l9 -12.5t37 -12.5q12 0 25.5 7.5t23.5 29t8 62.5q0 -2 -7.5 -14.5t-24 -24.5t-44.5 -12q-38 0 -60 18t-28 44t4 52.5t36 44t67 17.5q43 0 69 -19.5t37 -51t11 -66.5q-1 -37 -12.5 -69t-37 -51.5t-67.5 -19.5z
M119 126q25 0 39.5 15.5t15.5 37.5q-4 22 -18.5 31t-31.5 9q-24 0 -36.5 -14t-13.5 -32t10 -32t35 -15z" />
    <glyph glyph-name="zero.numr" horiz-adv-x="268" 
d="M135 -14q-61 0 -90.5 37.5t-29.5 101.5q0 62 28.5 100t91.5 38q61 0 89.5 -37.5t28.5 -100.5q0 -61 -28.5 -100t-89.5 -39zM134 35q65 0 65 90q0 89 -65 89q-64 0 -64 -89q0 -90 64 -90z" />
    <glyph glyph-name="one.numr" horiz-adv-x="188" 
d="M29 0v53h46v168q-4 -26 -17.5 -39t-26 -17.5t-16.5 -4.5v68q4 -1 19.5 0t30 11.5t16.5 37.5h55v-224h37v-53h-144z" />
    <glyph glyph-name="two.numr" horiz-adv-x="247" 
d="M15 0v51l18 8t43.5 22t49 33.5t34.5 42.5q16 31 1.5 50t-39.5 19q-24 0 -38 -17.5t-8 -55.5l-56 8q-8 55 25 85.5t84 30.5q35 0 61 -17t35 -45.5t-7 -61.5q-13 -25 -34 -43.5t-44 -30.5t-41 -18.5t-24 -8.5h157v-52h-217z" />
    <glyph glyph-name="three.numr" horiz-adv-x="250" 
d="M131 -10q-53 0 -84.5 25.5t-31.5 77.5l58 9q0 -28 15.5 -44t43.5 -16q21 0 34 11.5t13 28.5q0 18 -14.5 26t-34.5 8h-27v31h29q17 0 31 6t14 23q0 19 -13.5 30t-36.5 11q-26 0 -39.5 -15.5t-13.5 -33.5l-53 9q0 10 9 31.5t31.5 40t64.5 18.5q50 0 77.5 -20.5t27.5 -55.5
q0 -23 -13.5 -41t-40.5 -20q26 -3 42 -20.5t16 -41.5q0 -37 -29.5 -57.5t-74.5 -20.5z" />
    <glyph glyph-name="four.numr" horiz-adv-x="261" 
d="M15 52v52q35 15 58 45t34.5 64.5t11.5 63.5h68q0 -44 -29 -92t-82 -81h76v34h61v-34h33v-52h-33v-52h-61v52h-137z" />
    <glyph glyph-name="five.numr" horiz-adv-x="249" 
d="M124 -10q-53 0 -79 26.5t-30 54.5l61 9q1 -8 12 -23.5t38 -15.5q22 0 34 13.5t14 30.5q1 18 -10.5 34t-36.5 16q-23 0 -32 -11.5t-9 -12.5l-64 10l15 146h184v-52h-142l-8 -78l7 9.5t23 19t43 9.5q48 0 70.5 -28.5t19.5 -62.5q-3 -35 -32 -64.5t-78 -29.5z" />
    <glyph glyph-name="six.numr" horiz-adv-x="255" 
d="M130 -10q-58 0 -86.5 39.5t-28.5 97.5q0 36 14 68.5t41.5 52t65.5 19.5q32 0 51.5 -10t30 -22.5t14 -22.5l3.5 -10l-60 -10l-8 12t-34 12q-11 0 -26.5 -8.5t-26 -30.5t-7.5 -62q0 2 7.5 15t24 24.5t45.5 10.5q38 0 60 -18t27.5 -44t-4.5 -52t-36 -43.5t-67 -17.5zM135 40
q24 0 36.5 13t12.5 30.5t-11.5 31.5t-35.5 15q-24 0 -40 -16t-16 -38q4 -20 20 -28t34 -8z" />
    <glyph glyph-name="seven.numr" horiz-adv-x="250" 
d="M105 0h-61q0 85 39 143.5t95 79.5h-163v54h220v-53q-15 -6 -37 -20.5t-43 -40t-35.5 -65.5t-14.5 -98z" />
    <glyph glyph-name="eight.numr" horiz-adv-x="264" 
d="M131 -11q-49 0 -82.5 20.5t-33.5 58.5q0 26 18.5 45t50.5 23q-23 3 -34.5 14.5t-15.5 24t-4 19.5q0 33 28 52.5t73 19.5q47 0 74.5 -20t27.5 -52q0 -7 -3.5 -19.5t-15 -24t-35.5 -14.5q33 -5 51.5 -23t18.5 -45q0 -39 -34 -59t-84 -20zM131 150q50 0 50 33q0 20 -14 29
t-36 9t-35 -9.5t-13 -28.5q0 -16 13.5 -24.5t34.5 -8.5zM132 35q27 0 43 11.5t16 31.5q0 23 -16 33.5t-43 10.5t-43 -10.5t-16 -33.5q0 -20 16 -31.5t43 -11.5z" />
    <glyph glyph-name="nine.numr" horiz-adv-x="256" 
d="M124 -10q-34 0 -55 10t-32 23t-14.5 23l-3.5 10l59 12l9 -12.5t37 -12.5q12 0 25.5 7.5t23.5 29t8 62.5q0 -2 -7.5 -14.5t-24 -24.5t-44.5 -12q-38 0 -60 18t-28 44t4 52.5t36 44t67 17.5q43 0 69 -19.5t37 -51t11 -66.5q-1 -37 -12.5 -69t-37 -51.5t-67.5 -19.5z
M119 126q25 0 39.5 15.5t15.5 37.5q-4 22 -18.5 31t-31.5 9q-24 0 -36.5 -14t-13.5 -32t10 -32t35 -15z" />
    <glyph glyph-name="uni00B9" unicode="&#xb9;" horiz-adv-x="188" 
d="M29 412v53h46v168q-4 -26 -17.5 -39t-26 -17.5t-16.5 -4.5v68q4 -1 19.5 0t30 11.5t16.5 37.5h55v-224h37v-53h-144z" />
    <glyph glyph-name="uni00B2" unicode="&#xb2;" horiz-adv-x="247" 
d="M15 412v51l18 8t43.5 22.5t49 33.5t34.5 42q16 32 1.5 50.5t-39.5 18.5q-24 0 -38 -17.5t-8 -54.5l-56 8q-8 55 25 85t84 30q35 0 61 -17t35 -45.5t-7 -61.5q-13 -25 -34 -43t-44 -30.5t-41 -19t-24 -7.5h157v-53h-217z" />
    <glyph glyph-name="uni00B3" unicode="&#xb3;" horiz-adv-x="250" 
d="M131 402q-53 0 -84.5 26t-31.5 77l58 9q0 -28 15.5 -44t43.5 -16q21 0 34 11.5t13 28.5q0 19 -14.5 26.5t-34.5 7.5h-27v31h29q17 0 31 6t14 23q0 19 -13.5 30.5t-36.5 11.5q-26 0 -39.5 -16t-13.5 -33l-53 8q0 10 9 32t31.5 40t64.5 18q50 0 77.5 -20.5t27.5 -55.5
q0 -22 -13.5 -40t-40.5 -21q26 -2 42 -20t16 -42q0 -37 -29.5 -57.5t-74.5 -20.5z" />
    <glyph glyph-name="uni2074" unicode="&#x2074;" horiz-adv-x="261" 
d="M152 412v52h-137v52q35 15 58 45t34.5 64.5t11.5 63.5h68q0 -44 -29 -92t-82 -81h76v34h61v-34h33v-52h-33v-52h-61z" />
    <glyph glyph-name="zero.sups" horiz-adv-x="268" 
d="M135 401q-61 0 -90.5 37.5t-29.5 101.5q0 62 28.5 100t91.5 38q61 0 89.5 -37.5t28.5 -100.5q0 -62 -28.5 -100.5t-89.5 -38.5zM134 450q65 0 65 90q0 89 -65 89q-64 0 -64 -89q0 -90 64 -90z" />
    <glyph glyph-name="one.sups" horiz-adv-x="188" 
d="M29 412v53h46v168q-4 -26 -17.5 -39t-26 -17.5t-16.5 -4.5v68q4 -1 19.5 0t30 11.5t16.5 37.5h55v-224h37v-53h-144z" />
    <glyph glyph-name="two.sups" horiz-adv-x="247" 
d="M15 412v51l18 8t43.5 22.5t49 33.5t34.5 42q16 32 1.5 50.5t-39.5 18.5q-24 0 -38 -17.5t-8 -54.5l-56 8q-8 55 25 85t84 30q35 0 61 -17t35 -45.5t-7 -61.5q-13 -25 -34 -43t-44 -30.5t-41 -19t-24 -7.5h157v-53h-217z" />
    <glyph glyph-name="three.sups" horiz-adv-x="250" 
d="M131 402q-53 0 -84.5 26t-31.5 77l58 9q0 -28 15.5 -44t43.5 -16q21 0 34 11.5t13 28.5q0 19 -14.5 26.5t-34.5 7.5h-27v31h29q17 0 31 6t14 23q0 19 -13.5 30.5t-36.5 11.5q-26 0 -39.5 -16t-13.5 -33l-53 8q0 10 9 32t31.5 40t64.5 18q50 0 77.5 -20.5t27.5 -55.5
q0 -22 -13.5 -40t-40.5 -21q26 -2 42 -20t16 -42q0 -37 -29.5 -57.5t-74.5 -20.5z" />
    <glyph glyph-name="four.sups" horiz-adv-x="261" 
d="M152 412v52h-137v52q35 15 58 45t34.5 64.5t11.5 63.5h68q0 -44 -29 -92t-82 -81h76v34h61v-34h33v-52h-33v-52h-61z" />
    <glyph glyph-name="five.sups" horiz-adv-x="249" 
d="M124 402q-53 0 -79 26.5t-30 54.5l61 9q1 -7 12 -23t38 -16q22 0 34 13.5t14 30.5q1 18 -10.5 34t-36.5 16q-23 0 -32 -11.5l-9 -11.5l-64 10l15 145h184v-52h-142l-8 -77l7 9t23 18.5t43 9.5q48 0 70.5 -28.5t19.5 -62.5q-3 -35 -32 -64.5t-78 -29.5z" />
    <glyph glyph-name="six.sups" horiz-adv-x="255" 
d="M130 402q-58 0 -86.5 39.5t-28.5 97.5q0 37 14 69t41.5 51.5t65.5 19.5q32 0 51.5 -9.5t30 -22.5t14 -23l3.5 -10l-60 -10l-8 12t-34 12q-11 0 -26.5 -8.5t-26 -30t-7.5 -62.5q0 3 7.5 15.5t24 24t45.5 10.5q38 0 60 -17.5t27.5 -43.5t-4.5 -52t-36 -44t-67 -18zM135 452
q24 0 36.5 13.5t12.5 31t-11.5 31t-35.5 14.5q-24 0 -40 -16t-16 -38q4 -19 20 -27.5t34 -8.5z" />
    <glyph glyph-name="seven.sups" horiz-adv-x="250" 
d="M105 412h-61q0 85 39 143.5t95 79.5h-163v54h220v-53q-15 -6 -37 -20.5t-43 -40t-35.5 -65.5t-14.5 -98z" />
    <glyph glyph-name="eight.sups" horiz-adv-x="264" 
d="M131 402q-49 0 -82.5 20.5t-33.5 57.5q0 26 18.5 45t50.5 23q-23 4 -34.5 15t-15.5 23.5t-4 20.5q0 32 28 52t73 20q47 0 74.5 -20.5t27.5 -51.5q0 -8 -3.5 -20.5t-15 -23.5t-35.5 -15q33 -4 51.5 -22t18.5 -46q0 -38 -34 -58t-84 -20zM131 562q50 0 50 34q0 19 -14 28
t-36 9t-35 -9t-13 -28q0 -16 13.5 -25t34.5 -9zM132 447q27 0 43 12t16 31q0 23 -16 33.5t-43 10.5t-43 -10.5t-16 -33.5q0 -19 16 -31t43 -12z" />
    <glyph glyph-name="nine.sups" horiz-adv-x="256" 
d="M124 402q-34 0 -55 10t-32 23t-14.5 23l-3.5 10l59 13q0 -1 9 -13t37 -12q12 0 25.5 7.5t23.5 28.5t8 62q0 -2 -7.5 -14.5t-24 -24t-44.5 -11.5q-38 0 -60 17.5t-28 44t4 52.5t36 43.5t67 17.5q43 0 69 -19.5t37 -50.5t11 -67q-1 -37 -12.5 -69t-37 -51.5t-67.5 -19.5z
M119 539q25 0 39.5 15t15.5 38q-4 21 -18.5 30t-31.5 9q-24 0 -36.5 -13.5t-13.5 -32t10 -32.5t35 -14z" />
    <glyph glyph-name="fraction" unicode="&#x2044;" horiz-adv-x="591" 
d="M121 0l-83 58l241 245l192 260l81 -57l-233 -235z" />
    <glyph glyph-name="onehalf" unicode="&#xbd;" horiz-adv-x="759" 
d="M38 292v53h46v168q-4 -26 -17.5 -39t-26 -17.5t-16.5 -4.5v68q4 -1 19.5 0t30 11.5t16.5 37.5h55v-224h37v-53h-144zM186 0l-83 58l241 245l192 260l81 -57l-233 -235zM503 0v51l18 8t43.5 22t49 33.5t34.5 42.5q16 31 1.5 50t-39.5 19q-24 0 -38 -17.5t-8 -55.5l-56 8
q-8 55 25 85.5t84 30.5q35 0 61 -17t35 -45.5t-7 -61.5q-13 -25 -34 -43.5t-44 -30.5t-41 -18.5t-24 -8.5h157v-52h-217z" />
    <glyph glyph-name="onequarter" unicode="&#xbc;" horiz-adv-x="736" 
d="M38 292v53h46v168q-4 -26 -17.5 -39t-26 -17.5t-16.5 -4.5v68q4 -1 19.5 0t30 11.5t16.5 37.5h55v-224h37v-53h-144zM186 0l-83 58l241 245l192 260l81 -57l-233 -235zM466 52v52q35 15 58 45t34.5 64.5t11.5 63.5h68q0 -44 -29 -92t-82 -81h76v34h61v-34h33v-52h-33v-52
h-61v52h-137z" />
    <glyph glyph-name="threequarters" unicode="&#xbe;" horiz-adv-x="736" 
d="M140 296q-53 0 -84.5 25.5t-31.5 77.5l58 9q0 -28 15.5 -44t43.5 -16q21 0 34 11.5t13 28.5q0 18 -14.5 26t-34.5 8h-27v31h29q17 0 31 6t14 23q0 19 -13.5 30t-36.5 11q-26 0 -39.5 -15.5t-13.5 -33.5l-53 9q0 10 9 31.5t31.5 40t64.5 18.5q50 0 77.5 -20.5t27.5 -55.5
q0 -23 -13.5 -41t-40.5 -20q26 -3 42 -20.5t16 -41.5q0 -37 -29.5 -57.5t-74.5 -20.5zM186 0l-83 58l241 245l192 260l81 -57l-233 -235zM466 52v52q35 15 58 45t34.5 64.5t11.5 63.5h68q0 -44 -29 -92t-82 -81h76v34h61v-34h33v-52h-33v-52h-61v52h-137z" />
    <glyph glyph-name="oneeighth" unicode="&#x215b;" horiz-adv-x="738" 
d="M581 -11q-49 0 -82.5 20.5t-33.5 58.5q0 26 18.5 45t50.5 23q-23 3 -34.5 14.5t-15.5 24t-4 19.5q0 33 28 52.5t73 19.5q47 0 74.5 -20t27.5 -52q0 -7 -3.5 -19.5t-15 -24t-35.5 -14.5q33 -5 51.5 -23t18.5 -45q0 -39 -34 -59t-84 -20zM581 150q50 0 50 33q0 20 -14 29
t-36 9t-35 -9.5t-13 -28.5q0 -16 13.5 -24.5t34.5 -8.5zM582 35q27 0 43 11.5t16 31.5q0 23 -16 33.5t-43 10.5t-43 -10.5t-16 -33.5q0 -20 16 -31.5t43 -11.5zM38 292v53h46v168q-4 -26 -17.5 -39t-26 -17.5t-16.5 -4.5v68q4 -1 19.5 0t30 11.5t16.5 37.5h55v-224h37v-53
h-144zM186 0l-83 58l241 245l192 260l81 -57l-233 -235z" />
    <glyph glyph-name="threeeighths" unicode="&#x215c;" horiz-adv-x="741" 
d="M140 296q-53 0 -84.5 25.5t-31.5 77.5l58 9q0 -28 15.5 -44t43.5 -16q21 0 34 11.5t13 28.5q0 18 -14.5 26t-34.5 8h-27v31h29q17 0 31 6t14 23q0 19 -13.5 30t-36.5 11q-26 0 -39.5 -15.5t-13.5 -33.5l-53 9q0 10 9 31.5t31.5 40t64.5 18.5q50 0 77.5 -20.5t27.5 -55.5
q0 -23 -13.5 -41t-40.5 -20q26 -3 42 -20.5t16 -41.5q0 -37 -29.5 -57.5t-74.5 -20.5zM186 0l-83 58l241 245l192 260l81 -57l-233 -235zM584 -11q-49 0 -82.5 20.5t-33.5 58.5q0 26 18.5 45t50.5 23q-23 3 -34.5 14.5t-15.5 24t-4 19.5q0 33 28 52.5t73 19.5q47 0 74.5 -20
t27.5 -52q0 -7 -3.5 -19.5t-15 -24t-35.5 -14.5q33 -5 51.5 -23t18.5 -45q0 -39 -34 -59t-84 -20zM584 150q50 0 50 33q0 20 -14 29t-36 9t-35 -9.5t-13 -28.5q0 -16 13.5 -24.5t34.5 -8.5zM585 35q27 0 43 11.5t16 31.5q0 23 -16 33.5t-43 10.5t-43 -10.5t-16 -33.5
q0 -20 16 -31.5t43 -11.5z" />
    <glyph glyph-name="fiveeighths" unicode="&#x215d;" horiz-adv-x="764" 
d="M133 286q-53 0 -79 26.5t-30 54.5l61 9q1 -8 12 -23.5t38 -15.5q22 0 34 13.5t14 30.5q1 18 -10.5 34t-36.5 16q-23 0 -32 -11.5t-9 -12.5l-64 10l15 146h184v-52h-142l-8 -78l7 9.5t23 19t43 9.5q48 0 70.5 -28.5t19.5 -62.5q-3 -35 -32 -64.5t-78 -29.5zM209 0l-83 58
l241 245l192 260l81 -57l-233 -235zM607 -11q-49 0 -82.5 20.5t-33.5 58.5q0 26 18.5 45t50.5 23q-23 3 -34.5 14.5t-15.5 24t-4 19.5q0 33 28 52.5t73 19.5q47 0 74.5 -20t27.5 -52q0 -7 -3.5 -19.5t-15 -24t-35.5 -14.5q33 -5 51.5 -23t18.5 -45q0 -39 -34 -59t-84 -20z
M607 150q50 0 50 33q0 20 -14 29t-36 9t-35 -9.5t-13 -28.5q0 -16 13.5 -24.5t34.5 -8.5zM608 35q27 0 43 11.5t16 31.5q0 23 -16 33.5t-43 10.5t-43 -10.5t-16 -33.5q0 -20 16 -31.5t43 -11.5z" />
    <glyph glyph-name="seveneighths" unicode="&#x215e;" horiz-adv-x="716" 
d="M114 285h-61q0 85 39 143.5t95 79.5h-163v54h220v-53q-15 -6 -37 -20.5t-43 -40t-35.5 -65.5t-14.5 -98zM161 0l-83 58l241 245l192 260l81 -57l-233 -235zM559 -11q-49 0 -82.5 20.5t-33.5 58.5q0 26 18.5 45t50.5 23q-23 3 -34.5 14.5t-15.5 24t-4 19.5q0 33 28 52.5
t73 19.5q47 0 74.5 -20t27.5 -52q0 -7 -3.5 -19.5t-15 -24t-35.5 -14.5q33 -5 51.5 -23t18.5 -45q0 -39 -34 -59t-84 -20zM559 150q50 0 50 33q0 20 -14 29t-36 9t-35 -9.5t-13 -28.5q0 -16 13.5 -24.5t34.5 -8.5zM560 35q27 0 43 11.5t16 31.5q0 23 -16 33.5t-43 10.5
t-43 -10.5t-16 -33.5q0 -20 16 -31.5t43 -11.5z" />
    <glyph glyph-name="period" unicode="." horiz-adv-x="228" 
d="M105 0q-42 0 -56 20.5t-14 49.5q0 27 14.5 47t55.5 20q40 0 54 -20t14 -47q0 -30 -14 -50t-54 -20z" />
    <glyph glyph-name="comma" unicode="," horiz-adv-x="245" 
d="M58 -109v76h27q27 0 38 6.5t11 26.5q-42 -1 -58.5 18t-16.5 46t14.5 45.5t51.5 18.5q27 0 44.5 -17t17.5 -70q0 -40 -10 -74t-32.5 -55t-58.5 -21h-28z" />
    <glyph glyph-name="colon" unicode=":" horiz-adv-x="248" 
d="M125 251q-41 0 -55.5 20t-14.5 49q0 28 14.5 48t55.5 20q40 0 54 -20.5t14 -47.5q0 -29 -14 -49t-54 -20zM125 25q-42 0 -56 20.5t-14 49.5q0 28 14 47.5t56 19.5q40 0 54 -19.5t14 -47.5q0 -29 -14 -49.5t-54 -20.5z" />
    <glyph glyph-name="semicolon" unicode=";" horiz-adv-x="256" 
d="M135 278q-42 0 -56 20t-14 49q0 28 14 48t56 20q39 0 53.5 -20t14.5 -48q0 -29 -14.5 -49t-53.5 -20zM70 -109v76h28q26 0 37.5 6.5t11.5 26.5q-43 -1 -59.5 18t-16.5 46t15 45.5t51 18.5q28 0 45.5 -17t17.5 -70q0 -40 -10.5 -74t-32.5 -55t-59 -21h-28z" />
    <glyph glyph-name="ellipsis" unicode="&#x2026;" horiz-adv-x="683" 
d="M123 0q-42 0 -56 20.5t-14 49.5q0 27 14.5 47t55.5 20q40 0 54 -20t14 -47q0 -30 -14 -50t-54 -20zM342 0q-42 0 -56 20.5t-14 49.5q0 27 14 47t56 20q40 0 53.5 -20t13.5 -47q0 -29 -13.5 -49.5t-53.5 -20.5zM560 0q-41 0 -55.5 20t-14.5 50q0 27 14.5 47t55.5 20
q40 0 54 -20t14 -47q0 -30 -14 -50t-54 -20z" />
    <glyph glyph-name="exclam" unicode="!" horiz-adv-x="238" 
d="M86 180q-10 81 -21 150.5t-13 122t14 81.5t60 29t60 -29.5t14 -82t-13 -122t-21 -149.5l-10.5 2.5t-29.5 2.5q-14 0 -27 -2.5zM128 -9q-42 0 -56 20.5t-14 48.5t14 48t56 20q39 0 53.5 -20t14.5 -48q0 -29 -14.5 -49t-53.5 -20z" />
    <glyph glyph-name="exclamdown" unicode="&#xa1;" horiz-adv-x="216" 
d="M106 373q37 0 50.5 -19t13.5 -47q0 -26 -13.5 -44.5t-50.5 -18.5q-39 0 -52.5 18.5t-13.5 44.5q0 28 13 47t53 19zM61 182l13 -3t31 -3q23 0 33 3l10 3q10 -103 18.5 -175.5t8 -117.5t-16 -66.5t-54.5 -21.5q-38 0 -53.5 21t-15.5 66t8 117.5t18 176.5z" />
    <glyph glyph-name="question" unicode="?" horiz-adv-x="454" 
d="M273 181h-110q1 31 21.5 59.5t48 55.5t49.5 53.5t24 54.5q2 27 -14.5 45t-51.5 18q-29 0 -44.5 -11t-21.5 -27.5t-7 -33t-1 -25.5h-113q-8 33 -2.5 68t26.5 65.5t59 49.5t96 19q56 0 100 -19t69.5 -53t25.5 -79q0 -37 -15.5 -64.5t-38.5 -49.5t-46 -41.5t-38.5 -40
t-15.5 -44.5zM217 -9q-41 0 -55.5 20.5t-14.5 48.5t14.5 48t55.5 20q40 0 54 -20t14 -48q0 -30 -14 -49.5t-54 -19.5z" />
    <glyph glyph-name="questiondown" unicode="&#xbf;" horiz-adv-x="448" 
d="M252 382q41 0 55.5 -20.5t14.5 -48.5t-14.5 -48t-55.5 -20q-40 0 -54 20t-14 48q0 29 14 49t54 20zM196 192h110q-1 -32 -21.5 -60.5t-48 -55t-49.5 -53.5t-24 -54q-2 -28 14.5 -46t51.5 -18q29 0 44.5 11.5t21.5 28t7 32.5t1 26h114q7 -33 1.5 -68.5t-26.5 -65.5
t-59 -49t-96 -19q-56 0 -100 19t-69.5 53t-25.5 79q0 37 15.5 64.5t38.5 49.5t46 41.5t38.5 39.5t15.5 45z" />
    <glyph glyph-name="periodcentered" unicode="&#xb7;" horiz-adv-x="263" 
d="M127 187q-49 0 -65.5 24.5t-16.5 57.5q0 32 16.5 56.5t65.5 24.5t65 -24.5t16 -56.5q0 -33 -16 -57.5t-65 -24.5z" />
    <glyph glyph-name="bullet" unicode="&#x2022;" horiz-adv-x="281" 
d="M127 187q-49 0 -65.5 24.5t-16.5 57.5q0 32 16.5 56.5t65.5 24.5t65 -24.5t16 -56.5q0 -33 -16 -57.5t-65 -24.5z" />
    <glyph glyph-name="asterisk" unicode="*" horiz-adv-x="385" 
d="M356 406l-120 -11l91 -79l-88 -64l-46 111l-48 -111l-87 64l92 79l-121 11l34 101l103 -62l-27 118h108l-28 -118l103 62z" />
    <glyph glyph-name="numbersign" unicode="#" horiz-adv-x="689" 
d="M64 0l53 129h-98v104h141l37 87h-123v104h156l45 139h113l-59 -139h102l45 139h113l-58 -139h96v-104h-139l-36 -87h123v-104h-156l-41 -129h-113l53 129h-102l-41 -129h-111zM250 234l-1 -1h113l36 87h-112z" />
    <glyph glyph-name="slash" unicode="/" horiz-adv-x="402" 
d="M25 0l254 563h113l-254 -563h-113z" />
    <glyph glyph-name="backslash" unicode="\" horiz-adv-x="382" 
d="M237 0l-254 563h113l254 -563h-113z" />
    <glyph glyph-name="periodcentered.case" horiz-adv-x="263" 
d="M127 221q-49 0 -65.5 24.5t-16.5 57.5q0 32 16.5 56.5t65.5 24.5t65 -24.5t16 -56.5q0 -33 -16 -57.5t-65 -24.5z" />
    <glyph glyph-name="bullet.case" horiz-adv-x="281" 
d="M127 221q-49 0 -65.5 24.5t-16.5 57.5q0 32 16.5 56.5t65.5 24.5t65 -24.5t16 -56.5q0 -33 -16 -57.5t-65 -24.5z" />
    <glyph glyph-name="parenleft" unicode="(" horiz-adv-x="345" 
d="M233 -199l-19.5 16t-48 47.5t-57 79.5t-48 112t-19.5 144t19.5 144.5t48 113t57 81t48 48.5l19.5 16l95 -94q-4 -3 -26 -16t-52.5 -37t-60 -60.5t-49.5 -85t-20 -110.5q0 -64 21 -113t52 -85t62 -59.5t52 -34.5l21 -11z" />
    <glyph glyph-name="parenright" unicode=")" horiz-adv-x="335" 
d="M102 -199l-94 96q-1 0 20 11t52 34.5t62 59.5t52 85t21 113q0 62 -20 110.5t-49.5 85t-60 60.5t-52.5 37t-25 16l94 94l19.5 -16t48 -48.5t57 -81t48 -113t19.5 -144.5t-19.5 -144t-48 -112t-57 -79.5t-48 -47.5z" />
    <glyph glyph-name="braceleft" unicode="{" horiz-adv-x="368" 
d="M340 -196q-109 -23 -164.5 -3.5t-69 79.5t3.5 158q6 40 -1 62.5t-21 32t-30 11.5t-27 2v116q11 0 27 2t30 11.5t21 32t1 62.5q-17 98 -3.5 155.5t69 76t164.5 1.5v-112q-55 12 -81 6t-33 -24.5t-4 -45t8 -55.5q11 -72 -9.5 -115t-98.5 -54q78 -11 99 -53t9 -114
q-5 -29 -8 -56t4 -45.5t33 -24.5t81 6v-112z" />
    <glyph glyph-name="braceright" unicode="}" horiz-adv-x="379" 
d="M39 -196v112q55 -12 81 -6t33 24.5t3.5 45.5t-7.5 56q-12 72 9 114t99 53q-78 11 -98.5 54t-9.5 115q4 29 7.5 55.5t-3.5 45t-33 24.5t-81 -6v112q92 6 144 -2t74.5 -34.5t23 -74.5t-11.5 -122q-6 -40 1 -62.5t21 -32t30 -11.5t27 -2v-116q-11 0 -27 -2t-30 -11.5
t-21 -32t-1 -62.5q13 -74 12.5 -122.5t-23 -75t-75 -34.5t-144.5 -2z" />
    <glyph glyph-name="bracketleft" unicode="[" horiz-adv-x="307" 
d="M289 -199h-254v802h254v-112h-134v-577l134 -1v-112z" />
    <glyph glyph-name="bracketright" unicode="]" horiz-adv-x="311" 
d="M35 -199v112l135 1v577h-133v112h254v-802h-256z" />
    <glyph glyph-name="parenleft.case" horiz-adv-x="345" 
d="M233 -141l-19.5 16t-48 48t-57 79.5t-48 111.5t-19.5 144q0 81 19.5 145t48 112.5t57 81t48 48.5l19.5 16l95 -93q-4 -3 -26 -16.5t-52.5 -37.5t-60 -60t-49.5 -85t-20 -111q0 -63 21 -112.5t52 -85.5t62 -59t52 -34.5l21 -11.5z" />
    <glyph glyph-name="parenright.case" horiz-adv-x="335" 
d="M102 -141l-94 96q-1 0 20 11.5t52 34.5t62 59t52 85.5t21 112.5q0 62 -20 111t-49.5 85t-60 60t-52.5 37.5t-25 16.5l94 93l19.5 -16t48 -48.5t57 -81t48 -112.5t19.5 -145q0 -80 -19.5 -144t-48 -111.5t-57 -79.5t-48 -48z" />
    <glyph glyph-name="braceleft.case" horiz-adv-x="368" 
d="M340 -138q-109 -22 -164.5 -3t-69 79t3.5 158q6 41 -1 63t-21 31.5t-30 11.5t-27 2v117q11 0 27 1.5t30 11.5t21 32t1 62q-17 99 -3.5 156t69 76t164.5 1v-112q-55 12 -81 6.5t-33 -24t-4 -45.5t8 -56q11 -72 -9.5 -115t-98.5 -54q78 -11 99 -53t9 -114q-5 -29 -8 -55.5
t4 -45.5t33 -24.5t81 6.5v-113z" />
    <glyph glyph-name="braceright.case" horiz-adv-x="379" 
d="M39 -138v113q55 -12 81 -6.5t33 24.5t3.5 45.5t-7.5 55.5q-12 72 9 114t99 53q-78 11 -98.5 54t-9.5 115q4 29 7.5 56t-3.5 45.5t-33 24t-81 -6.5v112q92 7 144 -1.5t74.5 -34.5t23 -74.5t-11.5 -122.5q-6 -40 1 -62t21 -32t30 -11.5t27 -1.5v-117q-11 0 -27 -2
t-30 -11.5t-21 -31.5t-1 -63q13 -74 12.5 -122t-23 -75t-75 -35t-144.5 -2z" />
    <glyph glyph-name="bracketleft.case" horiz-adv-x="307" 
d="M35 -141v802h254v-112h-134v-576l134 -1v-113h-254z" />
    <glyph glyph-name="bracketright.case" horiz-adv-x="311" 
d="M35 -141v113l135 1v576h-133v112h254v-802h-256z" />
    <glyph glyph-name="hyphen" unicode="-" horiz-adv-x="317" 
d="M40 184v82h222v-82h-222z" />
    <glyph glyph-name="uni00AD" unicode="&#xad;" horiz-adv-x="280" 
d="M29 184v82h222v-82h-222z" />
    <glyph glyph-name="endash" unicode="&#x2013;" horiz-adv-x="430" 
d="M40 184v82h335v-82h-335z" />
    <glyph glyph-name="emdash" unicode="&#x2014;" horiz-adv-x="597" 
d="M40 184v82h502v-82h-502z" />
    <glyph glyph-name="underscore" unicode="_" horiz-adv-x="594" 
d="M37 0v83h502v-83h-502z" />
    <glyph glyph-name="hyphen.case" horiz-adv-x="317" 
d="M40 229v83h222v-83h-222z" />
    <glyph glyph-name="endash.case" horiz-adv-x="430" 
d="M40 229v83h335v-83h-335z" />
    <glyph glyph-name="emdash.case" horiz-adv-x="597" 
d="M40 229v83h502v-83h-502z" />
    <glyph glyph-name="quotesinglbase" unicode="&#x201a;" horiz-adv-x="246" 
d="M49 -98v100q39 0 60.5 12.5t31.5 29.5h-3q-37 0 -52 19t-15 45q0 27 14.5 45.5t49.5 18.5t50 -18t15 -45v0v-1v-1v-1q0 -10 -2.5 -34t-10.5 -52.5t-24 -55.5t-44 -44.5t-70 -17.5z" />
    <glyph glyph-name="quotedblbase" unicode="&#x201e;" horiz-adv-x="396" 
d="M33 -98l-1 100q40 0 61 12.5t31 29.5h-3q-37 0 -52 19t-15 45q0 27 15 45.5t50 18.5t49.5 -18t14.5 -45v0v-1v-1v-1q0 -10 -2.5 -34t-10 -52.5t-24 -55.5t-44 -44.5t-69.5 -17.5zM210 -98v100q39 0 60.5 12.5t31.5 29.5h-3q-37 0 -52 19t-15 45q0 27 14.5 45.5t50.5 18.5
q35 0 49.5 -18t14.5 -45v0v-1v-1v-1q0 -10 -2.5 -34t-10.5 -52.5t-24 -55.5t-43.5 -44.5t-70.5 -17.5z" />
    <glyph glyph-name="quotedblleft" unicode="&#x201c;" horiz-adv-x="429" 
d="M49 293v100q39 0 60.5 12.5t31.5 29.5h-3q-37 0 -52 18.5t-15 45.5t14.5 45.5t49.5 18.5t50 -18t15 -45v0v-2v0q0 -2 0 -1q0 -11 -2.5 -34.5t-10.5 -52.5t-24 -55.5t-44 -44t-70 -17.5zM227 293v100q39 0 60.5 12.5t30.5 29.5h-2q-37 0 -52 18.5t-15 45.5t14.5 45.5
t49.5 18.5t49.5 -18t14.5 -45h1l-1 -2h1q0 -2 -1 -1q0 -11 -2 -34.5t-10 -52.5t-24 -55.5t-44 -44t-70 -17.5z" />
    <glyph glyph-name="quotedblright" unicode="&#x201d;" horiz-adv-x="429" 
d="M291 293q-35 0 -49.5 18t-14.5 45v0v2v0v1q0 10 2.5 34t10 53t24 55.5t44 44t70.5 17.5v-100q-40 0 -61 -12.5t-31 -29.5h3q37 0 52 -19t15 -45q0 -27 -15 -45.5t-50 -18.5zM114 293q-36 0 -50.5 18t-14.5 45v0v2v0v1q0 10 2.5 34t10.5 53t24 55.5t43.5 44t70.5 17.5
v-100q-39 0 -60.5 -12.5t-31.5 -29.5h3q37 0 52 -19t15 -45q0 -27 -14.5 -45.5t-49.5 -18.5z" />
    <glyph glyph-name="quoteleft" unicode="&#x2018;" horiz-adv-x="260" 
d="M114 293q-36 0 -50.5 18t-14.5 45v0v2v0v1q0 10 2.5 34t10.5 53t24 55.5t43.5 44t70.5 17.5v-100q-39 0 -60.5 -12.5t-31.5 -29.5h3q37 0 52 -19t15 -45q0 -27 -14.5 -45.5t-49.5 -18.5z" />
    <glyph glyph-name="quoteright" unicode="&#x2019;" horiz-adv-x="241" 
d="M40 293v100q39 0 60.5 12.5t30.5 29.5h-2q-37 0 -52 18.5t-15 45.5t14.5 45.5t49.5 18.5t49.5 -18t14.5 -45h1l-1 -2v0q0 -2 0 -1q0 -11 -2 -34.5t-10 -52.5t-24 -55.5t-44 -44t-70 -17.5z" />
    <glyph glyph-name="guillemotleft" unicode="&#xab;" horiz-adv-x="577" 
d="M331 536v-84l-208 -157l208 -165v-79l-305 244zM514 536v-92l-207 -149l207 -157v-87l-305 244z" />
    <glyph glyph-name="guillemotright" unicode="&#xbb;" horiz-adv-x="518" 
d="M198 536l305 -241l-305 -244v79l208 165l-208 157v84zM15 536l305 -241l-305 -244v87l208 157l-208 149v92z" />
    <glyph glyph-name="guilsinglleft" unicode="&#x2039;" horiz-adv-x="417" 
d="M377 416v-93l-251 -87l251 -87v-95l-337 182z" />
    <glyph glyph-name="guilsinglright" unicode="&#x203a;" horiz-adv-x="426" 
d="M44 416l337 -180l-337 -182v95l251 87l-251 87v93z" />
    <glyph glyph-name="quotedbl" unicode="&#x22;" horiz-adv-x="382" 
d="M39 326v76h28q26 0 37.5 6.5t11.5 26.5q-43 -1 -59.5 18t-16.5 46t14.5 45.5t51.5 18.5q28 0 45.5 -17t17.5 -70q0 -40 -10.5 -74t-32.5 -55t-59 -21h-28zM222 326v76h28q26 0 37.5 6.5t11.5 26.5q-43 -1 -59.5 18t-16.5 46t14.5 45.5t51.5 18.5q28 0 45.5 -17t17.5 -70
q0 -40 -10.5 -74t-32.5 -55t-59 -21h-28z" />
    <glyph glyph-name="quotesingle" unicode="'" horiz-adv-x="237" 
d="M64 326v76h28q26 0 37.5 6.5t11.5 26.5q-43 -1 -59.5 18t-16.5 46t14.5 45.5t51.5 18.5q28 0 45.5 -17t17.5 -70q0 -40 -10.5 -74t-32.5 -55t-59 -21h-28z" />
    <glyph glyph-name="hyphen_greater.dlig" horiz-adv-x="531" 
d="M35 183v93h298q-18 35 -21 65.5t-3 31.5h73q0 -2 2 -17t12.5 -33.5t34 -32.5t65.5 -14v-93q-42 0 -65.5 -14t-34 -33t-12.5 -34t-2 -16h-73l1 14.5t6 36.5t17 46h-298z" />
    <glyph glyph-name="parenleft_greater.dlig" horiz-adv-x="657" 
d="M329 -16q-61 0 -114.5 23t-93.5 63t-63 93.5t-23 114.5q0 60 23 113t63 93.5t93.5 63.5t114.5 23q60 0 113 -23t93.5 -63.5t63.5 -93.5t23 -113q0 -61 -23 -114.5t-63.5 -93.5t-93.5 -63t-113 -23zM329 42q65 0 118.5 32t85.5 85.5t32 117.5q0 65 -32 119t-85.5 86
t-118.5 32t-118.5 -32t-85.5 -86t-32 -119q0 -64 32 -117.5t85.5 -85.5t118.5 -32zM257 141v268l202 -130zM311 235l65 43l-65 41v-84z" />
    <glyph glyph-name="colon_parenleft.dlig" horiz-adv-x="657" 
d="M329 -14q-61 0 -114.5 23t-93.5 63t-63 93.5t-23 114.5q0 60 23 113t63 93.5t93.5 63.5t114.5 23q60 0 113 -23t93.5 -63.5t63.5 -93.5t23 -113q0 -61 -23 -114.5t-63.5 -93.5t-93.5 -63t-113 -23zM329 44q65 0 118.5 32t85.5 85.5t32 117.5q0 65 -32 118.5t-85.5 85.5
t-118.5 32t-118.5 -32t-85.5 -85.5t-32 -118.5q0 -64 32 -117.5t85.5 -85.5t118.5 -32zM189 294v99h71v-99h-71zM399 294v99h71v-99h-71zM177 127q4 65 45 106t108 41q66 0 107.5 -42.5t45.5 -104.5h-75q0 4 -2 18t-9.5 31t-23 29.5t-43.5 12.5q-30 0 -46 -12.5t-23 -29.5
t-8 -31t-1 -18h-75z" />
    <glyph glyph-name="colon_parenright.dlig" horiz-adv-x="657" 
d="M329 -14q-61 0 -114.5 23t-93.5 63t-63 93.5t-23 114.5q0 60 23 113t63 93.5t93.5 63.5t114.5 23q60 0 113 -23t93.5 -63.5t63.5 -93.5t23 -113q0 -61 -23 -114.5t-63.5 -93.5t-93.5 -63t-113 -23zM329 44q65 0 118.5 32t85.5 85.5t32 117.5q0 65 -32 118.5t-85.5 85.5
t-118.5 32t-118.5 -32t-85.5 -85.5t-32 -118.5q0 -64 32 -117.5t85.5 -85.5t118.5 -32zM189 294v99h71v-99h-71zM399 294v99h71v-99h-71zM330 105q-47 0 -81.5 21t-54.5 57t-23 81h75q0 -1 1 -16.5t8 -35.5t24.5 -35.5t50.5 -15.5q35 0 52.5 15.5t24 36t7 36l0.5 15.5h75
q-4 -70 -46 -114.5t-113 -44.5z" />
    <glyph glyph-name="space" unicode=" " horiz-adv-x="209" 
 />
    <glyph glyph-name="uni00A0" unicode="&#xa0;" horiz-adv-x="209" 
 />
    <glyph glyph-name="CR" unicode="&#xd;" horiz-adv-x="600" 
 />
    <glyph glyph-name="cent" unicode="&#xa2;" horiz-adv-x="472" 
d="M175 -103l7 98q-69 14 -114.5 65t-45.5 139q2 85 46 139.5t114 69.5l-7 99h121l-7 -98q71 -13 107 -58t44 -98l-110 -20q-9 40 -28.5 59t-65.5 19q-50 0 -73 -28.5t-23 -73.5q0 -53 22.5 -84t74.5 -31q40 0 62.5 20.5t30.5 61.5l110 -19q-8 -56 -44.5 -102t-107.5 -60
l8 -98h-121z" />
    <glyph glyph-name="currency" unicode="&#xa4;" horiz-adv-x="583" 
d="M460 7h-34l-41 59q-38 -27 -93 -27q-57 0 -96 28l-42 -60h-31l54 77q-41 46 -41 126q0 90 50 135l-47 65h34l35 -50q34 20 84 20q48 0 82 -19l34 49h35l-47 -65q51 -46 51 -135q0 -79 -41 -126zM292 60q25 0 45 6.5t36 16.5q4 3 7 6l6 6q-10 -9 -10 -9.5t4 3.5l8.5 8.5
l4.5 4.5q32 40 32 108q0 79 -41 118q-8 8 -22 15q-31 16 -70 16q-42 0 -72 -16q-1 0 -11 -7.5t-10 -8.5q-41 -38 -41 -117q0 -33 12.5 -67.5t38.5 -58.5q16 -11 36.5 -17.5t46.5 -6.5z" />
    <glyph glyph-name="dollar" unicode="$" horiz-adv-x="561" 
d="M236 -108l7 101q-46 6 -88.5 29t-72 64t-37.5 103l119 20q0 -2 3 -19.5t15 -39t38 -38t71 -16.5q39 0 67 16t29 43q0 24 -18.5 38.5t-48.5 24t-65.5 18t-71 20.5t-64.5 31.5t-45 51.5t-13 81q3 61 49 101t133 50l-7 100h121l-8 -104q69 -13 116 -61t47 -130l-114 -18
q0 38 -15 59t-37.5 31t-43.5 12t-32 2q-29 0 -55.5 -13.5t-28.5 -43.5q0 -26 18.5 -41t49.5 -24.5t67.5 -17t72.5 -19t65.5 -30.5t46 -50.5t13.5 -80.5q-4 -60 -53 -97.5t-117 -49.5l8 -103h-121z" />
    <glyph glyph-name="Euro" unicode="&#x20ac;" horiz-adv-x="645" 
d="M38 205v66h52l-1 7q1 9 1 18l-52 1l54 59h6q22 104 92 160.5t164 56.5q77 0 129.5 -29.5t81.5 -78.5t38 -107l-121 -21q-12 60 -39 92.5t-89 31.5q-53 1 -85 -28.5t-45 -78.5l182 -2l-64 -62l-127 3v-11v-11h173l-15 -66h-150q13 -49 44.5 -74.5t85.5 -25.5
q107 0 128 127l124 -21q-9 -60 -39 -110.5t-83.5 -80.5t-131.5 -30q-63 0 -116 24t-89.5 72t-49.5 119h-58z" />
    <glyph glyph-name="sterling" unicode="&#xa3;" horiz-adv-x="694" 
d="M127 -14l-55 90q21 15 41.5 34.5t33 45t10.5 57.5h-108v87h77q-22 51 -19.5 99.5t28 88t73.5 62.5t116 23q80 0 128 -27.5t70.5 -73t25.5 -99.5l-114 -17q-14 65 -52 92t-84 23q-33 -3 -56.5 -23.5t-27 -57.5t21.5 -90h175v-88l-145 1q5 -43 -14.5 -70t-42.5 -49
q31 17 60.5 17.5t56.5 -6.5t50.5 -15t44 -10.5t37.5 9.5q19 13 21.5 37t-7.5 50l117 19q22 -94 -9 -144.5t-102 -53.5q-39 -7 -73 -2t-65.5 13.5t-63.5 13t-67 -1.5t-76 -30q-1 -1 -2.5 -2t-3.5 -2z" />
    <glyph glyph-name="yen" unicode="&#xa5;" horiz-adv-x="550" 
d="M98 83v66h118v45l-118 -1v66h85l-159 304h136l118 -263l119 263h135l-163 -304h89v-63l-122 -1v-46h122v-66h-122v-83h-120v83h-118z" />
    <glyph glyph-name="uni2215" unicode="&#x2215;" horiz-adv-x="402" 
d="M25 0l254 563h113l-254 -563h-113z" />
    <glyph glyph-name="plus" unicode="+" horiz-adv-x="372" 
d="M145 79v104h-106v83h106v106h83v-106h105v-83h-105v-104h-83z" />
    <glyph glyph-name="minus" unicode="&#x2212;" horiz-adv-x="317" 
d="M40 184v82h222v-82h-222z" />
    <glyph glyph-name="multiply" unicode="&#xd7;" horiz-adv-x="323" 
d="M288 287l-71 -72l71 -71l-54 -55l-72 72l-72 -73l-55 56l72 71l-72 73l55 54l72 -71l71 71z" />
    <glyph glyph-name="divide" unicode="&#xf7;" horiz-adv-x="317" 
d="M150 302q-21 0 -31.5 12t-10.5 30t10.5 30t31.5 12t32 -11.5t11 -30.5q0 -18 -10.5 -30t-32.5 -12zM40 184v82h222v-82h-222zM150 61q-21 0 -31.5 12t-10.5 30t10.5 30t31.5 12t32 -11.5t11 -30.5q0 -18 -10.5 -30t-32.5 -12z" />
    <glyph glyph-name="equal" unicode="=" horiz-adv-x="430" 
d="M40 258v79h335v-79h-335zM40 109v79h335v-79h-335z" />
    <glyph glyph-name="notequal" unicode="&#x2260;" horiz-adv-x="414" 
d="M58 25l38 84h-56v79h91l15 34h-106v79h142l39 87h113l-39 -87h64v-79h-99l-16 -34h115v-79h-150l-38 -84h-113z" />
    <glyph glyph-name="greater" unicode="&#x3e;" horiz-adv-x="426" 
d="M44 416l337 -180l-337 -182v95l251 87l-251 87v93z" />
    <glyph glyph-name="less" unicode="&#x3c;" horiz-adv-x="434" 
d="M381 416v-93l-250 -87l250 -87v-95l-337 182z" />
    <glyph glyph-name="plusminus" unicode="&#xb1;" horiz-adv-x="317" 
d="M120 151v76h-80v67h80v74h68v-74h74v-67h-74v-76h-68zM40 39v68h222v-68h-222z" />
    <glyph glyph-name="asciitilde" unicode="~" horiz-adv-x="372" 
d="M244 198q-27 0 -42.5 9.5t-25 21.5t-18.5 21t-23 9q-16 0 -19.5 -14.5t-2.5 -40.5h-70q0 13 1 33.5t8 41t24.5 35t51.5 14.5q27 0 43 -9t25.5 -21t18.5 -21t23 -9q16 0 19 15t3 40h69q0 -18 -2 -39.5t-9.5 -41t-25 -32t-48.5 -12.5z" />
    <glyph glyph-name="logicalnot" unicode="&#xac;" horiz-adv-x="317" 
d="M40 186v76h222v-156h-77v80h-145z" />
    <glyph glyph-name="asciicircum" unicode="^" horiz-adv-x="461" 
d="M29 320v29l201 213l202 -213v-29h-112l-89 150h-2l-87 -150h-113z" />
    <glyph glyph-name="uni00B5" unicode="&#xb5;" horiz-adv-x="572" 
d="M84 -157v569h118v-210q0 -26 4.5 -50.5t21.5 -40t54 -15.5q35 0 52 16t22.5 40t6.5 49v211h123v-412h-104l-12 43h-3q-12 -20 -27.5 -37t-54.5 -17q-33 0 -51 10.5t-29 26.5h-3v-183h-118z" />
    <glyph glyph-name="percent" unicode="%" horiz-adv-x="626" 
d="M139 336q-59 0 -85.5 32t-26.5 85q0 55 26 87.5t86 32.5q58 0 86 -32.5t28 -87.5q0 -51 -28 -84t-86 -33zM141 0l-83 58l241 245l191 260l82 -57l-234 -235zM137 412q22 0 31 12.5t9 31.5t-9 32t-31 13q-21 0 -30 -13t-9 -32t9 -31.5t30 -12.5zM486 -10q-58 0 -84.5 32.5
t-26.5 87.5q0 52 26 84.5t85 32.5t86 -32.5t27 -84.5q0 -53 -27 -86.5t-86 -33.5zM484 66q22 0 31.5 12.5t9.5 31.5t-9.5 32.5t-31.5 13.5q-20 0 -29.5 -13.5t-9.5 -32.5t9.5 -31.5t29.5 -12.5z" />
    <glyph glyph-name="perthousand" unicode="&#x2030;" horiz-adv-x="818" 
d="M139 336q-59 0 -85.5 32t-26.5 85q0 55 26 87.5t86 32.5q58 0 86 -32.5t28 -87.5q0 -51 -28 -84t-86 -33zM141 0l-83 58l241 245l191 260l82 -57l-234 -235zM137 412q22 0 31 12.5t9 31.5t-9 32t-31 13q-21 0 -30 -13t-9 -32t9 -31.5t30 -12.5zM486 -10q-58 0 -84.5 32.5
t-26.5 87.5q0 52 26 84.5t85 32.5t86 -32.5t27 -84.5q0 -53 -27 -86.5t-86 -33.5zM753 -10q-58 0 -84.5 32.5t-26.5 87.5q0 52 26.5 84.5t84.5 32.5q59 0 86.5 -32.5t27.5 -84.5q0 -53 -27.5 -86.5t-86.5 -33.5zM484 66q22 0 31.5 12.5t9.5 31.5t-9.5 32.5t-31.5 13.5
q-20 0 -29.5 -13.5t-9.5 -32.5t9.5 -31.5t29.5 -12.5zM752 66q22 0 31 12.5t9 31.5t-9 32.5t-31 13.5q-21 0 -30 -13.5t-9 -32.5t9 -31.5t30 -12.5z" />
    <glyph glyph-name="plus.case" horiz-adv-x="372" 
d="M145 133v105h-106v82h106v106h83v-106h105v-82h-105v-105h-83z" />
    <glyph glyph-name="minus.case" horiz-adv-x="317" 
d="M40 238v82h222v-82h-222z" />
    <glyph glyph-name="equal.case" horiz-adv-x="430" 
d="M40 317v79h335v-79h-335zM40 168v79h335v-79h-335z" />
    <glyph glyph-name="notequal.case" horiz-adv-x="414" 
d="M58 100l38 85h-56v79h91l15 34h-106v79h142l39 87h113l-39 -87h64v-79h-99l-16 -34h115v-79h-150l-38 -85h-113z" />
    <glyph glyph-name="greater.case" horiz-adv-x="426" 
d="M44 462l337 -181l-337 -181v95l251 86l-251 88v93z" />
    <glyph glyph-name="less.case" horiz-adv-x="434" 
d="M381 462v-93l-250 -88l250 -86v-95l-337 181z" />
    <glyph glyph-name="asciitilde.case" horiz-adv-x="455" 
d="M217 272q-12 15 -23 25t-27 10q-23 0 -19.5 -31.5t34.5 -79.5h-113q-16 22 -21.5 52.5t1 59t27.5 47.5t60 19q24 0 41.5 -12t32 -30t27.5 -34q12 -15 23.5 -25.5t27.5 -10.5q22 0 19.5 31t-33.5 80h113q15 -23 20.5 -53t-1 -59t-28 -48t-59.5 -19q-25 0 -43 13t-32 31
t-27 34z" />
    <glyph glyph-name="arrowup" unicode="&#x2191;" horiz-adv-x="357" 
d="M132 99v185q-36 -18 -66 -21t-31 -3v72q2 0 16.5 2.5t33.5 12.5t33 33.5t14 66.5h93q0 -43 14 -66.5t32.5 -33.5t33.5 -12.5t17 -2.5v-72q-1 0 -15 1t-36 6t-46 17v-185h-93z" />
    <glyph glyph-name="uni2197" unicode="&#x2197;" horiz-adv-x="398" 
d="M97 112l-68 63l146 145q-38 12 -62 31t-24 20l51 52q1 -1 12 -11t30.5 -17.5t46 -1t59.5 38.5l68 -62q-33 -33 -40 -59.5t-0.5 -46.5t16.5 -31.5t11 -12.5l-51 -51q-1 0 -10.5 10.5t-22 29.5t-20.5 44z" />
    <glyph glyph-name="arrowright" unicode="&#x2192;" horiz-adv-x="418" 
d="M35 183v93h185q-18 35 -21 65.5t-3 31.5h72q0 -2 2.5 -17t12.5 -33.5t33.5 -32.5t66.5 -14v-93q-43 0 -66.5 -14t-33.5 -33t-12.5 -34t-2.5 -16h-72l1 14.5t6 36.5t17 46h-185z" />
    <glyph glyph-name="uni2198" unicode="&#x2198;" horiz-adv-x="398" 
d="M295 108q-32 32 -59 38.5t-46 -0.5t-30 -17t-12 -11l-52 51q1 1 25 20t62 31l-148 148l68 62l143 -143q9 25 21 44t22 29.5t10 11.5l51 -52q-1 -1 -11 -12t-16.5 -31t0.5 -47t40 -59z" />
    <glyph glyph-name="arrowdown" unicode="&#x2193;" horiz-adv-x="357" 
d="M132 99q0 43 -14 66.5t-33 33.5t-33.5 12.5t-16.5 2.5v72q1 0 31 -3t66 -21v185h93v-185q24 12 46 17t36 6t15 1v-72q-2 0 -17 -2.5t-33.5 -12.5t-32.5 -33.5t-14 -66.5h-93z" />
    <glyph glyph-name="uni2199" unicode="&#x2199;" horiz-adv-x="554" 
d="M103 108l-68 63v0q34 33 45.5 57t10 39t-7 22.5t-6.5 8.5l45 45l12 -14t22 -38l139 139l68 -62l-144 -144q25 -9 39 -20.5t15 -11.5l-45 -45q-1 0 -8.5 6t-22 8t-37.5 -8.5t-57 -44.5z" />
    <glyph glyph-name="arrowleft" unicode="&#x2190;" horiz-adv-x="418" 
d="M150 86q0 1 -2.5 16t-12.5 34t-33.5 33t-66.5 14v93q43 0 66.5 14t33.5 32.5t12.5 33.5t2.5 17l72 -1l-3 -30.5t-21 -65.5h185v-93h-185q12 -24 17 -46t6 -36.5l1 -14.5h-72z" />
    <glyph glyph-name="uni2196" unicode="&#x2196;" horiz-adv-x="398" 
d="M93 169l-51 51q1 1 11 12.5t16.5 31.5t-0.5 46.5t-40 59.5l68 62q33 -32 59.5 -38.5t45.5 1t30 17.5t13 11l51 -52q-1 -1 -24.5 -20t-62.5 -31l147 -145l-69 -63l-141 141q-9 -25 -21 -44t-22 -29.5z" />
    <glyph glyph-name="arrowboth" unicode="&#x2194;" horiz-adv-x="537" 
d="M150 85q0 2 -2.5 16.5t-12.5 33.5t-33.5 33t-66.5 14v93q43 0 66.5 14t33.5 32.5t12.5 33.5t2.5 17h72q0 -1 -3 -31.5t-21 -65.5h141q-19 35 -22 65.5t-3 31.5h73q0 -2 2 -17t12.5 -33.5t34 -32.5t66.5 -14v-93q-43 0 -66.5 -14t-34 -33t-12.5 -33.5t-2 -16.5h-73l1 14.5
t6.5 36.5t17.5 46h-141q12 -24 17 -46t6 -36.5l1 -14.5h-72z" />
    <glyph glyph-name="arrowupdn" unicode="&#x2195;" horiz-adv-x="357" 
d="M132 -20q0 43 -14 66.5t-33 34t-33.5 12.5t-16.5 2v73q1 0 31 -3t66 -22v141q-36 -18 -66 -21t-31 -3v72q2 0 16.5 2.5t33.5 12.5t33 33.5t14 66.5h93q0 -43 14 -66.5t32.5 -33.5t33.5 -12.5t17 -2.5v-72q-1 0 -15 1t-36 6t-46 17v-141q24 12 46 17.5t36 6.5t15 1v-73
q-2 0 -17 -2t-33.5 -12.5t-32.5 -34t-14 -66.5h-93z" />
    <glyph glyph-name="uni21A9" unicode="&#x21a9;" horiz-adv-x="600" 
 />
    <glyph glyph-name="carriagereturn" unicode="&#x21b5;" 
d="M174 115h-25q0 2 -2.5 16.5t-13 33.5t-33.5 33t-65 14v26q42 0 65 14t33.5 33t13 34t2.5 16h25q0 -1 -2 -17.5t-12.5 -39t-34.5 -40.5h280v166h28v-192h-308q24 -18 34 -40.5t12.5 -39.5z" />
    <glyph glyph-name="at" unicode="@" horiz-adv-x="858" 
d="M394 44q-64 0 -93.5 44t-19.5 110q6 43 28.5 77t55.5 53.5t71 19.5q40 0 67.5 -17.5t39.5 -47.5l7 52h90l-30 -154q-3 -20 -5 -41.5t5 -36t30 -14.5q34 0 57 22t34 57t7.5 75t-21.5 77q-27 51 -75.5 82.5t-108 43.5t-119 4t-107.5 -37q-58 -34 -93.5 -93t-39.5 -134
q-5 -69 21.5 -119.5t75 -81.5t112 -41t133.5 2.5t139 47.5l62 -105q-62 -33 -135.5 -51t-149.5 -18t-145.5 20t-124 62t-86 108t-31.5 158q1 113 56.5 200.5t148.5 132.5q57 27 123 37t132 2.5t125 -32t102.5 -66.5t62.5 -102q17 -52 11 -105t-32 -98t-69.5 -72.5
t-101.5 -27.5q-50 0 -68 23t-17 52q-22 -32 -54.5 -50t-69.5 -18zM426 111q35 0 52.5 16.5t24.5 37t10 32.5q6 37 -6.5 61t-51.5 24q-33 0 -58.5 -23.5t-31.5 -62.5q-5 -38 10 -61.5t51 -23.5z" />
    <glyph glyph-name="ampersand" unicode="&#x26;" horiz-adv-x="652" 
d="M592 -3q-36 16 -68.5 32.5t-63.5 35.5q-45 -37 -100 -55.5t-110 -18t-101 19.5t-74 56.5t-28 93.5q0 43 17 71t40.5 44.5t43 24.5t24.5 10q-3 4 -18.5 20.5t-29.5 44t-14 65.5q0 42 23 71t60.5 44t79 16t78.5 -13t60.5 -43t23.5 -73q0 -36 -16.5 -63t-38.5 -45t-39 -27.5
t-19 -10.5q5 -7 30 -31.5t65 -57.5q4 5 12.5 22t9.5 37.5t-20 38.5l102 65q3 -3 14.5 -24t20 -53.5t4 -72t-34.5 -79.5q21 -13 46.5 -27t65.5 -30zM255 353q24 13 49 31.5t28 40.5q3 26 -14 40t-40.5 15.5t-42 -11.5t-17.5 -40q1 -36 37 -76zM366 134q-39 30 -69.5 59
t-59.5 62q-27 -13 -49.5 -30t-22.5 -50q0 -32 21 -51.5t53.5 -26t66.5 2.5t60 34z" />
    <glyph glyph-name="paragraph" unicode="&#xb6;" horiz-adv-x="537" 
d="M244 -89v403h-24q-56 1 -102.5 19t-74 59.5t-27.5 114.5q0 70 27.5 112t73.5 61t101 20h108v-1h195v-83h-55v-706h-84v706h-56v-705h-82z" />
    <glyph glyph-name="section" unicode="&#xa7;" horiz-adv-x="600" 
d="M418 223v-2q23 -15 39 -40t15 -60q-3 -56 -51.5 -88t-116.5 -32q-47 0 -90.5 16t-71.5 50t-30 86h31q0 -2 1.5 -15t9 -31t24.5 -35.5t48 -29t80 -11.5q45 0 72 11t40.5 27t18 31t4.5 22q1 38 -21 59.5t-58 33.5t-76.5 21.5t-76.5 24t-58 40t-20 70.5q1 28 20.5 48.5
t47.5 31.5v1q-31 17 -50 42.5t-18 61.5q2 36 25 61.5t61.5 39.5t84.5 14q47 0 84.5 -16.5t59.5 -48.5t20 -81h-30q1 36 -13 59t-36 35.5t-45.5 17.5t-41.5 5q-59 0 -97.5 -25t-40.5 -63q0 -37 22.5 -58t58 -32.5t76 -20.5t76 -23.5t57.5 -41t20 -72.5q-1 -28 -16 -48
t-38 -35zM162 369q0 -35 17.5 -55.5t47.5 -32t65.5 -19.5t69.5 -18q11 -2 15 -3t6 -2q8 -2 12 -0.5t6 2.5q26 17 33 37t7 29q1 33 -16.5 54t-47 34t-64.5 21.5t-69 17.5q-14 3 -21.5 4.5t-20.5 -6.5q-39 -26 -40 -63z" />
    <glyph glyph-name="copyright" unicode="&#xa9;" horiz-adv-x="609" 
d="M328 -10q-61 0 -114 22.5t-93.5 63t-63 93.5t-22.5 114q0 59 22.5 111.5t63 92.5t93.5 63t114 23q59 0 111.5 -23t92.5 -63t63 -92.5t23 -111.5q0 -61 -23 -114t-63 -93.5t-92.5 -63t-111.5 -22.5zM328 55q68 0 118.5 28t78.5 78.5t28 119.5q0 68 -28 119t-78.5 79
t-118.5 28q-69 0 -120.5 -28t-79 -79t-27.5 -119q0 -69 27.5 -119.5t79 -78.5t120.5 -28zM326 116q-45 0 -82 18.5t-58.5 55t-21.5 90.5q1 79 48 123.5t117 44.5q71 0 108.5 -37.5t46.5 -86.5l-72 -13q-7 34 -25 52t-58 18q-47 0 -69 -26t-22 -69q0 -48 21.5 -74.5
t68.5 -26.5q71 0 85 80l72 -22q-9 -51 -47.5 -89t-111.5 -38z" />
    <glyph glyph-name="registered" unicode="&#xae;" horiz-adv-x="408" 
d="M203 229q-48 0 -87 23t-62.5 62t-23.5 86q0 48 23.5 87t62.5 62t87 23q47 0 85.5 -23t61.5 -62t23 -87q0 -47 -23 -86t-61.5 -62t-85.5 -23zM203 268q60 0 95.5 39t35.5 93q0 55 -35.5 94t-95.5 39q-62 0 -97.5 -39t-35.5 -94q0 -54 35.5 -93t97.5 -39zM138 320v166h64
q34 0 52.5 -11t18.5 -38q0 -22 -11 -35t-35 -13q17 0 23 -8t8 -18t6 -15t17 0v-21q-10 -8 -22.5 -9t-22.5 8t-10 31q0 17 -7 25t-44 5v-67h-37zM175 413h24q20 0 29.5 2.5t9.5 17.5q0 17 -11 20t-33 3h-19v-43z" />
    <glyph glyph-name="trademark" unicode="&#x2122;" horiz-adv-x="472" 
d="M167 522h-65v-168h-47v168h-66v40h178v-40zM437 354h-51l4 188l-37 -188h-70l-38 188l3 -188h-49v208h83l36 -187l35 187h84v-208z" />
    <glyph glyph-name="degree" unicode="&#xb0;" horiz-adv-x="295" 
d="M143 346q-59 0 -86 31t-27 81q0 52 26.5 83.5t86.5 31.5q59 0 87.5 -31.5t28.5 -83.5q0 -48 -28.5 -80t-87.5 -32zM141 422q23 0 32 11.5t9 27.5q0 17 -9 29t-32 12q-21 0 -30 -12.5t-9 -28.5q0 -17 9.5 -28t29.5 -11z" />
    <glyph glyph-name="bar" unicode="|" horiz-adv-x="241" 
d="M60 -151v752h121v-752h-121z" />
    <glyph glyph-name="brokenbar" unicode="&#xa6;" horiz-adv-x="241" 
d="M60 303v298h121v-298h-121zM60 -151v298h121v-298h-121z" />
    <glyph glyph-name="uni240D" unicode="&#x240d;" horiz-adv-x="595" 
d="M168 180q-55 0 -91.5 35.5t-36.5 105.5t36 104.5t94 34.5q44 0 76 -23.5t41 -73.5h-13q-8 41 -35 63.5t-69 22.5q-53 0 -85.5 -33t-32.5 -95q0 -64 32 -96.5t84 -32.5q46 0 73.5 22.5t34.5 62.5h14q-9 -48 -41 -72.5t-81 -24.5zM339 184v268h78q50 0 76.5 -15t26.5 -59
q0 -25 -15.5 -46.5t-48.5 -21.5q28 0 39 -13.5t12.5 -33t1 -38t3 -28.5t19.5 -5v-11l-8.5 -0.5t-17 5.5t-8.5 27q0 39 -4 58t-17.5 25.5t-43 6.5h-80.5v-119h-13zM352 316h77q40 0 59.5 14t19.5 48q0 39 -23.5 50t-67.5 11h-65v-123z" />
    <glyph glyph-name="less_hyphen.dlig" horiz-adv-x="578" 
d="M222 86h-72q0 1 -2.5 16t-12.5 34t-33.5 33t-66.5 14v93q43 0 66.5 14t33.5 32.5t12.5 33.5t2.5 17l72 -1l-3 -30.5t-21 -65.5h298v-93h-298q12 -24 17 -46t6 -36.5z" />
    <glyph glyph-name="less_three.dlig" horiz-adv-x="497" 
d="M246 0q-59 21 -104.5 59t-76 85t-43.5 94.5t-6.5 87.5t35 64.5t81.5 24.5q50 0 77 -32t36 -77q10 50 38.5 79.5t74.5 29.5q55 0 84.5 -24.5t36 -64.5t-7 -88t-44.5 -94.5t-77 -85t-104 -58.5zM244 97q35 12 61 36.5t41.5 53t18 55t-10 43.5t-43.5 17q-25 0 -36.5 -21.5
t-14 -50t-2.5 -49.5h-25q-1 22 -4.5 50.5t-15 49.5t-35.5 21q-30 0 -42 -17t-9 -43.5t18.5 -55.5t41 -53.5t57.5 -35.5z" />
    <glyph glyph-name="uni0308" unicode="&#x308;" horiz-adv-x="0" 
d="M114 666q-41 0 -55 20.5t-14 48.5q0 26 14 46.5t55 20.5t54 -20.5t13 -46.5q0 -28 -13 -48.5t-54 -20.5zM308 666q-41 0 -55 20.5t-14 48.5q0 26 14 46.5t55 20.5t54 -20.5t13 -46.5q0 -28 -13 -48.5t-54 -20.5z" />
    <glyph glyph-name="uni0307" unicode="&#x307;" horiz-adv-x="0" 
d="M114 674q-41 0 -55 20.5t-14 48.5q0 26 14 46.5t55 20.5t54 -20.5t13 -46.5q0 -28 -13 -48.5t-54 -20.5z" />
    <glyph glyph-name="gravecomb" unicode="&#x300;" horiz-adv-x="0" 
d="M122 632l-88 94v20h101l42 -99v-15h-55z" />
    <glyph glyph-name="acutecomb" unicode="&#x301;" horiz-adv-x="0" 
d="M88 632h-54v15l42 99h101v-20z" />
    <glyph glyph-name="uni030B" unicode="&#x30b;" horiz-adv-x="0" 
d="M33 658l69 153l94 -46l-109 -133zM218 658l70 153l94 -46l-109 -133z" />
    <glyph glyph-name="uni0302" unicode="&#x302;" horiz-adv-x="0" 
d="M88 680v10l123 111h51l121 -111v-10h-105l-39 44h-5l-37 -44h-109z" />
    <glyph glyph-name="uni030C" unicode="&#x30c;" horiz-adv-x="0" 
d="M51 783h124l45 -67l46 67h122v-18l-143 -118h-51l-143 119v17z" />
    <glyph glyph-name="uni0306" unicode="&#x306;" horiz-adv-x="0" 
d="M194 697q-66 0 -103 30t-37 82h84q0 -27 16 -37t39 -10q24 0 39 9.5t15 37.5h85q0 -52 -35.5 -82t-102.5 -30z" />
    <glyph glyph-name="uni030A" unicode="&#x30a;" horiz-adv-x="0" 
d="M135 587q-53 0 -78 28t-25 74q0 47 24.5 75.5t78.5 28.5q52 0 78.5 -28.5t26.5 -75.5q0 -44 -26.5 -73t-78.5 -29zM133 657q19 0 27.5 9.5t8.5 24.5t-8.5 26t-27.5 11q-18 0 -26.5 -11t-8.5 -26t9 -24.5t26 -9.5z" />
    <glyph glyph-name="tildecomb" unicode="&#x303;" horiz-adv-x="0" 
d="M248 644q-27 0 -42.5 8.5t-25 20t-18 20t-21.5 8.5q-16 0 -19 -13.5t-3 -39.5h-69q0 13 0.5 33t7.5 40.5t24.5 34.5t50.5 14q27 0 42.5 -8.5t25.5 -20t19 -20t22 -8.5q15 0 18 14.5t3 39.5h69q0 -24 -4 -53t-21.5 -49.5t-58.5 -20.5z" />
    <glyph glyph-name="uni0304" unicode="&#x304;" horiz-adv-x="0" 
d="M40 727v83h289v-83h-289z" />
    <glyph glyph-name="hookabovecomb" unicode="&#x309;" horiz-adv-x="0" 
d="M101 598v18q6 13 22 22t30 19.5t14 28.5q0 16 -15.5 21.5t-33.5 -0.5t-26 -23l-47 32q8 29 30 45.5t50 21t54 -3t43 -27.5t17 -53q0 -31 -13 -47.5t-28.5 -27.5t-21.5 -26h-75z" />
    <glyph glyph-name="uni0312" unicode="&#x312;" horiz-adv-x="0" 
d="M175 809v-98q-28 0 -44 -9t-25 -22q33 0 46.5 -17.5t13.5 -40.5q0 -26 -13.5 -43t-44.5 -17t-45 17t-14 42v0v1v0v3q0 11 2.5 33t9.5 48t20.5 49.5t36.5 38.5t57 15z" />
    <glyph glyph-name="uni031B" unicode="&#x31b;" horiz-adv-x="0" 
d="M44 588l1 70h47q24 0 27 9t4 46h78q0 -47 -10.5 -74t-36.5 -39t-74 -12h-36z" />
    <glyph glyph-name="dotbelowcomb" unicode="&#x323;" horiz-adv-x="0" 
d="M105 -138q-36 0 -48 17.5t-12 42.5q0 23 12 40.5t48 17.5q35 0 46.5 -17.5t11.5 -40.5q0 -25 -11.5 -42.5t-46.5 -17.5z" />
    <glyph glyph-name="uni0326" unicode="&#x326;" horiz-adv-x="0" 
d="M57 -280v76h27q27 0 38.5 6.5t11.5 26.5q-43 -1 -59.5 18t-16.5 46t14.5 45.5t51.5 18.5q27 0 44.5 -17t17.5 -70q0 -40 -10 -74t-32 -55t-59 -21h-28z" />
    <glyph glyph-name="uni0327" unicode="&#x327;" horiz-adv-x="0" 
d="M38 -119l35 56q10 -8 30.5 -15t42.5 -9.5t37.5 2.5t15.5 22q0 12 -13 18t-30.5 4t-30.5 -14l-50 24l45 97l53 -21l-37 -61q15 12 39 15.5t48 -2t40 -21.5t16 -44q0 -33 -23 -54t-60 -28t-78.5 0.5t-79.5 30.5z" />
    <glyph glyph-name="uni0328" unicode="&#x328;" horiz-adv-x="0" 
d="M150 -199q-25 0 -49.5 9t-40.5 29t-16 54q0 30 16 54t39.5 41t47 28t39.5 16.5l16 5.5v-54l-10.5 -4.5t-24.5 -13.5t-25 -22.5t-11 -29.5q0 -27 30 -27q13 0 22 6.5t14 13.5l5 7l63 -56l-12.5 -14t-38 -28.5t-64.5 -14.5z" />
    <glyph glyph-name="acute" unicode="&#xb4;" horiz-adv-x="600" 
d="M88 632h-54v15l42 99h101v-20z" />
    <glyph glyph-name="breve" unicode="&#x2d8;" horiz-adv-x="600" 
d="M194 697q-66 0 -103 30t-37 82h84q0 -27 16 -37t39 -10q24 0 39 9.5t15 37.5h85q0 -52 -35.5 -82t-102.5 -30z" />
    <glyph glyph-name="caron" unicode="&#x2c7;" horiz-adv-x="438" 
d="M51 783h124l45 -85l46 85h122l-143 -136h-51z" />
    <glyph glyph-name="cedilla" unicode="&#xb8;" horiz-adv-x="317" 
d="M38 -119l35 56q10 -8 30.5 -15t42.5 -9.5t37.5 2.5t15.5 22q0 12 -13 18t-30.5 4t-30.5 -14l-50 24l45 97l53 -21l-37 -61q15 12 39 15.5t48 -2t40 -21.5t16 -44q0 -33 -23 -54t-60 -28t-78.5 0.5t-79.5 30.5z" />
    <glyph glyph-name="circumflex" unicode="&#x2c6;" horiz-adv-x="564" 
d="M88 680v10l123 111h51l121 -111v-10h-105l-39 44h-5l-37 -44h-109z" />
    <glyph glyph-name="dieresis" unicode="&#xa8;" horiz-adv-x="600" 
d="M114 666q-41 0 -55 20.5t-14 48.5q0 26 14 46.5t55 20.5t54 -20.5t13 -46.5q0 -28 -13 -48.5t-54 -20.5zM308 666q-41 0 -55 20.5t-14 48.5q0 26 14 46.5t55 20.5t54 -20.5t13 -46.5q0 -28 -13 -48.5t-54 -20.5z" />
    <glyph glyph-name="dotaccent" unicode="&#x2d9;" horiz-adv-x="600" 
d="M114 674q-41 0 -55 20.5t-14 48.5q0 26 14 46.5t55 20.5t54 -20.5t13 -46.5q0 -28 -13 -48.5t-54 -20.5z" />
    <glyph glyph-name="grave" unicode="`" horiz-adv-x="600" 
d="M122 632l-88 94v20h101l42 -99v-15h-55z" />
    <glyph glyph-name="macron" unicode="&#xaf;" horiz-adv-x="369" 
d="M40 727v83h289v-83h-289z" />
    <glyph glyph-name="ring" unicode="&#x2da;" horiz-adv-x="600" 
d="M135 587q-53 0 -78 28t-25 74q0 47 24.5 75.5t78.5 28.5q52 0 78.5 -28.5t26.5 -75.5q0 -44 -26.5 -73t-78.5 -29zM133 657q19 0 27.5 9.5t8.5 24.5t-8.5 26t-27.5 11q-18 0 -26.5 -11t-8.5 -26t9 -24.5t26 -9.5z" />
    <glyph glyph-name="tilde" unicode="&#x2dc;" horiz-adv-x="600" 
d="M248 644q-27 0 -42.5 8.5t-25 20t-18 20t-21.5 8.5q-16 0 -19 -13.5t-3 -39.5h-69q0 13 0.5 33t7.5 40.5t24.5 34.5t50.5 14q27 0 42.5 -8.5t25.5 -20t19 -20t22 -8.5q15 0 18 14.5t3 39.5h69q0 -24 -4 -53t-21.5 -49.5t-58.5 -20.5z" />
    <glyph glyph-name="uni03060301" horiz-adv-x="0" 
d="M194 697q-66 0 -103 30t-37 82h84q0 -27 16 -37t39 -10q24 0 39 9.5t15 37.5h85q0 -52 -35.5 -82t-102.5 -30zM218 829h-54v15l42 99h101v-20z" />
    <glyph glyph-name="uni03060300" horiz-adv-x="0" 
d="M221 697q-66 0 -103 30t-37 82h84q0 -27 16 -37t39 -10q24 0 39 9.5t15 37.5h85q0 -52 -35.5 -82t-102.5 -30zM192 829l-88 94v20h101l42 -99v-15h-55z" />
    <glyph glyph-name="uni03060309" horiz-adv-x="0" 
d="M194 697q-66 0 -103 30t-37 82h84q0 -27 16 -37t39 -10q24 0 39 9.5t15 37.5h85q0 -52 -35.5 -82t-102.5 -30zM159 827v18q6 13 22 22t30 19.5t14 28.5q0 16 -15.5 21.5t-33.5 -0.5t-26 -23l-47 32q8 29 30 45.5t50 21t54 -3t43 -27.5t17 -53q0 -31 -13 -47.5
t-28.5 -27.5t-21.5 -26h-75z" />
    <glyph glyph-name="uni03060303" horiz-adv-x="0" 
d="M198 697q-66 0 -103 30t-37 82h84q0 -27 16 -37t39 -10q24 0 39 9.5t15 37.5h85q0 -52 -35.5 -82t-102.5 -30zM252 858q-27 0 -42.5 8.5t-25 20t-18 20t-21.5 8.5q-16 0 -19 -13.5t-3 -39.5h-69q0 13 0.5 33t7.5 40.5t24.5 34.5t50.5 14q27 0 42.5 -8.5t25.5 -20t19 -20
t22 -8.5q15 0 18 14.5t3 39.5h69q0 -24 -4 -53t-21.5 -49.5t-58.5 -20.5z" />
    <glyph glyph-name="uni03020301" horiz-adv-x="0" 
d="M67 678v10l123 111h51l121 -111v-10h-105l-39 44h-5l-37 -44h-109zM366 775h-54v15l42 99h101v-20z" />
    <glyph glyph-name="uni03020300" horiz-adv-x="0" 
d="M139 775l-88 94v20h101l42 -99v-15h-55zM158 678v10l123 111h51l121 -111v-10h-105l-39 44h-5l-37 -44h-109z" />
    <glyph glyph-name="uni03020309" horiz-adv-x="0" 
d="M67 680v10l123 111h51l121 -111v-10h-105l-39 44h-5l-37 -44h-109zM303 777v18q6 13 22 22t30 19.5t14 28.5q0 16 -15.5 21.5t-33.5 -0.5t-26 -23l-47 32q8 29 30 45.5t50 21t54 -3t43 -27.5t17 -53q0 -31 -13 -47.5t-28.5 -27.5t-21.5 -26h-75z" />
    <glyph glyph-name="uni03020303" horiz-adv-x="0" 
d="M86 680v10l123 111h51l121 -111v-10h-105l-39 44h-5l-37 -44h-109zM286 830q-27 0 -42.5 8.5t-25 20t-18 20t-21.5 8.5q-16 0 -19 -13.5t-3 -39.5h-69q0 13 0.5 33t7.5 40.5t24.5 34.5t50.5 14q27 0 42.5 -8.5t25.5 -20t19 -20t22 -8.5q15 0 18 14.5t3 39.5h69
q0 -24 -4 -53t-21.5 -49.5t-58.5 -20.5z" />
    </font>
</defs>
</svg>
