<?xml version="1.0" standalone="no"?>
<!DOCTYPE svg PUBLIC "-//W3C//DTD SVG 1.1//EN" "http://www.w3.org/Graphics/SVG/1.1/DTD/svg11.dtd" >
<svg xmlns="http://www.w3.org/2000/svg" xmlns:xlink="http://www.w3.org/1999/xlink" version="1.1">
<metadata>
Created by FontForge 20190801 at Wed Jun 19 20:56:24 2019
 By Jimmy Wärting
Copyright 2019 The Darkergrotesque Project Authors (https://github.com/bettergui/DarkerGrotesque)
</metadata>
<defs>
<font id="DarkerGrotesque-Medium" horiz-adv-x="457" >
  <font-face 
    font-family="Darker Grotesque Medium"
    font-weight="500"
    font-stretch="normal"
    units-per-em="1000"
    panose-1="0 0 0 0 0 0 0 0 0 0"
    ascent="800"
    descent="-200"
    x-height="407"
    cap-height="563"
    bbox="-51 -296 1694 1060"
    underline-thickness="50"
    underline-position="-125"
    unicode-range="U+000D-240D"
  />
<missing-glyph horiz-adv-x="500" 
d="M50 -296h400v1356h-400v-1356zM100 -246v1256h300v-1256h-300z" />
    <glyph glyph-name="w_w_w.liga" unicode="www" horiz-adv-x="1714" 
d="M112 0l-109 393v15h62l92 -353h2l105 353h57l108 -353h2l90 353h62v-15l-108 -393h-92l-89 296h-2l-88 -296h-92zM667 0l-109 393v15h62l92 -353h2l105 353h57l108 -353h2l90 353h62v-15l-108 -393h-92l-89 296h-2l-88 -296h-92zM1223 0l-109 393v15h62l92 -353h2
l105 353h57l108 -353h2l90 353h62v-15l-108 -393h-92l-89 296h-2l-88 -296h-92z" />
    <glyph glyph-name=".notdef" horiz-adv-x="500" 
d="M50 -296h400v1356h-400v-1356zM100 -246v1256h300v-1256h-300z" />
    <glyph glyph-name="A" unicode="A" horiz-adv-x="541" 
d="M19 0l198 563h106l201 -563h-68l-61 176h-247l-61 -176h-68zM272 535l-106 -305h211z" />
    <glyph glyph-name="Aacute" unicode="&#xc1;" horiz-adv-x="541" 
d="M19 0l198 563h106l201 -563h-68l-61 176h-247l-61 -176h-68zM272 535l-106 -305h211zM286 610h-32v10l51 103h59v-15z" />
    <glyph glyph-name="Abreve" unicode="&#x102;" horiz-adv-x="541" 
d="M19 0l198 563h106l201 -563h-68l-61 176h-247l-61 -176h-68zM272 535l-106 -305h211zM271 621q-55 0 -86.5 24.5t-31.5 65.5h47q0 -31 21 -40t49 -9q29 0 49 9t20 40h48q0 -41 -30.5 -65.5t-85.5 -24.5z" />
    <glyph glyph-name="uni1EAE" unicode="&#x1eae;" horiz-adv-x="541" 
d="M19 0l198 563h106l201 -563h-68l-61 176h-247l-61 -176h-68zM272 535l-106 -305h211zM271 621q-55 0 -86.5 24.5t-31.5 65.5h47q0 -31 21 -40t49 -9q29 0 49 9t20 40h48q0 -41 -30.5 -65.5t-85.5 -24.5zM286 726h-32v10l51 103h59v-15z" />
    <glyph glyph-name="uni1EB6" unicode="&#x1eb6;" horiz-adv-x="541" 
d="M19 0l198 563h106l201 -563h-68l-61 176h-247l-61 -176h-68zM272 535l-106 -305h211zM270 -148q-24 0 -32.5 12t-8.5 28t8.5 28t32.5 12t31.5 -12t7.5 -28t-7.5 -28t-31.5 -12zM271 622q-55 0 -86.5 24.5t-31.5 65.5h47q0 -31 21 -40t49 -9q29 0 49 9t20 40h48
q0 -41 -30.5 -65.5t-85.5 -24.5z" />
    <glyph glyph-name="uni1EB0" unicode="&#x1eb0;" horiz-adv-x="541" 
d="M19 0l198 563h106l201 -563h-68l-61 176h-247l-61 -176h-68zM272 535l-106 -305h211zM272 622q-55 0 -86.5 24.5t-31.5 65.5h47q0 -31 21 -40t49 -9q29 0 49 9t20 40h48q0 -41 -30.5 -65.5t-85.5 -24.5zM248 727l-78 98v15h59l51 -103v-10h-32z" />
    <glyph glyph-name="uni1EB2" unicode="&#x1eb2;" horiz-adv-x="541" 
d="M19 0l198 563h106l201 -563h-68l-61 176h-247l-61 -176h-68zM272 535l-106 -305h211zM271 622q-55 0 -86.5 24.5t-31.5 65.5h47q0 -31 21 -40t49 -9q29 0 49 9t20 40h48q0 -41 -30.5 -65.5t-85.5 -24.5zM248 723v11q4 14 18.5 23t27.5 19.5t13 27.5t-15 23.5t-32 0.5
t-25 -26l-32 16q8 29 31.5 42.5t50 12.5t46 -16.5t19.5 -45.5q0 -26 -13 -40t-26.5 -24t-16.5 -24h-46z" />
    <glyph glyph-name="uni1EB4" unicode="&#x1eb4;" horiz-adv-x="541" 
d="M19 0l198 563h106l201 -563h-68l-61 176h-247l-61 -176h-68zM272 535l-106 -305h211zM271 622q-55 0 -86.5 24.5t-31.5 65.5h47q0 -31 21 -40t49 -9q29 0 49 9t20 40h48q0 -41 -30.5 -65.5t-85.5 -24.5zM323 764q-23 0 -36.5 8.5t-23 19t-18.5 19t-23 8.5
q-17 0 -20.5 -14t-3.5 -39h-42q-1 19 2.5 41t17 36.5t43.5 14.5q23 0 37 -8t23 -19t18.5 -19t23.5 -8q17 0 20 14t3 40h43q1 -23 -3.5 -44.5t-18 -35.5t-42.5 -14z" />
    <glyph glyph-name="Acircumflex" unicode="&#xc2;" horiz-adv-x="541" 
d="M19 0l198 563h106l201 -563h-68l-61 176h-247l-61 -176h-68zM272 535l-106 -305h211zM148 621v8l109 103h29l109 -103v-8h-60l-62 67h-3l-60 -67h-62z" />
    <glyph glyph-name="uni1EA4" unicode="&#x1ea4;" horiz-adv-x="541" 
d="M19 0l198 563h106l201 -563h-68l-61 176h-247l-61 -176h-68zM272 535l-106 -305h211zM148 606v8l109 103h29l109 -103v-8h-60l-62 67h-3l-60 -67h-62zM404 695h-32v10l51 103h59v-15z" />
    <glyph glyph-name="uni1EAC" unicode="&#x1eac;" horiz-adv-x="541" 
d="M19 0l198 563h106l201 -563h-68l-61 176h-247l-61 -176h-68zM272 535l-106 -305h211zM262 -148q-24 0 -32.5 12t-8.5 28t8.5 28t32.5 12t31.5 -12t7.5 -28t-7.5 -28t-31.5 -12zM148 615v8l109 103h29l109 -103v-8h-60l-62 67h-3l-60 -67h-62z" />
    <glyph glyph-name="uni1EA6" unicode="&#x1ea6;" horiz-adv-x="541" 
d="M19 0l198 563h106l201 -563h-68l-61 176h-247l-61 -176h-68zM272 535l-106 -305h211zM131 696l-78 98v15h59l51 -103v-10h-32zM148 606v8l109 103h29l109 -103v-8h-60l-62 67h-3l-60 -67h-62z" />
    <glyph glyph-name="uni1EA8" unicode="&#x1ea8;" horiz-adv-x="541" 
d="M19 0l198 563h106l201 -563h-68l-61 176h-247l-61 -176h-68zM272 535l-106 -305h211zM148 615v8l109 103h29l109 -103v-8h-60l-62 67h-3l-60 -67h-62zM362 702v11q4 14 18.5 23t27.5 19.5t13 27.5t-15 23.5t-32 0.5t-25 -26l-32 16q8 29 31.5 42.5t50 12.5t46 -16.5
t19.5 -45.5q0 -26 -13 -40t-26.5 -24t-16.5 -24h-46z" />
    <glyph glyph-name="uni1EAA" unicode="&#x1eaa;" horiz-adv-x="541" 
d="M19 0l198 563h106l201 -563h-68l-61 176h-247l-61 -176h-68zM272 535l-106 -305h211zM148 615v8l109 103h29l109 -103v-8h-60l-62 67h-3l-60 -67h-62zM321 768q-23 0 -36.5 8.5t-23 19t-18.5 19t-23 8.5q-17 0 -20.5 -14t-3.5 -39h-42q-1 19 2.5 41t17 36.5t43.5 14.5
q23 0 37 -8t23 -19t18.5 -19t23.5 -8q17 0 20 14t3 40h43q1 -23 -3.5 -44.5t-18 -35.5t-42.5 -14z" />
    <glyph glyph-name="Adieresis" unicode="&#xc4;" horiz-adv-x="541" 
d="M19 0l198 563h106l201 -563h-68l-61 176h-247l-61 -176h-68zM272 535l-106 -305h211zM194 622q-28 0 -38 14.5t-10 33.5q0 18 10 32.5t38 14.5q29 0 38 -14.5t9 -32.5q0 -19 -9 -33.5t-38 -14.5zM351 622q-29 0 -38.5 14.5t-9.5 33.5q0 18 9.5 32.5t38.5 14.5
q28 0 37 -14.5t9 -32.5q0 -19 -9 -33.5t-37 -14.5z" />
    <glyph glyph-name="uni1EA0" unicode="&#x1ea0;" horiz-adv-x="541" 
d="M19 0l198 563h106l201 -563h-68l-61 176h-247l-61 -176h-68zM272 535l-106 -305h211zM262 -148q-24 0 -32.5 12t-8.5 28t8.5 28t32.5 12t31.5 -12t7.5 -28t-7.5 -28t-31.5 -12z" />
    <glyph glyph-name="Agrave" unicode="&#xc0;" horiz-adv-x="541" 
d="M19 0l198 563h106l201 -563h-68l-61 176h-247l-61 -176h-68zM272 535l-106 -305h211zM249 610l-78 98v15h59l51 -103v-10h-32z" />
    <glyph glyph-name="uni1EA2" unicode="&#x1ea2;" horiz-adv-x="541" 
d="M19 0l198 563h106l201 -563h-68l-61 176h-247l-61 -176h-68zM272 535l-106 -305h211zM249 618v11q4 14 18.5 23t27.5 19.5t13 27.5t-15 23.5t-32 0.5t-25 -26l-32 16q8 29 31.5 42.5t50 12.5t46 -16.5t19.5 -45.5q0 -26 -13 -40t-26.5 -24t-16.5 -24h-46z" />
    <glyph glyph-name="Amacron" unicode="&#x100;" horiz-adv-x="600" 
d="M19 0l198 563h106l201 -563h-68l-61 176h-247l-61 -176h-68zM272 535l-106 -305h211zM148 620v49h249v-49h-249z" />
    <glyph glyph-name="Aogonek" unicode="&#x104;" horiz-adv-x="547" 
d="M19 0l198 563h106l191 -534h1l9 -29l-15 -7t-34.5 -20.5t-34.5 -32.5t-15 -42q0 -18 11 -29.5t32 -11.5q18 0 28 7.5t14.5 15.5l4.5 8l38 -31l-9.5 -12.5t-29 -24.5t-50.5 -12q-37 0 -62.5 21.5t-25.5 60.5q-1 38 25 66t55 45l-61 175h-247l-61 -176h-68zM272 535
l-106 -305h211z" />
    <glyph glyph-name="Aring" unicode="&#xc5;" horiz-adv-x="541" 
d="M19 0l198 563h106l201 -563h-68l-61 176h-247l-61 -176h-68zM272 535l-106 -305h211zM268 603q-44 0 -67.5 24.5t-23.5 65.5t23 66t68 25q43 0 67.5 -25t24.5 -66q0 -39 -24.5 -64.5t-67.5 -25.5zM267 643q25 0 38.5 15t13.5 36q0 22 -13.5 37.5t-38.5 15.5t-38.5 -15.5
t-13.5 -37.5t14.5 -36.5t37.5 -14.5z" />
    <glyph glyph-name="Atilde" unicode="&#xc3;" horiz-adv-x="541" 
d="M19 0l198 563h106l201 -563h-68l-61 176h-247l-61 -176h-68zM272 535l-106 -305h211zM323 619q-23 0 -36.5 8.5t-23 19t-18.5 19t-23 8.5q-17 0 -20.5 -14t-3.5 -39h-42q-1 19 2.5 41t17 36.5t43.5 14.5q23 0 37 -8t23 -19t18.5 -19t23.5 -8q17 0 20 14t3 40h43
q1 -23 -3.5 -44.5t-18 -35.5t-42.5 -14z" />
    <glyph glyph-name="AE" unicode="&#xc6;" horiz-adv-x="836" 
d="M19 0l352 563h420v-57h-313v-194h248v-54h-248v-204h323v-54h-387v176h-217l-109 -176h-69zM229 230h185v299z" />
    <glyph glyph-name="B" unicode="B" horiz-adv-x="537" 
d="M60 0v563h203q37 0 74.5 -5t69 -20t51 -45t19.5 -79q0 -33 -12.5 -60.5t-45 -44.5t-93.5 -18v-4q71 0 109 -19.5t52.5 -50.5t14.5 -69q0 -50 -21.5 -80t-55.5 -44.5t-74 -19t-77 -4.5h-214zM124 316h132q47 0 82 6t54.5 25.5t19.5 60.5q0 47 -21.5 68t-57 26.5t-76.5 5.5
h-133v-192zM124 54h145q46 0 83.5 6.5t60 28t22.5 66.5q0 47 -24 70.5t-64 31t-89 7.5h-134v-210z" />
    <glyph glyph-name="C" unicode="C" horiz-adv-x="596" 
d="M299 -10q-78 0 -140 32.5t-98.5 97.5t-35.5 160q0 96 35.5 161.5t98.5 98.5t144 33q104 0 170 -55.5t84 -152.5h-67q-13 76 -66 112t-121 36q-100 0 -157 -59.5t-57 -169.5q0 -115 55.5 -174.5t155.5 -59.5q75 0 128 36.5t65 111.5h68q-18 -96 -84.5 -152t-177.5 -56z
" />
    <glyph glyph-name="Cacute" unicode="&#x106;" horiz-adv-x="596" 
d="M299 -10q-78 0 -140 32.5t-98.5 97.5t-35.5 160q0 96 35.5 161.5t98.5 98.5t144 33q104 0 170 -55.5t84 -152.5h-67q-13 76 -66 112t-121 36q-100 0 -157 -59.5t-57 -169.5q0 -115 55.5 -174.5t155.5 -59.5q75 0 128 36.5t65 111.5h68q-18 -96 -84.5 -152t-177.5 -56z
M311 610h-32v10l51 103h59v-15z" />
    <glyph glyph-name="Ccaron" unicode="&#x10c;" horiz-adv-x="600" 
d="M299 -10q-78 0 -140 32.5t-98.5 97.5t-35.5 160q0 96 35.5 161.5t98.5 98.5t144 33q104 0 170 -55.5t84 -152.5h-67q-13 76 -66 112t-121 36q-100 0 -157 -59.5t-57 -169.5q0 -115 55.5 -174.5t155.5 -59.5q75 0 128 36.5t65 111.5h68q-18 -96 -84.5 -152t-177.5 -56z
M149 749h69l81 -103l82 103h68l-136 -136h-28z" />
    <glyph glyph-name="Ccedilla" unicode="&#xc7;" horiz-adv-x="596" 
d="M299 -10q-78 0 -140 32.5t-98.5 97.5t-35.5 160q0 96 35.5 161.5t98.5 98.5t144 33q104 0 170 -55.5t84 -152.5h-67q-13 76 -66 112t-121 36q-100 0 -157 -59.5t-57 -169.5q0 -115 55.5 -174.5t155.5 -59.5q75 0 128 36.5t65 111.5h68q-18 -96 -84.5 -152t-177.5 -56z
M204 -128l23 33q13 -14 35 -22t45 -8.5t38 8.5t14 28q-1 18 -17 24t-37.5 1.5t-37.5 -17.5l-29 19l40 83l34 -14l-40 -62q14 13 36 19t44 3t37.5 -17t15.5 -40q0 -30 -20.5 -48.5t-52 -24.5t-66 2.5t-62.5 32.5z" />
    <glyph glyph-name="Cdotaccent" unicode="&#x10a;" horiz-adv-x="596" 
d="M299 -10q-78 0 -140 32.5t-98.5 97.5t-35.5 160q0 96 35.5 161.5t98.5 98.5t144 33q104 0 170 -55.5t84 -152.5h-67q-13 76 -66 112t-121 36q-100 0 -157 -59.5t-57 -169.5q0 -115 55.5 -174.5t155.5 -59.5q75 0 128 36.5t65 111.5h68q-18 -96 -84.5 -152t-177.5 -56z
M300 621q-28 0 -38 14.5t-10 33.5t10 33t38 14q29 0 38 -14t9 -33t-9 -33.5t-38 -14.5z" />
    <glyph glyph-name="D" unicode="D" horiz-adv-x="588" 
d="M554 282q0 -111 -42 -172.5t-118 -85.5t-178 -24h-149v563h149q102 0 178 -31.5t118 -93.5t42 -156zM131 55h99q78 0 135.5 17.5t89 66.5t31.5 143q0 115 -70 169.5t-186 54.5h-99v-451z" />
    <glyph glyph-name="Eth" unicode="&#xd0;" horiz-adv-x="600" 
d="M67 0v263h-67v47h67v253h149q102 0 178 -31.5t118 -93.5t42 -156q0 -111 -42 -172.5t-118 -85.5t-178 -24h-149zM131 55h99q78 0 135.5 17.5t89 66.5t31.5 143q0 115 -70 169.5t-186 54.5h-99v-196h169v-47h-169v-208z" />
    <glyph glyph-name="Dcaron" unicode="&#x10e;" horiz-adv-x="588" 
d="M554 282q0 -111 -42 -172.5t-118 -85.5t-178 -24h-149v563h149q102 0 178 -31.5t118 -93.5t42 -156zM131 55h99q78 0 135.5 17.5t89 66.5t31.5 143q0 115 -70 169.5t-186 54.5h-99v-451zM114 749h69l81 -103l82 103h68l-136 -136h-28z" />
    <glyph glyph-name="Dcroat" unicode="&#x110;" horiz-adv-x="600" 
d="M67 0v263h-67v47h67v253h149q102 0 178 -31.5t118 -93.5t42 -156q0 -111 -42 -172.5t-118 -85.5t-178 -24h-149zM131 55h99q78 0 135.5 17.5t89 66.5t31.5 143q0 115 -70 169.5t-186 54.5h-99v-196h169v-47h-169v-208z" />
    <glyph glyph-name="E" unicode="E" horiz-adv-x="479" 
d="M120 54h324v-54h-387v563h377v-57h-314v-194h249v-54h-249v-204z" />
    <glyph glyph-name="Eacute" unicode="&#xc9;" horiz-adv-x="479" 
d="M120 54h324v-54h-387v563h377v-57h-314v-194h249v-54h-249v-204zM243 610h-32v10l51 103h59v-15z" />
    <glyph glyph-name="Ecaron" unicode="&#x11a;" horiz-adv-x="479" 
d="M120 54h324v-54h-387v563h377v-57h-314v-194h249v-54h-249v-204zM93 749h69l81 -103l82 103h68l-136 -136h-28z" />
    <glyph glyph-name="Ecircumflex" unicode="&#xca;" horiz-adv-x="479" 
d="M120 54h324v-54h-387v563h377v-57h-314v-194h249v-54h-249v-204zM119 631v8l109 103h29l109 -103v-8h-60l-62 67h-3l-60 -67h-62z" />
    <glyph glyph-name="uni1EBE" unicode="&#x1ebe;" horiz-adv-x="479" 
d="M120 54h324v-54h-387v563h377v-57h-314v-194h249v-54h-249v-204zM119 622v8l109 103h29l109 -103v-8h-60l-62 67h-3l-60 -67h-62zM375 711h-32v10l51 103h59v-15z" />
    <glyph glyph-name="uni1EC6" unicode="&#x1ec6;" horiz-adv-x="479" 
d="M120 54h324v-54h-387v563h377v-57h-314v-194h249v-54h-249v-204zM245 -149q-24 0 -32.5 12t-8.5 28t8.5 28t32.5 12t31.5 -12t7.5 -28t-7.5 -28t-31.5 -12zM119 631v8l109 103h29l109 -103v-8h-60l-62 67h-3l-60 -67h-62z" />
    <glyph glyph-name="uni1EC0" unicode="&#x1ec0;" horiz-adv-x="479" 
d="M120 54h324v-54h-387v563h377v-57h-314v-194h249v-54h-249v-204zM102 713l-78 98v15h59l51 -103v-10h-32zM119 623v8l109 103h29l109 -103v-8h-60l-62 67h-3l-60 -67h-62z" />
    <glyph glyph-name="uni1EC2" unicode="&#x1ec2;" horiz-adv-x="479" 
d="M120 54h324v-54h-387v563h377v-57h-314v-194h249v-54h-249v-204zM120 631v8l109 103h29l109 -103v-8h-60l-62 67h-3l-60 -67h-62zM334 718v11q4 14 18.5 23t27.5 19.5t13 27.5t-15 23.5t-32 0.5t-25 -26l-32 16q8 29 31.5 42.5t50 12.5t46 -16.5t19.5 -45.5
q0 -26 -13 -40t-26.5 -24t-16.5 -24h-46z" />
    <glyph glyph-name="uni1EC4" unicode="&#x1ec4;" horiz-adv-x="479" 
d="M120 54h324v-54h-387v563h377v-57h-314v-194h249v-54h-249v-204zM119 632v8l109 103h29l109 -103v-8h-60l-62 67h-3l-60 -67h-62zM292 785q-23 0 -36.5 8.5t-23 19t-18.5 19t-23 8.5q-17 0 -20.5 -14t-3.5 -39h-42q-1 19 2.5 41t17 36.5t43.5 14.5q23 0 37 -8t23 -19
t18.5 -19t23.5 -8q17 0 20 14t3 40h43q1 -23 -3.5 -44.5t-18 -35.5t-42.5 -14z" />
    <glyph glyph-name="Edieresis" unicode="&#xcb;" horiz-adv-x="479" 
d="M120 54h324v-54h-387v563h377v-57h-314v-194h249v-54h-249v-204zM169 622q-28 0 -38 14.5t-10 33.5q0 18 10 32.5t38 14.5q29 0 38 -14.5t9 -32.5q0 -19 -9 -33.5t-38 -14.5zM326 622q-29 0 -38.5 14.5t-9.5 33.5q0 18 9.5 32.5t38.5 14.5q28 0 37 -14.5t9 -32.5
q0 -19 -9 -33.5t-37 -14.5z" />
    <glyph glyph-name="Edotaccent" unicode="&#x116;" horiz-adv-x="479" 
d="M120 54h324v-54h-387v563h377v-57h-314v-194h249v-54h-249v-204zM247 621q-28 0 -38 14.5t-10 33.5t10 33t38 14q29 0 38 -14t9 -33t-9 -33.5t-38 -14.5z" />
    <glyph glyph-name="uni1EB8" unicode="&#x1eb8;" horiz-adv-x="479" 
d="M120 54h324v-54h-387v563h377v-57h-314v-194h249v-54h-249v-204zM246 -149q-24 0 -32.5 12t-8.5 28t8.5 28t32.5 12t31.5 -12t7.5 -28t-7.5 -28t-31.5 -12z" />
    <glyph glyph-name="Egrave" unicode="&#xc8;" horiz-adv-x="479" 
d="M120 54h324v-54h-387v563h377v-57h-314v-194h249v-54h-249v-204zM212 610l-78 98v15h59l51 -103v-10h-32z" />
    <glyph glyph-name="uni1EBA" unicode="&#x1eba;" horiz-adv-x="479" 
d="M120 54h324v-54h-387v563h377v-57h-314v-194h249v-54h-249v-204zM216 618v11q4 14 18.5 23t27.5 19.5t13 27.5t-15 23.5t-32 0.5t-25 -26l-32 16q8 29 31.5 42.5t50 12.5t46 -16.5t19.5 -45.5q0 -26 -13 -40t-26.5 -24t-16.5 -24h-46z" />
    <glyph glyph-name="Emacron" unicode="&#x112;" horiz-adv-x="479" 
d="M120 54h324v-54h-387v563h377v-57h-314v-194h249v-54h-249v-204zM119 620v49h249v-49h-249z" />
    <glyph glyph-name="Eogonek" unicode="&#x118;" horiz-adv-x="479" 
d="M120 54h324v-54l-14 -7t-32 -20.5t-32 -32.5t-14 -42q0 -18 11.5 -29.5t31.5 -11.5q18 0 28 7.5t14.5 15.5l4.5 8l38 -31l-9.5 -12.5t-29 -24.5t-50.5 -12q-37 0 -62.5 21.5t-25.5 60.5q0 37 25 65t53 45h-324v563h377v-57h-314v-194h249v-54h-249v-204z" />
    <glyph glyph-name="uni1EBC" unicode="&#x1ebc;" horiz-adv-x="479" 
d="M120 54h324v-54h-387v563h377v-57h-314v-194h249v-54h-249v-204zM292 624q-23 0 -36.5 8.5t-23 19t-18.5 19t-23 8.5q-17 0 -20.5 -14t-3.5 -39h-42q-1 19 2.5 41t17 36.5t43.5 14.5q23 0 37 -8t23 -19t18.5 -19t23.5 -8q17 0 20 14t3 40h43q1 -23 -3.5 -44.5t-18 -35.5
t-42.5 -14z" />
    <glyph glyph-name="F" unicode="F" horiz-adv-x="479" 
d="M134 0h-64v563h389v-57h-325v-180h256v-54h-256v-272z" />
    <glyph glyph-name="G" unicode="G" horiz-adv-x="609" 
d="M291 -13q-81 0 -141 34.5t-92.5 99.5t-32.5 158q1 93 35.5 159t96.5 100.5t145 34.5q107 0 171.5 -49.5t82.5 -144.5l-62 -8q-16 74 -67 108t-125 34q-107 0 -159 -61t-56 -170q0 -111 57.5 -172t160.5 -61q79 0 132.5 42t62.5 124h-155v50h223v-265h-46l-15 124h-2
q-8 -27 -33 -59t-69.5 -55t-111.5 -23z" />
    <glyph glyph-name="Gbreve" unicode="&#x11e;" horiz-adv-x="609" 
d="M291 -13q-81 0 -141 34.5t-92.5 99.5t-32.5 158q1 93 35.5 159t96.5 100.5t145 34.5q107 0 171.5 -49.5t82.5 -144.5l-62 -8q-16 74 -67 108t-125 34q-107 0 -159 -61t-56 -170q0 -111 57.5 -172t160.5 -61q79 0 132.5 42t62.5 124h-155v50h223v-265h-46l-15 124h-2
q-8 -27 -33 -59t-69.5 -55t-111.5 -23zM296 622q-55 0 -86.5 24.5t-31.5 65.5h47q0 -31 21 -40t49 -9q29 0 49 9t20 40h48q0 -41 -30.5 -65.5t-85.5 -24.5z" />
    <glyph glyph-name="uni0122" unicode="&#x122;" horiz-adv-x="609" 
d="M291 -13q-81 0 -141 34.5t-92.5 99.5t-32.5 158q1 93 35.5 159t96.5 100.5t145 34.5q107 0 171.5 -49.5t82.5 -144.5l-62 -8q-16 74 -67 108t-125 34q-107 0 -159 -61t-56 -170q0 -111 57.5 -172t160.5 -61q79 0 132.5 42t62.5 124h-155v50h223v-265h-46l-15 124h-2
q-8 -27 -33 -59t-69.5 -55t-111.5 -23zM246 -231v48h17q25 0 31.5 11t6.5 28q-27 -3 -39 9t-12 35q0 17 9 29.5t33 12.5q21 0 30.5 -12.5t9.5 -45.5q0 -52 -14.5 -83.5t-52.5 -31.5h-19z" />
    <glyph glyph-name="Gdotaccent" unicode="&#x120;" horiz-adv-x="609" 
d="M291 -13q-81 0 -141 34.5t-92.5 99.5t-32.5 158q1 93 35.5 159t96.5 100.5t145 34.5q107 0 171.5 -49.5t82.5 -144.5l-62 -8q-16 74 -67 108t-125 34q-107 0 -159 -61t-56 -170q0 -111 57.5 -172t160.5 -61q79 0 132.5 42t62.5 124h-155v50h223v-265h-46l-15 124h-2
q-8 -27 -33 -59t-69.5 -55t-111.5 -23zM297 621q-28 0 -38 14.5t-10 33.5t10 33t38 14q29 0 38 -14t9 -33t-9 -33.5t-38 -14.5z" />
    <glyph glyph-name="H" unicode="H" horiz-adv-x="581" 
d="M131 0h-64v563h64v-247h320v247h63v-563h-63v264h-320v-264z" />
    <glyph glyph-name="Hbar" unicode="&#x126;" horiz-adv-x="586" 
d="M67 0v424h-49v49h49v90h64v-90h320v90h63v-90h49v-49h-49v-424h-63v264h-320v-264h-64zM131 316h320v108h-320v-108z" />
    <glyph glyph-name="I" unicode="I" horiz-adv-x="342" 
d="M276 56v-56h-218v56h77v451h-77v56h218v-56h-77v-451h77z" />
    <glyph glyph-name="Iacute" unicode="&#xcd;" horiz-adv-x="342" 
d="M276 56v-56h-218v56h77v451h-77v56h218v-56h-77v-451h77zM173 610h-32v10l51 103h59v-15z" />
    <glyph glyph-name="Icircumflex" unicode="&#xce;" horiz-adv-x="342" 
d="M276 56v-56h-218v56h77v451h-77v56h218v-56h-77v-451h77zM43 631v8l109 103h29l109 -103v-8h-60l-62 67h-3l-60 -67h-62z" />
    <glyph glyph-name="Idieresis" unicode="&#xcf;" horiz-adv-x="342" 
d="M276 56v-56h-218v56h77v451h-77v56h218v-56h-77v-451h77zM90 621q-28 0 -38 14.5t-10 33.5q0 18 10 32.5t38 14.5q29 0 38 -14.5t9 -32.5q0 -19 -9 -33.5t-38 -14.5zM247 621q-29 0 -38.5 14.5t-9.5 33.5q0 18 9.5 32.5t38.5 14.5q28 0 37 -14.5t9 -32.5q0 -19 -9 -33.5
t-37 -14.5z" />
    <glyph glyph-name="Idotaccent" unicode="&#x130;" horiz-adv-x="342" 
d="M276 56v-56h-218v56h77v451h-77v56h218v-56h-77v-451h77zM139 636q-28 0 -38 14.5t-10 33.5t10 33t38 14q29 0 38 -14t9 -33t-9 -33.5t-38 -14.5z" />
    <glyph glyph-name="uni1ECA" unicode="&#x1eca;" horiz-adv-x="342" 
d="M276 56v-56h-218v56h77v451h-77v56h218v-56h-77v-451h77zM165 -149q-24 0 -32.5 12t-8.5 28t8.5 28t32.5 12t31.5 -12t7.5 -28t-7.5 -28t-31.5 -12z" />
    <glyph glyph-name="Igrave" unicode="&#xcc;" horiz-adv-x="342" 
d="M276 56v-56h-218v56h77v451h-77v56h218v-56h-77v-451h77zM138 610l-78 98v15h59l51 -103v-10h-32z" />
    <glyph glyph-name="uni1EC8" unicode="&#x1ec8;" horiz-adv-x="342" 
d="M276 56v-56h-218v56h77v451h-77v56h218v-56h-77v-451h77zM141 618v11q4 14 18.5 23t27.5 19.5t13 27.5t-15 23.5t-32 0.5t-25 -26l-32 16q8 29 31.5 42.5t50 12.5t46 -16.5t19.5 -45.5q0 -26 -13 -40t-26.5 -24t-16.5 -24h-46z" />
    <glyph glyph-name="Imacron" unicode="&#x12a;" horiz-adv-x="337" 
d="M276 56v-56h-218v56h77v451h-77v56h218v-56h-77v-451h77zM43 620v49h249v-49h-249z" />
    <glyph glyph-name="Iogonek" unicode="&#x12e;" horiz-adv-x="342" 
d="M169 -192q-37 0 -62.5 21.5t-25.5 60.5q0 37 25 65t52 45h-100v56h77v451h-77v56h218v-56h-77v-451h77v-56h-55l-13.5 -7t-31.5 -20.5t-32 -32.5t-14 -42q0 -18 11 -29.5t32 -11.5q18 0 28 7.5t14.5 15.5l4.5 8l38 -31l-9.5 -12.5t-29.5 -24.5t-50 -12z" />
    <glyph glyph-name="Itilde" unicode="&#x128;" horiz-adv-x="342" 
d="M276 56v-56h-218v56h77v451h-77v56h218v-56h-77v-451h77zM219 621q-23 0 -36.5 8.5t-23 19t-18.5 19t-23 8.5q-17 0 -20.5 -14t-3.5 -39h-42q-1 19 2.5 41t17 36.5t43.5 14.5q23 0 37 -8t23 -19t18.5 -19t23.5 -8q17 0 20 14t3 40h43q1 -23 -3.5 -44.5t-18 -35.5
t-42.5 -14z" />
    <glyph glyph-name="J" unicode="J" horiz-adv-x="432" 
d="M206 -10q-37 0 -75 14.5t-63.5 49t-25.5 94.5h60q0 -23 8.5 -46.5t30.5 -39.5t63 -16q52 0 76.5 28t24.5 95v342h-111v51h175v-385q0 -89 -36.5 -138t-126.5 -49z" />
    <glyph glyph-name="K" unicode="K" horiz-adv-x="553" 
d="M70 -1v564h65v-293l296 293h84v-10l-240 -227l252 -316v-10h-75l-224 282l-93 -88v-195h-65z" />
    <glyph glyph-name="uni0136" unicode="&#x136;" horiz-adv-x="561" 
d="M70 -1v564h65v-293l297 293h91l-248 -236l257 -327h-79l-224 283l-94 -89v-195h-65zM217 -231v48h18q25 0 31.5 11t6.5 28q-27 -3 -39.5 9t-12.5 35q0 17 9 29.5t33 12.5q21 0 31 -12.5t10 -45.5q0 -52 -14.5 -83.5t-52.5 -31.5h-20z" />
    <glyph glyph-name="L" unicode="L" horiz-adv-x="468" 
d="M67 0v563h64v-507h312v-56h-376z" />
    <glyph glyph-name="Lacute" unicode="&#x139;" horiz-adv-x="468" 
d="M67 0v563h64v-507h312v-56h-376zM116 610h-32v10l51 103h59v-15z" />
    <glyph glyph-name="Lcaron" unicode="&#x13d;" horiz-adv-x="460" 
d="M67 0v563h64v-507h312v-56h-376zM-51 749h69l81 -103l82 103h68l-136 -136h-28z" />
    <glyph glyph-name="uni013B" unicode="&#x13b;" horiz-adv-x="468" 
d="M67 0v563h64v-507h312v-56h-376zM197 -231v48h17q25 0 31.5 11t6.5 28q-27 -3 -39 9t-12 35q0 17 9 29.5t33 12.5q21 0 30.5 -12.5t9.5 -45.5q0 -52 -14.5 -83.5t-52.5 -31.5h-19z" />
    <glyph glyph-name="Lslash" unicode="&#x141;" horiz-adv-x="468" 
d="M67 0v248l-71 -35v60l71 35v255h64v-223l134 67v-60l-134 -67v-224h312v-56h-376z" />
    <glyph glyph-name="M" unicode="M" horiz-adv-x="703" 
d="M57 0v563h111l183 -534h2l180 534h111v-563h-65l3 530h-2l-182 -530h-95l-182 530h-2l3 -530h-65z" />
    <glyph glyph-name="N" unicode="N" horiz-adv-x="581" 
d="M458 563h65v-563h-121l-280 534h-2v-534h-65v563h113l288 -534h2v534z" />
    <glyph glyph-name="Nacute" unicode="&#x143;" horiz-adv-x="581" 
d="M458 563h65v-563h-121l-280 534h-2v-534h-65v563h113l288 -534h2v534zM290 610h-32v10l51 103h59v-15z" />
    <glyph glyph-name="Ncaron" unicode="&#x147;" horiz-adv-x="600" 
d="M458 563h65v-563h-121l-280 534h-2v-534h-65v563h113l288 -534h2v534zM143 749h69l81 -103l82 103h68l-136 -136h-28z" />
    <glyph glyph-name="uni0145" unicode="&#x145;" horiz-adv-x="581" 
d="M458 563h65v-563h-121l-280 534h-2v-534h-65v563h113l288 -534h2v534zM239 -231v48h17q25 0 31.5 11t6.5 28q-27 -3 -39 9t-12 35q0 17 9 29.5t33 12.5q21 0 30.5 -12.5t9.5 -45.5q0 -52 -14.5 -83.5t-52.5 -31.5h-19z" />
    <glyph glyph-name="Eng" unicode="&#x14a;" horiz-adv-x="600" 
d="M409 -202q-35 0 -56.5 12.5t-29.5 20.5l38 44q5 -6 16.5 -12.5t26.5 -6.5q27 0 41.5 15.5t14.5 52.5v76h-58l-280 534h-2v-534h-65v563h113l288 -534h2v534h65v-643q0 -52 -26.5 -87t-87.5 -35z" />
    <glyph glyph-name="Ntilde" unicode="&#xd1;" horiz-adv-x="581" 
d="M458 563h65v-563h-121l-280 534h-2v-534h-65v563h113l288 -534h2v534zM340 619q-23 0 -36.5 8.5t-23 19t-18.5 19t-23 8.5q-17 0 -20.5 -14t-3.5 -39h-42q-1 19 2.5 41t17 36.5t43.5 14.5q23 0 37 -8t23 -19t18.5 -19t23.5 -8q17 0 20 14t3 40h43q1 -23 -3.5 -44.5
t-18 -35.5t-42.5 -14z" />
    <glyph glyph-name="O" unicode="O" horiz-adv-x="604" 
d="M295 -14q-134 0 -204 79.5t-70 214.5q0 89 30.5 154.5t91 102t152.5 36.5q134 0 203 -79.5t69 -213.5q0 -87 -30.5 -153.5t-91.5 -103.5t-150 -37zM294 48q105 0 157.5 64t52.5 168t-52 168.5t-158 64.5q-103 0 -156.5 -62.5t-53.5 -170.5q0 -103 52 -167.5t158 -64.5z
" />
    <glyph glyph-name="Oacute" unicode="&#xd3;" horiz-adv-x="604" 
d="M295 -14q-134 0 -204 79.5t-70 214.5q0 89 30.5 154.5t91 102t152.5 36.5q134 0 203 -79.5t69 -213.5q0 -87 -30.5 -153.5t-91.5 -103.5t-150 -37zM294 48q105 0 157.5 64t52.5 168t-52 168.5t-158 64.5q-103 0 -156.5 -62.5t-53.5 -170.5q0 -103 52 -167.5t158 -64.5z
M311 610h-32v10l51 103h59v-15z" />
    <glyph glyph-name="Ocircumflex" unicode="&#xd4;" horiz-adv-x="604" 
d="M295 -14q-134 0 -204 79.5t-70 214.5q0 89 30.5 154.5t91 102t152.5 36.5q134 0 203 -79.5t69 -213.5q0 -87 -30.5 -153.5t-91.5 -103.5t-150 -37zM294 48q105 0 157.5 64t52.5 168t-52 168.5t-158 64.5q-103 0 -156.5 -62.5t-53.5 -170.5q0 -103 52 -167.5t158 -64.5z
M173 631v8l109 103h29l109 -103v-8h-60l-62 67h-3l-60 -67h-62z" />
    <glyph glyph-name="uni1ED0" unicode="&#x1ed0;" horiz-adv-x="604" 
d="M295 -14q-134 0 -204 79.5t-70 214.5q0 89 30.5 154.5t91 102t152.5 36.5q134 0 203 -79.5t69 -213.5q0 -87 -30.5 -153.5t-91.5 -103.5t-150 -37zM294 48q105 0 157.5 64t52.5 168t-52 168.5t-158 64.5q-103 0 -156.5 -62.5t-53.5 -170.5q0 -103 52 -167.5t158 -64.5z
M173 631v8l109 103h29l109 -103v-8h-60l-62 67h-3l-60 -67h-62zM429 720h-32v10l51 103h59v-15z" />
    <glyph glyph-name="uni1ED8" unicode="&#x1ed8;" horiz-adv-x="604" 
d="M295 -14q-134 0 -204 79.5t-70 214.5q0 89 30.5 154.5t91 102t152.5 36.5q134 0 203 -79.5t69 -213.5q0 -87 -30.5 -153.5t-91.5 -103.5t-150 -37zM294 48q105 0 157.5 64t52.5 168t-52 168.5t-158 64.5q-103 0 -156.5 -62.5t-53.5 -170.5q0 -103 52 -167.5t158 -64.5z
M296 -148q-24 0 -32.5 12t-8.5 28t8.5 28t32.5 12t31.5 -12t7.5 -28t-7.5 -28t-31.5 -12zM171 631v8l109 103h29l109 -103v-8h-60l-62 67h-3l-60 -67h-62z" />
    <glyph glyph-name="uni1ED2" unicode="&#x1ed2;" horiz-adv-x="604" 
d="M295 -14q-134 0 -204 79.5t-70 214.5q0 89 30.5 154.5t91 102t152.5 36.5q134 0 203 -79.5t69 -213.5q0 -87 -30.5 -153.5t-91.5 -103.5t-150 -37zM294 48q105 0 157.5 64t52.5 168t-52 168.5t-158 64.5q-103 0 -156.5 -62.5t-53.5 -170.5q0 -103 52 -167.5t158 -64.5z
M155 721l-78 98v15h59l51 -103v-10h-32zM172 631v8l109 103h29l109 -103v-8h-60l-62 67h-3l-60 -67h-62z" />
    <glyph glyph-name="uni1ED4" unicode="&#x1ed4;" horiz-adv-x="604" 
d="M295 -14q-134 0 -204 79.5t-70 214.5q0 89 30.5 154.5t91 102t152.5 36.5q134 0 203 -79.5t69 -213.5q0 -87 -30.5 -153.5t-91.5 -103.5t-150 -37zM294 48q105 0 157.5 64t52.5 168t-52 168.5t-158 64.5q-103 0 -156.5 -62.5t-53.5 -170.5q0 -103 52 -167.5t158 -64.5z
M173 631v8l109 103h29l109 -103v-8h-60l-62 67h-3l-60 -67h-62zM387 718v11q4 14 18.5 23t27.5 19.5t13 27.5t-15 23.5t-32 0.5t-25 -26l-32 16q8 29 31.5 42.5t50 12.5t46 -16.5t19.5 -45.5q0 -26 -13 -40t-26.5 -24t-16.5 -24h-46z" />
    <glyph glyph-name="uni1ED6" unicode="&#x1ed6;" horiz-adv-x="604" 
d="M295 -14q-134 0 -204 79.5t-70 214.5q0 89 30.5 154.5t91 102t152.5 36.5q134 0 203 -79.5t69 -213.5q0 -87 -30.5 -153.5t-91.5 -103.5t-150 -37zM294 48q105 0 157.5 64t52.5 168t-52 168.5t-158 64.5q-103 0 -156.5 -62.5t-53.5 -170.5q0 -103 52 -167.5t158 -64.5z
M171 631v8l109 103h29l109 -103v-8h-60l-62 67h-3l-60 -67h-62zM344 784q-23 0 -36.5 8.5t-23 19t-18.5 19t-23 8.5q-17 0 -20.5 -14t-3.5 -39h-42q-1 19 2.5 41t17 36.5t43.5 14.5q23 0 37 -8t23 -19t18.5 -19t23.5 -8q17 0 20 14t3 40h43q1 -23 -3.5 -44.5t-18 -35.5
t-42.5 -14z" />
    <glyph glyph-name="Odieresis" unicode="&#xd6;" horiz-adv-x="604" 
d="M295 -14q-134 0 -204 79.5t-70 214.5q0 89 30.5 154.5t91 102t152.5 36.5q134 0 203 -79.5t69 -213.5q0 -87 -30.5 -153.5t-91.5 -103.5t-150 -37zM294 48q105 0 157.5 64t52.5 168t-52 168.5t-158 64.5q-103 0 -156.5 -62.5t-53.5 -170.5q0 -103 52 -167.5t158 -64.5z
M223 622q-28 0 -38 14.5t-10 33.5q0 18 10 32.5t38 14.5q29 0 38 -14.5t9 -32.5q0 -19 -9 -33.5t-38 -14.5zM380 622q-29 0 -38.5 14.5t-9.5 33.5q0 18 9.5 32.5t38.5 14.5q28 0 37 -14.5t9 -32.5q0 -19 -9 -33.5t-37 -14.5z" />
    <glyph glyph-name="uni1ECC" unicode="&#x1ecc;" horiz-adv-x="604" 
d="M295 -14q-134 0 -204 79.5t-70 214.5q0 89 30.5 154.5t91 102t152.5 36.5q134 0 203 -79.5t69 -213.5q0 -87 -30.5 -153.5t-91.5 -103.5t-150 -37zM294 48q105 0 157.5 64t52.5 168t-52 168.5t-158 64.5q-103 0 -156.5 -62.5t-53.5 -170.5q0 -103 52 -167.5t158 -64.5z
M300 -148q-24 0 -32.5 12t-8.5 28t8.5 28t32.5 12t31.5 -12t7.5 -28t-7.5 -28t-31.5 -12z" />
    <glyph glyph-name="Ograve" unicode="&#xd2;" horiz-adv-x="604" 
d="M295 -14q-134 0 -204 79.5t-70 214.5q0 89 30.5 154.5t91 102t152.5 36.5q134 0 203 -79.5t69 -213.5q0 -87 -30.5 -153.5t-91.5 -103.5t-150 -37zM294 48q105 0 157.5 64t52.5 168t-52 168.5t-158 64.5q-103 0 -156.5 -62.5t-53.5 -170.5q0 -103 52 -167.5t158 -64.5z
M276 610l-78 98v15h59l51 -103v-10h-32z" />
    <glyph glyph-name="uni1ECE" unicode="&#x1ece;" horiz-adv-x="604" 
d="M295 -14q-134 0 -204 79.5t-70 214.5q0 89 30.5 154.5t91 102t152.5 36.5q134 0 203 -79.5t69 -213.5q0 -87 -30.5 -153.5t-91.5 -103.5t-150 -37zM294 48q105 0 157.5 64t52.5 168t-52 168.5t-158 64.5q-103 0 -156.5 -62.5t-53.5 -170.5q0 -103 52 -167.5t158 -64.5z
M272 621v11q4 14 18.5 23t27.5 19.5t13 27.5t-15 23.5t-32 0.5t-25 -26l-32 16q8 29 31.5 42.5t50 12.5t46 -16.5t19.5 -45.5q0 -26 -13 -40t-26.5 -24t-16.5 -24h-46z" />
    <glyph glyph-name="Ohorn" unicode="&#x1a0;" horiz-adv-x="604" 
d="M295 -14q-134 0 -204 79.5t-70 214.5q0 89 30.5 154.5t91 102t152.5 36.5q134 0 203 -79.5t69 -213.5q0 -87 -30.5 -153.5t-91.5 -103.5t-150 -37zM294 48q105 0 157.5 64t52.5 168t-52 168.5t-158 64.5q-103 0 -156.5 -62.5t-53.5 -170.5q0 -103 52 -167.5t158 -64.5z
M372 521l2 42h28q19 0 23.5 7.5t4.5 32.5h56q0 -45 -21 -63.5t-66 -18.5h-27z" />
    <glyph glyph-name="uni1EDA" unicode="&#x1eda;" horiz-adv-x="604" 
d="M295 -14q-134 0 -204 79.5t-70 214.5q0 89 30.5 154.5t91 102t152.5 36.5q134 0 203 -79.5t69 -213.5q0 -87 -30.5 -153.5t-91.5 -103.5t-150 -37zM294 48q105 0 157.5 64t52.5 168t-52 168.5t-158 64.5q-103 0 -156.5 -62.5t-53.5 -170.5q0 -103 52 -167.5t158 -64.5z
M372 521l2 42h28q19 0 23.5 7.5t4.5 32.5h56q0 -45 -21 -63.5t-66 -18.5h-27zM311 610h-32v10l51 103h59v-15z" />
    <glyph glyph-name="uni1EE2" unicode="&#x1ee2;" horiz-adv-x="604" 
d="M295 -14q-134 0 -204 79.5t-70 214.5q0 89 30.5 154.5t91 102t152.5 36.5q134 0 203 -79.5t69 -213.5q0 -87 -30.5 -153.5t-91.5 -103.5t-150 -37zM294 48q105 0 157.5 64t52.5 168t-52 168.5t-158 64.5q-103 0 -156.5 -62.5t-53.5 -170.5q0 -103 52 -167.5t158 -64.5z
M372 521l2 42h28q19 0 23.5 7.5t4.5 32.5h56q0 -45 -21 -63.5t-66 -18.5h-27zM297 -148q-24 0 -32.5 12t-8.5 28t8.5 28t32.5 12t31.5 -12t7.5 -28t-7.5 -28t-31.5 -12z" />
    <glyph glyph-name="uni1EDC" unicode="&#x1edc;" horiz-adv-x="604" 
d="M295 -14q-134 0 -204 79.5t-70 214.5q0 89 30.5 154.5t91 102t152.5 36.5q134 0 203 -79.5t69 -213.5q0 -87 -30.5 -153.5t-91.5 -103.5t-150 -37zM294 48q105 0 157.5 64t52.5 168t-52 168.5t-158 64.5q-103 0 -156.5 -62.5t-53.5 -170.5q0 -103 52 -167.5t158 -64.5z
M372 521l2 42h28q19 0 23.5 7.5t4.5 32.5h56q0 -45 -21 -63.5t-66 -18.5h-27zM276 610l-78 98v15h59l51 -103v-10h-32z" />
    <glyph glyph-name="uni1EDE" unicode="&#x1ede;" horiz-adv-x="604" 
d="M295 -14q-134 0 -204 79.5t-70 214.5q0 89 30.5 154.5t91 102t152.5 36.5q134 0 203 -79.5t69 -213.5q0 -87 -30.5 -153.5t-91.5 -103.5t-150 -37zM294 48q105 0 157.5 64t52.5 168t-52 168.5t-158 64.5q-103 0 -156.5 -62.5t-53.5 -170.5q0 -103 52 -167.5t158 -64.5z
M372 521l2 42h28q19 0 23.5 7.5t4.5 32.5h56q0 -45 -21 -63.5t-66 -18.5h-27zM272 621v11q4 14 18.5 23t27.5 19.5t13 27.5t-15 23.5t-32 0.5t-25 -26l-32 16q8 29 31.5 42.5t50 12.5t46 -16.5t19.5 -45.5q0 -26 -13 -40t-26.5 -24t-16.5 -24h-46z" />
    <glyph glyph-name="uni1EE0" unicode="&#x1ee0;" horiz-adv-x="604" 
d="M295 -14q-134 0 -204 79.5t-70 214.5q0 89 30.5 154.5t91 102t152.5 36.5q134 0 203 -79.5t69 -213.5q0 -87 -30.5 -153.5t-91.5 -103.5t-150 -37zM294 48q105 0 157.5 64t52.5 168t-52 168.5t-158 64.5q-103 0 -156.5 -62.5t-53.5 -170.5q0 -103 52 -167.5t158 -64.5z
M372 521l2 42h28q19 0 23.5 7.5t4.5 32.5h56q0 -45 -21 -63.5t-66 -18.5h-27zM350 621q-23 0 -36.5 8.5t-23 19t-18.5 19t-23 8.5q-17 0 -20.5 -14t-3.5 -39h-42q-1 19 2.5 41t17 36.5t43.5 14.5q23 0 37 -8t23 -19t18.5 -19t23.5 -8q17 0 20 14t3 40h43q1 -23 -3.5 -44.5
t-18 -35.5t-42.5 -14z" />
    <glyph glyph-name="Ohungarumlaut" unicode="&#x150;" horiz-adv-x="598" 
d="M200 639l77 138l56 -27l-102 -125zM340 639l77 138l56 -27l-101 -125zM295 -14q-134 0 -204 79.5t-70 214.5q0 89 30.5 154.5t91 102t152.5 36.5q134 0 203 -79.5t69 -213.5q0 -87 -30.5 -153.5t-91.5 -103.5t-150 -37zM294 48q105 0 157.5 64t52.5 168t-52 168.5
t-158 64.5q-103 0 -156.5 -62.5t-53.5 -170.5q0 -103 52 -167.5t158 -64.5z" />
    <glyph glyph-name="Omacron" unicode="&#x14c;" horiz-adv-x="600" 
d="M295 -14q-134 0 -204 79.5t-70 214.5q0 89 30.5 154.5t91 102t152.5 36.5q134 0 203 -79.5t69 -213.5q0 -87 -30.5 -153.5t-91.5 -103.5t-150 -37zM294 48q105 0 157.5 64t52.5 168t-52 168.5t-158 64.5q-103 0 -156.5 -62.5t-53.5 -170.5q0 -103 52 -167.5t158 -64.5z
M174 620v49h249v-49h-249z" />
    <glyph glyph-name="Oslash" unicode="&#xd8;" horiz-adv-x="600" 
d="M87 -24l40 58q-52 37 -79 100t-27 146q0 89 30.5 154.5t91 102t152.5 36.5q52 0 94.5 -13t75.5 -37l47 68l23 -14l-49 -71q81 -77 81 -226q0 -87 -30.5 -153.5t-91.5 -103.5t-150 -37q-85 0 -145 34l-40 -57zM84 280q0 -63 19.5 -113t59.5 -80l266 384q-25 20 -59 31
t-76 11q-103 0 -156.5 -62.5t-53.5 -170.5zM294 48q105 0 157.5 64t52.5 168q0 54 -13.5 97.5t-41.5 74.5l-263 -380q46 -24 108 -24z" />
    <glyph glyph-name="Otilde" unicode="&#xd5;" horiz-adv-x="604" 
d="M295 -14q-134 0 -204 79.5t-70 214.5q0 89 30.5 154.5t91 102t152.5 36.5q134 0 203 -79.5t69 -213.5q0 -87 -30.5 -153.5t-91.5 -103.5t-150 -37zM294 48q105 0 157.5 64t52.5 168t-52 168.5t-158 64.5q-103 0 -156.5 -62.5t-53.5 -170.5q0 -103 52 -167.5t158 -64.5z
M347 621q-23 0 -36.5 8.5t-23 19t-18.5 19t-23 8.5q-17 0 -20.5 -14t-3.5 -39h-42q-1 19 2.5 41t17 36.5t43.5 14.5q23 0 37 -8t23 -19t18.5 -19t23.5 -8q17 0 20 14t3 40h43q1 -23 -3.5 -44.5t-18 -35.5t-42.5 -14z" />
    <glyph glyph-name="OE" unicode="&#x152;" horiz-adv-x="836" 
d="M369 0q-102 0 -177.5 24t-117 85.5t-41.5 172.5q0 94 41.5 156t117 93.5t177.5 31.5h422v-57h-313v-194h248v-54h-248v-204h323v-54h-432zM358 55h56v451h-56q-117 0 -186.5 -54.5t-69.5 -169.5q0 -94 31.5 -143t89 -66.5t135.5 -17.5z" />
    <glyph glyph-name="P" unicode="P" horiz-adv-x="489" 
d="M127 0h-64v563h214q93 0 142 -45t49 -134q0 -83 -50.5 -128t-140.5 -45h-150v-211zM270 508h-143v-247h143q66 0 102.5 30.5t36.5 92.5q0 64 -35.5 94t-103.5 30z" />
    <glyph glyph-name="Thorn" unicode="&#xde;" horiz-adv-x="483" 
d="M127 0h-64v563h64v-105h144q93 0 142 -45t49 -135q0 -83 -50.5 -128t-140.5 -45h-144v-105zM264 403h-137v-247h137q66 0 102.5 30.5t36.5 92.5q0 64 -35.5 94t-103.5 30z" />
    <glyph glyph-name="Q" unicode="Q" horiz-adv-x="613" 
d="M372 -115q-21 0 -41 6.5t-33 28.5t-15 67q-121 8 -184.5 86.5t-63.5 206.5q0 88 30.5 154t91.5 102.5t152 36.5q90 0 150.5 -36t91.5 -101.5t31 -154.5q0 -123 -60.5 -203t-178.5 -90q0 -21 7.5 -36t36.5 -15q13 0 26.5 8t20.5 8l5 -50q-2 0 -14 -4.5t-27 -9t-26 -4.5z
M308 49q104 0 156.5 63t52.5 170q0 105 -51.5 168.5t-157.5 63.5q-102 0 -155 -61t-53 -171q0 -106 51.5 -169.5t156.5 -63.5z" />
    <glyph glyph-name="R" unicode="R" horiz-adv-x="531" 
d="M62 0v563h186q107 0 165.5 -34t58.5 -127q0 -60 -32.5 -103.5t-99.5 -43.5q42 0 62.5 -18t28 -45.5t8.5 -57t4 -53.5t14.5 -35t39.5 -1v-42q-9 -8 -27.5 -11.5t-38.5 2.5t-33.5 27t-13.5 62q0 62 -7 96t-31.5 48t-76.5 16t-142 0v-243h-65zM127 292h131q79 0 117.5 21
t38.5 85q0 50 -21 73.5t-60.5 30t-97.5 6.5h-108v-216z" />
    <glyph glyph-name="Racute" unicode="&#x154;" horiz-adv-x="531" 
d="M62 0v563h186q107 0 165.5 -34t58.5 -127q0 -60 -32.5 -103.5t-99.5 -43.5q42 0 62.5 -18t28 -45.5t8.5 -57t4 -53.5t14.5 -35t39.5 -1v-42q-9 -8 -27.5 -11.5t-38.5 2.5t-33.5 27t-13.5 62q0 62 -7 96t-31.5 48t-76.5 16t-142 0v-243h-65zM127 292h131q79 0 117.5 21
t38.5 85q0 50 -21 73.5t-60.5 30t-97.5 6.5h-108v-216zM264 610h-32v10l51 103h59v-15z" />
    <glyph glyph-name="Rcaron" unicode="&#x158;" horiz-adv-x="539" 
d="M62 0v563h186q107 0 165.5 -34t58.5 -127q0 -60 -32.5 -103.5t-99.5 -43.5q42 0 62.5 -18t28 -45.5t8.5 -57t4 -53.5t14.5 -35t39.5 -1v-42q-9 -8 -27.5 -11.5t-38.5 2.5t-33.5 27t-13.5 62q0 62 -7 96t-31.5 48t-76.5 16t-142 0v-243h-65zM127 292h131q79 0 117.5 21
t38.5 85q0 50 -21 73.5t-60.5 30t-97.5 6.5h-108v-216zM97 749h69l81 -103l82 103h68l-136 -136h-28z" />
    <glyph glyph-name="uni0156" unicode="&#x156;" horiz-adv-x="531" 
d="M62 0v563h186q107 0 165.5 -34t58.5 -127q0 -60 -32.5 -103.5t-99.5 -43.5q42 0 62.5 -18t28 -45.5t8.5 -57t4 -53.5t14.5 -35t39.5 -1v-42q-9 -8 -27.5 -11.5t-38.5 2.5t-33.5 27t-13.5 62q0 62 -7 96t-31.5 48t-76.5 16t-142 0v-243h-65zM127 292h131q79 0 117.5 21
t38.5 85q0 50 -21 73.5t-60.5 30t-97.5 6.5h-108v-216zM211 -231v48h17q25 0 31.5 11t6.5 28q-27 -3 -39 9t-12 35q0 17 9 29.5t33 12.5q21 0 30.5 -12.5t9.5 -45.5q0 -52 -14.5 -83.5t-52.5 -31.5h-19z" />
    <glyph glyph-name="S" unicode="S" horiz-adv-x="525" 
d="M269 -13q-59 0 -113.5 19.5t-89.5 61t-36 107.5h64q0 -3 2 -17t10.5 -32.5t27.5 -37t53 -30.5t87 -12q59 0 90 17.5t42.5 40t11.5 35.5q1 35 -19 56t-53.5 34t-73.5 23t-79.5 21.5t-72.5 30t-52 48.5t-17 77q2 45 31 77t77.5 49.5t110.5 17.5q57 0 105.5 -20.5
t77.5 -61.5t27 -102h-63q1 38 -14.5 62.5t-40.5 37.5t-51.5 18.5t-46.5 5.5q-63 0 -104 -25t-42 -65q0 -35 20 -56t53.5 -33.5t73.5 -21.5t79.5 -20.5t72.5 -29.5t52 -49t17 -79q-2 -47 -31 -79.5t-77 -50t-109 -17.5z" />
    <glyph glyph-name="Sacute" unicode="&#x15a;" horiz-adv-x="525" 
d="M269 -13q-59 0 -113.5 19.5t-89.5 61t-36 107.5h64q0 -3 2 -17t10.5 -32.5t27.5 -37t53 -30.5t87 -12q59 0 90 17.5t42.5 40t11.5 35.5q1 35 -19 56t-53.5 34t-73.5 23t-79.5 21.5t-72.5 30t-52 48.5t-17 77q2 45 31 77t77.5 49.5t110.5 17.5q57 0 105.5 -20.5
t77.5 -61.5t27 -102h-63q1 38 -14.5 62.5t-40.5 37.5t-51.5 18.5t-46.5 5.5q-63 0 -104 -25t-42 -65q0 -35 20 -56t53.5 -33.5t73.5 -21.5t79.5 -20.5t72.5 -29.5t52 -49t17 -79q-2 -47 -31 -79.5t-77 -50t-109 -17.5zM276 610h-32v10l51 103h59v-15z" />
    <glyph glyph-name="Scaron" unicode="&#x160;" horiz-adv-x="520" 
d="M269 -13q-59 0 -113.5 19.5t-89.5 61t-36 107.5h64q0 -3 2 -17t10.5 -32.5t27.5 -37t53 -30.5t87 -12q59 0 90 17.5t42.5 40t11.5 35.5q1 35 -19 56t-53.5 34t-73.5 23t-79.5 21.5t-72.5 30t-52 48.5t-17 77q2 45 31 77t77.5 49.5t110.5 17.5q57 0 105.5 -20.5
t77.5 -61.5t27 -102h-63q1 38 -14.5 62.5t-40.5 37.5t-51.5 18.5t-46.5 5.5q-63 0 -104 -25t-42 -65q0 -35 20 -56t53.5 -33.5t73.5 -21.5t79.5 -20.5t72.5 -29.5t52 -49t17 -79q-2 -47 -31 -79.5t-77 -50t-109 -17.5zM116 749h69l81 -103l82 103h68l-136 -136h-28z" />
    <glyph glyph-name="Scedilla" unicode="&#x15e;" horiz-adv-x="525" 
d="M269 -13q-59 0 -113.5 19.5t-89.5 61t-36 107.5h64q0 -3 2 -17t10.5 -32.5t27.5 -37t53 -30.5t87 -12q59 0 90 17.5t42.5 40t11.5 35.5q1 35 -19 56t-53.5 34t-73.5 23t-79.5 21.5t-72.5 30t-52 48.5t-17 77q2 45 31 77t77.5 49.5t110.5 17.5q57 0 105.5 -20.5
t77.5 -61.5t27 -102h-63q1 38 -14.5 62.5t-40.5 37.5t-51.5 18.5t-46.5 5.5q-63 0 -104 -25t-42 -65q0 -35 20 -56t53.5 -33.5t73.5 -21.5t79.5 -20.5t72.5 -29.5t52 -49t17 -79q-2 -47 -31 -79.5t-77 -50t-109 -17.5zM156 -132l23 33q13 -14 35 -22t45 -8.5t38 8.5t14 28
q-1 18 -17 24t-37.5 1.5t-37.5 -17.5l-29 19l40 83l34 -14l-40 -62q14 13 36 19t44 3t37.5 -17t15.5 -40q0 -30 -20.5 -48.5t-52 -24.5t-66 2.5t-62.5 32.5z" />
    <glyph glyph-name="uni0218" unicode="&#x218;" horiz-adv-x="525" 
d="M269 -13q-59 0 -113.5 19.5t-89.5 61t-36 107.5h64q0 -3 2 -17t10.5 -32.5t27.5 -37t53 -30.5t87 -12q59 0 90 17.5t42.5 40t11.5 35.5q1 35 -19 56t-53.5 34t-73.5 23t-79.5 21.5t-72.5 30t-52 48.5t-17 77q2 45 31 77t77.5 49.5t110.5 17.5q57 0 105.5 -20.5
t77.5 -61.5t27 -102h-63q1 38 -14.5 62.5t-40.5 37.5t-51.5 18.5t-46.5 5.5q-63 0 -104 -25t-42 -65q0 -35 20 -56t53.5 -33.5t73.5 -21.5t79.5 -20.5t72.5 -29.5t52 -49t17 -79q-2 -47 -31 -79.5t-77 -50t-109 -17.5zM211 -231v48h17q25 0 31.5 11t6.5 28q-27 -3 -39 9
t-12 35q0 17 9 29.5t33 12.5q21 0 30.5 -12.5t9.5 -45.5q0 -52 -14.5 -83.5t-52.5 -31.5h-19z" />
    <glyph glyph-name="T" unicode="T" horiz-adv-x="449" 
d="M10 507v56h425v-56h-180v-507h-64v507h-181z" />
    <glyph glyph-name="Tbar" unicode="&#x166;" horiz-adv-x="449" 
d="M56 280v49h135v178h-181v56h425v-56h-180v-178h134v-49h-134v-280h-64v280h-135z" />
    <glyph glyph-name="Tcaron" unicode="&#x164;" horiz-adv-x="449" 
d="M10 507v56h425v-56h-180v-507h-64v507h-181zM74 749h69l81 -103l82 103h68l-136 -136h-28z" />
    <glyph glyph-name="uni0162" unicode="&#x162;" horiz-adv-x="449" 
d="M10 507v56h425v-56h-180v-507h-64v507h-181zM125 -132l23 33q13 -14 35 -22t45 -8.5t38 8.5t14 28q-1 18 -17 24t-37.5 1.5t-37.5 -17.5l-29 19l40 83l34 -14l-40 -62q14 13 36 19t44 3t37.5 -17t15.5 -40q0 -30 -20.5 -48.5t-52 -24.5t-66 2.5t-62.5 32.5z" />
    <glyph glyph-name="uni021A" unicode="&#x21a;" horiz-adv-x="449" 
d="M10 507v56h425v-56h-180v-507h-64v507h-181zM161 -231v48h17q25 0 31.5 11t6.5 28q-27 -3 -39 9t-12 35q0 17 9 29.5t33 12.5q21 0 30.5 -12.5t9.5 -45.5q0 -52 -14.5 -83.5t-52.5 -31.5h-19z" />
    <glyph glyph-name="U" unicode="U" horiz-adv-x="577" 
d="M286 -14q-113 0 -173.5 66.5t-60.5 187.5v323h66v-323q0 -101 48 -147t120 -46q78 0 123.5 45.5t45.5 147.5v323h66v-323q0 -123 -59.5 -188.5t-175.5 -65.5z" />
    <glyph glyph-name="Uacute" unicode="&#xda;" horiz-adv-x="577" 
d="M286 -14q-113 0 -173.5 66.5t-60.5 187.5v323h66v-323q0 -101 48 -147t120 -46q78 0 123.5 45.5t45.5 147.5v323h66v-323q0 -123 -59.5 -188.5t-175.5 -65.5zM297 610h-32v10l51 103h59v-15z" />
    <glyph glyph-name="Ucircumflex" unicode="&#xdb;" horiz-adv-x="577" 
d="M286 -14q-113 0 -173.5 66.5t-60.5 187.5v323h66v-323q0 -101 48 -147t120 -46q78 0 123.5 45.5t45.5 147.5v323h66v-323q0 -123 -59.5 -188.5t-175.5 -65.5zM164 621v8l109 103h29l109 -103v-8h-60l-62 67h-3l-60 -67h-62z" />
    <glyph glyph-name="Udieresis" unicode="&#xdc;" horiz-adv-x="577" 
d="M286 -14q-113 0 -173.5 66.5t-60.5 187.5v323h66v-323q0 -101 48 -147t120 -46q78 0 123.5 45.5t45.5 147.5v323h66v-323q0 -123 -59.5 -188.5t-175.5 -65.5zM211 622q-28 0 -38 14.5t-10 33.5q0 18 10 32.5t38 14.5q29 0 38 -14.5t9 -32.5q0 -19 -9 -33.5t-38 -14.5z
M368 622q-29 0 -38.5 14.5t-9.5 33.5q0 18 9.5 32.5t38.5 14.5q28 0 37 -14.5t9 -32.5q0 -19 -9 -33.5t-37 -14.5z" />
    <glyph glyph-name="uni1EE4" unicode="&#x1ee4;" horiz-adv-x="577" 
d="M286 -14q-113 0 -173.5 66.5t-60.5 187.5v323h66v-323q0 -101 48 -147t120 -46q78 0 123.5 45.5t45.5 147.5v323h66v-323q0 -123 -59.5 -188.5t-175.5 -65.5zM285 -148q-24 0 -32.5 12t-8.5 28t8.5 28t32.5 12t31.5 -12t7.5 -28t-7.5 -28t-31.5 -12z" />
    <glyph glyph-name="Ugrave" unicode="&#xd9;" horiz-adv-x="577" 
d="M286 -14q-113 0 -173.5 66.5t-60.5 187.5v323h66v-323q0 -101 48 -147t120 -46q78 0 123.5 45.5t45.5 147.5v323h66v-323q0 -123 -59.5 -188.5t-175.5 -65.5zM261 610l-78 98v15h59l51 -103v-10h-32z" />
    <glyph glyph-name="uni1EE6" unicode="&#x1ee6;" horiz-adv-x="577" 
d="M286 -14q-113 0 -173.5 66.5t-60.5 187.5v323h66v-323q0 -101 48 -147t120 -46q78 0 123.5 45.5t45.5 147.5v323h66v-323q0 -123 -59.5 -188.5t-175.5 -65.5zM260 618v11q4 14 18.5 23t27.5 19.5t13 27.5t-15 23.5t-32 0.5t-25 -26l-32 16q8 29 31.5 42.5t50 12.5
t46 -16.5t19.5 -45.5q0 -26 -13 -40t-26.5 -24t-16.5 -24h-46z" />
    <glyph glyph-name="Uhorn" unicode="&#x1af;" horiz-adv-x="577" 
d="M493 521l2 42h28q19 0 23.5 7.5t4.5 32.5h56q0 -45 -21 -63.5t-66 -18.5h-27zM286 -14q-113 0 -173.5 66.5t-60.5 187.5v323h66v-323q0 -101 48 -147t120 -46q78 0 123.5 45.5t45.5 147.5v323h66v-323q0 -123 -59.5 -188.5t-175.5 -65.5z" />
    <glyph glyph-name="uni1EE8" unicode="&#x1ee8;" horiz-adv-x="577" 
d="M493 521l2 42h28q19 0 23.5 7.5t4.5 32.5h56q0 -45 -21 -63.5t-66 -18.5h-27zM286 -14q-113 0 -173.5 66.5t-60.5 187.5v323h66v-323q0 -101 48 -147t120 -46q78 0 123.5 45.5t45.5 147.5v323h66v-323q0 -123 -59.5 -188.5t-175.5 -65.5zM291 610h-32v10l51 103h59v-15z
" />
    <glyph glyph-name="uni1EF0" unicode="&#x1ef0;" horiz-adv-x="577" 
d="M493 521l2 42h28q19 0 23.5 7.5t4.5 32.5h56q0 -45 -21 -63.5t-66 -18.5h-27zM286 -14q-113 0 -173.5 66.5t-60.5 187.5v323h66v-323q0 -101 48 -147t120 -46q78 0 123.5 45.5t45.5 147.5v323h66v-323q0 -123 -59.5 -188.5t-175.5 -65.5zM285 -148q-24 0 -32.5 12
t-8.5 28t8.5 28t32.5 12t31.5 -12t7.5 -28t-7.5 -28t-31.5 -12z" />
    <glyph glyph-name="uni1EEA" unicode="&#x1eea;" horiz-adv-x="577" 
d="M493 521l2 42h28q19 0 23.5 7.5t4.5 32.5h56q0 -45 -21 -63.5t-66 -18.5h-27zM286 -14q-113 0 -173.5 66.5t-60.5 187.5v323h66v-323q0 -101 48 -147t120 -46q78 0 123.5 45.5t45.5 147.5v323h66v-323q0 -123 -59.5 -188.5t-175.5 -65.5zM268 610l-78 98v15h59l51 -103
v-10h-32z" />
    <glyph glyph-name="uni1EEC" unicode="&#x1eec;" horiz-adv-x="577" 
d="M493 521l2 42h28q19 0 23.5 7.5t4.5 32.5h56q0 -45 -21 -63.5t-66 -18.5h-27zM286 -14q-113 0 -173.5 66.5t-60.5 187.5v323h66v-323q0 -101 48 -147t120 -46q78 0 123.5 45.5t45.5 147.5v323h66v-323q0 -123 -59.5 -188.5t-175.5 -65.5zM260 618v11q4 14 18.5 23
t27.5 19.5t13 27.5t-15 23.5t-32 0.5t-25 -26l-32 16q8 29 31.5 42.5t50 12.5t46 -16.5t19.5 -45.5q0 -26 -13 -40t-26.5 -24t-16.5 -24h-46z" />
    <glyph glyph-name="uni1EEE" unicode="&#x1eee;" horiz-adv-x="577" 
d="M493 521l2 42h28q19 0 23.5 7.5t4.5 32.5h56q0 -45 -21 -63.5t-66 -18.5h-27zM286 -14q-113 0 -173.5 66.5t-60.5 187.5v323h66v-323q0 -101 48 -147t120 -46q78 0 123.5 45.5t45.5 147.5v323h66v-323q0 -123 -59.5 -188.5t-175.5 -65.5zM340 624q-23 0 -36.5 8.5t-23 19
t-18.5 19t-23 8.5q-17 0 -20.5 -14t-3.5 -39h-42q-1 19 2.5 41t17 36.5t43.5 14.5q23 0 37 -8t23 -19t18.5 -19t23.5 -8q17 0 20 14t3 40h43q1 -23 -3.5 -44.5t-18 -35.5t-42.5 -14z" />
    <glyph glyph-name="Uhungarumlaut" unicode="&#x170;" horiz-adv-x="572" 
d="M178 639l77 138l56 -27l-101 -125zM319 639l77 138l55 -27l-101 -125zM286 -14q-113 0 -173.5 66.5t-60.5 187.5v323h66v-323q0 -101 48 -147t120 -46q78 0 123.5 45.5t45.5 147.5v323h66v-323q0 -123 -59.5 -188.5t-175.5 -65.5z" />
    <glyph glyph-name="Umacron" unicode="&#x16a;" horiz-adv-x="572" 
d="M286 -14q-113 0 -173.5 66.5t-60.5 187.5v323h66v-323q0 -101 48 -147t120 -46q78 0 123.5 45.5t45.5 147.5v323h66v-323q0 -123 -59.5 -188.5t-175.5 -65.5zM162 620v49h249v-49h-249z" />
    <glyph glyph-name="Uogonek" unicode="&#x172;" horiz-adv-x="577" 
d="M295 -194q-37 0 -62.5 21.5t-25.5 60.5q0 32 19 57t44 41q-106 5 -162 71.5t-56 182.5v323h66v-323q0 -101 48 -147t120 -46q78 0 123.5 45.5t45.5 147.5v323h66v-323q0 -108 -46.5 -172t-136.5 -78q-12 -6 -31.5 -18.5t-35 -31.5t-15.5 -44q0 -18 11 -29.5t32 -11.5
q18 0 28 7.5t14.5 15.5l4.5 8l38 -31l-9.5 -12.5t-29 -24.5t-50.5 -12z" />
    <glyph glyph-name="Uring" unicode="&#x16e;" horiz-adv-x="577" 
d="M286 -14q-113 0 -173.5 66.5t-60.5 187.5v323h66v-323q0 -101 48 -147t120 -46q78 0 123.5 45.5t45.5 147.5v323h66v-323q0 -123 -59.5 -188.5t-175.5 -65.5zM283 592q-44 0 -67.5 24.5t-23.5 65.5t23 66t68 25q43 0 67.5 -25t24.5 -66q0 -39 -24.5 -64.5t-67.5 -25.5z
M282 632q25 0 38.5 15t13.5 36q0 22 -13.5 37.5t-38.5 15.5t-38.5 -15.5t-13.5 -37.5t14.5 -36.5t37.5 -14.5z" />
    <glyph glyph-name="Utilde" unicode="&#x168;" horiz-adv-x="577" 
d="M286 -14q-113 0 -173.5 66.5t-60.5 187.5v323h66v-323q0 -101 48 -147t120 -46q78 0 123.5 45.5t45.5 147.5v323h66v-323q0 -123 -59.5 -188.5t-175.5 -65.5zM340 624q-23 0 -36.5 8.5t-23 19t-18.5 19t-23 8.5q-17 0 -20.5 -14t-3.5 -39h-42q-1 19 2.5 41t17 36.5
t43.5 14.5q23 0 37 -8t23 -19t18.5 -19t23.5 -8q17 0 20 14t3 40h43q1 -23 -3.5 -44.5t-18 -35.5t-42.5 -14z" />
    <glyph glyph-name="V" unicode="V" horiz-adv-x="516" 
d="M433 563h70l-199 -563h-108l-198 563h70l182 -533z" />
    <glyph glyph-name="W" unicode="W" horiz-adv-x="839" 
d="M749 563h70l-166 -563h-105l-136 478l-140 -478h-105l-160 563h68l145 -533l158 533h69l153 -533z" />
    <glyph glyph-name="Wacute" unicode="&#x1e82;" horiz-adv-x="839" 
d="M749 563h70l-166 -563h-105l-136 478l-140 -478h-105l-160 563h68l145 -533l158 533h69l153 -533zM430 610h-32v10l51 103h59v-15z" />
    <glyph glyph-name="Wcircumflex" unicode="&#x174;" horiz-adv-x="839" 
d="M749 563h70l-166 -563h-105l-136 478l-140 -478h-105l-160 563h68l145 -533l158 533h69l153 -533zM288 631v8l109 103h29l109 -103v-8h-60l-62 67h-3l-60 -67h-62z" />
    <glyph glyph-name="Wdieresis" unicode="&#x1e84;" horiz-adv-x="839" 
d="M749 563h70l-166 -563h-105l-136 478l-140 -478h-105l-160 563h68l145 -533l158 533h69l153 -533zM334 622q-28 0 -38 14.5t-10 33.5q0 18 10 32.5t38 14.5q29 0 38 -14.5t9 -32.5q0 -19 -9 -33.5t-38 -14.5zM491 622q-29 0 -38.5 14.5t-9.5 33.5q0 18 9.5 32.5
t38.5 14.5q28 0 37 -14.5t9 -32.5q0 -19 -9 -33.5t-37 -14.5z" />
    <glyph glyph-name="Wgrave" unicode="&#x1e80;" horiz-adv-x="839" 
d="M749 563h70l-166 -563h-105l-136 478l-140 -478h-105l-160 563h68l145 -533l158 533h69l153 -533zM374 610l-78 98v15h59l51 -103v-10h-32z" />
    <glyph glyph-name="X" unicode="X" horiz-adv-x="549" 
d="M25 0l207 298l-187 265h78l151 -223l150 223h78l-186 -265l208 -298h-77l-173 255l-174 -255h-75z" />
    <glyph glyph-name="Y" unicode="Y" horiz-adv-x="430" 
d="M178 0v206l-191 357h72l153 -298l153 298h71l-193 -357v-206h-65z" />
    <glyph glyph-name="Yacute" unicode="&#xdd;" horiz-adv-x="430" 
d="M178 0v206l-191 357h72l153 -298l153 298h71l-193 -357v-206h-65zM220 610h-32v10l51 103h59v-15z" />
    <glyph glyph-name="Ycircumflex" unicode="&#x176;" horiz-adv-x="430" 
d="M178 0v206l-191 357h72l153 -298l153 298h71l-193 -357v-206h-65zM89 631v8l109 103h29l109 -103v-8h-60l-62 67h-3l-60 -67h-62z" />
    <glyph glyph-name="Ydieresis" unicode="&#x178;" horiz-adv-x="430" 
d="M178 0v206l-191 357h72l153 -298l153 298h71l-193 -357v-206h-65zM135 622q-28 0 -38 14.5t-10 33.5q0 18 10 32.5t38 14.5q29 0 38 -14.5t9 -32.5q0 -19 -9 -33.5t-38 -14.5zM292 622q-29 0 -38.5 14.5t-9.5 33.5q0 18 9.5 32.5t38.5 14.5q28 0 37 -14.5t9 -32.5
q0 -19 -9 -33.5t-37 -14.5z" />
    <glyph glyph-name="uni1EF4" unicode="&#x1ef4;" horiz-adv-x="430" 
d="M178 0v206l-191 357h72l153 -298l153 298h71l-193 -357v-206h-65zM210 -148q-24 0 -32.5 12t-8.5 28t8.5 28t32.5 12t31.5 -12t7.5 -28t-7.5 -28t-31.5 -12z" />
    <glyph glyph-name="Ygrave" unicode="&#x1ef2;" horiz-adv-x="430" 
d="M178 0v206l-191 357h72l153 -298l153 298h71l-193 -357v-206h-65zM185 610l-78 98v15h59l51 -103v-10h-32z" />
    <glyph glyph-name="uni1EF6" unicode="&#x1ef6;" horiz-adv-x="430" 
d="M178 0v206l-191 357h72l153 -298l153 298h71l-193 -357v-206h-65zM186 618v11q4 14 18.5 23t27.5 19.5t13 27.5t-15 23.5t-32 0.5t-25 -26l-32 16q8 29 31.5 42.5t50 12.5t46 -16.5t19.5 -45.5q0 -26 -13 -40t-26.5 -24t-16.5 -24h-46z" />
    <glyph glyph-name="uni1EF8" unicode="&#x1ef8;" horiz-adv-x="430" 
d="M178 0v206l-191 357h72l153 -298l153 298h71l-193 -357v-206h-65zM264 621q-23 0 -36.5 8.5t-23 19t-18.5 19t-23 8.5q-17 0 -20.5 -14t-3.5 -39h-42q-1 19 2.5 41t17 36.5t43.5 14.5q23 0 37 -8t23 -19t18.5 -19t23.5 -8q17 0 20 14t3 40h43q1 -23 -3.5 -44.5t-18 -35.5
t-42.5 -14z" />
    <glyph glyph-name="Z" unicode="Z" horiz-adv-x="544" 
d="M37 0v54l380 452h-349v57h431v-55l-378 -451h376v-57h-460z" />
    <glyph glyph-name="Zacute" unicode="&#x179;" horiz-adv-x="544" 
d="M37 0v54l380 452h-349v57h431v-55l-378 -451h376v-57h-460zM291 610h-32v10l51 103h59v-15z" />
    <glyph glyph-name="Zcaron" unicode="&#x17d;" horiz-adv-x="544" 
d="M37 0v54l380 452h-349v57h431v-55l-378 -451h376v-57h-460zM134 749h69l81 -103l82 103h68l-136 -136h-28z" />
    <glyph glyph-name="Zdotaccent" unicode="&#x17b;" horiz-adv-x="544" 
d="M37 0v54l380 452h-349v57h431v-55l-378 -451h376v-57h-460zM278 636q-28 0 -38 14.5t-10 33.5t10 33t38 14q29 0 38 -14t9 -33t-9 -33.5t-38 -14.5z" />
    <glyph glyph-name="I.ss01" horiz-adv-x="501" 
d="M223 -71q-2 126 -4.5 211t-11 137.5t-28 79.5t-54.5 36t-90 9v48q69 0 107.5 14t55.5 43t21 74.5t4 109.5h49q0 -64 3.5 -109.5t21 -74.5t57.5 -43t112 -14v-48q-57 0 -93.5 -9t-57.5 -36t-30.5 -79.5t-12 -137.5t-2.5 -212zM245 216h5q0 79 3 124.5t19 64.5t55 20
q-39 0 -55.5 9t-19 28.5t-2.5 50.5h-5q0 -31 -2.5 -50.5t-18.5 -28.5t-55 -9q41 -1 56.5 -20t17.5 -64t2 -125z" />
    <glyph glyph-name="a" unicode="a" horiz-adv-x="427" 
d="M181 -9q-56 0 -92 27.5t-53.5 74.5t-17.5 107q0 92 40.5 151.5t122.5 59.5q42 0 70.5 -14.5t46 -35.5t25.5 -40h1v86h66v-407h-55l-10 79h-2q-9 -20 -26 -40.5t-45.5 -34t-70.5 -13.5zM206 48q62 0 89.5 41t27.5 110q0 74 -28.5 113t-88.5 39q-66 0 -94.5 -43.5
t-28.5 -107.5q0 -67 29 -109.5t94 -42.5z" />
    <glyph glyph-name="aacute" unicode="&#xe1;" horiz-adv-x="427" 
d="M181 -9q-56 0 -92 27.5t-53.5 74.5t-17.5 107q0 92 40.5 151.5t122.5 59.5q42 0 70.5 -14.5t46 -35.5t25.5 -40h1v86h66v-407h-55l-10 79h-2q-9 -20 -26 -40.5t-45.5 -34t-70.5 -13.5zM206 48q62 0 89.5 41t27.5 110q0 74 -28.5 113t-88.5 39q-66 0 -94.5 -43.5
t-28.5 -107.5q0 -67 29 -109.5t94 -42.5zM229 450h-32v10l51 103h59v-15z" />
    <glyph glyph-name="abreve" unicode="&#x103;" horiz-adv-x="427" 
d="M181 -9q-56 0 -92 27.5t-53.5 74.5t-17.5 107q0 92 40.5 151.5t122.5 59.5q42 0 70.5 -14.5t46 -35.5t25.5 -40h1v86h66v-407h-55l-10 79h-2q-9 -20 -26 -40.5t-45.5 -34t-70.5 -13.5zM206 48q62 0 89.5 41t27.5 110q0 74 -28.5 113t-88.5 39q-66 0 -94.5 -43.5
t-28.5 -107.5q0 -67 29 -109.5t94 -42.5zM208 460q-55 0 -86.5 24.5t-31.5 65.5h47q0 -31 21 -40t49 -9q29 0 49 9t20 40h48q0 -41 -30.5 -65.5t-85.5 -24.5z" />
    <glyph glyph-name="uni1EAF" unicode="&#x1eaf;" horiz-adv-x="427" 
d="M181 -9q-56 0 -92 27.5t-53.5 74.5t-17.5 107q0 92 40.5 151.5t122.5 59.5q42 0 70.5 -14.5t46 -35.5t25.5 -40h1v86h66v-407h-55l-10 79h-2q-9 -20 -26 -40.5t-45.5 -34t-70.5 -13.5zM206 48q62 0 89.5 41t27.5 110q0 74 -28.5 113t-88.5 39q-66 0 -94.5 -43.5
t-28.5 -107.5q0 -67 29 -109.5t94 -42.5zM208 460q-55 0 -86.5 24.5t-31.5 65.5h47q0 -31 21 -40t49 -9q29 0 49 9t20 40h48q0 -41 -30.5 -65.5t-85.5 -24.5zM223 565h-32v10l51 103h59v-15z" />
    <glyph glyph-name="uni1EB7" unicode="&#x1eb7;" horiz-adv-x="427" 
d="M181 -9q-56 0 -92 27.5t-53.5 74.5t-17.5 107q0 92 40.5 151.5t122.5 59.5q42 0 70.5 -14.5t46 -35.5t25.5 -40h1v86h66v-407h-55l-10 79h-2q-9 -20 -26 -40.5t-45.5 -34t-70.5 -13.5zM206 48q62 0 89.5 41t27.5 110q0 74 -28.5 113t-88.5 39q-66 0 -94.5 -43.5
t-28.5 -107.5q0 -67 29 -109.5t94 -42.5zM208 460q-55 0 -86.5 24.5t-31.5 65.5h47q0 -31 21 -40t49 -9q29 0 49 9t20 40h48q0 -41 -30.5 -65.5t-85.5 -24.5zM204 -148q-24 0 -32.5 12t-8.5 28t8.5 28t32.5 12t31.5 -12t7.5 -28t-7.5 -28t-31.5 -12z" />
    <glyph glyph-name="uni1EB1" unicode="&#x1eb1;" horiz-adv-x="427" 
d="M181 -9q-56 0 -92 27.5t-53.5 74.5t-17.5 107q0 92 40.5 151.5t122.5 59.5q42 0 70.5 -14.5t46 -35.5t25.5 -40h1v86h66v-407h-55l-10 79h-2q-9 -20 -26 -40.5t-45.5 -34t-70.5 -13.5zM206 48q62 0 89.5 41t27.5 110q0 74 -28.5 113t-88.5 39q-66 0 -94.5 -43.5
t-28.5 -107.5q0 -67 29 -109.5t94 -42.5zM208 460q-55 0 -86.5 24.5t-31.5 65.5h47q0 -31 21 -40t49 -9q29 0 49 9t20 40h48q0 -41 -30.5 -65.5t-85.5 -24.5zM184 565l-78 98v15h59l51 -103v-10h-32z" />
    <glyph glyph-name="uni1EB3" unicode="&#x1eb3;" horiz-adv-x="427" 
d="M181 -9q-56 0 -92 27.5t-53.5 74.5t-17.5 107q0 92 40.5 151.5t122.5 59.5q42 0 70.5 -14.5t46 -35.5t25.5 -40h1v86h66v-407h-55l-10 79h-2q-9 -20 -26 -40.5t-45.5 -34t-70.5 -13.5zM206 48q62 0 89.5 41t27.5 110q0 74 -28.5 113t-88.5 39q-66 0 -94.5 -43.5
t-28.5 -107.5q0 -67 29 -109.5t94 -42.5zM208 460q-55 0 -86.5 24.5t-31.5 65.5h47q0 -31 21 -40t49 -9q29 0 49 9t20 40h48q0 -41 -30.5 -65.5t-85.5 -24.5zM185 561v11q4 14 18.5 23t27.5 19.5t13 27.5t-15 23.5t-32 0.5t-25 -26l-32 16q8 29 31.5 42.5t50 12.5t46 -16.5
t19.5 -45.5q0 -26 -13 -40t-26.5 -24t-16.5 -24h-46z" />
    <glyph glyph-name="uni1EB5" unicode="&#x1eb5;" horiz-adv-x="427" 
d="M181 -9q-56 0 -92 27.5t-53.5 74.5t-17.5 107q0 92 40.5 151.5t122.5 59.5q42 0 70.5 -14.5t46 -35.5t25.5 -40h1v86h66v-407h-55l-10 79h-2q-9 -20 -26 -40.5t-45.5 -34t-70.5 -13.5zM206 48q62 0 89.5 41t27.5 110q0 74 -28.5 113t-88.5 39q-66 0 -94.5 -43.5
t-28.5 -107.5q0 -67 29 -109.5t94 -42.5zM206 460q-55 0 -86.5 24.5t-31.5 65.5h47q0 -31 21 -40t49 -9q29 0 49 9t20 40h48q0 -41 -30.5 -65.5t-85.5 -24.5zM258 602q-23 0 -36.5 8.5t-23 19t-18.5 19t-23 8.5q-17 0 -20.5 -14t-3.5 -39h-42q-1 19 2.5 41t17 36.5
t43.5 14.5q23 0 37 -8t23 -19t18.5 -19t23.5 -8q17 0 20 14t3 40h43q1 -23 -3.5 -44.5t-18 -35.5t-42.5 -14z" />
    <glyph glyph-name="acircumflex" unicode="&#xe2;" horiz-adv-x="427" 
d="M181 -9q-56 0 -92 27.5t-53.5 74.5t-17.5 107q0 92 40.5 151.5t122.5 59.5q42 0 70.5 -14.5t46 -35.5t25.5 -40h1v86h66v-407h-55l-10 79h-2q-9 -20 -26 -40.5t-45.5 -34t-70.5 -13.5zM206 48q62 0 89.5 41t27.5 110q0 74 -28.5 113t-88.5 39q-66 0 -94.5 -43.5
t-28.5 -107.5q0 -67 29 -109.5t94 -42.5zM84 462v8l109 103h29l109 -103v-8h-60l-62 67h-3l-60 -67h-62z" />
    <glyph glyph-name="uni1EA5" unicode="&#x1ea5;" horiz-adv-x="427" 
d="M181 -9q-56 0 -92 27.5t-53.5 74.5t-17.5 107q0 92 40.5 151.5t122.5 59.5q42 0 70.5 -14.5t46 -35.5t25.5 -40h1v86h66v-407h-55l-10 79h-2q-9 -20 -26 -40.5t-45.5 -34t-70.5 -13.5zM206 48q62 0 89.5 41t27.5 110q0 74 -28.5 113t-88.5 39q-66 0 -94.5 -43.5
t-28.5 -107.5q0 -67 29 -109.5t94 -42.5zM85 461v8l109 103h29l109 -103v-8h-60l-62 67h-3l-60 -67h-62zM341 550h-32v10l51 103h59v-15z" />
    <glyph glyph-name="uni1EAD" unicode="&#x1ead;" horiz-adv-x="427" 
d="M181 -9q-56 0 -92 27.5t-53.5 74.5t-17.5 107q0 92 40.5 151.5t122.5 59.5q42 0 70.5 -14.5t46 -35.5t25.5 -40h1v86h66v-407h-55l-10 79h-2q-9 -20 -26 -40.5t-45.5 -34t-70.5 -13.5zM206 48q62 0 89.5 41t27.5 110q0 74 -28.5 113t-88.5 39q-66 0 -94.5 -43.5
t-28.5 -107.5q0 -67 29 -109.5t94 -42.5zM84 462v8l109 103h29l109 -103v-8h-60l-62 67h-3l-60 -67h-62zM204 -148q-24 0 -32.5 12t-8.5 28t8.5 28t32.5 12t31.5 -12t7.5 -28t-7.5 -28t-31.5 -12z" />
    <glyph glyph-name="uni1EA7" unicode="&#x1ea7;" horiz-adv-x="427" 
d="M181 -9q-56 0 -92 27.5t-53.5 74.5t-17.5 107q0 92 40.5 151.5t122.5 59.5q42 0 70.5 -14.5t46 -35.5t25.5 -40h1v86h66v-407h-55l-10 79h-2q-9 -20 -26 -40.5t-45.5 -34t-70.5 -13.5zM206 48q62 0 89.5 41t27.5 110q0 74 -28.5 113t-88.5 39q-66 0 -94.5 -43.5
t-28.5 -107.5q0 -67 29 -109.5t94 -42.5zM67 551l-78 98v15h59l51 -103v-10h-32zM84 461v8l109 103h29l109 -103v-8h-60l-62 67h-3l-60 -67h-62z" />
    <glyph glyph-name="uni1EA9" unicode="&#x1ea9;" horiz-adv-x="427" 
d="M181 -9q-56 0 -92 27.5t-53.5 74.5t-17.5 107q0 92 40.5 151.5t122.5 59.5q42 0 70.5 -14.5t46 -35.5t25.5 -40h1v86h66v-407h-55l-10 79h-2q-9 -20 -26 -40.5t-45.5 -34t-70.5 -13.5zM206 48q62 0 89.5 41t27.5 110q0 74 -28.5 113t-88.5 39q-66 0 -94.5 -43.5
t-28.5 -107.5q0 -67 29 -109.5t94 -42.5zM85 462v8l109 103h29l109 -103v-8h-60l-62 67h-3l-60 -67h-62zM299 549v11q4 14 18.5 23t27.5 19.5t13 27.5t-15 23.5t-32 0.5t-25 -26l-32 16q8 29 31.5 42.5t50 12.5t46 -16.5t19.5 -45.5q0 -26 -13 -40t-26.5 -24t-16.5 -24h-46z
" />
    <glyph glyph-name="uni1EAB" unicode="&#x1eab;" horiz-adv-x="427" 
d="M181 -9q-56 0 -92 27.5t-53.5 74.5t-17.5 107q0 92 40.5 151.5t122.5 59.5q42 0 70.5 -14.5t46 -35.5t25.5 -40h1v86h66v-407h-55l-10 79h-2q-9 -20 -26 -40.5t-45.5 -34t-70.5 -13.5zM206 48q62 0 89.5 41t27.5 110q0 74 -28.5 113t-88.5 39q-66 0 -94.5 -43.5
t-28.5 -107.5q0 -67 29 -109.5t94 -42.5zM84 462v8l109 103h29l109 -103v-8h-60l-62 67h-3l-60 -67h-62zM257 615q-23 0 -36.5 8.5t-23 19t-18.5 19t-23 8.5q-17 0 -20.5 -14t-3.5 -39h-42q-1 19 2.5 41t17 36.5t43.5 14.5q23 0 37 -8t23 -19t18.5 -19t23.5 -8q17 0 20 14
t3 40h43q1 -23 -3.5 -44.5t-18 -35.5t-42.5 -14z" />
    <glyph glyph-name="adieresis" unicode="&#xe4;" horiz-adv-x="480" 
d="M146 456q-28 0 -38 14.5t-10 33.5q0 18 10 32.5t38 14.5q29 0 38 -14.5t9 -32.5q0 -19 -9 -33.5t-38 -14.5zM303 456q-29 0 -38.5 14.5t-9.5 33.5q0 18 9.5 32.5t38.5 14.5q28 0 37 -14.5t9 -32.5q0 -19 -9 -33.5t-37 -14.5zM201 -9q-59 0 -99 28.5t-59.5 77t-19.5 105.5
q0 60 20 107.5t60 76t98 28.5q52 0 88.5 -22t57.5 -57v72h65v-313q0 -31 10 -42t24 -10t25 7l5 -39q-2 -1 -17 -10t-43 -9q-39 0 -54 25t-15 59q-21 -37 -57 -60.5t-89 -23.5zM219 45q63 0 94 43.5t31 114.5t-31.5 114.5t-93.5 43.5q-70 0 -100.5 -46t-30.5 -112
q0 -68 31.5 -113t99.5 -45z" />
    <glyph glyph-name="uni1EA1" unicode="&#x1ea1;" horiz-adv-x="427" 
d="M181 -9q-56 0 -92 27.5t-53.5 74.5t-17.5 107q0 92 40.5 151.5t122.5 59.5q42 0 70.5 -14.5t46 -35.5t25.5 -40h1v86h66v-407h-55l-10 79h-2q-9 -20 -26 -40.5t-45.5 -34t-70.5 -13.5zM206 48q62 0 89.5 41t27.5 110q0 74 -28.5 113t-88.5 39q-66 0 -94.5 -43.5
t-28.5 -107.5q0 -67 29 -109.5t94 -42.5zM204 -148q-24 0 -32.5 12t-8.5 28t8.5 28t32.5 12t31.5 -12t7.5 -28t-7.5 -28t-31.5 -12z" />
    <glyph glyph-name="agrave" unicode="&#xe0;" horiz-adv-x="427" 
d="M181 -9q-56 0 -92 27.5t-53.5 74.5t-17.5 107q0 92 40.5 151.5t122.5 59.5q42 0 70.5 -14.5t46 -35.5t25.5 -40h1v86h66v-407h-55l-10 79h-2q-9 -20 -26 -40.5t-45.5 -34t-70.5 -13.5zM206 48q62 0 89.5 41t27.5 110q0 74 -28.5 113t-88.5 39q-66 0 -94.5 -43.5
t-28.5 -107.5q0 -67 29 -109.5t94 -42.5zM204 450l-78 98v15h59l51 -103v-10h-32z" />
    <glyph glyph-name="uni1EA3" unicode="&#x1ea3;" horiz-adv-x="427" 
d="M181 -9q-56 0 -92 27.5t-53.5 74.5t-17.5 107q0 92 40.5 151.5t122.5 59.5q42 0 70.5 -14.5t46 -35.5t25.5 -40h1v86h66v-407h-55l-10 79h-2q-9 -20 -26 -40.5t-45.5 -34t-70.5 -13.5zM206 48q62 0 89.5 41t27.5 110q0 74 -28.5 113t-88.5 39q-66 0 -94.5 -43.5
t-28.5 -107.5q0 -67 29 -109.5t94 -42.5zM188 465v11q4 14 18.5 23t27.5 19.5t13 27.5t-15 23.5t-32 0.5t-25 -26l-32 16q8 29 31.5 42.5t50 12.5t46 -16.5t19.5 -45.5q0 -26 -13 -40t-26.5 -24t-16.5 -24h-46z" />
    <glyph glyph-name="amacron" unicode="&#x101;" horiz-adv-x="427" 
d="M181 -9q-56 0 -92 27.5t-53.5 74.5t-17.5 107q0 92 40.5 151.5t122.5 59.5q42 0 70.5 -14.5t46 -35.5t25.5 -40h1v86h66v-407h-55l-10 79h-2q-9 -20 -26 -40.5t-45.5 -34t-70.5 -13.5zM206 48q62 0 89.5 41t27.5 110q0 74 -28.5 113t-88.5 39q-66 0 -94.5 -43.5
t-28.5 -107.5q0 -67 29 -109.5t94 -42.5zM86 455v49h249v-49h-249z" />
    <glyph glyph-name="aogonek" unicode="&#x105;" horiz-adv-x="427" 
d="M181 -9q-56 0 -92 27.5t-53.5 74.5t-17.5 107q0 92 40.5 151.5t122.5 59.5q42 0 70.5 -14.5t46 -35.5t25.5 -40h1v86h66v-407h-55l-10 79h-2q-9 -20 -26 -40.5t-45.5 -34t-70.5 -13.5zM206 48q62 0 89.5 41t27.5 110q0 74 -28.5 113t-88.5 39q-66 0 -94.5 -43.5
t-28.5 -107.5q0 -67 29 -109.5t94 -42.5zM342 -199q-36 0 -62 21.5t-26 60.5q0 34 20.5 60.5t47.5 44t47.5 26l20.5 8.5v-29l-13 -7t-30 -20.5t-30 -32.5t-13 -42q0 -18 11 -29.5t32 -11.5q17 0 27.5 7.5t14.5 15.5l4 8l39 -31l-9.5 -12.5t-29.5 -24.5t-51 -12z" />
    <glyph glyph-name="aring" unicode="&#xe5;" horiz-adv-x="427" 
d="M181 -9q-56 0 -92 27.5t-53.5 74.5t-17.5 107q0 92 40.5 151.5t122.5 59.5q42 0 70.5 -14.5t46 -35.5t25.5 -40h1v86h66v-407h-55l-10 79h-2q-9 -20 -26 -40.5t-45.5 -34t-70.5 -13.5zM206 48q62 0 89.5 41t27.5 110q0 74 -28.5 113t-88.5 39q-66 0 -94.5 -43.5
t-28.5 -107.5q0 -67 29 -109.5t94 -42.5zM208 467q-44 0 -67.5 24.5t-23.5 65.5t23 66t68 25q43 0 67.5 -25t24.5 -66q0 -39 -24.5 -64.5t-67.5 -25.5zM207 507q25 0 38.5 15t13.5 36q0 22 -13.5 37.5t-38.5 15.5t-38.5 -15.5t-13.5 -37.5t14.5 -36.5t37.5 -14.5z" />
    <glyph glyph-name="atilde" unicode="&#xe3;" horiz-adv-x="427" 
d="M181 -9q-56 0 -92 27.5t-53.5 74.5t-17.5 107q0 92 40.5 151.5t122.5 59.5q42 0 70.5 -14.5t46 -35.5t25.5 -40h1v86h66v-407h-55l-10 79h-2q-9 -20 -26 -40.5t-45.5 -34t-70.5 -13.5zM206 48q62 0 89.5 41t27.5 110q0 74 -28.5 113t-88.5 39q-66 0 -94.5 -43.5
t-28.5 -107.5q0 -67 29 -109.5t94 -42.5zM262 470q-23 0 -36.5 8.5t-23 19t-18.5 19t-23 8.5q-17 0 -20.5 -14t-3.5 -39h-42q-1 19 2.5 41t17 36.5t43.5 14.5q23 0 37 -8t23 -19t18.5 -19t23.5 -8q17 0 20 14t3 40h43q1 -23 -3.5 -44.5t-18 -35.5t-42.5 -14z" />
    <glyph glyph-name="ae" unicode="&#xe6;" horiz-adv-x="731" 
d="M148 0q-55 0 -88 28.5t-33 76.5q0 45 27 70t69 38t84 22q45 10 67.5 17t30.5 15.5t8 22.5q0 37 -29.5 57.5t-68.5 20.5q-24 0 -48 -9t-40.5 -28.5t-17.5 -50.5h-61q4 48 29.5 78.5t62.5 44.5t77 14q45 0 85 -19t55 -58q22 34 60.5 56t93.5 22q50 0 90 -23.5t64.5 -65.5
t27.5 -97v-25h-317q0 -69 35 -109.5t99 -40.5q48 0 80.5 24t41.5 66l62 -9q-15 -60 -62.5 -99t-121.5 -39q-55 0 -94 21t-63 55.5t-33 75.5q-4 -36 -25.5 -71.5t-58.5 -58t-88 -22.5zM378 246h250q0 16 -6 37t-19.5 40.5t-36.5 33t-57 13.5q-42 0 -70 -18.5t-42.5 -47
t-18.5 -58.5zM168 50q46 1 78 27t48.5 68.5t16.5 91.5q-11 -9 -35 -15.5t-50 -12.5q-36 -9 -67 -20t-49.5 -29.5t-17.5 -48.5q0 -30 22 -46t54 -15z" />
    <glyph glyph-name="b" unicode="b" horiz-adv-x="476" 
d="M264 -10q-40 0 -67.5 13.5t-45 31.5t-26.5 34t-11 21h-2l-10 -90h-56v563h66l1 -258h2q2 5 10 21t25 35t44.5 32.5t68.5 13.5q59 0 98.5 -27t59.5 -74.5t20 -107.5t-20 -107t-59.5 -74t-97.5 -27zM248 47q48 0 76 22t41 56.5t13 72.5q0 39 -14 73t-44 55.5t-77 21.5
q-59 0 -94 -40.5t-35 -109.5q0 -70 37.5 -110.5t96.5 -40.5z" />
    <glyph glyph-name="c" unicode="c" horiz-adv-x="452" 
d="M225 -10q-57 0 -102 24t-71 70t-26 111q2 64 27.5 112t70.5 74.5t103 26.5q54 0 94 -20t64 -54t30 -75h-59q-10 44 -43.5 68t-83.5 24q-64 0 -101.5 -42.5t-38.5 -110.5q0 -69 36.5 -109.5t102.5 -40.5q48 0 83 24t45 69h59q-6 -42 -30.5 -76t-65 -54.5t-94.5 -20.5z" />
    <glyph glyph-name="cacute" unicode="&#x107;" horiz-adv-x="452" 
d="M225 -10q-57 0 -102 24t-71 70t-26 111q2 64 27.5 112t70.5 74.5t103 26.5q54 0 94 -20t64 -54t30 -75h-59q-10 44 -43.5 68t-83.5 24q-64 0 -101.5 -42.5t-38.5 -110.5q0 -69 36.5 -109.5t102.5 -40.5q48 0 83 24t45 69h59q-6 -42 -30.5 -76t-65 -54.5t-94.5 -20.5z
M222 458h-32v10l51 103h59v-15z" />
    <glyph glyph-name="ccaron" unicode="&#x10d;" horiz-adv-x="452" 
d="M225 -10q-57 0 -102 24t-71 70t-26 111q2 64 27.5 112t70.5 74.5t103 26.5q54 0 94 -20t64 -54t30 -75h-59q-10 44 -43.5 68t-83.5 24q-64 0 -101.5 -42.5t-38.5 -110.5q0 -69 36.5 -109.5t102.5 -40.5q48 0 83 24t45 69h59q-6 -42 -30.5 -76t-65 -54.5t-94.5 -20.5z
M71 597h69l81 -103l82 103h68l-136 -136h-28z" />
    <glyph glyph-name="ccedilla" unicode="&#xe7;" horiz-adv-x="452" 
d="M225 -10q-57 0 -102 24t-71 70t-26 111q2 64 27.5 112t70.5 74.5t103 26.5q54 0 94 -20t64 -54t30 -75h-59q-10 44 -43.5 68t-83.5 24q-64 0 -101.5 -42.5t-38.5 -110.5q0 -69 36.5 -109.5t102.5 -40.5q48 0 83 24t45 69h59q-6 -42 -30.5 -76t-65 -54.5t-94.5 -20.5z
M125 -127l23 33q13 -14 35 -22t45 -8.5t38 8.5t14 28q-1 18 -17 24t-37.5 1.5t-37.5 -17.5l-29 19l40 83l34 -14l-40 -62q14 13 36 19t44 3t37.5 -17t15.5 -40q0 -30 -20.5 -48.5t-52 -24.5t-66 2.5t-62.5 32.5z" />
    <glyph glyph-name="cdotaccent" unicode="&#x10b;" horiz-adv-x="452" 
d="M225 -10q-57 0 -102 24t-71 70t-26 111q2 64 27.5 112t70.5 74.5t103 26.5q54 0 94 -20t64 -54t30 -75h-59q-10 44 -43.5 68t-83.5 24q-64 0 -101.5 -42.5t-38.5 -110.5q0 -69 36.5 -109.5t102.5 -40.5q48 0 83 24t45 69h59q-6 -42 -30.5 -76t-65 -54.5t-94.5 -20.5z
M222 456q-28 0 -38 14.5t-10 33.5t10 33t38 14q29 0 38 -14t9 -33t-9 -33.5t-38 -14.5z" />
    <glyph glyph-name="d" unicode="d" horiz-adv-x="487" 
d="M223 -10q-59 0 -98.5 27t-59 74.5t-19.5 106.5q0 91 45 150t133 59q41 0 68.5 -13.5t44.5 -32.5t25 -35t10 -21h2l1 258h66v-563h-56l-10 90h-2q-2 -5 -11 -21t-26.5 -34t-45 -31.5t-67.5 -13.5zM239 47q59 0 96.5 40.5t37.5 110.5q0 69 -35 109.5t-94 40.5
q-47 0 -77 -21.5t-44 -55.5t-14 -73q0 -38 13 -72.5t41 -56.5t76 -22z" />
    <glyph glyph-name="eth" unicode="&#xf0;" horiz-adv-x="494" 
d="M249 -10q-67 0 -113 29t-70 74t-26.5 96t16 96.5t58.5 74.5t100 29q41 0 71.5 -14t52 -35t35 -41.5t19.5 -34.5l6 -14h1q-8 55 -39.5 110.5t-70.5 98.5l-59 -36l-25 27l58 35q-47 45 -87 59l41 55q32 -14 59.5 -33t51.5 -42l72 44l25 -27l-72 -44q46 -55 71.5 -122.5
t28.5 -135.5t-18 -124t-67 -90.5t-119 -34.5zM397 164q-1 53 -23 90.5t-56.5 58t-73 23.5t-72 -11.5t-53.5 -47t-18 -83.5q3 -54 30.5 -89.5t67.5 -50.5t82 -9t74 35.5t42 83.5z" />
    <glyph glyph-name="dcaron" unicode="&#x10f;" horiz-adv-x="541" 
d="M467 424l33 147h64l-60 -147h-37zM223 -10q-59 0 -98.5 27t-59 74.5t-19.5 106.5q0 91 45 150t133 59q41 0 68.5 -13.5t44.5 -32.5t25 -35t10 -21h2l1 258h66v-563h-56l-10 90h-2q-2 -5 -11 -21t-26.5 -34t-45 -31.5t-67.5 -13.5zM239 47q59 0 96.5 40.5t37.5 110.5
q0 69 -35 109.5t-94 40.5q-47 0 -77 -21.5t-44 -55.5t-14 -73q0 -38 13 -72.5t41 -56.5t76 -22z" />
    <glyph glyph-name="dcroat" unicode="&#x111;" horiz-adv-x="489" 
d="M222 -10q-60 0 -99 27t-59 74.5t-20 106.5q0 91 45.5 150t132.5 59q41 0 69 -13.5t44.5 -32.5t25 -35t9.5 -21h2l1 160h-150v44h150v54h66v-54h33v-44h-33v-465h-55l-11 90h-2q-2 -5 -11 -21t-26.5 -34t-45 -31.5t-66.5 -13.5zM237 47q60 0 97 40.5t37 110.5
q0 69 -35 109.5t-94 40.5q-47 0 -76.5 -21.5t-43.5 -55.5t-14 -73q0 -38 12.5 -72.5t41 -56.5t75.5 -22z" />
    <glyph glyph-name="e" unicode="e" horiz-adv-x="451" 
d="M223 -10q-67 0 -110.5 30.5t-64 79t-20.5 100.5q0 57 22.5 104.5t66 75.5t104.5 28q78 0 130 -50.5t56 -135.5q1 -4 1 -11.5v-13.5h-318q0 -71 34.5 -111.5t97.5 -40.5q47 0 80.5 24t41.5 65h63q-10 -62 -59 -103t-125 -41zM92 232h250q0 21 -11.5 50t-38 50.5
t-72.5 21.5q-42 0 -69 -18t-41 -46t-18 -58z" />
    <glyph glyph-name="eacute" unicode="&#xe9;" horiz-adv-x="451" 
d="M223 -10q-67 0 -110.5 30.5t-64 79t-20.5 100.5q0 57 22.5 104.5t66 75.5t104.5 28q78 0 130 -50.5t56 -135.5q1 -4 1 -11.5v-13.5h-318q0 -71 34.5 -111.5t97.5 -40.5q47 0 80.5 24t41.5 65h63q-10 -62 -59 -103t-125 -41zM92 232h250q0 21 -11.5 50t-38 50.5
t-72.5 21.5q-42 0 -69 -18t-41 -46t-18 -58zM228 450h-32v10l51 103h59v-15z" />
    <glyph glyph-name="ecaron" unicode="&#x11b;" horiz-adv-x="451" 
d="M223 -10q-67 0 -110.5 30.5t-64 79t-20.5 100.5q0 57 22.5 104.5t66 75.5t104.5 28q78 0 130 -50.5t56 -135.5q1 -4 1 -11.5v-13.5h-318q0 -71 34.5 -111.5t97.5 -40.5q47 0 80.5 24t41.5 65h63q-10 -62 -59 -103t-125 -41zM92 232h250q0 21 -11.5 50t-38 50.5
t-72.5 21.5q-42 0 -69 -18t-41 -46t-18 -58zM66 591h69l81 -92l82 92h68v-14l-136 -122h-28l-136 122v14z" />
    <glyph glyph-name="ecircumflex" unicode="&#xea;" horiz-adv-x="451" 
d="M223 -10q-67 0 -110.5 30.5t-64 79t-20.5 100.5q0 57 22.5 104.5t66 75.5t104.5 28q78 0 130 -50.5t56 -135.5q1 -4 1 -11.5v-13.5h-318q0 -71 34.5 -111.5t97.5 -40.5q47 0 80.5 24t41.5 65h63q-10 -62 -59 -103t-125 -41zM92 232h250q0 21 -11.5 50t-38 50.5
t-72.5 21.5q-42 0 -69 -18t-41 -46t-18 -58zM95 459v8l109 103h29l109 -103v-8h-60l-62 67h-3l-60 -67h-62z" />
    <glyph glyph-name="uni1EBF" unicode="&#x1ebf;" horiz-adv-x="451" 
d="M223 -10q-67 0 -110.5 30.5t-64 79t-20.5 100.5q0 57 22.5 104.5t66 75.5t104.5 28q78 0 130 -50.5t56 -135.5q1 -4 1 -11.5v-13.5h-318q0 -71 34.5 -111.5t97.5 -40.5q47 0 80.5 24t41.5 65h63q-10 -62 -59 -103t-125 -41zM92 232h250q0 21 -11.5 50t-38 50.5
t-72.5 21.5q-42 0 -69 -18t-41 -46t-18 -58zM95 459v8l109 103h29l109 -103v-8h-60l-62 67h-3l-60 -67h-62zM351 548h-32v10l51 103h59v-15z" />
    <glyph glyph-name="uni1EC7" unicode="&#x1ec7;" horiz-adv-x="451" 
d="M223 -10q-67 0 -110.5 30.5t-64 79t-20.5 100.5q0 57 22.5 104.5t66 75.5t104.5 28q78 0 130 -50.5t56 -135.5q1 -4 1 -11.5v-13.5h-318q0 -71 34.5 -111.5t97.5 -40.5q47 0 80.5 24t41.5 65h63q-10 -62 -59 -103t-125 -41zM92 232h250q0 21 -11.5 50t-38 50.5
t-72.5 21.5q-42 0 -69 -18t-41 -46t-18 -58zM95 459v8l109 103h29l109 -103v-8h-60l-62 67h-3l-60 -67h-62zM219 -148q-24 0 -32.5 12t-8.5 28t8.5 28t32.5 12t31.5 -12t7.5 -28t-7.5 -28t-31.5 -12z" />
    <glyph glyph-name="uni1EC1" unicode="&#x1ec1;" horiz-adv-x="451" 
d="M223 -10q-67 0 -110.5 30.5t-64 79t-20.5 100.5q0 57 22.5 104.5t66 75.5t104.5 28q78 0 130 -50.5t56 -135.5q1 -4 1 -11.5v-13.5h-318q0 -71 34.5 -111.5t97.5 -40.5q47 0 80.5 24t41.5 65h63q-10 -62 -59 -103t-125 -41zM92 232h250q0 21 -11.5 50t-38 50.5
t-72.5 21.5q-42 0 -69 -18t-41 -46t-18 -58zM78 549l-78 98v15h59l51 -103v-10h-32zM95 459v8l109 103h29l109 -103v-8h-60l-62 67h-3l-60 -67h-62z" />
    <glyph glyph-name="uni1EC3" unicode="&#x1ec3;" horiz-adv-x="451" 
d="M223 -10q-67 0 -110.5 30.5t-64 79t-20.5 100.5q0 57 22.5 104.5t66 75.5t104.5 28q78 0 130 -50.5t56 -135.5q1 -4 1 -11.5v-13.5h-318q0 -71 34.5 -111.5t97.5 -40.5q47 0 80.5 24t41.5 65h63q-10 -62 -59 -103t-125 -41zM92 232h250q0 21 -11.5 50t-38 50.5
t-72.5 21.5q-42 0 -69 -18t-41 -46t-18 -58zM94 459v8l109 103h29l109 -103v-8h-60l-62 67h-3l-60 -67h-62zM308 546v11q4 14 18.5 23t27.5 19.5t13 27.5t-15 23.5t-32 0.5t-25 -26l-32 16q8 29 31.5 42.5t50 12.5t46 -16.5t19.5 -45.5q0 -26 -13 -40t-26.5 -24t-16.5 -24
h-46z" />
    <glyph glyph-name="uni1EC5" unicode="&#x1ec5;" horiz-adv-x="451" 
d="M223 -10q-67 0 -110.5 30.5t-64 79t-20.5 100.5q0 57 22.5 104.5t66 75.5t104.5 28q78 0 130 -50.5t56 -135.5q1 -4 1 -11.5v-13.5h-318q0 -71 34.5 -111.5t97.5 -40.5q47 0 80.5 24t41.5 65h63q-10 -62 -59 -103t-125 -41zM92 232h250q0 21 -11.5 50t-38 50.5
t-72.5 21.5q-42 0 -69 -18t-41 -46t-18 -58zM95 459v8l109 103h29l109 -103v-8h-60l-62 67h-3l-60 -67h-62zM268 612q-23 0 -36.5 8.5t-23 19t-18.5 19t-23 8.5q-17 0 -20.5 -14t-3.5 -39h-42q-1 19 2.5 41t17 36.5t43.5 14.5q23 0 37 -8t23 -19t18.5 -19t23.5 -8
q17 0 20 14t3 40h43q1 -23 -3.5 -44.5t-18 -35.5t-42.5 -14z" />
    <glyph glyph-name="edieresis" unicode="&#xeb;" horiz-adv-x="451" 
d="M223 -10q-67 0 -110.5 30.5t-64 79t-20.5 100.5q0 57 22.5 104.5t66 75.5t104.5 28q78 0 130 -50.5t56 -135.5q1 -4 1 -11.5v-13.5h-318q0 -71 34.5 -111.5t97.5 -40.5q47 0 80.5 24t41.5 65h63q-10 -62 -59 -103t-125 -41zM92 232h250q0 21 -11.5 50t-38 50.5
t-72.5 21.5q-42 0 -69 -18t-41 -46t-18 -58zM141 456q-28 0 -38 14.5t-10 33.5q0 18 10 32.5t38 14.5q29 0 38 -14.5t9 -32.5q0 -19 -9 -33.5t-38 -14.5zM298 456q-29 0 -38.5 14.5t-9.5 33.5q0 18 9.5 32.5t38.5 14.5q28 0 37 -14.5t9 -32.5q0 -19 -9 -33.5t-37 -14.5z" />
    <glyph glyph-name="edotaccent" unicode="&#x117;" horiz-adv-x="451" 
d="M223 -10q-67 0 -110.5 30.5t-64 79t-20.5 100.5q0 57 22.5 104.5t66 75.5t104.5 28q78 0 130 -50.5t56 -135.5q1 -4 1 -11.5v-13.5h-318q0 -71 34.5 -111.5t97.5 -40.5q47 0 80.5 24t41.5 65h63q-10 -62 -59 -103t-125 -41zM92 232h250q0 21 -11.5 50t-38 50.5
t-72.5 21.5q-42 0 -69 -18t-41 -46t-18 -58zM218 456q-28 0 -38 14.5t-10 33.5t10 33t38 14q29 0 38 -14t9 -33t-9 -33.5t-38 -14.5z" />
    <glyph glyph-name="uni1EB9" unicode="&#x1eb9;" horiz-adv-x="451" 
d="M223 -10q-67 0 -110.5 30.5t-64 79t-20.5 100.5q0 57 22.5 104.5t66 75.5t104.5 28q78 0 130 -50.5t56 -135.5q1 -4 1 -11.5v-13.5h-318q0 -71 34.5 -111.5t97.5 -40.5q47 0 80.5 24t41.5 65h63q-10 -62 -59 -103t-125 -41zM92 232h250q0 21 -11.5 50t-38 50.5
t-72.5 21.5q-42 0 -69 -18t-41 -46t-18 -58zM219 -148q-24 0 -32.5 12t-8.5 28t8.5 28t32.5 12t31.5 -12t7.5 -28t-7.5 -28t-31.5 -12z" />
    <glyph glyph-name="egrave" unicode="&#xe8;" horiz-adv-x="451" 
d="M223 -10q-67 0 -110.5 30.5t-64 79t-20.5 100.5q0 57 22.5 104.5t66 75.5t104.5 28q78 0 130 -50.5t56 -135.5q1 -4 1 -11.5v-13.5h-318q0 -71 34.5 -111.5t97.5 -40.5q47 0 80.5 24t41.5 65h63q-10 -62 -59 -103t-125 -41zM92 232h250q0 21 -11.5 50t-38 50.5
t-72.5 21.5q-42 0 -69 -18t-41 -46t-18 -58zM204 450l-78 98v15h59l51 -103v-10h-32z" />
    <glyph glyph-name="uni1EBB" unicode="&#x1ebb;" horiz-adv-x="451" 
d="M223 -10q-67 0 -110.5 30.5t-64 79t-20.5 100.5q0 57 22.5 104.5t66 75.5t104.5 28q78 0 130 -50.5t56 -135.5q1 -4 1 -11.5v-13.5h-318q0 -71 34.5 -111.5t97.5 -40.5q47 0 80.5 24t41.5 65h63q-10 -62 -59 -103t-125 -41zM92 232h250q0 21 -11.5 50t-38 50.5
t-72.5 21.5q-42 0 -69 -18t-41 -46t-18 -58zM167 506v11q4 14 18.5 23t27.5 19.5t13 27.5t-15 23.5t-32 0.5t-25 -26l-32 16q8 29 31.5 42.5t50 12.5t46 -16.5t19.5 -45.5q0 -26 -13 -40t-26.5 -24t-16.5 -24h-46z" />
    <glyph glyph-name="emacron" unicode="&#x113;" horiz-adv-x="443" 
d="M223 -10q-67 0 -110.5 30.5t-64 79t-20.5 100.5q0 57 22.5 104.5t66 75.5t104.5 28q78 0 130 -50.5t56 -135.5q1 -4 1 -11.5v-13.5h-318q0 -71 34.5 -111.5t97.5 -40.5q47 0 80.5 24t41.5 65h63q-10 -62 -59 -103t-125 -41zM92 232h250q0 21 -11.5 50t-38 50.5
t-72.5 21.5q-42 0 -69 -18t-41 -46t-18 -58zM95 466v49h249v-49h-249z" />
    <glyph glyph-name="eogonek" unicode="&#x119;" horiz-adv-x="451" 
d="M223 -10q-67 0 -110.5 30.5t-64 79t-20.5 100.5q0 57 22.5 104.5t66 75.5t104.5 28q78 0 130 -50.5t56 -135.5q1 -4 1 -11.5v-13.5h-318q0 -71 34.5 -111.5t97.5 -40.5q47 0 80.5 24t41.5 65h63q-10 -62 -59 -103t-125 -41zM92 232h250q0 21 -11.5 50t-38 50.5
t-72.5 21.5q-42 0 -69 -18t-41 -46t-18 -58zM236 -193q-36 0 -62 21.5t-26 60.5q0 34 20.5 60.5t47.5 44t47.5 26l20.5 8.5v-29l-13 -7t-30 -20.5t-30 -32.5t-13 -42q0 -18 11 -29.5t32 -11.5q17 0 27.5 7.5t14.5 15.5l4 8l39 -31l-9.5 -12.5t-29.5 -24.5t-51 -12z" />
    <glyph glyph-name="uni1EBD" unicode="&#x1ebd;" horiz-adv-x="451" 
d="M223 -10q-67 0 -110.5 30.5t-64 79t-20.5 100.5q0 57 22.5 104.5t66 75.5t104.5 28q78 0 130 -50.5t56 -135.5q1 -4 1 -11.5v-13.5h-318q0 -71 34.5 -111.5t97.5 -40.5q47 0 80.5 24t41.5 65h63q-10 -62 -59 -103t-125 -41zM92 232h250q0 21 -11.5 50t-38 50.5
t-72.5 21.5q-42 0 -69 -18t-41 -46t-18 -58zM273 470q-23 0 -36.5 8.5t-23 19t-18.5 19t-23 8.5q-17 0 -20.5 -14t-3.5 -39h-42q-1 19 2.5 41t17 36.5t43.5 14.5q23 0 37 -8t23 -19t18.5 -19t23.5 -8q17 0 20 14t3 40h43q1 -23 -3.5 -44.5t-18 -35.5t-42.5 -14z" />
    <glyph glyph-name="f" unicode="f" horiz-adv-x="268" 
d="M76 -3v362h-63v48h63v90q0 35 14.5 55t51.5 20h121v-53h-122v-112h115v-48h-115v-362h-65z" />
    <glyph glyph-name="g" unicode="g" horiz-adv-x="454" 
d="M138 -168v61h203v197h-2q-2 -5 -10.5 -21t-26 -34t-45 -31.5t-66.5 -13.5q-59 0 -98.5 27.5t-59.5 74.5t-20 106q0 92 45.5 150.5t133.5 58.5q41 0 68.5 -13.5t44 -32.5t24.5 -35t10 -21h2v102h66v-477q0 -48 -18 -73t-65 -25h-186zM205 47q60 0 97 40.5t37 110.5
q0 69 -35 109.5t-93 40.5q-48 0 -77.5 -21.5t-43.5 -55.5t-14 -73q0 -38 12.5 -72.5t41 -56.5t75.5 -22z" />
    <glyph glyph-name="gbreve" unicode="&#x11f;" horiz-adv-x="447" 
d="M218 465q-55 0 -86.5 24.5t-31.5 65.5h47q0 -30 21 -39.5t49 -9.5q29 0 49 9t20 40h48q0 -40 -30.5 -65t-85.5 -25zM138 -168v61h203v197h-2q-2 -5 -10.5 -21t-26 -34t-45 -31.5t-66.5 -13.5q-59 0 -98.5 27.5t-59.5 74.5t-20 106q0 92 45.5 150.5t133.5 58.5
q41 0 68.5 -13.5t44 -32.5t24.5 -35t10 -21h2v102h66v-477q0 -48 -18 -73t-65 -25h-186zM205 45q60 0 97 41.5t37 111.5q0 69 -35 110.5t-93 41.5q-48 0 -77.5 -22t-43.5 -56.5t-14 -73.5q0 -38 12.5 -73t41 -57.5t75.5 -22.5z" />
    <glyph glyph-name="uni0123" unicode="&#x123;" horiz-adv-x="447" 
d="M229 458h-32v10l51 103h59v-15zM138 -168v61h203v197h-2q-2 -5 -10.5 -21t-26 -34t-45 -31.5t-66.5 -13.5q-59 0 -98.5 27.5t-59.5 74.5t-20 106q0 92 45.5 150.5t133.5 58.5q41 0 68.5 -13.5t44 -32.5t24.5 -35t10 -21h2v102h66v-477q0 -48 -18 -73t-65 -25h-186z
M205 45q60 0 97 41.5t37 111.5q0 69 -35 110.5t-93 41.5q-48 0 -77.5 -22t-43.5 -56.5t-14 -73.5q0 -38 12.5 -73t41 -57.5t75.5 -22.5z" />
    <glyph glyph-name="gdotaccent" unicode="&#x121;" horiz-adv-x="447" 
d="M210 463q-28 0 -38 14.5t-10 33.5t10 33t38 14q29 0 38 -14t9 -33t-9 -33.5t-38 -14.5zM138 -168v61h203v197h-2q-2 -5 -10.5 -21t-26 -34t-45 -31.5t-66.5 -13.5q-59 0 -98.5 27.5t-59.5 74.5t-20 106q0 92 45.5 150.5t133.5 58.5q41 0 68.5 -13.5t44 -32.5t24.5 -35
t10 -21h2v102h66v-477q0 -48 -18 -73t-65 -25h-186zM205 45q60 0 97 41.5t37 111.5q0 69 -35 110.5t-93 41.5q-48 0 -77.5 -22t-43.5 -56.5t-14 -73.5q0 -38 12.5 -73t41 -57.5t75.5 -22.5z" />
    <glyph glyph-name="h" unicode="h" horiz-adv-x="453" 
d="M42 0v563h65v-257h2q2 5 9.5 21t23.5 34.5t43 32t68 13.5q52 0 83 -19.5t46.5 -51t20.5 -67.5t5 -68v-201h-63v201q0 66 -22.5 107t-87.5 41q-46 0 -74 -21.5t-41 -57t-13 -77.5v-193h-65z" />
    <glyph glyph-name="hbar" unicode="&#x127;" horiz-adv-x="468" 
d="M55 0v465h-53v44h53v54h64v-54h132v-44h-132v-173q2 6 9.5 24.5t24 39.5t43.5 36.5t67 15.5q55 0 86 -21t45 -55.5t18 -73.5t4 -75v-183h-64v178q0 52 -8.5 90.5t-32 60t-68.5 21.5q-63 0 -93.5 -48.5t-30.5 -125.5v-176h-64z" />
    <glyph glyph-name="i" unicode="i" horiz-adv-x="177" 
d="M89 451q-22 0 -29.5 11.5t-7.5 29.5q0 15 7.5 26.5t29.5 11.5t29.5 -11.5t7.5 -26.5q0 -18 -7.5 -29.5t-29.5 -11.5zM57 0v407h64v-407h-64z" />
    <glyph glyph-name="dotlessi" unicode="&#x131;" horiz-adv-x="169" 
d="M52 0v408h64v-408h-64z" />
    <glyph glyph-name="iacute" unicode="&#xed;" horiz-adv-x="167" 
d="M90 458h-31v9l51 103h58v-14zM43 0v408h64v-408h-64z" />
    <glyph glyph-name="icircumflex" unicode="&#xee;" horiz-adv-x="203" 
d="M-25 459v8l109 103h28l110 -103v-8h-61l-61 67h-4l-59 -67h-62zM67 0v408h64v-408h-64z" />
    <glyph glyph-name="idieresis" unicode="&#xef;" horiz-adv-x="225" 
d="M30 456q-29 0 -38.5 14.5t-9.5 33.5q0 18 9.5 32.5t38.5 14.5q28 0 37 -14.5t9 -32.5q0 -19 -9 -33.5t-37 -14.5zM186 456q-28 0 -38 14.5t-10 33.5q0 18 10 32.5t38 14.5q29 0 38 -14.5t9 -32.5q0 -19 -9 -33.5t-38 -14.5zM76 0v408h64v-408h-64z" />
    <glyph glyph-name="i.loclTRK" horiz-adv-x="172" 
d="M52 0v408h64v-408h-64zM86 456q-28 0 -38 14.5t-10 33.5t10 33t38 14q29 0 38 -14t9 -33t-9 -33.5t-38 -14.5z" />
    <glyph glyph-name="uni1ECB" unicode="&#x1ecb;" horiz-adv-x="177" 
d="M89 451q-22 0 -29.5 11.5t-7.5 29.5q0 15 7.5 26.5t29.5 11.5t29.5 -11.5t7.5 -26.5q0 -18 -7.5 -29.5t-29.5 -11.5zM57 0v407h64v-407h-64zM83 -148q-24 0 -32.5 12t-8.5 28t8.5 28t32.5 12t31.5 -12t7.5 -28t-7.5 -28t-31.5 -12z" />
    <glyph glyph-name="igrave" unicode="&#xec;" horiz-adv-x="174" 
d="M72 455l-78 98v15h58l51 -103v-10h-31zM55 0v407h64v-407h-64z" />
    <glyph glyph-name="uni1EC9" unicode="&#x1ec9;" horiz-adv-x="233" 
d="M86 458v10q5 14 19 23.5t27.5 20t13.5 27.5q0 16 -15 22.5t-32 1t-25 -26.5l-32 16q8 29 31 43t50 13t46 -16.5t19 -45.5q0 -27 -12.5 -41t-26.5 -23.5t-16 -23.5h-47zM75 0v407h64v-407h-64z" />
    <glyph glyph-name="imacron" unicode="&#x12b;" horiz-adv-x="177" 
d="M-28 467v48h199v-48h-199zM42 0v408h64v-408h-64z" />
    <glyph glyph-name="iogonek" unicode="&#x12f;" horiz-adv-x="195" 
d="M86 453q-23 0 -30.5 12t-7.5 30q0 16 7.5 27.5t30.5 11.5q22 0 30 -11.5t8 -27.5q0 -18 -8 -30t-30 -12zM53 0v408l8 -2.5t24 -2.5q17 0 24.5 2.5l7.5 2.5v-408l-13.5 -7t-31.5 -20.5t-32 -32.5t-14 -42q0 -18 11 -29.5t32 -11.5q18 0 28 7.5t14.5 15.5l4.5 8l38 -31
l-9.5 -12.5t-29 -24.5t-50.5 -12q-37 0 -62.5 21.5t-25.5 60.5q0 37 25 65t52 45h-1z" />
    <glyph glyph-name="itilde" unicode="&#x129;" horiz-adv-x="198" 
d="M147 470q-23 0 -37 8.5t-23.5 19t-18.5 19t-23 8.5q-16 0 -20 -14t-3 -39h-43q-1 20 2.5 41.5t17 36.5t43.5 15q23 0 37 -8.5t23.5 -19t18.5 -19t23 -8.5q17 0 20 14t3 40h43q1 -23 -3 -44.5t-18 -35.5t-42 -14zM62 0v408h64v-408h-64z" />
    <glyph glyph-name="j" unicode="j" horiz-adv-x="194" 
d="M109 454q-23 0 -30.5 12t-7.5 30q0 16 7.5 28t30.5 12t30.5 -12t7.5 -28q0 -18 -7.5 -30t-30.5 -12zM76 407h65v-500q0 -35 -14.5 -55t-51.5 -20h-69v53h70v522z" />
    <glyph glyph-name="k" unicode="k" horiz-adv-x="429" 
d="M113 -1h-65v564h65v-379l222 224h82l-178 -176l182 -233h-79l-149 188l-80 -79v-109z" />
    <glyph glyph-name="uni0137" unicode="&#x137;" horiz-adv-x="440" 
d="M118 -1h-65v564h65v-379l222 224h82l-178 -176l182 -233h-79l-149 188l-80 -79v-109zM161 -212v48h17q25 0 31.5 11t6.5 28q-27 -2 -39 10t-12 34q0 18 9 30t33 12q21 0 30.5 -12.5t9.5 -45.5q0 -51 -14.5 -83t-52.5 -32h-19z" />
    <glyph glyph-name="l" unicode="l" horiz-adv-x="167" 
d="M52 0v563h63v-563h-63z" />
    <glyph glyph-name="lacute" unicode="&#x13a;" horiz-adv-x="167" 
d="M52 0v563h63v-563h-63zM104 632h-32v10l51 103h59v-15z" />
    <glyph glyph-name="lcaron" unicode="&#x13e;" horiz-adv-x="239" 
d="M160 424l34 147h63l-59 -147h-38zM52 0v563h63v-563h-63z" />
    <glyph glyph-name="uni013C" unicode="&#x13c;" horiz-adv-x="228" 
d="M62 -212v48h17q25 0 31.5 11t6.5 28q-27 -3 -39 9t-12 35q0 17 9 29.5t33 12.5q21 0 30.5 -12.5t9.5 -45.5q0 -52 -14.5 -83.5t-52.5 -31.5h-19zM57 0v563h63v-563h-63z" />
    <glyph glyph-name="lslash" unicode="&#x142;" horiz-adv-x="223" 
d="M52 0v254l-59 -41v60l59 41v249h63v-206l73 50v-60l-73 -50v-297h-63z" />
    <glyph glyph-name="m" unicode="m" horiz-adv-x="660" 
d="M38 0v407h55l4 -101h2q2 7 9 23.5t22 34.5t39 30.5t61 12.5q56 0 82.5 -31t35.5 -70h2q3 7 11 23.5t24 34.5t41.5 30.5t62.5 12.5q39 0 64 -15.5t38.5 -41t19.5 -53.5t7 -54t1 -42v-201h-56v201q0 16 -2 41t-10 49.5t-27.5 41t-55.5 16.5q-40 0 -64 -22t-35 -57.5
t-11 -76.5v-193h-56v201q0 16 -2 41t-10 49.5t-27.5 41t-55.5 16.5q-40 0 -64 -22t-35 -57.5t-11 -76.5v-193h-59z" />
    <glyph glyph-name="n" unicode="n" horiz-adv-x="446" 
d="M38 0v407h55l11 -101h2q1 5 9 21t24.5 34.5t43.5 32t69 13.5q53 0 83.5 -19t45.5 -50.5t19 -67.5t4 -69v-201h-62v201q0 66 -22.5 107t-88.5 41q-45 0 -73.5 -21.5t-41 -57t-12.5 -77.5v-193h-66z" />
    <glyph glyph-name="nacute" unicode="&#x144;" horiz-adv-x="446" 
d="M38 0v407h55l11 -101h2q1 5 9 21t24.5 34.5t43.5 32t69 13.5q53 0 83.5 -19t45.5 -50.5t19 -67.5t4 -69v-201h-62v201q0 66 -22.5 107t-88.5 41q-45 0 -73.5 -21.5t-41 -57t-12.5 -77.5v-193h-66zM251 458h-32v10l51 103h59v-15z" />
    <glyph glyph-name="ncaron" unicode="&#x148;" horiz-adv-x="469" 
d="M38 0v407h55l11 -101h2q1 5 9 21t24.5 34.5t43.5 32t69 13.5q53 0 83.5 -19t45.5 -50.5t19 -67.5t4 -69v-201h-62v201q0 66 -22.5 107t-88.5 41q-45 0 -73.5 -21.5t-41 -57t-12.5 -77.5v-193h-66zM85 597h69l81 -103l82 103h68l-136 -136h-28z" />
    <glyph glyph-name="uni0146" unicode="&#x146;" horiz-adv-x="446" 
d="M38 0v407h55l11 -101h2q1 5 9 21t24.5 34.5t43.5 32t69 13.5q53 0 83.5 -19t45.5 -50.5t19 -67.5t4 -69v-201h-62v201q0 66 -22.5 107t-88.5 41q-45 0 -73.5 -21.5t-41 -57t-12.5 -77.5v-193h-66zM162 -212v48h17q25 0 31.5 11t6.5 28q-27 -3 -39 9t-12 35q0 17 9 29.5
t33 12.5q21 0 30.5 -12.5t9.5 -45.5q0 -52 -14.5 -83.5t-52.5 -31.5h-19z" />
    <glyph glyph-name="eng" unicode="&#x14b;" horiz-adv-x="469" 
d="M38 0v407h55l11 -101h2q1 5 9 21t24.5 34.5t43.5 32t69 13.5q53 0 83.5 -19t45.5 -50.5t19 -67.5t4 -69v-176h14v-102q0 -52 -26.5 -87t-88.5 -35q-35 0 -56 12.5t-30 20.5l38 44q5 -6 16.5 -12.5t26.5 -6.5q27 0 41.5 15.5t14.5 52.5v73h-12v201q0 66 -22.5 107
t-88.5 41q-45 0 -73.5 -21.5t-41 -57t-12.5 -77.5v-193h-66z" />
    <glyph glyph-name="ntilde" unicode="&#xf1;" horiz-adv-x="446" 
d="M38 0v407h55l11 -101h2q1 5 9 21t24.5 34.5t43.5 32t69 13.5q53 0 83.5 -19t45.5 -50.5t19 -67.5t4 -69v-201h-62v201q0 66 -22.5 107t-88.5 41q-45 0 -73.5 -21.5t-41 -57t-12.5 -77.5v-193h-66zM286 470q-23 0 -36.5 8.5t-23 19t-18.5 19t-23 8.5q-17 0 -20.5 -14
t-3.5 -39h-42q-1 19 2.5 41t17 36.5t43.5 14.5q23 0 37 -8t23 -19t18.5 -19t23.5 -8q17 0 20 14t3 40h43q1 -23 -3.5 -44.5t-18 -35.5t-42.5 -14z" />
    <glyph glyph-name="o" unicode="o" 
d="M222 -10q-98 0 -146.5 58.5t-48.5 149.5q-1 92 48.5 150.5t146.5 59.5q96 0 145.5 -57.5t49.5 -152.5q0 -59 -21 -106t-64 -74.5t-110 -27.5zM222 46q52 0 80.5 23t40 58.5t11.5 72.5t-11.5 73t-40 59t-80.5 23t-80.5 -23t-40 -59t-11.5 -73t11.5 -72.5t40 -58.5
t80.5 -23z" />
    <glyph glyph-name="oacute" unicode="&#xf3;" 
d="M222 -10q-98 0 -146.5 58.5t-48.5 149.5q-1 92 48.5 150.5t146.5 59.5q96 0 145.5 -57.5t49.5 -152.5q0 -59 -21 -106t-64 -74.5t-110 -27.5zM222 46q52 0 80.5 23t40 58.5t11.5 72.5t-11.5 73t-40 59t-80.5 23t-80.5 -23t-40 -59t-11.5 -73t11.5 -72.5t40 -58.5
t80.5 -23zM228 450h-32v10l51 103h59v-15z" />
    <glyph glyph-name="ocircumflex" unicode="&#xf4;" 
d="M222 -10q-98 0 -146.5 58.5t-48.5 149.5q-1 92 48.5 150.5t146.5 59.5q96 0 145.5 -57.5t49.5 -152.5q0 -59 -21 -106t-64 -74.5t-110 -27.5zM222 46q52 0 80.5 23t40 58.5t11.5 72.5t-11.5 73t-40 59t-80.5 23t-80.5 -23t-40 -59t-11.5 -73t11.5 -72.5t40 -58.5
t80.5 -23zM95 459v8l109 103h29l109 -103v-8h-60l-62 67h-3l-60 -67h-62z" />
    <glyph glyph-name="uni1ED1" unicode="&#x1ed1;" 
d="M222 -10q-98 0 -146.5 58.5t-48.5 149.5q-1 92 48.5 150.5t146.5 59.5q96 0 145.5 -57.5t49.5 -152.5q0 -59 -21 -106t-64 -74.5t-110 -27.5zM222 46q52 0 80.5 23t40 58.5t11.5 72.5t-11.5 73t-40 59t-80.5 23t-80.5 -23t-40 -59t-11.5 -73t11.5 -72.5t40 -58.5
t80.5 -23zM95 459v8l109 103h29l109 -103v-8h-60l-62 67h-3l-60 -67h-62zM351 548h-32v10l51 103h59v-15z" />
    <glyph glyph-name="uni1ED9" unicode="&#x1ed9;" 
d="M222 -10q-98 0 -146.5 58.5t-48.5 149.5q-1 92 48.5 150.5t146.5 59.5q96 0 145.5 -57.5t49.5 -152.5q0 -59 -21 -106t-64 -74.5t-110 -27.5zM222 46q52 0 80.5 23t40 58.5t11.5 72.5t-11.5 73t-40 59t-80.5 23t-80.5 -23t-40 -59t-11.5 -73t11.5 -72.5t40 -58.5
t80.5 -23zM219 -148q-24 0 -32.5 12t-8.5 28t8.5 28t32.5 12t31.5 -12t7.5 -28t-7.5 -28t-31.5 -12zM95 459v8l109 103h29l109 -103v-8h-60l-62 67h-3l-60 -67h-62z" />
    <glyph glyph-name="uni1ED3" unicode="&#x1ed3;" 
d="M222 -10q-98 0 -146.5 58.5t-48.5 149.5q-1 92 48.5 150.5t146.5 59.5q96 0 145.5 -57.5t49.5 -152.5q0 -59 -21 -106t-64 -74.5t-110 -27.5zM222 46q52 0 80.5 23t40 58.5t11.5 72.5t-11.5 73t-40 59t-80.5 23t-80.5 -23t-40 -59t-11.5 -73t11.5 -72.5t40 -58.5
t80.5 -23zM78 549l-78 98v15h59l51 -103v-10h-32zM95 459v8l109 103h29l109 -103v-8h-60l-62 67h-3l-60 -67h-62z" />
    <glyph glyph-name="uni1ED5" unicode="&#x1ed5;" 
d="M222 -10q-98 0 -146.5 58.5t-48.5 149.5q-1 92 48.5 150.5t146.5 59.5q96 0 145.5 -57.5t49.5 -152.5q0 -59 -21 -106t-64 -74.5t-110 -27.5zM222 46q52 0 80.5 23t40 58.5t11.5 72.5t-11.5 73t-40 59t-80.5 23t-80.5 -23t-40 -59t-11.5 -73t11.5 -72.5t40 -58.5
t80.5 -23zM94 459v8l109 103h29l109 -103v-8h-60l-62 67h-3l-60 -67h-62zM308 546v11q4 14 18.5 23t27.5 19.5t13 27.5t-15 23.5t-32 0.5t-25 -26l-32 16q8 29 31.5 42.5t50 12.5t46 -16.5t19.5 -45.5q0 -26 -13 -40t-26.5 -24t-16.5 -24h-46z" />
    <glyph glyph-name="uni1ED7" unicode="&#x1ed7;" 
d="M222 -10q-98 0 -146.5 58.5t-48.5 149.5q-1 92 48.5 150.5t146.5 59.5q96 0 145.5 -57.5t49.5 -152.5q0 -59 -21 -106t-64 -74.5t-110 -27.5zM222 46q52 0 80.5 23t40 58.5t11.5 72.5t-11.5 73t-40 59t-80.5 23t-80.5 -23t-40 -59t-11.5 -73t11.5 -72.5t40 -58.5
t80.5 -23zM95 459v8l109 103h29l109 -103v-8h-60l-62 67h-3l-60 -67h-62zM268 612q-23 0 -36.5 8.5t-23 19t-18.5 19t-23 8.5q-17 0 -20.5 -14t-3.5 -39h-42q-1 19 2.5 41t17 36.5t43.5 14.5q23 0 37 -8t23 -19t18.5 -19t23.5 -8q17 0 20 14t3 40h43q1 -23 -3.5 -44.5
t-18 -35.5t-42.5 -14z" />
    <glyph glyph-name="odieresis" unicode="&#xf6;" 
d="M222 -10q-98 0 -146.5 58.5t-48.5 149.5q-1 92 48.5 150.5t146.5 59.5q96 0 145.5 -57.5t49.5 -152.5q0 -59 -21 -106t-64 -74.5t-110 -27.5zM222 46q52 0 80.5 23t40 58.5t11.5 72.5t-11.5 73t-40 59t-80.5 23t-80.5 -23t-40 -59t-11.5 -73t11.5 -72.5t40 -58.5
t80.5 -23zM141 456q-28 0 -38 14.5t-10 33.5q0 18 10 32.5t38 14.5q29 0 38 -14.5t9 -32.5q0 -19 -9 -33.5t-38 -14.5zM298 456q-29 0 -38.5 14.5t-9.5 33.5q0 18 9.5 32.5t38.5 14.5q28 0 37 -14.5t9 -32.5q0 -19 -9 -33.5t-37 -14.5z" />
    <glyph glyph-name="uni1ECD" unicode="&#x1ecd;" 
d="M222 -10q-98 0 -146.5 58.5t-48.5 149.5q-1 92 48.5 150.5t146.5 59.5q96 0 145.5 -57.5t49.5 -152.5q0 -59 -21 -106t-64 -74.5t-110 -27.5zM222 46q52 0 80.5 23t40 58.5t11.5 72.5t-11.5 73t-40 59t-80.5 23t-80.5 -23t-40 -59t-11.5 -73t11.5 -72.5t40 -58.5
t80.5 -23zM219 -148q-24 0 -32.5 12t-8.5 28t8.5 28t32.5 12t31.5 -12t7.5 -28t-7.5 -28t-31.5 -12z" />
    <glyph glyph-name="ograve" unicode="&#xf2;" 
d="M222 -10q-98 0 -146.5 58.5t-48.5 149.5q-1 92 48.5 150.5t146.5 59.5q96 0 145.5 -57.5t49.5 -152.5q0 -59 -21 -106t-64 -74.5t-110 -27.5zM222 46q52 0 80.5 23t40 58.5t11.5 72.5t-11.5 73t-40 59t-80.5 23t-80.5 -23t-40 -59t-11.5 -73t11.5 -72.5t40 -58.5
t80.5 -23zM204 450l-78 98v15h59l51 -103v-10h-32z" />
    <glyph glyph-name="uni1ECF" unicode="&#x1ecf;" 
d="M222 -10q-98 0 -146.5 58.5t-48.5 149.5q-1 92 48.5 150.5t146.5 59.5q96 0 145.5 -57.5t49.5 -152.5q0 -59 -21 -106t-64 -74.5t-110 -27.5zM222 46q52 0 80.5 23t40 58.5t11.5 72.5t-11.5 73t-40 59t-80.5 23t-80.5 -23t-40 -59t-11.5 -73t11.5 -72.5t40 -58.5
t80.5 -23zM196 465v11q4 14 18.5 23t27.5 19.5t13 27.5t-15 23.5t-32 0.5t-25 -26l-32 16q8 29 31.5 42.5t50 12.5t46 -16.5t19.5 -45.5q0 -26 -13 -40t-26.5 -24t-16.5 -24h-46z" />
    <glyph glyph-name="ohorn" unicode="&#x1a1;" 
d="M222 -10q-98 0 -146.5 58.5t-48.5 149.5q-1 92 48.5 150.5t146.5 59.5q96 0 145.5 -57.5t49.5 -152.5q0 -59 -21 -106t-64 -74.5t-110 -27.5zM222 46q52 0 80.5 23t40 58.5t11.5 72.5t-11.5 73t-40 59t-80.5 23t-80.5 -23t-40 -59t-11.5 -73t11.5 -72.5t40 -58.5
t80.5 -23zM284 353l2 42h28q19 0 23.5 7.5t4.5 32.5h56q0 -45 -21 -63.5t-66 -18.5h-27z" />
    <glyph glyph-name="uni1EDB" unicode="&#x1edb;" 
d="M222 -10q-98 0 -146.5 58.5t-48.5 149.5q-1 92 48.5 150.5t146.5 59.5q96 0 145.5 -57.5t49.5 -152.5q0 -59 -21 -106t-64 -74.5t-110 -27.5zM222 46q52 0 80.5 23t40 58.5t11.5 72.5t-11.5 73t-40 59t-80.5 23t-80.5 -23t-40 -59t-11.5 -73t11.5 -72.5t40 -58.5
t80.5 -23zM284 353l2 42h28q19 0 23.5 7.5t4.5 32.5h56q0 -45 -21 -63.5t-66 -18.5h-27zM228 450h-32v10l51 103h59v-15z" />
    <glyph glyph-name="uni1EE3" unicode="&#x1ee3;" 
d="M222 -10q-98 0 -146.5 58.5t-48.5 149.5q-1 92 48.5 150.5t146.5 59.5q96 0 145.5 -57.5t49.5 -152.5q0 -59 -21 -106t-64 -74.5t-110 -27.5zM222 46q52 0 80.5 23t40 58.5t11.5 72.5t-11.5 73t-40 59t-80.5 23t-80.5 -23t-40 -59t-11.5 -73t11.5 -72.5t40 -58.5
t80.5 -23zM284 353l2 42h28q19 0 23.5 7.5t4.5 32.5h56q0 -45 -21 -63.5t-66 -18.5h-27zM221 -148q-24 0 -32.5 12t-8.5 28t8.5 28t32.5 12t31.5 -12t7.5 -28t-7.5 -28t-31.5 -12z" />
    <glyph glyph-name="uni1EDD" unicode="&#x1edd;" 
d="M222 -10q-98 0 -146.5 58.5t-48.5 149.5q-1 92 48.5 150.5t146.5 59.5q96 0 145.5 -57.5t49.5 -152.5q0 -59 -21 -106t-64 -74.5t-110 -27.5zM222 46q52 0 80.5 23t40 58.5t11.5 72.5t-11.5 73t-40 59t-80.5 23t-80.5 -23t-40 -59t-11.5 -73t11.5 -72.5t40 -58.5
t80.5 -23zM284 353l2 42h28q19 0 23.5 7.5t4.5 32.5h56q0 -45 -21 -63.5t-66 -18.5h-27zM204 455l-78 98v15h59l51 -103v-10h-32z" />
    <glyph glyph-name="uni1EDF" unicode="&#x1edf;" 
d="M222 -10q-98 0 -146.5 58.5t-48.5 149.5q-1 92 48.5 150.5t146.5 59.5q96 0 145.5 -57.5t49.5 -152.5q0 -59 -21 -106t-64 -74.5t-110 -27.5zM222 46q52 0 80.5 23t40 58.5t11.5 72.5t-11.5 73t-40 59t-80.5 23t-80.5 -23t-40 -59t-11.5 -73t11.5 -72.5t40 -58.5
t80.5 -23zM284 353l2 42h28q19 0 23.5 7.5t4.5 32.5h56q0 -45 -21 -63.5t-66 -18.5h-27zM196 465v11q4 14 18.5 23t27.5 19.5t13 27.5t-15 23.5t-32 0.5t-25 -26l-32 16q8 29 31.5 42.5t50 12.5t46 -16.5t19.5 -45.5q0 -26 -13 -40t-26.5 -24t-16.5 -24h-46z" />
    <glyph glyph-name="uni1EE1" unicode="&#x1ee1;" 
d="M222 -10q-98 0 -146.5 58.5t-48.5 149.5q-1 92 48.5 150.5t146.5 59.5q96 0 145.5 -57.5t49.5 -152.5q0 -59 -21 -106t-64 -74.5t-110 -27.5zM222 46q52 0 80.5 23t40 58.5t11.5 72.5t-11.5 73t-40 59t-80.5 23t-80.5 -23t-40 -59t-11.5 -73t11.5 -72.5t40 -58.5
t80.5 -23zM284 353l2 42h28q19 0 23.5 7.5t4.5 32.5h56q0 -45 -21 -63.5t-66 -18.5h-27zM273 484q-23 0 -36.5 8.5t-23 19t-18.5 19t-23 8.5q-17 0 -20.5 -14t-3.5 -39h-42q-1 19 2.5 41t17 36.5t43.5 14.5q23 0 37 -8t23 -19t18.5 -19t23.5 -8q17 0 20 14t3 40h43
q1 -23 -3.5 -44.5t-18 -35.5t-42.5 -14z" />
    <glyph glyph-name="ohungarumlaut" unicode="&#x151;" horiz-adv-x="458" 
d="M127 464l77 138l56 -27l-101 -125zM268 464l77 138l55 -27l-101 -125zM222 -10q-98 0 -146.5 58.5t-48.5 149.5q-1 92 48.5 150.5t146.5 59.5q96 0 145.5 -57.5t49.5 -152.5q0 -59 -21 -106t-64 -74.5t-110 -27.5zM222 46q52 0 80.5 23t40 58.5t11.5 72.5t-11.5 73
t-40 59t-80.5 23t-80.5 -23t-40 -59t-11.5 -73t11.5 -72.5t40 -58.5t80.5 -23z" />
    <glyph glyph-name="omacron" unicode="&#x14d;" horiz-adv-x="451" 
d="M222 -10q-98 0 -146.5 58.5t-48.5 149.5q-1 92 48.5 150.5t146.5 59.5q96 0 145.5 -57.5t49.5 -152.5q0 -59 -21 -106t-64 -74.5t-110 -27.5zM222 46q52 0 80.5 23t40 58.5t11.5 72.5t-11.5 73t-40 59t-80.5 23t-80.5 -23t-40 -59t-11.5 -73t11.5 -72.5t40 -58.5
t80.5 -23zM95 466v49h249v-49h-249z" />
    <glyph glyph-name="oslash" unicode="&#xf8;" horiz-adv-x="451" 
d="M59 -24l34 55q-33 28 -49.5 71t-16.5 96q-1 92 48.5 150.5t146.5 59.5q55 0 95 -20l35 55l24 -14l-35 -55q38 -27 57 -72t19 -104t-21 -106t-64 -74.5t-110 -27.5q-62 0 -106 26l-33 -53zM90 200q0 -32 8 -63t28 -53l162 257q-28 14 -66 14q-52 0 -80.5 -23t-40 -59
t-11.5 -73zM222 46q52 0 80.5 23t40 58.5t11.5 72.5q0 35 -9.5 68.5t-34.5 56.5l-163 -259q15 -10 33.5 -15t41.5 -5z" />
    <glyph glyph-name="otilde" unicode="&#xf5;" 
d="M222 -10q-98 0 -146.5 58.5t-48.5 149.5q-1 92 48.5 150.5t146.5 59.5q96 0 145.5 -57.5t49.5 -152.5q0 -59 -21 -106t-64 -74.5t-110 -27.5zM222 46q52 0 80.5 23t40 58.5t11.5 72.5t-11.5 73t-40 59t-80.5 23t-80.5 -23t-40 -59t-11.5 -73t11.5 -72.5t40 -58.5
t80.5 -23zM273 470q-23 0 -36.5 8.5t-23 19t-18.5 19t-23 8.5q-17 0 -20.5 -14t-3.5 -39h-42q-1 19 2.5 41t17 36.5t43.5 14.5q23 0 37 -8t23 -19t18.5 -19t23.5 -8q17 0 20 14t3 40h43q1 -23 -3.5 -44.5t-18 -35.5t-42.5 -14z" />
    <glyph glyph-name="oe" unicode="&#x153;" horiz-adv-x="767" 
d="M220 -10q-99 0 -147.5 58.5t-48.5 149.5q0 92 49 150.5t147 59.5q58 0 99.5 -22.5t64.5 -63.5q23 38 64 62t101 24q51 0 90.5 -23.5t64 -65.5t27.5 -97q1 -4 1 -11.5v-13.5h-318q0 -69 35.5 -109.5t99.5 -40.5q48 0 80 24t41 66l63 -9q-15 -60 -62.5 -99t-121.5 -39
q-59 0 -100 24t-64 62q-23 -40 -64 -63t-101 -23zM416 236h251q-1 16 -7 37t-19 40.5t-36 33t-58 13.5q-43 0 -70.5 -18.5t-42 -47t-18.5 -58.5zM220 46q52 0 80.5 23t40 58.5t11.5 72.5t-11.5 73t-40 59t-80.5 23t-81 -23t-40.5 -59t-11.5 -73t11.5 -72.5t40.5 -58.5
t81 -23z" />
    <glyph glyph-name="p" unicode="p" horiz-adv-x="475" 
d="M265 -10q-39 0 -66.5 13.5t-44.5 31.5t-25.5 34t-10.5 21h-2v-258h-66v575h55l11 -102h2q2 5 10 21t24.5 35t44 32.5t68.5 13.5q59 0 98.5 -27t60 -74.5t20.5 -108.5q0 -91 -46 -149t-133 -58zM252 47q47 0 75.5 22t41 56.5t12.5 72.5q0 39 -14 73t-43.5 55.5t-77.5 21.5
q-58 0 -93 -40.5t-35 -109.5q0 -70 37 -110.5t97 -40.5z" />
    <glyph glyph-name="thorn" unicode="&#xfe;" horiz-adv-x="475" 
d="M50 -199v762h66v-270q2 5 10.5 23t25.5 39t46 36.5t71 15.5q59 0 97 -30t57 -77t19 -99t-18.5 -100.5t-56.5 -79.5t-97 -31q-39 0 -67 14t-46.5 34t-28 36.5t-11.5 21.5v-295h-67zM246 45q46 0 73.5 22.5t40 57.5t12.5 73t-13.5 73t-42.5 57t-74 22q-52 0 -85 -34.5
t-41 -89.5l1 -57q7 -54 41 -89t88 -35zM116 292v0v0zM115 198q0 -13 1 -24v48q-1 -12 -1 -24zM116 97v1q0 1 0 -1z" />
    <glyph glyph-name="q" unicode="q" horiz-adv-x="475" 
d="M209 -10q-58 0 -98 27t-60 74t-20 106q0 61 20.5 108.5t60.5 74.5t98 27q41 0 68.5 -13.5t44 -32.5t24.5 -35t9 -21h2l12 102h55v-575h-66v258h-2q-2 -5 -10.5 -21t-26 -34t-44.5 -31.5t-67 -13.5zM223 47q60 0 97 40.5t37 110.5q0 69 -35 109.5t-94 40.5
q-47 0 -76.5 -21.5t-43.5 -55.5t-14 -73q0 -38 12.5 -72.5t41 -56.5t75.5 -22z" />
    <glyph glyph-name="r" unicode="r" horiz-adv-x="302" 
d="M48 0v407h58l7 -107q6 27 24 52t49.5 40.5t78.5 14.5h19v-71h-20q-64 0 -96.5 -18.5t-44 -51.5t-11.5 -76v-190h-64z" />
    <glyph glyph-name="racute" unicode="&#x155;" horiz-adv-x="302" 
d="M48 0v407h58l7 -107q6 27 24 52t49.5 40.5t78.5 14.5h19v-71h-20q-64 0 -96.5 -18.5t-44 -51.5t-11.5 -76v-190h-64zM188 458h-32v10l51 103h59v-15z" />
    <glyph glyph-name="rcaron" unicode="&#x159;" horiz-adv-x="334" 
d="M48 0v407h58l7 -107q6 27 24 52t49.5 40.5t78.5 14.5h19v-71h-20q-64 0 -96.5 -18.5t-44 -51.5t-11.5 -76v-190h-64zM30 597h69l81 -103l82 103h68l-136 -136h-28z" />
    <glyph glyph-name="uni0157" unicode="&#x157;" horiz-adv-x="317" 
d="M27 -212v48h17q25 0 31.5 11t6.5 28q-27 -3 -39 9t-12 35q0 17 9 29.5t33 12.5q21 0 30.5 -12.5t9.5 -45.5q0 -52 -14.5 -83.5t-52.5 -31.5h-19zM50 0v407h58l7 -107q6 27 24 52t49.5 40.5t78.5 14.5h19v-71h-20q-64 0 -96.5 -18.5t-44 -51.5t-11.5 -76v-190h-64z" />
    <glyph glyph-name="s" unicode="s" horiz-adv-x="402" 
d="M200 -10q-58 0 -95.5 24.5t-56 57.5t-18.5 59h62q0 -1 1.5 -15t10.5 -32t31 -31.5t64 -13.5q45 0 77.5 16t31.5 50q0 29 -19.5 44.5t-50.5 24t-65 16.5t-64.5 20.5t-49.5 35.5t-19 64q0 50 45 79.5t115 29.5q39 0 79 -12.5t66 -43t24 -85.5h-60q2 38 -17 57t-45.5 25.5
t-48.5 6.5q-43 0 -70.5 -16t-27.5 -45q0 -28 19.5 -42.5t50 -23t65 -16t65.5 -20.5t50.5 -37t19.5 -66q0 -58 -49 -84.5t-121 -26.5z" />
    <glyph glyph-name="sacute" unicode="&#x15b;" horiz-adv-x="402" 
d="M200 -10q-58 0 -95.5 24.5t-56 57.5t-18.5 59h62q0 -1 1.5 -15t10.5 -32t31 -31.5t64 -13.5q45 0 77.5 16t31.5 50q0 29 -19.5 44.5t-50.5 24t-65 16.5t-64.5 20.5t-49.5 35.5t-19 64q0 50 45 79.5t115 29.5q39 0 79 -12.5t66 -43t24 -85.5h-60q2 38 -17 57t-45.5 25.5
t-48.5 6.5q-43 0 -70.5 -16t-27.5 -45q0 -28 19.5 -42.5t50 -23t65 -16t65.5 -20.5t50.5 -37t19.5 -66q0 -58 -49 -84.5t-121 -26.5zM216 458h-32v10l51 103h59v-15z" />
    <glyph glyph-name="scaron" unicode="&#x161;" horiz-adv-x="431" 
d="M200 -10q-58 0 -95.5 24.5t-56 57.5t-18.5 59h62q0 -1 1.5 -15t10.5 -32t31 -31.5t64 -13.5q45 0 77.5 16t31.5 50q0 29 -19.5 44.5t-50.5 24t-65 16.5t-64.5 20.5t-49.5 35.5t-19 64q0 50 45 79.5t115 29.5q39 0 79 -12.5t66 -43t24 -85.5h-60q2 38 -17 57t-45.5 25.5
t-48.5 6.5q-43 0 -70.5 -16t-27.5 -45q0 -28 19.5 -42.5t50 -23t65 -16t65.5 -20.5t50.5 -37t19.5 -66q0 -58 -49 -84.5t-121 -26.5zM52 597h69l81 -103l82 103h68l-136 -136h-28z" />
    <glyph glyph-name="scedilla" unicode="&#x15f;" horiz-adv-x="402" 
d="M200 -10q-58 0 -95.5 24.5t-56 57.5t-18.5 59h62q0 -1 1.5 -15t10.5 -32t31 -31.5t64 -13.5q45 0 77.5 16t31.5 50q0 29 -19.5 44.5t-50.5 24t-65 16.5t-64.5 20.5t-49.5 35.5t-19 64q0 50 45 79.5t115 29.5q39 0 79 -12.5t66 -43t24 -85.5h-60q2 38 -17 57t-45.5 25.5
t-48.5 6.5q-43 0 -70.5 -16t-27.5 -45q0 -28 19.5 -42.5t50 -23t65 -16t65.5 -20.5t50.5 -37t19.5 -66q0 -58 -49 -84.5t-121 -26.5zM108 -127l23 33q13 -14 35 -22t45 -8.5t38 8.5t14 28q-1 18 -17 24t-37.5 1.5t-37.5 -17.5l-29 19l40 83l34 -14l-40 -62q14 13 36 19t44 3
t37.5 -17t15.5 -40q0 -30 -20.5 -48.5t-52 -24.5t-66 2.5t-62.5 32.5z" />
    <glyph glyph-name="uni0219" unicode="&#x219;" horiz-adv-x="402" 
d="M200 -10q-58 0 -95.5 24.5t-56 57.5t-18.5 59h62q0 -1 1.5 -15t10.5 -32t31 -31.5t64 -13.5q45 0 77.5 16t31.5 50q0 29 -19.5 44.5t-50.5 24t-65 16.5t-64.5 20.5t-49.5 35.5t-19 64q0 50 45 79.5t115 29.5q39 0 79 -12.5t66 -43t24 -85.5h-60q2 38 -17 57t-45.5 25.5
t-48.5 6.5q-43 0 -70.5 -16t-27.5 -45q0 -28 19.5 -42.5t50 -23t65 -16t65.5 -20.5t50.5 -37t19.5 -66q0 -58 -49 -84.5t-121 -26.5zM151 -212v48h17q25 0 31.5 11t6.5 28q-27 -3 -39 9t-12 35q0 17 9 29.5t33 12.5q21 0 30.5 -12.5t9.5 -45.5q0 -52 -14.5 -83.5
t-52.5 -31.5h-19z" />
    <glyph glyph-name="germandbls" unicode="&#xdf;" horiz-adv-x="528" 
d="M326 -10q-77 0 -118.5 37.5t-50.5 88.5h56q1 0 5 -11t15.5 -24.5t32 -23.5t53.5 -10q56 0 90.5 30.5t34.5 74.5q0 35 -20 57t-50 36t-59.5 25.5t-49.5 26t-20 37.5q0 19 12 30.5t30.5 19.5t36.5 17.5t30.5 24t12.5 38.5q0 20 -17.5 29.5t-45 12.5t-58.5 3h-128v-509h-63
v563h191q24 0 55 -1t60 -7.5t48 -24.5t19 -52q0 -31 -13.5 -50t-33 -31t-39 -20.5t-33 -17.5t-13.5 -24q0 -17 21.5 -27.5t52.5 -21.5t62.5 -27.5t52.5 -44t21 -72.5t-24.5 -79t-65.5 -53.5t-90 -19.5z" />
    <glyph glyph-name="t" unicode="t" horiz-adv-x="276" 
d="M140 0q-37 0 -51.5 20t-14.5 55v284h-64v48q32 0 47.5 5.5t19.5 27.5t4 72h55v-105h94v-48h-94v-307h95v-52h-91z" />
    <glyph glyph-name="tbar" unicode="&#x167;" horiz-adv-x="276" 
d="M17 193v49h57v114h-64v52q32 0 47.5 5.5t19.5 27.5t4 72h55v-105h94v-52h-94v-114h81v-49h-81v-86q0 -38 14.5 -53.5t35 -13.5t38.5 15l6 -38q-35 -27 -71 -27t-60.5 26.5t-24.5 76.5v100h-57z" />
    <glyph glyph-name="tcaron" unicode="&#x165;" horiz-adv-x="278" 
d="M177 450l33 147h64l-60 -147h-37zM140 0q-37 0 -51.5 20t-14.5 55v284h-64v48q32 0 47.5 5.5t19.5 27.5t4 72h55v-105h94v-48h-94v-307h95v-52h-91z" />
    <glyph glyph-name="uni0163" unicode="&#x163;" horiz-adv-x="276" 
d="M140 0q-37 0 -51.5 20t-14.5 55v284h-64v48q32 0 47.5 5.5t19.5 27.5t4 72h55v-105h94v-48h-94v-307h95v-52h-91zM44 -127l23 33q13 -14 35 -22t45 -8.5t38 8.5t14 28q-1 18 -17 24t-37.5 1.5t-37.5 -17.5l-29 19l40 83l34 -14l-40 -62q14 13 36 19t44 3t37.5 -17
t15.5 -40q0 -30 -20.5 -48.5t-52 -24.5t-66 2.5t-62.5 32.5z" />
    <glyph glyph-name="uni021B" unicode="&#x21b;" horiz-adv-x="276" 
d="M140 0q-37 0 -51.5 20t-14.5 55v284h-64v48q32 0 47.5 5.5t19.5 27.5t4 72h55v-105h94v-48h-94v-307h95v-52h-91zM78 -212v48h17q25 0 31.5 11t6.5 28q-27 -3 -39 9t-12 35q0 17 9 29.5t33 12.5q21 0 30.5 -12.5t9.5 -45.5q0 -52 -14.5 -83.5t-52.5 -31.5h-19z" />
    <glyph glyph-name="u" unicode="u" horiz-adv-x="445" 
d="M189 -10q-50 0 -80.5 18t-46.5 48.5t-21.5 67t-5.5 73.5v210h64v-211q0 -40 8 -74t32.5 -54t71.5 -20q45 0 70.5 20.5t37.5 53.5t14 69v216h66v-407h-55l-11 91h-2q-5 -17 -21 -41t-45.5 -42t-75.5 -18z" />
    <glyph glyph-name="uacute" unicode="&#xfa;" horiz-adv-x="445" 
d="M189 -10q-50 0 -80.5 18t-46.5 48.5t-21.5 67t-5.5 73.5v210h64v-211q0 -40 8 -74t32.5 -54t71.5 -20q45 0 70.5 20.5t37.5 53.5t14 69v216h66v-407h-55l-11 91h-2q-5 -17 -21 -41t-45.5 -42t-75.5 -18zM228 458h-32v10l51 103h59v-15z" />
    <glyph glyph-name="ucircumflex" unicode="&#xfb;" horiz-adv-x="445" 
d="M189 -10q-50 0 -80.5 18t-46.5 48.5t-21.5 67t-5.5 73.5v210h64v-211q0 -40 8 -74t32.5 -54t71.5 -20q45 0 70.5 20.5t37.5 53.5t14 69v216h66v-407h-55l-11 91h-2q-5 -17 -21 -41t-45.5 -42t-75.5 -18zM92 459v8l109 103h29l109 -103v-8h-60l-62 67h-3l-60 -67h-62z" />
    <glyph glyph-name="udieresis" unicode="&#xfc;" horiz-adv-x="445" 
d="M189 -10q-50 0 -80.5 18t-46.5 48.5t-21.5 67t-5.5 73.5v210h64v-211q0 -40 8 -74t32.5 -54t71.5 -20q45 0 70.5 20.5t37.5 53.5t14 69v216h66v-407h-55l-11 91h-2q-5 -17 -21 -41t-45.5 -42t-75.5 -18zM138 456q-28 0 -38 14.5t-10 33.5q0 18 10 32.5t38 14.5
q29 0 38 -14.5t9 -32.5q0 -19 -9 -33.5t-38 -14.5zM295 456q-29 0 -38.5 14.5t-9.5 33.5q0 18 9.5 32.5t38.5 14.5q28 0 37 -14.5t9 -32.5q0 -19 -9 -33.5t-37 -14.5z" />
    <glyph glyph-name="uni1EE5" unicode="&#x1ee5;" horiz-adv-x="445" 
d="M189 -10q-50 0 -80.5 18t-46.5 48.5t-21.5 67t-5.5 73.5v210h64v-211q0 -40 8 -74t32.5 -54t71.5 -20q45 0 70.5 20.5t37.5 53.5t14 69v216h66v-407h-55l-11 91h-2q-5 -17 -21 -41t-45.5 -42t-75.5 -18zM221 -148q-24 0 -32.5 12t-8.5 28t8.5 28t32.5 12t31.5 -12
t7.5 -28t-7.5 -28t-31.5 -12z" />
    <glyph glyph-name="ugrave" unicode="&#xf9;" horiz-adv-x="445" 
d="M189 -10q-50 0 -80.5 18t-46.5 48.5t-21.5 67t-5.5 73.5v210h64v-211q0 -40 8 -74t32.5 -54t71.5 -20q45 0 70.5 20.5t37.5 53.5t14 69v216h66v-407h-55l-11 91h-2q-5 -17 -21 -41t-45.5 -42t-75.5 -18zM199 455l-78 98v15h59l51 -103v-10h-32z" />
    <glyph glyph-name="uni1EE7" unicode="&#x1ee7;" horiz-adv-x="445" 
d="M189 -10q-50 0 -80.5 18t-46.5 48.5t-21.5 67t-5.5 73.5v210h64v-211q0 -40 8 -74t32.5 -54t71.5 -20q45 0 70.5 20.5t37.5 53.5t14 69v216h66v-407h-55l-11 91h-2q-5 -17 -21 -41t-45.5 -42t-75.5 -18zM196 465v11q4 14 18.5 23t27.5 19.5t13 27.5t-15 23.5t-32 0.5
t-25 -26l-32 16q8 29 31.5 42.5t50 12.5t46 -16.5t19.5 -45.5q0 -26 -13 -40t-26.5 -24t-16.5 -24h-46z" />
    <glyph glyph-name="uhorn" unicode="&#x1b0;" 
d="M189 -10q-50 0 -80.5 18t-46.5 48.5t-21.5 67t-5.5 73.5v210h64v-211q0 -40 8 -74t32.5 -54t71.5 -20q45 0 70.5 20.5t37.5 53.5t14 69v216h66v-407h-55l-11 91h-2q-5 -17 -21 -41t-45.5 -42t-75.5 -18zM363 365l2 42h28q19 0 23.5 7.5t4.5 32.5h56q0 -45 -21 -63.5
t-66 -18.5h-27z" />
    <glyph glyph-name="uni1EE9" unicode="&#x1ee9;" 
d="M189 -10q-50 0 -80.5 18t-46.5 48.5t-21.5 67t-5.5 73.5v210h64v-211q0 -40 8 -74t32.5 -54t71.5 -20q45 0 70.5 20.5t37.5 53.5t14 69v216h66v-407h-55l-11 91h-2q-5 -17 -21 -41t-45.5 -42t-75.5 -18zM363 365l2 42h28q19 0 23.5 7.5t4.5 32.5h56q0 -45 -21 -63.5
t-66 -18.5h-27zM228 458h-32v10l51 103h59v-15z" />
    <glyph glyph-name="uni1EF1" unicode="&#x1ef1;" 
d="M189 -10q-50 0 -80.5 18t-46.5 48.5t-21.5 67t-5.5 73.5v210h64v-211q0 -40 8 -74t32.5 -54t71.5 -20q45 0 70.5 20.5t37.5 53.5t14 69v216h66v-407h-55l-11 91h-2q-5 -17 -21 -41t-45.5 -42t-75.5 -18zM363 365l2 42h28q19 0 23.5 7.5t4.5 32.5h56q0 -45 -21 -63.5
t-66 -18.5h-27zM221 -148q-24 0 -32.5 12t-8.5 28t8.5 28t32.5 12t31.5 -12t7.5 -28t-7.5 -28t-31.5 -12z" />
    <glyph glyph-name="uni1EEB" unicode="&#x1eeb;" 
d="M189 -10q-50 0 -80.5 18t-46.5 48.5t-21.5 67t-5.5 73.5v210h64v-211q0 -40 8 -74t32.5 -54t71.5 -20q45 0 70.5 20.5t37.5 53.5t14 69v216h66v-407h-55l-11 91h-2q-5 -17 -21 -41t-45.5 -42t-75.5 -18zM363 365l2 42h28q19 0 23.5 7.5t4.5 32.5h56q0 -45 -21 -63.5
t-66 -18.5h-27zM199 455l-78 98v15h59l51 -103v-10h-32z" />
    <glyph glyph-name="uni1EED" unicode="&#x1eed;" 
d="M189 -10q-50 0 -80.5 18t-46.5 48.5t-21.5 67t-5.5 73.5v210h64v-211q0 -40 8 -74t32.5 -54t71.5 -20q45 0 70.5 20.5t37.5 53.5t14 69v216h66v-407h-55l-11 91h-2q-5 -17 -21 -41t-45.5 -42t-75.5 -18zM363 365l2 42h28q19 0 23.5 7.5t4.5 32.5h56q0 -45 -21 -63.5
t-66 -18.5h-27zM196 465v11q4 14 18.5 23t27.5 19.5t13 27.5t-15 23.5t-32 0.5t-25 -26l-32 16q8 29 31.5 42.5t50 12.5t46 -16.5t19.5 -45.5q0 -26 -13 -40t-26.5 -24t-16.5 -24h-46z" />
    <glyph glyph-name="uni1EEF" unicode="&#x1eef;" 
d="M189 -10q-50 0 -80.5 18t-46.5 48.5t-21.5 67t-5.5 73.5v210h64v-211q0 -40 8 -74t32.5 -54t71.5 -20q45 0 70.5 20.5t37.5 53.5t14 69v216h66v-407h-55l-11 91h-2q-5 -17 -21 -41t-45.5 -42t-75.5 -18zM363 365l2 42h28q19 0 23.5 7.5t4.5 32.5h56q0 -45 -21 -63.5
t-66 -18.5h-27zM272 484q-23 0 -36.5 8.5t-23 19t-18.5 19t-23 8.5q-17 0 -20.5 -14t-3.5 -39h-42q-1 19 2.5 41t17 36.5t43.5 14.5q23 0 37 -8t23 -19t18.5 -19t23.5 -8q17 0 20 14t3 40h43q1 -23 -3.5 -44.5t-18 -35.5t-42.5 -14z" />
    <glyph glyph-name="uhungarumlaut" unicode="&#x171;" horiz-adv-x="456" 
d="M117 464l77 138l56 -27l-101 -125zM258 464l77 138l55 -27l-101 -125zM189 -10q-50 0 -80.5 18t-46.5 48.5t-21.5 67t-5.5 73.5v210h64v-211q0 -40 8 -74t32.5 -54t71.5 -20q45 0 70.5 20.5t37.5 53.5t14 69v216h66v-407h-55l-11 91h-2q-5 -17 -21 -41t-45.5 -42
t-75.5 -18z" />
    <glyph glyph-name="umacron" unicode="&#x16b;" horiz-adv-x="450" 
d="M189 -10q-50 0 -80.5 18t-46.5 48.5t-21.5 67t-5.5 73.5v210h64v-211q0 -40 8 -74t32.5 -54t71.5 -20q45 0 70.5 20.5t37.5 53.5t14 69v216h66v-407h-55l-11 91h-2q-5 -17 -21 -41t-45.5 -42t-75.5 -18zM91 466v49h249v-49h-249z" />
    <glyph glyph-name="uogonek" unicode="&#x173;" horiz-adv-x="450" 
d="M189 -10q-50 0 -80.5 18t-46.5 48.5t-21.5 67t-5.5 73.5v210h64v-211q0 -40 8 -74t32.5 -54t71.5 -20q45 0 70.5 20.5t37.5 53.5t14 69v216h66v-407h-3l-13.5 -7t-31.5 -20.5t-32 -32.5t-14 -42q0 -18 11 -29.5t32 -11.5q18 0 28 7.5t14.5 15.5l4.5 8l38 -31l-9.5 -12.5
t-29 -24.5t-50.5 -12q-37 0 -62.5 21.5t-25.5 60.5q0 27 13.5 49t34 39t40.5 28l-11 85h-2q-5 -17 -21 -41t-45.5 -42t-75.5 -18z" />
    <glyph glyph-name="uring" unicode="&#x16f;" horiz-adv-x="445" 
d="M189 -10q-50 0 -80.5 18t-46.5 48.5t-21.5 67t-5.5 73.5v210h64v-211q0 -40 8 -74t32.5 -54t71.5 -20q45 0 70.5 20.5t37.5 53.5t14 69v216h66v-407h-55l-11 91h-2q-5 -17 -21 -41t-45.5 -42t-75.5 -18zM215 454q-44 0 -67.5 24.5t-23.5 65.5t23 66t68 25q43 0 67.5 -25
t24.5 -66q0 -39 -24.5 -64.5t-67.5 -25.5zM214 494q25 0 38.5 15t13.5 36q0 22 -13.5 37.5t-38.5 15.5t-38.5 -15.5t-13.5 -37.5t14.5 -36.5t37.5 -14.5z" />
    <glyph glyph-name="utilde" unicode="&#x169;" horiz-adv-x="445" 
d="M189 -10q-50 0 -80.5 18t-46.5 48.5t-21.5 67t-5.5 73.5v210h64v-211q0 -40 8 -74t32.5 -54t71.5 -20q45 0 70.5 20.5t37.5 53.5t14 69v216h66v-407h-55l-11 91h-2q-5 -17 -21 -41t-45.5 -42t-75.5 -18zM272 484q-23 0 -36.5 8.5t-23 19t-18.5 19t-23 8.5
q-17 0 -20.5 -14t-3.5 -39h-42q-1 19 2.5 41t17 36.5t43.5 14.5q23 0 37 -8t23 -19t18.5 -19t23.5 -8q17 0 20 14t3 40h43q1 -23 -3.5 -44.5t-18 -35.5t-42.5 -14z" />
    <glyph glyph-name="v" unicode="v" horiz-adv-x="413" 
d="M329 407h64v-14l-154 -393h-91l-155 393v14h64l136 -354h2z" />
    <glyph glyph-name="w" unicode="w" horiz-adv-x="604" 
d="M112 0l-109 393v15h62l92 -353h2l105 353h57l108 -353h2l90 353h62v-15l-108 -393h-92l-89 296h-2l-88 -296h-92z" />
    <glyph glyph-name="wacute" unicode="&#x1e83;" horiz-adv-x="604" 
d="M112 0l-109 393v15h62l92 -353h2l105 353h57l108 -353h2l90 353h62v-15l-108 -393h-92l-89 296h-2l-88 -296h-92zM309 458h-32v10l51 103h59v-15z" />
    <glyph glyph-name="wcircumflex" unicode="&#x175;" horiz-adv-x="604" 
d="M112 0l-109 393v15h62l92 -353h2l105 353h57l108 -353h2l90 353h62v-15l-108 -393h-92l-89 296h-2l-88 -296h-92zM165 459v8l109 103h29l109 -103v-8h-60l-62 67h-3l-60 -67h-62z" />
    <glyph glyph-name="wdieresis" unicode="&#x1e85;" horiz-adv-x="604" 
d="M112 0l-109 393v15h62l92 -353h2l105 353h57l108 -353h2l90 353h62v-15l-108 -393h-92l-89 296h-2l-88 -296h-92zM212 456q-28 0 -38 14.5t-10 33.5q0 18 10 32.5t38 14.5q29 0 38 -14.5t9 -32.5q0 -19 -9 -33.5t-38 -14.5zM369 456q-29 0 -38.5 14.5t-9.5 33.5
q0 18 9.5 32.5t38.5 14.5q28 0 37 -14.5t9 -32.5q0 -19 -9 -33.5t-37 -14.5z" />
    <glyph glyph-name="wgrave" unicode="&#x1e81;" horiz-adv-x="604" 
d="M112 0l-109 393v15h62l92 -353h2l105 353h57l108 -353h2l90 353h62v-15l-108 -393h-92l-89 296h-2l-88 -296h-92zM250 458l-78 98v15h59l51 -103v-10h-32z" />
    <glyph glyph-name="x" unicode="x" horiz-adv-x="418" 
d="M10 0l149 210l-142 197h73l110 -156l110 156h73l-142 -197l151 -210h-74l-118 168l-118 -168h-72z" />
    <glyph glyph-name="y" unicode="y" horiz-adv-x="407" 
d="M-3 -182v52h56q20 0 33 10.5t32 50.5l43 93l-160 383h67l125 -315l133 315h68l-218 -485q-20 -45 -35.5 -67.5t-34.5 -29.5t-48 -7h-61z" />
    <glyph glyph-name="yacute" unicode="&#xfd;" horiz-adv-x="407" 
d="M-3 -182v52h56q20 0 33 10.5t32 50.5l43 93l-160 383h67l125 -315l133 315h68l-218 -485q-20 -45 -35.5 -67.5t-34.5 -29.5t-48 -7h-61zM206 458h-32v10l51 103h59v-15z" />
    <glyph glyph-name="ycircumflex" unicode="&#x177;" horiz-adv-x="407" 
d="M-3 -182v52h56q20 0 33 10.5t32 50.5l43 93l-160 383h67l125 -315l133 315h68l-218 -485q-20 -45 -35.5 -67.5t-34.5 -29.5t-48 -7h-61zM78 459v8l109 103h29l109 -103v-8h-60l-62 67h-3l-60 -67h-62z" />
    <glyph glyph-name="ydieresis" unicode="&#xff;" horiz-adv-x="407" 
d="M-3 -182v52h56q20 0 33 10.5t32 50.5l43 93l-160 383h67l125 -315l133 315h68l-218 -485q-20 -45 -35.5 -67.5t-34.5 -29.5t-48 -7h-61zM123 456q-28 0 -38 14.5t-10 33.5q0 18 10 32.5t38 14.5q29 0 38 -14.5t9 -32.5q0 -19 -9 -33.5t-38 -14.5zM280 456
q-29 0 -38.5 14.5t-9.5 33.5q0 18 9.5 32.5t38.5 14.5q28 0 37 -14.5t9 -32.5q0 -19 -9 -33.5t-37 -14.5z" />
    <glyph glyph-name="uni1EF5" unicode="&#x1ef5;" horiz-adv-x="407" 
d="M-3 -182v52h56q20 0 33 10.5t32 50.5l43 93l-160 383h67l125 -315l133 315h68l-218 -485q-20 -45 -35.5 -67.5t-34.5 -29.5t-48 -7h-61zM309 -148q-24 0 -32.5 12t-8.5 28t8.5 28t32.5 12t31.5 -12t7.5 -28t-7.5 -28t-31.5 -12z" />
    <glyph glyph-name="ygrave" unicode="&#x1ef3;" horiz-adv-x="407" 
d="M-3 -182v52h56q20 0 33 10.5t32 50.5l43 93l-160 383h67l125 -315l133 315h68l-218 -485q-20 -45 -35.5 -67.5t-34.5 -29.5t-48 -7h-61zM179 458l-78 98v15h59l51 -103v-10h-32z" />
    <glyph glyph-name="uni1EF7" unicode="&#x1ef7;" horiz-adv-x="407" 
d="M-3 -182v52h56q20 0 33 10.5t32 50.5l43 93l-160 383h67l125 -315l133 315h68l-218 -485q-20 -45 -35.5 -67.5t-34.5 -29.5t-48 -7h-61zM176 465v11q4 14 18.5 23t27.5 19.5t13 27.5t-15 23.5t-32 0.5t-25 -26l-32 16q8 29 31.5 42.5t50 12.5t46 -16.5t19.5 -45.5
q0 -26 -13 -40t-26.5 -24t-16.5 -24h-46z" />
    <glyph glyph-name="uni1EF9" unicode="&#x1ef9;" horiz-adv-x="407" 
d="M-3 -182v52h56q20 0 33 10.5t32 50.5l43 93l-160 383h67l125 -315l133 315h68l-218 -485q-20 -45 -35.5 -67.5t-34.5 -29.5t-48 -7h-61zM253 474q-23 0 -36.5 8.5t-23 19t-18.5 19t-23 8.5q-17 0 -20.5 -14t-3.5 -39h-42q-1 19 2.5 41t17 36.5t43.5 14.5q23 0 37 -8
t23 -19t18.5 -19t23.5 -8q17 0 20 14t3 40h43q1 -23 -3.5 -44.5t-18 -35.5t-42.5 -14z" />
    <glyph glyph-name="z" unicode="z" horiz-adv-x="430" 
d="M35 0v47l277 310h-264v51h344v-48l-276 -308h276v-52h-357z" />
    <glyph glyph-name="zacute" unicode="&#x17a;" horiz-adv-x="430" 
d="M35 0v47l277 310h-264v51h344v-48l-276 -308h276v-52h-357zM220 458h-32v10l51 103h59v-15z" />
    <glyph glyph-name="zcaron" unicode="&#x17e;" horiz-adv-x="430" 
d="M35 0v47l277 310h-264v51h344v-48l-276 -308h276v-52h-357zM72 597h69l81 -103l82 103h68l-136 -136h-28z" />
    <glyph glyph-name="zdotaccent" unicode="&#x17c;" horiz-adv-x="430" 
d="M35 0v47l277 310h-264v51h344v-48l-276 -308h276v-52h-357zM217 456q-28 0 -38 14.5t-10 33.5t10 33t38 14q29 0 38 -14t9 -33t-9 -33.5t-38 -14.5z" />
    <glyph glyph-name="a.ss01" horiz-adv-x="465" 
d="M144 -9q-53 0 -85 28.5t-32 75.5q0 46 27 71t69 37.5t84 22.5q45 9 67.5 16t30.5 16t8 23q0 37 -29.5 57t-68.5 20q-24 0 -48 -9t-40.5 -28t-17.5 -50h-61q4 48 29.5 78.5t62.5 44.5t77 14t77 -14t60 -43.5t23 -75.5v-181q0 -31 10.5 -42t24.5 -10t26 7l5 -39
q-2 -1 -18.5 -10t-43.5 -9q-39 0 -53.5 25t-14.5 60v55q-22 -64 -65 -102t-104 -38zM165 41q38 1 71 27t54 68t21 92q-11 -9 -35 -15.5t-50 -13.5q-36 -8 -67 -19.5t-49.5 -29.5t-17.5 -48q0 -30 20.5 -45.5t52.5 -15.5z" />
    <glyph glyph-name="aacute.ss01" horiz-adv-x="465" 
d="M144 -9q-53 0 -85 28.5t-32 75.5q0 46 27 71t69 37.5t84 22.5q45 9 67.5 16t30.5 16t8 23q0 37 -29.5 57t-68.5 20q-24 0 -48 -9t-40.5 -28t-17.5 -50h-61q4 48 29.5 78.5t62.5 44.5t77 14t77 -14t60 -43.5t23 -75.5v-181q0 -31 10.5 -42t24.5 -10t26 7l5 -39
q-2 -1 -18.5 -10t-43.5 -9q-39 0 -53.5 25t-14.5 60v55q-22 -64 -65 -102t-104 -38zM165 41q38 1 71 27t54 68t21 92q-11 -9 -35 -15.5t-50 -13.5q-36 -8 -67 -19.5t-49.5 -29.5t-17.5 -48q0 -30 20.5 -45.5t52.5 -15.5zM235 458h-32v10l51 103h59v-15z" />
    <glyph glyph-name="abreve.ss01" horiz-adv-x="465" 
d="M144 -9q-53 0 -85 28.5t-32 75.5q0 46 27 71t69 37.5t84 22.5q45 9 67.5 16t30.5 16t8 23q0 37 -29.5 57t-68.5 20q-24 0 -48 -9t-40.5 -28t-17.5 -50h-61q4 48 29.5 78.5t62.5 44.5t77 14t77 -14t60 -43.5t23 -75.5v-181q0 -31 10.5 -42t24.5 -10t26 7l5 -39
q-2 -1 -18.5 -10t-43.5 -9q-39 0 -53.5 25t-14.5 60v55q-22 -64 -65 -102t-104 -38zM165 41q38 1 71 27t54 68t21 92q-11 -9 -35 -15.5t-50 -13.5q-36 -8 -67 -19.5t-49.5 -29.5t-17.5 -48q0 -30 20.5 -45.5t52.5 -15.5zM219 465q-55 0 -86.5 24.5t-31.5 65.5h47
q0 -31 21 -40t49 -9q29 0 49 9t20 40h48q0 -41 -30.5 -65.5t-85.5 -24.5z" />
    <glyph glyph-name="uni1EAF.ss01" horiz-adv-x="465" 
d="M144 -9q-53 0 -85 28.5t-32 75.5q0 46 27 71t69 37.5t84 22.5q45 9 67.5 16t30.5 16t8 23q0 37 -29.5 57t-68.5 20q-24 0 -48 -9t-40.5 -28t-17.5 -50h-61q4 48 29.5 78.5t62.5 44.5t77 14t77 -14t60 -43.5t23 -75.5v-181q0 -31 10.5 -42t24.5 -10t26 7l5 -39
q-2 -1 -18.5 -10t-43.5 -9q-39 0 -53.5 25t-14.5 60v55q-22 -64 -65 -102t-104 -38zM165 41q38 1 71 27t54 68t21 92q-11 -9 -35 -15.5t-50 -13.5q-36 -8 -67 -19.5t-49.5 -29.5t-17.5 -48q0 -30 20.5 -45.5t52.5 -15.5zM219 465q-55 0 -86.5 24.5t-31.5 65.5h47
q0 -31 21 -40t49 -9q29 0 49 9t20 40h48q0 -41 -30.5 -65.5t-85.5 -24.5zM234 570h-32v10l51 103h59v-15z" />
    <glyph glyph-name="uni1EB7.ss01" horiz-adv-x="465" 
d="M144 -9q-53 0 -85 28.5t-32 75.5q0 46 27 71t69 37.5t84 22.5q45 9 67.5 16t30.5 16t8 23q0 37 -29.5 57t-68.5 20q-24 0 -48 -9t-40.5 -28t-17.5 -50h-61q4 48 29.5 78.5t62.5 44.5t77 14t77 -14t60 -43.5t23 -75.5v-181q0 -31 10.5 -42t24.5 -10t26 7l5 -39
q-2 -1 -18.5 -10t-43.5 -9q-39 0 -53.5 25t-14.5 60v55q-22 -64 -65 -102t-104 -38zM165 41q38 1 71 27t54 68t21 92q-11 -9 -35 -15.5t-50 -13.5q-36 -8 -67 -19.5t-49.5 -29.5t-17.5 -48q0 -30 20.5 -45.5t52.5 -15.5zM218 465q-55 0 -86.5 24.5t-31.5 65.5h47
q0 -31 21 -40t49 -9q29 0 49 9t20 40h48q0 -41 -30.5 -65.5t-85.5 -24.5zM210 -148q-24 0 -32.5 12t-8.5 28t8.5 28t32.5 12t31.5 -12t7.5 -28t-7.5 -28t-31.5 -12z" />
    <glyph glyph-name="uni1EB1.ss01" horiz-adv-x="465" 
d="M144 -9q-53 0 -85 28.5t-32 75.5q0 46 27 71t69 37.5t84 22.5q45 9 67.5 16t30.5 16t8 23q0 37 -29.5 57t-68.5 20q-24 0 -48 -9t-40.5 -28t-17.5 -50h-61q4 48 29.5 78.5t62.5 44.5t77 14t77 -14t60 -43.5t23 -75.5v-181q0 -31 10.5 -42t24.5 -10t26 7l5 -39
q-2 -1 -18.5 -10t-43.5 -9q-39 0 -53.5 25t-14.5 60v55q-22 -64 -65 -102t-104 -38zM165 41q38 1 71 27t54 68t21 92q-11 -9 -35 -15.5t-50 -13.5q-36 -8 -67 -19.5t-49.5 -29.5t-17.5 -48q0 -30 20.5 -45.5t52.5 -15.5zM220 465q-55 0 -86.5 24.5t-31.5 65.5h47
q0 -31 21 -40t49 -9q29 0 49 9t20 40h48q0 -41 -30.5 -65.5t-85.5 -24.5zM196 570l-78 98v15h59l51 -103v-10h-32z" />
    <glyph glyph-name="uni1EB3.ss01" horiz-adv-x="465" 
d="M144 -9q-53 0 -85 28.5t-32 75.5q0 46 27 71t69 37.5t84 22.5q45 9 67.5 16t30.5 16t8 23q0 37 -29.5 57t-68.5 20q-24 0 -48 -9t-40.5 -28t-17.5 -50h-61q4 48 29.5 78.5t62.5 44.5t77 14t77 -14t60 -43.5t23 -75.5v-181q0 -31 10.5 -42t24.5 -10t26 7l5 -39
q-2 -1 -18.5 -10t-43.5 -9q-39 0 -53.5 25t-14.5 60v55q-22 -64 -65 -102t-104 -38zM165 41q38 1 71 27t54 68t21 92q-11 -9 -35 -15.5t-50 -13.5q-36 -8 -67 -19.5t-49.5 -29.5t-17.5 -48q0 -30 20.5 -45.5t52.5 -15.5zM218 465q-55 0 -86.5 24.5t-31.5 65.5h47
q0 -31 21 -40t49 -9q29 0 49 9t20 40h48q0 -41 -30.5 -65.5t-85.5 -24.5zM195 566v11q4 14 18.5 23t27.5 19.5t13 27.5t-15 23.5t-32 0.5t-25 -26l-32 16q8 29 31.5 42.5t50 12.5t46 -16.5t19.5 -45.5q0 -26 -13 -40t-26.5 -24t-16.5 -24h-46z" />
    <glyph glyph-name="uni1EB5.ss01" horiz-adv-x="465" 
d="M144 -9q-53 0 -85 28.5t-32 75.5q0 46 27 71t69 37.5t84 22.5q45 9 67.5 16t30.5 16t8 23q0 37 -29.5 57t-68.5 20q-24 0 -48 -9t-40.5 -28t-17.5 -50h-61q4 48 29.5 78.5t62.5 44.5t77 14t77 -14t60 -43.5t23 -75.5v-181q0 -31 10.5 -42t24.5 -10t26 7l5 -39
q-2 -1 -18.5 -10t-43.5 -9q-39 0 -53.5 25t-14.5 60v55q-22 -64 -65 -102t-104 -38zM165 41q38 1 71 27t54 68t21 92q-11 -9 -35 -15.5t-50 -13.5q-36 -8 -67 -19.5t-49.5 -29.5t-17.5 -48q0 -30 20.5 -45.5t52.5 -15.5zM218 465q-55 0 -86.5 24.5t-31.5 65.5h47
q0 -31 21 -40t49 -9q29 0 49 9t20 40h48q0 -41 -30.5 -65.5t-85.5 -24.5zM270 607q-23 0 -36.5 8.5t-23 19t-18.5 19t-23 8.5q-17 0 -20.5 -14t-3.5 -39h-42q-1 19 2.5 41t17 36.5t43.5 14.5q23 0 37 -8t23 -19t18.5 -19t23.5 -8q17 0 20 14t3 40h43q1 -23 -3.5 -44.5
t-18 -35.5t-42.5 -14z" />
    <glyph glyph-name="acircumflex.ss01" horiz-adv-x="465" 
d="M144 -9q-53 0 -85 28.5t-32 75.5q0 46 27 71t69 37.5t84 22.5q45 9 67.5 16t30.5 16t8 23q0 37 -29.5 57t-68.5 20q-24 0 -48 -9t-40.5 -28t-17.5 -50h-61q4 48 29.5 78.5t62.5 44.5t77 14t77 -14t60 -43.5t23 -75.5v-181q0 -31 10.5 -42t24.5 -10t26 7l5 -39
q-2 -1 -18.5 -10t-43.5 -9q-39 0 -53.5 25t-14.5 60v55q-22 -64 -65 -102t-104 -38zM165 41q38 1 71 27t54 68t21 92q-11 -9 -35 -15.5t-50 -13.5q-36 -8 -67 -19.5t-49.5 -29.5t-17.5 -48q0 -30 20.5 -45.5t52.5 -15.5zM95 459v8l109 103h29l109 -103v-8h-60l-62 67h-3
l-60 -67h-62z" />
    <glyph glyph-name="uni1EA5.ss01" horiz-adv-x="465" 
d="M144 -9q-53 0 -85 28.5t-32 75.5q0 46 27 71t69 37.5t84 22.5q45 9 67.5 16t30.5 16t8 23q0 37 -29.5 57t-68.5 20q-24 0 -48 -9t-40.5 -28t-17.5 -50h-61q4 48 29.5 78.5t62.5 44.5t77 14t77 -14t60 -43.5t23 -75.5v-181q0 -31 10.5 -42t24.5 -10t26 7l5 -39
q-2 -1 -18.5 -10t-43.5 -9q-39 0 -53.5 25t-14.5 60v55q-22 -64 -65 -102t-104 -38zM165 41q38 1 71 27t54 68t21 92q-11 -9 -35 -15.5t-50 -13.5q-36 -8 -67 -19.5t-49.5 -29.5t-17.5 -48q0 -30 20.5 -45.5t52.5 -15.5zM94 450v8l109 103h29l109 -103v-8h-60l-62 67h-3
l-60 -67h-62zM350 539h-32v10l51 103h59v-15z" />
    <glyph glyph-name="uni1EAD.ss01" horiz-adv-x="465" 
d="M144 -9q-53 0 -85 28.5t-32 75.5q0 46 27 71t69 37.5t84 22.5q45 9 67.5 16t30.5 16t8 23q0 37 -29.5 57t-68.5 20q-24 0 -48 -9t-40.5 -28t-17.5 -50h-61q4 48 29.5 78.5t62.5 44.5t77 14t77 -14t60 -43.5t23 -75.5v-181q0 -31 10.5 -42t24.5 -10t26 7l5 -39
q-2 -1 -18.5 -10t-43.5 -9q-39 0 -53.5 25t-14.5 60v55q-22 -64 -65 -102t-104 -38zM165 41q38 1 71 27t54 68t21 92q-11 -9 -35 -15.5t-50 -13.5q-36 -8 -67 -19.5t-49.5 -29.5t-17.5 -48q0 -30 20.5 -45.5t52.5 -15.5zM95 459v8l109 103h29l109 -103v-8h-60l-62 67h-3
l-60 -67h-62zM210 -148q-24 0 -32.5 12t-8.5 28t8.5 28t32.5 12t31.5 -12t7.5 -28t-7.5 -28t-31.5 -12z" />
    <glyph glyph-name="uni1EA7.ss01" horiz-adv-x="465" 
d="M144 -9q-53 0 -85 28.5t-32 75.5q0 46 27 71t69 37.5t84 22.5q45 9 67.5 16t30.5 16t8 23q0 37 -29.5 57t-68.5 20q-24 0 -48 -9t-40.5 -28t-17.5 -50h-61q4 48 29.5 78.5t62.5 44.5t77 14t77 -14t60 -43.5t23 -75.5v-181q0 -31 10.5 -42t24.5 -10t26 7l5 -39
q-2 -1 -18.5 -10t-43.5 -9q-39 0 -53.5 25t-14.5 60v55q-22 -64 -65 -102t-104 -38zM165 41q38 1 71 27t54 68t21 92q-11 -9 -35 -15.5t-50 -13.5q-36 -8 -67 -19.5t-49.5 -29.5t-17.5 -48q0 -30 20.5 -45.5t52.5 -15.5zM78 540l-78 98v15h59l51 -103v-10h-32zM95 450v8
l109 103h29l109 -103v-8h-60l-62 67h-3l-60 -67h-62z" />
    <glyph glyph-name="uni1EA9.ss01" horiz-adv-x="465" 
d="M144 -9q-53 0 -85 28.5t-32 75.5q0 46 27 71t69 37.5t84 22.5q45 9 67.5 16t30.5 16t8 23q0 37 -29.5 57t-68.5 20q-24 0 -48 -9t-40.5 -28t-17.5 -50h-61q4 48 29.5 78.5t62.5 44.5t77 14t77 -14t60 -43.5t23 -75.5v-181q0 -31 10.5 -42t24.5 -10t26 7l5 -39
q-2 -1 -18.5 -10t-43.5 -9q-39 0 -53.5 25t-14.5 60v55q-22 -64 -65 -102t-104 -38zM165 41q38 1 71 27t54 68t21 92q-11 -9 -35 -15.5t-50 -13.5q-36 -8 -67 -19.5t-49.5 -29.5t-17.5 -48q0 -30 20.5 -45.5t52.5 -15.5zM95 459v8l109 103h29l109 -103v-8h-60l-62 67h-3
l-60 -67h-62zM309 546v11q4 14 18.5 23t27.5 19.5t13 27.5t-15 23.5t-32 0.5t-25 -26l-32 16q8 29 31.5 42.5t50 12.5t46 -16.5t19.5 -45.5q0 -26 -13 -40t-26.5 -24t-16.5 -24h-46z" />
    <glyph glyph-name="uni1EAB.ss01" horiz-adv-x="465" 
d="M144 -9q-53 0 -85 28.5t-32 75.5q0 46 27 71t69 37.5t84 22.5q45 9 67.5 16t30.5 16t8 23q0 37 -29.5 57t-68.5 20q-24 0 -48 -9t-40.5 -28t-17.5 -50h-61q4 48 29.5 78.5t62.5 44.5t77 14t77 -14t60 -43.5t23 -75.5v-181q0 -31 10.5 -42t24.5 -10t26 7l5 -39
q-2 -1 -18.5 -10t-43.5 -9q-39 0 -53.5 25t-14.5 60v55q-22 -64 -65 -102t-104 -38zM165 41q38 1 71 27t54 68t21 92q-11 -9 -35 -15.5t-50 -13.5q-36 -8 -67 -19.5t-49.5 -29.5t-17.5 -48q0 -30 20.5 -45.5t52.5 -15.5zM94 459v8l109 103h29l109 -103v-8h-60l-62 67h-3
l-60 -67h-62zM267 612q-23 0 -36.5 8.5t-23 19t-18.5 19t-23 8.5q-17 0 -20.5 -14t-3.5 -39h-42q-1 19 2.5 41t17 36.5t43.5 14.5q23 0 37 -8t23 -19t18.5 -19t23.5 -8q17 0 20 14t3 40h43q1 -23 -3.5 -44.5t-18 -35.5t-42.5 -14z" />
    <glyph glyph-name="adieresis.ss01" horiz-adv-x="465" 
d="M144 -9q-53 0 -85 28.5t-32 75.5q0 46 27 71t69 37.5t84 22.5q45 9 67.5 16t30.5 16t8 23q0 37 -29.5 57t-68.5 20q-24 0 -48 -9t-40.5 -28t-17.5 -50h-61q4 48 29.5 78.5t62.5 44.5t77 14t77 -14t60 -43.5t23 -75.5v-181q0 -31 10.5 -42t24.5 -10t26 7l5 -39
q-2 -1 -18.5 -10t-43.5 -9q-39 0 -53.5 25t-14.5 60v55q-22 -64 -65 -102t-104 -38zM165 41q38 1 71 27t54 68t21 92q-11 -9 -35 -15.5t-50 -13.5q-36 -8 -67 -19.5t-49.5 -29.5t-17.5 -48q0 -30 20.5 -45.5t52.5 -15.5zM139 456q-28 0 -38 14.5t-10 33.5q0 18 10 32.5
t38 14.5q29 0 38 -14.5t9 -32.5q0 -19 -9 -33.5t-38 -14.5zM296 456q-29 0 -38.5 14.5t-9.5 33.5q0 18 9.5 32.5t38.5 14.5q28 0 37 -14.5t9 -32.5q0 -19 -9 -33.5t-37 -14.5z" />
    <glyph glyph-name="uni1EA1.ss01" horiz-adv-x="465" 
d="M144 -9q-53 0 -85 28.5t-32 75.5q0 46 27 71t69 37.5t84 22.5q45 9 67.5 16t30.5 16t8 23q0 37 -29.5 57t-68.5 20q-24 0 -48 -9t-40.5 -28t-17.5 -50h-61q4 48 29.5 78.5t62.5 44.5t77 14t77 -14t60 -43.5t23 -75.5v-181q0 -31 10.5 -42t24.5 -10t26 7l5 -39
q-2 -1 -18.5 -10t-43.5 -9q-39 0 -53.5 25t-14.5 60v55q-22 -64 -65 -102t-104 -38zM165 41q38 1 71 27t54 68t21 92q-11 -9 -35 -15.5t-50 -13.5q-36 -8 -67 -19.5t-49.5 -29.5t-17.5 -48q0 -30 20.5 -45.5t52.5 -15.5zM210 -148q-24 0 -32.5 12t-8.5 28t8.5 28t32.5 12
t31.5 -12t7.5 -28t-7.5 -28t-31.5 -12z" />
    <glyph glyph-name="agrave.ss01" horiz-adv-x="465" 
d="M144 -9q-53 0 -85 28.5t-32 75.5q0 46 27 71t69 37.5t84 22.5q45 9 67.5 16t30.5 16t8 23q0 37 -29.5 57t-68.5 20q-24 0 -48 -9t-40.5 -28t-17.5 -50h-61q4 48 29.5 78.5t62.5 44.5t77 14t77 -14t60 -43.5t23 -75.5v-181q0 -31 10.5 -42t24.5 -10t26 7l5 -39
q-2 -1 -18.5 -10t-43.5 -9q-39 0 -53.5 25t-14.5 60v55q-22 -64 -65 -102t-104 -38zM165 41q38 1 71 27t54 68t21 92q-11 -9 -35 -15.5t-50 -13.5q-36 -8 -67 -19.5t-49.5 -29.5t-17.5 -48q0 -30 20.5 -45.5t52.5 -15.5zM184 460l-78 98v15h59l51 -103v-10h-32z" />
    <glyph glyph-name="uni1EA3.ss01" horiz-adv-x="465" 
d="M144 -9q-53 0 -85 28.5t-32 75.5q0 46 27 71t69 37.5t84 22.5q45 9 67.5 16t30.5 16t8 23q0 37 -29.5 57t-68.5 20q-24 0 -48 -9t-40.5 -28t-17.5 -50h-61q4 48 29.5 78.5t62.5 44.5t77 14t77 -14t60 -43.5t23 -75.5v-181q0 -31 10.5 -42t24.5 -10t26 7l5 -39
q-2 -1 -18.5 -10t-43.5 -9q-39 0 -53.5 25t-14.5 60v55q-22 -64 -65 -102t-104 -38zM165 41q38 1 71 27t54 68t21 92q-11 -9 -35 -15.5t-50 -13.5q-36 -8 -67 -19.5t-49.5 -29.5t-17.5 -48q0 -30 20.5 -45.5t52.5 -15.5zM200 465v11q4 14 18.5 23t27.5 19.5t13 27.5
t-15 23.5t-32 0.5t-25 -26l-32 16q8 29 31.5 42.5t50 12.5t46 -16.5t19.5 -45.5q0 -26 -13 -40t-26.5 -24t-16.5 -24h-46z" />
    <glyph glyph-name="amacron.ss01" horiz-adv-x="465" 
d="M144 -9q-53 0 -85 28.5t-32 75.5q0 46 27 71t69 37.5t84 22.5q45 9 67.5 16t30.5 16t8 23q0 37 -29.5 57t-68.5 20q-24 0 -48 -9t-40.5 -28t-17.5 -50h-61q4 48 29.5 78.5t62.5 44.5t77 14t77 -14t60 -43.5t23 -75.5v-181q0 -31 10.5 -42t24.5 -10t26 7l5 -39
q-2 -1 -18.5 -10t-43.5 -9q-39 0 -53.5 25t-14.5 60v55q-22 -64 -65 -102t-104 -38zM165 41q38 1 71 27t54 68t21 92q-11 -9 -35 -15.5t-50 -13.5q-36 -8 -67 -19.5t-49.5 -29.5t-17.5 -48q0 -30 20.5 -45.5t52.5 -15.5zM93 466v49h249v-49h-249z" />
    <glyph glyph-name="aogonek.ss01" horiz-adv-x="469" 
d="M145 -9q-54 0 -86 28.5t-32 74.5q0 47 27 72t69 37.5t84 22.5q45 9 67.5 16t30.5 16t8 23q0 37 -29.5 57t-68.5 20q-24 0 -48 -9t-40.5 -28t-17.5 -50h-61q4 48 29.5 78.5t62.5 44.5t77 14t77 -14t60 -43.5t23 -75.5v-181q0 -31 10.5 -42t24.5 -10t26 7l5 -39l-1 -1
l2 -16l-14 -7t-32 -20.5t-31.5 -32.5t-13.5 -42q0 -18 11 -29.5t32 -11.5q17 0 27.5 7.5t14.5 15.5l4 8l39 -31l-9.5 -12.5t-29.5 -24.5t-51 -12q-36 0 -62 21.5t-26 60.5q0 36 23.5 63t51.5 45q-37 1 -51 26t-14 59v55q-22 -64 -65 -102t-103 -38zM165 41q41 1 74 27
t52.5 68.5t19.5 91.5q-11 -9 -35 -15.5t-50 -13.5q-36 -8 -67 -19.5t-50 -29.5t-17 -48q0 -30 20.5 -45.5t52.5 -15.5z" />
    <glyph glyph-name="aring.ss01" horiz-adv-x="465" 
d="M144 -9q-53 0 -85 28.5t-32 75.5q0 46 27 71t69 37.5t84 22.5q45 9 67.5 16t30.5 16t8 23q0 37 -29.5 57t-68.5 20q-24 0 -48 -9t-40.5 -28t-17.5 -50h-61q4 48 29.5 78.5t62.5 44.5t77 14t77 -14t60 -43.5t23 -75.5v-181q0 -31 10.5 -42t24.5 -10t26 7l5 -39
q-2 -1 -18.5 -10t-43.5 -9q-39 0 -53.5 25t-14.5 60v55q-22 -64 -65 -102t-104 -38zM165 41q38 1 71 27t54 68t21 92q-11 -9 -35 -15.5t-50 -13.5q-36 -8 -67 -19.5t-49.5 -29.5t-17.5 -48q0 -30 20.5 -45.5t52.5 -15.5zM219 454q-44 0 -67.5 24.5t-23.5 65.5t23 66t68 25
q43 0 67.5 -25t24.5 -66q0 -39 -24.5 -64.5t-67.5 -25.5zM218 494q25 0 38.5 15t13.5 36q0 22 -13.5 37.5t-38.5 15.5t-38.5 -15.5t-13.5 -37.5t14.5 -36.5t37.5 -14.5z" />
    <glyph glyph-name="atilde.ss01" horiz-adv-x="465" 
d="M144 -9q-53 0 -85 28.5t-32 75.5q0 46 27 71t69 37.5t84 22.5q45 9 67.5 16t30.5 16t8 23q0 37 -29.5 57t-68.5 20q-24 0 -48 -9t-40.5 -28t-17.5 -50h-61q4 48 29.5 78.5t62.5 44.5t77 14t77 -14t60 -43.5t23 -75.5v-181q0 -31 10.5 -42t24.5 -10t26 7l5 -39
q-2 -1 -18.5 -10t-43.5 -9q-39 0 -53.5 25t-14.5 60v55q-22 -64 -65 -102t-104 -38zM165 41q38 1 71 27t54 68t21 92q-11 -9 -35 -15.5t-50 -13.5q-36 -8 -67 -19.5t-49.5 -29.5t-17.5 -48q0 -30 20.5 -45.5t52.5 -15.5zM269 470q-23 0 -36.5 8.5t-23 19t-18.5 19t-23 8.5
q-17 0 -20.5 -14t-3.5 -39h-42q-1 19 2.5 41t17 36.5t43.5 14.5q23 0 37 -8t23 -19t18.5 -19t23.5 -8q17 0 20 14t3 40h43q1 -23 -3.5 -44.5t-18 -35.5t-42.5 -14z" />
    <glyph glyph-name="f.ss01" horiz-adv-x="321" 
d="M278 290h-103v-290h-64v290h-82v53h107q-28 4 -53.5 17t-42 36t-16.5 56q0 32 19 57t51 39.5t72 14.5q45 0 79.5 -18.5t56.5 -48.5t28 -65h-63q0 5 -8.5 23.5t-30 35.5t-62.5 17q-40 0 -62.5 -21.5t-22.5 -47.5q0 -40 36 -66t116 -29h45h-28q13 -1 28 0v-53z" />
    <glyph glyph-name="g.ss01" horiz-adv-x="461" 
d="M113 79q0 -23 16 -32t41.5 -10t52.5 -1q34 -1 70 -4.5t66 -14.5t49 -34t19 -62q0 -43 -29.5 -68.5t-76.5 -37t-99 -12.5q-91 -1 -147 25.5t-55 88.5q1 41 27.5 68t77.5 27q-28 4 -46.5 19.5t-18.5 42.5q0 23 15.5 35.5t38 17.5t42.5 5q-56 11 -81.5 46.5t-25.5 80.5
q0 68 46.5 108.5t129.5 40.5h47t38 7t15 27q0 23 -23.5 29t-57.5 -6l-10 46q30 9 60 5.5t49.5 -19.5t19.5 -44q0 -24 -11.5 -36.5t-25 -17.5t-17.5 -7q39 -13 65 -50t26 -83q0 -38 -19 -69.5t-58 -51t-99 -19.5q-28 0 -53.5 -1t-41.5 -9t-16 -30zM115 260q0 -55 33 -76
t76 -21q108 0 108 97q0 45 -25 74t-83 29q-62 0 -85.5 -30.5t-23.5 -72.5zM222 -146q58 0 99 15.5t41 55.5q0 42 -40.5 55.5t-99.5 13.5q-39 0 -70 -4.5t-49.5 -19.5t-18.5 -45q0 -29 19.5 -44t51 -21t67.5 -6z" />
    <glyph glyph-name="gbreve.ss01" horiz-adv-x="461" 
d="M113 79q0 -23 16 -32t41.5 -10t52.5 -1q34 -1 70 -4.5t66 -14.5t49 -34t19 -62q0 -43 -29.5 -68.5t-76.5 -37t-99 -12.5q-91 -1 -147 25.5t-55 88.5q1 41 27.5 68t77.5 27q-28 4 -46.5 19.5t-18.5 42.5q0 23 15.5 35.5t38 17.5t42.5 5q-56 11 -81.5 46.5t-25.5 80.5
q0 68 46.5 108.5t129.5 40.5h47t38 7t15 27q0 23 -23.5 29t-57.5 -6l-10 46q30 9 60 5.5t49.5 -19.5t19.5 -44q0 -24 -11.5 -36.5t-25 -17.5t-17.5 -7q39 -13 65 -50t26 -83q0 -38 -19 -69.5t-58 -51t-99 -19.5q-28 0 -53.5 -1t-41.5 -9t-16 -30zM115 260q0 -55 33 -76
t76 -21q108 0 108 97q0 45 -25 74t-83 29q-62 0 -85.5 -30.5t-23.5 -72.5zM222 -146q58 0 99 15.5t41 55.5q0 42 -40.5 55.5t-99.5 13.5q-39 0 -70 -4.5t-49.5 -19.5t-18.5 -45q0 -29 19.5 -44t51 -21t67.5 -6zM228 574q-55 0 -86.5 24.5t-31.5 65.5h47q0 -31 21 -40t49 -9
q29 0 49 9t20 40h48q0 -41 -30.5 -65.5t-85.5 -24.5z" />
    <glyph glyph-name="uni0123.ss01" horiz-adv-x="462" 
d="M194 575l33 148h64l-60 -148h-37zM113 79q0 -23 16 -32t41.5 -10t52.5 -1q34 -1 70 -4.5t66 -14.5t49 -34t19 -62q0 -43 -29.5 -68.5t-76.5 -37t-99 -12.5q-91 -1 -147 25.5t-55 88.5q1 41 27.5 68t77.5 27q-28 4 -46.5 19.5t-18.5 42.5q0 23 15.5 35.5t38 17.5t42.5 5
q-56 11 -81.5 46.5t-25.5 80.5q0 68 46.5 108.5t129.5 40.5h47t38 7t15 27q0 23 -23.5 29t-57.5 -6l-10 46q30 9 60 5.5t49.5 -19.5t19.5 -44q0 -24 -11.5 -36.5t-25 -17.5t-17.5 -7q39 -13 65 -50t26 -83q0 -38 -19 -69.5t-58 -51t-99 -19.5q-28 0 -53.5 -1t-41.5 -9
t-16 -30zM115 260q0 -55 33 -76t76 -21q108 0 108 97q0 45 -25 74t-83 29q-62 0 -85.5 -30.5t-23.5 -72.5zM222 -146q58 0 99 15.5t41 55.5q0 42 -40.5 55.5t-99.5 13.5q-39 0 -70 -4.5t-49.5 -19.5t-18.5 -45q0 -29 19.5 -44t51 -21t67.5 -6z" />
    <glyph glyph-name="gdotaccent.ss01" horiz-adv-x="461" 
d="M113 79q0 -23 16 -32t41.5 -10t52.5 -1q34 -1 70 -4.5t66 -14.5t49 -34t19 -62q0 -43 -29.5 -68.5t-76.5 -37t-99 -12.5q-91 -1 -147 25.5t-55 88.5q1 41 27.5 68t77.5 27q-28 4 -46.5 19.5t-18.5 42.5q0 23 15.5 35.5t38 17.5t42.5 5q-56 11 -81.5 46.5t-25.5 80.5
q0 68 46.5 108.5t129.5 40.5h47t38 7t15 27q0 23 -23.5 29t-57.5 -6l-10 46q30 9 60 5.5t49.5 -19.5t19.5 -44q0 -24 -11.5 -36.5t-25 -17.5t-17.5 -7q39 -13 65 -50t26 -83q0 -38 -19 -69.5t-58 -51t-99 -19.5q-28 0 -53.5 -1t-41.5 -9t-16 -30zM115 260q0 -55 33 -76
t76 -21q108 0 108 97q0 45 -25 74t-83 29q-62 0 -85.5 -30.5t-23.5 -72.5zM222 -146q58 0 99 15.5t41 55.5q0 42 -40.5 55.5t-99.5 13.5q-39 0 -70 -4.5t-49.5 -19.5t-18.5 -45q0 -29 19.5 -44t51 -21t67.5 -6zM217 577q-28 0 -38 14.5t-10 33.5t10 33t38 14q29 0 38 -14
t9 -33t-9 -33.5t-38 -14.5z" />
    <glyph glyph-name="lcaron.ss01" horiz-adv-x="239" 
d="M160 424l34 147h63l-59 -147h-38zM52 0v563h63v-563h-63z" />
    <glyph glyph-name="x.ss01" horiz-adv-x="357" 
d="M55 176l89 87l-89 89l35 35l89 -89l89 89l34 -34l-89 -89l89 -89l-35 -35l-89 89l-88 -88z" />
    <glyph glyph-name="N_o.dlig" horiz-adv-x="884" 
d="M709 322q-57 0 -85 35t-28 88q0 54 28 89t85 35q54 0 82.5 -34t28.5 -90q0 -52 -27 -87.5t-84 -35.5zM458 563h65v-563h-121l-280 534h-2v-534h-65v563h113l288 -534h2v534zM709 365q35 0 49 25.5t14 55.5q0 29 -14 54.5t-49 25.5q-37 0 -51 -25.5t-14 -54.5
q0 -30 14 -55.5t51 -25.5zM594 212v49h227v-49h-227z" />
    <glyph glyph-name="f_f.dlig" horiz-adv-x="523" 
d="M76 -3v362h-63v48h63v90q0 35 14.5 55t51.5 20h121v-53h-122v-112h191v90q0 35 14.5 55t51.5 20h120v-53h-121v-112h115v-48h-115v-362h-65v362h-191v-362h-65z" />
    <glyph glyph-name="f_i.dlig" horiz-adv-x="429" 
d="M76 -3v362h-63v48h63v90q0 35 14.5 55t51.5 20h121v-53h-122v-112h237v-407h-64v359h-173v-362h-65z" />
    <glyph glyph-name="f_t.dlig" horiz-adv-x="522" 
d="M76 -3v362h-63v48h63v90q0 35 14.5 55t51.5 20h121v-53h-122v-112h115q33 0 48 5.5t19 27.5t4 72h55v-105h94v-48h-94v-307h95v-52h-91q-37 0 -51.5 20t-14.5 55v284h-179v-362h-65z" />
    <glyph glyph-name="t_t.dlig" horiz-adv-x="515" 
d="M140 0q-37 0 -51.5 20t-14.5 55v284h-64v48q32 0 47.5 5.5t19.5 27.5t4 72h55v-105h113q33 0 48 5.5t19 27.5t4 72h55v-105h94v-48h-94v-307h95v-52h-91q-37 0 -51.5 20t-14.5 55v284h-177v-307h95v-52h-91z" />
    <glyph glyph-name="ordfeminine" unicode="&#xaa;" horiz-adv-x="279" 
d="M125 403q-53 0 -77.5 37.5t-24.5 93.5q0 59 25 96.5t77 37.5q41 0 61.5 -19.5t27.5 -37.5l1 55h44v-258h-36l-7 49h-2q-7 -18 -28 -36t-61 -18zM142 440q39 0 56 25.5t17 68.5q0 46 -17.5 70.5t-55.5 24.5q-41 0 -59 -27.5t-18 -67.5q0 -41 18.5 -67.5t58.5 -26.5z" />
    <glyph glyph-name="ordmasculine" unicode="&#xba;" horiz-adv-x="297" 
d="M149 408q-67 0 -100.5 40t-33.5 102q0 63 33.5 103t100.5 40q65 0 99 -39t34 -104q0 -61 -32.5 -101.5t-100.5 -40.5zM149 446q36 0 55 15.5t27 40t8 49.5q0 26 -8 50.5t-27 40.5t-55 16t-55.5 -16t-27.5 -40.5t-8 -50.5q0 -25 8 -49.5t27.5 -40t55.5 -15.5z" />
    <glyph glyph-name="zero" unicode="0" horiz-adv-x="513" 
d="M257 -14q-118 0 -174 79.5t-56 214.5q0 89 23.5 154.5t74.5 102t132 36.5q79 0 130 -36t75.5 -102t24.5 -155q0 -87 -24.5 -153.5t-75.5 -103.5t-130 -37zM256 40q88 0 129 63.5t41 176.5q0 112 -40 175.5t-130 63.5q-86 0 -127 -61.5t-41 -177.5q0 -112 39.5 -176
t128.5 -64z" />
    <glyph glyph-name="one" unicode="1" horiz-adv-x="330" 
d="M292 56v-56h-232v56h89v411q-10 -31 -27.5 -48.5t-37 -26t-35 -11t-21.5 -2.5v68q6 -1 25.5 3t42.5 16t40 35t18 62h58v-507h80z" />
    <glyph glyph-name="two" unicode="2" horiz-adv-x="492" 
d="M38 0v53q1 1 27.5 18.5t67 46.5t85 66t82 76.5t56.5 76.5q24 50 14.5 89.5t-43.5 63t-85 23.5q-60 -1 -96 -36.5t-34 -105.5l-59 6q-2 59 22 101.5t69 65t104 22.5q54 0 95.5 -19t65.5 -52.5t26.5 -77t-21.5 -90.5q-18 -35 -52 -72t-75 -71.5t-79.5 -62t-66 -45
t-34.5 -20.5h340v-56h-409z" />
    <glyph glyph-name="three" unicode="3" horiz-adv-x="492" 
d="M250 -10q-56 0 -106 21.5t-80.5 64.5t-31.5 109l61 6q2 -49 25 -81t58.5 -47.5t74.5 -15.5q41 0 74 14t53 40.5t20 61.5q0 43 -21.5 66.5t-50 32.5t-49.5 9h-80v37h81q50 0 79 24t29 67q0 56 -38 88t-102 32q-51 0 -82.5 -22t-46 -51t-16.5 -52l-58 7q1 16 11 44.5
t33 57.5t61.5 49.5t96.5 20.5q92 0 146 -43.5t54 -118.5q0 -50 -26.5 -80.5t-72.5 -42.5q47 -10 80 -46t33 -89q0 -50 -27.5 -86.5t-74.5 -56.5t-107 -20z" />
    <glyph glyph-name="four" unicode="4" horiz-adv-x="498" 
d="M25 119v56q48 23 90 65.5t73.5 97t49.5 113t19 112.5h68q0 -72 -30.5 -144.5t-82.5 -136t-117 -107.5h227v106h64v-106h78v-56h-78v-119h-64v119h-297z" />
    <glyph glyph-name="five" unicode="5" horiz-adv-x="509" 
d="M253 -10q-84 0 -138 40.5t-71 108.5l65 7q0 -4 6.5 -20t22 -34.5t44 -32.5t72.5 -14q49 0 82 19.5t51 50.5t20 64q2 36 -13 70t-48.5 55.5t-84.5 21.5q-37 0 -63 -9.5t-42 -22.5t-23 -23l-7 -10l-63 13l28 289h351v-57h-302l-22 -202l8.5 10.5t27.5 24t49 24t72 10.5
q69 0 113 -28.5t64 -73t17 -93.5q-3 -47 -29 -90t-73 -70.5t-114 -27.5z" />
    <glyph glyph-name="six" unicode="6" horiz-adv-x="527" 
d="M273 -10q-81 0 -131 38t-73 100t-23 135q0 58 15 113t45.5 99.5t77.5 71t110 26.5q51 0 84.5 -15t53 -34.5t27 -34l7.5 -14.5l-62 -16l-10.5 14.5t-35.5 28.5t-66 14q-63 0 -107.5 -40t-64.5 -109t-9 -156q2 20 14 47t35.5 52.5t59 41.5t85.5 14q63 -1 104 -28.5
t60 -70.5t15.5 -90.5t-28 -90t-70.5 -69.5t-113 -27zM276 44q47 0 79.5 19.5t50 50.5t19.5 65.5t-11.5 66t-44 52.5t-78.5 23q-54 2 -92 -22t-57.5 -62.5t-19.5 -77.5q13 -54 54 -84.5t100 -30.5z" />
    <glyph glyph-name="seven" unicode="7" horiz-adv-x="476" 
d="M185 0h-64q0 115 32 208.5t88.5 167.5t131.5 131h-333v56h397v-54q-23 -18 -55.5 -46t-66.5 -69t-63.5 -97t-48 -129.5t-18.5 -167.5z" />
    <glyph glyph-name="eight" unicode="8" horiz-adv-x="540" 
d="M267 -10q-65 0 -116 18.5t-81 54.5t-30 89q0 54 37 94t99 52q-43 10 -65.5 32t-30 47t-7.5 45q0 45 25 79t68.5 53t100.5 19q59 0 103 -19.5t68.5 -53.5t24.5 -78q0 -20 -8 -45t-30 -47t-65 -32q62 -13 99 -51.5t37 -94.5q0 -54 -30 -90.5t-82 -54t-117 -17.5zM267 315
q62 0 99.5 22.5t37.5 72.5q0 52 -39 81.5t-98 29.5q-61 0 -99 -30t-38 -81t40 -73t97 -22zM267 43q77 0 121.5 33.5t44.5 86.5q0 58 -44.5 88t-121.5 30q-76 0 -120 -30t-44 -88q0 -53 44 -86.5t120 -33.5z" />
    <glyph glyph-name="nine" unicode="9" horiz-adv-x="529" 
d="M257 -10q-59 0 -97.5 16.5t-61 38t-31.5 38t-10 17.5l61 16q0 -1 7.5 -11t23.5 -24t42.5 -24t65.5 -10q64 0 101 37t51.5 103t11.5 154q-3 -20 -15.5 -45t-35 -48.5t-55.5 -38.5t-76 -15q-67 0 -110.5 27t-64.5 69.5t-19 90t26.5 90t71.5 69t116 26.5q82 0 133.5 -40
t73.5 -107.5t16 -148.5q-4 -79 -26 -142.5t-69.5 -100.5t-129.5 -37zM251 237q70 0 110.5 43t49.5 107q-15 61 -54.5 93.5t-98.5 32.5q-49 0 -82 -20t-50 -51t-18 -66.5t14.5 -67t47.5 -51.5t81 -20z" />
    <glyph glyph-name="zero.subs" horiz-adv-x="254" 
d="M127 -139q-57 0 -84.5 37.5t-27.5 101.5q0 62 26.5 100t85.5 38q58 0 85 -37.5t27 -100.5q0 -61 -27 -100t-85 -39zM127 -106q39 0 57 27.5t18 78.5q0 50 -18 77.5t-57 27.5q-74 0 -74 -105q0 -50 17.5 -78t56.5 -28z" />
    <glyph glyph-name="one.subs" horiz-adv-x="169" 
d="M30 -139v36h45v194q-6 -22 -19 -33t-25 -15t-16 -4v45q4 -1 19 2t29.5 14.5t15.5 37.5h36v-241h39v-36h-124z" />
    <glyph glyph-name="two.subs" horiz-adv-x="236" 
d="M15 -139v34l19 11.5t45.5 30t51 41t36.5 45.5q17 34 0.5 57.5t-50.5 23.5q-27 0 -44 -17.5t-14 -53.5l-37 5q-4 47 25 73.5t74 26.5q36 0 60.5 -16.5t31.5 -44t-8 -59.5q-12 -22 -34 -43t-46.5 -38.5t-43.5 -28t-24 -12.5h164v-35h-206z" />
    <glyph glyph-name="three.subs" horiz-adv-x="239" 
d="M123 -149q-44 0 -76 24t-32 72l39 5q1 -33 21 -49.5t49 -16.5q26 0 44 14t18 36q0 27 -19.5 36.5t-35.5 9.5h-34v22h35q21 0 35 9.5t14 28.5q0 25 -16.5 38.5t-44.5 13.5q-32 0 -47 -19.5t-16 -35.5l-36 5q0 10 9 30t30.5 37t59.5 17q45 0 71.5 -20.5t26.5 -56.5
q0 -49 -49 -59q23 -4 39 -21.5t16 -42.5q0 -36 -28.5 -56.5t-72.5 -20.5z" />
    <glyph glyph-name="four.subs" horiz-adv-x="251" 
d="M15 -83v36q33 15 57.5 46t38.5 68.5t15 70.5h45q0 -50 -31.5 -101t-81.5 -84h100v46h41v-46h37v-36h-37v-56h-41v56h-143z" />
    <glyph glyph-name="five.subs" horiz-adv-x="240" 
d="M119 -149q-46 0 -71.5 22t-32.5 53l41 5q1 -3 6.5 -14t19 -21t38.5 -10q31 0 47.5 18t17.5 40q2 23 -14 43t-49 20q-21 0 -33.5 -7t-18 -14l-5.5 -7l-42 7l15 142h174v-36h-145l-9 -90l7 8.5t23.5 17t44.5 8.5q49 0 72 -29t20 -64q-3 -34 -30.5 -63t-75.5 -29z" />
    <glyph glyph-name="six.subs" horiz-adv-x="244" 
d="M125 -149q-57 0 -83.5 39t-26.5 93q0 37 13 70t40 54t66 21q36 0 55 -13t26 -26.5l7 -13.5l-40 -8l-4.5 6.5t-15.5 13t-30 6.5q-34 0 -59 -34.5t-18 -95.5q1 9 10 25t27.5 29t49.5 11q37 0 58 -18t26.5 -44.5t-4 -52.5t-34 -44t-63.5 -18zM128 -115q30 0 46 17t17.5 40
t-13 41t-45.5 19q-33 1 -52.5 -20.5t-19.5 -48.5q5 -23 24 -35.5t43 -12.5z" />
    <glyph glyph-name="seven.subs" horiz-adv-x="234" 
d="M93 -139h-42q0 85 36 145t92 95h-164v37h204v-36q-15 -9 -36 -26.5t-41.5 -46t-34.5 -69.5t-14 -99z" />
    <glyph glyph-name="eight.subs" horiz-adv-x="253" 
d="M126 -149q-48 0 -79.5 20t-31.5 57q0 26 18 45t48 24q-32 7 -41 26.5t-9 32.5q0 32 26.5 52t68.5 20q43 0 69.5 -20.5t26.5 -51.5q0 -13 -9.5 -32.5t-41.5 -26.5q30 -5 48.5 -23t18.5 -46q0 -38 -32.5 -57.5t-79.5 -19.5zM126 7q27 0 43.5 10t16.5 31q0 23 -17 35.5
t-43 12.5q-27 0 -43.5 -12.5t-16.5 -35.5q0 -21 17 -31t43 -10zM126 -117q33 0 52.5 14.5t19.5 37.5q0 26 -19.5 39t-52.5 13q-34 0 -53 -13t-19 -39q0 -23 19 -37.5t53 -14.5z" />
    <glyph glyph-name="nine.subs" horiz-adv-x="246" 
d="M120 -149q-40 0 -61.5 14t-29.5 28t-8 15l38 10q1 -1 6.5 -8.5t18.5 -15t36 -7.5q36 0 55 31.5t16 95.5q-1 -9 -10.5 -24t-27.5 -27.5t-46 -12.5q-38 0 -60.5 18t-29 44.5t3 53t34 44.5t65.5 18q40 0 65.5 -19.5t36.5 -51.5t9 -70q-3 -57 -27 -96.5t-84 -39.5zM116 -24
q31 0 49 18.5t21 46.5q-13 54 -66 54q-32 0 -48 -18t-17 -41.5t14.5 -41.5t46.5 -18z" />
    <glyph glyph-name="zero.dnom" horiz-adv-x="254" 
d="M127 -14q-57 0 -84.5 37.5t-27.5 101.5q0 62 26.5 100t85.5 38q58 0 85 -37.5t27 -100.5q0 -61 -27 -100t-85 -39zM127 19q39 0 57 27.5t18 78.5q0 50 -18 77.5t-57 27.5q-74 0 -74 -105q0 -50 17.5 -78t56.5 -28z" />
    <glyph glyph-name="one.dnom" horiz-adv-x="169" 
d="M30 0v36h45v194q-6 -22 -19 -33t-25 -15t-16 -4v45q4 -1 19 2t29.5 14.5t15.5 37.5h36v-241h39v-36h-124z" />
    <glyph glyph-name="two.dnom" horiz-adv-x="236" 
d="M15 0v34l19 11.5t45.5 30t51 41t36.5 45.5q17 34 0.5 57.5t-50.5 23.5q-27 0 -44 -17.5t-14 -53.5l-37 5q-4 47 25 73.5t74 26.5q35 0 59.5 -16.5t32 -44t-7.5 -59.5q-12 -22 -34 -43t-46.5 -38.5t-43.5 -28t-24 -12.5h164v-35h-206z" />
    <glyph glyph-name="three.dnom" horiz-adv-x="239" 
d="M123 -10q-45 0 -76.5 24t-31.5 72l39 5q1 -33 21 -49.5t49 -16.5q26 0 44 14t18 36q0 27 -19.5 36.5t-35.5 9.5h-34v22h35q21 0 35 9.5t14 28.5q0 25 -16.5 38.5t-44.5 13.5q-32 0 -47 -19.5t-16 -35.5l-36 5q0 10 9 30t30.5 37t59.5 17q45 0 71.5 -20.5t26.5 -56.5
q0 -49 -49 -59q23 -4 39 -21.5t16 -42.5q0 -36 -28.5 -56.5t-72.5 -20.5z" />
    <glyph glyph-name="four.dnom" horiz-adv-x="251" 
d="M15 56v36q33 15 57.5 46t38.5 68.5t15 70.5h45q0 -51 -31.5 -101.5t-81.5 -83.5h100v46h41v-46h37v-36h-37v-56h-41v56h-143z" />
    <glyph glyph-name="five.dnom" horiz-adv-x="240" 
d="M119 -10q-46 0 -71.5 22.5t-32.5 52.5l41 5q1 -3 6.5 -14t19 -21t38.5 -10q31 0 47.5 18.5t17.5 39.5q2 23 -14 43t-49 20q-21 0 -33.5 -7t-18 -14l-5.5 -7l-42 7l15 142h174v-36h-145l-9 -90l7 8.5t23.5 17t44.5 8.5q49 0 72 -29t20 -64q-3 -34 -30.5 -63t-75.5 -29z
" />
    <glyph glyph-name="six.dnom" horiz-adv-x="244" 
d="M125 -10q-57 0 -83.5 39t-26.5 93q0 37 13 70t40 54t66 21q36 0 55 -13t26 -26.5l7 -13.5l-40 -8l-4.5 6.5t-15.5 13t-30 6.5q-34 0 -59 -34.5t-18 -95.5q1 9 10 25t27.5 29t49.5 11q37 0 58 -18t26.5 -44.5t-4 -52.5t-34 -44t-63.5 -18zM128 24q30 0 46 17t17.5 40
t-13 41t-45.5 19q-33 1 -52.5 -20.5t-19.5 -48.5q5 -23 24 -35.5t43 -12.5z" />
    <glyph glyph-name="seven.dnom" horiz-adv-x="234" 
d="M93 0h-42q0 85 36 145t92 95h-164v37h204v-36q-15 -9 -36 -26.5t-41.5 -46t-34.5 -69.5t-14 -99z" />
    <glyph glyph-name="eight.dnom" horiz-adv-x="253" 
d="M126 -10q-48 0 -79.5 20t-31.5 57q0 26 18 45t48 24q-32 6 -41 26t-9 33q0 32 26.5 52t68.5 20q43 0 69.5 -20.5t26.5 -51.5q0 -13 -9.5 -33t-41.5 -26q30 -6 48.5 -23.5t18.5 -45.5q0 -38 -32.5 -57.5t-79.5 -19.5zM126 146q27 0 43.5 10t16.5 31q0 23 -17 35.5
t-43 12.5q-27 0 -43.5 -12.5t-16.5 -35.5q0 -21 17 -31t43 -10zM126 22q33 0 52.5 14.5t19.5 37.5q0 26 -19.5 39t-52.5 13q-34 0 -53 -13t-19 -39q0 -23 19 -37.5t53 -14.5z" />
    <glyph glyph-name="nine.dnom" horiz-adv-x="246" 
d="M120 -10q-40 0 -61.5 14t-29.5 28t-8 15l38 10q1 -1 6.5 -8.5t18.5 -15t36 -7.5q36 0 55 31.5t16 95.5q-1 -9 -10.5 -24t-27.5 -27.5t-46 -12.5q-38 0 -60.5 18t-29 44.5t3 53t34 44.5t65.5 18q40 0 65.5 -19.5t36.5 -51.5t9 -70q-3 -57 -27 -96.5t-84 -39.5zM116 115
q31 0 49 18.5t21 46.5q-13 54 -66 54q-32 0 -48 -18t-17 -41.5t14.5 -41.5t46.5 -18z" />
    <glyph glyph-name="zero.numr" horiz-adv-x="254" 
d="M127 -14q-57 0 -84.5 37.5t-27.5 101.5q0 62 26.5 100t85.5 38q58 0 85 -37.5t27 -100.5q0 -61 -27 -100t-85 -39zM127 19q39 0 57 27.5t18 78.5q0 50 -18 77.5t-57 27.5q-74 0 -74 -105q0 -50 17.5 -78t56.5 -28z" />
    <glyph glyph-name="one.numr" horiz-adv-x="169" 
d="M30 0v36h45v194q-6 -22 -19 -33t-25 -15t-16 -4v45q4 -1 19 2t29.5 14.5t15.5 37.5h36v-241h39v-36h-124z" />
    <glyph glyph-name="two.numr" horiz-adv-x="236" 
d="M15 0v34l19 11.5t45.5 30t51 41t36.5 45.5q17 34 0.5 57.5t-50.5 23.5q-27 0 -44 -17.5t-14 -53.5l-37 5q-4 47 25 73.5t74 26.5q36 0 60.5 -16.5t31.5 -44t-8 -59.5q-12 -22 -34 -43t-46.5 -38.5t-43.5 -28t-24 -12.5h164v-35h-206z" />
    <glyph glyph-name="three.numr" horiz-adv-x="239" 
d="M123 -10q-44 0 -76 24t-32 72l39 5q1 -33 21 -49.5t49 -16.5q26 0 44 14t18 36q0 27 -19.5 36.5t-35.5 9.5h-34v22h35q21 0 35 9.5t14 28.5q0 25 -16.5 38.5t-44.5 13.5q-32 0 -47 -19.5t-16 -35.5l-36 5q0 10 9 30t30.5 37t59.5 17q45 0 71.5 -20.5t26.5 -56.5
q0 -49 -49 -59q23 -4 39 -21.5t16 -42.5q0 -36 -28.5 -56.5t-72.5 -20.5z" />
    <glyph glyph-name="four.numr" horiz-adv-x="251" 
d="M15 56v36q33 15 57.5 46t38.5 68.5t15 70.5h45q0 -51 -31.5 -101.5t-81.5 -83.5h100v46h41v-46h37v-36h-37v-56h-41v56h-143z" />
    <glyph glyph-name="five.numr" horiz-adv-x="240" 
d="M119 -10q-46 0 -71.5 22.5t-32.5 52.5l41 5q1 -3 6.5 -14t19 -21t38.5 -10q31 0 47.5 18.5t17.5 39.5q2 23 -14 43t-49 20q-21 0 -33.5 -7t-18 -14l-5.5 -7l-42 7l15 142h174v-36h-145l-9 -90l7 8.5t23.5 17t44.5 8.5q49 0 72 -29t20 -64q-3 -34 -30.5 -63t-75.5 -29z
" />
    <glyph glyph-name="six.numr" horiz-adv-x="244" 
d="M125 -10q-57 0 -83.5 39t-26.5 93q0 37 13 70t40 54t66 21q36 0 55 -13t26 -26.5l7 -13.5l-40 -8l-4.5 6.5t-15.5 13t-30 6.5q-34 0 -59 -34.5t-18 -95.5q1 9 10 25t27.5 29t49.5 11q37 0 58 -18t26.5 -44.5t-4 -52.5t-34 -44t-63.5 -18zM128 24q30 0 46 17t17.5 40
t-13 41t-45.5 19q-33 1 -52.5 -20.5t-19.5 -48.5q5 -23 24 -35.5t43 -12.5z" />
    <glyph glyph-name="seven.numr" horiz-adv-x="234" 
d="M93 0h-42q0 85 36 145t92 95h-164v37h204v-36q-15 -9 -36 -26.5t-41.5 -46t-34.5 -69.5t-14 -99z" />
    <glyph glyph-name="eight.numr" horiz-adv-x="253" 
d="M126 -10q-48 0 -79.5 20t-31.5 57q0 26 18 45t48 24q-32 6 -41 26t-9 33q0 32 26.5 52t68.5 20q43 0 69.5 -20.5t26.5 -51.5q0 -13 -9.5 -33t-41.5 -26q30 -6 48.5 -23.5t18.5 -45.5q0 -38 -32.5 -57.5t-79.5 -19.5zM126 146q27 0 43.5 10t16.5 31q0 23 -17 35.5
t-43 12.5q-27 0 -43.5 -12.5t-16.5 -35.5q0 -21 17 -31t43 -10zM126 22q33 0 52.5 14.5t19.5 37.5q0 26 -19.5 39t-52.5 13q-34 0 -53 -13t-19 -39q0 -23 19 -37.5t53 -14.5z" />
    <glyph glyph-name="nine.numr" horiz-adv-x="246" 
d="M120 -10q-40 0 -61.5 14t-29.5 28t-8 15l38 10q1 -1 6.5 -8.5t18.5 -15t36 -7.5q36 0 55 31.5t16 95.5q-1 -9 -10.5 -24t-27.5 -27.5t-46 -12.5q-38 0 -60.5 18t-29 44.5t3 53t34 44.5t65.5 18q40 0 65.5 -19.5t36.5 -51.5t9 -70q-3 -57 -27 -96.5t-84 -39.5zM116 115
q31 0 49 18.5t21 46.5q-13 54 -66 54q-32 0 -48 -18t-17 -41.5t14.5 -41.5t46.5 -18z" />
    <glyph glyph-name="uni00B9" unicode="&#xb9;" horiz-adv-x="169" 
d="M30 405v37h45v193q-6 -22 -19 -33t-25 -15t-16 -4v45q4 0 19 2.5t29.5 14.5t15.5 37h36v-240h39v-37h-124z" />
    <glyph glyph-name="uni00B2" unicode="&#xb2;" horiz-adv-x="236" 
d="M15 407v34q0 1 19 12t45.5 30t51 41.5t36.5 45.5q17 33 0.5 56.5t-50.5 23.5q-27 0 -44 -17.5t-14 -52.5l-37 4q-4 47 25 73.5t74 26.5q36 0 60.5 -16.5t31.5 -44t-8 -59.5q-12 -22 -34 -43t-46.5 -38t-43.5 -28t-24 -12h164v-36h-206z" />
    <glyph glyph-name="uni00B3" unicode="&#xb3;" horiz-adv-x="239" 
d="M123 397q-44 0 -76 24t-32 72l39 5q1 -32 21 -49t49 -17q26 0 44 14t18 37q0 26 -19.5 35.5t-35.5 9.5h-34v22h35q21 0 35 10t14 29q0 24 -16.5 38t-44.5 14q-32 0 -47 -19.5t-16 -36.5l-36 5q0 10 9 30.5t30.5 37t59.5 16.5q45 0 71.5 -20.5t26.5 -55.5q0 -50 -49 -60
q23 -4 39 -21t16 -42q0 -36 -28.5 -57t-72.5 -21z" />
    <glyph glyph-name="uni2074" unicode="&#x2074;" horiz-adv-x="251" 
d="M158 407v56h-143v36q33 15 57.5 46.5t38.5 68.5t15 70h45q0 -50 -31.5 -101t-81.5 -84h100v46h41v-46h37v-36h-37v-56h-41z" />
    <glyph glyph-name="zero.sups" horiz-adv-x="254" 
d="M127 403q-57 0 -84.5 37.5t-27.5 101.5q0 62 26.5 100t85.5 38q58 0 85 -37.5t27 -100.5q0 -62 -27 -100.5t-85 -38.5zM127 436q39 0 57 27.5t18 78.5q0 50 -18 77t-57 27q-74 0 -74 -104q0 -51 17.5 -78.5t56.5 -27.5z" />
    <glyph glyph-name="one.sups" horiz-adv-x="169" 
d="M30 405v37h45v193q-6 -22 -19 -33t-25 -15t-16 -4v45q4 0 19 2.5t29.5 14.5t15.5 37h36v-240h39v-37h-124z" />
    <glyph glyph-name="two.sups" horiz-adv-x="236" 
d="M15 407v34q0 1 19 12t45.5 30t51 41.5t36.5 45.5q17 33 0.5 56.5t-50.5 23.5q-27 0 -44 -17.5t-14 -52.5l-37 4q-4 47 25 73.5t74 26.5q36 0 60.5 -16.5t31.5 -44t-8 -59.5q-12 -22 -34 -43t-46.5 -38t-43.5 -28t-24 -12h164v-36h-206z" />
    <glyph glyph-name="three.sups" horiz-adv-x="239" 
d="M123 397q-44 0 -76 24t-32 72l39 5q1 -32 21 -49t49 -17q26 0 44 14t18 37q0 26 -19.5 35.5t-35.5 9.5h-34v22h35q21 0 35 10t14 29q0 24 -16.5 38t-44.5 14q-32 0 -47 -19.5t-16 -36.5l-36 5q0 10 9 30.5t30.5 37t59.5 16.5q45 0 71.5 -20.5t26.5 -55.5q0 -50 -49 -60
q23 -4 39 -21t16 -42q0 -36 -28.5 -57t-72.5 -21z" />
    <glyph glyph-name="four.sups" horiz-adv-x="251" 
d="M158 407v56h-143v36q33 15 57.5 46.5t38.5 68.5t15 70h45q0 -50 -31.5 -101t-81.5 -84h100v46h41v-46h37v-36h-37v-56h-41z" />
    <glyph glyph-name="five.sups" horiz-adv-x="240" 
d="M119 397q-46 0 -71.5 22.5t-32.5 52.5l41 6q1 -4 6.5 -15t19 -21t38.5 -10q31 0 47.5 18.5t17.5 39.5q2 23 -14 43.5t-49 20.5q-21 0 -33.5 -7t-18 -14t-5.5 -8l-42 8l15 141h174v-36h-145l-9 -90l7 8.5t23.5 17t44.5 8.5q49 0 72 -29t20 -64q-3 -34 -30.5 -63t-75.5 -29
z" />
    <glyph glyph-name="six.sups" horiz-adv-x="244" 
d="M125 397q-57 0 -83.5 39t-26.5 93q0 37 13 70t40 54t66 21q36 0 55 -13t26 -26.5l7 -13.5l-40 -8l-4.5 6.5t-15.5 13t-30 6.5q-34 0 -59 -34.5t-18 -95.5q1 10 10 26t27.5 28.5t49.5 11.5q37 -1 58 -19t26.5 -44.5t-4 -52.5t-34 -44t-63.5 -18zM128 431q30 0 46 17
t17.5 40t-13 41t-45.5 20q-33 1 -52.5 -21t-19.5 -49q5 -23 24 -35.5t43 -12.5z" />
    <glyph glyph-name="seven.sups" horiz-adv-x="234" 
d="M93 407h-42q0 85 36 145.5t92 95.5h-164v36h204v-35q-15 -10 -36 -27.5t-41.5 -45.5t-34.5 -69.5t-14 -99.5z" />
    <glyph glyph-name="eight.sups" horiz-adv-x="253" 
d="M126 397q-48 0 -79.5 20t-31.5 58q0 25 18 44t48 24q-32 7 -41 26.5t-9 32.5q0 32 26.5 52t68.5 20q43 0 69.5 -20.5t26.5 -51.5q0 -13 -9.5 -32.5t-41.5 -26.5q30 -5 48.5 -23t18.5 -45q0 -39 -32.5 -58.5t-79.5 -19.5zM126 554q27 0 43.5 9.5t16.5 31.5q0 23 -17 35
t-43 12q-27 0 -43.5 -12.5t-16.5 -34.5t17 -31.5t43 -9.5zM126 429q33 0 52.5 14.5t19.5 37.5q0 26 -19.5 39t-52.5 13q-34 0 -53 -13t-19 -39q0 -23 19 -37.5t53 -14.5z" />
    <glyph glyph-name="nine.sups" horiz-adv-x="246" 
d="M120 397q-40 0 -61.5 14t-29.5 28.5l-8 14.5l38 10q1 0 6.5 -8t18.5 -15.5t36 -7.5q36 0 55 31.5t16 96.5q-1 -10 -10.5 -25t-27.5 -27t-46 -12q-38 0 -60.5 18t-29 44t3 52.5t34 44.5t65.5 18q40 0 65.5 -19t36.5 -51.5t9 -69.5q-3 -58 -27 -97.5t-84 -39.5zM116 522
q31 0 49 19t21 47q-13 53 -66 53q-32 0 -48 -18t-17 -41.5t14.5 -41.5t46.5 -18z" />
    <glyph glyph-name="fraction" unicode="&#x2044;" horiz-adv-x="523" 
d="M78 0l-45 32l222 264l190 266l45 -31l-212 -252z" />
    <glyph glyph-name="onehalf" unicode="&#xbd;" horiz-adv-x="703" 
d="M37 289v36h45v194q-6 -22 -19 -33t-25 -15t-16 -4v45q4 -1 19 2t29.5 14.5t15.5 37.5h36v-241h39v-36h-124zM155 0l-45 32l222 264l190 266l45 -31l-212 -252zM461 0v34l19 11.5t45.5 30t51 41t36.5 45.5q17 34 0.5 57.5t-50.5 23.5q-27 0 -44 -17.5t-14 -53.5l-37 5
q-4 47 25 73.5t74 26.5q35 0 59.5 -16.5t32 -44t-7.5 -59.5q-12 -22 -34 -43t-46.5 -38.5t-43.5 -28t-24 -12.5h164v-35h-206z" />
    <glyph glyph-name="onequarter" unicode="&#xbc;" horiz-adv-x="675" 
d="M37 289v36h45v194q-6 -22 -19 -33t-25 -15t-16 -4v45q4 -1 19 2t29.5 14.5t15.5 37.5h36v-241h39v-36h-124zM155 0l-45 32l222 264l190 266l45 -31l-212 -252zM417 56v36q33 15 57.5 46t38.5 68.5t15 70.5h45q0 -51 -31.5 -101.5t-81.5 -83.5h100v46h41v-46h37v-36h-37
v-56h-41v56h-143z" />
    <glyph glyph-name="threequarters" unicode="&#xbe;" horiz-adv-x="675" 
d="M130 296q-44 0 -76 24t-32 72l39 5q1 -33 21 -49.5t49 -16.5q26 0 44 14t18 36q0 27 -19.5 36.5t-35.5 9.5h-34v22h35q21 0 35 9.5t14 28.5q0 25 -16.5 38.5t-44.5 13.5q-32 0 -47 -19.5t-16 -35.5l-36 5q0 10 9 30t30.5 37t59.5 17q45 0 71.5 -20.5t26.5 -56.5
q0 -49 -49 -59q23 -4 39 -21.5t16 -42.5q0 -36 -28.5 -56.5t-72.5 -20.5zM155 0l-45 32l222 264l190 266l45 -31l-212 -252zM417 56v36q33 15 57.5 46t38.5 68.5t15 70.5h45q0 -51 -31.5 -101.5t-81.5 -83.5h100v46h41v-46h37v-36h-37v-56h-41v56h-143z" />
    <glyph glyph-name="oneeighth" unicode="&#x215b;" horiz-adv-x="686" 
d="M538 -10q-48 0 -79.5 20t-31.5 57q0 26 18 45t48 24q-32 6 -41 26t-9 33q0 32 26.5 52t68.5 20q43 0 69.5 -20.5t26.5 -51.5q0 -13 -9.5 -33t-41.5 -26q30 -6 48.5 -23.5t18.5 -45.5q0 -38 -32.5 -57.5t-79.5 -19.5zM538 146q27 0 43.5 10t16.5 31q0 23 -17 35.5
t-43 12.5q-27 0 -43.5 -12.5t-16.5 -35.5q0 -21 17 -31t43 -10zM538 22q33 0 52.5 14.5t19.5 37.5q0 26 -19.5 39t-52.5 13q-34 0 -53 -13t-19 -39q0 -23 19 -37.5t53 -14.5zM37 289v36h45v194q-6 -22 -19 -33t-25 -15t-16 -4v45q4 -1 19 2t29.5 14.5t15.5 37.5h36v-241h39
v-36h-124zM155 0l-45 32l222 264l190 266l45 -31l-212 -252z" />
    <glyph glyph-name="threeeighths" unicode="&#x215c;" horiz-adv-x="698" 
d="M130 296q-44 0 -76 24t-32 72l39 5q1 -33 21 -49.5t49 -16.5q26 0 44 14t18 36q0 27 -19.5 36.5t-35.5 9.5h-34v22h35q21 0 35 9.5t14 28.5q0 25 -16.5 38.5t-44.5 13.5q-32 0 -47 -19.5t-16 -35.5l-36 5q0 10 9 30t30.5 37t59.5 17q45 0 71.5 -20.5t26.5 -56.5
q0 -49 -49 -59q23 -4 39 -21.5t16 -42.5q0 -36 -28.5 -56.5t-72.5 -20.5zM155 0l-45 32l222 264l190 266l45 -31l-212 -252zM550 -10q-48 0 -79.5 20t-31.5 57q0 26 18 45t48 24q-32 6 -41 26t-9 33q0 32 26.5 52t68.5 20q43 0 69.5 -20.5t26.5 -51.5q0 -13 -9.5 -33
t-41.5 -26q30 -6 48.5 -23.5t18.5 -45.5q0 -38 -32.5 -57.5t-79.5 -19.5zM550 146q27 0 43.5 10t16.5 31q0 23 -17 35.5t-43 12.5q-27 0 -43.5 -12.5t-16.5 -35.5q0 -21 17 -31t43 -10zM550 22q33 0 52.5 14.5t19.5 37.5q0 26 -19.5 39t-52.5 13q-34 0 -53 -13t-19 -39
q0 -23 19 -37.5t53 -14.5z" />
    <glyph glyph-name="fiveeighths" unicode="&#x215d;" horiz-adv-x="724" 
d="M126 285q-46 0 -71.5 22.5t-32.5 52.5l41 5q1 -3 6.5 -14t19 -21t38.5 -10q31 0 47.5 18.5t17.5 39.5q2 23 -14 43t-49 20q-21 0 -33.5 -7t-18 -14l-5.5 -7l-42 7l15 142h174v-36h-145l-9 -90l7 8.5t23.5 17t44.5 8.5q49 0 72 -29t20 -64q-3 -34 -30.5 -63t-75.5 -29z
M181 0l-45 32l222 264l190 266l45 -31l-212 -252zM576 -10q-48 0 -79.5 20t-31.5 57q0 26 18 45t48 24q-32 6 -41 26t-9 33q0 32 26.5 52t68.5 20q43 0 69.5 -20.5t26.5 -51.5q0 -13 -9.5 -33t-41.5 -26q30 -6 48.5 -23.5t18.5 -45.5q0 -38 -32.5 -57.5t-79.5 -19.5z
M576 146q27 0 43.5 10t16.5 31q0 23 -17 35.5t-43 12.5q-27 0 -43.5 -12.5t-16.5 -35.5q0 -21 17 -31t43 -10zM576 22q33 0 52.5 14.5t19.5 37.5q0 26 -19.5 39t-52.5 13q-34 0 -53 -13t-19 -39q0 -23 19 -37.5t53 -14.5z" />
    <glyph glyph-name="seveneighths" unicode="&#x215e;" horiz-adv-x="682" 
d="M100 286h-42q0 85 36 145t92 95h-164v37h204v-36q-15 -9 -36 -26.5t-41.5 -46t-34.5 -69.5t-14 -99zM139 0l-45 32l222 264l190 266l45 -31l-212 -252zM534 -10q-48 0 -79.5 20t-31.5 57q0 26 18 45t48 24q-32 6 -41 26t-9 33q0 32 26.5 52t68.5 20q43 0 69.5 -20.5
t26.5 -51.5q0 -13 -9.5 -33t-41.5 -26q30 -6 48.5 -23.5t18.5 -45.5q0 -38 -32.5 -57.5t-79.5 -19.5zM534 146q27 0 43.5 10t16.5 31q0 23 -17 35.5t-43 12.5q-27 0 -43.5 -12.5t-16.5 -35.5q0 -21 17 -31t43 -10zM534 22q33 0 52.5 14.5t19.5 37.5q0 26 -19.5 39t-52.5 13
q-34 0 -53 -13t-19 -39q0 -23 19 -37.5t53 -14.5z" />
    <glyph glyph-name="period" unicode="." horiz-adv-x="174" 
d="M77 0q-25 0 -33.5 13.5t-8.5 31.5q0 19 8.5 32t33.5 13t33.5 -13t8.5 -32t-8.5 -32t-33.5 -13z" />
    <glyph glyph-name="comma" unicode="," horiz-adv-x="187" 
d="M50 -88v48h18q24 0 30.5 11t6.5 28q-27 -2 -39 10t-12 34q0 18 9 30t33 12q21 0 31 -12.5t10 -45.5q0 -51 -15 -83t-52 -32h-20z" />
    <glyph glyph-name="colon" unicode=":" horiz-adv-x="194" 
d="M97 276q-25 0 -33.5 13t-8.5 32q0 17 8.5 30.5t33.5 13.5q24 0 32.5 -13.5t8.5 -30.5q0 -19 -8.5 -32t-32.5 -13zM97 44q-25 0 -33.5 13t-8.5 32q0 18 8.5 31t33.5 13q24 0 32.5 -13t8.5 -31q0 -19 -8.5 -32t-32.5 -13z" />
    <glyph glyph-name="semicolon" unicode=";" horiz-adv-x="188" 
d="M97 318q-25 0 -33.5 13t-8.5 32q0 17 8.5 30.5t33.5 13.5q24 0 32.5 -13.5t8.5 -30.5q0 -19 -8.5 -32t-32.5 -13zM52 -88v48h18q24 0 30.5 11t6.5 28q-27 -2 -39 10t-12 34q0 18 9 30t33 12q21 0 31 -12.5t10 -45.5q0 -51 -15 -83t-52 -32h-20z" />
    <glyph glyph-name="ellipsis" unicode="&#x2026;" horiz-adv-x="497" 
d="M91 0q-26 0 -34.5 13.5t-8.5 31.5q0 19 9 32t34 13q24 0 32.5 -13t8.5 -32t-8.5 -32t-32.5 -13zM245 0q-25 0 -33.5 13.5t-8.5 31.5t8.5 31.5t33.5 13.5t33.5 -13t8.5 -32q0 -18 -8.5 -31.5t-33.5 -13.5zM400 0q-25 0 -33.5 13t-8.5 32t8.5 32t33.5 13t33.5 -13t8.5 -32
t-8.5 -32t-33.5 -13z" />
    <glyph glyph-name="exclam" unicode="!" horiz-adv-x="188" 
d="M79 138q-5 122 -11.5 203.5t-8.5 130.5t7 70t35 21q25 0 33.5 -21.5t7.5 -70t-7.5 -130.5t-11.5 -203l-6.5 1.5t-15.5 1.5q-8 0 -15 -1.5zM102 -9q-24 0 -32 12.5t-8 30.5q0 17 8 29.5t32 12.5q23 0 31 -12.5t8 -29.5q0 -18 -8 -30.5t-31 -12.5z" />
    <glyph glyph-name="exclamdown" unicode="&#xa1;" horiz-adv-x="179" 
d="M93 373q23 0 30.5 -12t7.5 -30q0 -16 -7.5 -28t-30.5 -12q-22 0 -30 12t-8 28q0 18 7.5 30t30.5 12zM69 225l7 -1.5t17 -1.5q11 0 17 1.5l6 1.5q5 -130 10.5 -213t6 -129t-8.5 -64t-31 -18q-23 0 -32 18t-8.5 63.5t6 129t10.5 213.5z" />
    <glyph glyph-name="question" unicode="?" horiz-adv-x="436" 
d="M239 141h-57q1 38 17 65.5t39.5 50t46.5 44t39.5 46t16.5 57.5q1 48 -30.5 77t-83.5 29q-45 0 -71.5 -20t-37.5 -51t-11 -63h-62q-4 50 14.5 93.5t59.5 70.5t105 27q49 0 90.5 -19t65.5 -54t24 -83q0 -42 -16 -70.5t-40.5 -50t-49 -42t-41.5 -46t-18 -61.5zM212 -9
q-24 0 -32 12.5t-8 30.5q0 17 8 29.5t32 12.5q23 0 30.5 -12.5t7.5 -29.5q0 -19 -7.5 -31t-30.5 -12z" />
    <glyph glyph-name="questiondown" unicode="&#xbf;" horiz-adv-x="434" 
d="M233 377q24 0 32 -12.5t8 -30.5q0 -17 -8 -29.5t-32 -12.5q-23 0 -30.5 12.5t-7.5 29.5q0 19 7.5 31t30.5 12zM206 227h57q-1 -38 -17 -65.5t-39.5 -50t-46.5 -44t-39.5 -46t-16.5 -57.5q-1 -48 30.5 -77t83.5 -29q45 0 71.5 20t37.5 51t11 63h62q4 -50 -14.5 -93.5
t-59 -70.5t-105.5 -27q-49 0 -90.5 19t-65.5 54t-24 83q0 42 16 70.5t40.5 50t49 42t41.5 46t18 61.5z" />
    <glyph glyph-name="periodcentered" unicode="&#xb7;" horiz-adv-x="211" 
d="M101 195q-33 0 -44.5 17t-11.5 40q0 21 11.5 38t44.5 17q34 0 44.5 -17t10.5 -38q0 -23 -10.5 -40t-44.5 -17z" />
    <glyph glyph-name="bullet" unicode="&#x2022;" horiz-adv-x="225" 
d="M101 195q-33 0 -44.5 17t-11.5 40q0 21 11.5 38t44.5 17q34 0 44.5 -17t10.5 -38q0 -23 -10.5 -40t-44.5 -17z" />
    <glyph glyph-name="asterisk" unicode="*" horiz-adv-x="378" 
d="M351 424l-138 -30l95 -102l-50 -36l-69 120l-70 -120l-49 36l95 102l-138 30l20 57l126 -58l-15 140h62l-15 -140l127 58z" />
    <glyph glyph-name="numbersign" unicode="#" horiz-adv-x="691" 
d="M99 0l65 163h-132v57h154l54 134h-153v57h171l52 152h61l-61 -152h150l51 152h61l-61 -152h129v-57h-151l-54 -134h153v-57h-172l-55 -163h-61l65 163h-150l-56 -163h-60zM234 220v0h153l54 134h-154z" />
    <glyph glyph-name="slash" unicode="/" horiz-adv-x="352" 
d="M25 0l254 563h63l-254 -563h-63z" />
    <glyph glyph-name="backslash" unicode="\" horiz-adv-x="332" 
d="M274 0l-254 563h63l254 -563h-63z" />
    <glyph glyph-name="periodcentered.case" horiz-adv-x="211" 
d="M101 242q-33 0 -44.5 17t-11.5 39t11.5 38.5t44.5 16.5q34 0 44.5 -16.5t10.5 -38.5t-10.5 -39t-44.5 -17z" />
    <glyph glyph-name="bullet.case" horiz-adv-x="225" 
d="M101 242q-33 0 -44.5 17t-11.5 39t11.5 38.5t44.5 16.5q34 0 44.5 -16.5t10.5 -38.5t-10.5 -39t-44.5 -17z" />
    <glyph glyph-name="parenleft" unicode="(" horiz-adv-x="291" 
d="M232 -199l-19 15.5t-47 47t-56 79.5t-47.5 112t-19.5 145t19.5 145.5t47.5 113t56 80.5t47 48l19 16l49 -51q-3 -2 -23.5 -16.5t-49 -41.5t-56 -68t-46 -97t-18.5 -129q0 -74 19.5 -131t48.5 -98t57.5 -67t48 -38l19.5 -12z" />
    <glyph glyph-name="parenright" unicode=")" horiz-adv-x="281" 
d="M49 -199l-49 53l19.5 12t48 38t57.5 67t48.5 98t19.5 131q0 73 -18.5 129t-46 97t-56 68t-48.5 41.5t-24 16.5l49 51l19 -16t47 -48t56 -80.5t47.5 -113t19.5 -145.5t-19.5 -145t-47.5 -112t-56 -79.5t-47 -47z" />
    <glyph glyph-name="braceleft" unicode="{" horiz-adv-x="296" 
d="M273 -196q-88 -14 -129 4.5t-48.5 75t4.5 154.5q7 50 1.5 78t-17 39.5t-25.5 14t-26 2.5v64q12 0 26 2.5t25.5 14t17 39.5t-1.5 78q-11 98 -4 153t48 73.5t129 6.5v-59q-55 12 -82 5.5t-34.5 -30t-4 -61t10.5 -86.5q7 -48 5.5 -81t-21 -54.5t-63.5 -33.5q44 -12 63.5 -33
t21.5 -53.5t-6 -80.5q-7 -49 -10.5 -86.5t4 -61t34.5 -30.5t82 5v-59z" />
    <glyph glyph-name="braceright" unicode="}" horiz-adv-x="309" 
d="M37 -196v59q54 -12 81 -5t35 30.5t4 61t-10 86.5q-8 48 -6.5 80.5t21 53.5t64.5 33q-45 12 -64 33.5t-21 54.5t6 81q6 49 10 86.5t-4 61t-35 30t-81 -5.5v59q70 6 109 -2t55.5 -34.5t16.5 -74.5t-9 -122q-6 -50 -1 -78t17 -39.5t26 -14t25 -2.5v-64q-11 0 -25 -2.5
t-26 -14t-17 -39.5t1 -78q9 -74 9.5 -122.5t-16 -75t-56 -34.5t-109.5 -2z" />
    <glyph glyph-name="bracketleft" unicode="[" horiz-adv-x="251" 
d="M238 -199h-203v802h203v-60h-142v-682l142 -1v-59z" />
    <glyph glyph-name="bracketright" unicode="]" horiz-adv-x="264" 
d="M35 -199v59l148 1v682h-142v60h203v-802h-209z" />
    <glyph glyph-name="parenleft.case" horiz-adv-x="291" 
d="M232 -146l-19 16t-47 47.5t-56 79t-47.5 112t-19.5 144.5q0 81 19.5 146t47.5 113t56 80t47 48l19 16l49 -50q-3 -3 -23.5 -17t-49 -41t-56 -68t-46 -97.5t-18.5 -129.5q0 -74 19.5 -131t48.5 -97.5t57.5 -66.5t48 -38.5l19.5 -12.5z" />
    <glyph glyph-name="parenright.case" horiz-adv-x="281" 
d="M49 -146l-49 53l19.5 12.5t48 38.5t57.5 66.5t48.5 97.5t19.5 131q0 73 -18.5 129.5t-46 97.5t-56 68t-48.5 41t-24 17l49 50l19 -16t47 -48t56 -80t47.5 -113t19.5 -146q0 -80 -19.5 -144.5t-47.5 -112t-56 -79t-47 -47.5z" />
    <glyph glyph-name="braceleft.case" horiz-adv-x="296" 
d="M273 -143q-88 -14 -129 4.5t-48.5 75t4.5 154.5q7 51 1.5 78.5t-17 39.5t-25.5 14.5t-26 2.5v63q12 0 26 2.5t25.5 14.5t17 39.5t-1.5 77.5q-11 99 -4 154t48 73t129 6v-59q-55 12 -82 5.5t-34.5 -30t-4 -61t10.5 -86.5q7 -48 5.5 -81t-21 -54.5t-63.5 -33.5
q44 -12 63.5 -32.5t21.5 -53.5t-6 -81q-7 -49 -10.5 -86.5t4 -61t34.5 -30t82 5.5v-60z" />
    <glyph glyph-name="braceright.case" horiz-adv-x="309" 
d="M37 -143v60q54 -12 81 -5.5t35 30t4 61t-10 86.5q-8 48 -6.5 81t21 53.5t64.5 32.5q-45 12 -64 33.5t-21 54.5t6 81q6 49 10 86.5t-4 61t-35 30t-81 -5.5v59q70 7 109 -1.5t55.5 -35t16.5 -74.5t-9 -122q-6 -50 -1 -77.5t17 -39.5t26 -14.5t25 -2.5v-63q-11 0 -25 -2.5
t-26 -14.5t-17 -39.5t1 -78.5q9 -74 9.5 -122t-16 -75t-56 -35t-109.5 -2z" />
    <glyph glyph-name="bracketleft.case" horiz-adv-x="251" 
d="M35 -146v802h203v-60h-142v-682h142v-60h-203z" />
    <glyph glyph-name="bracketright.case" horiz-adv-x="264" 
d="M35 -146v60h148v682h-142v60h203v-802h-209z" />
    <glyph glyph-name="hyphen" unicode="-" horiz-adv-x="317" 
d="M40 200v49h222v-49h-222z" />
    <glyph glyph-name="uni00AD" unicode="&#xad;" horiz-adv-x="280" 
d="M29 200v49h222v-49h-222z" />
    <glyph glyph-name="endash" unicode="&#x2013;" horiz-adv-x="410" 
d="M40 200v49h315v-49h-315z" />
    <glyph glyph-name="emdash" unicode="&#x2014;" horiz-adv-x="537" 
d="M40 200v49h442v-49h-442z" />
    <glyph glyph-name="underscore" unicode="_" horiz-adv-x="524" 
d="M27 0v49h442v-49h-442z" />
    <glyph glyph-name="hyphen.case" horiz-adv-x="317" 
d="M40 248v49h222v-49h-222z" />
    <glyph glyph-name="endash.case" horiz-adv-x="410" 
d="M40 248v49h315v-49h-315z" />
    <glyph glyph-name="emdash.case" horiz-adv-x="537" 
d="M40 248v49h442v-49h-442z" />
    <glyph glyph-name="quotesinglbase" unicode="&#x201a;" horiz-adv-x="208" 
d="M47 -82v57q36 0 53 13.5t23 29.5h-7q-24 0 -33 12.5t-9 30.5t9 30.5t32 12.5q24 0 33 -12.5t9 -30.5v0v-1v0v0q0 -6 -3 -28.5t-13 -49t-32.5 -45.5t-61.5 -19z" />
    <glyph glyph-name="quotedblbase" unicode="&#x201e;" horiz-adv-x="323" 
d="M40 -82v57q36 0 53 13.5t23 29.5h-6q-25 0 -34 12.5t-9 30.5t9 30.5t33 12.5q23 0 32 -12.5t9 -30.5v0v-1v0v0q0 -6 -2.5 -28.5t-13 -49t-32.5 -45.5t-62 -19zM166 -82v57q37 0 54 13.5t23 29.5h-7q-24 0 -33 12.5t-9 30.5t8.5 30.5t32.5 12.5t32.5 -12.5t8.5 -30.5v0v-1
v0v0q0 -6 -2.5 -28.5t-12.5 -49t-32.5 -45.5t-62.5 -19z" />
    <glyph glyph-name="quotedblleft" unicode="&#x201c;" horiz-adv-x="325" 
d="M32 376v58q36 0 53 13.5t23 29.5l-7 -1q-24 0 -33 13t-9 30q0 18 9 31t32 13q24 0 33 -12.5t9 -30.5v0v-1v0v0q0 -6 -3 -28.5t-13 -49t-32.5 -46t-61.5 -19.5zM158 376v58q36 0 53 13.5t23 29.5l-6 -1q-25 0 -34 13t-9 30q0 18 9 31t33 13q23 0 32 -12.5t9 -30.5v0v-1v0
v0q0 -6 -2.5 -28.5t-13 -49t-32.5 -46t-62 -19.5z" />
    <glyph glyph-name="quotedblright" unicode="&#x201d;" horiz-adv-x="325" 
d="M199 376q-23 0 -32 13t-9 31v0v0v0v1q0 6 2.5 28t13 48.5t32.5 46t62 19.5v-57q-36 0 -53 -13.5t-23 -29.5h6q25 0 34 -12.5t9 -30.5t-9 -31t-33 -13zM73 376q-24 0 -32.5 13t-8.5 31v0v0v0v1q0 6 2.5 28t12.5 48.5t32.5 46t62.5 19.5v-57q-37 0 -54 -13.5t-23 -29.5h7
q24 0 33 -12.5t9 -30.5t-9 -31t-32 -13z" />
    <glyph glyph-name="quoteleft" unicode="&#x2018;" horiz-adv-x="202" 
d="M73 376q-24 0 -32.5 13t-8.5 31v0v0v0v1q0 6 2.5 28t12.5 48.5t32.5 46t62.5 19.5v-57q-37 0 -54 -13.5t-23 -29.5h7q24 0 33 -12.5t9 -30.5t-9 -31t-32 -13z" />
    <glyph glyph-name="quoteright" unicode="&#x2019;" horiz-adv-x="173" 
d="M25 376v58q36 0 53 13.5t23 29.5l-6 -1q-25 0 -34 13t-9 30q0 18 9 31t33 13q23 0 32 -12.5t9 -30.5v0v-1v0v0q0 -6 -2.5 -28.5t-13 -49t-32.5 -46t-62 -19.5z" />
    <glyph glyph-name="guillemotleft" unicode="&#xab;" horiz-adv-x="507" 
d="M309 511v-59l-227 -157l227 -160v-59l-290 219zM473 511v-62l-228 -154l228 -157v-62l-290 219z" />
    <glyph glyph-name="guillemotright" unicode="&#xbb;" horiz-adv-x="483" 
d="M178 511l290 -216l-290 -219v59l228 160l-228 157v59zM15 511l290 -216l-290 -219v62l228 157l-228 154v62z" />
    <glyph glyph-name="guilsinglleft" unicode="&#x2039;" horiz-adv-x="392" 
d="M352 384v-55l-255 -101l255 -101v-57l-312 158z" />
    <glyph glyph-name="guilsinglright" unicode="&#x203a;" horiz-adv-x="399" 
d="M42 384l312 -156l-312 -158v57l255 101l-255 101v55z" />
    <glyph glyph-name="quotedbl" unicode="&#x22;" horiz-adv-x="281" 
d="M35 390v48h18q25 0 31.5 11t6.5 28q-27 -2 -39.5 9.5t-12.5 34.5q0 17 9 29.5t33 12.5q21 0 31 -12.5t10 -45.5q0 -52 -14.5 -83.5t-52.5 -31.5h-20zM164 390v48h18q24 0 31 11t7 28q-27 -2 -39.5 9.5t-12.5 34.5q0 17 9 29.5t33 12.5q21 0 31 -12.5t10 -45.5
q0 -52 -14.5 -83.5t-52.5 -31.5h-20z" />
    <glyph glyph-name="quotesingle" unicode="'" horiz-adv-x="169" 
d="M45 390v48h18q25 0 31.5 11t6.5 28q-27 -2 -39.5 9.5t-12.5 34.5q0 17 9 29.5t33 12.5q21 0 31 -12.5t10 -45.5q0 -52 -14.5 -83.5t-52.5 -31.5h-20z" />
    <glyph glyph-name="hyphen_greater.dlig" horiz-adv-x="493" 
d="M35 200v53h299q-17 21 -24 43.5t-8.5 37.5t-1.5 16h44q0 -1 2.5 -16t13 -34t33.5 -33t65 -14v-53q-42 0 -65 -14t-33.5 -32.5t-13 -33.5t-2.5 -17h-44q0 1 1.5 16t9 37.5t24.5 43.5h-300z" />
    <glyph glyph-name="parenleft_greater.dlig" horiz-adv-x="657" 
d="M329 -21q-61 0 -114 22.5t-93.5 63t-63.5 94t-23 114.5q0 60 23 113t63.5 93.5t93.5 63.5t114 23q60 0 113 -23t93.5 -63.5t63.5 -93.5t23 -113q0 -61 -23 -114.5t-63.5 -94t-93.5 -63t-113 -22.5zM329 17q70 0 128 34.5t92.5 92.5t34.5 128q0 71 -34.5 129t-92.5 92.5
t-128 34.5t-128.5 -34.5t-93 -92.5t-34.5 -129q0 -70 34.5 -128t93 -92.5t128.5 -34.5zM257 137v268l202 -130zM294 203l105 71l-105 67v-138z" />
    <glyph glyph-name="colon_parenleft.dlig" horiz-adv-x="657" 
d="M329 -14q-61 0 -114.5 23t-93.5 63t-63 93.5t-23 114.5q0 60 23 113t63 93.5t93.5 63.5t114.5 23q60 0 113 -23t93.5 -63.5t63.5 -93.5t23 -113q0 -61 -23 -114.5t-63.5 -93.5t-93.5 -63t-113 -23zM329 25q70 0 128 34.5t92.5 92.5t34.5 128t-34.5 127.5t-92.5 92
t-128 34.5t-128 -34.5t-92.5 -92t-34.5 -127.5t34.5 -128t92.5 -92.5t128 -34.5zM194 277v135h44v-135h-44zM420 277v135h44v-135h-44zM162 125q6 63 51.5 103.5t115.5 40.5q47 0 83.5 -19t59 -51.5t25.5 -73.5h-46q1 18 -10.5 43t-38.5 44.5t-73 19.5q-47 0 -73.5 -19.5
t-37 -44.5t-10.5 -43h-46z" />
    <glyph glyph-name="colon_parenright.dlig" horiz-adv-x="657" 
d="M329 -14q-61 0 -114.5 23t-93.5 63t-63 93.5t-23 114.5q0 60 23 113t63 93.5t93.5 63.5t114.5 23q60 0 113 -23t93.5 -63.5t63.5 -93.5t23 -113q0 -61 -23 -114.5t-63.5 -93.5t-93.5 -63t-113 -23zM329 25q70 0 128 34.5t92.5 92.5t34.5 128t-34.5 127.5t-92.5 92
t-128 34.5t-128 -34.5t-92.5 -92t-34.5 -127.5t34.5 -128t92.5 -92.5t128 -34.5zM194 277v135h44v-135h-44zM420 277v135h44v-135h-44zM329 86q-56 0 -98 25.5t-66 69t-28 97.5h46q0 -3 1.5 -19t9 -39t23 -45t43 -37t69.5 -15q45 0 73 15.5t43.5 38.5t21.5 46t7 39l1 16h46
q-5 -85 -56 -138.5t-136 -53.5z" />
    <glyph glyph-name="space" unicode=" " horiz-adv-x="237" 
 />
    <glyph glyph-name="uni00A0" unicode="&#xa0;" horiz-adv-x="237" 
 />
    <glyph glyph-name="CR" unicode="&#xd;" horiz-adv-x="600" 
 />
    <glyph glyph-name="cent" unicode="&#xa2;" horiz-adv-x="450" 
d="M192 -89l3 81q-76 8 -123.5 61t-47.5 142q2 87 49 144t122 67l-3 81h63l-3 -80q69 -8 109.5 -48.5t51.5 -95.5l-60 -8q-10 46 -42.5 71t-85.5 25q-64 0 -100.5 -42.5t-37.5 -110.5q0 -69 35.5 -109.5t101.5 -40.5q51 0 85 25.5t44 71.5l60 -7q-11 -57 -52 -97.5
t-109 -48.5l3 -81h-63z" />
    <glyph glyph-name="currency" unicode="&#xa4;" horiz-adv-x="533" 
d="M435 2h-34l-41 59q-38 -27 -93 -27q-57 0 -96 28l-42 -60h-31l54 77q-41 46 -41 126q0 90 50 135l-47 65h34l35 -50q34 20 84 20q49 0 82 -19l34 49h35l-47 -65q51 -46 51 -135q0 -79 -41 -126zM267 55q25 0 45.5 6.5t35.5 16.5q4 3 7 6l6 6l-9.5 -9.5t4 3.5t8.5 8.5
l4 4.5q32 40 32 108q0 79 -41 118q-8 8 -22 15q-30 16 -70 16q-41 0 -72 -16l-10.5 -7.5t-10.5 -8.5q-41 -38 -41 -117q0 -33 12.5 -67.5t38.5 -58.5q16 -11 36.5 -17.5t46.5 -6.5z" />
    <glyph glyph-name="dollar" unicode="$" horiz-adv-x="536" 
d="M253 -109l3 97q-52 4 -98.5 25t-77 60.5t-34.5 101.5l63 8q0 -2 2 -16.5t10 -35t26 -40t51 -33t85 -13.5q43 0 71 10.5t43 26.5t21 31.5t7 25.5q1 35 -18.5 56t-52.5 34t-72 23t-77.5 21.5t-70.5 30t-51 48.5t-17 77q3 62 55 100t135 43l-3 100h63l-3 -101q49 -5 89 -27
t62.5 -61t21.5 -94l-62 -7q1 43 -15.5 69t-42 39.5t-51.5 18.5t-44 5q-57 0 -97 -25t-41 -66q-1 -35 18.5 -56t52 -33.5t72 -22t78 -20.5t71 -29.5t51 -49t16.5 -78.5q-2 -42 -26.5 -73t-64.5 -49t-88 -23l3 -98h-63z" />
    <glyph glyph-name="Euro" unicode="&#x20ac;" horiz-adv-x="619" 
d="M33 267v41h53q6 87 39.5 146t88.5 89t125 30q97 0 157.5 -56t76.5 -152l-65 -8q-14 75 -56 116t-113 41q-83 0 -132 -54.5t-55 -151.5h234l-15 -41h-115l-101 -11h-3q6 -101 54 -153.5t131 -52.5q73 0 116.5 41.5t55.5 115.5l67 -9q-16 -95 -76.5 -151.5t-163.5 -56.5
q-69 0 -125 31t-89.5 92.5t-36.5 152.5l-12 1h-40z" />
    <glyph glyph-name="sterling" unicode="&#xa3;" horiz-adv-x="614" 
d="M92 -13l-31 49q47 36 70 80t6 104h-99v49h80l-1 2q-29 56 -30.5 109.5t21.5 97t68 69t111 25.5q100 0 152.5 -54t54.5 -138l-62 -7q-3 13 -9.5 37t-22.5 49.5t-45.5 43t-78.5 16.5q-57 -1 -91.5 -34t-39 -86t26.5 -117q4 -6 6 -13h226v-50l-208 1q13 -54 -2 -89.5
t-40 -68.5q35 17 69.5 15.5t67.5 -10.5t64 -17t59.5 -6t53.5 24q22 19 26.5 49t-7.5 64l61 12q21 -76 -1 -119t-61 -55q-33 -21 -64.5 -24.5t-61.5 3t-61 15.5t-63 13.5t-66.5 -2t-71.5 -32.5q-1 -1 -2.5 -2t-3.5 -3z" />
    <glyph glyph-name="yen" unicode="&#xa5;" horiz-adv-x="467" 
d="M81 106v41h117v48l-117 -1v41h101l-175 328h71l153 -298l153 298h71l-177 -328h104v-40h-120v-48h120v-41h-120v-106h-64v106h-117z" />
    <glyph glyph-name="uni2215" unicode="&#x2215;" horiz-adv-x="352" 
d="M25 0l254 563h63l-254 -563h-63z" />
    <glyph glyph-name="plus" unicode="+" horiz-adv-x="347" 
d="M149 86v113h-112v49h112v111h48v-111h113v-49h-113v-113h-48z" />
    <glyph glyph-name="minus" unicode="&#x2212;" horiz-adv-x="317" 
d="M40 200v49h222v-49h-222z" />
    <glyph glyph-name="multiply" unicode="&#xd7;" horiz-adv-x="313" 
d="M278 306l-87 -87l87 -88l-34 -35l-88 88l-86 -86l-35 35l86 86l-85 86l35 35l85 -86l87 87z" />
    <glyph glyph-name="divide" unicode="&#xf7;" horiz-adv-x="317" 
d="M151 285q-16 0 -24.5 10t-8.5 26q-1 16 8 26t25 10q17 0 26 -10t9 -26q0 -15 -8.5 -25.5t-26.5 -10.5zM40 200v49h222v-49h-222zM151 91q-16 0 -24.5 10t-8.5 26q-1 16 8 26t25 10q17 0 26 -10t9 -26q0 -15 -8.5 -25.5t-26.5 -10.5z" />
    <glyph glyph-name="equal" unicode="=" horiz-adv-x="386" 
d="M40 262v46h291v-46h-291zM40 138v46h291v-46h-291z" />
    <glyph glyph-name="notequal" unicode="&#x2260;" horiz-adv-x="380" 
d="M69 41l59 132h-88v66h118l59 133h64l-60 -133h104v-66h-134l-59 -132h-63z" />
    <glyph glyph-name="greater" unicode="&#x3e;" horiz-adv-x="399" 
d="M42 384l312 -156l-312 -158v57l255 101l-255 101v55z" />
    <glyph glyph-name="less" unicode="&#x3c;" horiz-adv-x="399" 
d="M354 384v-55l-255 -101l255 -101v-57l-312 158z" />
    <glyph glyph-name="plusminus" unicode="&#xb1;" horiz-adv-x="317" 
d="M133 139v78h-93v42h93v81h42v-81h87v-42h-87v-78h-42zM40 49v43h222v-43h-222z" />
    <glyph glyph-name="asciitilde" unicode="~" horiz-adv-x="321" 
d="M215 193q-25 0 -39 10.5t-23.5 24t-18.5 23.5t-25 10q-19 0 -24 -17t-4 -42h-43q0 19 3.5 42.5t18 40t46.5 16.5q25 0 39 -10.5t23 -23.5t18.5 -23.5t25.5 -10.5q21 0 24.5 18.5t3.5 42.5h43q1 -21 -3 -44.5t-19 -40t-46 -16.5z" />
    <glyph glyph-name="logicalnot" unicode="&#xac;" horiz-adv-x="317" 
d="M40 201v46h222v-131h-47v85h-175z" />
    <glyph glyph-name="asciicircum" unicode="^" horiz-adv-x="403" 
d="M27 320v20l174 222l176 -222v-20h-65l-110 179h-2l-109 -179h-64z" />
    <glyph glyph-name="uni00B5" unicode="&#xb5;" horiz-adv-x="487" 
d="M58 -154v561h64v-211q0 -40 8 -73.5t32.5 -53.5t71.5 -20q44 0 70 20.5t37.5 53t13.5 68.5l1 216h65v-406h-55l-7 79h-3q-8 -21 -23 -41.5t-39 -34.5t-59 -14q-43 0 -69.5 14.5t-41.5 39.5h-2v-198h-64z" />
    <glyph glyph-name="percent" unicode="%" horiz-adv-x="575" 
d="M128 329q-52 0 -75.5 33t-23.5 89q0 55 23.5 88.5t75.5 33.5t76 -33.5t24 -88.5q0 -54 -24 -88t-76 -34zM103 0l-45 32l222 264l190 266l44 -31l-211 -252zM127 371q32 0 45 23t13 57q0 36 -13 58.5t-45 22.5q-30 0 -43.5 -22t-13.5 -59q0 -34 13.5 -57t43.5 -23z
M446 -10q-51 0 -75 33t-24 89q0 55 23.5 88.5t75.5 33.5q53 0 76.5 -33.5t23.5 -88.5q0 -54 -23.5 -88t-76.5 -34zM446 32q31 0 44 22.5t13 57.5t-13 58t-44 23t-44 -22t-13 -59q0 -35 13 -57.5t44 -22.5z" />
    <glyph glyph-name="perthousand" unicode="&#x2030;" horiz-adv-x="783" 
d="M128 329q-52 0 -75.5 33t-23.5 89q0 55 23.5 88.5t75.5 33.5t76 -33.5t24 -88.5q0 -54 -24 -88t-76 -34zM103 0l-45 32l222 264l190 266l44 -31l-211 -252zM127 371q32 0 45 23t13 57q0 36 -13 58.5t-45 22.5q-30 0 -43.5 -22t-13.5 -59q0 -34 13.5 -57t43.5 -23z
M446 -10q-51 0 -75 33t-24 89q0 55 23.5 88.5t75.5 33.5q53 0 76.5 -33.5t23.5 -88.5q0 -54 -23.5 -88t-76.5 -34zM685 -10q-52 0 -75.5 33t-23.5 89q0 55 23 88.5t76 33.5q52 0 76 -33.5t24 -88.5q0 -54 -24 -88t-76 -34zM446 32q31 0 44 22.5t13 57.5t-13 58t-44 23
t-44 -22t-13 -59q0 -35 13 -57.5t44 -22.5zM684 32q32 0 45 22.5t13 57.5t-13 58t-45 23q-31 0 -44 -22t-13 -59q0 -35 13 -57.5t44 -22.5z" />
    <glyph glyph-name="plus.case" horiz-adv-x="347" 
d="M149 138v113h-112v49h112v111h48v-111h113v-49h-113v-113h-48z" />
    <glyph glyph-name="minus.case" horiz-adv-x="317" 
d="M40 252v48h222v-48h-222z" />
    <glyph glyph-name="equal.case" horiz-adv-x="386" 
d="M40 334v46h291v-46h-291zM40 209v46h291v-46h-291z" />
    <glyph glyph-name="notequal.case" horiz-adv-x="380" 
d="M69 119l59 133h-88v65h118l59 134h64l-60 -134h104v-65h-134l-59 -133h-63z" />
    <glyph glyph-name="greater.case" horiz-adv-x="399" 
d="M42 433l312 -157l-312 -157v57l255 100l-255 101v56z" />
    <glyph glyph-name="less.case" horiz-adv-x="399" 
d="M354 433v-56l-255 -101l255 -100v-57l-312 157z" />
    <glyph glyph-name="asciitilde.case" horiz-adv-x="420" 
d="M200 278q-13 20 -27.5 35.5t-36.5 15.5q-24 0 -31.5 -18t-3.5 -46t16 -55h-59q-9 21 -12 48t3 52t23.5 41.5t49.5 16.5q34 0 55.5 -23.5t39.5 -49.5q14 -21 28.5 -38t37.5 -17q21 0 30 17.5t6 44.5t-17 58h59q10 -21 13 -48t-4 -52t-25 -42t-50 -17q-24 0 -40.5 12
t-29.5 30t-25 35z" />
    <glyph glyph-name="arrowup" unicode="&#x2191;" horiz-adv-x="317" 
d="M132 117v206q-21 -17 -43.5 -24t-37.5 -8.5t-16 -1.5v44q2 0 16.5 2t33.5 12.5t33 34t14 65.5h53q0 -42 14 -65.5t32.5 -34t33.5 -12.5t17 -2v-44q-1 0 -16 1.5t-37.5 8.5t-43.5 24v-206h-53z" />
    <glyph glyph-name="uni2197" unicode="&#x2197;" horiz-adv-x="353" 
d="M50 152l-38 37l151 151q-27 3 -48 13.5t-33 20t-12 10.5l32 31q1 -1 12.5 -10t32 -15.5t47 0t56.5 36.5l38 -36q-31 -30 -37.5 -56.5t0 -47t15.5 -32.5t10 -13l-31 -31l-10 12t-21 32.5t-14 47.5z" />
    <glyph glyph-name="arrowright" unicode="&#x2192;" horiz-adv-x="400" 
d="M35 200v53h206q-17 21 -24 43.5t-8.5 37.5t-1.5 16h44q0 -1 2 -16t12.5 -34t34 -33t65.5 -14v-53q-42 0 -65.5 -14t-34 -32.5t-12.5 -33.5t-2 -17h-44q0 1 1.5 16t8.5 37.5t24 43.5h-206z" />
    <glyph glyph-name="uni2198" unicode="&#x2198;" horiz-adv-x="353" 
d="M280 136q-31 31 -57.5 37.5t-46.5 0t-32 -16t-13 -10.5l-31 32q1 0 13 9.5t33 20.5t48 13l-159 159l38 36l157 -157q3 27 14 48t20.5 32.5t9.5 12.5l32 -32q-1 -1 -10.5 -12.5t-15.5 -32t0.5 -47t37.5 -57.5z" />
    <glyph glyph-name="arrowdown" unicode="&#x2193;" horiz-adv-x="317" 
d="M132 117q0 42 -14 65.5t-33 34t-33.5 12.5t-16.5 2v44q1 0 16 -1.5t37.5 -8.5t43.5 -24v206h53v-206q21 17 43.5 24t37.5 8.5t16 1.5v-44q-2 0 -17 -2t-33.5 -12.5t-32.5 -34t-14 -65.5h-53z" />
    <glyph glyph-name="uni2199" unicode="&#x2199;" horiz-adv-x="415" 
d="M73 136l-38 36l245 245l38 -36l-216 -216zM137 270l-2 -3q3 3 2 3zM171 237q-1 1 -5 -4z" />
    <glyph glyph-name="arrowleft" unicode="&#x2190;" horiz-adv-x="400" 
d="M149 103q0 2 -2 17t-12.5 33.5t-34 32.5t-65.5 14v53q42 0 65.5 14t34 33t12.5 34t2 16h44q0 -1 -1.5 -16t-8.5 -37.5t-24 -43.5h206v-53h-206q17 -21 24 -43.5t8.5 -37.5t1.5 -16h-44z" />
    <glyph glyph-name="uni2196" unicode="&#x2196;" horiz-adv-x="353" 
d="M55 210l-31 31q1 1 10 13t15.5 32.5t-0.5 47t-37 56.5l38 36q30 -30 56.5 -36.5t46.5 0t32 15.5t13 10l32 -31q-1 -1 -13 -10.5t-33 -20t-48 -13.5l152 -151l-39 -37l-149 150q-4 -27 -14.5 -47.5t-20.5 -32.5z" />
    <glyph glyph-name="arrowboth" unicode="&#x2194;" horiz-adv-x="530" 
d="M149 103q0 2 -2 16.5t-12.5 33.5t-34 33t-65.5 14v53q42 0 65.5 14t34 32.5t12.5 33.5t2 17h44q0 -1 -1.5 -16.5t-8.5 -37.5t-24 -43h212q-17 21 -24.5 43t-9 37.5t-1.5 16.5h44q0 -2 2.5 -17t13 -33.5t34 -32.5t65.5 -14v-53q-42 0 -65.5 -14t-34 -33t-13 -33.5
t-2.5 -16.5h-44l1.5 15.5t9 38t24.5 43.5h-212q17 -21 24 -43.5t8.5 -38l1.5 -15.5h-44z" />
    <glyph glyph-name="arrowupdn" unicode="&#x2195;" horiz-adv-x="317" 
d="M132 -13q0 42 -14 65.5t-33 34t-33.5 13t-16.5 2.5v44q1 0 16 -1.5t37.5 -9t43.5 -24.5v212q-21 -17 -43.5 -24t-37.5 -8.5t-16 -1.5v44q2 0 16.5 2t33.5 12.5t33 34t14 65.5h53q0 -42 14 -65.5t32.5 -34t33.5 -12.5t17 -2v-44q-1 0 -16 1.5t-37.5 8.5t-43.5 24v-212
q21 17 43.5 24.5t37.5 9t16 1.5v-44q-2 0 -17 -2.5t-33.5 -13t-32.5 -34t-14 -65.5h-53z" />
    <glyph glyph-name="uni21A9" unicode="&#x21a9;" horiz-adv-x="600" 
 />
    <glyph glyph-name="carriagereturn" unicode="&#x21b5;" horiz-adv-x="468" 
d="M174 115h-25q0 2 -2.5 16.5t-13 33.5t-33.5 33t-65 14v26q42 0 65 14t33.5 33t13 34t2.5 16h25q0 -1 -2 -17.5t-12.5 -39t-34.5 -40.5h280v166h28v-192h-308q24 -18 34 -40.5t12.5 -39.5z" />
    <glyph glyph-name="at" unicode="@" horiz-adv-x="747" 
d="M340 36q-61 0 -89.5 43.5t-19.5 108.5q7 43 28.5 76.5t53 53t67.5 19.5q39 0 64.5 -17.5t37.5 -46.5l7 51h50l-33 -193q-4 -27 1 -48.5t32 -21.5q38 0 65 27t40 69.5t10.5 89t-23.5 85.5q-26 47 -70.5 77t-98.5 41.5t-108.5 5t-99.5 -32.5q-63 -34 -100 -98t-42 -144
q-4 -72 21.5 -124.5t73 -85t109 -44t129 0t133.5 46.5l33 -54q-72 -40 -151 -54t-153.5 -2t-134.5 50.5t-94.5 103.5t-31.5 157q3 99 51 177t127 118q58 29 125.5 35.5t132 -9t116 -53t78.5 -96.5q21 -48 20 -103t-22.5 -103.5t-60 -79.5t-91.5 -31q-37 0 -52.5 20t-13.5 50
q-20 -30 -50.5 -47t-65.5 -17zM353 74q34 0 54.5 12.5t32 31.5t16.5 38t7 31q8 49 -7.5 80t-65.5 31q-41 0 -73.5 -30t-40.5 -83q-6 -49 13 -80t64 -31z" />
    <glyph glyph-name="ampersand" unicode="&#x26;" horiz-adv-x="635" 
d="M593 -2q-37 15 -69.5 33.5t-70.5 43.5q-40 -41 -92 -62t-106 -22t-100 17t-74.5 55t-28.5 93q0 37 14 63.5t35 45t44 31t41 22.5q-11 15 -25 35t-24.5 45t-10.5 53q0 40 20.5 66.5t53 40t68.5 14t68.5 -12t53 -38t20.5 -63.5q0 -33 -18.5 -59.5t-44 -45.5t-48 -31
t-30.5 -16q15 -19 41.5 -46t59 -55t63.5 -50q14 23 25 56.5t10.5 67t-21.5 56.5l54 37q12 -16 20 -44.5t8.5 -64.5t-9 -73.5t-32.5 -70.5q34 -22 63 -39t66 -32zM234 336q5 3 23.5 12t40.5 24t38 34.5t17 42.5q1 28 -15.5 45t-42 22.5t-51 -0.5t-42.5 -24t-17 -47
q1 -46 49 -109zM402 112q-49 36 -99 84.5t-83 89.5q-41 -20 -72.5 -48t-31.5 -74q0 -39 21 -65.5t54 -39t72 -11.5t75.5 17t63.5 47z" />
    <glyph glyph-name="paragraph" unicode="&#xb6;" horiz-adv-x="506" 
d="M231 -92v403h-15q-55 2 -100.5 20t-72.5 59.5t-27 113.5q0 69 26.5 111t71 61.5t99.5 20.5h84v0h193v-63h-67v-726h-66v726h-60v-726h-66z" />
    <glyph glyph-name="section" unicode="&#xa7;" horiz-adv-x="600" 
d="M418 223v-2q23 -15 39 -40t15 -60q-3 -56 -51.5 -88t-116.5 -32q-47 0 -90.5 16t-71.5 50t-30 86h31q0 -2 1.5 -15t9 -31t24.5 -35.5t48 -29t80 -11.5q45 0 72 11t40.5 27t18 31t4.5 22q1 38 -21 59.5t-58 33.5t-76.5 21.5t-76.5 24t-58 40t-20 70.5q1 28 20.5 48.5
t47.5 31.5v1q-31 17 -50 42.5t-18 61.5q2 36 25 61.5t61.5 39.5t84.5 14q47 0 84.5 -16.5t59.5 -48.5t20 -81h-30q1 36 -13 59t-36 35.5t-45.5 17.5t-41.5 5q-59 0 -97.5 -25t-40.5 -63q0 -37 22.5 -58t58 -32.5t76 -20.5t76 -23.5t57.5 -41t20 -72.5q-1 -28 -16 -48
t-38 -35zM162 369q0 -35 17.5 -55.5t47.5 -32t65.5 -19.5t69.5 -18q11 -2 15 -3t6 -2q8 -2 12 -0.5t6 2.5q26 17 33 37t7 29q1 33 -16.5 54t-47 34t-64.5 21.5t-69 17.5q-14 3 -21.5 4.5t-20.5 -6.5q-39 -26 -40 -63z" />
    <glyph glyph-name="copyright" unicode="&#xa9;" horiz-adv-x="635" 
d="M328 -10q-61 0 -114 22.5t-93.5 63t-63 93.5t-22.5 114q0 59 22.5 111.5t63 92.5t93.5 63t114 23q59 0 111.5 -23t92.5 -63t63 -92.5t23 -111.5q0 -61 -23 -114t-63 -93.5t-92.5 -63t-111.5 -22.5zM328 30q71 0 127.5 33t89.5 90t33 129q0 71 -33 127.5t-89.5 90
t-127.5 33.5q-72 0 -129 -33.5t-90 -90t-33 -127.5q0 -72 33 -129t90 -90t129 -33zM328 115q-68 0 -113.5 42t-45.5 125q0 80 46 123.5t116 43.5q61 0 100 -34t48 -89l-45 -6q-8 42 -33 64.5t-70 22.5q-55 0 -85.5 -32.5t-30.5 -90.5q0 -61 30 -94t84 -33q46 0 72 23.5
t35 66.5l46 -10q-10 -54 -48.5 -88t-105.5 -34z" />
    <glyph glyph-name="registered" unicode="&#xae;" horiz-adv-x="408" 
d="M203 229q-48 0 -87 23t-62.5 62t-23.5 86q0 48 23.5 87t62.5 62t87 23q47 0 85.5 -23t61.5 -62t23 -87q0 -47 -23 -86t-61.5 -62t-85.5 -23zM203 257q41 0 73 19.5t50.5 52t18.5 71.5q0 40 -18.5 72.5t-50.5 52t-73 19.5q-42 0 -74.5 -19.5t-51 -52t-18.5 -72.5
q0 -39 18.5 -71.5t51 -52t74.5 -19.5zM137 315v179h63q36 0 55 -11.5t19 -40.5q0 -21 -11 -35.5t-36 -14.5q20 0 26.5 -10.5t7.5 -23t4.5 -20.5t17.5 -3v-17q-7 -6 -18 -6.5t-20 7t-9 27.5q0 21 -3.5 30.5t-18.5 12t-48 0.5v-74h-29zM166 411h35q24 0 35.5 4.5t11.5 23.5
q0 22 -14 26.5t-40 4.5h-28v-59z" />
    <glyph glyph-name="trademark" unicode="&#x2122;" horiz-adv-x="453" 
d="M159 533h-69v-179h-34v179h-69v30h172v-30zM418 354h-36l3 193l-55 -193h-52l-53 193l1 -193h-35v209h60l54 -193l52 193h61v-209z" />
    <glyph glyph-name="degree" unicode="&#xb0;" horiz-adv-x="296" 
d="M131 371q-53 0 -77 27.5t-24 72.5q0 46 23.5 74t77.5 28q52 0 77.5 -28t25.5 -74q0 -43 -25.5 -71.5t-77.5 -28.5zM130 414q34 0 47 17t13 41q0 26 -13 43.5t-47 17.5q-33 0 -46 -18t-13 -43t14.5 -41.5t44.5 -16.5z" />
    <glyph glyph-name="bar" unicode="|" horiz-adv-x="185" 
d="M60 -151v752h65v-752h-65z" />
    <glyph glyph-name="brokenbar" unicode="&#xa6;" horiz-adv-x="185" 
d="M60 290v311h65v-311h-65zM60 -151v311h65v-311h-65z" />
    <glyph glyph-name="uni240D" unicode="&#x240d;" horiz-adv-x="581" 
d="M168 180q-55 0 -91.5 35.5t-36.5 105.5t36 104.5t94 34.5q44 0 76 -23.5t41 -73.5h-13q-8 41 -35 63.5t-69 22.5q-53 0 -85.5 -33t-32.5 -95q0 -64 32 -96.5t84 -32.5q46 0 73.5 22.5t34.5 62.5h14q-9 -48 -41 -72.5t-81 -24.5zM339 184v268h78q50 0 76.5 -15t26.5 -59
q0 -25 -15.5 -46.5t-48.5 -21.5q28 0 39 -13.5t12.5 -33t1 -38t3 -28.5t19.5 -5v-11l-8.5 -0.5t-17 5.5t-8.5 27q0 39 -4 58t-17.5 25.5t-43 6.5h-80.5v-119h-13zM352 316h77q40 0 59.5 14t19.5 48q0 39 -23.5 50t-67.5 11h-65v-123z" />
    <glyph glyph-name="less_hyphen.dlig" horiz-adv-x="512" 
d="M193 103h-44q0 2 -2 17t-12.5 33.5t-34 32.5t-65.5 14v53q42 0 65.5 14t34 33t12.5 34t2 16h44q0 -1 -1.5 -16t-8.5 -37.5t-24 -43.5h299v-53h-299q17 -21 24 -43.5t8.5 -37.5t1.5 -16z" />
    <glyph glyph-name="less_three.dlig" horiz-adv-x="498" 
d="M243 0q-55 21 -98.5 58.5t-72 83.5t-41 93t-6 86t33.5 63t77 24q48 0 72.5 -31t33.5 -76q9 49 36.5 78t70.5 29q52 0 80 -24t34 -63.5t-7 -86.5t-42.5 -93t-72.5 -83.5t-98 -57.5zM242 54q47 18 82 52.5t55.5 76t23.5 79t-14.5 62t-58.5 24.5q-29 0 -44.5 -18t-21 -46
t-5.5 -59h-33q0 32 -6 60t-21.5 45.5t-44.5 17.5q-40 0 -56.5 -24.5t-13 -62.5t24.5 -79.5t55 -76t78 -51.5z" />
    <glyph glyph-name="uni0308" unicode="&#x308;" horiz-adv-x="0" 
d="M93 682q-28 0 -38 14.5t-10 33.5q0 18 10 32.5t38 14.5q29 0 38 -14.5t9 -32.5q0 -19 -9 -33.5t-38 -14.5zM250 682q-29 0 -38.5 14.5t-9.5 33.5q0 18 9.5 32.5t38.5 14.5q28 0 37 -14.5t9 -32.5q0 -19 -9 -33.5t-37 -14.5z" />
    <glyph glyph-name="uni0307" unicode="&#x307;" horiz-adv-x="0" 
d="M93 685q-28 0 -38 14.5t-10 33.5t10 33t38 14q29 0 38 -14t9 -33t-9 -33.5t-38 -14.5z" />
    <glyph glyph-name="gravecomb" unicode="&#x300;" horiz-adv-x="0" 
d="M114 632l-78 98v15h59l51 -103v-10h-32z" />
    <glyph glyph-name="acutecomb" unicode="&#x301;" horiz-adv-x="0" 
d="M68 632h-32v10l51 103h59v-15z" />
    <glyph glyph-name="uni030B" unicode="&#x30b;" horiz-adv-x="0" 
d="M31 647l77 137l56 -26l-102 -126zM171 647l77 137l56 -26l-101 -126z" />
    <glyph glyph-name="uni0302" unicode="&#x302;" horiz-adv-x="0" 
d="M86 651v8l109 103h29l109 -103v-8h-60l-62 67h-3l-60 -67h-62z" />
    <glyph glyph-name="uni030C" unicode="&#x30c;" horiz-adv-x="0" 
d="M53 761h69l81 -92l82 92h68v-14l-136 -122h-28l-136 122v14z" />
    <glyph glyph-name="uni0306" unicode="&#x306;" horiz-adv-x="0" 
d="M171 684q-55 0 -86.5 24.5t-31.5 65.5h47q0 -31 21 -40t49 -9q29 0 49 9t20 40h48q0 -41 -30.5 -65.5t-85.5 -24.5z" />
    <glyph glyph-name="uni030A" unicode="&#x30a;" horiz-adv-x="0" 
d="M128 592q-44 0 -67.5 24.5t-23.5 65.5t23 66t68 25q43 0 67.5 -25t24.5 -66q0 -39 -24.5 -64.5t-67.5 -25.5zM127 632q25 0 38.5 15t13.5 36q0 22 -13.5 37.5t-38.5 15.5t-38.5 -15.5t-13.5 -37.5t14.5 -36.5t37.5 -14.5z" />
    <glyph glyph-name="tildecomb" unicode="&#x303;" horiz-adv-x="0" 
d="M234 605q-23 0 -36.5 8.5t-23 19t-18.5 19t-23 8.5q-17 0 -20.5 -14t-3.5 -39h-42q-1 19 2.5 41t17 36.5t43.5 14.5q23 0 37 -8t23 -19t18.5 -19t23.5 -8q17 0 20 14t3 40h43q1 -23 -3.5 -44.5t-18 -35.5t-42.5 -14z" />
    <glyph glyph-name="uni0304" unicode="&#x304;" horiz-adv-x="0" 
d="M40 731v49h249v-49h-249z" />
    <glyph glyph-name="hookabovecomb" unicode="&#x309;" horiz-adv-x="0" 
d="M82 612v11q4 14 18.5 23t27.5 19.5t13 27.5t-15 23.5t-32 0.5t-25 -26l-32 16q8 29 31.5 42.5t50 12.5t46 -16.5t19.5 -45.5q0 -26 -13 -40t-26.5 -24t-16.5 -24h-46z" />
    <glyph glyph-name="uni0312" unicode="&#x312;" horiz-adv-x="0" 
d="M85 685q22 0 31 -12t9 -29t-8.5 -29.5t-30.5 -12.5t-30.5 12t-8.5 30v0v0v0v1q0 6 2.5 27.5t11.5 46t29.5 43t56.5 18.5v-57q-32 0 -47 -12t-21 -26h6z" />
    <glyph glyph-name="uni031B" unicode="&#x31b;" horiz-adv-x="0" 
d="M45 616l2 42h28q19 0 23.5 7.5t4.5 32.5h56q0 -45 -21 -63.5t-66 -18.5h-27z" />
    <glyph glyph-name="dotbelowcomb" unicode="&#x323;" horiz-adv-x="0" 
d="M86 -101q-24 0 -32.5 12t-8.5 28t8.5 28t32.5 12t31.5 -12t7.5 -28t-7.5 -28t-31.5 -12z" />
    <glyph glyph-name="uni0326" unicode="&#x326;" horiz-adv-x="0" 
d="M50 -231v48h17q25 0 31.5 11t6.5 28q-27 -3 -39 9t-12 35q0 17 9 29.5t33 12.5q21 0 30.5 -12.5t9.5 -45.5q0 -52 -14.5 -83.5t-52.5 -31.5h-19z" />
    <glyph glyph-name="uni0327" unicode="&#x327;" horiz-adv-x="0" 
d="M33 -117l23 33q13 -14 35 -22t45 -8.5t38 8.5t14 28q-1 18 -17 24t-37.5 1.5t-37.5 -17.5l-29 19l40 83l34 -14l-40 -62q14 13 36 19t44 3t37.5 -17t15.5 -40q0 -30 -20.5 -48.5t-52 -24.5t-66 2.5t-62.5 32.5z" />
    <glyph glyph-name="uni0328" unicode="&#x328;" horiz-adv-x="0" 
d="M128 -199q-36 0 -62 21.5t-26 60.5q0 34 20.5 60.5t47.5 44t47.5 26l20.5 8.5v-29l-13 -7t-30 -20.5t-30 -32.5t-13 -42q0 -18 11 -29.5t32 -11.5q17 0 27.5 7.5t14.5 15.5l4 8l39 -31l-9.5 -12.5t-29.5 -24.5t-51 -12z" />
    <glyph glyph-name="acute" unicode="&#xb4;" horiz-adv-x="600" 
d="M68 632h-32v10l51 103h59v-15z" />
    <glyph glyph-name="breve" unicode="&#x2d8;" horiz-adv-x="600" 
d="M171 684q-55 0 -86.5 24.5t-31.5 65.5h47q0 -31 21 -40t49 -9q29 0 49 9t20 40h48q0 -41 -30.5 -65.5t-85.5 -24.5z" />
    <glyph glyph-name="caron" unicode="&#x2c7;" horiz-adv-x="406" 
d="M53 761h69l81 -103l82 103h68l-136 -136h-28z" />
    <glyph glyph-name="cedilla" unicode="&#xb8;" horiz-adv-x="267" 
d="M33 -117l23 33q13 -14 35 -22t45 -8.5t38 8.5t14 28q-1 18 -17 24t-37.5 1.5t-37.5 -17.5l-29 19l40 83l34 -14l-40 -62q14 13 36 19t44 3t37.5 -17t15.5 -40q0 -30 -20.5 -48.5t-52 -24.5t-66 2.5t-62.5 32.5z" />
    <glyph glyph-name="circumflex" unicode="&#x2c6;" 
d="M86 651v8l109 103h29l109 -103v-8h-60l-62 67h-3l-60 -67h-62z" />
    <glyph glyph-name="dieresis" unicode="&#xa8;" horiz-adv-x="600" 
d="M93 682q-28 0 -38 14.5t-10 33.5q0 18 10 32.5t38 14.5q29 0 38 -14.5t9 -32.5q0 -19 -9 -33.5t-38 -14.5zM250 682q-29 0 -38.5 14.5t-9.5 33.5q0 18 9.5 32.5t38.5 14.5q28 0 37 -14.5t9 -32.5q0 -19 -9 -33.5t-37 -14.5z" />
    <glyph glyph-name="dotaccent" unicode="&#x2d9;" horiz-adv-x="600" 
d="M93 685q-28 0 -38 14.5t-10 33.5t10 33t38 14q29 0 38 -14t9 -33t-9 -33.5t-38 -14.5z" />
    <glyph glyph-name="grave" unicode="`" horiz-adv-x="600" 
d="M114 632l-78 98v15h59l51 -103v-10h-32z" />
    <glyph glyph-name="macron" unicode="&#xaf;" horiz-adv-x="329" 
d="M40 731v49h249v-49h-249z" />
    <glyph glyph-name="ring" unicode="&#x2da;" horiz-adv-x="600" 
d="M128 592q-44 0 -67.5 24.5t-23.5 65.5t23 66t68 25q43 0 67.5 -25t24.5 -66q0 -39 -24.5 -64.5t-67.5 -25.5zM127 632q25 0 38.5 15t13.5 36q0 22 -13.5 37.5t-38.5 15.5t-38.5 -15.5t-13.5 -37.5t14.5 -36.5t37.5 -14.5z" />
    <glyph glyph-name="tilde" unicode="&#x2dc;" horiz-adv-x="600" 
d="M234 605q-23 0 -36.5 8.5t-23 19t-18.5 19t-23 8.5q-17 0 -20.5 -14t-3.5 -39h-42q-1 19 2.5 41t17 36.5t43.5 14.5q23 0 37 -8t23 -19t18.5 -19t23.5 -8q17 0 20 14t3 40h43q1 -23 -3.5 -44.5t-18 -35.5t-42.5 -14z" />
    <glyph glyph-name="uni03060301" horiz-adv-x="0" 
d="M171 684q-55 0 -86.5 24.5t-31.5 65.5h47q0 -31 21 -40t49 -9q29 0 49 9t20 40h48q0 -41 -30.5 -65.5t-85.5 -24.5zM186 789h-32v10l51 103h59v-15z" />
    <glyph glyph-name="uni03060300" horiz-adv-x="0" 
d="M182 684q-55 0 -86.5 24.5t-31.5 65.5h47q0 -31 21 -40t49 -9q29 0 49 9t20 40h48q0 -41 -30.5 -65.5t-85.5 -24.5zM158 789l-78 98v15h59l51 -103v-10h-32z" />
    <glyph glyph-name="uni03060309" horiz-adv-x="0" 
d="M171 684q-55 0 -86.5 24.5t-31.5 65.5h47q0 -31 21 -40t49 -9q29 0 49 9t20 40h48q0 -41 -30.5 -65.5t-85.5 -24.5zM148 785v11q4 14 18.5 23t27.5 19.5t13 27.5t-15 23.5t-32 0.5t-25 -26l-32 16q8 29 31.5 42.5t50 12.5t46 -16.5t19.5 -45.5q0 -26 -13 -40t-26.5 -24
t-16.5 -24h-46z" />
    <glyph glyph-name="uni03060303" horiz-adv-x="0" 
d="M187 684q-55 0 -86.5 24.5t-31.5 65.5h47q0 -31 21 -40t49 -9q29 0 49 9t20 40h48q0 -41 -30.5 -65.5t-85.5 -24.5zM239 826q-23 0 -36.5 8.5t-23 19t-18.5 19t-23 8.5q-17 0 -20.5 -14t-3.5 -39h-42q-1 19 2.5 41t17 36.5t43.5 14.5q23 0 37 -8t23 -19t18.5 -19t23.5 -8
q17 0 20 14t3 40h43q1 -23 -3.5 -44.5t-18 -35.5t-42.5 -14z" />
    <glyph glyph-name="uni03020301" horiz-adv-x="0" 
d="M78 642v8l109 103h29l109 -103v-8h-60l-62 67h-3l-60 -67h-62zM334 731h-32v10l51 103h59v-15z" />
    <glyph glyph-name="uni03020300" horiz-adv-x="0" 
d="M146 732l-78 98v15h59l51 -103v-10h-32zM163 642v8l109 103h29l109 -103v-8h-60l-62 67h-3l-60 -67h-62z" />
    <glyph glyph-name="uni03020309" horiz-adv-x="0" 
d="M78 651v8l109 103h29l109 -103v-8h-60l-62 67h-3l-60 -67h-62zM292 738v11q4 14 18.5 23t27.5 19.5t13 27.5t-15 23.5t-32 0.5t-25 -26l-32 16q8 29 31.5 42.5t50 12.5t46 -16.5t19.5 -45.5q0 -26 -13 -40t-26.5 -24t-16.5 -24h-46z" />
    <glyph glyph-name="uni03020303" horiz-adv-x="0" 
d="M79 651v8l109 103h29l109 -103v-8h-60l-62 67h-3l-60 -67h-62zM252 804q-23 0 -36.5 8.5t-23 19t-18.5 19t-23 8.5q-17 0 -20.5 -14t-3.5 -39h-42q-1 19 2.5 41t17 36.5t43.5 14.5q23 0 37 -8t23 -19t18.5 -19t23.5 -8q17 0 20 14t3 40h43q1 -23 -3.5 -44.5t-18 -35.5
t-42.5 -14z" />
    </font>
</defs>
</svg>
