<svg xmlns="http://www.w3.org/2000/svg" xmlns:xlink="http://www.w3.org/1999/xlink" viewBox="0 0 91 81" fill="#fff" fill-rule="evenodd" stroke="#000" stroke-linecap="round" stroke-linejoin="round"><use xlink:href="#A" x=".5" y=".5"/><symbol id="A" overflow="visible"><path d="M67.558 0H22.44L0 40l22.44 40h45.117L90 40 67.558 0zm.234 57.964c0 3.353-2.805 6.227-6.078 6.227H28.52c-3.273 0-6.078-2.874-6.078-6.227v-35.7c0-3.353 2.805-6.228 6.078-6.228h29.922l9.35 9.58V57.96zM41.6 46.467c0-.48-.234-.718-.234-.958s-.234-.48-.467-.718-.234-.24-.468-.24h-.7c-.468 0-.702 0-.935.24s-.468.48-.7.958-.234.958-.234 1.437v4.55c0 .72.234 1.197.468 1.437.234.48.468.72.7.72.234.24.468.24.935.24.234 0 .468 0 .7-.24a.51.51 0 0 0 .468-.479c.234-.24.234-.48.467-.718 0-.24.234-.48.234-.958 0-.24 0-.72.233-1.198v-3.114c-.467-.24-.467-.48-.467-.958zm10.53-18.683c0-.48-.234-.718-.234-.958s-.234-.48-.468-.72-.234-.24-.468-.24h-.7c-.467 0-.7 0-.935.24s-.468.48-.702.958-.233.958-.233 1.437v4.55c0 .72.233 1.198.467 1.437.234.48.468.72.7.72.234.24.467.24.935.24.234 0 .467 0 .7-.24a.51.51 0 0 0 .468-.479c.234-.24.234-.48.468-.72 0-.24.234-.48.234-.958 0-.24 0-.718.234-1.198V28.74c-.234 0-.234-.48-.467-.958zm4.675-8.384H28.52c-1.636 0-2.805 1.198-2.805 2.874v35.7c0 1.677 1.17 2.874 2.805 2.874h33.195a2.88 2.88 0 0 0 2.805-2.874v-30.66h-7.48V19.4zM36 26.587v-.48l.234-.24 2.805-1.916h2.57v11.5h2.338l.233.24c.234.24 0 .24 0 .24v1.197s0 .24-.233.24h-7.714l-.234-.24V35.7s0-.24.234-.24h2.805v-8.862l-2.104 1.198c-.234 0-.234.24-.467.24h-.234s0-.24-.234-.24v-1.198zm8.182 25.63c-.233.958-.467 1.677-.935 2.156-.468.718-.935 1.198-1.403 1.437-.7.24-1.403.48-2.338.48s-1.636-.24-2.338-.48-1.17-.72-1.403-1.437-.7-1.437-.7-2.156c-.234-.958-.234-1.916-.234-2.874 0-1.198 0-2.156.234-2.874.234-.958.467-1.677.935-2.156s.935-1.198 1.403-1.437c.7-.24 1.403-.48 2.338-.48s1.636.24 2.337.48a2.13 2.13 0 0 1 1.403 1.437c.234.72.7 1.437.7 2.156.234.958.234 1.916.234 2.874 0 1.198 0 2.156-.234 2.874zM54.7 55.57v.24s0 .24-.234.24h-7.714l-.234-.24v-1.44s0-.24.234-.24h2.805v-8.86l-2.104 1.198c-.234 0-.234.24-.468.24h-.234s0-.24-.234-.24V44.8l.234-.24 2.805-1.916h2.572V54.14h2.338l.234.24v1.198zm.234-22.036c-.234.958-.468 1.677-.935 2.156-.468.718-.935 1.198-1.403 1.437-.7.24-1.403.48-2.338.48s-1.636-.24-2.338-.48a2.13 2.13 0 0 1-1.403-1.437c-.234-.48-.7-1.437-.7-2.156s-.234-1.916-.234-2.874c0-1.198 0-2.156.234-2.874.234-.958.468-1.677.935-2.156.468-.718.935-1.198 1.403-1.437.7-.24 1.403-.48 2.338-.48s1.636.24 2.338.48 1.17.72 1.403 1.437.7 1.437.7 2.156c.234.958.234 1.916.234 2.874 0 1.198-.234 2.156-.234 2.874z" fill="#0078d7" stroke="none"/></symbol></svg>