<?xml version="1.0" encoding="UTF-8"?>
<!DOCTYPE svg PUBLIC "-//W3C//DTD SVG 1.1//EN" "http://www.w3.org/Graphics/SVG/1.1/DTD/svg11.dtd">
<svg xmlns="http://www.w3.org/2000/svg" version="1.1" width="128px" height="128px" style="shape-rendering:geometricPrecision; text-rendering:geometricPrecision; image-rendering:optimizeQuality; fill-rule:evenodd; clip-rule:evenodd" xmlns:xlink="http://www.w3.org/1999/xlink">
<g><path style="opacity:0.998" fill="#e1e4e6" d="M 27.5,-0.5 C 47.5,-0.5 67.5,-0.5 87.5,-0.5C 87.3336,8.50617 87.5002,17.5062 88,26.5C 89.9951,29.6751 92.8285,31.3417 96.5,31.5C 103.833,39.5 111.5,47.1667 119.5,54.5C 119.667,77.5024 119.5,100.502 119,123.5C 117.624,124.705 116.458,126.038 115.5,127.5C 86.1667,127.5 56.8333,127.5 27.5,127.5C 26.5423,126.038 25.3756,124.705 24,123.5C 23.5012,119.514 23.3345,115.514 23.5,111.5C 49.5021,111.667 75.5021,111.5 101.5,111C 103.229,109.211 103.896,107.044 103.5,104.5C 103.667,90.1628 103.5,75.8295 103,61.5C 102.5,61 102,60.5 101.5,60C 75.5021,59.5 49.5021,59.3334 23.5,59.5C 23.3334,40.8304 23.5001,22.1637 24,3.5C 25.3756,2.29493 26.5423,0.961599 27.5,-0.5 Z"/></g>
<g><path style="opacity:1" fill="#b1b8be" d="M 87.5,-0.5 C 87.8333,-0.5 88.1667,-0.5 88.5,-0.5C 98.5,9.83333 108.5,20.1667 118.5,30.5C 111.352,31.4916 104.019,31.825 96.5,31.5C 92.8285,31.3417 89.9951,29.6751 88,26.5C 87.5002,17.5062 87.3336,8.50617 87.5,-0.5 Z"/></g>
<g><path style="opacity:1" fill="#c9d0d7" d="M 118.5,30.5 C 119.492,38.3159 119.826,46.3159 119.5,54.5C 111.5,47.1667 103.833,39.5 96.5,31.5C 104.019,31.825 111.352,31.4916 118.5,30.5 Z"/></g>
<g><path style="opacity:0.999" fill="#576d7e" d="M 23.5,59.5 C 49.5021,59.3334 75.5021,59.5 101.5,60C 102,60.5 102.5,61 103,61.5C 103.5,75.8295 103.667,90.1628 103.5,104.5C 102.691,105.469 101.691,106.302 100.5,107C 74.8355,107.5 49.1688,107.667 23.5,107.5C 18.2384,107.805 13.0717,107.471 8,106.5C 7.33333,91.1667 7.33333,75.8333 8,60.5C 13.0717,59.5286 18.2384,59.1953 23.5,59.5 Z"/></g>
<g><path style="opacity:1" fill="#fefffe" d="M 32.5,74.5 C 35.8333,74.5 39.1667,74.5 42.5,74.5C 42.5,75.5 42.5,76.5 42.5,77.5C 40.1667,77.5 37.8333,77.5 35.5,77.5C 35.5,78.8333 35.5,80.1667 35.5,81.5C 37.5,81.5 39.5,81.5 41.5,81.5C 41.5,82.5 41.5,83.5 41.5,84.5C 39.5,84.5 37.5,84.5 35.5,84.5C 35.5,86.8333 35.5,89.1667 35.5,91.5C 34.5,91.5 33.5,91.5 32.5,91.5C 32.5,85.8333 32.5,80.1667 32.5,74.5 Z"/></g>
<g><path style="opacity:1" fill="#f1f2f4" d="M 44.5,74.5 C 45.5,74.5 46.5,74.5 47.5,74.5C 48.0103,78.5602 48.8436,82.5602 50,86.5C 51.7497,83.7536 52.7497,80.7536 53,77.5C 54.3561,76.6198 55.8561,76.2865 57.5,76.5C 57.4392,80.0487 58.2725,83.3821 60,86.5C 61.2827,82.586 62.1161,78.586 62.5,74.5C 63.5,74.5 64.5,74.5 65.5,74.5C 65.1461,79.957 64.1461,85.2903 62.5,90.5C 60.9936,91.7472 59.4936,91.7472 58,90.5C 57,87.5 56,84.5 55,81.5C 53.8476,84.4403 52.8476,87.4403 52,90.5C 50.6439,91.3802 49.1439,91.7135 47.5,91.5C 46.3719,85.859 45.3719,80.1924 44.5,74.5 Z"/></g>
<g><path style="opacity:1" fill="#fefffe" d="M 68.5,74.5 C 71.8333,74.5 75.1667,74.5 78.5,74.5C 78.5,75.5 78.5,76.5 78.5,77.5C 76.1667,77.5 73.8333,77.5 71.5,77.5C 71.5,78.8333 71.5,80.1667 71.5,81.5C 73.5,81.5 75.5,81.5 77.5,81.5C 77.5,82.5 77.5,83.5 77.5,84.5C 75.5,84.5 73.5,84.5 71.5,84.5C 71.5,86.8333 71.5,89.1667 71.5,91.5C 70.5,91.5 69.5,91.5 68.5,91.5C 68.5,85.8333 68.5,80.1667 68.5,74.5 Z"/></g>
<g><path style="opacity:1" fill="#c9d0d7" d="M 103.5,104.5 C 103.896,107.044 103.229,109.211 101.5,111C 75.5021,111.5 49.5021,111.667 23.5,111.5C 23.5,110.167 23.5,108.833 23.5,107.5C 49.1688,107.667 74.8355,107.5 100.5,107C 101.691,106.302 102.691,105.469 103.5,104.5 Z"/></g>
</svg>
