<?xml version="1.0" encoding="utf-8"?>
<!-- Generator: Adobe Illustrator 19.2.1, SVG Export Plug-In . SVG Version: 6.00 Build 0)  -->
<svg version="1.1" id="layer" xmlns="http://www.w3.org/2000/svg" xmlns:xlink="http://www.w3.org/1999/xlink" x="0px" y="0px"
	 viewBox="0 0 652 652" style="enable-background:new 0 0 652 652;" xml:space="preserve">
<style type="text/css">
	.st0{fill:#000B1B;}
	.st1{fill:#FF9D00;}
	.st2{fill:#FFD21E;}
	.st3{fill:#32343D;}
	.st4{fill:#FF323D;}
	.st5{fill:#FFAD03;}
</style>
<path class="st0" d="M184.2,341.4v-48.1h12.7v17.9h14.4v-17.9H224v48.1h-12.7v-19.1h-14.4v19.1H184.2z M244.9,342.3
	c-4,0-7-1.4-8.8-4.1c-1.8-2.8-2.7-6.4-2.7-11v-22.8H246v21.2c0,2.4,0.3,3.9,0.9,4.7c0.6,0.8,1.6,1.2,2.8,1.2c1.2,0,2.2-0.2,3-0.7
	s1.6-1.3,2.4-2.5v-23.8h12.7v37h-10.4l-0.9-4.9h-0.3c-1.5,1.8-3.1,3.2-5,4.2C249.5,341.7,247.4,342.3,244.9,342.3z M289.9,356.6
	c-2.8,0-5.4-0.3-7.8-1c-2.4-0.6-4.3-1.6-5.7-2.9c-1.4-1.3-2.1-3.1-2.1-5.3c0-2.9,1.7-5.3,5.2-7.1V340c-0.9-0.7-1.8-1.6-2.4-2.5
	c-0.6-1-1-2.3-1-3.8c0-1.3,0.4-2.5,1.1-3.8c0.8-1.2,1.8-2.3,3-3.2v-0.3c-1.3-0.9-2.5-2.1-3.6-3.8c-1-1.7-1.5-3.6-1.5-5.7
	c0-3.1,0.7-5.6,2.2-7.6c1.5-2,3.5-3.5,5.9-4.4c2.4-1,5-1.5,7.7-1.5c2.2,0,4.1,0.3,5.9,0.9h13.8v9.2h-5.3c0.1,0.4,0.3,1,0.4,1.7
	c0.1,0.7,0.2,1.4,0.2,2.1c0,2.9-0.7,5.3-2,7.1c-1.3,1.8-3.1,3.1-5.4,3.9c-2.3,0.8-4.8,1.3-7.6,1.3c-1.2,0-2.6-0.2-4.1-0.5
	c-0.6,0.5-0.9,1.3-0.9,2.1c0,0.8,0.4,1.4,1.2,1.7c0.8,0.3,2.2,0.5,4,0.5h5.6c4.6,0,8.2,0.8,10.7,2.3c2.6,1.5,3.8,3.9,3.8,7.3
	c0,2.7-0.9,5-2.7,7c-1.7,2-4.2,3.6-7.4,4.7C298.1,356.1,294.3,356.6,289.9,356.6z M291.1,322.1c1.2,0,2.1-0.4,2.9-1.3
	c0.7-0.8,1.1-2.1,1.1-3.9c0-1.7-0.4-3-1.1-3.8c-0.7-0.8-1.7-1.3-2.9-1.3c-1.2,0-2.1,0.4-2.9,1.3c-0.7,0.8-1.1,2-1.1,3.8
	c0,1.8,0.4,3.1,1.1,3.9C288.9,321.7,289.9,322.1,291.1,322.1z M292,348.8c2.1,0,3.8-0.3,5.2-1c1.4-0.6,2.1-1.4,2.1-2.4
	c0-1-0.4-1.6-1.3-1.9c-0.8-0.2-2-0.4-3.6-0.4h-2.9c-1.5,0-2.6,0-3.4-0.1c-0.7,0-1.4-0.1-1.9-0.3c-0.9,0.9-1.3,1.8-1.3,2.7
	c0,1.2,0.7,2,2,2.6C288.1,348.5,289.8,348.8,292,348.8z M330.3,356.6c-2.8,0-5.4-0.3-7.8-1c-2.4-0.6-4.3-1.6-5.7-2.9
	c-1.4-1.3-2.1-3.1-2.1-5.3c0-2.9,1.7-5.3,5.2-7.1V340c-0.9-0.7-1.8-1.6-2.4-2.5c-0.6-1-1-2.3-1-3.8c0-1.3,0.4-2.5,1.1-3.8
	c0.8-1.2,1.8-2.3,3-3.2v-0.3c-1.3-0.9-2.5-2.1-3.6-3.8c-1-1.7-1.5-3.6-1.5-5.7c0-3.1,0.7-5.6,2.2-7.6c1.5-2,3.5-3.5,5.9-4.4
	c2.4-1,5-1.5,7.7-1.5c2.2,0,4.1,0.3,5.9,0.9h13.8v9.2h-5.3c0.1,0.4,0.3,1,0.4,1.7c0.1,0.7,0.2,1.4,0.2,2.1c0,2.9-0.7,5.3-2,7.1
	c-1.3,1.8-3.1,3.1-5.4,3.9c-2.3,0.8-4.8,1.3-7.6,1.3c-1.2,0-2.6-0.2-4.1-0.5c-0.6,0.5-0.9,1.3-0.9,2.1c0,0.8,0.4,1.4,1.2,1.7
	c0.8,0.3,2.2,0.5,4,0.5h5.6c4.6,0,8.2,0.8,10.7,2.3c2.6,1.5,3.8,3.9,3.8,7.3c0,2.7-0.9,5-2.7,7c-1.7,2-4.2,3.6-7.4,4.7
	C338.5,356.1,334.7,356.6,330.3,356.6z M331.5,322.1c1.2,0,2.1-0.4,2.9-1.3c0.7-0.8,1.1-2.1,1.1-3.9c0-1.7-0.4-3-1.1-3.8
	c-0.7-0.8-1.7-1.3-2.9-1.3c-1.2,0-2.1,0.4-2.9,1.3c-0.7,0.8-1.1,2-1.1,3.8c0,1.8,0.4,3.1,1.1,3.9
	C329.3,321.7,330.3,322.1,331.5,322.1z M332.4,348.8c2.1,0,3.8-0.3,5.2-1c1.4-0.6,2.1-1.4,2.1-2.4c0-1-0.4-1.6-1.3-1.9
	c-0.8-0.2-2-0.4-3.6-0.4h-2.9c-1.5,0-2.6,0-3.4-0.1c-0.7,0-1.4-0.1-1.9-0.3c-0.9,0.9-1.3,1.8-1.3,2.7c0,1.2,0.7,2,2,2.6
	C328.5,348.5,330.2,348.8,332.4,348.8z M357.2,341.4v-37H370v37H357.2z M363.6,299.8c-2.1,0-3.8-0.6-5-1.7c-1.3-1.2-1.9-2.7-1.9-4.7
	c0-1.9,0.6-3.5,1.9-4.6c1.3-1.2,3-1.8,5-1.8s3.8,0.6,5,1.8c1.3,1.1,1.9,2.7,1.9,4.6c0,1.9-0.6,3.5-1.9,4.7
	C367.3,299.2,365.7,299.8,363.6,299.8z M378.6,341.4v-37h10.4l0.9,4.4h0.3c1.5-1.4,3.2-2.7,5-3.7c1.9-1.1,4.1-1.6,6.7-1.6
	c4.1,0,7,1.4,8.8,4.1c1.8,2.7,2.7,6.4,2.7,11v22.8h-12.7v-21.2c0-2.4-0.3-3.9-0.9-4.7c-0.6-0.8-1.5-1.2-2.8-1.2
	c-1.2,0-2.2,0.2-3,0.7c-0.8,0.5-1.7,1.2-2.7,2.1v24.3H378.6z M435.1,356.6c-2.8,0-5.4-0.3-7.8-1c-2.4-0.6-4.3-1.6-5.7-2.9
	c-1.4-1.3-2.1-3.1-2.1-5.3c0-2.9,1.7-5.3,5.2-7.1V340c-0.9-0.7-1.8-1.6-2.4-2.5c-0.6-1-1-2.3-1-3.8c0-1.3,0.4-2.5,1.1-3.8
	c0.8-1.2,1.8-2.3,3-3.2v-0.3c-1.3-0.9-2.5-2.1-3.6-3.8c-1-1.7-1.5-3.6-1.5-5.7c0-3.1,0.7-5.6,2.2-7.6c1.5-2,3.5-3.5,5.9-4.4
	c2.4-1,5-1.5,7.7-1.5c2.2,0,4.1,0.3,5.9,0.9H456v9.2h-5.3c0.1,0.4,0.3,1,0.4,1.7c0.1,0.7,0.2,1.4,0.2,2.1c0,2.9-0.7,5.3-2,7.1
	c-1.3,1.8-3.1,3.1-5.4,3.9c-2.3,0.8-4.8,1.3-7.6,1.3c-1.2,0-2.6-0.2-4.1-0.5c-0.6,0.5-0.9,1.3-0.9,2.1c0,0.8,0.4,1.4,1.2,1.7
	c0.8,0.3,2.2,0.5,4,0.5h5.6c4.6,0,8.2,0.8,10.7,2.3c2.6,1.5,3.8,3.9,3.8,7.3c0,2.7-0.9,5-2.7,7c-1.7,2-4.2,3.6-7.4,4.7
	C443.3,356.1,439.5,356.6,435.1,356.6z M436.3,322.1c1.2,0,2.1-0.4,2.9-1.3c0.7-0.8,1.1-2.1,1.1-3.9c0-1.7-0.4-3-1.1-3.8
	c-0.7-0.8-1.7-1.3-2.9-1.3c-1.2,0-2.1,0.4-2.9,1.3c-0.7,0.8-1.1,2-1.1,3.8c0,1.8,0.4,3.1,1.1,3.9
	C434.2,321.7,435.1,322.1,436.3,322.1z M437.2,348.8c2.1,0,3.8-0.3,5.2-1c1.4-0.6,2.1-1.4,2.1-2.4c0-1-0.4-1.6-1.3-1.9
	c-0.8-0.2-2-0.4-3.6-0.4h-2.9c-1.5,0-2.6,0-3.4-0.1c-0.7,0-1.4-0.1-1.9-0.3c-0.9,0.9-1.3,1.8-1.3,2.7c0,1.2,0.7,2,2,2.6
	C433.3,348.5,435.1,348.8,437.2,348.8z M477.9,341.4v-48.1h31.4v10.7h-18.7v9.2h16v10.7h-16v17.6H477.9z M523.2,342.3
	c-2.3,0-4.3-0.5-6-1.6c-1.6-1.1-2.9-2.5-3.8-4.2c-0.9-1.7-1.3-3.6-1.3-5.6c0-3.8,1.6-6.9,4.7-9c3.2-2.2,8.3-3.7,15.4-4.4
	c-0.3-2.6-2-3.8-5.2-3.8c-1.3,0-2.7,0.3-4.2,0.8c-1.5,0.5-3.2,1.3-5.1,2.3l-4.4-8.3c2.6-1.6,5.3-2.8,7.9-3.6
	c2.7-0.8,5.5-1.3,8.4-1.3c4.8,0,8.6,1.4,11.3,4.1c2.7,2.7,4.1,7.1,4.1,13.2v20.6h-10.4l-0.9-3.6h-0.3c-1.5,1.3-3.1,2.4-4.7,3.3
	C527.1,341.9,525.2,342.3,523.2,342.3z M527.7,332.5c1,0,1.9-0.2,2.6-0.7c0.7-0.5,1.4-1.1,2-1.9v-5c-3,0.4-5.1,1.1-6.3,2
	c-1.1,0.9-1.7,1.9-1.7,2.9C524.3,331.6,525.4,332.5,527.7,332.5z M570,342.3c-3.5,0-6.7-0.8-9.5-2.3c-2.8-1.5-5.1-3.7-6.7-6.6
	c-1.6-2.9-2.4-6.4-2.4-10.5c0-4.1,0.9-7.6,2.7-10.4c1.9-2.9,4.3-5.1,7.3-6.7c3-1.5,6.3-2.3,9.8-2.3c2.2,0,4.2,0.3,6,1
	c1.8,0.7,3.4,1.6,4.8,2.8l-5.9,8.1c-0.8-0.7-1.5-1.2-2.1-1.4c-0.6-0.2-1.3-0.4-2-0.4c-2.4,0-4.2,0.8-5.6,2.5c-1.3,1.6-2,3.8-2,6.7
	c0,2.8,0.7,5.1,2.1,6.7c1.4,1.6,3.1,2.4,5,2.4c1,0,2-0.2,3-0.7c1-0.5,2-1,2.9-1.7l4.9,8.3c-1.8,1.6-3.8,2.8-6.1,3.4
	C574,342,571.9,342.3,570,342.3z M603.1,342.3c-3.6,0-6.9-0.8-9.8-2.3c-2.9-1.5-5.1-3.7-6.8-6.6c-1.7-2.9-2.5-6.4-2.5-10.5
	c0-4,0.8-7.4,2.5-10.3c1.7-2.9,3.9-5.2,6.7-6.7c2.7-1.6,5.6-2.4,8.6-2.4c3.7,0,6.7,0.8,9,2.4c2.4,1.6,4.2,3.7,5.3,6.4
	c1.2,2.7,1.8,5.7,1.8,9c0,1.1-0.1,2.1-0.2,3.2c-0.1,1-0.2,1.7-0.3,2.1h-21.1c0.6,2.2,1.7,3.8,3.2,4.7c1.5,0.8,3.3,1.3,5.4,1.3
	c2.4,0,4.9-0.7,7.6-2.2l4.1,7.6c-2,1.4-4.2,2.4-6.7,3.2C607.5,341.9,605.2,342.3,603.1,342.3z M596.2,318.4h11
	c0-1.4-0.4-2.7-1.1-3.7c-0.7-1.1-2-1.6-3.9-1.6c-1.4,0-2.6,0.4-3.7,1.3C597.3,315.2,596.6,316.5,596.2,318.4z"/>
<path class="st1" d="M150.6,356.2c0.7-1.1,1.2-2.2,1.4-3.5c0.2-1.2,0.2-2.5-0.2-3.7c-0.5-1.8-1.4-3.2-2.7-4.3c0.6-1,1-2.2,1.2-3.4
	c0.4-2.6-0.5-5.2-2.4-7.3c-1.5-1.6-3.6-2.5-6-2.5c-0.3,0-0.6,0-0.8,0c1.8-5.7,2.7-11.7,2.7-17.7c0-32.6-26.4-59.1-59.1-59.1
	s-59.1,26.4-59.1,59.1c0,6,0.9,11.9,2.7,17.6h-0.1c-2.4,0-4.5,0.9-6,2.5c-1.9,2.1-2.8,4.7-2.4,7.3c0.2,1.2,0.6,2.3,1.2,3.4
	c-1.3,1.1-2.3,2.5-2.7,4.3c-0.3,1.2-0.4,2.5-0.2,3.7c0.2,1.2,0.7,2.4,1.4,3.5c-0.1,0.2-0.2,0.4-0.3,0.6c-1.2,2.2-1.2,4.7-0.2,7.1
	c1.6,3.5,5.4,6.3,13,9.3c4.7,1.9,9,3,9,3.1c6.2,1.6,11.8,2.4,16.7,2.4c8,0,13.9-2.2,17.7-6.5c6.4,1,13,1,19.4-0.1
	c3.8,4.4,9.8,6.6,17.8,6.6c4.9,0,10.5-0.8,16.7-2.4c0,0,4.3-1.2,9-3.1c7.5-3,11.4-5.8,13-9.3c1-2.3,1-4.8-0.2-7.1
	C150.8,356.6,150.7,356.4,150.6,356.2z M72.5,365.4c-0.3,0.6-0.7,1.1-1.1,1.7c-1,1.4-2.3,2.5-3.8,3.4c-2.9,1.6-6.5,2.1-10.2,2.1
	c-5.8,0-11.8-1.4-15.1-2.2c-0.2,0-20.5-5.8-17.9-10.7c0.4-0.8,1.1-1.2,2-1.2c3.6,0,10.2,5.4,13.1,5.4c0.6,0,1.1-0.3,1.3-0.9
	c1.2-4.3-18.4-6.2-16.7-12.4c0.3-1.1,1.1-1.6,2.2-1.6c4.8,0,15.5,8.4,17.8,8.4c0.2,0,0.3-0.1,0.4-0.2l0,0c1.1-1.7,0.5-3-6.8-7.4
	l-0.7-0.4c-8-4.8-13.5-7.7-10.4-11.2c0.4-0.4,0.9-0.6,1.5-0.6c0.7,0,1.7,0.3,2.6,0.7c4.2,1.8,10,6.6,12.5,8.7c0.7,0.6,1.1,1,1.1,1
	s3.1,3.2,4.9,3.2c0.4,0,0.8-0.2,1-0.6c1.3-2.2-12.3-12.5-13-16.8c-0.5-2.9,0.4-4.3,2-4.3c0.8,0,1.7,0.3,2.8,1
	c3.2,2.1,9.5,12.8,11.8,17c0.8,1.4,2.1,2,3.3,2c2.4,0,4.2-2.3,0.2-5.3c-6-4.5-3.9-11.8-1-12.2c0.1,0,0.2,0,0.4,0
	c2.6,0,3.7,4.5,3.7,4.5s3.3,8.4,9.1,14.2C74.9,355.8,75.6,360.1,72.5,365.4z M91.2,366.4l-0.3,0l-0.5,0.1c-0.3,0-0.5,0.1-0.8,0.1
	l-0.3,0l-0.2,0l-0.3,0c-0.1,0-0.3,0-0.4,0l-0.4,0l-0.1,0l-0.3,0l-0.1,0l-0.3,0l-0.4,0l-0.4,0l-0.2,0H86c-0.1,0-0.2,0-0.2,0h-0.1
	c-0.1,0-0.2,0-0.2,0l-0.3,0h-0.4c-0.3,0-0.7,0-1,0l-0.3,0c-0.1,0-0.2,0-0.2,0l-0.3,0l-0.4,0l-0.3,0l-0.1,0l-0.3,0
	c-0.1,0-0.2,0-0.3,0l-0.2,0c-0.3,0-0.5,0-0.8-0.1l-0.3,0l-0.3,0l-0.4,0c-0.2,0-0.4,0-0.7-0.1h0c3.2-7.1,1.6-13.8-4.9-20.2
	c-4.2-4.2-7-10.5-7.6-11.8c-1.2-4.1-4.3-8.6-9.5-8.6c-0.4,0-0.9,0-1.3,0.1c-2.3,0.4-4.3,1.7-5.7,3.6c-1.5-1.9-3-3.4-4.4-4.3
	c-2-1.3-4.1-1.9-6-1.9c-2.5,0-4.7,1-6.2,2.9l0,0l-0.1-0.4l0,0c-0.3-1.3-0.5-2.5-0.7-3.8c0,0,0,0,0,0l0-0.3c0-0.2,0-0.3-0.1-0.5
	c0-0.1,0-0.3-0.1-0.4c0-0.1,0-0.3-0.1-0.4c0-0.1,0-0.3,0-0.4c0-0.1,0-0.2,0-0.4l0,0c-0.1-0.6-0.1-1.1-0.2-1.7l0-0.3
	c0-0.1,0-0.2,0-0.3c0,0,0,0,0-0.1l0-0.4c0-0.1,0-0.3,0-0.4c0-0.1,0-0.3,0-0.4l0-0.3l0-0.1l0-0.3l0-0.3c0-0.1,0-0.2,0-0.3l0-0.3
	c0-0.1,0-0.2,0-0.3c0-0.1,0-0.2,0-0.3c0-29.2,23.7-53,53-53s53,23.7,53,53v0.7c0,0.1,0,0.2,0,0.3c0,0.1,0,0.2,0,0.3
	c0,0.1,0,0.2,0,0.3c0,0.1,0,0.2,0,0.3v0c0,0.2,0,0.5,0,0.7l0,0.1l0,0.3l0,0.3c0,0.7-0.1,1.3-0.2,2v0c0,0.1,0,0.2,0,0.4
	c0,0.3-0.1,0.6-0.1,0.8l0,0.3l0,0.3c0,0.1,0,0.2,0,0.4c0,0.1,0,0.3-0.1,0.4l0,0.3l-0.1,0.4c0,0.1,0,0.2-0.1,0.4c0,0.1,0,0.2-0.1,0.4
	c0,0.2-0.1,0.5-0.1,0.7c-0.1,0.5-0.2,1-0.3,1.4c0,0.1-0.1,0.2-0.1,0.4c-1.5-1.4-3.5-2.2-5.6-2.2c-2,0-4,0.7-6,1.9
	c-1.3,0.9-2.8,2.4-4.4,4.3c-1.4-2-3.4-3.3-5.7-3.6c-0.4-0.1-0.9-0.1-1.3-0.1c-5.2,0-8.3,4.5-9.5,8.6c-0.6,1.4-3.4,7.6-7.6,11.8
	C89.6,352.7,88,359.3,91.2,366.4z M145.8,352.1L145.8,352.1c0,0.1-0.1,0.1-0.1,0.2c0,0.1-0.1,0.1-0.1,0.2c-0.1,0.1-0.1,0.3-0.2,0.4
	c-0.1,0.2-0.2,0.3-0.4,0.5c0,0-0.1,0.1-0.1,0.1c0,0.1-0.1,0.1-0.2,0.2c-0.9,0.9-2.4,1.7-4,2.5c-0.2,0.1-0.4,0.2-0.6,0.2l-0.2,0.1
	c-0.1,0.1-0.2,0.1-0.4,0.2c-0.1,0.1-0.3,0.1-0.4,0.2l-0.4,0.2c-0.9,0.4-1.8,0.7-2.8,1.1l-0.4,0.2l-0.4,0.2c-0.3,0.1-0.5,0.2-0.8,0.3
	l-0.4,0.1l-0.4,0.1l-0.2,0.1c-0.1,0.1-0.2,0.1-0.4,0.1c-2.7,1.2-4.6,2.3-4.2,3.8c0,0,0,0.1,0,0.1c0,0.1,0.1,0.2,0.1,0.3
	c0,0.1,0.1,0.1,0.1,0.2c0.5,0.5,1.3,0.4,2.4,0c0.1,0,0.2-0.1,0.3-0.1c0.1,0,0.1,0,0.2-0.1l0.1,0c0.3-0.1,0.5-0.2,0.8-0.4
	c0.1,0,0.1-0.1,0.2-0.1c1.3-0.7,2.9-1.5,4.4-2.3c0.2-0.1,0.5-0.2,0.7-0.4c0.4-0.2,0.8-0.4,1.1-0.6c1.4-0.7,2.8-1.1,3.8-1.1
	c0.5,0,1,0.1,1.3,0.3l0.1,0c0.2,0.1,0.4,0.3,0.5,0.5c0,0,0.1,0.1,0.1,0.1c0,0,0.1,0.1,0.1,0.1c0.5,1,0.1,2.1-1,3.1
	c-1,1-2.6,1.9-4.3,2.8c-0.1,0.1-0.3,0.1-0.4,0.2c-5.3,2.6-12.2,4.5-12.2,4.6c-1.8,0.5-4.5,1.1-7.4,1.6l-0.4,0.1l-0.1,0
	c-0.7,0.1-1.3,0.2-2,0.3l-0.1,0c-1.2,0.1-2.5,0.2-3.7,0.3h0c-0.5,0-0.9,0-1.4,0h-0.5c-0.7,0-1.4,0-2.1-0.1c0,0,0,0,0,0
	c-0.2,0-0.5,0-0.7-0.1c-0.4,0-0.8-0.1-1.3-0.2c-0.2,0-0.3-0.1-0.5-0.1c-0.1,0-0.2,0-0.2,0l0,0c-0.2,0-0.5-0.1-0.7-0.2
	c-0.1,0-0.3-0.1-0.4-0.1l-0.1,0c-0.1,0-0.1,0-0.2-0.1l0,0l-0.2-0.1c-0.1,0-0.2,0-0.2-0.1l0,0l-0.2-0.1c-0.1,0-0.2,0-0.2-0.1
	c-0.1,0-0.1,0-0.2-0.1l-0.1,0c-0.1,0-0.3-0.1-0.4-0.1l-0.1,0l-0.1,0c-0.2-0.1-0.4-0.2-0.6-0.3l-0.1-0.1l0,0c0,0-0.1,0-0.1-0.1
	c-0.1,0-0.2-0.1-0.3-0.1l0,0l-0.1-0.1c-0.2-0.1-0.5-0.2-0.7-0.4l-0.1-0.1c-0.1,0-0.1-0.1-0.2-0.1l-0.2-0.1c-0.1,0-0.1-0.1-0.2-0.1
	l-0.1-0.1c-0.1-0.1-0.2-0.2-0.3-0.2c-0.1,0-0.1-0.1-0.2-0.1c-0.1-0.1-0.2-0.2-0.4-0.3l0,0c-0.1-0.1-0.2-0.2-0.3-0.3l0,0
	c-0.1-0.1-0.1-0.1-0.2-0.2c-0.1-0.1-0.1-0.1-0.2-0.2c-0.1-0.1-0.1-0.1-0.2-0.2c-0.1-0.1-0.1-0.1-0.1-0.2l0,0
	c-0.3-0.3-0.5-0.6-0.7-0.9l-0.1-0.1c-0.1-0.1-0.1-0.2-0.2-0.3l-0.2-0.3c-0.1-0.1-0.2-0.2-0.2-0.4c-0.1-0.1-0.1-0.2-0.2-0.3
	c0-0.1-0.1-0.2-0.1-0.2c0,0,0-0.1-0.1-0.1c0,0-0.1-0.1-0.1-0.1l0-0.1c0,0,0,0,0,0c0-0.1-0.1-0.2-0.1-0.3c0,0,0-0.1-0.1-0.1l-0.1-0.1
	l-0.1-0.1l-0.1-0.2c0,0,0-0.1-0.1-0.1c0-0.1-0.1-0.2-0.1-0.3c0,0,0-0.1,0-0.1c-0.1-0.1-0.1-0.2-0.2-0.4c0-0.1-0.1-0.2-0.1-0.2
	c-0.1-0.2-0.2-0.5-0.3-0.7c0-0.1,0-0.1-0.1-0.2c-0.1-0.2-0.1-0.3-0.1-0.5c0-0.2-0.1-0.4-0.1-0.6c0-0.1,0-0.2-0.1-0.3
	c0-0.1,0-0.2,0-0.3c0-0.2,0-0.4-0.1-0.7c0,0,0-0.1,0-0.1c0-0.1,0-0.1,0-0.2c0-3,1.5-5.9,4.7-9.1c5.8-5.7,9.1-14.2,9.1-14.2
	s0.1-0.4,0.3-0.9c0.1-0.2,0.1-0.3,0.2-0.5c0.1-0.2,0.2-0.4,0.3-0.6l0-0.1c0.1-0.2,0.2-0.5,0.4-0.7c0-0.1,0.1-0.1,0.1-0.2
	c0.1-0.2,0.2-0.3,0.3-0.4c0.1-0.1,0.2-0.2,0.3-0.3c0.3-0.3,0.7-0.6,1.1-0.8l0.1,0c0,0,0.1,0,0.1,0c0,0,0.1,0,0.1,0l0,0
	c0.1,0,0.2,0,0.3,0h0c0,0,0.1,0,0.1,0c0.1,0,0.2,0,0.4,0c0.5,0.1,1,0.4,1.4,0.9l0.1,0.1c0.1,0.2,0.3,0.3,0.4,0.5
	c0.1,0.1,0.2,0.3,0.2,0.4c0,0.1,0.1,0.1,0.1,0.2c0,0,0,0.1,0,0.1c0,0.1,0.1,0.1,0.1,0.2c0.1,0.4,0.3,0.8,0.3,1.2
	c0.1,0.4,0.1,0.9,0.1,1.3c0,0.2,0,0.4,0,0.6c0,0.1,0,0.1,0,0.2c-0.1,0.8-0.2,1.6-0.5,2.4c0,0.1-0.1,0.2-0.1,0.2
	c-0.2,0.4-0.3,0.7-0.5,1c-0.1,0.2-0.2,0.4-0.4,0.6l-0.1,0.1c-0.3,0.4-0.7,0.8-1,1.2c-0.4,0.4-0.8,0.7-1.2,1c-0.4,0.3-0.8,0.7-1.2,1
	c-1.1,1.1-1.3,2.1-1.1,2.8c0,0.1,0.1,0.2,0.1,0.2c0.1,0.2,0.2,0.3,0.3,0.5l0,0c0,0,0.1,0.1,0.1,0.1l0,0c0.1,0.1,0.2,0.1,0.3,0.2
	c0,0,0.1,0,0.1,0.1c0.2,0.1,0.3,0.1,0.5,0.2l0,0l0.1,0l0.1,0l0.1,0l0.1,0l0.1,0c0,0,0.1,0,0.1,0l0,0l0.1,0l0,0l0.1,0h0l0.1,0h0.2
	l0.1,0l0.1,0l0.1,0l0.1,0c0,0,0,0,0.1,0c0.3,0,0.6-0.1,0.9-0.3c0.1,0,0.1-0.1,0.2-0.1c0.1-0.1,0.2-0.1,0.4-0.2
	c0.2-0.1,0.3-0.2,0.5-0.4l0.1-0.1c0,0,0,0,0,0c0.1-0.1,0.2-0.2,0.3-0.3c0.1-0.2,0.3-0.4,0.4-0.6c1.4-2.5,2.8-4.9,4.3-7.3l0.2-0.3
	l0.2-0.3c0.1-0.2,0.2-0.3,0.3-0.5l0.1-0.2l0.2-0.3c0.3-0.4,0.6-0.9,0.9-1.3l0.2-0.3c0.4-0.6,0.9-1.2,1.3-1.8l0.2-0.3
	c0.5-0.6,0.9-1.3,1.4-1.9l0.2-0.2c0,0,0.1-0.1,0.1-0.1l0.2-0.2c0,0,0.1-0.1,0.1-0.1l0.2-0.2l0.1-0.1c0.1-0.1,0.2-0.2,0.3-0.3
	c0.1-0.1,0.1-0.1,0.2-0.2c0.4-0.4,0.7-0.7,1.2-1l0.1-0.1l0.1-0.1c0.1,0,0.1-0.1,0.2-0.1c1.7-0.9,3-1,3.8-0.2
	c0.5,0.5,0.7,1.3,0.7,2.4c0,0,0,0.1,0,0.1v0.1c0,0,0,0.1,0,0.2c0,0.1,0,0.1,0,0.2c0,0.1,0,0.1,0,0.2c0,0,0,0,0,0c0,0,0,0.1,0,0.1
	c0,0,0,0,0,0c0,0.1,0,0.1,0,0.2c0,0.1,0,0.1,0,0.2c0,0,0,0.1,0,0.1c0,0.1,0,0.2-0.1,0.3c-0.1,0.2-0.1,0.4-0.2,0.5
	c0,0.1-0.1,0.1-0.1,0.2c-0.1,0.2-0.2,0.3-0.3,0.5c0,0.1-0.1,0.2-0.1,0.2l-0.1,0.1c-0.1,0.1-0.2,0.3-0.2,0.4s-0.2,0.3-0.3,0.4
	c-0.1,0.2-0.3,0.4-0.4,0.5l-0.1,0.1c-0.3,0.4-0.6,0.8-0.9,1.1l-0.3,0.3l-0.1,0.1c-0.2,0.2-0.4,0.4-0.5,0.6l-0.1,0.1
	c-0.1,0.1-0.2,0.2-0.3,0.3c-0.1,0.1-0.2,0.2-0.3,0.3l-0.3,0.3l-0.3,0.3c-0.1,0.1-0.2,0.2-0.3,0.3l-0.6,0.6c-2.8,2.9-5.8,5.8-6.8,7.6
	c-0.1,0.1-0.1,0.2-0.2,0.4c-0.1,0.3-0.2,0.6-0.2,0.8c0,0.1,0,0.1,0.1,0.2c0.1,0.1,0.1,0.2,0.2,0.3c0,0,0.1,0.1,0.1,0.1
	c0.2,0.1,0.5,0.2,0.7,0.2h0.1l0.1,0l0.1,0l0.1,0c0,0,0,0,0,0l0.1,0l0,0l0.1,0l0,0l0.1,0l0.1,0c0.1,0,0.1,0,0.2-0.1
	c0.1,0,0.3-0.1,0.4-0.2c0,0,0.1,0,0.1,0l0.1,0c0.1-0.1,0.2-0.1,0.4-0.2c0.1-0.1,0.2-0.1,0.3-0.2l0.1-0.1c0,0,0.1,0,0.1-0.1l0.1-0.1
	l0,0l0.1-0.1c0.1-0.1,0.2-0.2,0.4-0.3l0,0l0.2-0.1c0.3-0.2,0.5-0.4,0.7-0.6l0.1-0.1l0,0l0.1-0.1c0.2-0.2,0.3-0.3,0.5-0.4l0.1-0.1
	l0.1-0.1l0.1-0.1l0,0l0,0c0.1-0.1,0.1-0.1,0.1-0.1l0,0l0,0c0,0,0,0,0,0l0,0l0,0l0.1-0.1l0.1-0.1c0,0,0.1-0.1,0.1-0.1l0.1-0.1
	c0,0,0,0,0.1,0l0.1-0.1l0.1-0.1l0.1-0.1c0.3-0.3,0.7-0.6,1.1-0.9l0.2-0.1l0.3-0.2l0.3-0.2c0.4-0.3,0.8-0.7,1.2-1l0.3-0.2
	c0.2-0.2,0.5-0.4,0.8-0.6c0.1-0.1,0.2-0.2,0.3-0.2c0.3-0.2,0.5-0.4,0.8-0.6c0.6-0.5,1.2-0.9,1.8-1.3l0.3-0.2
	c0.2-0.1,0.4-0.3,0.6-0.4l0.2-0.1c0.3-0.2,0.7-0.4,1-0.7l0.2-0.1l0.2-0.1c0.2-0.1,0.3-0.2,0.5-0.3l0.2-0.1l0.3-0.2
	c0.1-0.1,0.2-0.1,0.3-0.2l0.1,0l0.3-0.1c0.1-0.1,0.2-0.1,0.3-0.2l0.2-0.1l0.2-0.1c0.4-0.2,0.7-0.3,1.1-0.5c0.1,0,0.1,0,0.1-0.1
	c0.1,0,0.2-0.1,0.3-0.1c0.1,0,0.2-0.1,0.3-0.1c0.1,0,0.2-0.1,0.3-0.1l0,0c0,0,0.1,0,0.1,0l0,0c0.1,0,0.2,0,0.3-0.1h0
	c0.1,0,0.3-0.1,0.4-0.1c0,0,0.1,0,0.1,0c0.1,0,0.2,0,0.4,0c0.1,0,0.2,0,0.2,0h0.1c0.1,0,0.2,0,0.2,0c0,0,0.1,0,0.1,0h0
	c0,0,0.1,0,0.1,0c0,0,0.1,0,0.1,0h0c0,0,0.1,0,0.1,0c0.3,0.1,0.5,0.2,0.7,0.4l0,0l0,0l0,0c0.3,0.3,0.5,0.6,0.7,1l0,0.1
	c0.1,0.1,0.1,0.3,0.1,0.4c0.1,0.4,0.1,0.8-0.1,1.2c-0.1,0.2-0.1,0.3-0.2,0.5l-0.1,0.1c-0.2,0.4-0.5,0.7-0.8,1l-0.1,0.1
	c-0.1,0.1-0.3,0.3-0.4,0.4c0,0-0.1,0.1-0.1,0.1l-0.1,0.1c-0.2,0.1-0.3,0.3-0.5,0.4c0,0-0.1,0-0.1,0.1c-0.1,0.1-0.2,0.2-0.3,0.3
	c-0.4,0.3-0.8,0.6-1.3,0.9c-0.3,0.2-0.5,0.3-0.8,0.5c-0.5,0.3-1,0.6-1.5,1c-0.1,0.1-0.3,0.2-0.4,0.3c-1.4,0.8-2.9,1.7-4.5,2.7
	l-0.4,0.3c-0.5,0.3-0.9,0.5-1.3,0.8l-0.2,0.1l-0.4,0.3c-0.2,0.1-0.3,0.2-0.5,0.3c-0.1,0.1-0.2,0.1-0.3,0.2l-0.2,0.1
	c-0.1,0.1-0.2,0.1-0.3,0.2l-0.1,0.1c-0.1,0.1-0.2,0.1-0.3,0.2l-0.2,0.1l-0.2,0.1l-0.2,0.1c-0.3,0.2-0.5,0.4-0.8,0.6l-0.1,0.1
	c-0.1,0.1-0.2,0.2-0.3,0.2l-0.1,0.1c-0.2,0.2-0.4,0.3-0.6,0.5l-0.1,0.1c0,0-0.1,0.1-0.1,0.1c0,0-0.1,0.1-0.1,0.1l0,0
	c-0.1,0.1-0.2,0.2-0.3,0.3l0,0.1c-0.1,0.1-0.2,0.2-0.3,0.3l0,0.1c-0.1,0.1-0.2,0.3-0.2,0.4l0,0.1l0,0l0,0l0,0c0,0,0,0,0,0.1
	c0,0.1,0,0.2-0.1,0.3l0,0l0,0l0,0v0.2c0,0,0,0,0,0.1c0,0,0,0,0,0c0,0,0,0,0,0.1l0,0.1v0c0,0,0,0,0,0.1c0,0,0,0.1,0,0.1
	c0,0.1,0,0.2,0.1,0.2c0,0,0,0,0,0c0,0,0,0,0,0.1c0,0.1,0.1,0.2,0.1,0.2l0,0.1l0,0.1l0,0.1c0,0,0,0,0,0l0,0l0,0l0,0c0,0,0,0,0,0
	c0,0,0,0,0,0c0,0,0,0,0.1,0c0.4,0.1,1.2-0.2,2.3-0.8l0.2-0.1l0.3-0.2l0.2-0.1c0.1-0.1,0.2-0.1,0.4-0.2l0.2-0.1c1.5-0.8,3.2-1.9,5-3
	c0.2-0.1,0.3-0.2,0.5-0.3l0.3-0.2c0.2-0.1,0.3-0.2,0.5-0.3c0.7-0.4,1.5-0.8,2.2-1.2l0.3-0.2c0.2-0.1,0.4-0.2,0.7-0.3
	c0.4-0.2,0.8-0.4,1.3-0.6l0.2-0.1l0,0c1.2-0.5,2.4-0.8,3.3-0.8c0.2,0,0.4,0,0.6,0h0c0.1,0,0.1,0,0.2,0h0c0.1,0,0.2,0,0.2,0.1
	c0.1,0,0.1,0.1,0.2,0.1c0.3,0.1,0.5,0.3,0.6,0.6c0,0,0,0,0,0.1c0.1,0.1,0.1,0.2,0.2,0.3c0,0.1,0,0.1,0.1,0.2c0,0.1,0,0.1,0.1,0.2
	C146,351,146,351.6,145.8,352.1z"/>
<path class="st2" d="M137.6,314.2v-0.3c0-29.2-23.7-53-53-53c-29.2,0-53,23.7-53,53l0,0.1c0,0.1,0,0.2,0,0.2c0,0.1,0,0.2,0,0.3
	l0,0.3l0,0.1l0,0.1c0,0.1,0,0.1,0,0.2l0,0.3l0,0.3l0,0.1l0,0.3v0l0,0.4v0c0,0.1,0,0.3,0,0.4c0,0.1,0,0.2,0,0.4l0,0
	c0,0.1,0,0.2,0,0.3l0,0c0,0.1,0,0.2,0,0.3l0,0l0,0.2c0,0.5,0.1,1,0.1,1.5l0,0l0,0.4l0,0.4c0,0.3,0.1,0.5,0.1,0.8
	c0,0.2,0,0.3,0.1,0.5l0,0c0.1,0.4,0.1,0.7,0.2,1.1c0.2,1,0.4,2,0.6,3l0,0l0,0.1c0,0.1,0,0.2,0.1,0.3l0,0c1.5-1.8,3.7-2.9,6.2-2.9
	c2,0,4,0.7,6,1.9c1.3,0.9,2.8,2.4,4.4,4.3c1.4-2,3.4-3.3,5.7-3.6c0.4-0.1,0.9-0.1,1.3-0.1c5.2,0,8.3,4.5,9.5,8.6
	c0.6,1.4,3.4,7.6,7.6,11.8c6.5,6.4,8.1,13.1,4.9,20.2h0c0.2,0,0.4,0,0.7,0.1c0.1,0,0.3,0,0.4,0l0,0c0.1,0,0.2,0,0.3,0l0.3,0
	c0.3,0,0.5,0,0.8,0.1l0.2,0l0.2,0l0.1,0l0.3,0l0.1,0l0.3,0l0.4,0l0.3,0l0,0c0.1,0,0.1,0,0.2,0l0.1,0c0.4,0,0.8,0,1.2,0h0.4l0.3,0
	c0.1,0,0.2,0,0.2,0h0.1l0.1,0c0,0,0.1,0,0.1,0h0.1l0.2,0l0.4,0l0.4,0c0.1,0,0.2,0,0.3,0l0.1,0l0.2,0l0.1,0l0.1,0l0.4,0
	c0.1,0,0.3,0,0.4,0l0.3,0l0.2,0l0.3,0c0.3,0,0.5-0.1,0.8-0.1c0.2,0,0.3,0,0.5-0.1l0.3,0c-3.1-7.1-1.5-13.7,4.9-20.1
	c4.2-4.2,7.1-10.5,7.6-11.8c1.2-4.1,4.3-8.6,9.5-8.6c0.4,0,0.9,0,1.3,0.1c2.3,0.4,4.3,1.7,5.7,3.6c1.5-1.9,3-3.4,4.4-4.3
	c2-1.3,4.1-1.9,6-1.9c2.2,0,4.2,0.8,5.6,2.2c0.1-0.4,0.2-0.7,0.2-1.1c0-0.2,0.1-0.5,0.1-0.7c0.1-0.3,0.1-0.6,0.2-0.8
	c0-0.1,0-0.2,0-0.2c0-0.1,0-0.2,0.1-0.4l0,0l0-0.3l0-0.3l0,0c0-0.1,0-0.3,0.1-0.4c0-0.1,0-0.2,0-0.3l0-0.1l0-0.3l0-0.3
	c0-0.2,0-0.4,0.1-0.6c0-0.1,0-0.2,0-0.2l0-0.1c0-0.1,0-0.2,0-0.4l0-0.3c0.1-0.6,0.1-1.3,0.1-1.9v0l0-0.3l0-0.1l0-0.3
	c0-0.1,0-0.2,0-0.4v0l0-0.1c0-0.1,0-0.2,0-0.2l0,0c0-0.1,0-0.1,0-0.2l0-0.1c0-0.1,0-0.1,0-0.2l0-0.1c0-0.1,0-0.2,0-0.3V314.2z
	 M71.5,367.1c4.2-6.2,3.9-10.8-1.9-16.5c-5.8-5.8-9.1-14.2-9.1-14.2s-1.3-4.9-4.1-4.4c-2.9,0.4-4.9,7.7,1,12.2
	c6,4.5-1.2,7.5-3.5,3.3c-2.3-4.2-8.6-15-11.8-17c-3.3-2.1-5.5-0.9-4.8,3.3c0.4,2.1,3.9,5.7,7.2,9.1c3.4,3.4,6.5,6.6,5.8,7.7
	c-1.3,2.2-6-2.6-6-2.6s-14.6-13.3-17.8-9.8c-2.9,3.2,1.6,5.9,8.5,10.1c0.6,0.4,1.2,0.7,1.8,1.1c8,4.8,8.6,6.1,7.4,7.9
	c-0.4,0.7-3.1-0.9-6.4-2.9c-5.6-3.4-13-7.8-14-3.8c-0.9,3.4,4.5,5.5,9.4,7.4c4.1,1.6,7.8,3,7.3,5c-0.6,2-3.7,0.3-7-1.5
	c-3.8-2.1-8-4.4-9.3-1.8c-2.6,4.9,17.8,10.6,17.9,10.7C49,372,65.7,375.6,71.5,367.1z M98.5,367.1c-4.2-6.2-3.9-10.8,1.9-16.5
	c5.8-5.8,9.1-14.2,9.1-14.2s1.2-4.9,4.1-4.4c2.9,0.4,4.9,7.7-1,12.2c-6,4.5,1.2,7.5,3.5,3.3c2.3-4.2,8.6-15,11.8-17
	c3.3-2.1,5.5-0.9,4.8,3.3c-0.4,2.1-3.9,5.7-7.2,9.1c-3.4,3.4-6.5,6.6-5.8,7.7c1.3,2.2,6-2.6,6-2.6s14.6-13.3,17.8-9.8
	c2.9,3.2-1.6,5.9-8.5,10.1c-0.6,0.4-1.2,0.7-1.8,1.1c-8,4.8-8.6,6.1-7.4,7.9c0.4,0.7,3.1-0.9,6.4-2.9c5.6-3.4,13-7.8,14-3.8
	c0.9,3.4-4.5,5.5-9.4,7.4c-4.1,1.6-7.8,3-7.3,5c0.6,2,3.7,0.3,7-1.5c3.8-2.1,8-4.4,9.3-1.8c2.6,4.9-17.8,10.6-17.9,10.7
	C121,372,104.3,375.6,98.5,367.1z"/>
<path class="st3" d="M101.8,299.4c0.8,0.3,1.4,1.2,2,2c0.8,1.1,1.5,2.2,2.7,1.6c1.3-0.7,2.4-1.8,3.1-3.1c0.7-1.3,1-2.8,0.9-4.3
	c-0.1-1.1-0.5-2.2-1-3.2c-0.6-1-1.4-1.8-2.3-2.4c-0.9-0.6-2-1-3.1-1.2c-1.1-0.2-2.3-0.1-3.3,0.2c-1.4,0.4-2.7,1.3-3.7,2.4
	c-1,1.2-1.6,2.6-1.7,4.1c-0.2,1.5,0.1,3,0.9,4.3c0.5,1,1.7,0.5,2.9,0C100.1,299.5,101.1,299.1,101.8,299.4z M65.9,299.4
	c-0.8,0.3-1.4,1.2-2,2c-0.8,1.1-1.5,2.2-2.7,1.6c-1-0.5-1.9-1.3-2.5-2.2c-0.7-0.9-1.1-1.9-1.4-3c-0.2-1.1-0.2-2.2,0.1-3.3
	c0.3-1.1,0.8-2.1,1.5-3c0.7-0.9,1.6-1.6,2.6-2.1c1-0.5,2.1-0.7,3.3-0.7c1.1,0,2.2,0.2,3.3,0.7c1,0.5,1.9,1.2,2.6,2
	c1,1.2,1.6,2.6,1.7,4.1c0.2,1.5-0.1,3-0.9,4.3c-0.5,1-1.7,0.5-2.9,0C67.7,299.5,66.7,299.1,65.9,299.4z M96.3,332.1
	c5.7-4.5,7.8-11.8,7.8-16.3c0-3.6-2.4-2.4-6.2-0.5l-0.2,0.1c-3.5,1.7-8.2,4.1-13.4,4.1c-5.1,0-9.8-2.3-13.4-4.1
	c-4-2-6.4-3.2-6.4,0.4c0,4.7,2.2,12.3,8.3,16.7c0.8-1.6,1.9-3.1,3.3-4.3c1.4-1.2,3-2.1,4.8-2.6c0.6-0.2,1.2,0.9,1.9,1.9
	c0.6,1,1.3,2.1,1.9,2.1c0.7,0,1.4-1,2-2.1c0.7-1.1,1.4-2.1,2-1.9C91.9,326.8,94.7,329.1,96.3,332.1z"/>
<path class="st4" d="M96.3,332.1c-3,2.3-6.9,3.9-12,3.9c-4.8,0-8.6-1.4-11.5-3.5c0.8-1.6,1.9-3.1,3.3-4.3c1.4-1.2,3-2.1,4.8-2.6
	c1.2-0.4,2.5,4,3.8,4c1.4,0,2.8-4.4,4-4C91.9,326.8,94.7,329.1,96.3,332.1z"/>
<path class="st5" d="M52.3,305.7c-0.5,0.4-1.1,0.6-1.8,0.7c-0.6,0.1-1.3,0.1-1.9,0c-0.6-0.1-1.2-0.4-1.8-0.7c-0.5-0.4-1-0.8-1.4-1.4
	c-0.4-0.5-0.6-1.2-0.7-1.8c-0.1-0.6-0.1-1.3,0-1.9c0.1-0.6,0.4-1.2,0.7-1.8c0.4-0.5,0.8-1,1.4-1.4c1.1-0.7,2.4-1,3.7-0.7
	s2.4,1,3.1,2.1c0.7,1.1,1,2.4,0.7,3.7C54.2,303.9,53.4,305,52.3,305.7z M123.2,305.7c-0.5,0.4-1.1,0.6-1.8,0.7
	c-0.6,0.1-1.3,0.1-1.9,0c-0.6-0.1-1.2-0.4-1.8-0.7c-0.5-0.4-1-0.8-1.4-1.4c-0.4-0.5-0.6-1.2-0.7-1.8c-0.1-0.6-0.1-1.3,0-1.9
	c0.1-0.6,0.4-1.2,0.7-1.8c0.4-0.5,0.8-1,1.4-1.4c1.1-0.7,2.4-1,3.7-0.7c1.3,0.3,2.4,1,3.1,2.1c0.7,1.1,1,2.4,0.7,3.7
	C125,303.9,124.3,305,123.2,305.7z"/>
</svg>
