<?xml version="1.0" encoding="utf-8"?>
<!-- Generator: Adobe Illustrator 19.0.0, SVG Export Plug-In . SVG Version: 6.00 Build 0)  -->
<svg version="1.1" id="Layer_1" xmlns="http://www.w3.org/2000/svg" xmlns:xlink="http://www.w3.org/1999/xlink" x="0px" y="0px"
	 viewBox="0 0 500 500" style="enable-background:new 0 0 500 500;" xml:space="preserve">
<style type="text/css">
	.st0{fill:#094AB1;}
</style>
<g id="text4313">
</g>
<g id="XMLID_26_">
	<path id="XMLID_28_" class="st0" d="M99,280.6c-6.3-1.6-9.9-6.6-9.9-14.1c0-2.4,0.2-3.5,0.8-5.1c1.5-3.8,5.3-6.6,10.4-7.7
		c2.5-0.5,3.3-1.1,3.3-2.4c0-0.4,0.3-1.6,0.7-2.7c1.7-4.9,4.8-8.9,8.1-10.6c3.5-1.7,5.2-2.1,9.4-2.1c6,0,8.9,1.3,13.1,5.7l2.3,2.4
		l2.1-0.7c9.9-3.4,19.8,2.4,20.6,12.2l0.2,2.7l2,0.7c5.6,2,8.2,6.2,7.7,12.4c-0.3,4-2.2,7.3-5.2,8.9l-1.4,0.8L132,281
		C108,281.1,100.3,281,99,280.6L99,280.6z"/>
	<path id="XMLID_32_" class="st0" d="M75.6,276.3c-3.7-0.9-7.6-4.2-9.5-7.9c-1-2.1-1.1-2.4-1.1-6.2c0-3.6,0.1-4.1,0.9-5.9
		c1.8-3.7,5.1-6.4,9.3-7.5c0.9-0.2,1.7-0.6,1.9-0.8c0.1-0.2,0.3-1.4,0.3-2.6c0.3-7.5,5.2-14.1,12.1-16.2c3.7-1.1,8.4-0.9,12.4,0.7
		c1.3,0.5,1.1,0.6,3.8-2.9c1.6-2.1,4.8-4.7,7.5-6c2.9-1.4,5.8-2.1,9.4-2.1c9.9,0,18.5,6.2,21.6,15.7c1,3,1,3.9-0.2,3.9
		c-0.5,0-2,0.3-3.3,0.6l-2.4,0.6l-2.2-2.2c-6.1-6.1-16-7.4-24.4-3.2c-3.4,1.7-6.1,4-8.1,7.2c-1.5,2.2-3.3,6.3-3.3,7.4
		c0,0.7-0.6,1.1-3.1,1.9c-7.8,2.6-12.3,8.5-12.3,16c0,2.7,0.7,6.1,1.7,8c0.4,0.7,0.6,1.4,0.5,1.5C86.6,276.7,76.9,276.6,75.6,276.3z
		"/>
	<path id="XMLID_35_" class="st0" d="M204.9,274.5c-6.1,0-11.1-2-14.7-6.1c-3.7-4-5.5-9.3-5.5-15.8c0-7,1.9-12.5,5.6-16.7
		c3.8-4.1,8.9-6.2,15.4-6.2c6,0,10.8,2,14.4,6c3.7,4,5.5,9.3,5.5,15.8c0,7.1-1.9,12.6-5.6,16.8C216.2,272.5,211.1,274.5,204.9,274.5
		z M205.2,234.4c-4.5,0-8.2,1.6-11.1,4.9c-2.8,3.3-4.3,7.6-4.3,12.9c0,5.3,1.4,9.6,4.2,12.9c2.8,3.3,6.4,4.9,10.8,4.9
		c4.7,0,8.5-1.5,11.2-4.6c2.7-3.1,4.1-7.4,4.1-13c0-5.7-1.3-10.1-4-13.3C213.6,235.9,209.9,234.4,205.2,234.4z"/>
	<path id="XMLID_36_" class="st0" d="M259,273.8h-5v-17.6c0-6.6-2.4-9.8-7.2-9.8c-2.5,0-4.5,0.9-6.1,2.8c-1.6,1.9-2.4,4.2-2.4,7
		v17.6h-5v-30.9h5v5.1h0.1c2.3-3.9,5.7-5.9,10.1-5.9c3.4,0,6,1.1,7.8,3.3c1.8,2.2,2.7,5.3,2.7,9.5V273.8z"/>
	<path id="XMLID_39_" class="st0" d="M293.2,259.6h-21.8c0.1,3.4,1,6.1,2.8,8c1.8,1.9,4.2,2.8,7.3,2.8c3.5,0,6.7-1.1,9.6-3.4v4.6
		c-2.7,2-6.3,3-10.8,3c-4.4,0-7.8-1.4-10.3-4.2s-3.7-6.8-3.7-11.8c0-4.8,1.4-8.7,4.1-11.8c2.7-3,6.1-4.5,10.2-4.5
		c4,0,7.2,1.3,9.4,3.9c2.2,2.6,3.3,6.2,3.3,10.9V259.6z M288.2,255.4c0-2.9-0.7-5.1-2.1-6.7c-1.4-1.6-3.2-2.4-5.7-2.4
		c-2.3,0-4.3,0.8-5.9,2.5c-1.6,1.7-2.6,3.9-3,6.6H288.2z"/>
	<path id="XMLID_43_" class="st0" d="M301.4,273.8v-43.3h12c15.3,0,22.9,7,22.9,21.1c0,6.7-2.1,12.1-6.4,16.1
		c-4.2,4.1-9.9,6.1-17,6.1H301.4z M306.5,235.1v34.1h6.5c5.7,0,10.1-1.5,13.3-4.6c3.2-3,4.7-7.3,4.7-12.9c0-11.1-5.9-16.6-17.7-16.6
		H306.5z"/>
	<path id="XMLID_44_" class="st0" d="M360.2,247.9c-0.9-0.7-2.1-1-3.7-1c-2.1,0-3.9,1-5.3,3c-1.4,2-2.1,4.7-2.1,8.2v15.8h-5v-30.9h5
		v6.4h0.1c0.7-2.2,1.8-3.9,3.2-5.1c1.4-1.2,3.1-1.8,4.9-1.8c1.3,0,2.3,0.1,3,0.4V247.9z"/>
	<path id="XMLID_50_" class="st0" d="M368.1,235c-0.9,0-1.6-0.3-2.3-0.9s-0.9-1.4-0.9-2.3c0-0.9,0.3-1.7,0.9-2.3
		c0.6-0.6,1.4-0.9,2.3-0.9c0.9,0,1.7,0.3,2.3,0.9c0.6,0.6,1,1.4,1,2.3c0,0.9-0.3,1.6-1,2.3C369.8,234.7,369,235,368.1,235z
		 M370.5,273.8h-5v-30.9h5V273.8z"/>
	<path id="XMLID_51_" class="st0" d="M404.9,242.9l-12.3,30.9h-4.9L376,242.9h5.4l7.8,22.5c0.6,1.7,0.9,3.1,1.1,4.3h0.1
		c0.2-1.5,0.5-2.9,1-4.2l8.2-22.6H404.9z"/>
	<path id="XMLID_58_" class="st0" d="M435,259.6h-21.8c0.1,3.4,1,6.1,2.8,8c1.8,1.9,4.2,2.8,7.3,2.8c3.5,0,6.7-1.1,9.6-3.4v4.6
		c-2.7,2-6.3,3-10.8,3c-4.4,0-7.8-1.4-10.3-4.2s-3.7-6.8-3.7-11.8c0-4.8,1.4-8.7,4.1-11.8c2.7-3,6.1-4.5,10.2-4.5
		c4,0,7.2,1.3,9.4,3.9c2.2,2.6,3.3,6.2,3.3,10.9V259.6z M429.9,255.4c0-2.9-0.7-5.1-2.1-6.7c-1.4-1.6-3.2-2.4-5.7-2.4
		c-2.3,0-4.3,0.8-5.9,2.5c-1.6,1.7-2.6,3.9-3,6.6H429.9z"/>
</g>
</svg>
