<svg id="20ec2904-1cb9-4be9-b35d-62f9fc36e33f" data-name="Layer 1" xmlns="http://www.w3.org/2000/svg" viewBox="0 0 48 24"><title>opensource-logo</title><path d="M7,11.44h.46l.13.5h0a1.2,1.2,0,0,1,.5-.45,1.52,1.52,0,0,1,.69-.15,1.52,1.52,0,0,1,1.25.49,2.55,2.55,0,0,1,.41,1.61,3.11,3.11,0,0,1-.14,1,2.08,2.08,0,0,1-.39.72,1.79,1.79,0,0,1-.6.45,1.86,1.86,0,0,1-.79.16,2.13,2.13,0,0,1-.49,0,1.78,1.78,0,0,1-.39-.13v1.74H7Zm1.69.48a1,1,0,0,0-.67.22,1.22,1.22,0,0,0-.35.68v2.07a1,1,0,0,0,.34.18,1.78,1.78,0,0,0,.51.06,1.1,1.1,0,0,0,.92-.43,2.07,2.07,0,0,0,.34-1.27,3,3,0,0,0-.06-.62,1.33,1.33,0,0,0-.19-.47A.89.89,0,0,0,9.2,12,1.13,1.13,0,0,0,8.69,11.92Z" style="fill:#0e2a49"/><path d="M13.5,12.08A1.42,1.42,0,0,0,13,12a.8.8,0,0,0-.57.19.9.9,0,0,0-.26.5v2.93h-.67V11.44H12l.13.51h0a1.28,1.28,0,0,1,.38-.44.94.94,0,0,1,.57-.16,1.9,1.9,0,0,1,.54.09Z" style="fill:#0e2a49"/><path d="M17.42,15.28a1.87,1.87,0,0,1-.63.32,2.64,2.64,0,0,1-.81.12,2,2,0,0,1-.83-.16,1.46,1.46,0,0,1-.57-.44,2,2,0,0,1-.34-.69,3.58,3.58,0,0,1-.11-.9,2.42,2.42,0,0,1,.48-1.63A1.67,1.67,0,0,1,16,11.34a2.76,2.76,0,0,1,.57.06,1.2,1.2,0,0,1,.51.24,1.18,1.18,0,0,1,.37.49,2.07,2.07,0,0,1,.14.85,3.34,3.34,0,0,1,0,.61H14.83a2.62,2.62,0,0,0,.07.66,1.21,1.21,0,0,0,.24.48,1,1,0,0,0,.41.3,1.82,1.82,0,0,0,1.19,0,1.08,1.08,0,0,0,.43-.23ZM16,11.92a1.17,1.17,0,0,0-.79.26,1.29,1.29,0,0,0-.35.89h2.07a1.28,1.28,0,0,0-.24-.89A.9.9,0,0,0,16,11.92Z" style="fill:#0e2a49"/><path d="M20.46,14.48a.5.5,0,0,0-.15-.39,1.12,1.12,0,0,0-.38-.24,3.69,3.69,0,0,0-.48-.19,2,2,0,0,1-.49-.22,1.27,1.27,0,0,1-.37-.36,1,1,0,0,1-.15-.58,1.09,1.09,0,0,1,.34-.88,1.46,1.46,0,0,1,1-.28,2.69,2.69,0,0,1,.75.08,2.84,2.84,0,0,1,.54.18l-.16.56A2.32,2.32,0,0,0,20.4,12a2.15,2.15,0,0,0-.58-.07.9.9,0,0,0-.54.13.51.51,0,0,0-.17.43.41.41,0,0,0,.15.34,2.13,2.13,0,0,0,.37.22l.49.19a2,2,0,0,1,.48.24,1.37,1.37,0,0,1,.38.38,1.08,1.08,0,0,1,.15.61A1.43,1.43,0,0,1,21,15a1.09,1.09,0,0,1-.27.4,1.38,1.38,0,0,1-.46.26,1.76,1.76,0,0,1-.64.1,3.12,3.12,0,0,1-.81-.09,3.44,3.44,0,0,1-.56-.22l.2-.57a2.73,2.73,0,0,0,.5.2,2.28,2.28,0,0,0,.63.09,1.05,1.05,0,0,0,.59-.14A.53.53,0,0,0,20.46,14.48Z" style="fill:#0e2a49"/><path d="M21.59,11.44h.65v-.83l.67-.19v1h1.14V12H22.91v2.32A1.16,1.16,0,0,0,23,15a.38.38,0,0,0,.36.18,1.31,1.31,0,0,0,.37,0l.34-.12.15.51a2.45,2.45,0,0,1-.5.17,2.07,2.07,0,0,1-.57.07.84.84,0,0,1-.72-.29,1.68,1.68,0,0,1-.21-1V12h-.65Z" style="fill:#0e2a49"/><path d="M24.65,13.53a2.46,2.46,0,0,1,.47-1.63,1.67,1.67,0,0,1,1.36-.56,2,2,0,0,1,.81.15,1.42,1.42,0,0,1,.58.44,2,2,0,0,1,.33.7,3.58,3.58,0,0,1,.11.9,2.46,2.46,0,0,1-.47,1.62,1.68,1.68,0,0,1-1.36.57,1.94,1.94,0,0,1-.82-.16,1.46,1.46,0,0,1-.57-.44,1.85,1.85,0,0,1-.33-.69A3.17,3.17,0,0,1,24.65,13.53Zm.69,0a3.08,3.08,0,0,0,.06.61,1.94,1.94,0,0,0,.2.51A1.17,1.17,0,0,0,26,15a1,1,0,0,0,.53.13c.76,0,1.14-.53,1.14-1.6a2.45,2.45,0,0,0-.07-.62,1.46,1.46,0,0,0-.19-.51,1.06,1.06,0,0,0-.35-.35,1,1,0,0,0-.53-.13C25.72,11.92,25.34,12.45,25.34,13.53Z" style="fill:#0e2a49"/><circle cx="37.6" cy="14.03" r="0.67" style="fill:#0e2a49"/><circle cx="36.26" cy="12.68" r="0.63" style="fill:#0e2a49"/><circle cx="34.89" cy="11.3" r="0.56" style="fill:#0e2a49"/><circle cx="33.51" cy="9.95" r="0.52" style="fill:#0e2a49"/><circle cx="33.51" cy="12.66" r="0.45" style="fill:#3dddf7"/><circle cx="34.89" cy="14.03" r="0.45" style="fill:#3dddf7"/><circle cx="32.14" cy="14.02" r="0.45" style="fill:#3dddf7"/><circle cx="30.77" cy="15.39" r="0.45" style="fill:#3dddf7"/><circle cx="33.51" cy="15.38" r="0.45" style="fill:#3dddf7"/><circle cx="36.26" cy="15.39" r="0.45" style="fill:#3dddf7"/><circle cx="32.14" cy="8.56" r="0.48" style="fill:#0e2a49"/><circle cx="38.96" cy="12.66" r="0.67" style="fill:#5b99f9"/><circle cx="37.62" cy="11.31" r="0.63" style="fill:#5b99f9"/><circle cx="36.25" cy="9.93" r="0.56" style="fill:#5b99f9"/><circle cx="34.88" cy="8.58" r="0.52" style="fill:#5b99f9"/><circle cx="33.5" cy="7.19" r="0.48" style="fill:#5b99f9"/><circle cx="40.33" cy="11.31" r="0.67" style="fill:#3dddf7"/><circle cx="38.98" cy="9.96" r="0.63" style="fill:#3dddf7"/><circle cx="37.61" cy="8.58" r="0.56" style="fill:#3dddf7"/><circle cx="36.24" cy="7.23" r="0.52" style="fill:#3dddf7"/><circle cx="30.75" cy="7.18" r="0.39" style="fill:#0e2a49"/></svg>