<svg xmlns="http://www.w3.org/2000/svg" xmlns:xlink="http://www.w3.org/1999/xlink" viewBox="0 0 74.593 41.182"><defs><style>.cls-1{fill:none;}.cls-2{isolation:isolate;}.cls-3{fill:#db4437;}.cls-4{fill:url(#linear-gradient);}.cls-5{fill:#ffc107;}.cls-6{fill:url(#linear-gradient-2);}.cls-7{mix-blend-mode:multiply;}.cls-8{clip-path:url(#clip-path);}.cls-9{fill:#94d4ff;}.cls-10{fill:#95d4ff;}.cls-11{fill:#96d5ff;}.cls-12{fill:#97d5ff;}.cls-13{fill:#98d6ff;}.cls-14{fill:#99d6ff;}.cls-15{fill:#9ad6ff;}.cls-16{fill:#9bd7ff;}.cls-17{fill:#9cd7ff;}.cls-18{fill:#9dd8ff;}.cls-19{fill:#9ed8ff;}.cls-20{fill:#9fd8ff;}.cls-21{fill:#a0d9ff;}.cls-22{fill:#a1d9ff;}.cls-23{fill:#a2daff;}.cls-24{fill:#a3daff;}.cls-25{fill:#a4daff;}.cls-26{fill:#a5dbff;}.cls-27{fill:#a6dbff;}.cls-28{fill:#a7dcff;}.cls-29{fill:#a8dcff;}.cls-30{fill:#a9ddff;}.cls-31{fill:#adf;}.cls-32{fill:#abddff;}.cls-33{fill:#acdeff;}.cls-34{fill:#addeff;}.cls-35{fill:#aedfff;}.cls-36{fill:#afdfff;}.cls-37{fill:#b0dfff;}.cls-38{fill:#b1e0ff;}.cls-39{fill:#b2e0ff;}.cls-40{fill:#b3e1ff;}.cls-41{fill:#b4e1ff;}.cls-42{fill:#b5e1ff;}.cls-43{fill:#b6e2ff;}.cls-44{fill:#b7e2ff;}.cls-45{fill:#b8e3ff;}.cls-46{fill:#b9e3ff;}.cls-47{fill:#bae3ff;}.cls-48{fill:#bbe4ff;}.cls-49{fill:#bce4ff;}.cls-50{fill:#bde5ff;}.cls-51{fill:#bee5ff;}.cls-52{fill:#bfe5ff;}.cls-53{fill:#c0e6ff;}.cls-54{fill:#c1e6ff;}.cls-55{fill:#c2e7ff;}.cls-56{fill:#c3e7ff;}.cls-57{fill:#c4e7ff;}.cls-58{fill:#c5e8ff;}.cls-59{fill:#c6e8ff;}.cls-60{fill:#c7e9ff;}.cls-61{fill:#c8e9ff;}.cls-62{fill:#caeaff;}.cls-63{fill:#cbeaff;}.cls-64{fill:#cceaff;}.cls-65{fill:#cdebff;}.cls-66{fill:#ceebff;}.cls-67{fill:#cfecff;}.cls-68{fill:#d0ecff;}.cls-69{fill:#d1ecff;}.cls-70{fill:#d2edff;}.cls-71{fill:#d3edff;}.cls-72{fill:#d4eeff;}.cls-73{fill:#d5eeff;}.cls-74{fill:#d6eeff;}.cls-75{fill:#d7efff;}.cls-76{fill:#d8efff;}.cls-77{fill:#d9f0ff;}.cls-78{fill:#daf0ff;}.cls-79{fill:#dbf0ff;}.cls-80{fill:#dcf1ff;}.cls-81{fill:#ddf1ff;}.cls-82{fill:#def2ff;}.cls-83{fill:#dff2ff;}.cls-84{fill:#e0f2ff;}.cls-85{fill:#e1f3ff;}.cls-86{fill:#e2f3ff;}.cls-87{fill:#e3f4ff;}.cls-88{fill:#e4f4ff;}.cls-89{fill:#e5f4ff;}.cls-90{fill:#e6f5ff;}.cls-91{fill:#e7f5ff;}.cls-92{fill:#e8f6ff;}.cls-93{fill:#e9f6ff;}.cls-94{fill:#eaf6ff;}.cls-95{fill:#ebf7ff;}.cls-96{fill:#ecf7ff;}.cls-97{fill:#edf8ff;}.cls-98{fill:#eef8ff;}.cls-99{fill:#eff9ff;}.cls-100{fill:#f0f9ff;}.cls-101{fill:#f1f9ff;}.cls-102{fill:#f2faff;}.cls-103{fill:#f3faff;}.cls-104{fill:#f4fbff;}.cls-105{fill:#f5fbff;}.cls-106{fill:#f6fbff;}.cls-107{fill:#f7fcff;}.cls-108{fill:#f8fcff;}.cls-109{fill:#f9fdff;}.cls-110{fill:#fafdff;}.cls-111{fill:#fbfdff;}.cls-112{fill:#fcfeff;}.cls-113{fill:#fdfeff;}.cls-114{fill:#feffff;}.cls-115{fill:#fff;}.cls-116{fill:#4285f4;}.cls-117{fill:url(#linear-gradient-3);}.cls-118{clip-path:url(#clip-path-2);}.cls-119{fill:#ffb455;}.cls-120{fill:#ffb456;}.cls-121{fill:#ffb557;}.cls-122{fill:#ffb558;}.cls-123{fill:#ffb659;}.cls-124{fill:#ffb65a;}.cls-125{fill:#ffb75b;}.cls-126{fill:#ffb75c;}.cls-127{fill:#ffb85d;}.cls-128{fill:#ffb85e;}.cls-129{fill:#ffb85f;}.cls-130{fill:#ffb960;}.cls-131{fill:#ffb961;}.cls-132{fill:#ffba62;}.cls-133{fill:#ffba63;}.cls-134{fill:#ffbb64;}.cls-135{fill:#ffbb65;}.cls-136{fill:#ffbc66;}.cls-137{fill:#ffbc67;}.cls-138{fill:#ffbc68;}.cls-139{fill:#ffbd69;}.cls-140{fill:#ffbd6a;}.cls-141{fill:#ffbe6b;}.cls-142{fill:#ffbe6c;}.cls-143{fill:#ffbf6d;}.cls-144{fill:#ffbf6e;}.cls-145{fill:#ffc06f;}.cls-146{fill:#ffc070;}.cls-147{fill:#ffc071;}.cls-148{fill:#ffc172;}.cls-149{fill:#ffc173;}.cls-150{fill:#ffc274;}.cls-151{fill:#ffc275;}.cls-152{fill:#ffc376;}.cls-153{fill:#ffc377;}.cls-154{fill:#ffc478;}.cls-155{fill:#ffc479;}.cls-156{fill:#ffc47a;}.cls-157{fill:#ffc57b;}.cls-158{fill:#ffc57c;}.cls-159{fill:#ffc67d;}.cls-160{fill:#ffc67e;}.cls-161{fill:#ffc77f;}.cls-162{fill:#ffc780;}.cls-163{fill:#ffc881;}.cls-164{fill:#ffc882;}.cls-165{fill:#ffc883;}.cls-166{fill:#ffc984;}.cls-167{fill:#ffc985;}.cls-168{fill:#ffca86;}.cls-169{fill:#ffca87;}.cls-170{fill:#ffcb88;}.cls-171{fill:#ffcb89;}.cls-172{fill:#ffcc8a;}.cls-173{fill:#ffcc8b;}.cls-174{fill:#ffcc8c;}.cls-175{fill:#ffcd8d;}.cls-176{fill:#ffcd8e;}.cls-177{fill:#ffce8f;}.cls-178{fill:#ffce90;}.cls-179{fill:#ffcf91;}.cls-180{fill:#ffcf92;}.cls-181{fill:#ffd093;}.cls-182{fill:#ffd094;}.cls-183{fill:#ffd095;}.cls-184{fill:#ffd196;}.cls-185{fill:#ffd197;}.cls-186{fill:#ffd298;}.cls-187{fill:#ffd299;}.cls-188{fill:#ffd39a;}.cls-189{fill:#ffd39b;}.cls-190{fill:#ffd49c;}.cls-191{fill:#ffd49d;}.cls-192{fill:#ffd49e;}.cls-193{fill:#ffd59f;}.cls-194{fill:#ffd5a0;}.cls-195{fill:#ffd6a1;}.cls-196{fill:#ffd6a2;}.cls-197{fill:#ffd7a3;}.cls-198{fill:#ffd7a4;}.cls-199{fill:#ffd8a5;}.cls-200{fill:#ffd8a6;}.cls-201{fill:#ffd8a7;}.cls-202{fill:#ffd9a8;}.cls-203{fill:#ffd9a9;}.cls-204{fill:#ffdaab;}.cls-205{fill:#ffdaac;}.cls-206{fill:#ffdbad;}.cls-207{fill:#ffdbae;}.cls-208{fill:#ffdbaf;}.cls-209{fill:#ffdcb0;}.cls-210{fill:#ffdcb1;}.cls-211{fill:#ffddb2;}.cls-212{fill:#ffddb3;}.cls-213{fill:#ffdeb4;}.cls-214{fill:#ffdeb5;}.cls-215{fill:#ffdfb6;}.cls-216{fill:#ffdfb7;}.cls-217{fill:#ffdfb8;}.cls-218{fill:#ffe0b9;}.cls-219{fill:#ffe0ba;}.cls-220{fill:#ffe1bb;}.cls-221{fill:#ffe1bc;}.cls-222{fill:#ffe2bd;}.cls-223{fill:#ffe2be;}.cls-224{fill:#ffe3bf;}.cls-225{fill:#ffe3c0;}.cls-226{fill:#ffe3c1;}.cls-227{fill:#ffe4c2;}.cls-228{fill:#ffe4c3;}.cls-229{fill:#ffe5c4;}.cls-230{fill:#ffe5c5;}.cls-231{fill:#ffe6c6;}.cls-232{fill:#ffe6c7;}.cls-233{fill:#ffe7c8;}.cls-234{fill:#ffe7c9;}.cls-235{fill:#ffe7ca;}.cls-236{fill:#ffe8cb;}.cls-237{fill:#ffe8cc;}.cls-238{fill:#ffe9cd;}.cls-239{fill:#ffe9ce;}.cls-240{fill:#ffeacf;}.cls-241{fill:#ffead0;}.cls-242{fill:#ffebd1;}.cls-243{fill:#ffebd2;}.cls-244{fill:#ffebd3;}.cls-245{fill:#ffecd4;}.cls-246{fill:#ffecd5;}.cls-247{fill:#ffedd6;}.cls-248{fill:#ffedd7;}.cls-249{fill:#ffeed8;}.cls-250{fill:#ffeed9;}.cls-251{fill:#ffefda;}.cls-252{fill:#ffefdb;}.cls-253{fill:#ffefdc;}.cls-254{fill:#fff0dd;}.cls-255{fill:#fff0de;}.cls-256{fill:#fff1df;}.cls-257{fill:#fff1e0;}.cls-258{fill:#fff2e1;}.cls-259{fill:#fff2e2;}.cls-260{fill:#fff3e3;}.cls-261{fill:#fff3e4;}.cls-262{fill:#fff3e5;}.cls-263{fill:#fff4e6;}.cls-264{fill:#fff4e7;}.cls-265{fill:#fff5e8;}.cls-266{fill:#fff5e9;}.cls-267{fill:#fff6ea;}.cls-268{fill:#fff6eb;}.cls-269{fill:#fff7ec;}.cls-270{fill:#fff7ed;}.cls-271{fill:#fff7ee;}.cls-272{fill:#fff8ef;}.cls-273{fill:#fff8f0;}.cls-274{fill:#fff9f1;}.cls-275{fill:#fff9f2;}.cls-276{fill:#fffaf3;}.cls-277{fill:#fffaf4;}.cls-278{fill:#fffbf5;}.cls-279{fill:#fffbf6;}.cls-280{fill:#fffbf7;}.cls-281{fill:#fffcf8;}.cls-282{fill:#fffcf9;}.cls-283{fill:#fffdfa;}.cls-284{fill:#fffdfb;}.cls-285{fill:#fffefc;}.cls-286{fill:#fffefd;}.cls-287{fill:#fffffe;}.cls-288{fill:#0f9d58;}.cls-289{fill:url(#linear-gradient-4);}</style><linearGradient id="linear-gradient" x1="25.933" y1="17.262" x2="15.751" y2="-0.374" gradientUnits="userSpaceOnUse"><stop offset="0" stop-color="#af2019"/><stop offset="1" stop-color="#e2635d"/></linearGradient><linearGradient id="linear-gradient-2" x1="41.567" y1="29.446" x2="68.429" y2="29.446" gradientUnits="userSpaceOnUse"><stop offset="0.097" stop-color="#ffc107"/><stop offset="1" stop-color="#c68f05"/></linearGradient><clipPath id="clip-path"><polygon class="cls-1" points="8.305 9.003 19.619 17.215 16.553 21.266 8.305 9.003"/></clipPath><linearGradient id="linear-gradient-3" x1="11.533" y1="39.031" x2="23.822" y2="17.747" gradientUnits="userSpaceOnUse"><stop offset="0.008" stop-color="#185bc6"/><stop offset="0.596" stop-color="#3e74d1"/><stop offset="0.997" stop-color="#6e92e0"/></linearGradient><clipPath id="clip-path-2"><polygon class="cls-1" points="66.389 32.325 55.075 24.113 58.141 20.062 66.389 32.325"/></clipPath><linearGradient id="linear-gradient-4" x1="51.7" y1="17.582" x2="67.995" y2="8.174" gradientUnits="userSpaceOnUse"><stop offset="0" stop-color="#147643"/><stop offset="1" stop-color="#40ae70"/></linearGradient></defs><g class="cls-2"><g id="Layer_1" data-name="Layer 1"><polygon class="cls-3" points="15.151 0.098 32.861 0.098 15.182 23.31 5.969 12.069 15.151 0.098"/><path class="cls-4" d="M15.184,23.468l-9.34-11.4L15.1,0H33.059Zm-9.09-11.4,9.085,11.085L32.663.2H15.2Z"/><polygon class="cls-5" points="59.475 41.084 41.765 41.084 59.445 17.872 68.305 29.587 59.475 41.084"/><path class="cls-6" d="M59.523,41.182H41.567L59.445,17.71l8.984,11.878Zm-17.56-.2H59.427l8.755-11.4L59.444,18.034Z"/><g class="cls-7"><g class="cls-8"><rect class="cls-9" x="8.305" y="9.003" width="0.085" height="12.263"/><rect class="cls-9" x="8.39" y="9.003" width="0.105" height="12.263"/><rect class="cls-10" x="8.495" y="9.003" width="0.105" height="12.263"/><rect class="cls-11" x="8.6" y="9.003" width="0.105" height="12.263"/><rect class="cls-12" x="8.704" y="9.003" width="0.105" height="12.263"/><rect class="cls-13" x="8.809" y="9.003" width="0.105" height="12.263"/><rect class="cls-14" x="8.913" y="9.003" width="0.105" height="12.263"/><rect class="cls-15" x="9.018" y="9.003" width="0.105" height="12.263"/><rect class="cls-16" x="9.122" y="9.003" width="0.105" height="12.263"/><rect class="cls-17" x="9.227" y="9.003" width="0.105" height="12.263"/><rect class="cls-18" x="9.332" y="9.003" width="0.105" height="12.263"/><rect class="cls-19" x="9.436" y="9.003" width="0.105" height="12.263"/><rect class="cls-20" x="9.541" y="9.003" width="0.105" height="12.263"/><rect class="cls-21" x="9.645" y="9.003" width="0.105" height="12.263"/><rect class="cls-22" x="9.75" y="9.003" width="0.105" height="12.263"/><rect class="cls-23" x="9.855" y="9.003" width="0.105" height="12.263"/><rect class="cls-24" x="9.959" y="9.003" width="0.105" height="12.263"/><rect class="cls-25" x="10.064" y="9.003" width="0.105" height="12.263"/><rect class="cls-26" x="10.168" y="9.003" width="0.105" height="12.263"/><rect class="cls-27" x="10.273" y="9.003" width="0.105" height="12.263"/><rect class="cls-28" x="10.377" y="9.003" width="0.105" height="12.263"/><rect class="cls-29" x="10.482" y="9.003" width="0.105" height="12.263"/><rect class="cls-30" x="10.587" y="9.003" width="0.105" height="12.263"/><rect class="cls-31" x="10.691" y="9.003" width="0.105" height="12.263"/><rect class="cls-32" x="10.796" y="9.003" width="0.105" height="12.263"/><rect class="cls-33" x="10.9" y="9.003" width="0.105" height="12.263"/><rect class="cls-34" x="11.005" y="9.003" width="0.105" height="12.263"/><rect class="cls-35" x="11.11" y="9.003" width="0.105" height="12.263"/><rect class="cls-36" x="11.214" y="9.003" width="0.105" height="12.263"/><rect class="cls-37" x="11.319" y="9.003" width="0.105" height="12.263"/><rect class="cls-38" x="11.423" y="9.003" width="0.105" height="12.263"/><rect class="cls-39" x="11.528" y="9.003" width="0.105" height="12.263"/><rect class="cls-40" x="11.633" y="9.003" width="0.105" height="12.263"/><rect class="cls-41" x="11.737" y="9.003" width="0.105" height="12.263"/><rect class="cls-42" x="11.842" y="9.003" width="0.105" height="12.263"/><rect class="cls-43" x="11.946" y="9.003" width="0.105" height="12.263"/><rect class="cls-44" x="12.051" y="9.003" width="0.105" height="12.263"/><rect class="cls-45" x="12.155" y="9.003" width="0.105" height="12.263"/><rect class="cls-46" x="12.26" y="9.003" width="0.105" height="12.263"/><rect class="cls-47" x="12.365" y="9.003" width="0.105" height="12.263"/><rect class="cls-48" x="12.469" y="9.003" width="0.105" height="12.263"/><rect class="cls-49" x="12.574" y="9.003" width="0.105" height="12.263"/><rect class="cls-50" x="12.678" y="9.003" width="0.105" height="12.263"/><rect class="cls-51" x="12.783" y="9.003" width="0.105" height="12.263"/><rect class="cls-52" x="12.888" y="9.003" width="0.105" height="12.263"/><rect class="cls-53" x="12.992" y="9.003" width="0.105" height="12.263"/><rect class="cls-54" x="13.097" y="9.003" width="0.105" height="12.263"/><rect class="cls-55" x="13.201" y="9.003" width="0.105" height="12.263"/><rect class="cls-56" x="13.306" y="9.003" width="0.105" height="12.263"/><rect class="cls-57" x="13.41" y="9.003" width="0.105" height="12.263"/><rect class="cls-58" x="13.515" y="9.003" width="0.105" height="12.263"/><rect class="cls-59" x="13.62" y="9.003" width="0.105" height="12.263"/><rect class="cls-60" x="13.724" y="9.003" width="0.105" height="12.263"/><rect class="cls-61" x="13.829" y="9.003" width="0.105" height="12.263"/><rect class="cls-62" x="13.933" y="9.003" width="0.105" height="12.263"/><rect class="cls-63" x="14.038" y="9.003" width="0.105" height="12.263"/><rect class="cls-64" x="14.143" y="9.003" width="0.105" height="12.263"/><rect class="cls-65" x="14.247" y="9.003" width="0.105" height="12.263"/><rect class="cls-66" x="14.352" y="9.003" width="0.105" height="12.263"/><rect class="cls-67" x="14.456" y="9.003" width="0.105" height="12.263"/><rect class="cls-68" x="14.561" y="9.003" width="0.105" height="12.263"/><rect class="cls-69" x="14.666" y="9.003" width="0.105" height="12.263"/><rect class="cls-70" x="14.77" y="9.003" width="0.105" height="12.263"/><rect class="cls-71" x="14.875" y="9.003" width="0.105" height="12.263"/><rect class="cls-72" x="14.979" y="9.003" width="0.105" height="12.263"/><rect class="cls-73" x="15.084" y="9.003" width="0.105" height="12.263"/><rect class="cls-74" x="15.188" y="9.003" width="0.105" height="12.263"/><rect class="cls-75" x="15.293" y="9.003" width="0.105" height="12.263"/><rect class="cls-76" x="15.398" y="9.003" width="0.105" height="12.263"/><rect class="cls-77" x="15.502" y="9.003" width="0.105" height="12.263"/><rect class="cls-78" x="15.607" y="9.003" width="0.105" height="12.263"/><rect class="cls-79" x="15.711" y="9.003" width="0.105" height="12.263"/><rect class="cls-80" x="15.816" y="9.003" width="0.105" height="12.263"/><rect class="cls-81" x="15.921" y="9.003" width="0.105" height="12.263"/><rect class="cls-82" x="16.025" y="9.003" width="0.105" height="12.263"/><rect class="cls-83" x="16.13" y="9.003" width="0.105" height="12.263"/><rect class="cls-84" x="16.234" y="9.003" width="0.105" height="12.263"/><rect class="cls-85" x="16.339" y="9.003" width="0.105" height="12.263"/><rect class="cls-86" x="16.443" y="9.003" width="0.105" height="12.263"/><rect class="cls-87" x="16.548" y="9.003" width="0.105" height="12.263"/><rect class="cls-88" x="16.653" y="9.003" width="0.105" height="12.263"/><rect class="cls-89" x="16.757" y="9.003" width="0.105" height="12.263"/><rect class="cls-90" x="16.862" y="9.003" width="0.105" height="12.263"/><rect class="cls-91" x="16.966" y="9.003" width="0.105" height="12.263"/><rect class="cls-92" x="17.071" y="9.003" width="0.105" height="12.263"/><rect class="cls-93" x="17.176" y="9.003" width="0.105" height="12.263"/><rect class="cls-94" x="17.28" y="9.003" width="0.105" height="12.263"/><rect class="cls-95" x="17.385" y="9.003" width="0.105" height="12.263"/><rect class="cls-96" x="17.489" y="9.003" width="0.105" height="12.263"/><rect class="cls-97" x="17.594" y="9.003" width="0.105" height="12.263"/><rect class="cls-98" x="17.699" y="9.003" width="0.105" height="12.263"/><rect class="cls-99" x="17.803" y="9.003" width="0.105" height="12.263"/><rect class="cls-100" x="17.908" y="9.003" width="0.105" height="12.263"/><rect class="cls-101" x="18.012" y="9.003" width="0.105" height="12.263"/><rect class="cls-102" x="18.117" y="9.003" width="0.105" height="12.263"/><rect class="cls-103" x="18.221" y="9.003" width="0.105" height="12.263"/><rect class="cls-104" x="18.326" y="9.003" width="0.105" height="12.263"/><rect class="cls-105" x="18.431" y="9.003" width="0.105" height="12.263"/><rect class="cls-106" x="18.535" y="9.003" width="0.105" height="12.263"/><rect class="cls-107" x="18.64" y="9.003" width="0.105" height="12.263"/><rect class="cls-108" x="18.744" y="9.003" width="0.105" height="12.263"/><rect class="cls-109" x="18.849" y="9.003" width="0.105" height="12.263"/><rect class="cls-110" x="18.954" y="9.003" width="0.105" height="12.263"/><rect class="cls-111" x="19.058" y="9.003" width="0.105" height="12.263"/><rect class="cls-112" x="19.163" y="9.003" width="0.105" height="12.263"/><rect class="cls-113" x="19.267" y="9.003" width="0.105" height="12.263"/><rect class="cls-114" x="19.372" y="9.003" width="0.105" height="12.263"/><rect class="cls-115" x="19.476" y="9.003" width="0.105" height="12.263"/><rect class="cls-115" x="19.581" y="9.003" width="0.038" height="12.263"/></g></g><path class="cls-116" d="M15.063,40.9h17.71L8.305,9,.82,18.661A3.285,3.285,0,0,0,.829,22.7Z"/><path class="cls-117" d="M33.038,41.032H15L.726,22.777a3.411,3.411,0,0,1-.009-4.2L8.306,8.789l.1.135Zm-17.911-.261H32.508L8.305,9.217.923,18.741a3.151,3.151,0,0,0,.009,3.875Z"/><g class="cls-7"><g class="cls-118"><rect class="cls-119" x="66.304" y="20.062" width="0.085" height="12.263"/><rect class="cls-119" x="66.238" y="20.062" width="0.066" height="12.263"/><rect class="cls-120" x="66.172" y="20.062" width="0.066" height="12.263"/><rect class="cls-121" x="66.107" y="20.062" width="0.066" height="12.263"/><rect class="cls-122" x="66.041" y="20.062" width="0.066" height="12.263"/><rect class="cls-123" x="65.975" y="20.062" width="0.066" height="12.263"/><rect class="cls-124" x="65.909" y="20.062" width="0.066" height="12.263"/><rect class="cls-125" x="65.843" y="20.062" width="0.066" height="12.263"/><rect class="cls-126" x="65.777" y="20.062" width="0.066" height="12.263"/><rect class="cls-127" x="65.712" y="20.062" width="0.066" height="12.263"/><rect class="cls-128" x="65.646" y="20.062" width="0.066" height="12.263"/><rect class="cls-129" x="65.58" y="20.062" width="0.066" height="12.263"/><rect class="cls-130" x="65.514" y="20.062" width="0.066" height="12.263"/><rect class="cls-131" x="65.448" y="20.062" width="0.066" height="12.263"/><rect class="cls-132" x="65.382" y="20.062" width="0.066" height="12.263"/><rect class="cls-133" x="65.317" y="20.062" width="0.066" height="12.263"/><rect class="cls-134" x="65.251" y="20.062" width="0.066" height="12.263"/><rect class="cls-135" x="65.185" y="20.062" width="0.066" height="12.263"/><rect class="cls-136" x="65.119" y="20.062" width="0.066" height="12.263"/><rect class="cls-137" x="65.053" y="20.062" width="0.066" height="12.263"/><rect class="cls-138" x="64.987" y="20.062" width="0.066" height="12.263"/><rect class="cls-139" x="64.922" y="20.062" width="0.066" height="12.263"/><rect class="cls-140" x="64.856" y="20.062" width="0.066" height="12.263"/><rect class="cls-141" x="64.79" y="20.062" width="0.066" height="12.263"/><rect class="cls-142" x="64.724" y="20.062" width="0.066" height="12.263"/><rect class="cls-143" x="64.658" y="20.062" width="0.066" height="12.263"/><rect class="cls-144" x="64.592" y="20.062" width="0.066" height="12.263"/><rect class="cls-145" x="64.527" y="20.062" width="0.066" height="12.263"/><rect class="cls-146" x="64.461" y="20.062" width="0.066" height="12.263"/><rect class="cls-147" x="64.395" y="20.062" width="0.066" height="12.263"/><rect class="cls-148" x="64.329" y="20.062" width="0.066" height="12.263"/><rect class="cls-149" x="64.263" y="20.062" width="0.066" height="12.263"/><rect class="cls-150" x="64.198" y="20.062" width="0.066" height="12.263"/><rect class="cls-151" x="64.132" y="20.062" width="0.066" height="12.263"/><rect class="cls-152" x="64.066" y="20.062" width="0.066" height="12.263"/><rect class="cls-153" x="64" y="20.062" width="0.066" height="12.263"/><rect class="cls-154" x="63.934" y="20.062" width="0.066" height="12.263"/><rect class="cls-155" x="63.868" y="20.062" width="0.066" height="12.263"/><rect class="cls-156" x="63.803" y="20.062" width="0.066" height="12.263"/><rect class="cls-157" x="63.737" y="20.062" width="0.066" height="12.263"/><rect class="cls-158" x="63.671" y="20.062" width="0.066" height="12.263"/><rect class="cls-159" x="63.605" y="20.062" width="0.066" height="12.263"/><rect class="cls-160" x="63.539" y="20.062" width="0.066" height="12.263"/><rect class="cls-161" x="63.473" y="20.062" width="0.066" height="12.263"/><rect class="cls-162" x="63.408" y="20.062" width="0.066" height="12.263"/><rect class="cls-163" x="63.342" y="20.062" width="0.066" height="12.263"/><rect class="cls-164" x="63.276" y="20.062" width="0.066" height="12.263"/><rect class="cls-165" x="63.21" y="20.062" width="0.066" height="12.263"/><rect class="cls-166" x="63.144" y="20.062" width="0.066" height="12.263"/><rect class="cls-167" x="63.078" y="20.062" width="0.066" height="12.263"/><rect class="cls-168" x="63.013" y="20.062" width="0.066" height="12.263"/><rect class="cls-169" x="62.947" y="20.062" width="0.066" height="12.263"/><rect class="cls-170" x="62.881" y="20.062" width="0.066" height="12.263"/><rect class="cls-171" x="62.815" y="20.062" width="0.066" height="12.263"/><rect class="cls-172" x="62.749" y="20.062" width="0.066" height="12.263"/><rect class="cls-173" x="62.683" y="20.062" width="0.066" height="12.263"/><rect class="cls-174" x="62.618" y="20.062" width="0.066" height="12.263"/><rect class="cls-175" x="62.552" y="20.062" width="0.066" height="12.263"/><rect class="cls-176" x="62.486" y="20.062" width="0.066" height="12.263"/><rect class="cls-177" x="62.42" y="20.062" width="0.066" height="12.263"/><rect class="cls-178" x="62.354" y="20.062" width="0.066" height="12.263"/><rect class="cls-179" x="62.289" y="20.062" width="0.066" height="12.263"/><rect class="cls-180" x="62.223" y="20.062" width="0.066" height="12.263"/><rect class="cls-181" x="62.157" y="20.062" width="0.066" height="12.263"/><rect class="cls-182" x="62.091" y="20.062" width="0.066" height="12.263"/><rect class="cls-183" x="62.025" y="20.062" width="0.066" height="12.263"/><rect class="cls-184" x="61.959" y="20.062" width="0.066" height="12.263"/><rect class="cls-185" x="61.894" y="20.062" width="0.066" height="12.263"/><rect class="cls-186" x="61.828" y="20.062" width="0.066" height="12.263"/><rect class="cls-187" x="61.762" y="20.062" width="0.066" height="12.263"/><rect class="cls-188" x="61.696" y="20.062" width="0.066" height="12.263"/><rect class="cls-189" x="61.63" y="20.062" width="0.066" height="12.263"/><rect class="cls-190" x="61.564" y="20.062" width="0.066" height="12.263"/><rect class="cls-191" x="61.499" y="20.062" width="0.066" height="12.263"/><rect class="cls-192" x="61.433" y="20.062" width="0.066" height="12.263"/><rect class="cls-193" x="61.367" y="20.062" width="0.066" height="12.263"/><rect class="cls-194" x="61.301" y="20.062" width="0.066" height="12.263"/><rect class="cls-195" x="61.235" y="20.062" width="0.066" height="12.263"/><rect class="cls-196" x="61.169" y="20.062" width="0.066" height="12.263"/><rect class="cls-197" x="61.104" y="20.062" width="0.066" height="12.263"/><rect class="cls-198" x="61.038" y="20.062" width="0.066" height="12.263"/><rect class="cls-199" x="60.972" y="20.062" width="0.066" height="12.263"/><rect class="cls-200" x="60.906" y="20.062" width="0.066" height="12.263"/><rect class="cls-201" x="60.84" y="20.062" width="0.066" height="12.263"/><rect class="cls-202" x="60.774" y="20.062" width="0.066" height="12.263"/><rect class="cls-203" x="60.709" y="20.062" width="0.066" height="12.263"/><rect class="cls-204" x="60.643" y="20.062" width="0.066" height="12.263"/><rect class="cls-205" x="60.577" y="20.062" width="0.066" height="12.263"/><rect class="cls-206" x="60.511" y="20.062" width="0.066" height="12.263"/><rect class="cls-207" x="60.445" y="20.062" width="0.066" height="12.263"/><rect class="cls-208" x="60.38" y="20.062" width="0.066" height="12.263"/><rect class="cls-209" x="60.314" y="20.062" width="0.066" height="12.263"/><rect class="cls-210" x="60.248" y="20.062" width="0.066" height="12.263"/><rect class="cls-211" x="60.182" y="20.062" width="0.066" height="12.263"/><rect class="cls-212" x="60.116" y="20.062" width="0.066" height="12.263"/><rect class="cls-213" x="60.05" y="20.062" width="0.066" height="12.263"/><rect class="cls-214" x="59.985" y="20.062" width="0.066" height="12.263"/><rect class="cls-215" x="59.919" y="20.062" width="0.066" height="12.263"/><rect class="cls-216" x="59.853" y="20.062" width="0.066" height="12.263"/><rect class="cls-217" x="59.787" y="20.062" width="0.066" height="12.263"/><rect class="cls-218" x="59.721" y="20.062" width="0.066" height="12.263"/><rect class="cls-219" x="59.655" y="20.062" width="0.066" height="12.263"/><rect class="cls-220" x="59.59" y="20.062" width="0.066" height="12.263"/><rect class="cls-221" x="59.524" y="20.062" width="0.066" height="12.263"/><rect class="cls-222" x="59.458" y="20.062" width="0.066" height="12.263"/><rect class="cls-223" x="59.392" y="20.062" width="0.066" height="12.263"/><rect class="cls-224" x="59.326" y="20.062" width="0.066" height="12.263"/><rect class="cls-225" x="59.26" y="20.062" width="0.066" height="12.263"/><rect class="cls-226" x="59.195" y="20.062" width="0.066" height="12.263"/><rect class="cls-227" x="59.129" y="20.062" width="0.066" height="12.263"/><rect class="cls-228" x="59.063" y="20.062" width="0.066" height="12.263"/><rect class="cls-229" x="58.997" y="20.062" width="0.066" height="12.263"/><rect class="cls-230" x="58.931" y="20.062" width="0.066" height="12.263"/><rect class="cls-231" x="58.865" y="20.062" width="0.066" height="12.263"/><rect class="cls-232" x="58.8" y="20.062" width="0.066" height="12.263"/><rect class="cls-233" x="58.734" y="20.062" width="0.066" height="12.263"/><rect class="cls-234" x="58.668" y="20.062" width="0.066" height="12.263"/><rect class="cls-235" x="58.602" y="20.062" width="0.066" height="12.263"/><rect class="cls-236" x="58.536" y="20.062" width="0.066" height="12.263"/><rect class="cls-237" x="58.47" y="20.062" width="0.066" height="12.263"/><rect class="cls-238" x="58.405" y="20.062" width="0.066" height="12.263"/><rect class="cls-239" x="58.339" y="20.062" width="0.066" height="12.263"/><rect class="cls-240" x="58.273" y="20.062" width="0.066" height="12.263"/><rect class="cls-241" x="58.207" y="20.062" width="0.066" height="12.263"/><rect class="cls-242" x="58.141" y="20.062" width="0.066" height="12.263"/><rect class="cls-243" x="58.076" y="20.062" width="0.066" height="12.263"/><rect class="cls-244" x="58.01" y="20.062" width="0.066" height="12.263"/><rect class="cls-245" x="57.944" y="20.062" width="0.066" height="12.263"/><rect class="cls-246" x="57.878" y="20.062" width="0.066" height="12.263"/><rect class="cls-247" x="57.812" y="20.062" width="0.066" height="12.263"/><rect class="cls-248" x="57.746" y="20.062" width="0.066" height="12.263"/><rect class="cls-249" x="57.681" y="20.062" width="0.066" height="12.263"/><rect class="cls-250" x="57.615" y="20.062" width="0.066" height="12.263"/><rect class="cls-251" x="57.549" y="20.062" width="0.066" height="12.263"/><rect class="cls-252" x="57.483" y="20.062" width="0.066" height="12.263"/><rect class="cls-253" x="57.417" y="20.062" width="0.066" height="12.263"/><rect class="cls-254" x="57.351" y="20.062" width="0.066" height="12.263"/><rect class="cls-255" x="57.286" y="20.062" width="0.066" height="12.263"/><rect class="cls-256" x="57.22" y="20.062" width="0.066" height="12.263"/><rect class="cls-257" x="57.154" y="20.062" width="0.066" height="12.263"/><rect class="cls-258" x="57.088" y="20.062" width="0.066" height="12.263"/><rect class="cls-259" x="57.022" y="20.062" width="0.066" height="12.263"/><rect class="cls-260" x="56.956" y="20.062" width="0.066" height="12.263"/><rect class="cls-261" x="56.891" y="20.062" width="0.066" height="12.263"/><rect class="cls-262" x="56.825" y="20.062" width="0.066" height="12.263"/><rect class="cls-263" x="56.759" y="20.062" width="0.066" height="12.263"/><rect class="cls-264" x="56.693" y="20.062" width="0.066" height="12.263"/><rect class="cls-265" x="56.627" y="20.062" width="0.066" height="12.263"/><rect class="cls-266" x="56.561" y="20.062" width="0.066" height="12.263"/><rect class="cls-267" x="56.496" y="20.062" width="0.066" height="12.263"/><rect class="cls-268" x="56.43" y="20.062" width="0.066" height="12.263"/><rect class="cls-269" x="56.364" y="20.062" width="0.066" height="12.263"/><rect class="cls-270" x="56.298" y="20.062" width="0.066" height="12.263"/><rect class="cls-271" x="56.232" y="20.062" width="0.066" height="12.263"/><rect class="cls-272" x="56.167" y="20.062" width="0.066" height="12.263"/><rect class="cls-273" x="56.101" y="20.062" width="0.066" height="12.263"/><rect class="cls-274" x="56.035" y="20.062" width="0.066" height="12.263"/><rect class="cls-275" x="55.969" y="20.062" width="0.066" height="12.263"/><rect class="cls-276" x="55.903" y="20.062" width="0.066" height="12.263"/><rect class="cls-277" x="55.837" y="20.062" width="0.066" height="12.263"/><rect class="cls-278" x="55.772" y="20.062" width="0.066" height="12.263"/><rect class="cls-279" x="55.706" y="20.062" width="0.066" height="12.263"/><rect class="cls-280" x="55.64" y="20.062" width="0.066" height="12.263"/><rect class="cls-281" x="55.574" y="20.062" width="0.066" height="12.263"/><rect class="cls-282" x="55.508" y="20.062" width="0.066" height="12.263"/><rect class="cls-283" x="55.442" y="20.062" width="0.066" height="12.263"/><rect class="cls-284" x="55.377" y="20.062" width="0.066" height="12.263"/><rect class="cls-285" x="55.311" y="20.062" width="0.066" height="12.263"/><rect class="cls-286" x="55.245" y="20.062" width="0.066" height="12.263"/><rect class="cls-287" x="55.179" y="20.062" width="0.066" height="12.263"/><rect class="cls-115" x="55.113" y="20.062" width="0.066" height="12.263"/><rect class="cls-115" x="55.075" y="20.062" width="0.038" height="12.263"/></g></g><path class="cls-288" d="M59.563.281H41.853l24.468,31.9,7.485-9.658a3.283,3.283,0,0,0-.009-4.035Z"/><path class="cls-289" d="M66.321,32.339l-.078-.1L41.654.183H59.611L59.64.22,73.875,18.425a3.381,3.381,0,0,1,.009,4.156ZM42.052.379,66.321,32.018l7.408-9.558a3.183,3.183,0,0,0-.009-3.914L59.515.379Z"/></g></g></svg>