<svg xmlns="http://www.w3.org/2000/svg" viewBox="0 0 549.59997 214.49" id="svg43" width="549.59997" height="214.49"><defs id="defs4"><style id="style2">.cls-1{fill:#205b98}.cls-2{fill:#5294cf}.cls-3{fill:#2d72b8}.cls-4{fill:#201c1d}</style></defs><title id="title6">Asset 1</title><g id="Layer_2" data-name="Layer 2"><g id="Layer_1-2" data-name="Layer 1"><g id="REDSHIFT"><path d="M237.23 121h16.63c8.06 0 13.18 4.75 13.18 12.89 0 5.62-1.94 11.52-7.92 13v.11c4.46.5 7 4.18 7.27 8.57l.43 8.79c.29 5.69 1.22 7.13 2.74 8.06h-7.63c-1.08-1.08-1.58-4.9-1.73-7.42l-.43-8c-.5-7.06-4.39-7.49-7.63-7.49h-8.57v22.9h-6.34zm6.34 23.33h6.26c3.74 0 10.58 0 10.58-9.94 0-5-3.38-8.21-9.29-8.21h-7.56z" id="path8"/><path d="M276.4 121H303v5.62h-20.27v16.13h19.08v5.62h-19.08v18.43h21.1v5.62H276.4z" id="path10"/><path d="M312.18 121h13.75c16 0 18 11.52 18 25.71 0 13-3.24 25.71-17.35 25.71h-14.4zm6.34 46.23h6.62c10.95 0 12.17-11.23 12.17-20.45 0-9.94-.65-20.59-12.17-20.59h-6.62z" id="path12"/><path d="M375.18 134.34c0-5.4-1.94-9.14-8-9.14-5.33 0-8.5 2.88-8.5 8.35 0 14.47 24.27 5.83 24.27 24.63 0 11.88-8.71 15.27-16 15.27-12 0-15.55-6.19-15.55-17.14h6.34c0 5.76.36 12 9.65 12a8.66 8.66 0 0 0 8.93-9.07c0-14.55-24.27-6.12-24.27-25 0-4.75 2-14.19 15-14.19 9.79 0 14.26 4.9 14.4 14.33z" id="path14"/><path d="M421.48 172.43h-6.34v-24.77H397.5v24.77h-6.34V121h6.34v21h17.64v-21h6.34z" id="path16"/><path d="M431.63 121H438v51.41h-6.34z" id="path18"/><path d="M448.11 121h26.57v5.62h-20.23v16.13h19.08v5.62h-19.08v24h-6.34z" id="path20"/><path d="M497.51 172.43h-6.34v-45.8h-12.89V121h32.19v5.62h-13z" id="path22"/></g><g id="REDSHIFT-2" data-name="REDSHIFT"><path class="cls-1" id="polygon25" fill="#205b98" d="M178.99 30.37L97.33 50.13V163.9l81.66 19.75z"/><path class="cls-2" id="polygon27" fill="#5294cf" d="M194.65 175.85l-15.71 7.86V30.37l15.71 7.86z"/><path class="cls-2" id="polygon29" fill="#5294cf" d="M15.69 30.37l81.64 19.76V163.9l-81.64 19.75z"/><path class="cls-1" id="polygon31" fill="#205b98" d="M0 175.85l15.69 7.86V30.37L0 38.23z"/><path class="cls-2" id="polygon33" fill="#5294cf" d="M149.24 15.5L118.22 0l-9.73 102.01 9.73 112.48 31.02-15.48z"/><path class="cls-1" id="polygon35" fill="#205b98" d="M45.41 15.5L76.44 0l9.72 101.66-9.72 112.83-31.03-15.48z"/><path class="cls-3" id="rect37" fill="#2d72b8" d="M76.44 0h41.81v214.49H76.44z"/></g><path id="Amazon" class="cls-4" d="M259.14 45.38c-9.24 0-19.45 3.58-21.68 15.28a1.65 1.65 0 0 0 1.25 2h.16l9.48 1.14a2.11 2.11 0 0 0 1.52-2 7.42 7.42 0 0 1 7.83-5.93 6.48 6.48 0 0 1 5.42 2.52 13 13 0 0 1 1.27 7.21V67a66.06 66.06 0 0 0-18.34 3.41 17 17 0 0 0-10.35 16.24c0 10.38 6.48 15.55 14.52 15.55a19 19 0 0 0 16.07-7.2 23.82 23.82 0 0 0 5.42 6.48 2 2 0 0 0 2.28-.27c2-1.79 5.42-5 7.45-6.69a1.92 1.92 0 0 0 0-2.71 13.71 13.71 0 0 1-3.66-9.21V67.52c0-6.48.54-12.65-4.17-17.21a21.68 21.68 0 0 0-14.47-4.93zm127.35 0c-9.24 0-19.45 3.58-21.68 15.28a1.65 1.65 0 0 0 1.25 2h.16l9.48 1.14a2.11 2.11 0 0 0 1.65-2 7.42 7.42 0 0 1 7.83-5.93 6.48 6.48 0 0 1 5.42 2.52 13 13 0 0 1 1.14 7.21V67a65.22 65.22 0 0 0-18.21 3.41 17 17 0 0 0-10.35 16.26c0 10.38 6.48 15.55 14.52 15.55A19 19 0 0 0 393.78 95a23.71 23.71 0 0 0 5.42 6.48 2 2 0 0 0 2.28-.27c2-1.79 5.42-5 7.45-6.69a2 2 0 0 0 0-2.71 13.71 13.71 0 0 1-3.66-9.21V67.52c0-6.48.43-12.65-4.28-17.21a21.41 21.41 0 0 0-14.47-4.93zm-71.64.51a13 13 0 0 0-12.79 9.43v-6.66a1.92 1.92 0 0 0-1.79-1.79h-9a1.92 1.92 0 0 0-1.87 1.87v51.19a2 2 0 0 0 1.79 1.79h9.73a1.92 1.92 0 0 0 1.87-1.87v-27.1c0-5.93-.3-14 6.69-14s5.93 8.35 5.93 14v27.1a2 2 0 0 0 1.79 1.87h9.73a1.92 1.92 0 0 0 1.87-1.87v-27.1a31.11 31.11 0 0 1 .87-9.73 6.48 6.48 0 0 1 5.72-4.34 5.07 5.07 0 0 1 5.61 4.37 67.74 67.74 0 0 1 .27 9.73v27.1a2 2 0 0 0 1.79 1.87h9.73a1.92 1.92 0 0 0 1.87-1.87V67.36c0-5.42.54-11.73-2.52-16.07a14.17 14.17 0 0 0-24.39 4c-3-6.39-6.8-9.35-12.87-9.35zm165.47 0c-14 0-21.87 12.36-21.87 28.29s7.72 28.56 21.87 28.56c13.55 0 22.22-12.44 22.22-28.07 0-16.09-7.88-28.78-22.41-28.78zm55.49 0c-6.72 0-10.54 3.25-13.28 10.35v-7.8a1.87 1.87 0 0 0-1.79-1.38h-9a1.84 1.84 0 0 0-1.87 1.65v51.14a2 2 0 0 0 1.79 1.87h9.73a1.92 1.92 0 0 0 1.87-1.87V72.32a23.65 23.65 0 0 1 1.65-9.73 6.23 6.23 0 0 1 5.23-4.12c6.72 0 6.07 8.13 6.07 13.76V100a1.92 1.92 0 0 0 1.79 1.65h9.73a1.92 1.92 0 0 0 1.87-1.65V67.87c0-5 0-11.84-2.52-15.93a12.76 12.76 0 0 0-11.35-6.07zM419 46.77a1.79 1.79 0 0 0-1.79 1.79v7.34a1.79 1.79 0 0 0 1.68 1.87h16.77l-19 28.15a9.32 9.32 0 0 0-1.35 5v7.45a1.68 1.68 0 0 0 2.28 1.65 35.9 35.9 0 0 1 33.73 0 1.76 1.76 0 0 0 2.41-1.65v-7.76A3.25 3.25 0 0 0 452 87.9a34.68 34.68 0 0 0-18.21-4.06l16.56-24.39a10.24 10.24 0 0 0 2.41-4.55v-6.24a1.79 1.79 0 0 0-1.68-1.87H419zm61.29 9.73a6.2 6.2 0 0 1 6.48 4.93A48.37 48.37 0 0 1 488.15 75c0 6.48-.33 17.42-7.83 17.42s-7.59-13.55-7.59-19.7c0-6.15.33-16.26 7.37-16.26zm-216 18.56v2.14a20.1 20.1 0 0 1-1.79 10.57 7.86 7.86 0 0 1-6.69 4.55c-3.74 0-5.93-3-5.93-7.34-.11-8.4 7.45-9.89 14.44-9.89zm127.35 0v2.14a20.08 20.08 0 0 1-1.79 10.62 7.83 7.83 0 0 1-6.69 4.55c-3.74 0-5.93-3-5.93-7.34 0-8.48 7.37-10 14.36-10z" fill="#201c1d"/></g></g></svg>