<svg id="Layer_1" data-name="Layer 1" xmlns="http://www.w3.org/2000/svg" xmlns:xlink="http://www.w3.org/1999/xlink" viewBox="0 0 288 287.99"><defs><style>.cls-1{fill:none;}.cls-2{clip-path:url(#clip-path);}.cls-3{clip-path:url(#clip-path-2);}.cls-4{fill:url(#linear-gradient);}.cls-5{fill:#fff;}</style><clipPath id="clip-path" transform="translate(-6 -6.01)"><rect class="cls-1" x="6" y="6" width="288" height="288"/></clipPath><clipPath id="clip-path-2" transform="translate(-6 -6.01)"><path class="cls-1" d="M6,150A144,144,0,1,0,150,6,144,144,0,0,0,6,150"/></clipPath><linearGradient id="linear-gradient" x1="0.02" y1="-1.02" x2="1.02" y2="-1.02" gradientTransform="matrix(288, 0, 0, -288, -6, -150.01)" gradientUnits="userSpaceOnUse"><stop offset="0" stop-color="#ea80ff"/><stop offset="1" stop-color="#8c57f6"/></linearGradient></defs><g id="Icon_background" data-name="Icon background"><g class="cls-2"><g class="cls-3"><rect class="cls-4" width="288" height="287.99"/></g></g></g><path class="cls-5" d="M132.86,232.44l-12.51-3.64a2.61,2.61,0,0,1-1.77-3.19L164,69.33a2.6,2.6,0,0,1,3.19-1.77l12.51,3.64a2.61,2.61,0,0,1,1.77,3.19L136.06,230.67A2.57,2.57,0,0,1,132.86,232.44ZM106,193.4l8.77-9.35a2.62,2.62,0,0,0-.16-3.71L80.44,150l34.21-30.34a2.59,2.59,0,0,0,.16-3.71L106,106.6a2.59,2.59,0,0,0-3.64-.13L58,148.13a2.57,2.57,0,0,0,0,3.77l44.43,41.63A2.6,2.6,0,0,0,106,193.4Zm91.6.13L242,151.9a2.57,2.57,0,0,0,0-3.77l-44.39-41.66a2.58,2.58,0,0,0-3.65.13L185.22,116a2.61,2.61,0,0,0,.17,3.71L219.59,150l-34.2,30.34a2.58,2.58,0,0,0-.17,3.71L194,193.4a2.61,2.61,0,0,0,3.65.13Z" transform="translate(-6 -6.01)"/></svg>