<svg version="1.0" xmlns="http://www.w3.org/2000/svg"
 width="100%" height="auto" viewBox="0 0 372.000000 277.000000"
 preserveAspectRatio="xMidYMid meet">

<g transform="translate(0.000000,277.000000) scale(0.100000,-0.100000)"
fill="#0168fa" stroke="none">
<path d="M892 2698 c-11 -18 -182 -315 -380 -659 l-361 -627 377 -653 378
-654 765 -3 765 -2 99 172 c55 95 122 212 150 260 l51 88 150 -86 c82 -47 159
-92 171 -100 l22 -14 -59 -105 c-54 -97 -57 -105 -37 -105 31 0 671 52 675 55
4 3 -287 608 -297 618 -5 5 -35 -37 -66 -92 -31 -56 -60 -101 -62 -101 -6 0
-297 165 -325 185 -16 11 -3 36 133 270 83 143 151 262 152 266 1 3 -169 302
-378 663 l-380 656 -762 0 -761 0 -20 -32z m1641 -736 c147 -257 278 -485 291
-507 l25 -41 -104 -179 c-58 -99 -106 -184 -108 -189 -2 -7 -304 160 -345 190
-2 1 22 48 53 104 31 56 55 104 52 106 -5 5 -679 -46 -686 -52 -5 -4 292 -624
299 -624 4 0 27 37 53 83 77 137 49 135 242 21 92 -54 168 -103 168 -107 -1
-5 -48 -89 -105 -187 l-103 -180 -591 0 -592 0 -291 506 -292 506 293 509 293
509 590 0 590 0 268 -468z"/>
</g>
</svg>
