<svg height="512pt" viewBox="-7 0 512 512" width="512pt" xmlns="http://www.w3.org/2000/svg"><path d="m398.960938 288.828125h-143.15625v-147.027344c0-4.140625-3.355469-7.496093-7.496094-7.496093-4.144532 0-7.5 3.355468-7.5 7.496093v147.027344h-143.15625c-16.421875 0-29.785156 13.363281-29.785156 29.785156v32.59375c0 4.140625 3.355468 7.5 7.496093 7.5 4.144531 0 7.5-3.359375 7.5-7.5v-32.59375c0-8.152343 6.632813-14.789062 14.789063-14.789062h143.15625v125.917969c0 4.140624 3.355468 7.496093 7.496094 7.496093 4.140624 0 7.5-3.355469 7.5-7.496093v-125.917969h143.152343c8.15625 0 14.789063 6.636719 14.789063 14.789062v32.59375c0 4.140625 3.359375 7.5 7.5 7.5s7.496094-3.359375 7.496094-7.5v-32.59375c.003906-16.421875-13.359376-29.785156-29.78125-29.785156zm0 0" fill="#738c96"/><path d="m143.296875 440.679688h-133.296875c-5.523438 0-10-4.476563-10-10v-85.085938c0-5.523438 4.476562-10 10-10h133.296875c5.523437 0 10 4.476562 10 10v85.085938c0 5.523437-4.476563 10-10 10zm0 0" fill="#ffe046"/><path d="m488.0625 440.679688h-133.296875c-5.523437 0-10-4.476563-10-10v-85.085938c0-5.523438 4.476563-10 10-10h133.296875c5.523438 0 10 4.476562 10 10v85.085938c0 5.523437-4.476562 10-10 10zm0 0" fill="#ffe046"/><path d="m314.992188 512h-133.296876c-5.523437 0-10-4.476562-10-10v-85.085938c0-5.523437 4.476563-10 10-10h133.296876c5.523437 0 10 4.476563 10 10v85.085938c0 5.523438-4.476563 10-10 10zm0 0" fill="#ffe046"/><g fill="#eec707"><path d="m143.300781 335.59375h-16.664062v83.121094c0 5.519531-4.476563 9.996094-9.996094 9.996094h-116.640625v1.972656c0 5.519531 4.476562 9.996094 9.996094 9.996094h133.304687c5.523438 0 10-4.476563 10-9.996094v-85.09375c-.003906-5.519532-4.480469-9.996094-10-9.996094zm0 0"/><path d="m488.066406 335.59375h-16.664062v83.121094c0 5.519531-4.476563 9.996094-9.996094 9.996094h-116.640625v1.972656c0 5.519531 4.476563 9.996094 10 9.996094h133.300781c5.523438 0 9.996094-4.476563 9.996094-9.996094v-85.09375c0-5.519532-4.472656-9.996094-9.996094-9.996094zm0 0"/><path d="m314.992188 406.914062h-16.660157v83.121094c0 5.519532-4.476562 9.996094-10 9.996094h-116.636719v1.972656c0 5.519532 4.476563 9.996094 9.996094 9.996094h133.304688c5.519531 0 9.996094-4.476562 9.996094-9.996094v-85.09375c0-5.519531-4.476563-9.996094-10-9.996094zm0 0"/><path d="m144.449219 335.59375h-92.8125v-8.101562c0-4.890626-3.964844-8.851563-8.851563-8.851563h-33.933594c-4.890624 0-8.851562 3.960937-8.851562 8.851563v33.332031h153.296875v-16.382813c0-4.886718-3.960937-8.847656-8.847656-8.847656zm0 0"/><path d="m489.214844 335.59375h-92.816406v-8.101562c0-4.890626-3.960938-8.851563-8.847657-8.851563h-33.933593c-4.890626 0-8.851563 3.960937-8.851563 8.851563v33.332031h153.296875v-16.382813c0-4.886718-3.960938-8.847656-8.847656-8.847656zm0 0"/><path d="m316.140625 406.914062h-92.8125v-8.101562c0-4.890625-3.960937-8.851562-8.851563-8.851562h-33.933593c-4.886719 0-8.847657 3.960937-8.847657 8.851562v33.332031h153.296876v-16.382812c0-4.886719-3.960938-8.847657-8.851563-8.847657zm0 0"/></g><path d="m144.449219 335.59375h-28.25v11.390625c0 2.210937-1.789063 4-4 4h-112.199219v9.84375h153.296875v-16.386719c0-4.886718-3.960937-8.847656-8.847656-8.847656zm0 0" fill="#fba72d"/><path d="m489.214844 335.59375h-28.25v11.390625c0 2.210937-1.789063 4-3.996094 4h-112.203125v9.84375h153.296875v-16.386719c0-4.886718-3.960938-8.847656-8.847656-8.847656zm0 0" fill="#fba72d"/><path d="m316.140625 406.914062h-28.246094v11.390626c0 2.210937-1.789062 4-4 4h-112.199219v9.84375h153.296876v-16.386719c0-4.886719-3.960938-8.847657-8.851563-8.847657zm0 0" fill="#fba72d"/><path d="m373.070312 133.007812c0 68.351563-55.410156 123.761719-123.761718 123.761719-68.351563 0-123.761719-55.410156-123.761719-123.761719 0-68.351562 55.410156-123.761718 123.761719-123.761718 68.351562 0 123.761718 55.410156 123.761718 123.761718zm0 0" fill="#bce8f1"/><path d="m292.785156 17.109375c27.710938 22.695313 45.398438 57.175781 45.398438 95.789063 0 68.351562-55.410156 123.757812-123.761719 123.757812-15.300781 0-29.949219-2.78125-43.476563-7.859375 21.339844 17.480469 48.625 27.972656 78.363282 27.972656 68.351562 0 123.761718-55.410156 123.761718-123.761719 0-53.050781-33.382812-98.296874-80.285156-115.898437zm0 0" fill="#95dae8"/><path d="m381.140625 132.628906c0-.027344.003906-.050781.003906-.078125 0-.027343-.003906-.050781-.003906-.078125-.039063-73.050781-59.484375-132.472656-132.546875-132.472656-73.070312 0-132.523438 59.433594-132.546875 132.5 0 .015625-.003906.03125-.003906.050781s0 .035157.003906.054688c.027344 73.027343 59.421875 132.433593 132.441406 132.492187.035157 0 .070313.003906.105469.003906s.070312-.003906.105469-.003906c73.011719-.058594 132.398437-59.453125 132.441406-132.46875zm-15.394531-7.648437h-44.855469c-1.875-41.773438-19.0625-80.460938-46.886719-107.058594 50.175782 11.113281 88.378906 54.421875 91.742188 107.058594zm-124.726563-102.609375v102.609375h-49.566406c2.023437-41.21875 20.367187-78.9375 49.566406-102.609375zm0 117.75v102.6875c-29.21875-23.6875-47.570312-61.441406-49.570312-102.6875zm15.144531 102.6875v-102.6875h49.574219c-2 41.246094-20.351562 79-49.574219 102.6875zm0-117.828125v-102.609375c29.203126 23.671875 47.550782 61.390625 49.570313 102.609375zm-32.980468-107.058594c-27.824219 26.597656-45.011719 65.285156-46.886719 107.058594h-44.859375c3.371094-52.636719 41.570312-95.945313 91.746094-107.058594zm-91.742188 122.199219h44.855469c1.847656 41.746094 18.996094 80.421875 46.773437 107.03125-50.117187-11.15625-88.265624-54.433594-91.628906-107.03125zm142.675782 107.03125c27.777343-26.609375 44.925781-65.285156 46.777343-107.027344h44.851563c-3.363282 52.59375-41.511719 95.871094-91.628906 107.027344zm0 0" fill="#7cd2e3"/></svg>