<svg class="svg-icon" style="width: 1em; height: 1em;vertical-align: middle;fill: currentColor;overflow: hidden;" viewBox="0 0 1024 1024" version="1.1" xmlns="http://www.w3.org/2000/svg"><path d="M772.4544 863.1296H199.04c-106.2144 0-192.64-86.4-192.64-192.6144s86.4256-192.64 192.64-192.64c13.5168 0 26.9824 1.4336 40.1408 4.2496a268.416 268.416 0 0 1-0.5376-16.64c0-167.9616 136.6528-304.5888 304.5888-304.5888 118.2976 0 226.7648 69.5552 276.3776 177.2032a12.8 12.8 0 1 1-23.2448 10.7008 279.5776 279.5776 0 0 0-253.1328-162.304c-153.856 0-278.9888 125.1584-278.9888 278.9888 0 9.8048 0.64 20.352 1.9968 32.256l2.2016 19.6096-18.7904-5.9648a166.9632 166.9632 0 0 0-50.6368-7.8848c-92.1088 0-167.04 74.9568-167.04 167.04s74.9568 167.0144 167.04 167.0144h573.3888c121.0624 0 219.5456-98.4832 219.5456-219.52a218.752 218.752 0 0 0-79.488-168.9344 12.7488 12.7488 0 0 1-1.6896-17.9968 12.7488 12.7488 0 0 1 17.9968-1.6896 244.0704 244.0704 0 0 1 88.8064 188.6208c0.0256 135.1168-109.952 245.0944-245.12 245.0944z" fill="#333333" /><path d="M824.7552 453.12c-33.7664 0-61.2608-27.4688-61.2608-61.2608s27.4688-61.2608 61.2608-61.2608 61.2608 27.4688 61.2608 61.2608-27.4944 61.2608-61.2608 61.2608z m0-96.9216c-19.6608 0-35.6608 16-35.6608 35.6608s16 35.6608 35.6608 35.6608 35.6608-16 35.6608-35.6608a35.7376 35.7376 0 0 0-35.6608-35.6608zM342.7584 440.32V512h343.4752v-71.68H342.7584z m159.7952 46.2848h-131.4048v-20.9152h131.4048v20.9152zM342.7584 652.3648v71.68h343.4752v-71.68H342.7584z m159.7952 46.3104h-131.4048v-20.9152h131.4048v20.9152zM342.7584 546.3552v71.68h343.4752v-71.68H342.7584z m183.68 25.3696h131.4048v20.9152h-131.4048v-20.9152z" fill="#333333" /></svg>