<svg id="svg" version="1.1" xmlns="http://www.w3.org/2000/svg" xmlns:xlink="http://www.w3.org/1999/xlink" width="400" height="225" viewBox="0, 0, 400,225"><g id="svgg"><path id="path0" d="M197.782 3.273 C 197.719 3.337,197.667 6.264,197.667 9.778 L 197.667 16.167 191.917 16.167 L 186.167 16.167 186.167 18.250 L 186.167 20.333 191.915 20.333 L 197.663 20.333 197.706 26.792 L 197.750 33.250 200.000 33.250 L 202.250 33.250 202.294 26.792 L 202.337 20.333 208.252 20.333 L 214.167 20.333 214.167 18.250 L 214.167 16.167 208.252 16.167 L 202.337 16.167 202.294 9.708 L 202.250 3.250 200.074 3.204 C 198.877 3.178,197.846 3.210,197.782 3.273 M233.167 26.000 L 233.167 35.333 224.417 35.333 L 215.667 35.333 215.667 38.500 L 215.667 41.667 224.417 41.667 L 233.167 41.667 233.167 51.000 L 233.167 60.333 236.583 60.333 L 240.000 60.333 240.000 51.000 L 240.000 41.667 248.750 41.667 L 257.500 41.667 257.500 38.500 L 257.500 35.333 248.750 35.333 L 240.000 35.333 240.000 26.000 L 240.000 16.667 236.583 16.667 L 233.167 16.667 233.167 26.000 M253.000 63.167 L 253.000 69.667 247.167 69.667 L 241.333 69.667 241.333 72.417 L 241.333 75.167 247.208 75.167 L 253.083 75.167 253.083 81.708 L 253.083 88.250 256.125 88.295 L 259.167 88.341 259.167 81.756 L 259.167 75.171 265.039 75.127 L 270.912 75.083 270.921 72.583 C 270.926 71.208,270.901 69.990,270.864 69.875 C 270.813 69.714,269.488 69.667,264.982 69.667 L 259.167 69.667 259.167 63.167 L 259.167 56.667 256.083 56.667 L 253.000 56.667 253.000 63.167 M140.500 63.750 L 140.500 70.000 134.833 70.000 L 129.167 70.000 129.167 72.333 L 129.167 74.667 134.833 74.667 L 140.500 74.667 140.500 80.917 L 140.500 87.167 142.917 87.167 L 145.333 87.167 145.333 80.833 L 145.333 74.500 147.375 74.503 C 148.498 74.505,151.123 74.416,153.208 74.307 L 157.000 74.107 157.000 72.053 L 157.000 70.000 151.167 70.000 L 145.333 70.000 145.333 63.750 L 145.333 57.500 142.917 57.500 L 140.500 57.500 140.500 63.750 M197.167 117.083 L 197.167 123.667 191.250 123.667 L 185.333 123.667 185.333 126.391 L 185.333 129.114 190.625 129.124 C 193.535 129.129,196.198 129.141,196.542 129.150 L 197.167 129.167 197.167 135.660 L 197.167 142.154 200.136 142.138 L 203.105 142.122 203.109 135.613 L 203.113 129.104 209.015 129.094 L 214.917 129.083 214.962 126.375 L 215.008 123.667 209.087 123.667 L 203.167 123.667 203.150 123.125 C 203.141 122.827,203.130 119.865,203.125 116.542 L 203.118 110.500 200.142 110.500 L 197.167 110.500 197.167 117.083 " stroke="none" fill="#607a9d" fill-rule="evenodd"></path><path id="path1" d="M160.000 93.417 L 160.000 102.833 151.250 102.833 L 142.500 102.833 142.500 105.833 L 142.500 108.833 151.292 108.833 L 160.083 108.833 160.039 118.250 L 159.995 127.667 163.414 127.667 L 166.833 127.667 166.833 118.250 L 166.833 108.833 175.583 108.833 L 184.333 108.833 184.333 105.833 L 184.333 102.833 175.583 102.833 L 166.833 102.833 166.833 93.417 L 166.833 84.000 163.417 84.000 L 160.000 84.000 160.000 93.417 " stroke="none" fill="#c42434" fill-rule="evenodd"></path><path id="path2" d="M233.167 93.333 L 233.167 102.667 224.417 102.667 L 215.667 102.667 215.667 105.667 L 215.667 108.667 224.417 108.667 L 233.167 108.667 233.167 118.167 L 233.167 127.667 236.583 127.667 L 240.000 127.667 240.000 118.167 L 240.000 108.667 248.750 108.667 L 257.500 108.667 257.500 105.667 L 257.500 102.667 248.750 102.667 L 240.000 102.667 240.000 93.333 L 240.000 84.000 236.583 84.000 L 233.167 84.000 233.167 93.333 M205.333 188.833 L 205.333 221.333 209.083 221.333 L 212.833 221.333 212.833 188.833 L 212.833 156.333 209.083 156.333 L 205.333 156.333 205.333 188.833 M144.696 184.038 C 144.728 204.690,144.816 212.539,145.018 212.741 C 145.184 212.906,147.013 213.530,148.000 213.757 C 148.504 213.874,149.362 214.091,149.906 214.240 C 152.105 214.844,161.966 215.042,164.083 214.525 C 170.361 212.992,174.684 209.091,176.394 203.417 C 177.858 198.558,177.142 191.100,174.857 187.417 C 173.175 184.705,172.170 183.595,170.333 182.420 C 167.092 180.345,164.684 179.634,160.917 179.638 C 158.009 179.640,156.312 179.896,153.366 180.773 C 152.879 180.918,152.429 180.985,152.366 180.921 C 152.302 180.858,152.212 176.818,152.167 171.945 L 152.083 163.083 148.374 163.038 L 144.664 162.994 144.696 184.038 M23.111 165.444 C 23.050 165.506,23.000 170.193,23.000 175.861 L 23.000 186.167 13.167 186.167 L 3.333 186.167 3.333 189.583 L 3.333 193.000 13.167 193.000 L 23.000 193.000 23.000 204.250 L 23.000 215.500 26.750 215.500 L 30.500 215.500 30.500 204.250 L 30.500 193.000 40.417 193.000 L 50.333 193.000 50.333 189.583 L 50.333 186.167 40.417 186.167 L 30.500 186.167 30.500 175.750 L 30.500 165.333 26.861 165.333 C 24.860 165.333,23.172 165.383,23.111 165.444 M101.833 180.428 C 101.833 181.675,101.890 181.658,100.239 180.913 C 99.422 180.545,99.131 180.448,97.167 179.887 C 94.562 179.143,88.884 179.681,86.204 180.925 C 85.720 181.150,85.286 181.333,85.240 181.333 C 84.528 181.333,81.029 184.450,80.038 185.967 C 79.697 186.489,79.374 186.954,79.320 187.000 C 79.266 187.046,78.956 187.646,78.630 188.333 C 75.839 194.230,76.201 202.478,79.479 207.659 C 80.713 209.609,83.898 212.500,84.814 212.500 C 84.916 212.500,85.000 212.575,85.000 212.667 C 85.000 212.758,85.080 212.833,85.177 212.833 C 85.275 212.833,85.744 213.009,86.219 213.224 C 89.555 214.731,96.431 215.503,100.564 214.835 C 104.361 214.222,106.263 213.813,107.942 213.248 C 109.100 212.859,109.017 214.120,109.110 195.542 L 109.191 179.333 105.512 179.333 L 101.833 179.333 101.833 180.428 M328.833 180.501 C 328.833 181.564,328.807 181.655,328.542 181.508 C 327.967 181.189,326.383 180.529,325.739 180.341 C 323.398 179.655,323.215 179.630,320.610 179.636 C 317.028 179.644,315.387 179.933,313.233 180.937 C 312.766 181.155,312.333 181.333,312.271 181.333 C 311.575 181.333,307.339 185.026,307.073 185.866 C 307.021 186.031,306.919 186.167,306.848 186.167 C 306.777 186.167,306.576 186.448,306.402 186.792 C 306.227 187.135,305.968 187.604,305.824 187.833 C 303.874 190.956,303.187 198.655,304.456 203.167 C 305.816 208.003,308.856 211.401,313.667 213.465 C 317.560 215.136,326.027 215.525,331.083 214.266 C 331.267 214.220,331.942 214.061,332.583 213.912 C 334.653 213.431,335.799 212.978,335.910 212.598 C 336.038 212.156,336.318 194.111,336.327 185.708 L 336.333 179.333 332.583 179.333 L 328.833 179.333 328.833 180.501 M256.306 179.750 C 256.260 179.796,255.891 179.903,255.486 179.989 C 254.060 180.292,253.246 180.508,252.833 180.693 C 251.534 181.276,251.131 181.494,249.918 182.268 C 243.381 186.440,240.406 196.705,243.501 204.417 C 244.561 207.058,246.000 209.118,248.043 210.917 C 251.100 213.609,254.553 214.865,260.141 215.320 C 262.002 215.471,264.740 215.338,266.333 215.019 C 266.746 214.936,267.533 214.782,268.083 214.677 C 269.000 214.502,269.506 214.356,270.417 214.004 C 270.600 213.934,271.406 213.624,272.208 213.316 L 273.667 212.756 273.665 210.170 C 273.664 207.206,273.536 205.833,273.263 205.833 C 273.159 205.833,272.446 206.098,271.679 206.421 C 270.913 206.745,270.015 207.076,269.684 207.157 C 269.354 207.238,268.671 207.417,268.167 207.555 C 263.301 208.885,257.750 208.469,254.376 206.522 C 252.608 205.501,250.686 202.205,250.387 199.679 L 250.287 198.833 262.915 198.833 L 275.543 198.833 275.428 196.792 C 275.271 193.995,274.826 191.328,274.297 190.021 C 274.200 189.780,274.014 189.321,273.884 189.000 C 271.845 183.956,267.787 180.745,262.314 179.847 C 261.219 179.668,256.465 179.591,256.306 179.750 M364.667 191.180 C 364.667 201.523,364.815 205.859,365.182 206.242 C 365.265 206.329,365.333 206.516,365.334 206.658 C 365.334 206.944,366.176 208.609,366.750 209.460 C 368.208 211.621,370.882 213.284,374.500 214.278 C 376.335 214.782,383.972 214.841,385.176 214.360 C 385.400 214.270,386.033 214.067,386.583 213.909 C 387.133 213.750,387.658 213.569,387.750 213.505 C 387.842 213.441,388.179 213.291,388.500 213.170 C 389.218 212.900,390.607 212.053,391.165 211.544 C 391.393 211.337,391.629 211.167,391.689 211.167 C 391.868 211.167,393.587 208.808,393.996 208.000 C 395.107 205.807,395.041 206.693,395.126 192.875 L 395.204 180.333 391.352 180.333 L 387.500 180.333 387.500 191.674 C 387.500 201.720,387.468 203.142,387.221 204.132 C 386.332 207.697,383.948 209.270,379.665 209.122 C 375.695 208.984,374.138 208.007,372.811 204.822 L 372.434 203.917 372.374 192.125 L 372.313 180.333 368.490 180.333 L 364.667 180.333 364.667 191.180 M162.333 186.947 C 163.282 187.220,164.681 187.888,165.232 188.330 C 166.329 189.210,166.753 189.653,167.222 190.408 C 167.704 191.183,167.933 191.628,168.473 192.833 C 169.732 195.643,169.177 201.559,167.417 204.102 C 165.042 207.533,159.456 208.934,154.000 207.469 L 152.417 207.044 152.417 197.577 L 152.417 188.111 152.917 187.960 C 153.192 187.877,153.567 187.747,153.750 187.671 C 156.518 186.528,159.890 186.244,162.333 186.947 M324.665 186.950 C 325.168 187.095,325.693 187.273,325.831 187.347 C 325.970 187.420,326.673 187.754,327.394 188.088 L 328.704 188.697 328.606 197.390 C 328.484 208.175,328.587 207.372,327.277 207.677 C 325.962 207.984,319.425 208.018,318.817 207.721 C 318.597 207.614,318.042 207.394,317.583 207.232 C 315.296 206.426,313.340 204.377,312.351 201.750 C 312.085 201.044,311.672 198.408,311.672 197.417 C 311.672 196.425,312.085 193.789,312.351 193.083 C 312.454 192.808,312.643 192.347,312.770 192.058 C 312.896 191.769,313.000 191.485,313.000 191.426 C 313.000 191.367,313.076 191.229,313.168 191.118 C 313.260 191.007,313.652 190.480,314.038 189.947 C 316.069 187.141,320.747 185.821,324.665 186.950 M97.613 186.917 C 98.573 187.167,101.002 188.269,101.527 188.693 C 101.810 188.922,101.712 202.698,101.402 206.179 L 101.290 207.441 100.270 207.679 C 98.861 208.007,92.334 208.015,91.500 207.689 C 87.529 206.138,85.742 203.983,84.913 199.750 C 83.887 194.511,86.222 189.116,90.250 187.416 C 92.118 186.628,95.597 186.392,97.613 186.917 M262.362 186.936 C 265.084 187.629,266.876 189.754,267.040 192.481 L 267.083 193.212 259.917 193.200 C 255.975 193.194,252.327 193.140,251.809 193.080 L 250.868 192.971 251.100 192.527 C 251.227 192.283,251.332 191.990,251.332 191.875 C 251.333 191.760,251.408 191.667,251.500 191.667 C 251.592 191.667,251.667 191.554,251.667 191.417 C 251.667 191.279,251.737 191.167,251.822 191.167 C 251.908 191.167,252.026 191.015,252.085 190.829 C 252.326 190.068,254.349 188.259,255.679 187.615 C 257.737 186.618,260.153 186.373,262.362 186.936 " stroke="none" fill="#1c447c" fill-rule="evenodd"></path><path id="path3" d="M160.000 26.000 L 160.000 35.333 151.250 35.333 L 142.500 35.333 142.500 38.333 L 142.500 41.333 151.250 41.333 L 160.000 41.333 160.000 50.833 L 160.000 60.333 163.333 60.333 L 166.667 60.333 166.667 50.833 L 166.667 41.333 175.500 41.333 L 184.333 41.333 184.333 38.333 L 184.333 35.333 175.500 35.333 L 166.667 35.333 166.667 26.000 L 166.667 16.667 163.333 16.667 L 160.000 16.667 160.000 26.000 M196.111 47.444 C 196.050 47.506,196.000 52.231,196.000 57.944 L 196.000 68.333 186.333 68.333 L 176.667 68.333 176.667 72.333 L 176.667 76.333 186.333 76.333 L 196.000 76.333 196.000 86.750 L 196.000 97.167 200.000 97.167 L 204.000 97.167 204.000 86.750 L 204.000 76.333 213.667 76.333 L 223.333 76.333 223.333 72.333 L 223.333 68.333 213.667 68.333 L 204.000 68.333 204.000 57.833 L 204.000 47.333 200.111 47.333 C 197.972 47.333,196.172 47.383,196.111 47.444 M146.887 102.792 C 149.345 102.818,153.320 102.818,155.720 102.792 C 158.120 102.766,156.108 102.744,151.250 102.744 C 146.392 102.744,144.428 102.766,146.887 102.792 M171.220 102.792 C 173.679 102.818,177.654 102.818,180.053 102.792 C 182.453 102.766,180.442 102.744,175.583 102.744 C 170.725 102.744,168.762 102.766,171.220 102.792 M145.542 108.948 C 145.702 108.990,145.965 108.990,146.125 108.948 C 146.285 108.906,146.154 108.872,145.833 108.872 C 145.512 108.872,145.381 108.906,145.542 108.948 M148.042 108.948 C 148.202 108.990,148.465 108.990,148.625 108.948 C 148.785 108.906,148.654 108.872,148.333 108.872 C 148.012 108.872,147.881 108.906,148.042 108.948 M150.542 108.948 C 150.702 108.990,150.965 108.990,151.125 108.948 C 151.285 108.906,151.154 108.872,150.833 108.872 C 150.512 108.872,150.381 108.906,150.542 108.948 M153.042 108.948 C 153.202 108.990,153.465 108.990,153.625 108.948 C 153.785 108.906,153.654 108.872,153.333 108.872 C 153.012 108.872,152.881 108.906,153.042 108.948 M155.542 108.948 C 155.702 108.990,155.965 108.990,156.125 108.948 C 156.285 108.906,156.154 108.872,155.833 108.872 C 155.512 108.872,155.381 108.906,155.542 108.948 M158.042 108.948 C 158.202 108.990,158.465 108.990,158.625 108.948 C 158.785 108.906,158.654 108.872,158.333 108.872 C 158.012 108.872,157.881 108.906,158.042 108.948 M167.127 108.951 C 167.334 108.991,167.634 108.990,167.794 108.948 C 167.953 108.906,167.783 108.874,167.417 108.875 C 167.050 108.877,166.920 108.911,167.127 108.951 M169.708 108.948 C 169.869 108.990,170.131 108.990,170.292 108.948 C 170.452 108.906,170.321 108.872,170.000 108.872 C 169.679 108.872,169.548 108.906,169.708 108.948 M172.208 108.948 C 172.369 108.990,172.631 108.990,172.792 108.948 C 172.952 108.906,172.821 108.872,172.500 108.872 C 172.179 108.872,172.048 108.906,172.208 108.948 M174.708 108.948 C 174.869 108.990,175.131 108.990,175.292 108.948 C 175.452 108.906,175.321 108.872,175.000 108.872 C 174.679 108.872,174.548 108.906,174.708 108.948 M177.208 108.948 C 177.369 108.990,177.631 108.990,177.792 108.948 C 177.952 108.906,177.821 108.872,177.500 108.872 C 177.179 108.872,177.048 108.906,177.208 108.948 M179.708 108.948 C 179.869 108.990,180.131 108.990,180.292 108.948 C 180.452 108.906,180.321 108.872,180.000 108.872 C 179.679 108.872,179.548 108.906,179.708 108.948 M182.208 108.948 C 182.369 108.990,182.631 108.990,182.792 108.948 C 182.952 108.906,182.821 108.872,182.500 108.872 C 182.179 108.872,182.048 108.906,182.208 108.948 " stroke="none" fill="#ec812c" fill-rule="evenodd"></path><path id="path4" d="" stroke="none" fill="#507054" fill-rule="evenodd"></path></g></svg>