<?xml version="1.0" standalone="no"?>
<!DOCTYPE svg PUBLIC "-//W3C//DTD SVG 20010904//EN"
 "http://www.w3.org/TR/2001/REC-SVG-20010904/DTD/svg10.dtd">
<svg version="1.0" xmlns="http://www.w3.org/2000/svg"
 width="2000.000000pt" height="644.000000pt" viewBox="0 0 2000.000000 644.000000"
 preserveAspectRatio="xMidYMid meet">
<metadata>
Created by potrace 1.16, written by Peter Selinger 2001-2019
</metadata>
<g transform="translate(0.000000,644.000000) scale(0.100000,-0.100000)"
fill="#000000" stroke="none">
<path d="M10872 4617 l3 -492 -65 49 c-99 75 -239 134 -395 167 -33 7 -129 13
-215 13 -188 1 -281 -19 -436 -94 -352 -170 -575 -501 -616 -913 -34 -351 79
-682 317 -922 171 -174 345 -265 581 -306 90 -15 301 -7 404 16 142 32 300
105 389 181 l36 31 0 -86 0 -86 288 -3 287 -2 0 1470 0 1470 -290 0 -291 0 3
-493z m-429 -781 c208 -65 368 -240 417 -456 15 -69 12 -247 -5 -315 -55 -214
-220 -381 -430 -435 -303 -77 -594 80 -692 374 -24 72 -27 96 -27 221 0 104 4
157 18 204 60 220 212 367 427 416 76 17 220 13 292 -9z"/>
<path d="M2110 3813 c0 -934 1 -1004 19 -1088 46 -224 148 -383 315 -490 221
-141 586 -166 871 -58 60 22 182 79 194 89 2 1 -27 38 -64 81 -83 94 -152 199
-190 285 l-28 64 -80 -23 c-90 -26 -214 -31 -281 -11 -25 8 -61 32 -93 63 -87
85 -86 82 -91 633 l-3 472 285 0 286 0 0 235 0 235 -285 0 -285 0 0 255 0 255
-285 0 -285 0 0 -997z"/>
<path d="M13810 3808 c0 -1030 1 -1060 38 -1183 65 -210 215 -375 412 -450
209 -80 441 -87 680 -20 36 10 66 19 68 20 1 1 -28 33 -66 71 -55 54 -79 89
-115 164 -25 52 -53 127 -62 167 l-17 71 -92 4 c-82 3 -98 6 -142 33 -29 18
-60 49 -77 76 -55 89 -57 113 -57 612 l0 457 295 0 295 0 -2 233 -3 232 -292
3 -293 2 0 255 0 255 -285 0 -285 0 0 -1002z"/>
<path d="M4263 4350 c-198 -28 -381 -106 -535 -229 -496 -394 -549 -1211 -108
-1675 210 -220 484 -336 799 -336 297 0 565 98 764 280 74 68 162 184 215 287
46 89 50 103 27 103 -9 0 -122 23 -253 51 l-237 50 -20 -27 c-98 -133 -170
-190 -289 -226 -104 -32 -296 -31 -381 2 -181 70 -299 213 -349 423 l-6 27
800 0 800 0 0 153 c0 218 -30 358 -116 532 -136 276 -388 481 -689 560 -111
29 -309 41 -422 25z m331 -520 c33 -11 78 -31 101 -45 82 -48 175 -171 204
-270 l8 -30 -498 3 c-275 1 -499 5 -499 9 0 3 16 38 35 78 63 131 199 235 356
270 83 19 215 12 293 -15z"/>
<path d="M5680 3235 l0 -1065 285 0 285 0 0 393 c0 521 19 674 109 862 115
241 300 363 579 382 l92 6 0 240 0 240 -107 -6 c-60 -3 -144 -15 -188 -26
-163 -42 -339 -153 -435 -275 l-45 -56 -3 185 -2 185 -285 0 -285 0 0 -1065z"/>
<path d="M7290 4050 l0 -239 453 -3 c493 -3 490 -3 577 -63 52 -36 92 -118 98
-197 l4 -58 -348 0 c-460 0 -572 -17 -759 -113 -99 -51 -216 -164 -262 -252
-95 -181 -99 -446 -10 -622 127 -249 399 -393 743 -393 224 0 414 58 572 174
l62 46 0 -80 0 -80 275 0 275 0 0 733 c0 460 -4 756 -11 796 -44 274 -219 459
-512 541 -151 43 -248 50 -714 50 l-443 0 0 -240z m1130 -1039 c0 -52 -30
-146 -64 -200 -99 -156 -296 -249 -505 -238 -118 5 -188 28 -247 80 -55 48
-76 95 -76 168 0 99 57 175 159 211 41 14 97 17 391 17 l342 1 0 -39z"/>
<path d="M11930 4050 l0 -239 453 -3 c503 -4 504 -4 585 -73 49 -43 79 -104
88 -183 l7 -62 -349 0 c-383 0 -496 -10 -632 -55 -269 -90 -428 -277 -463
-544 -34 -255 72 -494 285 -640 267 -184 742 -187 1028 -8 40 25 85 58 101 72
l27 26 0 -86 0 -85 276 0 275 0 -4 763 c-4 812 -3 790 -54 923 -89 229 -332
382 -673 424 -46 5 -279 10 -517 10 l-433 0 0 -240z m1125 -1056 c-20 -162
-117 -288 -280 -365 -103 -48 -181 -63 -298 -57 -153 9 -250 59 -293 152 -32
68 -31 128 2 194 29 59 66 89 139 114 44 15 94 17 394 18 l343 0 -7 -56z"/>
<path d="M15230 4050 l0 -239 453 -3 c431 -3 454 -4 500 -24 105 -44 158 -117
172 -236 l6 -58 -348 0 c-381 0 -496 -10 -629 -55 -263 -88 -418 -258 -463
-509 -48 -267 63 -531 286 -677 311 -203 818 -182 1097 46 l56 45 0 -85 0 -85
270 0 271 0 -3 783 -3 782 -28 78 c-95 270 -313 417 -690 467 -43 5 -274 10
-513 10 l-434 0 0 -240z m1124 -1042 c-12 -93 -28 -140 -63 -196 -103 -159
-302 -251 -515 -239 -197 11 -316 102 -316 243 0 64 37 144 81 175 77 55 105
58 477 59 l342 0 -6 -42z"/>
</g>
</svg>
