<svg xmlns="http://www.w3.org/2000/svg" width="173.053" height="25" viewBox="0 0 173.053 25">
<style type="text/css">
	.st0{fill:#29B9EF;}
	.st1{fill:#1E1E1E;}
	.st2{fill:#666666;}
	.st3{fill:#FFFFFF;}
</style>

  <g id="Сгруппировать_8432" data-name="Сгруппировать 8432" transform="translate(-64.969 -75.412)">
    <rect id="Прямоугольник_225" data-name="Прямоугольник 225" width="2.871" height="23.821" transform="translate(135.41 76.001)" fill="#1E1E1E"/>
    <path id="Контур_3860" data-name="Контур 3860" d="M373.894,77.279h-4.061l-10.48,10.48h-6.691V77.279h-2.871V101.1h2.871V90.62h6.691l10.48,10.48h4.061L361.984,89.189Z" transform="translate(-194.889 -1.277)" fill="#0168fa"/>
    <rect id="Прямоугольник_226" data-name="Прямоугольник 226" width="2.871" height="23.821" transform="translate(192.351 76.001)" fill="#0168fa"/>
    <path id="Контур_3861" data-name="Контур 3861" d="M189.75,93.5a9.631,9.631,0,1,1-.164-11.4l2.042-2.042a12.5,12.5,0,1,0,.171,15.489Z" transform="translate(-71.46)" fill="#1E1E1E"/>
    <path id="Контур_3862" data-name="Контур 3862" d="M86.637,94.426a6.672,6.672,0,0,0-6.652-6.672H71.642a3.8,3.8,0,1,1,0-7.6h8.322a3.791,3.791,0,0,1,2.9,1.344l2.031-2.031a6.648,6.648,0,0,0-4.907-2.184H71.641a6.673,6.673,0,0,0,0,13.346h8.322a3.8,3.8,0,1,1,0,7.6H70.528a3.791,3.791,0,0,1-2.9-1.344L65.6,98.915a6.647,6.647,0,0,0,4.907,2.184h9.6v-.007A6.67,6.67,0,0,0,86.637,94.426Z" transform="translate(0 -1.277)" fill="#1E1E1E"/>
    <path id="Контур_3863" data-name="Контур 3863" d="M538.967,98.15l-1.122,1.944,6.449-.5-2.8-5.833-1.122,1.944-3.043-1.757.094-.165,2.654-4.6L533.2,77.279H519.452l-6.877,11.91,6.877,11.911H533.2l2.719-4.708Zm-12.4-8.845,2.8,5.833,1.122-1.944,3.054,1.789-1.934,3.35H521.049l-.046-.08-5.233-9.063,5.279-9.143h10.558l.046.08,5.233,9.063-1.936,3.353-3.054-1.79,1.122-1.944Z" transform="translate(-306.273 -1.277)" fill="#0168fa"/>
  </g>
</svg>
