<?xml version="1.0" standalone="no"?>
<!DOCTYPE svg PUBLIC "-//W3C//DTD SVG 1.1//EN" "http://www.w3.org/Graphics/SVG/1.1/DTD/svg11.dtd" >
<svg xmlns="http://www.w3.org/2000/svg" xmlns:xlink="http://www.w3.org/1999/xlink" version="1.1">
<metadata>
Created by FontForge 20190801 at Wed Jun 19 20:56:10 2019
 By Jimmy Wärting
Copyright 2019 The Darkergrotesque Project Authors (https://github.com/bettergui/DarkerGrotesque)
</metadata>
<defs>
<font id="DarkerGrotesque-Regular" horiz-adv-x="0" >
  <font-face 
    font-family="Darker Grotesque"
    font-weight="400"
    font-stretch="normal"
    units-per-em="1000"
    panose-1="0 0 0 0 0 0 0 0 0 0"
    ascent="800"
    descent="-200"
    x-height="406"
    cap-height="563"
    bbox="-52 -296 1656 1060"
    underline-thickness="50"
    underline-position="-125"
    unicode-range="U+000D-240D"
  />
<missing-glyph horiz-adv-x="500" 
d="M50 -296h400v1356h-400v-1356zM100 -246v1256h300v-1256h-300z" />
    <glyph glyph-name="w_w_w.liga" unicode="www" horiz-adv-x="1676" 
d="M118 0l-116 393v13h43l104 -367h2l113 367h42l115 -367h2l102 367h43v-13l-114 -393h-66l-102 326h-2l-101 -326h-65zM662 0l-116 393v13h43l104 -367h2l113 367h42l115 -367h2l102 367h43v-13l-114 -393h-66l-102 326h-2l-101 -326h-65zM1206 0l-116 393v13h43l104 -367
h2l113 367h42l115 -367h2l102 367h43v-13l-114 -393h-66l-102 326h-2l-101 -326h-65z" />
    <glyph glyph-name=".notdef" horiz-adv-x="500" 
d="M50 -296h400v1356h-400v-1356zM100 -246v1256h300v-1256h-300z" />
    <glyph glyph-name="A" unicode="A" horiz-adv-x="529" 
d="M20 0l207 563h75l209 -563h-48l-67 185h-262l-68 -185h-46zM265 543l-116 -318h232z" />
    <glyph glyph-name="Aacute" unicode="&#xc1;" horiz-adv-x="529" 
d="M20 0l207 563h75l209 -563h-48l-67 185h-262l-68 -185h-46zM265 543l-116 -318h232zM277 610h-24v8l54 104h44v-12z" />
    <glyph glyph-name="Abreve" unicode="&#x102;" horiz-adv-x="529" 
d="M20 0l207 563h75l209 -563h-48l-67 185h-262l-68 -185h-46zM265 543l-116 -318h232zM265 620q-51 0 -81 23t-30 61h35q0 -33 22 -42t53 -9q30 0 52 9t22 42h35q0 -38 -29 -61t-79 -23z" />
    <glyph glyph-name="uni1EAE" unicode="&#x1eae;" horiz-adv-x="529" 
d="M20 0l207 563h75l209 -563h-48l-67 185h-262l-68 -185h-46zM265 543l-116 -318h232zM265 620q-51 0 -81 23t-30 61h35q0 -33 22 -42t53 -9q30 0 52 9t22 42h35q0 -38 -29 -61t-79 -23zM276 716h-24v8l54 104h44v-12z" />
    <glyph glyph-name="uni1EB6" unicode="&#x1eb6;" horiz-adv-x="529" 
d="M20 0l207 563h75l209 -563h-48l-67 185h-262l-68 -185h-46zM265 543l-116 -318h232zM265 -136q-20 0 -27 10t-7 24q0 13 7 23t27 10q21 0 27.5 -10t6.5 -23q0 -14 -6.5 -24t-27.5 -10zM265 621q-51 0 -81 23t-30 61h35q0 -33 22 -42t53 -9q30 0 52 9t22 42h35
q0 -38 -29 -61t-79 -23z" />
    <glyph glyph-name="uni1EB0" unicode="&#x1eb0;" horiz-adv-x="529" 
d="M20 0l207 563h75l209 -563h-48l-67 185h-262l-68 -185h-46zM265 543l-116 -318h232zM265 621q-51 0 -81 23t-30 61h35q0 -33 22 -42t53 -9q30 0 52 9t22 42h35q0 -38 -29 -61t-79 -23zM244 717l-75 100v12h44l54 -104v-8h-23z" />
    <glyph glyph-name="uni1EB2" unicode="&#x1eb2;" horiz-adv-x="529" 
d="M20 0l207 563h75l209 -563h-48l-67 185h-262l-68 -185h-46zM265 543l-116 -318h232zM265 621q-51 0 -81 23t-30 61h35q0 -33 22 -42t53 -9q30 0 52 9t22 42h35q0 -38 -29 -61t-79 -23zM244 714v9q4 13 18 22.5t27 20t13 27.5q0 16 -15 23t-32 1.5t-24 -27.5l-27 11
q7 26 27.5 39t44.5 12t41 -14.5t17 -39.5q0 -25 -12.5 -38t-26 -22.5t-14.5 -23.5h-37z" />
    <glyph glyph-name="uni1EB4" unicode="&#x1eb4;" horiz-adv-x="529" 
d="M20 0l207 563h75l209 -563h-48l-67 185h-262l-68 -185h-46zM265 543l-116 -318h232zM264 621q-51 0 -81 23t-30 61h35q0 -33 22 -42t53 -9q30 0 52 9t22 42h35q0 -38 -29 -61t-79 -23zM315 758q-22 0 -35 8t-22.5 19t-19 19t-22.5 8q-18 0 -21.5 -14t-3.5 -39h-34
q-1 31 9 57t48 26q22 0 35 -8.5t22 -19t18.5 -18.5t23.5 -8q18 0 21.5 14t3.5 40h33q2 -34 -9 -59t-47 -25z" />
    <glyph glyph-name="Acircumflex" unicode="&#xc2;" horiz-adv-x="529" 
d="M20 0l207 563h75l209 -563h-48l-67 185h-262l-68 -185h-46zM265 543l-116 -318h232zM151 622v6l104 101h22l105 -101v-6h-46l-69 74h-2l-68 -74h-46z" />
    <glyph glyph-name="uni1EA4" unicode="&#x1ea4;" horiz-adv-x="529" 
d="M20 0l207 563h75l209 -563h-48l-67 185h-262l-68 -185h-46zM265 543l-116 -318h232zM151 604v6l104 101h22l105 -101v-6h-46l-69 74h-2l-68 -74h-46zM392 690h-24v8l54 104h44v-12z" />
    <glyph glyph-name="uni1EAC" unicode="&#x1eac;" horiz-adv-x="529" 
d="M20 0l207 563h75l209 -563h-48l-67 185h-262l-68 -185h-46zM265 543l-116 -318h232zM255 -136q-20 0 -27 10t-7 24q0 13 7 23t27 10q21 0 27.5 -10t6.5 -23q0 -14 -6.5 -24t-27.5 -10zM151 615v6l104 101h22l105 -101v-6h-46l-69 74h-2l-68 -74h-46z" />
    <glyph glyph-name="uni1EA6" unicode="&#x1ea6;" horiz-adv-x="529" 
d="M20 0l207 563h75l209 -563h-48l-67 185h-262l-68 -185h-46zM265 543l-116 -318h232zM134 690l-75 100v12h44l54 -104v-8h-23zM151 604v6l104 101h22l105 -101v-6h-46l-69 74h-2l-68 -74h-46z" />
    <glyph glyph-name="uni1EA8" unicode="&#x1ea8;" horiz-adv-x="529" 
d="M20 0l207 563h75l209 -563h-48l-67 185h-262l-68 -185h-46zM265 543l-116 -318h232zM151 615v6l104 101h22l105 -101v-6h-46l-69 74h-2l-68 -74h-46zM356 699v9q4 13 18 22.5t27 20t13 27.5q0 16 -15 23t-32 1.5t-24 -27.5l-27 11q7 26 27.5 39t44.5 12t41 -14.5
t17 -39.5q0 -25 -12.5 -38t-26 -22.5t-14.5 -23.5h-37z" />
    <glyph glyph-name="uni1EAA" unicode="&#x1eaa;" horiz-adv-x="529" 
d="M20 0l207 563h75l209 -563h-48l-67 185h-262l-68 -185h-46zM265 543l-116 -318h232zM151 615v6l104 101h22l105 -101v-6h-46l-69 74h-2l-68 -74h-46zM315 769q-22 0 -35 8t-22.5 19t-19 19t-22.5 8q-18 0 -21.5 -14t-3.5 -39h-34q-1 31 9 57t48 26q22 0 35 -8.5t22 -19
t18.5 -18.5t23.5 -8q18 0 21.5 14t3.5 40h33q2 -34 -9 -59t-47 -25z" />
    <glyph glyph-name="Adieresis" unicode="&#xc4;" horiz-adv-x="529" 
d="M20 0l207 563h75l209 -563h-48l-67 185h-262l-68 -185h-46zM265 543l-116 -318h232zM194 621q-24 0 -32.5 12t-8.5 29q0 15 8.5 27t32.5 12t32 -12t8 -27q0 -17 -8 -29t-32 -12zM338 621q-24 0 -32.5 12t-8.5 29q0 15 8.5 27t32.5 12q25 0 32.5 -12t7.5 -27
q0 -17 -7.5 -29t-32.5 -12z" />
    <glyph glyph-name="uni1EA0" unicode="&#x1ea0;" horiz-adv-x="529" 
d="M20 0l207 563h75l209 -563h-48l-67 185h-262l-68 -185h-46zM265 543l-116 -318h232zM255 -136q-20 0 -27 10t-7 24q0 13 7 23t27 10q21 0 27.5 -10t6.5 -23q0 -14 -6.5 -24t-27.5 -10z" />
    <glyph glyph-name="Agrave" unicode="&#xc0;" horiz-adv-x="529" 
d="M20 0l207 563h75l209 -563h-48l-67 185h-262l-68 -185h-46zM265 543l-116 -318h232zM245 610l-75 100v12h44l54 -104v-8h-23z" />
    <glyph glyph-name="uni1EA2" unicode="&#x1ea2;" horiz-adv-x="529" 
d="M20 0l207 563h75l209 -563h-48l-67 185h-262l-68 -185h-46zM265 543l-116 -318h232zM247 617v9q4 13 18 22.5t27 20t13 27.5q0 16 -15 23t-32 1.5t-24 -27.5l-27 11q7 26 27.5 39t44.5 12t41 -14.5t17 -39.5q0 -25 -12.5 -38t-26 -22.5t-14.5 -23.5h-37z" />
    <glyph glyph-name="Amacron" unicode="&#x100;" horiz-adv-x="600" 
d="M20 0l207 563h75l209 -563h-48l-67 185h-262l-68 -185h-46zM265 543l-116 -318h232zM148 619v37h235v-37h-235z" />
    <glyph glyph-name="Aogonek" unicode="&#x104;" horiz-adv-x="532" 
d="M20 0l207 563h75l201 -542h1l7 -21l-15 -8t-35 -22.5t-35 -35.5t-15 -46q0 -20 12 -33.5t35 -13.5q19 0 29.5 8.5t14.5 16.5l4 8l31 -23l-9 -11.5t-26.5 -23t-45.5 -11.5q-37 0 -59.5 21.5t-22.5 56.5q0 28 14 50.5t35 39.5t40 28l-67 184h-262l-68 -185h-46zM265 543
l-116 -318h232z" />
    <glyph glyph-name="Aring" unicode="&#xc5;" horiz-adv-x="529" 
d="M20 0l207 563h75l209 -563h-48l-67 185h-262l-68 -185h-46zM265 543l-116 -318h232zM262 600q-40 0 -63.5 23.5t-23.5 61.5q0 40 23 64t64 24t65 -24t24 -64q0 -37 -24 -61t-65 -24zM262 629q27 0 42 17t15 41t-15 40.5t-42 16.5t-42 -16.5t-15 -40.5q0 -25 16 -41.5
t41 -16.5z" />
    <glyph glyph-name="Atilde" unicode="&#xc3;" horiz-adv-x="529" 
d="M20 0l207 563h75l209 -563h-48l-67 185h-262l-68 -185h-46zM265 543l-116 -318h232zM316 619q-22 0 -35 8t-22.5 19t-19 19t-22.5 8q-18 0 -21.5 -14t-3.5 -39h-34q-1 31 9 57t48 26q22 0 35 -8.5t22 -19t18.5 -18.5t23.5 -8q18 0 21.5 14t3.5 40h33q2 -34 -9 -59
t-47 -25z" />
    <glyph glyph-name="AE" unicode="&#xc6;" horiz-adv-x="826" 
d="M20 0l368 563h394v-41h-320v-217h257v-40h-257v-226h329v-39h-374v185h-228l-121 -185h-48zM215 225h202v309z" />
    <glyph glyph-name="B" unicode="B" horiz-adv-x="525" 
d="M63 0v563h193q39 0 76.5 -5.5t67.5 -21t48 -45t18 -78.5q0 -32 -12 -59.5t-44.5 -44.5t-92.5 -18v-3q70 -1 107.5 -20.5t51.5 -51.5t14 -69q0 -49 -19.5 -78t-52 -44t-71.5 -20t-78 -5h-206zM108 310h144q51 0 88.5 6.5t58 28t20.5 66.5q0 51 -23 74.5t-61 30.5t-82 7
h-145v-213zM108 39h159q49 0 89 7.5t63.5 31.5t23.5 72q0 51 -25.5 76.5t-69 35t-95.5 9.5h-145v-232z" />
    <glyph glyph-name="C" unicode="C" horiz-adv-x="593" 
d="M298 -10q-77 0 -138.5 33t-97 97.5t-35.5 160.5q1 97 35.5 162t96.5 97.5t143 32.5q98 0 164.5 -53t84.5 -152h-47q-15 80 -70 121.5t-132 41.5q-106 0 -167.5 -64t-61.5 -184q0 -124 60.5 -187.5t164.5 -63.5q85 0 140 42t69 120h49q-19 -97 -85 -150.5t-173 -53.5z" />
    <glyph glyph-name="Cacute" unicode="&#x106;" horiz-adv-x="593" 
d="M298 -10q-77 0 -138.5 33t-97 97.5t-35.5 160.5q1 97 35.5 162t96.5 97.5t143 32.5q98 0 164.5 -53t84.5 -152h-47q-15 80 -70 121.5t-132 41.5q-106 0 -167.5 -64t-61.5 -184q0 -124 60.5 -187.5t164.5 -63.5q85 0 140 42t69 120h49q-19 -97 -85 -150.5t-173 -53.5z
M301 610h-24v8l54 104h44v-12z" />
    <glyph glyph-name="Ccaron" unicode="&#x10c;" horiz-adv-x="600" 
d="M298 -10q-77 0 -138.5 33t-97 97.5t-35.5 160.5q1 97 35.5 162t96.5 97.5t143 32.5q98 0 164.5 -53t84.5 -152h-47q-15 80 -70 121.5t-132 41.5q-106 0 -167.5 -64t-61.5 -184q0 -124 60.5 -187.5t164.5 -63.5q85 0 140 42t69 120h49q-19 -97 -85 -150.5t-173 -53.5z
M151 747h50l94 -109l94 109h50l-134 -136h-21z" />
    <glyph glyph-name="Ccedilla" unicode="&#xc7;" horiz-adv-x="593" 
d="M298 -10q-77 0 -138.5 33t-97 97.5t-35.5 160.5q1 97 35.5 162t96.5 97.5t143 32.5q98 0 164.5 -53t84.5 -152h-47q-15 80 -70 121.5t-132 41.5q-106 0 -167.5 -64t-61.5 -184q0 -124 60.5 -187.5t164.5 -63.5q85 0 140 42t69 120h49q-19 -97 -85 -150.5t-173 -53.5z
M209 -122l19 26q14 -16 36.5 -24.5t45 -8t37.5 10.5t14 30q-2 20 -18.5 26t-39 1t-40.5 -19l-22 18l38 77l28 -11l-40 -62q12 13 33.5 19.5t43.5 4.5t37 -15t15 -39q0 -29 -19.5 -46.5t-49.5 -23t-61.5 3t-56.5 32.5z" />
    <glyph glyph-name="Cdotaccent" unicode="&#x10a;" horiz-adv-x="593" 
d="M298 -10q-77 0 -138.5 33t-97 97.5t-35.5 160.5q1 97 35.5 162t96.5 97.5t143 32.5q98 0 164.5 -53t84.5 -152h-47q-15 80 -70 121.5t-132 41.5q-106 0 -167.5 -64t-61.5 -184q0 -124 60.5 -187.5t164.5 -63.5q85 0 140 42t69 120h49q-19 -97 -85 -150.5t-173 -53.5z
M296 621q-24 0 -32.5 12.5t-8.5 28.5t8.5 28t32.5 12t32 -12t8 -28t-8 -28.5t-32 -12.5z" />
    <glyph glyph-name="D" unicode="D" horiz-adv-x="578" 
d="M547 282q0 -111 -41.5 -172.5t-116.5 -85.5t-175 -24h-146v563h146q100 0 175 -31.5t116.5 -93.5t41.5 -156zM114 40h108q83 0 145.5 19t97 71t34.5 152q0 82 -34.5 135.5t-97 79t-145.5 25.5h-108v-482z" />
    <glyph glyph-name="Eth" unicode="&#xd0;" horiz-adv-x="600" 
d="M68 0v269h-68v35h68v259h146q100 0 175 -31.5t116.5 -93.5t41.5 -156q0 -111 -41.5 -172.5t-116.5 -85.5t-175 -24h-146zM114 40h108q83 0 145.5 19t97 71t34.5 152q0 82 -34.5 135.5t-97 79t-145.5 25.5h-108v-218h183v-35h-183v-229z" />
    <glyph glyph-name="Dcaron" unicode="&#x10e;" horiz-adv-x="578" 
d="M547 282q0 -111 -41.5 -172.5t-116.5 -85.5t-175 -24h-146v563h146q100 0 175 -31.5t116.5 -93.5t41.5 -156zM114 40h108q83 0 145.5 19t97 71t34.5 152q0 82 -34.5 135.5t-97 79t-145.5 25.5h-108v-482zM120 747h50l94 -109l94 109h50l-134 -136h-21z" />
    <glyph glyph-name="Dcroat" unicode="&#x110;" horiz-adv-x="600" 
d="M68 0v269h-68v35h68v259h146q100 0 175 -31.5t116.5 -93.5t41.5 -156q0 -111 -41.5 -172.5t-116.5 -85.5t-175 -24h-146zM114 40h108q83 0 145.5 19t97 71t34.5 152q0 82 -34.5 135.5t-97 79t-145.5 25.5h-108v-218h183v-35h-183v-229z" />
    <glyph glyph-name="E" unicode="E" horiz-adv-x="468" 
d="M104 39h329v-39h-375v563h366v-41h-320v-217h256v-40h-256v-226z" />
    <glyph glyph-name="Eacute" unicode="&#xc9;" horiz-adv-x="468" 
d="M104 39h329v-39h-375v563h366v-41h-320v-217h256v-40h-256v-226zM235 610h-24v8l54 104h44v-12z" />
    <glyph glyph-name="Ecaron" unicode="&#x11a;" horiz-adv-x="468" 
d="M104 39h329v-39h-375v563h366v-41h-320v-217h256v-40h-256v-226zM96 747h50l94 -109l94 109h50l-134 -136h-21z" />
    <glyph glyph-name="Ecircumflex" unicode="&#xca;" horiz-adv-x="468" 
d="M104 39h329v-39h-375v563h366v-41h-320v-217h256v-40h-256v-226zM124 636v6l104 101h22l105 -101v-6h-46l-69 74h-2l-68 -74h-46z" />
    <glyph glyph-name="uni1EBE" unicode="&#x1ebe;" horiz-adv-x="468" 
d="M104 39h329v-39h-375v563h366v-41h-320v-217h256v-40h-256v-226zM124 625v6l104 101h22l105 -101v-6h-46l-69 74h-2l-68 -74h-46zM365 711h-24v8l54 104h44v-12z" />
    <glyph glyph-name="uni1EC6" unicode="&#x1ec6;" horiz-adv-x="468" 
d="M104 39h329v-39h-375v563h366v-41h-320v-217h256v-40h-256v-226zM242 -136q-20 0 -27 10t-7 24q0 13 7 23t27 10q21 0 27.5 -10t6.5 -23q0 -14 -6.5 -24t-27.5 -10zM124 636v6l104 101h22l105 -101v-6h-46l-69 74h-2l-68 -74h-46z" />
    <glyph glyph-name="uni1EC0" unicode="&#x1ec0;" horiz-adv-x="468" 
d="M104 39h329v-39h-375v563h366v-41h-320v-217h256v-40h-256v-226zM107 712l-75 100v12h44l54 -104v-8h-23zM124 626v6l104 101h22l105 -101v-6h-46l-69 74h-2l-68 -74h-46z" />
    <glyph glyph-name="uni1EC2" unicode="&#x1ec2;" horiz-adv-x="468" 
d="M104 39h329v-39h-375v563h366v-41h-320v-217h256v-40h-256v-226zM125 636v6l104 101h22l105 -101v-6h-46l-69 74h-2l-68 -74h-46zM330 720v9q4 13 18 22.5t27 20t13 27.5q0 16 -15 23t-32 1.5t-24 -27.5l-27 11q7 26 27.5 39t44.5 12t41 -14.5t17 -39.5q0 -25 -12.5 -38
t-26 -22.5t-14.5 -23.5h-37z" />
    <glyph glyph-name="uni1EC4" unicode="&#x1ec4;" horiz-adv-x="468" 
d="M104 39h329v-39h-375v563h366v-41h-320v-217h256v-40h-256v-226zM125 636v6l104 101h22l105 -101v-6h-46l-69 74h-2l-68 -74h-46zM289 790q-22 0 -35 8t-22.5 19t-19 19t-22.5 8q-18 0 -21.5 -14t-3.5 -39h-34q-1 31 9 57t48 26q22 0 35 -8.5t22 -19t18.5 -18.5t23.5 -8
q18 0 21.5 14t3.5 40h33q2 -34 -9 -59t-47 -25z" />
    <glyph glyph-name="Edieresis" unicode="&#xcb;" horiz-adv-x="468" 
d="M104 39h329v-39h-375v563h366v-41h-320v-217h256v-40h-256v-226zM170 621q-24 0 -32.5 12t-8.5 29q0 15 8.5 27t32.5 12t32 -12t8 -27q0 -17 -8 -29t-32 -12zM314 621q-24 0 -32.5 12t-8.5 29q0 15 8.5 27t32.5 12q25 0 32.5 -12t7.5 -27q0 -17 -7.5 -29t-32.5 -12z" />
    <glyph glyph-name="Edotaccent" unicode="&#x116;" horiz-adv-x="468" 
d="M104 39h329v-39h-375v563h366v-41h-320v-217h256v-40h-256v-226zM242 621q-24 0 -32.5 12.5t-8.5 28.5t8.5 28t32.5 12t32 -12t8 -28t-8 -28.5t-32 -12.5z" />
    <glyph glyph-name="uni1EB8" unicode="&#x1eb8;" horiz-adv-x="468" 
d="M104 39h329v-39h-375v563h366v-41h-320v-217h256v-40h-256v-226zM243 -136q-20 0 -27 10t-7 24q0 13 7 23t27 10q21 0 27.5 -10t6.5 -23q0 -14 -6.5 -24t-27.5 -10z" />
    <glyph glyph-name="Egrave" unicode="&#xc8;" horiz-adv-x="468" 
d="M104 39h329v-39h-375v563h366v-41h-320v-217h256v-40h-256v-226zM213 610l-75 100v12h44l54 -104v-8h-23z" />
    <glyph glyph-name="uni1EBA" unicode="&#x1eba;" horiz-adv-x="468" 
d="M104 39h329v-39h-375v563h366v-41h-320v-217h256v-40h-256v-226zM214 617v9q4 13 18 22.5t27 20t13 27.5q0 16 -15 23t-32 1.5t-24 -27.5l-27 11q7 26 27.5 39t44.5 12t41 -14.5t17 -39.5q0 -25 -12.5 -38t-26 -22.5t-14.5 -23.5h-37z" />
    <glyph glyph-name="Emacron" unicode="&#x112;" horiz-adv-x="468" 
d="M104 39h329v-39h-375v563h366v-41h-320v-217h256v-40h-256v-226zM122 619v37h235v-37h-235z" />
    <glyph glyph-name="Eogonek" unicode="&#x118;" horiz-adv-x="468" 
d="M104 39h329v-39l-14.5 -8t-34 -22.5t-34 -35.5t-14.5 -46q0 -20 12.5 -33.5t35.5 -13.5q19 0 29.5 8.5t14.5 16.5l4 8l30 -23l-8.5 -11.5t-26.5 -23t-45 -11.5q-37 0 -59.5 21.5t-22.5 56.5q0 28 13.5 50t33.5 39t39 28h-328v563h366v-41h-320v-217h256v-40h-256v-226z
" />
    <glyph glyph-name="uni1EBC" unicode="&#x1ebc;" horiz-adv-x="468" 
d="M104 39h329v-39h-375v563h366v-41h-320v-217h256v-40h-256v-226zM286 624q-22 0 -35 8t-22.5 19t-19 19t-22.5 8q-18 0 -21.5 -14t-3.5 -39h-34q-1 31 9 57t48 26q22 0 35 -8.5t22 -19t18.5 -18.5t23.5 -8q18 0 21.5 14t3.5 40h33q2 -34 -9 -59t-47 -25z" />
    <glyph glyph-name="F" unicode="F" horiz-adv-x="481" 
d="M118 0h-45v563h383v-41h-338v-201h270v-40h-270v-281z" />
    <glyph glyph-name="G" unicode="G" horiz-adv-x="603" 
d="M291 -13q-81 0 -140 34.5t-91.5 100t-31.5 157.5q0 139 73.5 216.5t198.5 77.5q102 0 167 -49.5t83 -143.5l-44 -5q-17 80 -70.5 117.5t-135.5 37.5q-113 0 -169 -65t-60 -184q0 -119 60.5 -185.5t167.5 -66.5q89 0 145.5 49.5t64.5 141.5h-172v38h224v-258h-33l-12 137
h-2q-5 -21 -20.5 -47t-42 -49.5t-66 -38.5t-94.5 -15z" />
    <glyph glyph-name="Gbreve" unicode="&#x11e;" horiz-adv-x="603" 
d="M291 -13q-81 0 -140 34.5t-91.5 100t-31.5 157.5q0 139 73.5 216.5t198.5 77.5q102 0 167 -49.5t83 -143.5l-44 -5q-17 80 -70.5 117.5t-135.5 37.5q-113 0 -169 -65t-60 -184q0 -119 60.5 -185.5t167.5 -66.5q89 0 145.5 49.5t64.5 141.5h-172v38h224v-258h-33l-12 137
h-2q-5 -21 -20.5 -47t-42 -49.5t-66 -38.5t-94.5 -15zM293 621q-51 0 -81 23t-30 61h35q0 -33 22 -42t53 -9q30 0 52 9t22 42h35q0 -38 -29 -61t-79 -23z" />
    <glyph glyph-name="uni0122" unicode="&#x122;" horiz-adv-x="603" 
d="M291 -13q-81 0 -140 34.5t-91.5 100t-31.5 157.5q0 139 73.5 216.5t198.5 77.5q102 0 167 -49.5t83 -143.5l-44 -5q-17 80 -70.5 117.5t-135.5 37.5q-113 0 -169 -65t-60 -184q0 -119 60.5 -185.5t167.5 -66.5q89 0 145.5 49.5t64.5 141.5h-172v38h224v-258h-33l-12 137
h-2q-5 -21 -20.5 -47t-42 -49.5t-66 -38.5t-94.5 -15zM245 -215v39h15q24 0 29 12.5t5 28.5q-44 -6 -44 37q0 14 7 24.5t27 10.5q19 0 26.5 -11t7.5 -38q0 -49 -12 -76t-44 -27h-17z" />
    <glyph glyph-name="Gdotaccent" unicode="&#x120;" horiz-adv-x="603" 
d="M291 -13q-81 0 -140 34.5t-91.5 100t-31.5 157.5q0 139 73.5 216.5t198.5 77.5q102 0 167 -49.5t83 -143.5l-44 -5q-17 80 -70.5 117.5t-135.5 37.5q-113 0 -169 -65t-60 -184q0 -119 60.5 -185.5t167.5 -66.5q89 0 145.5 49.5t64.5 141.5h-172v38h224v-258h-33l-12 137
h-2q-5 -21 -20.5 -47t-42 -49.5t-66 -38.5t-94.5 -15zM293 621q-24 0 -32.5 12.5t-8.5 28.5t8.5 28t32.5 12t32 -12t8 -28t-8 -28.5t-32 -12.5z" />
    <glyph glyph-name="H" unicode="H" horiz-adv-x="578" 
d="M117 0h-46v563h46v-252h346v252h44v-563h-44v273h-346v-273z" />
    <glyph glyph-name="Hbar" unicode="&#x126;" horiz-adv-x="583" 
d="M71 0v429h-49v37h49v97h46v-97h346v97h44v-97h49v-37h-49v-429h-44v273h-346v-273h-46zM117 311h346v118h-346v-118z" />
    <glyph glyph-name="I" unicode="I" horiz-adv-x="323" 
d="M258 40v-40h-202v40h79v482h-79v41h202v-41h-78v-482h78z" />
    <glyph glyph-name="Iacute" unicode="&#xcd;" horiz-adv-x="323" 
d="M258 40v-40h-202v40h79v482h-79v41h202v-41h-78v-482h78zM160 610h-24v8l54 104h44v-12z" />
    <glyph glyph-name="Icircumflex" unicode="&#xce;" horiz-adv-x="323" 
d="M258 40v-40h-202v40h79v482h-79v41h202v-41h-78v-482h78zM43 636v6l104 101h22l105 -101v-6h-46l-69 74h-2l-68 -74h-46z" />
    <glyph glyph-name="Idieresis" unicode="&#xcf;" horiz-adv-x="323" 
d="M258 40v-40h-202v40h79v482h-79v41h202v-41h-78v-482h78zM87 621q-24 0 -32.5 12t-8.5 29q0 15 8.5 27t32.5 12t32 -12t8 -27q0 -17 -8 -29t-32 -12zM231 621q-24 0 -32.5 12t-8.5 29q0 15 8.5 27t32.5 12q25 0 32.5 -12t7.5 -27q0 -17 -7.5 -29t-32.5 -12z" />
    <glyph glyph-name="Idotaccent" unicode="&#x130;" horiz-adv-x="323" 
d="M258 40v-40h-202v40h79v482h-79v41h202v-41h-78v-482h78zM144 628q-24 0 -32.5 12.5t-8.5 28.5t8.5 28t32.5 12t32 -12t8 -28t-8 -28.5t-32 -12.5z" />
    <glyph glyph-name="uni1ECA" unicode="&#x1eca;" horiz-adv-x="323" 
d="M258 40v-40h-202v40h79v482h-79v41h202v-41h-78v-482h78zM157 -136q-20 0 -27 10t-7 24q0 13 7 23t27 10q21 0 27.5 -10t6.5 -23q0 -14 -6.5 -24t-27.5 -10z" />
    <glyph glyph-name="Igrave" unicode="&#xcc;" horiz-adv-x="323" 
d="M258 40v-40h-202v40h79v482h-79v41h202v-41h-78v-482h78zM134 610l-75 100v12h44l54 -104v-8h-23z" />
    <glyph glyph-name="uni1EC8" unicode="&#x1ec8;" horiz-adv-x="323" 
d="M258 40v-40h-202v40h79v482h-79v41h202v-41h-78v-482h78zM136 617v9q4 13 18 22.5t27 20t13 27.5q0 16 -15 23t-32 1.5t-24 -27.5l-27 11q7 26 27.5 39t44.5 12t41 -14.5t17 -39.5q0 -25 -12.5 -38t-26 -22.5t-14.5 -23.5h-37z" />
    <glyph glyph-name="Imacron" unicode="&#x12a;" horiz-adv-x="318" 
d="M258 40v-40h-202v40h79v482h-79v41h202v-41h-78v-482h78zM40 619v37h235v-37h-235z" />
    <glyph glyph-name="Iogonek" unicode="&#x12e;" horiz-adv-x="323" 
d="M158 -195q-36 0 -59 21.5t-23 56.5q0 28 14 50t34 39t39 28h-107v40h79v482h-79v41h202v-41h-78v-482h78v-40h-48l-15 -8t-34 -22.5t-33.5 -35.5t-14.5 -46q0 -20 12 -33.5t36 -13.5q19 0 29.5 8.5t14.5 16.5l4 8l30 -23l-8.5 -11.5t-26.5 -23t-46 -11.5z" />
    <glyph glyph-name="Itilde" unicode="&#x128;" horiz-adv-x="323" 
d="M258 40v-40h-202v40h79v482h-79v41h202v-41h-78v-482h78zM209 620q-22 0 -35 8t-22.5 19t-19 19t-22.5 8q-18 0 -21.5 -14t-3.5 -39h-34q-1 31 9 57t48 26q22 0 35 -8.5t22 -19t18.5 -18.5t23.5 -8q18 0 21.5 14t3.5 40h33q2 -34 -9 -59t-47 -25z" />
    <glyph glyph-name="J" unicode="J" horiz-adv-x="413" 
d="M196 -10q-20 0 -46 6t-50.5 22t-40.5 44.5t-16 73.5h42q0 -23 9.5 -47.5t33 -41.5t68.5 -17q55 0 81.5 29.5t26.5 95.5v370h-109v37h154v-403q0 -82 -36.5 -125.5t-116.5 -43.5z" />
    <glyph glyph-name="K" unicode="K" horiz-adv-x="540" 
d="M73 -1v564h46v-307l320 307h59v-10l-249 -232l261 -311v-10h-54l-240 290l-97 -90v-201h-46z" />
    <glyph glyph-name="uni0136" unicode="&#x136;" horiz-adv-x="551" 
d="M73 -1v564h46v-307l318 307h65l-253 -240l263 -323h-58l-238 291l-97 -91v-201h-46zM210 -215v39h15q23 0 28 12.5t5 28.5q-43 -6 -43 37q0 14 7 24.5t27 10.5q19 0 26.5 -11t7.5 -38q0 -49 -12 -76t-44 -27h-17z" />
    <glyph glyph-name="L" unicode="L" horiz-adv-x="466" 
d="M68 0v563h45v-523h330v-40h-375z" />
    <glyph glyph-name="Lacute" unicode="&#x139;" horiz-adv-x="466" 
d="M68 0v563h45v-523h330v-40h-375zM108 610h-24v8l54 104h44v-12z" />
    <glyph glyph-name="Lcaron" unicode="&#x13d;" horiz-adv-x="456" 
d="M68 0v563h45v-523h330v-40h-375zM-52 747h50l94 -109l94 109h50l-134 -136h-21z" />
    <glyph glyph-name="uni013B" unicode="&#x13b;" horiz-adv-x="466" 
d="M68 0v563h45v-523h330v-40h-375zM200 -215v39h15q24 0 29 12.5t5 28.5q-44 -6 -44 37q0 14 7 24.5t27 10.5q19 0 26.5 -11t7.5 -38q0 -49 -12 -76t-44 -27h-17z" />
    <glyph glyph-name="Lslash" unicode="&#x141;" horiz-adv-x="466" 
d="M68 0v264l-73 -37v45l73 37v254h45v-231l143 74v-45l-143 -74v-247h330v-40h-375z" />
    <glyph glyph-name="M" unicode="M" horiz-adv-x="687" 
d="M56 0v563h79l207 -541h2l205 541h79v-563h-46l2 537h-2l-206 -537h-69l-205 537h-2l2 -537h-46z" />
    <glyph glyph-name="N" unicode="N" horiz-adv-x="569" 
d="M465 563h45v-563h-84l-324 542h-2v-542h-45v563h79l329 -542h2v542z" />
    <glyph glyph-name="Nacute" unicode="&#x143;" horiz-adv-x="569" 
d="M465 563h45v-563h-84l-324 542h-2v-542h-45v563h79l329 -542h2v542zM286 610h-24v8l54 104h44v-12z" />
    <glyph glyph-name="Ncaron" unicode="&#x147;" horiz-adv-x="600" 
d="M465 563h45v-563h-84l-324 542h-2v-542h-45v563h79l329 -542h2v542zM143 747h50l94 -109l94 109h50l-134 -136h-21z" />
    <glyph glyph-name="uni0145" unicode="&#x145;" horiz-adv-x="569" 
d="M465 563h45v-563h-84l-324 542h-2v-542h-45v563h79l329 -542h2v542zM236 -215v39h15q24 0 29 12.5t5 28.5q-44 -6 -44 37q0 14 7 24.5t27 10.5q19 0 26.5 -11t7.5 -38q0 -49 -12 -76t-44 -27h-17z" />
    <glyph glyph-name="Eng" unicode="&#x14a;" horiz-adv-x="600" 
d="M406 -200q-28 0 -46.5 9t-29.5 19l28 32q7 -8 18.5 -14.5t27.5 -6.5q31 0 46.5 18t15.5 58v85h-40l-324 542h-2v-542h-45v563h79l329 -542h2v542h45v-647q1 -51 -23 -83.5t-81 -32.5z" />
    <glyph glyph-name="Ntilde" unicode="&#xd1;" horiz-adv-x="569" 
d="M465 563h45v-563h-84l-324 542h-2v-542h-45v563h79l329 -542h2v542zM336 619q-22 0 -35 8t-22.5 19t-19 19t-22.5 8q-18 0 -21.5 -14t-3.5 -39h-34q-1 31 9 57t48 26q22 0 35 -8.5t22 -19t18.5 -18.5t23.5 -8q18 0 21.5 14t3.5 40h33q2 -34 -9 -59t-47 -25z" />
    <glyph glyph-name="O" unicode="O" horiz-adv-x="601" 
d="M293 -14q-132 0 -201 79.5t-69 214.5q0 89 30 154.5t90 102t150 36.5q133 0 201 -79.5t68 -213.5q0 -87 -30.5 -153.5t-90.5 -103.5t-148 -37zM293 29q111 0 168 69t57 182t-56 181.5t-169 68.5q-111 0 -168 -66t-57 -184q0 -112 55.5 -181.5t169.5 -69.5z" />
    <glyph glyph-name="Oacute" unicode="&#xd3;" horiz-adv-x="601" 
d="M293 -14q-132 0 -201 79.5t-69 214.5q0 89 30 154.5t90 102t150 36.5q133 0 201 -79.5t68 -213.5q0 -87 -30.5 -153.5t-90.5 -103.5t-148 -37zM293 29q111 0 168 69t57 182t-56 181.5t-169 68.5q-111 0 -168 -66t-57 -184q0 -112 55.5 -181.5t169.5 -69.5zM301 610h-24v8
l54 104h44v-12z" />
    <glyph glyph-name="Ocircumflex" unicode="&#xd4;" horiz-adv-x="601" 
d="M293 -14q-132 0 -201 79.5t-69 214.5q0 89 30 154.5t90 102t150 36.5q133 0 201 -79.5t68 -213.5q0 -87 -30.5 -153.5t-90.5 -103.5t-148 -37zM293 29q111 0 168 69t57 182t-56 181.5t-169 68.5q-111 0 -168 -66t-57 -184q0 -112 55.5 -181.5t169.5 -69.5zM181 636v6
l104 101h22l105 -101v-6h-46l-69 74h-2l-68 -74h-46z" />
    <glyph glyph-name="uni1ED0" unicode="&#x1ed0;" horiz-adv-x="601" 
d="M293 -14q-132 0 -201 79.5t-69 214.5q0 89 30 154.5t90 102t150 36.5q133 0 201 -79.5t68 -213.5q0 -87 -30.5 -153.5t-90.5 -103.5t-148 -37zM293 29q111 0 168 69t57 182t-56 181.5t-169 68.5q-111 0 -168 -66t-57 -184q0 -112 55.5 -181.5t169.5 -69.5zM180 636v6
l104 101h22l105 -101v-6h-46l-69 74h-2l-68 -74h-46zM421 722h-24v8l54 104h44v-12z" />
    <glyph glyph-name="uni1ED8" unicode="&#x1ed8;" horiz-adv-x="601" 
d="M293 -14q-132 0 -201 79.5t-69 214.5q0 89 30 154.5t90 102t150 36.5q133 0 201 -79.5t68 -213.5q0 -87 -30.5 -153.5t-90.5 -103.5t-148 -37zM293 29q111 0 168 69t57 182t-56 181.5t-169 68.5q-111 0 -168 -66t-57 -184q0 -112 55.5 -181.5t169.5 -69.5zM293 -136
q-20 0 -27 10t-7 24q0 13 7 23t27 10q21 0 27.5 -10t6.5 -23q0 -14 -6.5 -24t-27.5 -10zM178 636v6l104 101h22l105 -101v-6h-46l-69 74h-2l-68 -74h-46z" />
    <glyph glyph-name="uni1ED2" unicode="&#x1ed2;" horiz-adv-x="601" 
d="M293 -14q-132 0 -201 79.5t-69 214.5q0 89 30 154.5t90 102t150 36.5q133 0 201 -79.5t68 -213.5q0 -87 -30.5 -153.5t-90.5 -103.5t-148 -37zM293 29q111 0 168 69t57 182t-56 181.5t-169 68.5q-111 0 -168 -66t-57 -184q0 -112 55.5 -181.5t169.5 -69.5zM163 722
l-75 100v12h44l54 -104v-8h-23zM180 636v6l104 101h22l105 -101v-6h-46l-69 74h-2l-68 -74h-46z" />
    <glyph glyph-name="uni1ED4" unicode="&#x1ed4;" horiz-adv-x="601" 
d="M293 -14q-132 0 -201 79.5t-69 214.5q0 89 30 154.5t90 102t150 36.5q133 0 201 -79.5t68 -213.5q0 -87 -30.5 -153.5t-90.5 -103.5t-148 -37zM293 29q111 0 168 69t57 182t-56 181.5t-169 68.5q-111 0 -168 -66t-57 -184q0 -112 55.5 -181.5t169.5 -69.5zM180 636v6
l104 101h22l105 -101v-6h-46l-69 74h-2l-68 -74h-46zM385 720v9q4 13 18 22.5t27 20t13 27.5q0 16 -15 23t-32 1.5t-24 -27.5l-27 11q7 26 27.5 39t44.5 12t41 -14.5t17 -39.5q0 -25 -12.5 -38t-26 -22.5t-14.5 -23.5h-37z" />
    <glyph glyph-name="uni1ED6" unicode="&#x1ed6;" horiz-adv-x="601" 
d="M293 -14q-132 0 -201 79.5t-69 214.5q0 89 30 154.5t90 102t150 36.5q133 0 201 -79.5t68 -213.5q0 -87 -30.5 -153.5t-90.5 -103.5t-148 -37zM293 29q111 0 168 69t57 182t-56 181.5t-169 68.5q-111 0 -168 -66t-57 -184q0 -112 55.5 -181.5t169.5 -69.5zM178 636v6
l104 101h22l105 -101v-6h-46l-69 74h-2l-68 -74h-46zM342 790q-22 0 -35 8t-22.5 19t-19 19t-22.5 8q-18 0 -21.5 -14t-3.5 -39h-34q-1 31 9 57t48 26q22 0 35 -8.5t22 -19t18.5 -18.5t23.5 -8q18 0 21.5 14t3.5 40h33q2 -34 -9 -59t-47 -25z" />
    <glyph glyph-name="Odieresis" unicode="&#xd6;" horiz-adv-x="601" 
d="M293 -14q-132 0 -201 79.5t-69 214.5q0 89 30 154.5t90 102t150 36.5q133 0 201 -79.5t68 -213.5q0 -87 -30.5 -153.5t-90.5 -103.5t-148 -37zM293 29q111 0 168 69t57 182t-56 181.5t-169 68.5q-111 0 -168 -66t-57 -184q0 -112 55.5 -181.5t169.5 -69.5zM226 621
q-24 0 -32.5 12t-8.5 29q0 15 8.5 27t32.5 12t32 -12t8 -27q0 -17 -8 -29t-32 -12zM370 621q-24 0 -32.5 12t-8.5 29q0 15 8.5 27t32.5 12q25 0 32.5 -12t7.5 -27q0 -17 -7.5 -29t-32.5 -12z" />
    <glyph glyph-name="uni1ECC" unicode="&#x1ecc;" horiz-adv-x="601" 
d="M293 -14q-132 0 -201 79.5t-69 214.5q0 89 30 154.5t90 102t150 36.5q133 0 201 -79.5t68 -213.5q0 -87 -30.5 -153.5t-90.5 -103.5t-148 -37zM293 29q111 0 168 69t57 182t-56 181.5t-169 68.5q-111 0 -168 -66t-57 -184q0 -112 55.5 -181.5t169.5 -69.5zM297 -136
q-20 0 -27 10t-7 24q0 13 7 23t27 10q21 0 27.5 -10t6.5 -23q0 -14 -6.5 -24t-27.5 -10z" />
    <glyph glyph-name="Ograve" unicode="&#xd2;" horiz-adv-x="601" 
d="M293 -14q-132 0 -201 79.5t-69 214.5q0 89 30 154.5t90 102t150 36.5q133 0 201 -79.5t68 -213.5q0 -87 -30.5 -153.5t-90.5 -103.5t-148 -37zM293 29q111 0 168 69t57 182t-56 181.5t-169 68.5q-111 0 -168 -66t-57 -184q0 -112 55.5 -181.5t169.5 -69.5zM280 610
l-75 100v12h44l54 -104v-8h-23z" />
    <glyph glyph-name="uni1ECE" unicode="&#x1ece;" horiz-adv-x="601" 
d="M293 -14q-132 0 -201 79.5t-69 214.5q0 89 30 154.5t90 102t150 36.5q133 0 201 -79.5t68 -213.5q0 -87 -30.5 -153.5t-90.5 -103.5t-148 -37zM293 29q111 0 168 69t57 182t-56 181.5t-169 68.5q-111 0 -168 -66t-57 -184q0 -112 55.5 -181.5t169.5 -69.5zM273 622v9
q4 13 18 22.5t27 20t13 27.5q0 16 -15 23t-32 1.5t-24 -27.5l-27 11q7 26 27.5 39t44.5 12t41 -14.5t17 -39.5q0 -25 -12.5 -38t-26 -22.5t-14.5 -23.5h-37z" />
    <glyph glyph-name="Ohorn" unicode="&#x1a0;" horiz-adv-x="601" 
d="M293 -14q-132 0 -201 79.5t-69 214.5q0 89 30 154.5t90 102t150 36.5q133 0 201 -79.5t68 -213.5q0 -87 -30.5 -153.5t-90.5 -103.5t-148 -37zM293 29q111 0 168 69t57 182t-56 181.5t-169 68.5q-111 0 -168 -66t-57 -184q0 -112 55.5 -181.5t169.5 -69.5zM370 531l2 32
h22q18 0 22.5 6.5t5.5 28.5h48q0 -37 -19.5 -52t-56.5 -15h-24z" />
    <glyph glyph-name="uni1EDA" unicode="&#x1eda;" horiz-adv-x="601" 
d="M293 -14q-132 0 -201 79.5t-69 214.5q0 89 30 154.5t90 102t150 36.5q133 0 201 -79.5t68 -213.5q0 -87 -30.5 -153.5t-90.5 -103.5t-148 -37zM293 29q111 0 168 69t57 182t-56 181.5t-169 68.5q-111 0 -168 -66t-57 -184q0 -112 55.5 -181.5t169.5 -69.5zM370 531l2 32
h22q18 0 22.5 6.5t5.5 28.5h48q0 -37 -19.5 -52t-56.5 -15h-24zM301 610h-24v8l54 104h44v-12z" />
    <glyph glyph-name="uni1EE2" unicode="&#x1ee2;" horiz-adv-x="601" 
d="M293 -14q-132 0 -201 79.5t-69 214.5q0 89 30 154.5t90 102t150 36.5q133 0 201 -79.5t68 -213.5q0 -87 -30.5 -153.5t-90.5 -103.5t-148 -37zM293 29q111 0 168 69t57 182t-56 181.5t-169 68.5q-111 0 -168 -66t-57 -184q0 -112 55.5 -181.5t169.5 -69.5zM370 531l2 32
h22q18 0 22.5 6.5t5.5 28.5h48q0 -37 -19.5 -52t-56.5 -15h-24zM294 -136q-20 0 -27 10t-7 24q0 13 7 23t27 10q21 0 27.5 -10t6.5 -23q0 -14 -6.5 -24t-27.5 -10z" />
    <glyph glyph-name="uni1EDC" unicode="&#x1edc;" horiz-adv-x="601" 
d="M293 -14q-132 0 -201 79.5t-69 214.5q0 89 30 154.5t90 102t150 36.5q133 0 201 -79.5t68 -213.5q0 -87 -30.5 -153.5t-90.5 -103.5t-148 -37zM293 29q111 0 168 69t57 182t-56 181.5t-169 68.5q-111 0 -168 -66t-57 -184q0 -112 55.5 -181.5t169.5 -69.5zM370 531l2 32
h22q18 0 22.5 6.5t5.5 28.5h48q0 -37 -19.5 -52t-56.5 -15h-24zM280 610l-75 100v12h44l54 -104v-8h-23z" />
    <glyph glyph-name="uni1EDE" unicode="&#x1ede;" horiz-adv-x="601" 
d="M293 -14q-132 0 -201 79.5t-69 214.5q0 89 30 154.5t90 102t150 36.5q133 0 201 -79.5t68 -213.5q0 -87 -30.5 -153.5t-90.5 -103.5t-148 -37zM293 29q111 0 168 69t57 182t-56 181.5t-169 68.5q-111 0 -168 -66t-57 -184q0 -112 55.5 -181.5t169.5 -69.5zM370 531l2 32
h22q18 0 22.5 6.5t5.5 28.5h48q0 -37 -19.5 -52t-56.5 -15h-24zM273 622v9q4 13 18 22.5t27 20t13 27.5q0 16 -15 23t-32 1.5t-24 -27.5l-27 11q7 26 27.5 39t44.5 12t41 -14.5t17 -39.5q0 -25 -12.5 -38t-26 -22.5t-14.5 -23.5h-37z" />
    <glyph glyph-name="uni1EE0" unicode="&#x1ee0;" horiz-adv-x="601" 
d="M293 -14q-132 0 -201 79.5t-69 214.5q0 89 30 154.5t90 102t150 36.5q133 0 201 -79.5t68 -213.5q0 -87 -30.5 -153.5t-90.5 -103.5t-148 -37zM293 29q111 0 168 69t57 182t-56 181.5t-169 68.5q-111 0 -168 -66t-57 -184q0 -112 55.5 -181.5t169.5 -69.5zM370 531l2 32
h22q18 0 22.5 6.5t5.5 28.5h48q0 -37 -19.5 -52t-56.5 -15h-24zM345 620q-22 0 -35 8t-22.5 19t-19 19t-22.5 8q-18 0 -21.5 -14t-3.5 -39h-34q-1 31 9 57t48 26q22 0 35 -8.5t22 -19t18.5 -18.5t23.5 -8q18 0 21.5 14t3.5 40h33q2 -34 -9 -59t-47 -25z" />
    <glyph glyph-name="Ohungarumlaut" unicode="&#x150;" horiz-adv-x="598" 
d="M212 639l79 132l43 -19l-99 -124zM337 639l79 132l43 -19l-99 -124zM293 -14q-132 0 -201 79.5t-69 214.5q0 89 30 154.5t90 102t150 36.5q133 0 201 -79.5t68 -213.5q0 -87 -30.5 -153.5t-90.5 -103.5t-148 -37zM293 29q111 0 168 69t57 182t-56 181.5t-169 68.5
q-111 0 -168 -66t-57 -184q0 -112 55.5 -181.5t169.5 -69.5z" />
    <glyph glyph-name="Omacron" unicode="&#x14c;" horiz-adv-x="600" 
d="M293 -14q-132 0 -201 79.5t-69 214.5q0 89 30 154.5t90 102t150 36.5q133 0 201 -79.5t68 -213.5q0 -87 -30.5 -153.5t-90.5 -103.5t-148 -37zM293 29q111 0 168 69t57 182t-56 181.5t-169 68.5q-111 0 -168 -66t-57 -184q0 -112 55.5 -181.5t169.5 -69.5zM177 619v37
h235v-37h-235z" />
    <glyph glyph-name="Oslash" unicode="&#xd8;" horiz-adv-x="600" 
d="M89 -23l39 57q-52 37 -78.5 100t-26.5 146q0 89 30 154.5t90 102t150 36.5q53 0 96 -13.5t75 -38.5l48 69l22 -13l-51 -73q79 -77 79 -224q0 -87 -30.5 -153.5t-90.5 -103.5t-148 -37q-84 0 -144 34l-39 -56zM67 280q1 -70 22 -123.5t64 -86.5l286 414q-27 23 -63.5 34.5
t-82.5 11.5q-111 0 -168 -66t-58 -184zM293 29q111 0 168 69t57 182q0 59 -15 106.5t-46 80.5l-283 -410q49 -28 119 -28z" />
    <glyph glyph-name="Otilde" unicode="&#xd5;" horiz-adv-x="601" 
d="M293 -14q-132 0 -201 79.5t-69 214.5q0 89 30 154.5t90 102t150 36.5q133 0 201 -79.5t68 -213.5q0 -87 -30.5 -153.5t-90.5 -103.5t-148 -37zM293 29q111 0 168 69t57 182t-56 181.5t-169 68.5q-111 0 -168 -66t-57 -184q0 -112 55.5 -181.5t169.5 -69.5zM344 620
q-22 0 -35 8t-22.5 19t-19 19t-22.5 8q-18 0 -21.5 -14t-3.5 -39h-34q-1 31 9 57t48 26q22 0 35 -8.5t22 -19t18.5 -18.5t23.5 -8q18 0 21.5 14t3.5 40h33q2 -34 -9 -59t-47 -25z" />
    <glyph glyph-name="OE" unicode="&#x152;" horiz-adv-x="831" 
d="M363 0q-100 0 -174.5 24t-115.5 85.5t-41 172.5q0 94 41 156t115.5 93.5t174.5 31.5h423v-41h-320v-217h257v-40h-257v-226h329v-39h-432zM357 40h64v482h-64q-84 0 -146 -25.5t-96.5 -79t-34.5 -135.5q0 -100 34.5 -152t96.5 -71t146 -19z" />
    <glyph glyph-name="P" unicode="P" horiz-adv-x="484" 
d="M112 0h-45v563h208q186 0 186 -175q0 -82 -49 -126.5t-137 -44.5h-163v-217zM271 523h-159v-267h159q72 0 110 33t38 100q0 69 -37 101.5t-111 32.5z" />
    <glyph glyph-name="Thorn" unicode="&#xde;" horiz-adv-x="478" 
d="M112 0h-45v563h45v-109h157q186 0 186 -174q0 -83 -48.5 -127t-137.5 -44h-157v-109zM266 414h-154v-266h154q72 0 110 32.5t38 99.5q0 69 -37 101.5t-111 32.5z" />
    <glyph glyph-name="Q" unicode="Q" horiz-adv-x="607" 
d="M365 -108q-20 0 -37.5 7.5t-28.5 28t-11 58.5q-123 6 -187 85t-64 209q0 88 29.5 154t89.5 102.5t151 36.5q88 0 148 -36t90.5 -101.5t30.5 -153.5q0 -84 -28 -148.5t-82.5 -103t-135.5 -43.5q0 -19 6.5 -38t35.5 -19q18 0 31 10t16 10l6 -36l-9.5 -5.5t-23 -11
t-27.5 -5.5zM306 30q112 0 168.5 68t56.5 183q0 114 -55.5 182t-169.5 68q-110 0 -167 -65.5t-57 -183.5q0 -115 55.5 -183.5t168.5 -68.5z" />
    <glyph glyph-name="R" unicode="R" horiz-adv-x="520" 
d="M65 0v563h175q71 0 120 -14t74.5 -48.5t25.5 -95.5q0 -38 -14 -71t-43.5 -53t-76.5 -20q46 0 68.5 -19.5t30 -49t8 -61.5t2 -58.5t12 -39t38.5 -2.5v-33q-5 -4 -19.5 -7t-31.5 2t-29 23t-12 55q0 58 -4.5 93t-19 53.5t-45 25t-82.5 6.5t-131 -1v-248h-46zM111 285h147
q81 0 121 24.5t40 93.5q0 53 -21.5 78.5t-63 33.5t-100.5 8h-123v-238z" />
    <glyph glyph-name="Racute" unicode="&#x154;" horiz-adv-x="520" 
d="M65 0v563h175q71 0 120 -14t74.5 -48.5t25.5 -95.5q0 -38 -14 -71t-43.5 -53t-76.5 -20q46 0 68.5 -19.5t30 -49t8 -61.5t2 -58.5t12 -39t38.5 -2.5v-33q-5 -4 -19.5 -7t-31.5 2t-29 23t-12 55q0 58 -4.5 93t-19 53.5t-45 25t-82.5 6.5t-131 -1v-248h-46zM111 285h147
q81 0 121 24.5t40 93.5q0 53 -21.5 78.5t-63 33.5t-100.5 8h-123v-238zM258 610h-24v8l54 104h44v-12z" />
    <glyph glyph-name="Rcaron" unicode="&#x158;" horiz-adv-x="523" 
d="M65 0v563h175q71 0 120 -14t74.5 -48.5t25.5 -95.5q0 -38 -14 -71t-43.5 -53t-76.5 -20q46 0 68.5 -19.5t30 -49t8 -61.5t2 -58.5t12 -39t38.5 -2.5v-33q-5 -4 -19.5 -7t-31.5 2t-29 23t-12 55q0 58 -4.5 93t-19 53.5t-45 25t-82.5 6.5t-131 -1v-248h-46zM111 285h147
q81 0 121 24.5t40 93.5q0 53 -21.5 78.5t-63 33.5t-100.5 8h-123v-238zM100 747h50l94 -109l94 109h50l-134 -136h-21z" />
    <glyph glyph-name="uni0156" unicode="&#x156;" horiz-adv-x="520" 
d="M65 0v563h175q71 0 120 -14t74.5 -48.5t25.5 -95.5q0 -38 -14 -71t-43.5 -53t-76.5 -20q46 0 68.5 -19.5t30 -49t8 -61.5t2 -58.5t12 -39t38.5 -2.5v-33q-5 -4 -19.5 -7t-31.5 2t-29 23t-12 55q0 58 -4.5 93t-19 53.5t-45 25t-82.5 6.5t-131 -1v-248h-46zM111 285h147
q81 0 121 24.5t40 93.5q0 53 -21.5 78.5t-63 33.5t-100.5 8h-123v-238zM208 -215v39h15q24 0 29 12.5t5 28.5q-44 -6 -44 37q0 14 7 24.5t27 10.5q19 0 26.5 -11t7.5 -38q0 -49 -12 -76t-44 -27h-17z" />
    <glyph glyph-name="S" unicode="S" horiz-adv-x="511" 
d="M266 -13q-58 0 -111.5 19t-87.5 59.5t-36 105.5h46q0 -3 2 -18.5t10.5 -36t29 -40.5t56.5 -33.5t94 -13.5q52 0 83.5 12.5t47.5 30.5t21.5 35.5t6.5 26.5q1 38 -19.5 61.5t-54 38t-74 24.5t-81 21.5t-74 29.5t-53.5 47t-18 76q2 44 30.5 75.5t75.5 48.5t105 17
q56 0 103 -20t74.5 -60t25.5 -100h-45q1 42 -15.5 69t-42.5 42t-54 20.5t-50 5.5q-69 0 -114 -28.5t-46 -72.5q-1 -38 19.5 -61t54 -36.5t74 -23.5t80.5 -21t73.5 -29t53 -48.5t18.5 -78.5q-2 -46 -30 -78t-74.5 -49t-103.5 -17z" />
    <glyph glyph-name="Sacute" unicode="&#x15a;" horiz-adv-x="511" 
d="M266 -13q-58 0 -111.5 19t-87.5 59.5t-36 105.5h46q0 -3 2 -18.5t10.5 -36t29 -40.5t56.5 -33.5t94 -13.5q52 0 83.5 12.5t47.5 30.5t21.5 35.5t6.5 26.5q1 38 -19.5 61.5t-54 38t-74 24.5t-81 21.5t-74 29.5t-53.5 47t-18 76q2 44 30.5 75.5t75.5 48.5t105 17
q56 0 103 -20t74.5 -60t25.5 -100h-45q1 42 -15.5 69t-42.5 42t-54 20.5t-50 5.5q-69 0 -114 -28.5t-46 -72.5q-1 -38 19.5 -61t54 -36.5t74 -23.5t80.5 -21t73.5 -29t53 -48.5t18.5 -78.5q-2 -46 -30 -78t-74.5 -49t-103.5 -17zM269 610h-24v8l54 104h44v-12z" />
    <glyph glyph-name="Scaron" unicode="&#x160;" horiz-adv-x="508" 
d="M266 -13q-58 0 -111.5 19t-87.5 59.5t-36 105.5h46q0 -3 2 -18.5t10.5 -36t29 -40.5t56.5 -33.5t94 -13.5q52 0 83.5 12.5t47.5 30.5t21.5 35.5t6.5 26.5q1 38 -19.5 61.5t-54 38t-74 24.5t-81 21.5t-74 29.5t-53.5 47t-18 76q2 44 30.5 75.5t75.5 48.5t105 17
q56 0 103 -20t74.5 -60t25.5 -100h-45q1 42 -15.5 69t-42.5 42t-54 20.5t-50 5.5q-69 0 -114 -28.5t-46 -72.5q-1 -38 19.5 -61t54 -36.5t74 -23.5t80.5 -21t73.5 -29t53 -48.5t18.5 -78.5q-2 -46 -30 -78t-74.5 -49t-103.5 -17zM116 747h50l94 -109l94 109h50l-134 -136
h-21z" />
    <glyph glyph-name="Scedilla" unicode="&#x15e;" horiz-adv-x="511" 
d="M266 -13q-58 0 -111.5 19t-87.5 59.5t-36 105.5h46q0 -3 2 -18.5t10.5 -36t29 -40.5t56.5 -33.5t94 -13.5q52 0 83.5 12.5t47.5 30.5t21.5 35.5t6.5 26.5q1 38 -19.5 61.5t-54 38t-74 24.5t-81 21.5t-74 29.5t-53.5 47t-18 76q2 44 30.5 75.5t75.5 48.5t105 17
q56 0 103 -20t74.5 -60t25.5 -100h-45q1 42 -15.5 69t-42.5 42t-54 20.5t-50 5.5q-69 0 -114 -28.5t-46 -72.5q-1 -38 19.5 -61t54 -36.5t74 -23.5t80.5 -21t73.5 -29t53 -48.5t18.5 -78.5q-2 -46 -30 -78t-74.5 -49t-103.5 -17zM159 -124l19 26q14 -16 36.5 -24.5t45 -8
t37.5 10.5t14 30q-2 20 -18.5 26t-39 1t-40.5 -19l-22 18l38 77l28 -11l-40 -62q12 13 33.5 19.5t43.5 4.5t37 -15t15 -39q0 -29 -19.5 -46.5t-49.5 -23t-61.5 3t-56.5 32.5z" />
    <glyph glyph-name="uni0218" unicode="&#x218;" horiz-adv-x="511" 
d="M266 -13q-58 0 -111.5 19t-87.5 59.5t-36 105.5h46q0 -3 2 -18.5t10.5 -36t29 -40.5t56.5 -33.5t94 -13.5q52 0 83.5 12.5t47.5 30.5t21.5 35.5t6.5 26.5q1 38 -19.5 61.5t-54 38t-74 24.5t-81 21.5t-74 29.5t-53.5 47t-18 76q2 44 30.5 75.5t75.5 48.5t105 17
q56 0 103 -20t74.5 -60t25.5 -100h-45q1 42 -15.5 69t-42.5 42t-54 20.5t-50 5.5q-69 0 -114 -28.5t-46 -72.5q-1 -38 19.5 -61t54 -36.5t74 -23.5t80.5 -21t73.5 -29t53 -48.5t18.5 -78.5q-2 -46 -30 -78t-74.5 -49t-103.5 -17zM208 -215v39h15q24 0 29 12.5t5 28.5
q-44 -6 -44 37q0 14 7 24.5t27 10.5q19 0 26.5 -11t7.5 -38q0 -49 -12 -76t-44 -27h-17z" />
    <glyph glyph-name="T" unicode="T" horiz-adv-x="442" 
d="M10 522v41h420v-41h-187v-522h-45v522h-188z" />
    <glyph glyph-name="Tbar" unicode="&#x166;" horiz-adv-x="442" 
d="M56 291v37h142v194h-188v41h420v-41h-187v-194h142v-37h-142v-291h-45v291h-142z" />
    <glyph glyph-name="Tcaron" unicode="&#x164;" horiz-adv-x="442" 
d="M10 522v41h420v-41h-187v-522h-45v522h-188zM77 747h50l94 -109l94 109h50l-134 -136h-21z" />
    <glyph glyph-name="uni0162" unicode="&#x162;" horiz-adv-x="442" 
d="M10 522v41h420v-41h-187v-522h-45v522h-188zM134 -124l19 26q14 -16 36.5 -24.5t45 -8t37.5 10.5t14 30q-2 20 -18.5 26t-39 1t-40.5 -19l-22 18l38 77l28 -11l-40 -62q12 13 33.5 19.5t43.5 4.5t37 -15t15 -39q0 -29 -19.5 -46.5t-49.5 -23t-61.5 3t-56.5 32.5z" />
    <glyph glyph-name="uni021A" unicode="&#x21a;" horiz-adv-x="442" 
d="M10 522v41h420v-41h-187v-522h-45v522h-188zM160 -215v39h15q24 0 29 12.5t5 28.5q-44 -6 -44 37q0 14 7 24.5t27 10.5q19 0 26.5 -11t7.5 -38q0 -49 -12 -76t-44 -27h-17z" />
    <glyph glyph-name="U" unicode="U" horiz-adv-x="567" 
d="M280 -14q-110 0 -169.5 66.5t-59.5 187.5v323h46v-323q0 -106 49.5 -158.5t133.5 -52.5q89 0 136.5 52t47.5 159v323h45v-323q0 -123 -58.5 -188.5t-170.5 -65.5z" />
    <glyph glyph-name="Uacute" unicode="&#xda;" horiz-adv-x="567" 
d="M280 -14q-110 0 -169.5 66.5t-59.5 187.5v323h46v-323q0 -106 49.5 -158.5t133.5 -52.5q89 0 136.5 52t47.5 159v323h45v-323q0 -123 -58.5 -188.5t-170.5 -65.5zM287 610h-24v8l54 104h44v-12z" />
    <glyph glyph-name="Ucircumflex" unicode="&#xdb;" horiz-adv-x="567" 
d="M280 -14q-110 0 -169.5 66.5t-59.5 187.5v323h46v-323q0 -106 49.5 -158.5t133.5 -52.5q89 0 136.5 52t47.5 159v323h45v-323q0 -123 -58.5 -188.5t-170.5 -65.5zM167 622v6l104 101h22l105 -101v-6h-46l-69 74h-2l-68 -74h-46z" />
    <glyph glyph-name="Udieresis" unicode="&#xdc;" horiz-adv-x="567" 
d="M280 -14q-110 0 -169.5 66.5t-59.5 187.5v323h46v-323q0 -106 49.5 -158.5t133.5 -52.5q89 0 136.5 52t47.5 159v323h45v-323q0 -123 -58.5 -188.5t-170.5 -65.5zM211 621q-24 0 -32.5 12t-8.5 29q0 15 8.5 27t32.5 12t32 -12t8 -27q0 -17 -8 -29t-32 -12zM355 621
q-24 0 -32.5 12t-8.5 29q0 15 8.5 27t32.5 12q25 0 32.5 -12t7.5 -27q0 -17 -7.5 -29t-32.5 -12z" />
    <glyph glyph-name="uni1EE4" unicode="&#x1ee4;" horiz-adv-x="567" 
d="M280 -14q-110 0 -169.5 66.5t-59.5 187.5v323h46v-323q0 -106 49.5 -158.5t133.5 -52.5q89 0 136.5 52t47.5 159v323h45v-323q0 -123 -58.5 -188.5t-170.5 -65.5zM281 -136q-20 0 -27 10t-7 24q0 13 7 23t27 10q21 0 27.5 -10t6.5 -23q0 -14 -6.5 -24t-27.5 -10z" />
    <glyph glyph-name="Ugrave" unicode="&#xd9;" horiz-adv-x="567" 
d="M280 -14q-110 0 -169.5 66.5t-59.5 187.5v323h46v-323q0 -106 49.5 -158.5t133.5 -52.5q89 0 136.5 52t47.5 159v323h45v-323q0 -123 -58.5 -188.5t-170.5 -65.5zM259 610l-75 100v12h44l54 -104v-8h-23z" />
    <glyph glyph-name="uni1EE6" unicode="&#x1ee6;" horiz-adv-x="567" 
d="M280 -14q-110 0 -169.5 66.5t-59.5 187.5v323h46v-323q0 -106 49.5 -158.5t133.5 -52.5q89 0 136.5 52t47.5 159v323h45v-323q0 -123 -58.5 -188.5t-170.5 -65.5zM257 617v9q4 13 18 22.5t27 20t13 27.5q0 16 -15 23t-32 1.5t-24 -27.5l-27 11q7 26 27.5 39t44.5 12
t41 -14.5t17 -39.5q0 -25 -12.5 -38t-26 -22.5t-14.5 -23.5h-37z" />
    <glyph glyph-name="Uhorn" unicode="&#x1af;" horiz-adv-x="567" 
d="M488 531l2 32h22q18 0 22.5 6.5t5.5 28.5h48q0 -37 -19.5 -52t-56.5 -15h-24zM280 -14q-110 0 -169.5 66.5t-59.5 187.5v323h46v-323q0 -106 49.5 -158.5t133.5 -52.5q89 0 136.5 52t47.5 159v323h45v-323q0 -123 -58.5 -188.5t-170.5 -65.5z" />
    <glyph glyph-name="uni1EE8" unicode="&#x1ee8;" horiz-adv-x="567" 
d="M488 531l2 32h22q18 0 22.5 6.5t5.5 28.5h48q0 -37 -19.5 -52t-56.5 -15h-24zM280 -14q-110 0 -169.5 66.5t-59.5 187.5v323h46v-323q0 -106 49.5 -158.5t133.5 -52.5q89 0 136.5 52t47.5 159v323h45v-323q0 -123 -58.5 -188.5t-170.5 -65.5zM279 610h-24v8l54 104h44
v-12z" />
    <glyph glyph-name="uni1EF0" unicode="&#x1ef0;" horiz-adv-x="567" 
d="M488 531l2 32h22q18 0 22.5 6.5t5.5 28.5h48q0 -37 -19.5 -52t-56.5 -15h-24zM280 -14q-110 0 -169.5 66.5t-59.5 187.5v323h46v-323q0 -106 49.5 -158.5t133.5 -52.5q89 0 136.5 52t47.5 159v323h45v-323q0 -123 -58.5 -188.5t-170.5 -65.5zM281 -136q-20 0 -27 10
t-7 24q0 13 7 23t27 10q21 0 27.5 -10t6.5 -23q0 -14 -6.5 -24t-27.5 -10z" />
    <glyph glyph-name="uni1EEA" unicode="&#x1eea;" horiz-adv-x="567" 
d="M488 531l2 32h22q18 0 22.5 6.5t5.5 28.5h48q0 -37 -19.5 -52t-56.5 -15h-24zM280 -14q-110 0 -169.5 66.5t-59.5 187.5v323h46v-323q0 -106 49.5 -158.5t133.5 -52.5q89 0 136.5 52t47.5 159v323h45v-323q0 -123 -58.5 -188.5t-170.5 -65.5zM267 610l-75 100v12h44
l54 -104v-8h-23z" />
    <glyph glyph-name="uni1EEC" unicode="&#x1eec;" horiz-adv-x="567" 
d="M488 531l2 32h22q18 0 22.5 6.5t5.5 28.5h48q0 -37 -19.5 -52t-56.5 -15h-24zM280 -14q-110 0 -169.5 66.5t-59.5 187.5v323h46v-323q0 -106 49.5 -158.5t133.5 -52.5q89 0 136.5 52t47.5 159v323h45v-323q0 -123 -58.5 -188.5t-170.5 -65.5zM257 617v9q4 13 18 22.5
t27 20t13 27.5q0 16 -15 23t-32 1.5t-24 -27.5l-27 11q7 26 27.5 39t44.5 12t41 -14.5t17 -39.5q0 -25 -12.5 -38t-26 -22.5t-14.5 -23.5h-37z" />
    <glyph glyph-name="uni1EEE" unicode="&#x1eee;" horiz-adv-x="567" 
d="M488 531l2 32h22q18 0 22.5 6.5t5.5 28.5h48q0 -37 -19.5 -52t-56.5 -15h-24zM280 -14q-110 0 -169.5 66.5t-59.5 187.5v323h46v-323q0 -106 49.5 -158.5t133.5 -52.5q89 0 136.5 52t47.5 159v323h45v-323q0 -123 -58.5 -188.5t-170.5 -65.5zM334 623q-22 0 -35 8
t-22.5 19t-19 19t-22.5 8q-18 0 -21.5 -14t-3.5 -39h-34q-1 31 9 57t48 26q22 0 35 -8.5t22 -19t18.5 -18.5t23.5 -8q18 0 21.5 14t3.5 40h33q2 -34 -9 -59t-47 -25z" />
    <glyph glyph-name="Uhungarumlaut" unicode="&#x170;" horiz-adv-x="565" 
d="M186 639l79 132l43 -19l-99 -124zM311 639l79 132l43 -19l-98 -124zM280 -14q-110 0 -169.5 66.5t-59.5 187.5v323h46v-323q0 -106 49.5 -158.5t133.5 -52.5q89 0 136.5 52t47.5 159v323h45v-323q0 -123 -58.5 -188.5t-170.5 -65.5z" />
    <glyph glyph-name="Umacron" unicode="&#x16a;" horiz-adv-x="565" 
d="M280 -14q-110 0 -169.5 66.5t-59.5 187.5v323h46v-323q0 -106 49.5 -158.5t133.5 -52.5q89 0 136.5 52t47.5 159v323h45v-323q0 -123 -58.5 -188.5t-170.5 -65.5zM163 619v37h235v-37h-235z" />
    <glyph glyph-name="Uogonek" unicode="&#x172;" horiz-adv-x="567" 
d="M289 -196q-36 0 -59 21.5t-23 56.5q0 36 22.5 62t48.5 42q-109 1 -168 67.5t-59 186.5v323h46v-323q0 -106 49.5 -158.5t133.5 -52.5q89 0 136.5 52t47.5 159v323h45v-323q0 -108 -45 -172t-132 -78q-12 -6 -33 -19.5t-38 -35t-17 -48.5q0 -20 12 -33.5t36 -13.5
q19 0 29.5 8.5t14.5 16.5l4 8l30 -23l-8.5 -11.5t-26.5 -23t-46 -11.5z" />
    <glyph glyph-name="Uring" unicode="&#x16e;" horiz-adv-x="567" 
d="M280 -14q-110 0 -169.5 66.5t-59.5 187.5v323h46v-323q0 -106 49.5 -158.5t133.5 -52.5q89 0 136.5 52t47.5 159v323h45v-323q0 -123 -58.5 -188.5t-170.5 -65.5zM275 594q-40 0 -63.5 23.5t-23.5 61.5q0 40 23 64t64 24t65 -24t24 -64q0 -37 -24 -61t-65 -24zM275 623
q27 0 42 17t15 41t-15 40.5t-42 16.5t-42 -16.5t-15 -40.5q0 -25 16 -41.5t41 -16.5z" />
    <glyph glyph-name="Utilde" unicode="&#x168;" horiz-adv-x="567" 
d="M280 -14q-110 0 -169.5 66.5t-59.5 187.5v323h46v-323q0 -106 49.5 -158.5t133.5 -52.5q89 0 136.5 52t47.5 159v323h45v-323q0 -123 -58.5 -188.5t-170.5 -65.5zM334 623q-22 0 -35 8t-22.5 19t-19 19t-22.5 8q-18 0 -21.5 -14t-3.5 -39h-34q-1 31 9 57t48 26
q22 0 35 -8.5t22 -19t18.5 -18.5t23.5 -8q18 0 21.5 14t3.5 40h33q2 -34 -9 -59t-47 -25z" />
    <glyph glyph-name="V" unicode="V" horiz-adv-x="497" 
d="M430 563h50l-205 -563h-77l-204 563h49l194 -540z" />
    <glyph glyph-name="W" unicode="W" horiz-adv-x="848" 
d="M391 563h48l169 -540l170 540h50l-182 -563h-75l-156 500l-163 -500h-76l-173 563h49l163 -540z" />
    <glyph glyph-name="Wacute" unicode="&#x1e82;" horiz-adv-x="848" 
d="M391 563h48l169 -540l170 540h50l-182 -563h-75l-156 500l-163 -500h-76l-173 563h49l163 -540zM431 610h-24v8l54 104h44v-12z" />
    <glyph glyph-name="Wcircumflex" unicode="&#x174;" horiz-adv-x="848" 
d="M391 563h48l169 -540l170 540h50l-182 -563h-75l-156 500l-163 -500h-76l-173 563h49l163 -540zM300 636v6l104 101h22l105 -101v-6h-46l-69 74h-2l-68 -74h-46z" />
    <glyph glyph-name="Wdieresis" unicode="&#x1e84;" horiz-adv-x="848" 
d="M391 563h48l169 -540l170 540h50l-182 -563h-75l-156 500l-163 -500h-76l-173 563h49l163 -540zM343 621q-24 0 -32.5 12t-8.5 29q0 15 8.5 27t32.5 12t32 -12t8 -27q0 -17 -8 -29t-32 -12zM487 621q-24 0 -32.5 12t-8.5 29q0 15 8.5 27t32.5 12q25 0 32.5 -12t7.5 -27
q0 -17 -7.5 -29t-32.5 -12z" />
    <glyph glyph-name="Wgrave" unicode="&#x1e80;" horiz-adv-x="848" 
d="M391 563h48l169 -540l170 540h50l-182 -563h-75l-156 500l-163 -500h-76l-173 563h49l163 -540zM381 610l-75 100v12h44l54 -104v-8h-23z" />
    <glyph glyph-name="X" unicode="X" horiz-adv-x="539" 
d="M28 0l210 299l-189 264h57l160 -232l161 232h56l-187 -264l211 -299h-55l-186 267l-185 -267h-53z" />
    <glyph glyph-name="Y" unicode="Y" horiz-adv-x="422" 
d="M182 0v209l-191 354h50l166 -310l163 310h50l-192 -354v-209h-46z" />
    <glyph glyph-name="Yacute" unicode="&#xdd;" horiz-adv-x="422" 
d="M182 0v209l-191 354h50l166 -310l163 310h50l-192 -354v-209h-46zM211 610h-24v8l54 104h44v-12z" />
    <glyph glyph-name="Ycircumflex" unicode="&#x176;" horiz-adv-x="422" 
d="M182 0v209l-191 354h50l166 -310l163 310h50l-192 -354v-209h-46zM92 636v6l104 101h22l105 -101v-6h-46l-69 74h-2l-68 -74h-46z" />
    <glyph glyph-name="Ydieresis" unicode="&#x178;" horiz-adv-x="422" 
d="M182 0v209l-191 354h50l166 -310l163 310h50l-192 -354v-209h-46zM136 621q-24 0 -32.5 12t-8.5 29q0 15 8.5 27t32.5 12t32 -12t8 -27q0 -17 -8 -29t-32 -12zM280 621q-24 0 -32.5 12t-8.5 29q0 15 8.5 27t32.5 12q25 0 32.5 -12t7.5 -27q0 -17 -7.5 -29t-32.5 -12z" />
    <glyph glyph-name="uni1EF4" unicode="&#x1ef4;" horiz-adv-x="422" 
d="M182 0v209l-191 354h50l166 -310l163 310h50l-192 -354v-209h-46zM206 -136q-20 0 -27 10t-7 24q0 13 7 23t27 10q21 0 27.5 -10t6.5 -23q0 -14 -6.5 -24t-27.5 -10z" />
    <glyph glyph-name="Ygrave" unicode="&#x1ef2;" horiz-adv-x="422" 
d="M182 0v209l-191 354h50l166 -310l163 310h50l-192 -354v-209h-46zM185 610l-75 100v12h44l54 -104v-8h-23z" />
    <glyph glyph-name="uni1EF6" unicode="&#x1ef6;" horiz-adv-x="422" 
d="M182 0v209l-191 354h50l166 -310l163 310h50l-192 -354v-209h-46zM184 617v9q4 13 18 22.5t27 20t13 27.5q0 16 -15 23t-32 1.5t-24 -27.5l-27 11q7 26 27.5 39t44.5 12t41 -14.5t17 -39.5q0 -25 -12.5 -38t-26 -22.5t-14.5 -23.5h-37z" />
    <glyph glyph-name="uni1EF8" unicode="&#x1ef8;" horiz-adv-x="422" 
d="M182 0v209l-191 354h50l166 -310l163 310h50l-192 -354v-209h-46zM257 620q-22 0 -35 8t-22.5 19t-19 19t-22.5 8q-18 0 -21.5 -14t-3.5 -39h-34q-1 31 9 57t48 26q22 0 35 -8.5t22 -19t18.5 -18.5t23.5 -8q18 0 21.5 14t3.5 40h33q2 -34 -9 -59t-47 -25z" />
    <glyph glyph-name="Z" unicode="Z" horiz-adv-x="535" 
d="M33 0v39l399 483h-364v41h422v-39l-397 -482h394v-42h-454z" />
    <glyph glyph-name="Zacute" unicode="&#x179;" horiz-adv-x="535" 
d="M33 0v39l399 483h-364v41h422v-39l-397 -482h394v-42h-454zM281 610h-24v8l54 104h44v-12z" />
    <glyph glyph-name="Zcaron" unicode="&#x17d;" horiz-adv-x="535" 
d="M33 0v39l399 483h-364v41h422v-39l-397 -482h394v-42h-454zM135 747h50l94 -109l94 109h50l-134 -136h-21z" />
    <glyph glyph-name="Zdotaccent" unicode="&#x17b;" horiz-adv-x="535" 
d="M33 0v39l399 483h-364v41h422v-39l-397 -482h394v-42h-454zM274 628q-24 0 -32.5 12.5t-8.5 28.5t8.5 28t32.5 12t32 -12t8 -28t-8 -28.5t-32 -12.5z" />
    <glyph glyph-name="I.ss01" horiz-adv-x="501" 
d="M231 -73q-1 126 -4.5 211.5t-13.5 139t-30.5 81.5t-56.5 38.5t-91 10.5v30q72 0 112.5 15t58 46t21.5 78t4 110h32q0 -63 4 -110t22.5 -78t60 -46t116.5 -15v-30q-57 0 -94.5 -10.5t-59.5 -38.5t-33 -81.5t-14.5 -139.5t-3.5 -212zM246 222h3q1 70 4 114t19 64.5t55 20.5
q-39 0 -55.5 9.5t-19.5 28.5t-3 50h-3q0 -31 -3 -50t-19 -28.5t-55 -9.5q41 0 56.5 -20.5t18 -64t2.5 -114.5z" />
    <glyph glyph-name="a" unicode="a" horiz-adv-x="413" 
d="M183 -9q-56 0 -93 28t-55 75.5t-18 105.5q0 60 18.5 107.5t55.5 75t92 27.5q59 0 94 -28.5t50 -65.5h2v90h46v-406h-38l-8 84h-2q-16 -37 -51 -65t-93 -28zM200 33q64 0 96 44t32 122q0 83 -33.5 125t-94.5 42q-71 0 -104 -47.5t-33 -118.5q0 -74 34 -120.5t103 -46.5z
" />
    <glyph glyph-name="aacute" unicode="&#xe1;" horiz-adv-x="413" 
d="M183 -9q-56 0 -93 28t-55 75.5t-18 105.5q0 60 18.5 107.5t55.5 75t92 27.5q59 0 94 -28.5t50 -65.5h2v90h46v-406h-38l-8 84h-2q-16 -37 -51 -65t-93 -28zM200 33q64 0 96 44t32 122q0 83 -33.5 125t-94.5 42q-71 0 -104 -47.5t-33 -118.5q0 -74 34 -120.5t103 -46.5z
M218 447h-24v8l54 104h44v-12z" />
    <glyph glyph-name="abreve" unicode="&#x103;" horiz-adv-x="413" 
d="M183 -9q-56 0 -93 28t-55 75.5t-18 105.5q0 60 18.5 107.5t55.5 75t92 27.5q59 0 94 -28.5t50 -65.5h2v90h46v-406h-38l-8 84h-2q-16 -37 -51 -65t-93 -28zM200 33q64 0 96 44t32 122q0 83 -33.5 125t-94.5 42q-71 0 -104 -47.5t-33 -118.5q0 -74 34 -120.5t103 -46.5z
M200 459q-51 0 -81 23t-30 61h35q0 -33 22 -42t53 -9q30 0 52 9t22 42h35q0 -38 -29 -61t-79 -23z" />
    <glyph glyph-name="uni1EAF" unicode="&#x1eaf;" horiz-adv-x="413" 
d="M183 -9q-56 0 -93 28t-55 75.5t-18 105.5q0 60 18.5 107.5t55.5 75t92 27.5q59 0 94 -28.5t50 -65.5h2v90h46v-406h-38l-8 84h-2q-16 -37 -51 -65t-93 -28zM200 33q64 0 96 44t32 122q0 83 -33.5 125t-94.5 42q-71 0 -104 -47.5t-33 -118.5q0 -74 34 -120.5t103 -46.5z
M200 459q-51 0 -81 23t-30 61h35q0 -33 22 -42t53 -9q30 0 52 9t22 42h35q0 -38 -29 -61t-79 -23zM211 555h-24v8l54 104h44v-12z" />
    <glyph glyph-name="uni1EB7" unicode="&#x1eb7;" horiz-adv-x="413" 
d="M183 -9q-56 0 -93 28t-55 75.5t-18 105.5q0 60 18.5 107.5t55.5 75t92 27.5q59 0 94 -28.5t50 -65.5h2v90h46v-406h-38l-8 84h-2q-16 -37 -51 -65t-93 -28zM200 33q64 0 96 44t32 122q0 83 -33.5 125t-94.5 42q-71 0 -104 -47.5t-33 -118.5q0 -74 34 -120.5t103 -46.5z
M200 459q-51 0 -81 23t-30 61h35q0 -33 22 -42t53 -9q30 0 52 9t22 42h35q0 -38 -29 -61t-79 -23zM197 -136q-20 0 -27 10t-7 24q0 13 7 23t27 10q21 0 27.5 -10t6.5 -23q0 -14 -6.5 -24t-27.5 -10z" />
    <glyph glyph-name="uni1EB1" unicode="&#x1eb1;" horiz-adv-x="413" 
d="M183 -9q-56 0 -93 28t-55 75.5t-18 105.5q0 60 18.5 107.5t55.5 75t92 27.5q59 0 94 -28.5t50 -65.5h2v90h46v-406h-38l-8 84h-2q-16 -37 -51 -65t-93 -28zM200 33q64 0 96 44t32 122q0 83 -33.5 125t-94.5 42q-71 0 -104 -47.5t-33 -118.5q0 -74 34 -120.5t103 -46.5z
M200 459q-51 0 -81 23t-30 61h35q0 -33 22 -42t53 -9q30 0 52 9t22 42h35q0 -38 -29 -61t-79 -23zM179 555l-75 100v12h44l54 -104v-8h-23z" />
    <glyph glyph-name="uni1EB3" unicode="&#x1eb3;" horiz-adv-x="413" 
d="M183 -9q-56 0 -93 28t-55 75.5t-18 105.5q0 60 18.5 107.5t55.5 75t92 27.5q59 0 94 -28.5t50 -65.5h2v90h46v-406h-38l-8 84h-2q-16 -37 -51 -65t-93 -28zM200 33q64 0 96 44t32 122q0 83 -33.5 125t-94.5 42q-71 0 -104 -47.5t-33 -118.5q0 -74 34 -120.5t103 -46.5z
M200 459q-51 0 -81 23t-30 61h35q0 -33 22 -42t53 -9q30 0 52 9t22 42h35q0 -38 -29 -61t-79 -23zM179 552v9q4 13 18 22.5t27 20t13 27.5q0 16 -15 23t-32 1.5t-24 -27.5l-27 11q7 26 27.5 39t44.5 12t41 -14.5t17 -39.5q0 -25 -12.5 -38t-26 -22.5t-14.5 -23.5h-37z" />
    <glyph glyph-name="uni1EB5" unicode="&#x1eb5;" horiz-adv-x="413" 
d="M183 -9q-56 0 -93 28t-55 75.5t-18 105.5q0 60 18.5 107.5t55.5 75t92 27.5q59 0 94 -28.5t50 -65.5h2v90h46v-406h-38l-8 84h-2q-16 -37 -51 -65t-93 -28zM200 33q64 0 96 44t32 122q0 83 -33.5 125t-94.5 42q-71 0 -104 -47.5t-33 -118.5q0 -74 34 -120.5t103 -46.5z
M199 459q-51 0 -81 23t-30 61h35q0 -33 22 -42t53 -9q30 0 52 9t22 42h35q0 -38 -29 -61t-79 -23zM250 596q-22 0 -35 8t-22.5 19t-19 19t-22.5 8q-18 0 -21.5 -14t-3.5 -39h-34q-1 31 9 57t48 26q22 0 35 -8.5t22 -19t18.5 -18.5t23.5 -8q18 0 21.5 14t3.5 40h33
q2 -34 -9 -59t-47 -25z" />
    <glyph glyph-name="acircumflex" unicode="&#xe2;" horiz-adv-x="413" 
d="M183 -9q-56 0 -93 28t-55 75.5t-18 105.5q0 60 18.5 107.5t55.5 75t92 27.5q59 0 94 -28.5t50 -65.5h2v90h46v-406h-38l-8 84h-2q-16 -37 -51 -65t-93 -28zM200 33q64 0 96 44t32 122q0 83 -33.5 125t-94.5 42q-71 0 -104 -47.5t-33 -118.5q0 -74 34 -120.5t103 -46.5z
M85 462v6l104 101h22l105 -101v-6h-46l-69 74h-2l-68 -74h-46z" />
    <glyph glyph-name="uni1EA5" unicode="&#x1ea5;" horiz-adv-x="413" 
d="M183 -9q-56 0 -93 28t-55 75.5t-18 105.5q0 60 18.5 107.5t55.5 75t92 27.5q59 0 94 -28.5t50 -65.5h2v90h46v-406h-38l-8 84h-2q-16 -37 -51 -65t-93 -28zM200 33q64 0 96 44t32 122q0 83 -33.5 125t-94.5 42q-71 0 -104 -47.5t-33 -118.5q0 -74 34 -120.5t103 -46.5z
M85 462v6l104 101h22l105 -101v-6h-46l-69 74h-2l-68 -74h-46zM326 548h-24v8l54 104h44v-12z" />
    <glyph glyph-name="uni1EAD" unicode="&#x1ead;" horiz-adv-x="413" 
d="M183 -9q-56 0 -93 28t-55 75.5t-18 105.5q0 60 18.5 107.5t55.5 75t92 27.5q59 0 94 -28.5t50 -65.5h2v90h46v-406h-38l-8 84h-2q-16 -37 -51 -65t-93 -28zM200 33q64 0 96 44t32 122q0 83 -33.5 125t-94.5 42q-71 0 -104 -47.5t-33 -118.5q0 -74 34 -120.5t103 -46.5z
M85 462v6l104 101h22l105 -101v-6h-46l-69 74h-2l-68 -74h-46zM197 -136q-20 0 -27 10t-7 24q0 13 7 23t27 10q21 0 27.5 -10t6.5 -23q0 -14 -6.5 -24t-27.5 -10z" />
    <glyph glyph-name="uni1EA7" unicode="&#x1ea7;" horiz-adv-x="413" 
d="M183 -9q-56 0 -93 28t-55 75.5t-18 105.5q0 60 18.5 107.5t55.5 75t92 27.5q59 0 94 -28.5t50 -65.5h2v90h46v-406h-38l-8 84h-2q-16 -37 -51 -65t-93 -28zM200 33q64 0 96 44t32 122q0 83 -33.5 125t-94.5 42q-71 0 -104 -47.5t-33 -118.5q0 -74 34 -120.5t103 -46.5z
M69 548l-75 100v12h44l54 -104v-8h-23zM86 462v6l104 101h22l105 -101v-6h-46l-69 74h-2l-68 -74h-46z" />
    <glyph glyph-name="uni1EA9" unicode="&#x1ea9;" horiz-adv-x="413" 
d="M183 -9q-56 0 -93 28t-55 75.5t-18 105.5q0 60 18.5 107.5t55.5 75t92 27.5q59 0 94 -28.5t50 -65.5h2v90h46v-406h-38l-8 84h-2q-16 -37 -51 -65t-93 -28zM200 33q64 0 96 44t32 122q0 83 -33.5 125t-94.5 42q-71 0 -104 -47.5t-33 -118.5q0 -74 34 -120.5t103 -46.5z
M85 462v6l104 101h22l105 -101v-6h-46l-69 74h-2l-68 -74h-46zM290 546v9q4 13 18 22.5t27 20t13 27.5q0 16 -15 23t-32 1.5t-24 -27.5l-27 11q7 26 27.5 39t44.5 12t41 -14.5t17 -39.5q0 -25 -12.5 -38t-26 -22.5t-14.5 -23.5h-37z" />
    <glyph glyph-name="uni1EAB" unicode="&#x1eab;" horiz-adv-x="413" 
d="M183 -9q-56 0 -93 28t-55 75.5t-18 105.5q0 60 18.5 107.5t55.5 75t92 27.5q59 0 94 -28.5t50 -65.5h2v90h46v-406h-38l-8 84h-2q-16 -37 -51 -65t-93 -28zM200 33q64 0 96 44t32 122q0 83 -33.5 125t-94.5 42q-71 0 -104 -47.5t-33 -118.5q0 -74 34 -120.5t103 -46.5z
M86 462v6l104 101h22l105 -101v-6h-46l-69 74h-2l-68 -74h-46zM250 616q-22 0 -35 8t-22.5 19t-19 19t-22.5 8q-18 0 -21.5 -14t-3.5 -39h-34q-1 31 9 57t48 26q22 0 35 -8.5t22 -19t18.5 -18.5t23.5 -8q18 0 21.5 14t3.5 40h33q2 -34 -9 -59t-47 -25z" />
    <glyph glyph-name="adieresis" unicode="&#xe4;" horiz-adv-x="464" 
d="M145 456q-25 0 -33 12.5t-8 28.5t8 28t33 12q24 0 31.5 -12t7.5 -28t-7.5 -28.5t-31.5 -12.5zM289 456q-25 0 -33 12.5t-8 28.5t8 28t33 12q24 0 32 -12t8 -28t-8 -28.5t-32 -12.5zM202 -9q-59 0 -98 28.5t-59 76.5t-20 105q0 59 20 106.5t59.5 76t97.5 28.5
q54 0 91.5 -24.5t58.5 -63.5v82h45v-326q0 -34 12.5 -43.5t27.5 -6.5t22 8l7 -31q-3 -2 -17 -9t-36 -7q-29 0 -45 20t-16 61v10q-21 -41 -58 -66t-92 -25zM215 32q64 0 99.5 45.5t35.5 123.5q0 80 -36.5 125t-98.5 45q-73 0 -107.5 -48.5t-34.5 -121.5q0 -74 35.5 -121.5
t106.5 -47.5z" />
    <glyph glyph-name="uni1EA1" unicode="&#x1ea1;" horiz-adv-x="413" 
d="M183 -9q-56 0 -93 28t-55 75.5t-18 105.5q0 60 18.5 107.5t55.5 75t92 27.5q59 0 94 -28.5t50 -65.5h2v90h46v-406h-38l-8 84h-2q-16 -37 -51 -65t-93 -28zM200 33q64 0 96 44t32 122q0 83 -33.5 125t-94.5 42q-71 0 -104 -47.5t-33 -118.5q0 -74 34 -120.5t103 -46.5z
M197 -136q-20 0 -27 10t-7 24q0 13 7 23t27 10q21 0 27.5 -10t6.5 -23q0 -14 -6.5 -24t-27.5 -10z" />
    <glyph glyph-name="agrave" unicode="&#xe0;" horiz-adv-x="413" 
d="M183 -9q-56 0 -93 28t-55 75.5t-18 105.5q0 60 18.5 107.5t55.5 75t92 27.5q59 0 94 -28.5t50 -65.5h2v90h46v-406h-38l-8 84h-2q-16 -37 -51 -65t-93 -28zM200 33q64 0 96 44t32 122q0 83 -33.5 125t-94.5 42q-71 0 -104 -47.5t-33 -118.5q0 -74 34 -120.5t103 -46.5z
M204 447l-75 100v12h44l54 -104v-8h-23z" />
    <glyph glyph-name="uni1EA3" unicode="&#x1ea3;" horiz-adv-x="413" 
d="M183 -9q-56 0 -93 28t-55 75.5t-18 105.5q0 60 18.5 107.5t55.5 75t92 27.5q59 0 94 -28.5t50 -65.5h2v90h46v-406h-38l-8 84h-2q-16 -37 -51 -65t-93 -28zM200 33q64 0 96 44t32 122q0 83 -33.5 125t-94.5 42q-71 0 -104 -47.5t-33 -118.5q0 -74 34 -120.5t103 -46.5z
M185 464v9q4 13 18 22.5t27 20t13 27.5q0 16 -15 23t-32 1.5t-24 -27.5l-27 11q7 26 27.5 39t44.5 12t41 -14.5t17 -39.5q0 -25 -12.5 -38t-26 -22.5t-14.5 -23.5h-37z" />
    <glyph glyph-name="amacron" unicode="&#x101;" horiz-adv-x="413" 
d="M183 -9q-56 0 -93 28t-55 75.5t-18 105.5q0 60 18.5 107.5t55.5 75t92 27.5q59 0 94 -28.5t50 -65.5h2v90h46v-406h-38l-8 84h-2q-16 -37 -51 -65t-93 -28zM200 33q64 0 96 44t32 122q0 83 -33.5 125t-94.5 42q-71 0 -104 -47.5t-33 -118.5q0 -74 34 -120.5t103 -46.5z
M85 454v37h235v-37h-235z" />
    <glyph glyph-name="aogonek" unicode="&#x105;" horiz-adv-x="413" 
d="M183 -9q-56 0 -93 28t-55 75.5t-18 105.5q0 60 18.5 107.5t55.5 75t92 27.5q59 0 94 -28.5t50 -65.5h2v90h46v-406h-38l-8 84h-2q-16 -37 -51 -65t-93 -28zM200 33q64 0 96 44t32 122q0 83 -33.5 125t-94.5 42q-71 0 -104 -47.5t-33 -118.5q0 -74 34 -120.5t103 -46.5z
M328 -199q-37 0 -59.5 21.5t-22.5 56.5q0 34 19.5 59.5t45 43t45 26.5l19.5 9v-21l-14 -8t-32 -22.5t-32 -35.5t-14 -46q0 -20 12 -33.5t35 -13.5q19 0 29.5 8.5t15 16.5l4.5 8l30 -23l-8.5 -11.5t-26.5 -23t-46 -11.5z" />
    <glyph glyph-name="aring" unicode="&#xe5;" horiz-adv-x="413" 
d="M183 -9q-56 0 -93 28t-55 75.5t-18 105.5q0 60 18.5 107.5t55.5 75t92 27.5q59 0 94 -28.5t50 -65.5h2v90h46v-406h-38l-8 84h-2q-16 -37 -51 -65t-93 -28zM200 33q64 0 96 44t32 122q0 83 -33.5 125t-94.5 42q-71 0 -104 -47.5t-33 -118.5q0 -74 34 -120.5t103 -46.5z
M200 466q-40 0 -63.5 23.5t-23.5 61.5q0 40 23 64t64 24t65 -24t24 -64q0 -37 -24 -61t-65 -24zM200 495q27 0 42 17t15 41t-15 40.5t-42 16.5t-42 -16.5t-15 -40.5q0 -25 16 -41.5t41 -16.5z" />
    <glyph glyph-name="atilde" unicode="&#xe3;" horiz-adv-x="413" 
d="M183 -9q-56 0 -93 28t-55 75.5t-18 105.5q0 60 18.5 107.5t55.5 75t92 27.5q59 0 94 -28.5t50 -65.5h2v90h46v-406h-38l-8 84h-2q-16 -37 -51 -65t-93 -28zM200 33q64 0 96 44t32 122q0 83 -33.5 125t-94.5 42q-71 0 -104 -47.5t-33 -118.5q0 -74 34 -120.5t103 -46.5z
M256 470q-22 0 -35 8t-22.5 19t-19 19t-22.5 8q-18 0 -21.5 -14t-3.5 -39h-34q-1 31 9 57t48 26q22 0 35 -8.5t22 -19t18.5 -18.5t23.5 -8q18 0 21.5 14t3.5 40h33q2 -34 -9 -59t-47 -25z" />
    <glyph glyph-name="ae" unicode="&#xe6;" horiz-adv-x="733" 
d="M150 0q-55 0 -88 28t-33 75q0 35 16.5 57.5t44 36.5t60 22.5t64.5 15.5q45 10 68 17t31 15.5t8 23.5q0 42 -33.5 64.5t-76.5 22.5q-27 0 -53 -9.5t-44 -29.5t-20 -51h-44q5 43 29.5 71.5t60 42t73.5 13.5q48 0 89 -22t53 -66q23 39 62 64t97 25q49 0 88 -23t63 -64
t28 -95l1 -25h-327q0 -77 38 -122.5t109 -45.5q52 0 88.5 27t46.5 73l45 -4q-14 -61 -62.5 -99t-117.5 -38q-55 0 -93.5 21.5t-61.5 57.5t-32 78q-5 -43 -28.5 -78.5t-61.5 -57t-87 -21.5zM369 241h278q-1 26 -14 58.5t-42.5 56t-77.5 23.5q-66 0 -101.5 -41t-42.5 -97z
M160 38q53 0 88 28t52.5 74t17.5 100q-12 -10 -37 -16.5t-54 -13.5q-41 -9 -75.5 -20t-55.5 -30.5t-21 -52.5q1 -32 24.5 -50.5t60.5 -18.5z" />
    <glyph glyph-name="b" unicode="b" horiz-adv-x="466" 
d="M251 -10q-40 0 -68.5 14t-46.5 34t-27.5 37t-11.5 24h-2l-8 -99h-39v563h47l1 -267h2q2 7 10.5 24.5t26 37t46 34t70.5 14.5q58 0 98.5 -28t62 -75t21.5 -105q0 -59 -21.5 -106t-62 -74.5t-98.5 -27.5zM245 33q50 0 81.5 23.5t46 61.5t14.5 80t-16 79.5t-49 61t-83 23.5
q-61 0 -101.5 -43.5t-40.5 -120.5q0 -79 43.5 -122t104.5 -43z" />
    <glyph glyph-name="c" unicode="c" horiz-adv-x="444" 
d="M220 -10q-86 0 -140 54t-54 149q1 63 26 111t69 75t102 27q74 0 122.5 -40.5t59.5 -101.5h-43q-10 47 -47.5 73.5t-90.5 26.5q-69 0 -111 -47t-42 -122t40.5 -119t109.5 -44q54 0 92.5 27t48.5 74h43q-11 -62 -61 -102.5t-124 -40.5z" />
    <glyph glyph-name="cacute" unicode="&#x107;" horiz-adv-x="444" 
d="M220 -10q-86 0 -140 54t-54 149q1 63 26 111t69 75t102 27q74 0 122.5 -40.5t59.5 -101.5h-43q-10 47 -47.5 73.5t-90.5 26.5q-69 0 -111 -47t-42 -122t40.5 -119t109.5 -44q54 0 92.5 27t48.5 74h43q-11 -62 -61 -102.5t-124 -40.5zM211 458h-24v8l54 104h44v-12z" />
    <glyph glyph-name="ccaron" unicode="&#x10d;" horiz-adv-x="444" 
d="M220 -10q-86 0 -140 54t-54 149q1 63 26 111t69 75t102 27q74 0 122.5 -40.5t59.5 -101.5h-43q-10 47 -47.5 73.5t-90.5 26.5q-69 0 -111 -47t-42 -122t40.5 -119t109.5 -44q54 0 92.5 27t48.5 74h43q-11 -62 -61 -102.5t-124 -40.5zM72 597h50l94 -109l94 109h50
l-134 -136h-21z" />
    <glyph glyph-name="ccedilla" unicode="&#xe7;" horiz-adv-x="444" 
d="M220 -10q-86 0 -140 54t-54 149q1 63 26 111t69 75t102 27q74 0 122.5 -40.5t59.5 -101.5h-43q-10 47 -47.5 73.5t-90.5 26.5q-69 0 -111 -47t-42 -122t40.5 -119t109.5 -44q54 0 92.5 27t48.5 74h43q-11 -62 -61 -102.5t-124 -40.5zM130 -122l19 26q14 -16 36.5 -24.5
t45 -8t37.5 10.5t14 30q-2 20 -18.5 26t-39 1t-40.5 -19l-22 18l38 77l28 -11l-40 -62q12 13 33.5 19.5t43.5 4.5t37 -15t15 -39q0 -29 -19.5 -46.5t-49.5 -23t-61.5 3t-56.5 32.5z" />
    <glyph glyph-name="cdotaccent" unicode="&#x10b;" horiz-adv-x="444" 
d="M220 -10q-86 0 -140 54t-54 149q1 63 26 111t69 75t102 27q74 0 122.5 -40.5t59.5 -101.5h-43q-10 47 -47.5 73.5t-90.5 26.5q-69 0 -111 -47t-42 -122t40.5 -119t109.5 -44q54 0 92.5 27t48.5 74h43q-11 -62 -61 -102.5t-124 -40.5zM216 456q-24 0 -32.5 12.5t-8.5 28.5
t8.5 28t32.5 12t32 -12t8 -28t-8 -28.5t-32 -12.5z" />
    <glyph glyph-name="d" unicode="d" horiz-adv-x="478" 
d="M229 -10q-58 0 -98.5 27.5t-61.5 75t-21 105.5q0 59 21.5 106t62 74.5t98.5 27.5q42 0 70 -14.5t45.5 -34t26.5 -37t11 -24.5h2l1 267h46v-563h-38l-8 99h-2q-3 -7 -12.5 -24t-27.5 -37t-46.5 -34t-68.5 -14zM235 33q62 0 105 43t43 122q0 77 -40.5 120.5t-100.5 43.5
q-50 0 -83 -23.5t-49.5 -61t-16.5 -79.5t15 -80t46 -61.5t81 -23.5z" />
    <glyph glyph-name="eth" unicode="&#xf0;" horiz-adv-x="483" 
d="M246 -10q-65 0 -110 28.5t-69 74t-27 96t15.5 96t58.5 74t101 28.5q42 0 73.5 -15t53.5 -37.5t35.5 -45t20 -38l6.5 -15.5h1q-7 59 -36.5 119t-69.5 107l-63 -37l-18 23l61 37q-24 24 -48.5 41t-48.5 26l24 39q34 -13 63.5 -33.5t53.5 -45.5l78 47l18 -24l-75 -46
q45 -54 70 -120.5t28.5 -133t-16.5 -122t-64.5 -89.5t-115.5 -34zM400 159q-1 58 -24.5 98.5t-60.5 63t-77.5 26.5t-76.5 -11.5t-58 -50.5t-20 -90q2 -50 23 -85.5t54 -56t70.5 -25t73 8t61.5 43t35 79.5z" />
    <glyph glyph-name="dcaron" unicode="&#x10f;" horiz-adv-x="514" 
d="M455 432l36 141h46l-55 -141h-27zM229 -10q-58 0 -98.5 27.5t-61.5 75t-21 105.5q0 59 21.5 106t62 74.5t98.5 27.5q42 0 70 -14.5t45.5 -34t26.5 -37t11 -24.5h2l1 267h46v-563h-38l-8 99h-2q-3 -7 -12.5 -24t-27.5 -37t-46.5 -34t-68.5 -14zM235 33q62 0 105 43t43 122
q0 77 -40.5 120.5t-100.5 43.5q-50 0 -83 -23.5t-49.5 -61t-16.5 -79.5t15 -80t46 -61.5t81 -23.5z" />
    <glyph glyph-name="dcroat" unicode="&#x111;" horiz-adv-x="481" 
d="M228 -10q-58 0 -98.5 27.5t-61.5 75t-21 105.5q0 59 21.5 106t62 74.5t98.5 27.5q42 0 70.5 -14.5t46 -34t26 -37t10.5 -24.5h2l1 174h-154v34h154v59h47v-59h32v-34h-32v-470h-39l-8 99h-2q-2 -7 -11.5 -24t-28 -37t-46.5 -34t-69 -14zM235 33q61 0 104.5 43t43.5 122
q0 77 -41 120.5t-101 43.5q-50 0 -83 -23.5t-49.5 -61t-16.5 -79.5t15 -80t46 -61.5t82 -23.5z" />
    <glyph glyph-name="e" unicode="e" horiz-adv-x="445" 
d="M220 -10q-65 0 -107.5 31t-63.5 79.5t-20 100.5q0 54 22 101t64.5 75.5t103.5 28.5q76 0 125.5 -49.5t55.5 -132.5q1 -5 1 -12v-13h-328q0 -77 38 -123t109 -46q51 0 88.5 27t46.5 73h45q-12 -62 -60.5 -101t-119.5 -39zM76 229h278q-1 26 -14.5 58t-43 56t-77.5 24
q-66 0 -101 -41t-42 -97z" />
    <glyph glyph-name="eacute" unicode="&#xe9;" horiz-adv-x="445" 
d="M220 -10q-65 0 -107.5 31t-63.5 79.5t-20 100.5q0 54 22 101t64.5 75.5t103.5 28.5q76 0 125.5 -49.5t55.5 -132.5q1 -5 1 -12v-13h-328q0 -77 38 -123t109 -46q51 0 88.5 27t46.5 73h45q-12 -62 -60.5 -101t-119.5 -39zM76 229h278q-1 26 -14.5 58t-43 56t-77.5 24
q-66 0 -101 -41t-42 -97zM218 447h-24v8l54 104h44v-12z" />
    <glyph glyph-name="ecaron" unicode="&#x11b;" horiz-adv-x="445" 
d="M220 -10q-65 0 -107.5 31t-63.5 79.5t-20 100.5q0 54 22 101t64.5 75.5t103.5 28.5q76 0 125.5 -49.5t55.5 -132.5q1 -5 1 -12v-13h-328q0 -77 38 -123t109 -46q51 0 88.5 27t46.5 73h45q-12 -62 -60.5 -101t-119.5 -39zM76 229h278q-1 26 -14.5 58t-43 56t-77.5 24
q-66 0 -101 -41t-42 -97zM70 588h50l94 -100l94 100h50v-12l-134 -124h-21l-133 124v12z" />
    <glyph glyph-name="ecircumflex" unicode="&#xea;" horiz-adv-x="445" 
d="M220 -10q-65 0 -107.5 31t-63.5 79.5t-20 100.5q0 54 22 101t64.5 75.5t103.5 28.5q76 0 125.5 -49.5t55.5 -132.5q1 -5 1 -12v-13h-328q0 -77 38 -123t109 -46q51 0 88.5 27t46.5 73h45q-12 -62 -60.5 -101t-119.5 -39zM76 229h278q-1 26 -14.5 58t-43 56t-77.5 24
q-66 0 -101 -41t-42 -97zM101 461v6l104 101h22l105 -101v-6h-46l-69 74h-2l-68 -74h-46z" />
    <glyph glyph-name="uni1EBF" unicode="&#x1ebf;" horiz-adv-x="445" 
d="M220 -10q-65 0 -107.5 31t-63.5 79.5t-20 100.5q0 54 22 101t64.5 75.5t103.5 28.5q76 0 125.5 -49.5t55.5 -132.5q1 -5 1 -12v-13h-328q0 -77 38 -123t109 -46q51 0 88.5 27t46.5 73h45q-12 -62 -60.5 -101t-119.5 -39zM76 229h278q-1 26 -14.5 58t-43 56t-77.5 24
q-66 0 -101 -41t-42 -97zM101 460v6l104 101h22l105 -101v-6h-46l-69 74h-2l-68 -74h-46zM342 546h-24v8l54 104h44v-12z" />
    <glyph glyph-name="uni1EC7" unicode="&#x1ec7;" horiz-adv-x="445" 
d="M220 -10q-65 0 -107.5 31t-63.5 79.5t-20 100.5q0 54 22 101t64.5 75.5t103.5 28.5q76 0 125.5 -49.5t55.5 -132.5q1 -5 1 -12v-13h-328q0 -77 38 -123t109 -46q51 0 88.5 27t46.5 73h45q-12 -62 -60.5 -101t-119.5 -39zM76 229h278q-1 26 -14.5 58t-43 56t-77.5 24
q-66 0 -101 -41t-42 -97zM101 461v6l104 101h22l105 -101v-6h-46l-69 74h-2l-68 -74h-46zM215 -136q-20 0 -27 10t-7 24q0 13 7 23t27 10q21 0 27.5 -10t6.5 -23q0 -14 -6.5 -24t-27.5 -10z" />
    <glyph glyph-name="uni1EC1" unicode="&#x1ec1;" horiz-adv-x="445" 
d="M220 -10q-65 0 -107.5 31t-63.5 79.5t-20 100.5q0 54 22 101t64.5 75.5t103.5 28.5q76 0 125.5 -49.5t55.5 -132.5q1 -5 1 -12v-13h-328q0 -77 38 -123t109 -46q51 0 88.5 27t46.5 73h45q-12 -62 -60.5 -101t-119.5 -39zM76 229h278q-1 26 -14.5 58t-43 56t-77.5 24
q-66 0 -101 -41t-42 -97zM85 546l-75 100v12h44l54 -104v-8h-23zM102 460v6l104 101h22l105 -101v-6h-46l-69 74h-2l-68 -74h-46z" />
    <glyph glyph-name="uni1EC3" unicode="&#x1ec3;" horiz-adv-x="445" 
d="M220 -10q-65 0 -107.5 31t-63.5 79.5t-20 100.5q0 54 22 101t64.5 75.5t103.5 28.5q76 0 125.5 -49.5t55.5 -132.5q1 -5 1 -12v-13h-328q0 -77 38 -123t109 -46q51 0 88.5 27t46.5 73h45q-12 -62 -60.5 -101t-119.5 -39zM76 229h278q-1 26 -14.5 58t-43 56t-77.5 24
q-66 0 -101 -41t-42 -97zM100 461v6l104 101h22l105 -101v-6h-46l-69 74h-2l-68 -74h-46zM305 545v9q4 13 18 22.5t27 20t13 27.5q0 16 -15 23t-32 1.5t-24 -27.5l-27 11q7 26 27.5 39t44.5 12t41 -14.5t17 -39.5q0 -25 -12.5 -38t-26 -22.5t-14.5 -23.5h-37z" />
    <glyph glyph-name="uni1EC5" unicode="&#x1ec5;" horiz-adv-x="445" 
d="M220 -10q-65 0 -107.5 31t-63.5 79.5t-20 100.5q0 54 22 101t64.5 75.5t103.5 28.5q76 0 125.5 -49.5t55.5 -132.5q1 -5 1 -12v-13h-328q0 -77 38 -123t109 -46q51 0 88.5 27t46.5 73h45q-12 -62 -60.5 -101t-119.5 -39zM76 229h278q-1 26 -14.5 58t-43 56t-77.5 24
q-66 0 -101 -41t-42 -97zM101 461v6l104 101h22l105 -101v-6h-46l-69 74h-2l-68 -74h-46zM265 615q-22 0 -35 8t-22.5 19t-19 19t-22.5 8q-18 0 -21.5 -14t-3.5 -39h-34q-1 31 9 57t48 26q22 0 35 -8.5t22 -19t18.5 -18.5t23.5 -8q18 0 21.5 14t3.5 40h33q2 -34 -9 -59
t-47 -25z" />
    <glyph glyph-name="edieresis" unicode="&#xeb;" horiz-adv-x="445" 
d="M220 -10q-65 0 -107.5 31t-63.5 79.5t-20 100.5q0 54 22 101t64.5 75.5t103.5 28.5q76 0 125.5 -49.5t55.5 -132.5q1 -5 1 -12v-13h-328q0 -77 38 -123t109 -46q51 0 88.5 27t46.5 73h45q-12 -62 -60.5 -101t-119.5 -39zM76 229h278q-1 26 -14.5 58t-43 56t-77.5 24
q-66 0 -101 -41t-42 -97zM144 457q-24 0 -32.5 12t-8.5 29q0 15 8.5 27t32.5 12t32 -12t8 -27q0 -17 -8 -29t-32 -12zM288 457q-24 0 -32.5 12t-8.5 29q0 15 8.5 27t32.5 12q25 0 32.5 -12t7.5 -27q0 -17 -7.5 -29t-32.5 -12z" />
    <glyph glyph-name="edotaccent" unicode="&#x117;" horiz-adv-x="445" 
d="M220 -10q-65 0 -107.5 31t-63.5 79.5t-20 100.5q0 54 22 101t64.5 75.5t103.5 28.5q76 0 125.5 -49.5t55.5 -132.5q1 -5 1 -12v-13h-328q0 -77 38 -123t109 -46q51 0 88.5 27t46.5 73h45q-12 -62 -60.5 -101t-119.5 -39zM76 229h278q-1 26 -14.5 58t-43 56t-77.5 24
q-66 0 -101 -41t-42 -97zM215 456q-24 0 -32.5 12.5t-8.5 28.5t8.5 28t32.5 12t32 -12t8 -28t-8 -28.5t-32 -12.5z" />
    <glyph glyph-name="uni1EB9" unicode="&#x1eb9;" horiz-adv-x="445" 
d="M220 -10q-65 0 -107.5 31t-63.5 79.5t-20 100.5q0 54 22 101t64.5 75.5t103.5 28.5q76 0 125.5 -49.5t55.5 -132.5q1 -5 1 -12v-13h-328q0 -77 38 -123t109 -46q51 0 88.5 27t46.5 73h45q-12 -62 -60.5 -101t-119.5 -39zM76 229h278q-1 26 -14.5 58t-43 56t-77.5 24
q-66 0 -101 -41t-42 -97zM215 -136q-20 0 -27 10t-7 24q0 13 7 23t27 10q21 0 27.5 -10t6.5 -23q0 -14 -6.5 -24t-27.5 -10z" />
    <glyph glyph-name="egrave" unicode="&#xe8;" horiz-adv-x="445" 
d="M220 -10q-65 0 -107.5 31t-63.5 79.5t-20 100.5q0 54 22 101t64.5 75.5t103.5 28.5q76 0 125.5 -49.5t55.5 -132.5q1 -5 1 -12v-13h-328q0 -77 38 -123t109 -46q51 0 88.5 27t46.5 73h45q-12 -62 -60.5 -101t-119.5 -39zM76 229h278q-1 26 -14.5 58t-43 56t-77.5 24
q-66 0 -101 -41t-42 -97zM204 447l-75 100v12h44l54 -104v-8h-23z" />
    <glyph glyph-name="uni1EBB" unicode="&#x1ebb;" horiz-adv-x="445" 
d="M220 -10q-65 0 -107.5 31t-63.5 79.5t-20 100.5q0 54 22 101t64.5 75.5t103.5 28.5q76 0 125.5 -49.5t55.5 -132.5q1 -5 1 -12v-13h-328q0 -77 38 -123t109 -46q51 0 88.5 27t46.5 73h45q-12 -62 -60.5 -101t-119.5 -39zM76 229h278q-1 26 -14.5 58t-43 56t-77.5 24
q-66 0 -101 -41t-42 -97zM181 485v9q4 13 18 22.5t27 20t13 27.5q0 16 -15 23t-32 1.5t-24 -27.5l-27 11q7 26 27.5 39t44.5 12t41 -14.5t17 -39.5q0 -25 -12.5 -38t-26 -22.5t-14.5 -23.5h-37z" />
    <glyph glyph-name="emacron" unicode="&#x113;" horiz-adv-x="436" 
d="M220 -10q-65 0 -107.5 31t-63.5 79.5t-20 100.5q0 54 22 101t64.5 75.5t103.5 28.5q76 0 125.5 -49.5t55.5 -132.5q1 -5 1 -12v-13h-328q0 -77 38 -123t109 -46q51 0 88.5 27t46.5 73h45q-12 -62 -60.5 -101t-119.5 -39zM76 229h278q-1 26 -14.5 58t-43 56t-77.5 24
q-66 0 -101 -41t-42 -97zM99 464v37h235v-37h-235z" />
    <glyph glyph-name="eogonek" unicode="&#x119;" horiz-adv-x="445" 
d="M220 -10q-65 0 -107.5 31t-63.5 79.5t-20 100.5q0 54 22 101t64.5 75.5t103.5 28.5q76 0 125.5 -49.5t55.5 -132.5q1 -5 1 -12v-13h-328q0 -77 38 -123t109 -46q51 0 88.5 27t46.5 73h45q-12 -62 -60.5 -101t-119.5 -39zM76 229h278q-1 26 -14.5 58t-43 56t-77.5 24
q-66 0 -101 -41t-42 -97zM232 -196q-37 0 -59.5 21.5t-22.5 56.5q0 34 19.5 59.5t45 43t45 26.5l19.5 9v-21l-14 -8t-32 -22.5t-32 -35.5t-14 -46q0 -20 12 -33.5t35 -13.5q19 0 29.5 8.5t15 16.5l4.5 8l30 -23l-8.5 -11.5t-26.5 -23t-46 -11.5z" />
    <glyph glyph-name="uni1EBD" unicode="&#x1ebd;" horiz-adv-x="445" 
d="M220 -10q-65 0 -107.5 31t-63.5 79.5t-20 100.5q0 54 22 101t64.5 75.5t103.5 28.5q76 0 125.5 -49.5t55.5 -132.5q1 -5 1 -12v-13h-328q0 -77 38 -123t109 -46q51 0 88.5 27t46.5 73h45q-12 -62 -60.5 -101t-119.5 -39zM76 229h278q-1 26 -14.5 58t-43 56t-77.5 24
q-66 0 -101 -41t-42 -97zM268 470q-22 0 -35 8t-22.5 19t-19 19t-22.5 8q-18 0 -21.5 -14t-3.5 -39h-34q-1 31 9 57t48 26q22 0 35 -8.5t22 -19t18.5 -18.5t23.5 -8q18 0 21.5 14t3.5 40h33q2 -34 -9 -59t-47 -25z" />
    <glyph glyph-name="f" unicode="f" horiz-adv-x="257" 
d="M78 -3v372h-66v37h66v101q0 24 9.5 42t40.5 18h127v-38h-130v-123h122v-37h-122v-372h-47z" />
    <glyph glyph-name="g" unicode="g" horiz-adv-x="444" 
d="M132 -160v43h214v216h-2q-2 -7 -11.5 -24t-27.5 -37t-46.5 -34t-68.5 -14q-58 0 -98.5 28t-61.5 75t-21 105q0 59 21.5 106t62 74.5t98.5 27.5q41 0 69.5 -14.5t46 -34t26 -37t10.5 -24.5h2l1 110h47v-493q0 -32 -11.5 -52.5t-47.5 -20.5h-202zM196 33q61 0 104.5 43
t43.5 122q0 77 -41 120.5t-101 43.5q-50 0 -83 -23.5t-49 -61t-16 -79.5t14.5 -80t46 -61.5t81.5 -23.5z" />
    <glyph glyph-name="gbreve" unicode="&#x11f;" horiz-adv-x="440" 
d="M208 466q-51 0 -81 23t-30 60h35q0 -32 22 -41t53 -9q30 0 52 9t22 41h35q0 -37 -29 -60t-79 -23zM132 -160v43h214v216h-2q-2 -7 -11.5 -24t-27.5 -37t-46.5 -34t-68.5 -14q-58 0 -98.5 28t-61.5 75t-21 105q0 59 21.5 106t62 74.5t98.5 27.5q41 0 69.5 -14.5t46 -34
t26 -37t10.5 -24.5h2l1 110h47v-493q0 -32 -11.5 -52.5t-47.5 -20.5h-202zM196 30q41 0 74.5 20t53.5 57.5t20 90.5q0 77 -41 122t-101 45q-50 0 -83 -24.5t-49 -62.5t-16 -80t14.5 -80.5t46 -63t81.5 -24.5z" />
    <glyph glyph-name="uni0123" unicode="&#x123;" horiz-adv-x="440" 
d="M218 458h-24v8l54 104h44v-13zM132 -160v43h214v216h-2q-2 -7 -11.5 -24t-27.5 -37t-46.5 -34t-68.5 -14q-58 0 -98.5 28t-61.5 75t-21 105q0 59 21.5 106t62 74.5t98.5 27.5q41 0 69.5 -14.5t46 -34t26 -37t10.5 -24.5h2l1 110h47v-493q0 -32 -11.5 -52.5t-47.5 -20.5
h-202zM196 30q41 0 74.5 20t53.5 57.5t20 90.5q0 77 -41 122t-101 45q-50 0 -83 -24.5t-49 -62.5t-16 -80t14.5 -80.5t46 -63t81.5 -24.5z" />
    <glyph glyph-name="gdotaccent" unicode="&#x121;" horiz-adv-x="440" 
d="M200 465q-24 0 -32.5 12.5t-8.5 28.5t8.5 28t32.5 12t32 -12t8 -28t-8 -28.5t-32 -12.5zM132 -160v43h214v216h-2q-2 -7 -11.5 -24t-27.5 -37t-46.5 -34t-68.5 -14q-58 0 -98.5 28t-61.5 75t-21 105q0 59 21.5 106t62 74.5t98.5 27.5q41 0 69.5 -14.5t46 -34t26 -37
t10.5 -24.5h2l1 110h47v-493q0 -32 -11.5 -52.5t-47.5 -20.5h-202zM196 30q41 0 74.5 20t53.5 57.5t20 90.5q0 77 -41 122t-101 45q-50 0 -83 -24.5t-49 -62.5t-16 -80t14.5 -80.5t46 -63t81.5 -24.5z" />
    <glyph glyph-name="h" unicode="h" horiz-adv-x="439" 
d="M41 0v563h46v-265h2q2 7 10 24t25 36.5t44.5 33.5t68.5 14q52 0 83.5 -18.5t47.5 -48.5t21 -66t5 -72v-201h-44v202q0 74 -26 118t-95 44q-48 0 -80 -23.5t-47 -63t-15 -85.5v-192h-46z" />
    <glyph glyph-name="hbar" unicode="&#x127;" horiz-adv-x="462" 
d="M58 0v470h-54v34h54v59h45v-59h134v-34h-134v-179q1 6 9.5 24t25.5 39.5t45 36.5t70 15q53 0 84 -19t46.5 -50.5t20 -69t4.5 -74.5v-193h-45v190q0 80 -24.5 127t-95.5 47q-70 0 -105 -51.5t-35 -129.5v-183h-45z" />
    <glyph glyph-name="i" unicode="i" horiz-adv-x="161" 
d="M82 449q-17 -1 -23 9t-6 24q0 13 6 22t23 9q16 0 22 -9t6 -22q0 -15 -6 -24t-22 -9zM58 0v406h45v-406h-45z" />
    <glyph glyph-name="dotlessi" unicode="&#x131;" horiz-adv-x="153" 
d="M53 0v406h45v-406h-45z" />
    <glyph glyph-name="iacute" unicode="&#xed;" horiz-adv-x="149" 
d="M78 457h-23v8l54 104h44v-13zM44 0v406h45v-406h-45z" />
    <glyph glyph-name="icircumflex" unicode="&#xee;" horiz-adv-x="182" 
d="M-30 460v7l104 101h22l105 -101v-7h-46l-69 75h-2l-68 -75h-46zM63 0v406h45v-406h-45z" />
    <glyph glyph-name="idieresis" unicode="&#xef;" horiz-adv-x="207" 
d="M24 456q-24 0 -32.5 12.5t-8.5 28.5t8.5 28t32.5 12q25 0 32.5 -12t7.5 -28t-7.5 -28.5t-32.5 -12.5zM169 456q-25 0 -33 12.5t-8 28.5t8 28t33 12q24 0 32 -12t8 -28t-8 -28.5t-32 -12.5zM74 0v406h45v-406h-45z" />
    <glyph glyph-name="i.loclTRK" horiz-adv-x="155" 
d="M53 0v406h45v-406h-45zM77 456q-24 0 -32.5 12.5t-8.5 28.5t8.5 28t32.5 12t32 -12t8 -28t-8 -28.5t-32 -12.5z" />
    <glyph glyph-name="uni1ECB" unicode="&#x1ecb;" horiz-adv-x="161" 
d="M82 449q-17 -1 -23 9t-6 24q0 13 6 22t23 9q16 0 22 -9t6 -22q0 -15 -6 -24t-22 -9zM58 0v406h45v-406h-45zM75 -136q-20 0 -27 10t-7 24q0 13 7 23t27 10q21 0 27.5 -10t6.5 -23q0 -14 -6.5 -24t-27.5 -10z" />
    <glyph glyph-name="igrave" unicode="&#xec;" horiz-adv-x="157" 
d="M66 454l-75 99v13h44l54 -105v-7h-23zM56 0v406h45v-406h-45z" />
    <glyph glyph-name="uni1EC9" unicode="&#x1ec9;" horiz-adv-x="227" 
d="M86 454v9q4 14 18 23t26.5 19.5t12.5 27.5t-14.5 24t-31.5 1t-24 -28l-27 11q7 27 27.5 39.5t44.5 12t41 -14.5t17 -40q0 -25 -12.5 -38t-26 -22.5t-14.5 -23.5h-37zM81 0v406h45v-406h-45z" />
    <glyph glyph-name="imacron" unicode="&#x12b;" horiz-adv-x="156" 
d="M-27 463v38h177v-38h-177zM41 0v406h45v-406h-45z" />
    <glyph glyph-name="iogonek" unicode="&#x12f;" horiz-adv-x="178" 
d="M78 458q-18 0 -24 10t-6 24q0 13 6 22.5t24 9.5q17 0 22.5 -9.5t5.5 -22.5q0 -14 -5.5 -24t-22.5 -10zM48 -195q-37 0 -59.5 21.5t-22.5 56.5q0 28 14 50.5t34.5 39.5t39.5 28v405l5.5 -1.5t17.5 -1.5t17 1.5l5 1.5v-406l-14.5 -8t-33.5 -22.5t-33.5 -35.5t-14.5 -46
q0 -20 12 -33.5t35 -13.5q19 0 29.5 8.5t14.5 16.5l4 8l31 -23l-9 -11.5t-26.5 -23t-45.5 -11.5z" />
    <glyph glyph-name="itilde" unicode="&#x129;" horiz-adv-x="184" 
d="M138 470q-21 0 -34.5 8t-22.5 19t-18.5 19t-23.5 8q-17 0 -21 -14t-3 -39h-34q-1 31 9 57t48 26q21 0 34.5 -8t22.5 -19t18.5 -19t23.5 -8q18 0 21 14t3 40h34q2 -34 -9 -59t-48 -25zM64 0v406h45v-406h-45z" />
    <glyph glyph-name="j" unicode="j" horiz-adv-x="172" 
d="M98 460q-18 0 -23.5 9.5t-5.5 24.5q0 13 5.5 22.5t23.5 9.5q17 0 22.5 -9.5t5.5 -22.5q0 -15 -5.5 -24.5t-22.5 -9.5zM74 406h46v-505q0 -25 -9.5 -43t-40.5 -18h-66v39h70v527z" />
    <glyph glyph-name="k" unicode="k" horiz-adv-x="419" 
d="M98 -1h-46v564h46v-396l245 239h61l-184 -177l187 -230h-57l-163 198l-89 -87v-111z" />
    <glyph glyph-name="uni0137" unicode="&#x137;" horiz-adv-x="430" 
d="M100 -1h-46v564h46v-396l246 239h60l-184 -177l188 -230h-58l-162 198l-90 -87v-111zM156 -191v39h15q24 0 29 12.5t5 28.5q-44 -6 -44 37q0 14 7 24.5t27 10.5q19 0 26.5 -11t7.5 -37q0 -49 -12 -76.5t-44 -27.5h-17z" />
    <glyph glyph-name="l" unicode="l" horiz-adv-x="152" 
d="M53 0v563h46v-563h-46z" />
    <glyph glyph-name="lacute" unicode="&#x13a;" horiz-adv-x="152" 
d="M53 0v563h46v-563h-46zM95 632h-24v8l54 104h44v-12z" />
    <glyph glyph-name="lcaron" unicode="&#x13e;" horiz-adv-x="220" 
d="M142 432l36 141h46l-55 -141h-27zM53 0v563h46v-563h-46z" />
    <glyph glyph-name="uni013C" unicode="&#x13c;" horiz-adv-x="213" 
d="M58 -191v39h15q24 0 29 12.5t5 28.5q-44 -6 -44 37q0 14 7 24.5t27 10.5q19 0 26.5 -11t7.5 -38q0 -49 -12 -76t-44 -27h-17zM59 0v563h46v-563h-46z" />
    <glyph glyph-name="lslash" unicode="&#x142;" horiz-adv-x="208" 
d="M53 0v272l-59 -45v45l59 45v246h46v-213l73 56v-45l-73 -56v-305h-46z" />
    <glyph glyph-name="m" unicode="m" horiz-adv-x="661" 
d="M39 0v406h38l4 -108h2q3 9 10.5 26.5t22.5 36t40 32t62 13.5q40 0 64.5 -15.5t38.5 -40.5t20 -52h2q3 9 11.5 26.5t25 36t42.5 32t63 13.5q40 0 65 -16t39 -40.5t20 -52.5t7 -53.5t1 -42.5v-201h-41v202q0 17 -1.5 43.5t-11 54t-30.5 46t-60 18.5q-43 0 -70 -24
t-40.5 -63t-13.5 -85v-192h-41v202q0 17 -1.5 43.5t-11 54t-30.5 46t-60 18.5q-43 0 -70 -24t-40.5 -63t-13.5 -85v-192h-42z" />
    <glyph glyph-name="n" unicode="n" horiz-adv-x="436" 
d="M39 0v405h38l8 -107h2q2 7 10 24t25 36.5t45 33.5t70 14q52 0 83 -18.5t47 -48.5t21 -66t5 -72v-201h-45v202q0 74 -25.5 118t-94.5 44q-49 0 -80.5 -23.5t-47 -63t-15.5 -85.5v-192h-46z" />
    <glyph glyph-name="nacute" unicode="&#x144;" horiz-adv-x="436" 
d="M39 0v405h38l8 -107h2q2 7 10 24t25 36.5t45 33.5t70 14q52 0 83 -18.5t47 -48.5t21 -66t5 -72v-201h-45v202q0 74 -25.5 118t-94.5 44q-49 0 -80.5 -23.5t-47 -63t-15.5 -85.5v-192h-46zM245 458h-24v8l54 104h44v-12z" />
    <glyph glyph-name="ncaron" unicode="&#x148;" horiz-adv-x="460" 
d="M39 0v405h38l8 -107h2q2 7 10 24t25 36.5t45 33.5t70 14q52 0 83 -18.5t47 -48.5t21 -66t5 -72v-201h-45v202q0 74 -25.5 118t-94.5 44q-49 0 -80.5 -23.5t-47 -63t-15.5 -85.5v-192h-46zM86 597h50l94 -109l94 109h50l-134 -136h-21z" />
    <glyph glyph-name="uni0146" unicode="&#x146;" horiz-adv-x="436" 
d="M39 0v405h38l8 -107h2q2 7 10 24t25 36.5t45 33.5t70 14q52 0 83 -18.5t47 -48.5t21 -66t5 -72v-201h-45v202q0 74 -25.5 118t-94.5 44q-49 0 -80.5 -23.5t-47 -63t-15.5 -85.5v-192h-46zM157 -191v39h15q24 0 29 12.5t5 28.5q-44 -6 -44 37q0 14 7 24.5t27 10.5
q19 0 26.5 -11t7.5 -38q0 -49 -12 -76t-44 -27h-17z" />
    <glyph glyph-name="eng" unicode="&#x14b;" horiz-adv-x="460" 
d="M39 0v405h38l8 -107h2q2 7 10 24t25 36.5t45 33.5t70 14q52 0 83 -18.5t47 -48.5t21 -66t5 -72v-172h14v-112q0 -50 -24 -83t-81 -33q-28 0 -46.5 9.5t-29.5 19.5l28 31q7 -7 18.5 -13.5t27.5 -6.5q31 0 46.5 17.5t15.5 58.5v83h-14v202q0 74 -25.5 118t-94.5 44
q-49 0 -80.5 -23.5t-47 -63t-15.5 -85.5v-192h-46z" />
    <glyph glyph-name="ntilde" unicode="&#xf1;" horiz-adv-x="436" 
d="M39 0v405h38l8 -107h2q2 7 10 24t25 36.5t45 33.5t70 14q52 0 83 -18.5t47 -48.5t21 -66t5 -72v-201h-45v202q0 74 -25.5 118t-94.5 44q-49 0 -80.5 -23.5t-47 -63t-15.5 -85.5v-192h-46zM280 470q-22 0 -35 8t-22.5 19t-19 19t-22.5 8q-18 0 -21.5 -14t-3.5 -39h-34
q-1 31 9 57t48 26q22 0 35 -8.5t22 -19t18.5 -18.5t23.5 -8q18 0 21.5 14t3.5 40h33q2 -34 -9 -59t-47 -25z" />
    <glyph glyph-name="o" unicode="o" horiz-adv-x="450" 
d="M218 -10q-95 0 -142.5 58.5t-47.5 148.5q0 92 48 150.5t142 58.5q92 0 140.5 -57.5t48.5 -151.5q0 -59 -20.5 -105.5t-62 -74t-106.5 -27.5zM218 31q56 0 87 25t43.5 63.5t12.5 78.5q0 41 -12.5 79.5t-43.5 64t-87 25.5t-87 -25.5t-44 -64t-13 -79.5q0 -40 13 -78.5
t44 -63.5t87 -25z" />
    <glyph glyph-name="oacute" unicode="&#xf3;" horiz-adv-x="450" 
d="M218 -10q-95 0 -142.5 58.5t-47.5 148.5q0 92 48 150.5t142 58.5q92 0 140.5 -57.5t48.5 -151.5q0 -59 -20.5 -105.5t-62 -74t-106.5 -27.5zM218 31q56 0 87 25t43.5 63.5t12.5 78.5q0 41 -12.5 79.5t-43.5 64t-87 25.5t-87 -25.5t-44 -64t-13 -79.5q0 -40 13 -78.5
t44 -63.5t87 -25zM218 447h-24v8l54 104h44v-12z" />
    <glyph glyph-name="ocircumflex" unicode="&#xf4;" horiz-adv-x="450" 
d="M218 -10q-95 0 -142.5 58.5t-47.5 148.5q0 92 48 150.5t142 58.5q92 0 140.5 -57.5t48.5 -151.5q0 -59 -20.5 -105.5t-62 -74t-106.5 -27.5zM218 31q56 0 87 25t43.5 63.5t12.5 78.5q0 41 -12.5 79.5t-43.5 64t-87 25.5t-87 -25.5t-44 -64t-13 -79.5q0 -40 13 -78.5
t44 -63.5t87 -25zM101 461v6l104 101h22l105 -101v-6h-46l-69 74h-2l-68 -74h-46z" />
    <glyph glyph-name="uni1ED1" unicode="&#x1ed1;" horiz-adv-x="450" 
d="M218 -10q-95 0 -142.5 58.5t-47.5 148.5q0 92 48 150.5t142 58.5q92 0 140.5 -57.5t48.5 -151.5q0 -59 -20.5 -105.5t-62 -74t-106.5 -27.5zM218 31q56 0 87 25t43.5 63.5t12.5 78.5q0 41 -12.5 79.5t-43.5 64t-87 25.5t-87 -25.5t-44 -64t-13 -79.5q0 -40 13 -78.5
t44 -63.5t87 -25zM101 460v6l104 101h22l105 -101v-6h-46l-69 74h-2l-68 -74h-46zM342 546h-24v8l54 104h44v-12z" />
    <glyph glyph-name="uni1ED9" unicode="&#x1ed9;" horiz-adv-x="450" 
d="M218 -10q-95 0 -142.5 58.5t-47.5 148.5q0 92 48 150.5t142 58.5q92 0 140.5 -57.5t48.5 -151.5q0 -59 -20.5 -105.5t-62 -74t-106.5 -27.5zM218 31q56 0 87 25t43.5 63.5t12.5 78.5q0 41 -12.5 79.5t-43.5 64t-87 25.5t-87 -25.5t-44 -64t-13 -79.5q0 -40 13 -78.5
t44 -63.5t87 -25zM215 -136q-20 0 -27 10t-7 24q0 13 7 23t27 10q21 0 27.5 -10t6.5 -23q0 -14 -6.5 -24t-27.5 -10zM101 461v6l104 101h22l105 -101v-6h-46l-69 74h-2l-68 -74h-46z" />
    <glyph glyph-name="uni1ED3" unicode="&#x1ed3;" horiz-adv-x="450" 
d="M218 -10q-95 0 -142.5 58.5t-47.5 148.5q0 92 48 150.5t142 58.5q92 0 140.5 -57.5t48.5 -151.5q0 -59 -20.5 -105.5t-62 -74t-106.5 -27.5zM218 31q56 0 87 25t43.5 63.5t12.5 78.5q0 41 -12.5 79.5t-43.5 64t-87 25.5t-87 -25.5t-44 -64t-13 -79.5q0 -40 13 -78.5
t44 -63.5t87 -25zM85 546l-75 100v12h44l54 -104v-8h-23zM102 460v6l104 101h22l105 -101v-6h-46l-69 74h-2l-68 -74h-46z" />
    <glyph glyph-name="uni1ED5" unicode="&#x1ed5;" horiz-adv-x="450" 
d="M218 -10q-95 0 -142.5 58.5t-47.5 148.5q0 92 48 150.5t142 58.5q92 0 140.5 -57.5t48.5 -151.5q0 -59 -20.5 -105.5t-62 -74t-106.5 -27.5zM218 31q56 0 87 25t43.5 63.5t12.5 78.5q0 41 -12.5 79.5t-43.5 64t-87 25.5t-87 -25.5t-44 -64t-13 -79.5q0 -40 13 -78.5
t44 -63.5t87 -25zM100 461v6l104 101h22l105 -101v-6h-46l-69 74h-2l-68 -74h-46zM305 545v9q4 13 18 22.5t27 20t13 27.5q0 16 -15 23t-32 1.5t-24 -27.5l-27 11q7 26 27.5 39t44.5 12t41 -14.5t17 -39.5q0 -25 -12.5 -38t-26 -22.5t-14.5 -23.5h-37z" />
    <glyph glyph-name="uni1ED7" unicode="&#x1ed7;" horiz-adv-x="450" 
d="M218 -10q-95 0 -142.5 58.5t-47.5 148.5q0 92 48 150.5t142 58.5q92 0 140.5 -57.5t48.5 -151.5q0 -59 -20.5 -105.5t-62 -74t-106.5 -27.5zM218 31q56 0 87 25t43.5 63.5t12.5 78.5q0 41 -12.5 79.5t-43.5 64t-87 25.5t-87 -25.5t-44 -64t-13 -79.5q0 -40 13 -78.5
t44 -63.5t87 -25zM101 461v6l104 101h22l105 -101v-6h-46l-69 74h-2l-68 -74h-46zM265 615q-22 0 -35 8t-22.5 19t-19 19t-22.5 8q-18 0 -21.5 -14t-3.5 -39h-34q-1 31 9 57t48 26q22 0 35 -8.5t22 -19t18.5 -18.5t23.5 -8q18 0 21.5 14t3.5 40h33q2 -34 -9 -59t-47 -25z
" />
    <glyph glyph-name="odieresis" unicode="&#xf6;" horiz-adv-x="450" 
d="M218 -10q-95 0 -142.5 58.5t-47.5 148.5q0 92 48 150.5t142 58.5q92 0 140.5 -57.5t48.5 -151.5q0 -59 -20.5 -105.5t-62 -74t-106.5 -27.5zM218 31q56 0 87 25t43.5 63.5t12.5 78.5q0 41 -12.5 79.5t-43.5 64t-87 25.5t-87 -25.5t-44 -64t-13 -79.5q0 -40 13 -78.5
t44 -63.5t87 -25zM144 457q-24 0 -32.5 12t-8.5 29q0 15 8.5 27t32.5 12t32 -12t8 -27q0 -17 -8 -29t-32 -12zM288 457q-24 0 -32.5 12t-8.5 29q0 15 8.5 27t32.5 12q25 0 32.5 -12t7.5 -27q0 -17 -7.5 -29t-32.5 -12z" />
    <glyph glyph-name="uni1ECD" unicode="&#x1ecd;" horiz-adv-x="450" 
d="M218 -10q-95 0 -142.5 58.5t-47.5 148.5q0 92 48 150.5t142 58.5q92 0 140.5 -57.5t48.5 -151.5q0 -59 -20.5 -105.5t-62 -74t-106.5 -27.5zM218 31q56 0 87 25t43.5 63.5t12.5 78.5q0 41 -12.5 79.5t-43.5 64t-87 25.5t-87 -25.5t-44 -64t-13 -79.5q0 -40 13 -78.5
t44 -63.5t87 -25zM215 -136q-20 0 -27 10t-7 24q0 13 7 23t27 10q21 0 27.5 -10t6.5 -23q0 -14 -6.5 -24t-27.5 -10z" />
    <glyph glyph-name="ograve" unicode="&#xf2;" horiz-adv-x="450" 
d="M218 -10q-95 0 -142.5 58.5t-47.5 148.5q0 92 48 150.5t142 58.5q92 0 140.5 -57.5t48.5 -151.5q0 -59 -20.5 -105.5t-62 -74t-106.5 -27.5zM218 31q56 0 87 25t43.5 63.5t12.5 78.5q0 41 -12.5 79.5t-43.5 64t-87 25.5t-87 -25.5t-44 -64t-13 -79.5q0 -40 13 -78.5
t44 -63.5t87 -25zM204 447l-75 100v12h44l54 -104v-8h-23z" />
    <glyph glyph-name="uni1ECF" unicode="&#x1ecf;" horiz-adv-x="450" 
d="M218 -10q-95 0 -142.5 58.5t-47.5 148.5q0 92 48 150.5t142 58.5q92 0 140.5 -57.5t48.5 -151.5q0 -59 -20.5 -105.5t-62 -74t-106.5 -27.5zM218 31q56 0 87 25t43.5 63.5t12.5 78.5q0 41 -12.5 79.5t-43.5 64t-87 25.5t-87 -25.5t-44 -64t-13 -79.5q0 -40 13 -78.5
t44 -63.5t87 -25zM196 464v9q4 13 18 22.5t27 20t13 27.5q0 16 -15 23t-32 1.5t-24 -27.5l-27 11q7 26 27.5 39t44.5 12t41 -14.5t17 -39.5q0 -25 -12.5 -38t-26 -22.5t-14.5 -23.5h-37z" />
    <glyph glyph-name="ohorn" unicode="&#x1a1;" horiz-adv-x="450" 
d="M218 -10q-95 0 -142.5 58.5t-47.5 148.5q0 92 48 150.5t142 58.5q92 0 140.5 -57.5t48.5 -151.5q0 -59 -20.5 -105.5t-62 -74t-106.5 -27.5zM218 31q56 0 87 25t43.5 63.5t12.5 78.5q0 41 -12.5 79.5t-43.5 64t-87 25.5t-87 -25.5t-44 -64t-13 -79.5q0 -40 13 -78.5
t44 -63.5t87 -25zM288 359l2 32h22q18 0 22.5 6.5t5.5 28.5h48q0 -37 -19.5 -52t-56.5 -15h-24z" />
    <glyph glyph-name="uni1EDB" unicode="&#x1edb;" horiz-adv-x="450" 
d="M218 -10q-95 0 -142.5 58.5t-47.5 148.5q0 92 48 150.5t142 58.5q92 0 140.5 -57.5t48.5 -151.5q0 -59 -20.5 -105.5t-62 -74t-106.5 -27.5zM218 31q56 0 87 25t43.5 63.5t12.5 78.5q0 41 -12.5 79.5t-43.5 64t-87 25.5t-87 -25.5t-44 -64t-13 -79.5q0 -40 13 -78.5
t44 -63.5t87 -25zM288 359l2 32h22q18 0 22.5 6.5t5.5 28.5h48q0 -37 -19.5 -52t-56.5 -15h-24zM218 447h-24v8l54 104h44v-12z" />
    <glyph glyph-name="uni1EE3" unicode="&#x1ee3;" horiz-adv-x="450" 
d="M218 -10q-95 0 -142.5 58.5t-47.5 148.5q0 92 48 150.5t142 58.5q92 0 140.5 -57.5t48.5 -151.5q0 -59 -20.5 -105.5t-62 -74t-106.5 -27.5zM218 31q56 0 87 25t43.5 63.5t12.5 78.5q0 41 -12.5 79.5t-43.5 64t-87 25.5t-87 -25.5t-44 -64t-13 -79.5q0 -40 13 -78.5
t44 -63.5t87 -25zM288 359l2 32h22q18 0 22.5 6.5t5.5 28.5h48q0 -37 -19.5 -52t-56.5 -15h-24zM216 -136q-20 0 -27 10t-7 24q0 13 7 23t27 10q21 0 27.5 -10t6.5 -23q0 -14 -6.5 -24t-27.5 -10z" />
    <glyph glyph-name="uni1EDD" unicode="&#x1edd;" horiz-adv-x="450" 
d="M218 -10q-95 0 -142.5 58.5t-47.5 148.5q0 92 48 150.5t142 58.5q92 0 140.5 -57.5t48.5 -151.5q0 -59 -20.5 -105.5t-62 -74t-106.5 -27.5zM218 31q56 0 87 25t43.5 63.5t12.5 78.5q0 41 -12.5 79.5t-43.5 64t-87 25.5t-87 -25.5t-44 -64t-13 -79.5q0 -40 13 -78.5
t44 -63.5t87 -25zM288 359l2 32h22q18 0 22.5 6.5t5.5 28.5h48q0 -37 -19.5 -52t-56.5 -15h-24zM204 454l-75 100v12h44l54 -104v-8h-23z" />
    <glyph glyph-name="uni1EDF" unicode="&#x1edf;" horiz-adv-x="450" 
d="M218 -10q-95 0 -142.5 58.5t-47.5 148.5q0 92 48 150.5t142 58.5q92 0 140.5 -57.5t48.5 -151.5q0 -59 -20.5 -105.5t-62 -74t-106.5 -27.5zM218 31q56 0 87 25t43.5 63.5t12.5 78.5q0 41 -12.5 79.5t-43.5 64t-87 25.5t-87 -25.5t-44 -64t-13 -79.5q0 -40 13 -78.5
t44 -63.5t87 -25zM288 359l2 32h22q18 0 22.5 6.5t5.5 28.5h48q0 -37 -19.5 -52t-56.5 -15h-24zM196 464v9q4 13 18 22.5t27 20t13 27.5q0 16 -15 23t-32 1.5t-24 -27.5l-27 11q7 26 27.5 39t44.5 12t41 -14.5t17 -39.5q0 -25 -12.5 -38t-26 -22.5t-14.5 -23.5h-37z" />
    <glyph glyph-name="uni1EE1" unicode="&#x1ee1;" horiz-adv-x="450" 
d="M218 -10q-95 0 -142.5 58.5t-47.5 148.5q0 92 48 150.5t142 58.5q92 0 140.5 -57.5t48.5 -151.5q0 -59 -20.5 -105.5t-62 -74t-106.5 -27.5zM218 31q56 0 87 25t43.5 63.5t12.5 78.5q0 41 -12.5 79.5t-43.5 64t-87 25.5t-87 -25.5t-44 -64t-13 -79.5q0 -40 13 -78.5
t44 -63.5t87 -25zM288 359l2 32h22q18 0 22.5 6.5t5.5 28.5h48q0 -37 -19.5 -52t-56.5 -15h-24zM268 484q-22 0 -35 8t-22.5 19t-19 19t-22.5 8q-18 0 -21.5 -14t-3.5 -39h-34q-1 31 9 57t48 26q22 0 35 -8.5t22 -19t18.5 -18.5t23.5 -8q18 0 21.5 14t3.5 40h33
q2 -34 -9 -59t-47 -25z" />
    <glyph glyph-name="ohungarumlaut" unicode="&#x151;" horiz-adv-x="447" 
d="M136 458l79 132l43 -20l-99 -123zM261 458l79 132l43 -20l-98 -123zM218 -10q-95 0 -142.5 58.5t-47.5 148.5q0 92 48 150.5t142 58.5q92 0 140.5 -57.5t48.5 -151.5q0 -59 -20.5 -105.5t-62 -74t-106.5 -27.5zM218 31q56 0 87 25t43.5 63.5t12.5 78.5q0 41 -12.5 79.5
t-43.5 64t-87 25.5t-87 -25.5t-44 -64t-13 -79.5q0 -40 13 -78.5t44 -63.5t87 -25z" />
    <glyph glyph-name="omacron" unicode="&#x14d;" horiz-adv-x="444" 
d="M218 -10q-95 0 -142.5 58.5t-47.5 148.5q0 92 48 150.5t142 58.5q92 0 140.5 -57.5t48.5 -151.5q0 -59 -20.5 -105.5t-62 -74t-106.5 -27.5zM218 31q56 0 87 25t43.5 63.5t12.5 78.5q0 41 -12.5 79.5t-43.5 64t-87 25.5t-87 -25.5t-44 -64t-13 -79.5q0 -40 13 -78.5
t44 -63.5t87 -25zM99 464v37h235v-37h-235z" />
    <glyph glyph-name="oslash" unicode="&#xf8;" horiz-adv-x="444" 
d="M58 -23l34 55q-32 27 -48 70t-16 95q0 92 48 150.5t142 58.5q55 0 96 -22l34 54l23 -12l-35 -56q35 -27 53 -71.5t18 -101.5q0 -59 -20.5 -105.5t-62 -74t-106.5 -27.5q-61 0 -105 27l-33 -53zM74 198q0 -35 9.5 -69.5t32.5 -58.5l176 279q-31 18 -74 18q-56 0 -87 -25.5
t-44 -64t-13 -79.5zM218 31q56 0 87 25t43.5 63.5t12.5 78.5q0 38 -10.5 75t-37.5 61l-177 -281q16 -10 36 -16t46 -6z" />
    <glyph glyph-name="otilde" unicode="&#xf5;" horiz-adv-x="450" 
d="M218 -10q-95 0 -142.5 58.5t-47.5 148.5q0 92 48 150.5t142 58.5q92 0 140.5 -57.5t48.5 -151.5q0 -59 -20.5 -105.5t-62 -74t-106.5 -27.5zM218 31q56 0 87 25t43.5 63.5t12.5 78.5q0 41 -12.5 79.5t-43.5 64t-87 25.5t-87 -25.5t-44 -64t-13 -79.5q0 -40 13 -78.5
t44 -63.5t87 -25zM268 470q-22 0 -35 8t-22.5 19t-19 19t-22.5 8q-18 0 -21.5 -14t-3.5 -39h-34q-1 31 9 57t48 26q22 0 35 -8.5t22 -19t18.5 -18.5t23.5 -8q18 0 21.5 14t3.5 40h33q2 -34 -9 -59t-47 -25z" />
    <glyph glyph-name="oe" unicode="&#x153;" horiz-adv-x="771" 
d="M217 -10q-95 0 -142.5 58.5t-47.5 148.5q0 92 47.5 150.5t142.5 58.5q62 0 104 -27t63 -74q22 43 64 72t105 29q74 0 122.5 -50.5t56.5 -131.5q1 -5 1 -12v-13h-328q0 -77 38.5 -122.5t109.5 -45.5q52 0 88.5 27t46.5 73l45 -4q-14 -61 -62 -99t-118 -38q-63 0 -104.5 29
t-63.5 73q-20 -47 -62 -74.5t-106 -27.5zM408 231h278q0 26 -13.5 58.5t-42.5 56t-78 23.5q-66 0 -102 -41t-42 -97zM217 31q56 0 87 25t44 63.5t13 78.5q0 41 -13 79.5t-44 64t-87 25.5t-87.5 -25.5t-44 -64t-12.5 -79.5q0 -40 12.5 -78.5t44 -63.5t87.5 -25z" />
    <glyph glyph-name="p" unicode="p" horiz-adv-x="466" 
d="M252 -10q-40 0 -68.5 14t-46.5 34t-27 37t-12 24h-2v-259h-46v566h39l8 -110h2q2 7 10.5 24.5t26 37t46 34t69.5 14.5q59 0 99.5 -28t62 -75t21.5 -106t-22 -106t-62.5 -74t-97.5 -27zM247 33q50 0 81.5 23.5t46 61.5t14.5 80t-16.5 79.5t-49.5 61t-83 23.5
q-60 0 -100.5 -43.5t-40.5 -120.5q0 -79 43 -122t105 -43z" />
    <glyph glyph-name="thorn" unicode="&#xfe;" horiz-adv-x="466" 
d="M50 -199v762h47v-272q2 5 10.5 23t26.5 39.5t47 37t73 15.5q60 0 99.5 -30t59.5 -77t20 -99t-19.5 -100t-59 -79t-100.5 -31q-40 0 -68.5 14.5t-47 34.5t-28.5 37.5t-13 24.5v-300h-47zM244 30q50 0 81 24.5t45.5 63t14.5 80.5t-16.5 80t-49 62.5t-81.5 24.5
q-56 0 -95 -40.5t-46 -102.5v-49q7 -62 47.5 -102.5t99.5 -40.5zM97 289q-1 0 0 0v0zM96 198q0 -9 1 -17v34q-1 -8 -1 -17zM97 102v1q-1 1 0 -1z" />
    <glyph glyph-name="q" unicode="q" horiz-adv-x="466" 
d="M214 -10q-58 0 -99 27.5t-62 74.5t-21 105q0 60 21.5 107t62.5 74.5t99 27.5q41 0 69.5 -14.5t45.5 -34t25.5 -37t11.5 -24.5h2l8 110h39v-566h-46v259h-2q-3 -7 -12.5 -24t-27.5 -37t-46 -34t-68 -14zM219 33q61 0 104.5 43t43.5 122q0 77 -40.5 120.5t-100.5 43.5
q-50 0 -83 -23.5t-49.5 -61t-16.5 -79.5t14.5 -80t46 -61.5t81.5 -23.5z" />
    <glyph glyph-name="r" unicode="r" horiz-adv-x="284" 
d="M52 0v406h39l6 -104q10 43 47 74t104 30h22v-51h-22q-68 0 -100 -21.5t-41.5 -57.5t-9.5 -80v-196h-45z" />
    <glyph glyph-name="racute" unicode="&#x155;" horiz-adv-x="284" 
d="M52 0v406h39l6 -104q10 43 47 74t104 30h22v-51h-22q-68 0 -100 -21.5t-41.5 -57.5t-9.5 -80v-196h-45zM173 458h-24v8l54 104h44v-12z" />
    <glyph glyph-name="rcaron" unicode="&#x159;" horiz-adv-x="308" 
d="M52 0v406h39l6 -104q10 43 47 74t104 30h22v-51h-22q-68 0 -100 -21.5t-41.5 -57.5t-9.5 -80v-196h-45zM24 597h50l94 -109l94 109h50l-134 -136h-21z" />
    <glyph glyph-name="uni0157" unicode="&#x157;" horiz-adv-x="292" 
d="M20 -191v39h15q24 0 29 12.5t5 28.5q-44 -6 -44 37q0 14 7 24.5t27 10.5q19 0 26.5 -11t7.5 -38q0 -49 -12 -76t-44 -27h-17zM53 0v406h39l6 -104q10 43 47 74t104 30h22v-51h-22q-68 0 -100 -21.5t-41.5 -57.5t-9.5 -80v-196h-45z" />
    <glyph glyph-name="s" unicode="s" horiz-adv-x="396" 
d="M194 -10q-51 0 -83 17.5t-49 41.5t-23.5 46t-6.5 32h45q0 -1 1.5 -16.5t11.5 -35.5t34.5 -34.5t70.5 -14.5q32 0 60.5 7.5t46 24t17.5 43.5q-1 32 -21 49.5t-52 26.5t-67 16t-66.5 19t-51 35t-18.5 63q0 47 44 77t113 30q26 0 54.5 -6t53.5 -21t40 -41.5t13 -67.5h-44
q2 31 -10 50.5t-31.5 29.5t-40.5 13.5t-38 3.5q-47 0 -79.5 -17.5t-32.5 -51.5q0 -31 20 -46.5t52 -24t67 -16t66.5 -20t52 -36.5t20.5 -67q0 -38 -23 -62.5t-61.5 -35.5t-84.5 -11z" />
    <glyph glyph-name="sacute" unicode="&#x15b;" horiz-adv-x="396" 
d="M194 -10q-51 0 -83 17.5t-49 41.5t-23.5 46t-6.5 32h45q0 -1 1.5 -16.5t11.5 -35.5t34.5 -34.5t70.5 -14.5q32 0 60.5 7.5t46 24t17.5 43.5q-1 32 -21 49.5t-52 26.5t-67 16t-66.5 19t-51 35t-18.5 63q0 47 44 77t113 30q26 0 54.5 -6t53.5 -21t40 -41.5t13 -67.5h-44
q2 31 -10 50.5t-31.5 29.5t-40.5 13.5t-38 3.5q-47 0 -79.5 -17.5t-32.5 -51.5q0 -31 20 -46.5t52 -24t67 -16t66.5 -20t52 -36.5t20.5 -67q0 -38 -23 -62.5t-61.5 -35.5t-84.5 -11zM207 458h-24v8l54 104h44v-12z" />
    <glyph glyph-name="scaron" unicode="&#x161;" horiz-adv-x="420" 
d="M194 -10q-51 0 -83 17.5t-49 41.5t-23.5 46t-6.5 32h45q0 -1 1.5 -16.5t11.5 -35.5t34.5 -34.5t70.5 -14.5q32 0 60.5 7.5t46 24t17.5 43.5q-1 32 -21 49.5t-52 26.5t-67 16t-66.5 19t-51 35t-18.5 63q0 47 44 77t113 30q26 0 54.5 -6t53.5 -21t40 -41.5t13 -67.5h-44
q2 31 -10 50.5t-31.5 29.5t-40.5 13.5t-38 3.5q-47 0 -79.5 -17.5t-32.5 -51.5q0 -31 20 -46.5t52 -24t67 -16t66.5 -20t52 -36.5t20.5 -67q0 -38 -23 -62.5t-61.5 -35.5t-84.5 -11zM52 597h50l94 -109l94 109h50l-134 -136h-21z" />
    <glyph glyph-name="scedilla" unicode="&#x15f;" horiz-adv-x="396" 
d="M194 -10q-51 0 -83 17.5t-49 41.5t-23.5 46t-6.5 32h45q0 -1 1.5 -16.5t11.5 -35.5t34.5 -34.5t70.5 -14.5q32 0 60.5 7.5t46 24t17.5 43.5q-1 32 -21 49.5t-52 26.5t-67 16t-66.5 19t-51 35t-18.5 63q0 47 44 77t113 30q26 0 54.5 -6t53.5 -21t40 -41.5t13 -67.5h-44
q2 31 -10 50.5t-31.5 29.5t-40.5 13.5t-38 3.5q-47 0 -79.5 -17.5t-32.5 -51.5q0 -31 20 -46.5t52 -24t67 -16t66.5 -20t52 -36.5t20.5 -67q0 -38 -23 -62.5t-61.5 -35.5t-84.5 -11zM110 -122l19 26q14 -16 36.5 -24.5t45 -8t37.5 10.5t14 30q-2 20 -18.5 26t-39 1
t-40.5 -19l-22 18l38 77l28 -11l-40 -62q12 13 33.5 19.5t43.5 4.5t37 -15t15 -39q0 -29 -19.5 -46.5t-49.5 -23t-61.5 3t-56.5 32.5z" />
    <glyph glyph-name="uni0219" unicode="&#x219;" horiz-adv-x="396" 
d="M194 -10q-51 0 -83 17.5t-49 41.5t-23.5 46t-6.5 32h45q0 -1 1.5 -16.5t11.5 -35.5t34.5 -34.5t70.5 -14.5q32 0 60.5 7.5t46 24t17.5 43.5q-1 32 -21 49.5t-52 26.5t-67 16t-66.5 19t-51 35t-18.5 63q0 47 44 77t113 30q26 0 54.5 -6t53.5 -21t40 -41.5t13 -67.5h-44
q2 31 -10 50.5t-31.5 29.5t-40.5 13.5t-38 3.5q-47 0 -79.5 -17.5t-32.5 -51.5q0 -31 20 -46.5t52 -24t67 -16t66.5 -20t52 -36.5t20.5 -67q0 -38 -23 -62.5t-61.5 -35.5t-84.5 -11zM148 -191v39h15q24 0 29 12.5t5 28.5q-44 -6 -44 37q0 14 7 24.5t27 10.5q19 0 26.5 -11
t7.5 -38q0 -49 -12 -76t-44 -27h-17z" />
    <glyph glyph-name="germandbls" unicode="&#xdf;" horiz-adv-x="500" 
d="M300 -10q-66 0 -107.5 31.5t-53.5 81.5h41q0 -1 5 -12t18 -25t35.5 -24.5t58.5 -10.5q60 0 100 33t40 83q0 38 -20.5 61t-51 37.5t-60.5 26t-50.5 25.5t-20.5 37q0 19 12.5 30.5t31.5 20t37.5 18.5t31.5 25t13 40q0 36 -38 46t-95 10h-128v-524h-44v563h172q24 0 54 -1
t58 -8t46 -24.5t18 -51.5q0 -31 -13.5 -50.5t-33 -31t-39 -20t-33 -18t-13.5 -23.5q0 -17 21 -28t52 -21.5t62 -27t52.5 -44t21.5 -72.5q0 -44 -24.5 -78.5t-65 -54t-90.5 -19.5z" />
    <glyph glyph-name="t" unicode="t" horiz-adv-x="262" 
d="M125 0q-32 0 -41 18t-9 43v308h-67v37q36 0 50 4.5t17 26.5t3 74h41v-105h95v-37h-95v-330h95v-39h-89z" />
    <glyph glyph-name="tbar" unicode="&#x167;" horiz-adv-x="262" 
d="M18 202v36h57v130h-67v38q36 0 50 5t17 27t3 73h41v-105h95v-38h-95v-130h79v-36h-79v-115q0 -33 14 -47.5t34 -12.5t38 18l9 -28q-32 -27 -64 -27.5t-53.5 22.5t-21.5 68v122h-57z" />
    <glyph glyph-name="tcaron" unicode="&#x165;" horiz-adv-x="261" 
d="M160 445l35 141h47l-55 -141h-27zM125 0q-32 0 -41 18t-9 43v308h-67v37q36 0 50 4.5t17 26.5t3 74h41v-105h95v-37h-95v-330h95v-39h-89z" />
    <glyph glyph-name="uni0163" unicode="&#x163;" horiz-adv-x="262" 
d="M125 0q-32 0 -41 18t-9 43v308h-67v37q36 0 50 4.5t17 26.5t3 74h41v-105h95v-37h-95v-330h95v-39h-89zM44 -122l19 26q14 -16 36.5 -24.5t45 -8t37.5 10.5t14 30q-2 20 -18.5 26t-39 1t-40.5 -19l-22 18l38 77l28 -11l-40 -62q12 13 33.5 19.5t43.5 4.5t37 -15t15 -39
q0 -29 -19.5 -46.5t-49.5 -23t-61.5 3t-56.5 32.5z" />
    <glyph glyph-name="uni021B" unicode="&#x21b;" horiz-adv-x="262" 
d="M125 0q-32 0 -41 18t-9 43v308h-67v37q36 0 50 4.5t17 26.5t3 74h41v-105h95v-37h-95v-330h95v-39h-89zM69 -191v39h15q24 0 29 12.5t5 28.5q-44 -6 -44 37q0 14 7 24.5t27 10.5q19 0 26.5 -11t7.5 -38q0 -49 -12 -76t-44 -27h-17z" />
    <glyph glyph-name="u" unicode="u" horiz-adv-x="438" 
d="M194 -10q-64 0 -98 29t-46.5 75.5t-12.5 99.5v212h45v-212q0 -46 9.5 -82.5t36 -58t77.5 -21.5q48 0 76.5 22.5t42.5 58t16 75.5l1 218h46v-406h-38l-8 97h-2q-6 -21 -24 -46t-47.5 -43t-73.5 -18z" />
    <glyph glyph-name="uacute" unicode="&#xfa;" horiz-adv-x="438" 
d="M194 -10q-64 0 -98 29t-46.5 75.5t-12.5 99.5v212h45v-212q0 -46 9.5 -82.5t36 -58t77.5 -21.5q48 0 76.5 22.5t42.5 58t16 75.5l1 218h46v-406h-38l-8 97h-2q-6 -21 -24 -46t-47.5 -43t-73.5 -18zM217 457h-24v8l54 104h44v-12z" />
    <glyph glyph-name="ucircumflex" unicode="&#xfb;" horiz-adv-x="438" 
d="M194 -10q-64 0 -98 29t-46.5 75.5t-12.5 99.5v212h45v-212q0 -46 9.5 -82.5t36 -58t77.5 -21.5q48 0 76.5 22.5t42.5 58t16 75.5l1 218h46v-406h-38l-8 97h-2q-6 -21 -24 -46t-47.5 -43t-73.5 -18zM96 461v6l104 101h22l105 -101v-6h-46l-69 74h-2l-68 -74h-46z" />
    <glyph glyph-name="udieresis" unicode="&#xfc;" horiz-adv-x="438" 
d="M194 -10q-64 0 -98 29t-46.5 75.5t-12.5 99.5v212h45v-212q0 -46 9.5 -82.5t36 -58t77.5 -21.5q48 0 76.5 22.5t42.5 58t16 75.5l1 218h46v-406h-38l-8 97h-2q-6 -21 -24 -46t-47.5 -43t-73.5 -18zM140 457q-24 0 -32.5 12t-8.5 29q0 15 8.5 27t32.5 12t32 -12t8 -27
q0 -17 -8 -29t-32 -12zM284 457q-24 0 -32.5 12t-8.5 29q0 15 8.5 27t32.5 12q25 0 32.5 -12t7.5 -27q0 -17 -7.5 -29t-32.5 -12z" />
    <glyph glyph-name="uni1EE5" unicode="&#x1ee5;" horiz-adv-x="438" 
d="M194 -10q-64 0 -98 29t-46.5 75.5t-12.5 99.5v212h45v-212q0 -46 9.5 -82.5t36 -58t77.5 -21.5q48 0 76.5 22.5t42.5 58t16 75.5l1 218h46v-406h-38l-8 97h-2q-6 -21 -24 -46t-47.5 -43t-73.5 -18zM216 -136q-20 0 -27 10t-7 24q0 13 7 23t27 10q21 0 27.5 -10t6.5 -23
q0 -14 -6.5 -24t-27.5 -10z" />
    <glyph glyph-name="ugrave" unicode="&#xf9;" horiz-adv-x="438" 
d="M194 -10q-64 0 -98 29t-46.5 75.5t-12.5 99.5v212h45v-212q0 -46 9.5 -82.5t36 -58t77.5 -21.5q48 0 76.5 22.5t42.5 58t16 75.5l1 218h46v-406h-38l-8 97h-2q-6 -21 -24 -46t-47.5 -43t-73.5 -18zM196 454l-75 100v12h44l54 -104v-8h-23z" />
    <glyph glyph-name="uni1EE7" unicode="&#x1ee7;" horiz-adv-x="438" 
d="M194 -10q-64 0 -98 29t-46.5 75.5t-12.5 99.5v212h45v-212q0 -46 9.5 -82.5t36 -58t77.5 -21.5q48 0 76.5 22.5t42.5 58t16 75.5l1 218h46v-406h-38l-8 97h-2q-6 -21 -24 -46t-47.5 -43t-73.5 -18zM196 464v9q4 13 18 22.5t27 20t13 27.5q0 16 -15 23t-32 1.5t-24 -27.5
l-27 11q7 26 27.5 39t44.5 12t41 -14.5t17 -39.5q0 -25 -12.5 -38t-26 -22.5t-14.5 -23.5h-37z" />
    <glyph glyph-name="uhorn" unicode="&#x1b0;" horiz-adv-x="447" 
d="M194 -10q-64 0 -98 29t-46.5 75.5t-12.5 99.5v212h45v-212q0 -46 9.5 -82.5t36 -58t77.5 -21.5q48 0 76.5 22.5t42.5 58t16 75.5l1 218h46v-406h-38l-8 97h-2q-6 -21 -24 -46t-47.5 -43t-73.5 -18zM362 374l2 32h22q18 0 22.5 6.5t5.5 28.5h48q0 -37 -19.5 -52t-56.5 -15
h-24z" />
    <glyph glyph-name="uni1EE9" unicode="&#x1ee9;" horiz-adv-x="447" 
d="M194 -10q-64 0 -98 29t-46.5 75.5t-12.5 99.5v212h45v-212q0 -46 9.5 -82.5t36 -58t77.5 -21.5q48 0 76.5 22.5t42.5 58t16 75.5l1 218h46v-406h-38l-8 97h-2q-6 -21 -24 -46t-47.5 -43t-73.5 -18zM362 374l2 32h22q18 0 22.5 6.5t5.5 28.5h48q0 -37 -19.5 -52t-56.5 -15
h-24zM217 457h-24v8l54 104h44v-12z" />
    <glyph glyph-name="uni1EF1" unicode="&#x1ef1;" horiz-adv-x="447" 
d="M194 -10q-64 0 -98 29t-46.5 75.5t-12.5 99.5v212h45v-212q0 -46 9.5 -82.5t36 -58t77.5 -21.5q48 0 76.5 22.5t42.5 58t16 75.5l1 218h46v-406h-38l-8 97h-2q-6 -21 -24 -46t-47.5 -43t-73.5 -18zM362 374l2 32h22q18 0 22.5 6.5t5.5 28.5h48q0 -37 -19.5 -52t-56.5 -15
h-24zM216 -136q-20 0 -27 10t-7 24q0 13 7 23t27 10q21 0 27.5 -10t6.5 -23q0 -14 -6.5 -24t-27.5 -10z" />
    <glyph glyph-name="uni1EEB" unicode="&#x1eeb;" horiz-adv-x="447" 
d="M194 -10q-64 0 -98 29t-46.5 75.5t-12.5 99.5v212h45v-212q0 -46 9.5 -82.5t36 -58t77.5 -21.5q48 0 76.5 22.5t42.5 58t16 75.5l1 218h46v-406h-38l-8 97h-2q-6 -21 -24 -46t-47.5 -43t-73.5 -18zM362 374l2 32h22q18 0 22.5 6.5t5.5 28.5h48q0 -37 -19.5 -52t-56.5 -15
h-24zM196 454l-75 100v12h44l54 -104v-8h-23z" />
    <glyph glyph-name="uni1EED" unicode="&#x1eed;" horiz-adv-x="447" 
d="M194 -10q-64 0 -98 29t-46.5 75.5t-12.5 99.5v212h45v-212q0 -46 9.5 -82.5t36 -58t77.5 -21.5q48 0 76.5 22.5t42.5 58t16 75.5l1 218h46v-406h-38l-8 97h-2q-6 -21 -24 -46t-47.5 -43t-73.5 -18zM362 374l2 32h22q18 0 22.5 6.5t5.5 28.5h48q0 -37 -19.5 -52t-56.5 -15
h-24zM196 464v9q4 13 18 22.5t27 20t13 27.5q0 16 -15 23t-32 1.5t-24 -27.5l-27 11q7 26 27.5 39t44.5 12t41 -14.5t17 -39.5q0 -25 -12.5 -38t-26 -22.5t-14.5 -23.5h-37z" />
    <glyph glyph-name="uni1EEF" unicode="&#x1eef;" horiz-adv-x="447" 
d="M194 -10q-64 0 -98 29t-46.5 75.5t-12.5 99.5v212h45v-212q0 -46 9.5 -82.5t36 -58t77.5 -21.5q48 0 76.5 22.5t42.5 58t16 75.5l1 218h46v-406h-38l-8 97h-2q-6 -21 -24 -46t-47.5 -43t-73.5 -18zM362 374l2 32h22q18 0 22.5 6.5t5.5 28.5h48q0 -37 -19.5 -52t-56.5 -15
h-24zM267 484q-22 0 -35 8t-22.5 19t-19 19t-22.5 8q-18 0 -21.5 -14t-3.5 -39h-34q-1 31 9 57t48 26q22 0 35 -8.5t22 -19t18.5 -18.5t23.5 -8q18 0 21.5 14t3.5 40h33q2 -34 -9 -59t-47 -25z" />
    <glyph glyph-name="uhungarumlaut" unicode="&#x171;" horiz-adv-x="443" 
d="M126 458l79 132l43 -20l-99 -123zM251 458l79 132l43 -20l-98 -123zM194 -10q-64 0 -98 29t-46.5 75.5t-12.5 99.5v212h45v-212q0 -46 9.5 -82.5t36 -58t77.5 -21.5q48 0 76.5 22.5t42.5 58t16 75.5l1 218h46v-406h-38l-8 97h-2q-6 -21 -24 -46t-47.5 -43t-73.5 -18z" />
    <glyph glyph-name="umacron" unicode="&#x16b;" horiz-adv-x="440" 
d="M194 -10q-64 0 -98 29t-46.5 75.5t-12.5 99.5v212h45v-212q0 -46 9.5 -82.5t36 -58t77.5 -21.5q48 0 76.5 22.5t42.5 58t16 75.5l1 218h46v-406h-38l-8 97h-2q-6 -21 -24 -46t-47.5 -43t-73.5 -18zM94 464v37h235v-37h-235z" />
    <glyph glyph-name="uogonek" unicode="&#x173;" horiz-adv-x="440" 
d="M194 -10q-64 0 -98 29t-46.5 75.5t-12.5 99.5v212h45v-212q0 -46 9.5 -82.5t36 -58t77.5 -21.5q48 0 76.5 22.5t42.5 58t16 75.5l1 218h46v-406h-1l-15 -8t-34 -22.5t-33.5 -35.5t-14.5 -46q0 -20 12 -33.5t36 -13.5q19 0 29.5 8.5t14.5 16.5l4 8l30 -23l-8.5 -11.5
t-26.5 -23t-46 -11.5q-36 0 -59 21.5t-23 56.5q0 30 16.5 54t39 41t41.5 28l-8 91h-2q-6 -21 -24 -46t-47.5 -43t-73.5 -18z" />
    <glyph glyph-name="uring" unicode="&#x16f;" horiz-adv-x="438" 
d="M194 -10q-64 0 -98 29t-46.5 75.5t-12.5 99.5v212h45v-212q0 -46 9.5 -82.5t36 -58t77.5 -21.5q48 0 76.5 22.5t42.5 58t16 75.5l1 218h46v-406h-38l-8 97h-2q-6 -21 -24 -46t-47.5 -43t-73.5 -18zM210 453q-40 0 -63.5 23.5t-23.5 61.5q0 40 23 64t64 24t65 -24t24 -64
q0 -37 -24 -61t-65 -24zM210 482q27 0 42 17t15 41t-15 40.5t-42 16.5t-42 -16.5t-15 -40.5q0 -25 16 -41.5t41 -16.5z" />
    <glyph glyph-name="utilde" unicode="&#x169;" horiz-adv-x="438" 
d="M194 -10q-64 0 -98 29t-46.5 75.5t-12.5 99.5v212h45v-212q0 -46 9.5 -82.5t36 -58t77.5 -21.5q48 0 76.5 22.5t42.5 58t16 75.5l1 218h46v-406h-38l-8 97h-2q-6 -21 -24 -46t-47.5 -43t-73.5 -18zM267 484q-22 0 -35 8t-22.5 19t-19 19t-22.5 8q-18 0 -21.5 -14
t-3.5 -39h-34q-1 31 9 57t48 26q22 0 35 -8.5t22 -19t18.5 -18.5t23.5 -8q18 0 21.5 14t3.5 40h33q2 -34 -9 -59t-47 -25z" />
    <glyph glyph-name="v" unicode="v" horiz-adv-x="396" 
d="M332 406h46v-13l-160 -393h-66l-160 392v14h45l148 -369h2z" />
    <glyph glyph-name="w" unicode="w" horiz-adv-x="587" 
d="M118 0l-116 393v13h43l104 -367h2l113 367h42l115 -367h2l102 367h43v-13l-114 -393h-66l-102 326h-2l-101 -326h-65z" />
    <glyph glyph-name="wacute" unicode="&#x1e83;" horiz-adv-x="587" 
d="M118 0l-116 393v13h43l104 -367h2l113 367h42l115 -367h2l102 367h43v-13l-114 -393h-66l-102 326h-2l-101 -326h-65zM298 457h-24v8l54 104h44v-12z" />
    <glyph glyph-name="wcircumflex" unicode="&#x175;" horiz-adv-x="587" 
d="M118 0l-116 393v13h43l104 -367h2l113 367h42l115 -367h2l102 367h43v-13l-114 -393h-66l-102 326h-2l-101 -326h-65zM165 461v6l104 101h22l105 -101v-6h-46l-69 74h-2l-68 -74h-46z" />
    <glyph glyph-name="wdieresis" unicode="&#x1e85;" horiz-adv-x="587" 
d="M118 0l-116 393v13h43l104 -367h2l113 367h42l115 -367h2l102 367h43v-13l-114 -393h-66l-102 326h-2l-101 -326h-65zM209 457q-24 0 -32.5 12t-8.5 29q0 15 8.5 27t32.5 12t32 -12t8 -27q0 -17 -8 -29t-32 -12zM353 457q-24 0 -32.5 12t-8.5 29q0 15 8.5 27t32.5 12
q25 0 32.5 -12t7.5 -27q0 -17 -7.5 -29t-32.5 -12z" />
    <glyph glyph-name="wgrave" unicode="&#x1e81;" horiz-adv-x="587" 
d="M118 0l-116 393v13h43l104 -367h2l113 367h42l115 -367h2l102 367h43v-13l-114 -393h-66l-102 326h-2l-101 -326h-65zM245 457l-75 100v12h44l54 -104v-8h-23z" />
    <glyph glyph-name="x" unicode="x" horiz-adv-x="404" 
d="M15 0l149 209l-142 197h53l117 -165l118 165h54l-143 -197l152 -209h-55l-126 177l-124 -177h-53z" />
    <glyph glyph-name="y" unicode="y" horiz-adv-x="391" 
d="M-4 -178v38h52q20 0 32 12t31 51l50 109l-159 374h48l135 -324l143 324h49l-226 -491q-18 -40 -32 -60t-30 -26.5t-39 -6.5h-54z" />
    <glyph glyph-name="yacute" unicode="&#xfd;" horiz-adv-x="391" 
d="M-4 -178v38h52q20 0 32 12t31 51l50 109l-159 374h48l135 -324l143 324h49l-226 -491q-18 -40 -32 -60t-30 -26.5t-39 -6.5h-54zM196 457h-24v8l54 104h44v-12z" />
    <glyph glyph-name="ycircumflex" unicode="&#x177;" horiz-adv-x="391" 
d="M-4 -178v38h52q20 0 32 12t31 51l50 109l-159 374h48l135 -324l143 324h49l-226 -491q-18 -40 -32 -60t-30 -26.5t-39 -6.5h-54zM79 461v6l104 101h22l105 -101v-6h-46l-69 74h-2l-68 -74h-46z" />
    <glyph glyph-name="ydieresis" unicode="&#xff;" horiz-adv-x="391" 
d="M-4 -178v38h52q20 0 32 12t31 51l50 109l-159 374h48l135 -324l143 324h49l-226 -491q-18 -40 -32 -60t-30 -26.5t-39 -6.5h-54zM121 457q-24 0 -32.5 12t-8.5 29q0 15 8.5 27t32.5 12t32 -12t8 -27q0 -17 -8 -29t-32 -12zM265 457q-24 0 -32.5 12t-8.5 29q0 15 8.5 27
t32.5 12q25 0 32.5 -12t7.5 -27q0 -17 -7.5 -29t-32.5 -12z" />
    <glyph glyph-name="uni1EF5" unicode="&#x1ef5;" horiz-adv-x="391" 
d="M-4 -178v38h52q20 0 32 12t31 51l50 109l-159 374h48l135 -324l143 324h49l-226 -491q-18 -40 -32 -60t-30 -26.5t-39 -6.5h-54zM291 -136q-20 0 -27 10t-7 24q0 13 7 23t27 10q21 0 27.5 -10t6.5 -23q0 -14 -6.5 -24t-27.5 -10z" />
    <glyph glyph-name="ygrave" unicode="&#x1ef3;" horiz-adv-x="391" 
d="M-4 -178v38h52q20 0 32 12t31 51l50 109l-159 374h48l135 -324l143 324h49l-226 -491q-18 -40 -32 -60t-30 -26.5t-39 -6.5h-54zM177 457l-75 100v12h44l54 -104v-8h-23z" />
    <glyph glyph-name="uni1EF7" unicode="&#x1ef7;" horiz-adv-x="391" 
d="M-4 -178v38h52q20 0 32 12t31 51l50 109l-159 374h48l135 -324l143 324h49l-226 -491q-18 -40 -32 -60t-30 -26.5t-39 -6.5h-54zM171 464v9q4 13 18 22.5t27 20t13 27.5q0 16 -15 23t-32 1.5t-24 -27.5l-27 11q7 26 27.5 39t44.5 12t41 -14.5t17 -39.5q0 -25 -12.5 -38
t-26 -22.5t-14.5 -23.5h-37z" />
    <glyph glyph-name="uni1EF9" unicode="&#x1ef9;" horiz-adv-x="391" 
d="M-4 -178v38h52q20 0 32 12t31 51l50 109l-159 374h48l135 -324l143 324h49l-226 -491q-18 -40 -32 -60t-30 -26.5t-39 -6.5h-54zM244 473q-22 0 -35 8t-22.5 19t-19 19t-22.5 8q-18 0 -21.5 -14t-3.5 -39h-34q-1 31 9 57t48 26q22 0 35 -8.5t22 -19t18.5 -18.5t23.5 -8
q18 0 21.5 14t3.5 40h33q2 -34 -9 -59t-47 -25z" />
    <glyph glyph-name="z" unicode="z" horiz-adv-x="423" 
d="M35 0v34l292 333h-279v39h339v-36l-292 -330h292v-40h-352z" />
    <glyph glyph-name="zacute" unicode="&#x17a;" horiz-adv-x="423" 
d="M35 0v34l292 333h-279v39h339v-36l-292 -330h292v-40h-352zM212 458h-24v8l54 104h44v-12z" />
    <glyph glyph-name="zcaron" unicode="&#x17e;" horiz-adv-x="423" 
d="M35 0v34l292 333h-279v39h339v-36l-292 -330h292v-40h-352zM76 597h50l94 -109l94 109h50l-134 -136h-21z" />
    <glyph glyph-name="zdotaccent" unicode="&#x17c;" horiz-adv-x="423" 
d="M35 0v34l292 333h-279v39h339v-36l-292 -330h292v-40h-352zM213 456q-24 0 -32.5 12.5t-8.5 28.5t8.5 28t32.5 12t32 -12t8 -28t-8 -28.5t-32 -12.5z" />
    <glyph glyph-name="a.ss01" horiz-adv-x="456" 
d="M144 -9q-52 0 -83.5 28t-31.5 75q0 35 16.5 57.5t44 36.5t60 22.5t64.5 15.5q45 9 68 16.5t31 16t8 23.5q0 42 -33.5 64.5t-76.5 22.5q-27 0 -53 -9.5t-44 -29.5t-20 -51h-44q5 43 29.5 71.5t60 42t73.5 13.5q39 0 74 -14t57.5 -42t22.5 -71v-199q0 -34 12.5 -43.5
t27.5 -6.5t22 8l6 -31q-2 -2 -17 -9t-37 -7q-60 1 -60 81v65q-24 -68 -70 -107t-107 -39zM156 30q42 0 79 27.5t60 73.5t23 100q-12 -10 -37 -16.5t-54 -13.5q-41 -9 -75.5 -20t-55.5 -30.5t-21 -52.5q1 -32 22.5 -50.5t58.5 -17.5z" />
    <glyph glyph-name="aacute.ss01" horiz-adv-x="456" 
d="M144 -9q-52 0 -83.5 28t-31.5 75q0 35 16.5 57.5t44 36.5t60 22.5t64.5 15.5q45 9 68 16.5t31 16t8 23.5q0 42 -33.5 64.5t-76.5 22.5q-27 0 -53 -9.5t-44 -29.5t-20 -51h-44q5 43 29.5 71.5t60 42t73.5 13.5q39 0 74 -14t57.5 -42t22.5 -71v-199q0 -34 12.5 -43.5
t27.5 -6.5t22 8l6 -31q-2 -2 -17 -9t-37 -7q-60 1 -60 81v65q-24 -68 -70 -107t-107 -39zM156 30q42 0 79 27.5t60 73.5t23 100q-12 -10 -37 -16.5t-54 -13.5q-41 -9 -75.5 -20t-55.5 -30.5t-21 -52.5q1 -32 22.5 -50.5t58.5 -17.5zM226 458h-24v8l54 104h44v-12z" />
    <glyph glyph-name="abreve.ss01" horiz-adv-x="456" 
d="M144 -9q-52 0 -83.5 28t-31.5 75q0 35 16.5 57.5t44 36.5t60 22.5t64.5 15.5q45 9 68 16.5t31 16t8 23.5q0 42 -33.5 64.5t-76.5 22.5q-27 0 -53 -9.5t-44 -29.5t-20 -51h-44q5 43 29.5 71.5t60 42t73.5 13.5q39 0 74 -14t57.5 -42t22.5 -71v-199q0 -34 12.5 -43.5
t27.5 -6.5t22 8l6 -31q-2 -2 -17 -9t-37 -7q-60 1 -60 81v65q-24 -68 -70 -107t-107 -39zM156 30q42 0 79 27.5t60 73.5t23 100q-12 -10 -37 -16.5t-54 -13.5q-41 -9 -75.5 -20t-55.5 -30.5t-21 -52.5q1 -32 22.5 -50.5t58.5 -17.5zM216 466q-51 0 -81 23t-30 61h35
q0 -33 22 -42t53 -9q30 0 52 9t22 42h35q0 -38 -29 -61t-79 -23z" />
    <glyph glyph-name="uni1EAF.ss01" horiz-adv-x="456" 
d="M144 -9q-52 0 -83.5 28t-31.5 75q0 35 16.5 57.5t44 36.5t60 22.5t64.5 15.5q45 9 68 16.5t31 16t8 23.5q0 42 -33.5 64.5t-76.5 22.5q-27 0 -53 -9.5t-44 -29.5t-20 -51h-44q5 43 29.5 71.5t60 42t73.5 13.5q39 0 74 -14t57.5 -42t22.5 -71v-199q0 -34 12.5 -43.5
t27.5 -6.5t22 8l6 -31q-2 -2 -17 -9t-37 -7q-60 1 -60 81v65q-24 -68 -70 -107t-107 -39zM156 30q42 0 79 27.5t60 73.5t23 100q-12 -10 -37 -16.5t-54 -13.5q-41 -9 -75.5 -20t-55.5 -30.5t-21 -52.5q1 -32 22.5 -50.5t58.5 -17.5zM216 466q-51 0 -81 23t-30 61h35
q0 -33 22 -42t53 -9q30 0 52 9t22 42h35q0 -38 -29 -61t-79 -23zM227 562h-24v8l54 104h44v-12z" />
    <glyph glyph-name="uni1EB7.ss01" horiz-adv-x="456" 
d="M144 -9q-52 0 -83.5 28t-31.5 75q0 35 16.5 57.5t44 36.5t60 22.5t64.5 15.5q45 9 68 16.5t31 16t8 23.5q0 42 -33.5 64.5t-76.5 22.5q-27 0 -53 -9.5t-44 -29.5t-20 -51h-44q5 43 29.5 71.5t60 42t73.5 13.5q39 0 74 -14t57.5 -42t22.5 -71v-199q0 -34 12.5 -43.5
t27.5 -6.5t22 8l6 -31q-2 -2 -17 -9t-37 -7q-60 1 -60 81v65q-24 -68 -70 -107t-107 -39zM156 30q42 0 79 27.5t60 73.5t23 100q-12 -10 -37 -16.5t-54 -13.5q-41 -9 -75.5 -20t-55.5 -30.5t-21 -52.5q1 -32 22.5 -50.5t58.5 -17.5zM214 466q-51 0 -81 23t-30 61h35
q0 -33 22 -42t53 -9q30 0 52 9t22 42h35q0 -38 -29 -61t-79 -23zM204 -136q-20 0 -27 10t-7 24q0 13 7 23t27 10q21 0 27.5 -10t6.5 -23q0 -14 -6.5 -24t-27.5 -10z" />
    <glyph glyph-name="uni1EB1.ss01" horiz-adv-x="456" 
d="M144 -9q-52 0 -83.5 28t-31.5 75q0 35 16.5 57.5t44 36.5t60 22.5t64.5 15.5q45 9 68 16.5t31 16t8 23.5q0 42 -33.5 64.5t-76.5 22.5q-27 0 -53 -9.5t-44 -29.5t-20 -51h-44q5 43 29.5 71.5t60 42t73.5 13.5q39 0 74 -14t57.5 -42t22.5 -71v-199q0 -34 12.5 -43.5
t27.5 -6.5t22 8l6 -31q-2 -2 -17 -9t-37 -7q-60 1 -60 81v65q-24 -68 -70 -107t-107 -39zM156 30q42 0 79 27.5t60 73.5t23 100q-12 -10 -37 -16.5t-54 -13.5q-41 -9 -75.5 -20t-55.5 -30.5t-21 -52.5q1 -32 22.5 -50.5t58.5 -17.5zM216 466q-51 0 -81 23t-30 61h35
q0 -33 22 -42t53 -9q30 0 52 9t22 42h35q0 -38 -29 -61t-79 -23zM195 562l-75 100v12h44l54 -104v-8h-23z" />
    <glyph glyph-name="uni1EB3.ss01" horiz-adv-x="456" 
d="M144 -9q-52 0 -83.5 28t-31.5 75q0 35 16.5 57.5t44 36.5t60 22.5t64.5 15.5q45 9 68 16.5t31 16t8 23.5q0 42 -33.5 64.5t-76.5 22.5q-27 0 -53 -9.5t-44 -29.5t-20 -51h-44q5 43 29.5 71.5t60 42t73.5 13.5q39 0 74 -14t57.5 -42t22.5 -71v-199q0 -34 12.5 -43.5
t27.5 -6.5t22 8l6 -31q-2 -2 -17 -9t-37 -7q-60 1 -60 81v65q-24 -68 -70 -107t-107 -39zM156 30q42 0 79 27.5t60 73.5t23 100q-12 -10 -37 -16.5t-54 -13.5q-41 -9 -75.5 -20t-55.5 -30.5t-21 -52.5q1 -32 22.5 -50.5t58.5 -17.5zM215 466q-51 0 -81 23t-30 61h35
q0 -33 22 -42t53 -9q30 0 52 9t22 42h35q0 -38 -29 -61t-79 -23zM194 559v9q4 13 18 22.5t27 20t13 27.5q0 16 -15 23t-32 1.5t-24 -27.5l-27 11q7 26 27.5 39t44.5 12t41 -14.5t17 -39.5q0 -25 -12.5 -38t-26 -22.5t-14.5 -23.5h-37z" />
    <glyph glyph-name="uni1EB5.ss01" horiz-adv-x="456" 
d="M144 -9q-52 0 -83.5 28t-31.5 75q0 35 16.5 57.5t44 36.5t60 22.5t64.5 15.5q45 9 68 16.5t31 16t8 23.5q0 42 -33.5 64.5t-76.5 22.5q-27 0 -53 -9.5t-44 -29.5t-20 -51h-44q5 43 29.5 71.5t60 42t73.5 13.5q39 0 74 -14t57.5 -42t22.5 -71v-199q0 -34 12.5 -43.5
t27.5 -6.5t22 8l6 -31q-2 -2 -17 -9t-37 -7q-60 1 -60 81v65q-24 -68 -70 -107t-107 -39zM156 30q42 0 79 27.5t60 73.5t23 100q-12 -10 -37 -16.5t-54 -13.5q-41 -9 -75.5 -20t-55.5 -30.5t-21 -52.5q1 -32 22.5 -50.5t58.5 -17.5zM215 466q-51 0 -81 23t-30 61h35
q0 -33 22 -42t53 -9q30 0 52 9t22 42h35q0 -38 -29 -61t-79 -23zM266 603q-22 0 -35 8t-22.5 19t-19 19t-22.5 8q-18 0 -21.5 -14t-3.5 -39h-34q-1 31 9 57t48 26q22 0 35 -8.5t22 -19t18.5 -18.5t23.5 -8q18 0 21.5 14t3.5 40h33q2 -34 -9 -59t-47 -25z" />
    <glyph glyph-name="acircumflex.ss01" horiz-adv-x="456" 
d="M144 -9q-52 0 -83.5 28t-31.5 75q0 35 16.5 57.5t44 36.5t60 22.5t64.5 15.5q45 9 68 16.5t31 16t8 23.5q0 42 -33.5 64.5t-76.5 22.5q-27 0 -53 -9.5t-44 -29.5t-20 -51h-44q5 43 29.5 71.5t60 42t73.5 13.5q39 0 74 -14t57.5 -42t22.5 -71v-199q0 -34 12.5 -43.5
t27.5 -6.5t22 8l6 -31q-2 -2 -17 -9t-37 -7q-60 1 -60 81v65q-24 -68 -70 -107t-107 -39zM156 30q42 0 79 27.5t60 73.5t23 100q-12 -10 -37 -16.5t-54 -13.5q-41 -9 -75.5 -20t-55.5 -30.5t-21 -52.5q1 -32 22.5 -50.5t58.5 -17.5zM100 461v6l104 101h22l105 -101v-6h-46
l-69 74h-2l-68 -74h-46z" />
    <glyph glyph-name="uni1EA5.ss01" horiz-adv-x="456" 
d="M144 -9q-52 0 -83.5 28t-31.5 75q0 35 16.5 57.5t44 36.5t60 22.5t64.5 15.5q45 9 68 16.5t31 16t8 23.5q0 42 -33.5 64.5t-76.5 22.5q-27 0 -53 -9.5t-44 -29.5t-20 -51h-44q5 43 29.5 71.5t60 42t73.5 13.5q39 0 74 -14t57.5 -42t22.5 -71v-199q0 -34 12.5 -43.5
t27.5 -6.5t22 8l6 -31q-2 -2 -17 -9t-37 -7q-60 1 -60 81v65q-24 -68 -70 -107t-107 -39zM156 30q42 0 79 27.5t60 73.5t23 100q-12 -10 -37 -16.5t-54 -13.5q-41 -9 -75.5 -20t-55.5 -30.5t-21 -52.5q1 -32 22.5 -50.5t58.5 -17.5zM99 450v6l104 101h22l105 -101v-6h-46
l-69 74h-2l-68 -74h-46zM340 536h-24v8l54 104h44v-12z" />
    <glyph glyph-name="uni1EAD.ss01" horiz-adv-x="456" 
d="M144 -9q-52 0 -83.5 28t-31.5 75q0 35 16.5 57.5t44 36.5t60 22.5t64.5 15.5q45 9 68 16.5t31 16t8 23.5q0 42 -33.5 64.5t-76.5 22.5q-27 0 -53 -9.5t-44 -29.5t-20 -51h-44q5 43 29.5 71.5t60 42t73.5 13.5q39 0 74 -14t57.5 -42t22.5 -71v-199q0 -34 12.5 -43.5
t27.5 -6.5t22 8l6 -31q-2 -2 -17 -9t-37 -7q-60 1 -60 81v65q-24 -68 -70 -107t-107 -39zM156 30q42 0 79 27.5t60 73.5t23 100q-12 -10 -37 -16.5t-54 -13.5q-41 -9 -75.5 -20t-55.5 -30.5t-21 -52.5q1 -32 22.5 -50.5t58.5 -17.5zM100 461v6l104 101h22l105 -101v-6h-46
l-69 74h-2l-68 -74h-46zM204 -136q-20 0 -27 10t-7 24q0 13 7 23t27 10q21 0 27.5 -10t6.5 -23q0 -14 -6.5 -24t-27.5 -10z" />
    <glyph glyph-name="uni1EA7.ss01" horiz-adv-x="456" 
d="M144 -9q-52 0 -83.5 28t-31.5 75q0 35 16.5 57.5t44 36.5t60 22.5t64.5 15.5q45 9 68 16.5t31 16t8 23.5q0 42 -33.5 64.5t-76.5 22.5q-27 0 -53 -9.5t-44 -29.5t-20 -51h-44q5 43 29.5 71.5t60 42t73.5 13.5q39 0 74 -14t57.5 -42t22.5 -71v-199q0 -34 12.5 -43.5
t27.5 -6.5t22 8l6 -31q-2 -2 -17 -9t-37 -7q-60 1 -60 81v65q-24 -68 -70 -107t-107 -39zM156 30q42 0 79 27.5t60 73.5t23 100q-12 -10 -37 -16.5t-54 -13.5q-41 -9 -75.5 -20t-55.5 -30.5t-21 -52.5q1 -32 22.5 -50.5t58.5 -17.5zM83 536l-75 100v12h44l54 -104v-8h-23z
M100 450v6l104 101h22l105 -101v-6h-46l-69 74h-2l-68 -74h-46z" />
    <glyph glyph-name="uni1EA9.ss01" horiz-adv-x="456" 
d="M144 -9q-52 0 -83.5 28t-31.5 75q0 35 16.5 57.5t44 36.5t60 22.5t64.5 15.5q45 9 68 16.5t31 16t8 23.5q0 42 -33.5 64.5t-76.5 22.5q-27 0 -53 -9.5t-44 -29.5t-20 -51h-44q5 43 29.5 71.5t60 42t73.5 13.5q39 0 74 -14t57.5 -42t22.5 -71v-199q0 -34 12.5 -43.5
t27.5 -6.5t22 8l6 -31q-2 -2 -17 -9t-37 -7q-60 1 -60 81v65q-24 -68 -70 -107t-107 -39zM156 30q42 0 79 27.5t60 73.5t23 100q-12 -10 -37 -16.5t-54 -13.5q-41 -9 -75.5 -20t-55.5 -30.5t-21 -52.5q1 -32 22.5 -50.5t58.5 -17.5zM100 461v6l104 101h22l105 -101v-6h-46
l-69 74h-2l-68 -74h-46zM305 545v9q4 13 18 22.5t27 20t13 27.5q0 16 -15 23t-32 1.5t-24 -27.5l-27 11q7 26 27.5 39t44.5 12t41 -14.5t17 -39.5q0 -25 -12.5 -38t-26 -22.5t-14.5 -23.5h-37z" />
    <glyph glyph-name="uni1EAB.ss01" horiz-adv-x="456" 
d="M144 -9q-52 0 -83.5 28t-31.5 75q0 35 16.5 57.5t44 36.5t60 22.5t64.5 15.5q45 9 68 16.5t31 16t8 23.5q0 42 -33.5 64.5t-76.5 22.5q-27 0 -53 -9.5t-44 -29.5t-20 -51h-44q5 43 29.5 71.5t60 42t73.5 13.5q39 0 74 -14t57.5 -42t22.5 -71v-199q0 -34 12.5 -43.5
t27.5 -6.5t22 8l6 -31q-2 -2 -17 -9t-37 -7q-60 1 -60 81v65q-24 -68 -70 -107t-107 -39zM156 30q42 0 79 27.5t60 73.5t23 100q-12 -10 -37 -16.5t-54 -13.5q-41 -9 -75.5 -20t-55.5 -30.5t-21 -52.5q1 -32 22.5 -50.5t58.5 -17.5zM99 461v6l104 101h22l105 -101v-6h-46
l-69 74h-2l-68 -74h-46zM263 615q-22 0 -35 8t-22.5 19t-19 19t-22.5 8q-18 0 -21.5 -14t-3.5 -39h-34q-1 31 9 57t48 26q22 0 35 -8.5t22 -19t18.5 -18.5t23.5 -8q18 0 21.5 14t3.5 40h33q2 -34 -9 -59t-47 -25z" />
    <glyph glyph-name="adieresis.ss01" horiz-adv-x="456" 
d="M144 -9q-52 0 -83.5 28t-31.5 75q0 35 16.5 57.5t44 36.5t60 22.5t64.5 15.5q45 9 68 16.5t31 16t8 23.5q0 42 -33.5 64.5t-76.5 22.5q-27 0 -53 -9.5t-44 -29.5t-20 -51h-44q5 43 29.5 71.5t60 42t73.5 13.5q39 0 74 -14t57.5 -42t22.5 -71v-199q0 -34 12.5 -43.5
t27.5 -6.5t22 8l6 -31q-2 -2 -17 -9t-37 -7q-60 1 -60 81v65q-24 -68 -70 -107t-107 -39zM156 30q42 0 79 27.5t60 73.5t23 100q-12 -10 -37 -16.5t-54 -13.5q-41 -9 -75.5 -20t-55.5 -30.5t-21 -52.5q1 -32 22.5 -50.5t58.5 -17.5zM141 457q-24 0 -32.5 12t-8.5 29
q0 15 8.5 27t32.5 12t32 -12t8 -27q0 -17 -8 -29t-32 -12zM285 457q-24 0 -32.5 12t-8.5 29q0 15 8.5 27t32.5 12q25 0 32.5 -12t7.5 -27q0 -17 -7.5 -29t-32.5 -12z" />
    <glyph glyph-name="uni1EA1.ss01" horiz-adv-x="456" 
d="M144 -9q-52 0 -83.5 28t-31.5 75q0 35 16.5 57.5t44 36.5t60 22.5t64.5 15.5q45 9 68 16.5t31 16t8 23.5q0 42 -33.5 64.5t-76.5 22.5q-27 0 -53 -9.5t-44 -29.5t-20 -51h-44q5 43 29.5 71.5t60 42t73.5 13.5q39 0 74 -14t57.5 -42t22.5 -71v-199q0 -34 12.5 -43.5
t27.5 -6.5t22 8l6 -31q-2 -2 -17 -9t-37 -7q-60 1 -60 81v65q-24 -68 -70 -107t-107 -39zM156 30q42 0 79 27.5t60 73.5t23 100q-12 -10 -37 -16.5t-54 -13.5q-41 -9 -75.5 -20t-55.5 -30.5t-21 -52.5q1 -32 22.5 -50.5t58.5 -17.5zM204 -136q-20 0 -27 10t-7 24q0 13 7 23
t27 10q21 0 27.5 -10t6.5 -23q0 -14 -6.5 -24t-27.5 -10z" />
    <glyph glyph-name="agrave.ss01" horiz-adv-x="456" 
d="M144 -9q-52 0 -83.5 28t-31.5 75q0 35 16.5 57.5t44 36.5t60 22.5t64.5 15.5q45 9 68 16.5t31 16t8 23.5q0 42 -33.5 64.5t-76.5 22.5q-27 0 -53 -9.5t-44 -29.5t-20 -51h-44q5 43 29.5 71.5t60 42t73.5 13.5q39 0 74 -14t57.5 -42t22.5 -71v-199q0 -34 12.5 -43.5
t27.5 -6.5t22 8l6 -31q-2 -2 -17 -9t-37 -7q-60 1 -60 81v65q-24 -68 -70 -107t-107 -39zM156 30q42 0 79 27.5t60 73.5t23 100q-12 -10 -37 -16.5t-54 -13.5q-41 -9 -75.5 -20t-55.5 -30.5t-21 -52.5q1 -32 22.5 -50.5t58.5 -17.5zM184 458l-75 100v12h44l54 -104v-8h-23z
" />
    <glyph glyph-name="uni1EA3.ss01" horiz-adv-x="456" 
d="M144 -9q-52 0 -83.5 28t-31.5 75q0 35 16.5 57.5t44 36.5t60 22.5t64.5 15.5q45 9 68 16.5t31 16t8 23.5q0 42 -33.5 64.5t-76.5 22.5q-27 0 -53 -9.5t-44 -29.5t-20 -51h-44q5 43 29.5 71.5t60 42t73.5 13.5q39 0 74 -14t57.5 -42t22.5 -71v-199q0 -34 12.5 -43.5
t27.5 -6.5t22 8l6 -31q-2 -2 -17 -9t-37 -7q-60 1 -60 81v65q-24 -68 -70 -107t-107 -39zM156 30q42 0 79 27.5t60 73.5t23 100q-12 -10 -37 -16.5t-54 -13.5q-41 -9 -75.5 -20t-55.5 -30.5t-21 -52.5q1 -32 22.5 -50.5t58.5 -17.5zM200 464v9q4 13 18 22.5t27 20t13 27.5
q0 16 -15 23t-32 1.5t-24 -27.5l-27 11q7 26 27.5 39t44.5 12t41 -14.5t17 -39.5q0 -25 -12.5 -38t-26 -22.5t-14.5 -23.5h-37z" />
    <glyph glyph-name="amacron.ss01" horiz-adv-x="456" 
d="M144 -9q-52 0 -83.5 28t-31.5 75q0 35 16.5 57.5t44 36.5t60 22.5t64.5 15.5q45 9 68 16.5t31 16t8 23.5q0 42 -33.5 64.5t-76.5 22.5q-27 0 -53 -9.5t-44 -29.5t-20 -51h-44q5 43 29.5 71.5t60 42t73.5 13.5q39 0 74 -14t57.5 -42t22.5 -71v-199q0 -34 12.5 -43.5
t27.5 -6.5t22 8l6 -31q-2 -2 -17 -9t-37 -7q-60 1 -60 81v65q-24 -68 -70 -107t-107 -39zM156 30q42 0 79 27.5t60 73.5t23 100q-12 -10 -37 -16.5t-54 -13.5q-41 -9 -75.5 -20t-55.5 -30.5t-21 -52.5q1 -32 22.5 -50.5t58.5 -17.5zM96 464v37h235v-37h-235z" />
    <glyph glyph-name="aogonek.ss01" horiz-adv-x="458" 
d="M145 -9q-53 0 -84.5 28t-31.5 75q0 35 16.5 57.5t44 36.5t60 22.5t64.5 15.5q45 9 68 16.5t31 16t8 23.5q0 42 -33.5 64.5t-76.5 22.5q-27 0 -53 -9.5t-44 -29.5t-20 -51h-44q5 43 29.5 71.5t60 42t73.5 13.5q39 0 74 -14t57.5 -42t22.5 -71v-199q0 -34 12.5 -43.5
t27.5 -6.5t22 8l6 -31v0l2 -11l-14.5 -8t-33.5 -22.5t-34 -35.5t-15 -46q0 -20 12.5 -33.5t35.5 -13.5q19 0 29.5 8.5t14.5 16.5l4 8l30 -23l-8.5 -11.5t-26 -23t-45.5 -11.5q-37 0 -59.5 21.5t-22.5 56.5q0 38 25.5 66.5t52.5 45.5h-1q-60 1 -60 81v65q-24 -68 -70 -107
t-106 -39zM156 30q47 0 83.5 27.5t58 73.5t21.5 100q-13 -10 -38 -16.5t-54 -13.5q-41 -9 -76 -20.5t-55.5 -30.5t-20.5 -52q1 -32 22.5 -50.5t58.5 -17.5z" />
    <glyph glyph-name="aring.ss01" horiz-adv-x="456" 
d="M144 -9q-52 0 -83.5 28t-31.5 75q0 35 16.5 57.5t44 36.5t60 22.5t64.5 15.5q45 9 68 16.5t31 16t8 23.5q0 42 -33.5 64.5t-76.5 22.5q-27 0 -53 -9.5t-44 -29.5t-20 -51h-44q5 43 29.5 71.5t60 42t73.5 13.5q39 0 74 -14t57.5 -42t22.5 -71v-199q0 -34 12.5 -43.5
t27.5 -6.5t22 8l6 -31q-2 -2 -17 -9t-37 -7q-60 1 -60 81v65q-24 -68 -70 -107t-107 -39zM156 30q42 0 79 27.5t60 73.5t23 100q-12 -10 -37 -16.5t-54 -13.5q-41 -9 -75.5 -20t-55.5 -30.5t-21 -52.5q1 -32 22.5 -50.5t58.5 -17.5zM214 453q-40 0 -63.5 23.5t-23.5 61.5
q0 40 23 64t64 24t65 -24t24 -64q0 -37 -24 -61t-65 -24zM214 482q27 0 42 17t15 41t-15 40.5t-42 16.5t-42 -16.5t-15 -40.5q0 -25 16 -41.5t41 -16.5z" />
    <glyph glyph-name="atilde.ss01" horiz-adv-x="456" 
d="M144 -9q-52 0 -83.5 28t-31.5 75q0 35 16.5 57.5t44 36.5t60 22.5t64.5 15.5q45 9 68 16.5t31 16t8 23.5q0 42 -33.5 64.5t-76.5 22.5q-27 0 -53 -9.5t-44 -29.5t-20 -51h-44q5 43 29.5 71.5t60 42t73.5 13.5q39 0 74 -14t57.5 -42t22.5 -71v-199q0 -34 12.5 -43.5
t27.5 -6.5t22 8l6 -31q-2 -2 -17 -9t-37 -7q-60 1 -60 81v65q-24 -68 -70 -107t-107 -39zM156 30q42 0 79 27.5t60 73.5t23 100q-12 -10 -37 -16.5t-54 -13.5q-41 -9 -75.5 -20t-55.5 -30.5t-21 -52.5q1 -32 22.5 -50.5t58.5 -17.5zM264 470q-22 0 -35 8t-22.5 19t-19 19
t-22.5 8q-18 0 -21.5 -14t-3.5 -39h-34q-1 31 9 57t48 26q22 0 35 -8.5t22 -19t18.5 -18.5t23.5 -8q18 0 21.5 14t3.5 40h33q2 -34 -9 -59t-47 -25z" />
    <glyph glyph-name="f.ss01" horiz-adv-x="311" 
d="M267 304h-108v-304h-45v304h-84v39h111q-28 3 -54.5 16.5t-43.5 36.5t-17 56q0 47 39.5 79t97.5 32q60 0 103.5 -36.5t55.5 -90.5h-45q0 3 -5 16.5t-17.5 29.5t-34.5 27.5t-57 11.5q-43 0 -69 -22.5t-26 -53.5q0 -45 40 -72t117 -30h42h-34q16 -1 34 0v-39z" />
    <glyph glyph-name="g.ss01" horiz-adv-x="458" 
d="M100 75q0 -26 17 -36t44.5 -11.5t58.5 -1.5q34 0 69.5 -3.5t64.5 -14t47 -32t18 -59.5q0 -42 -29 -66.5t-75 -35t-96 -11.5q-57 -1 -102 9.5t-70.5 35t-23.5 65.5q1 42 26.5 67.5t73.5 25.5q-27 6 -45 21t-18 45q0 24 16 37t38.5 17.5t41.5 4.5q-55 11 -79 46.5t-24 80.5
q0 67 44.5 107t124.5 40h47.5t36.5 7.5t14 31.5q0 25 -23.5 31t-56.5 -6l-8 36q27 8 55 5t47 -17.5t19 -43.5q0 -22 -10.5 -34t-22 -17.5t-16.5 -7.5q38 -13 63 -49.5t25 -82.5q0 -37 -18 -69t-56 -51.5t-96 -19.5q-34 0 -61.5 -1t-44 -10t-16.5 -33zM99 260q0 -41 18.5 -64
t46.5 -32.5t58 -9.5q121 0 121 106q0 48 -28 79t-94 31q-69 0 -95.5 -32.5t-26.5 -77.5zM220 -158q41 0 75.5 7.5t55.5 24t21 44.5q0 31 -20.5 47t-55 22t-76.5 6q-43 0 -77 -5t-54 -20.5t-20 -49.5q0 -31 21 -47.5t55.5 -22.5t74.5 -6z" />
    <glyph glyph-name="gbreve.ss01" horiz-adv-x="458" 
d="M100 75q0 -26 17 -36t44.5 -11.5t58.5 -1.5q34 0 69.5 -3.5t64.5 -14t47 -32t18 -59.5q0 -42 -29 -66.5t-75 -35t-96 -11.5q-57 -1 -102 9.5t-70.5 35t-23.5 65.5q1 42 26.5 67.5t73.5 25.5q-27 6 -45 21t-18 45q0 24 16 37t38.5 17.5t41.5 4.5q-55 11 -79 46.5t-24 80.5
q0 67 44.5 107t124.5 40h47.5t36.5 7.5t14 31.5q0 25 -23.5 31t-56.5 -6l-8 36q27 8 55 5t47 -17.5t19 -43.5q0 -22 -10.5 -34t-22 -17.5t-16.5 -7.5q38 -13 63 -49.5t25 -82.5q0 -37 -18 -69t-56 -51.5t-96 -19.5q-34 0 -61.5 -1t-44 -10t-16.5 -33zM99 260q0 -41 18.5 -64
t46.5 -32.5t58 -9.5q121 0 121 106q0 48 -28 79t-94 31q-69 0 -95.5 -32.5t-26.5 -77.5zM220 -158q41 0 75.5 7.5t55.5 24t21 44.5q0 31 -20.5 47t-55 22t-76.5 6q-43 0 -77 -5t-54 -20.5t-20 -49.5q0 -31 21 -47.5t55.5 -22.5t74.5 -6zM227 564q-51 0 -81 23t-30 61h35
q0 -33 22 -42t53 -9q30 0 52 9t22 42h35q0 -38 -29 -61t-79 -23z" />
    <glyph glyph-name="uni0123.ss01" horiz-adv-x="459" 
d="M196 569l36 141h46l-55 -141h-27zM100 75q0 -26 17 -36t44.5 -11.5t58.5 -1.5q34 0 69.5 -3.5t64.5 -14t47 -32t18 -59.5q0 -42 -29 -66.5t-75 -35t-96 -11.5q-57 -1 -102 9.5t-70.5 35t-23.5 65.5q1 42 26.5 67.5t73.5 25.5q-27 6 -45 21t-18 45q0 24 16 37t38.5 17.5
t41.5 4.5q-55 11 -79 46.5t-24 80.5q0 67 44.5 107t124.5 40h47.5t36.5 7.5t14 31.5q0 25 -23.5 31t-56.5 -6l-8 36q27 8 55 5t47 -17.5t19 -43.5q0 -22 -10.5 -34t-22 -17.5t-16.5 -7.5q38 -13 63 -49.5t25 -82.5q0 -37 -18 -69t-56 -51.5t-96 -19.5q-34 0 -61.5 -1
t-44 -10t-16.5 -33zM99 260q0 -41 18.5 -64t46.5 -32.5t58 -9.5q121 0 121 106q0 48 -28 79t-94 31q-69 0 -95.5 -32.5t-26.5 -77.5zM220 -158q41 0 75.5 7.5t55.5 24t21 44.5q0 31 -20.5 47t-55 22t-76.5 6q-43 0 -77 -5t-54 -20.5t-20 -49.5q0 -31 21 -47.5t55.5 -22.5
t74.5 -6z" />
    <glyph glyph-name="gdotaccent.ss01" horiz-adv-x="458" 
d="M100 75q0 -26 17 -36t44.5 -11.5t58.5 -1.5q34 0 69.5 -3.5t64.5 -14t47 -32t18 -59.5q0 -42 -29 -66.5t-75 -35t-96 -11.5q-57 -1 -102 9.5t-70.5 35t-23.5 65.5q1 42 26.5 67.5t73.5 25.5q-27 6 -45 21t-18 45q0 24 16 37t38.5 17.5t41.5 4.5q-55 11 -79 46.5t-24 80.5
q0 67 44.5 107t124.5 40h47.5t36.5 7.5t14 31.5q0 25 -23.5 31t-56.5 -6l-8 36q27 8 55 5t47 -17.5t19 -43.5q0 -22 -10.5 -34t-22 -17.5t-16.5 -7.5q38 -13 63 -49.5t25 -82.5q0 -37 -18 -69t-56 -51.5t-96 -19.5q-34 0 -61.5 -1t-44 -10t-16.5 -33zM99 260q0 -41 18.5 -64
t46.5 -32.5t58 -9.5q121 0 121 106q0 48 -28 79t-94 31q-69 0 -95.5 -32.5t-26.5 -77.5zM220 -158q41 0 75.5 7.5t55.5 24t21 44.5q0 31 -20.5 47t-55 22t-76.5 6q-43 0 -77 -5t-54 -20.5t-20 -49.5q0 -31 21 -47.5t55.5 -22.5t74.5 -6zM213 568q-24 0 -32.5 12.5t-8.5 28.5
t8.5 28t32.5 12t32 -12t8 -28t-8 -28.5t-32 -12.5z" />
    <glyph glyph-name="lcaron.ss01" horiz-adv-x="220" 
d="M142 432l36 141h46l-55 -141h-27zM53 0v563h46v-563h-46z" />
    <glyph glyph-name="x.ss01" horiz-adv-x="349" 
d="M55 172l92 92l-92 92l27 27l92 -92l93 92l26 -26l-92 -93l93 -93l-27 -27l-93 93l-92 -92z" />
    <glyph glyph-name="N_o.dlig" horiz-adv-x="876" 
d="M701 318q-56 0 -83.5 35.5t-27.5 90.5t27.5 91t83.5 36q53 0 81.5 -35t28.5 -92q0 -54 -27 -90t-83 -36zM465 563h45v-563h-84l-324 542h-2v-542h-45v563h79l329 -542h2v542zM701 351q28 0 43.5 14t22 35.5t6.5 44.5q0 22 -6.5 43.5t-22 35.5t-43.5 14t-44 -14
t-22.5 -35.5t-6.5 -43.5q0 -23 6.5 -44.5t22.5 -35.5t44 -14zM588 217v37h224v-37h-224z" />
    <glyph glyph-name="f_f.dlig" horiz-adv-x="504" 
d="M78 -3v372h-66v37h66v101q0 24 9.5 42t40.5 18h127v-38h-130v-123h200v101q0 24 9.5 42t40.5 18h127v-38h-131v-123h122v-37h-122v-372h-46v372h-200v-372h-47z" />
    <glyph glyph-name="f_i.dlig" horiz-adv-x="401" 
d="M78 -3v372h-66v37h66v101q0 24 9.5 42t40.5 18h127v-38h-130v-123h225v-406h-45v369h-180v-372h-47z" />
    <glyph glyph-name="f_t.dlig" horiz-adv-x="499" 
d="M78 -3v372h-66v37h66v101q0 24 9.5 42t40.5 18h127v-38h-130v-123h121q35 0 49.5 4.5t17.5 26.5t3 74h40v-105h95v-37h-95v-330h96v-39h-90q-31 0 -40.5 18t-9.5 43v308h-187v-372h-47z" />
    <glyph glyph-name="t_t.dlig" horiz-adv-x="483" 
d="M125 0q-32 0 -41 18t-9 43v308h-67v37q36 0 50 4.5t17 26.5t3 74h41v-105h111q35 0 49.5 4.5t17.5 26.5t3 74h40v-105h95v-37h-95v-330h96v-39h-90q-31 0 -40.5 18t-9.5 43v308h-177v-330h95v-39h-89z" />
    <glyph glyph-name="ordfeminine" unicode="&#xaa;" horiz-adv-x="261" 
d="M124 402q-52 0 -77.5 37t-25.5 92q0 56 26 93t77 37q36 0 57.5 -18t31.5 -40l1 55h30v-251h-24l-5 52h-2q-10 -22 -31.5 -39.5t-57.5 -17.5zM135 429q40 0 59 27t19 75q0 102 -78 102q-44 0 -64.5 -29.5t-20.5 -72.5q0 -46 21.5 -74t63.5 -28z" />
    <glyph glyph-name="ordmasculine" unicode="&#xba;" horiz-adv-x="289" 
d="M145 406q-65 0 -97.5 39.5t-32.5 101.5q0 63 32.5 103t97.5 40q63 0 96 -39.5t33 -103.5q0 -60 -31.5 -100.5t-97.5 -40.5zM145 433q38 0 59 17.5t30 43.5t9 54q0 27 -9 53.5t-30 44t-59 17.5t-59.5 -17.5t-30.5 -44t-9 -53.5q0 -28 9 -54t30.5 -43.5t59.5 -17.5z" />
    <glyph glyph-name="zero" unicode="0" horiz-adv-x="498" 
d="M249 -14q-115 0 -169 79.5t-54 214.5q0 89 23 154.5t72 102t128 36.5q77 0 126.5 -36t73 -102t23.5 -155q0 -87 -23.5 -153.5t-73 -103.5t-126.5 -37zM249 25q93 0 136 68.5t43 186.5q0 117 -42 185.5t-137 68.5q-92 0 -135.5 -66t-43.5 -188q0 -117 42 -186t137 -69z
" />
    <glyph glyph-name="one" unicode="1" horiz-adv-x="307" 
d="M270 41v-41h-212v41h87v439q-14 -38 -40.5 -55.5t-50 -23t-30.5 -5.5v46q6 0 25 4.5t42 17.5t39.5 37t17.5 62h40v-522h82z" />
    <glyph glyph-name="two" unicode="2" horiz-adv-x="478" 
d="M37 0v38l19.5 14t50.5 37.5t68 54t73.5 64.5t66 68t44.5 65q25 52 15.5 94t-46.5 67t-94 25q-62 -1 -100.5 -36.5t-38.5 -103.5l-42 4q0 81 51.5 127.5t134.5 46.5q72 0 119 -33t59.5 -86.5t-17.5 -115.5q-17 -33 -52 -71t-77 -75.5t-81.5 -69t-67.5 -51t-34 -22.5h345
v-41h-396z" />
    <glyph glyph-name="three" unicode="3" horiz-adv-x="479" 
d="M242 -10q-51 0 -99 20.5t-79.5 62.5t-32.5 105l43 3q3 -52 28 -85.5t63 -49t78 -15.5q43 0 80 15t59 43.5t22 67.5q0 36 -14 59t-35 36t-42 18.5t-36 5.5h-87v28h88q54 0 82.5 28t28.5 72q0 61 -41 95.5t-109 34.5q-42 0 -71 -14t-47 -35t-26.5 -43t-10.5 -39l-41 4
q1 16 11 43.5t32 55.5t59.5 47.5t93.5 19.5q87 0 140 -43.5t53 -119.5q0 -50 -26 -78.5t-68 -41.5q44 -13 76.5 -48.5t32.5 -89.5q0 -49 -27 -85.5t-73 -56.5t-105 -20z" />
    <glyph glyph-name="four" unicode="4" horiz-adv-x="484" 
d="M23 124v40q46 22 88.5 65.5t76 99t53 116.5t19.5 118h47q0 -76 -31 -151t-84 -139.5t-116 -108.5h250v117h45v-117h82v-40h-82v-124h-45v124h-303z" />
    <glyph glyph-name="five" unicode="5" horiz-adv-x="501" 
d="M249 -10q-77 0 -131 36t-73 108l46 3q1 -3 7.5 -19.5t23 -37t47.5 -35.5t81 -15q54 0 90.5 21.5t56 55.5t21.5 71q3 39 -14 75.5t-53.5 60t-92.5 23.5q-42 0 -70.5 -10.5t-46.5 -24t-26 -24t-8 -11.5l-42 11l28 285h342v-41h-306l-22 -215l8.5 10t27.5 23t49 23t73 10
q70 0 114.5 -29t65 -74t17.5 -93q-4 -48 -29 -90.5t-71.5 -69.5t-112.5 -27z" />
    <glyph glyph-name="six" unicode="6" horiz-adv-x="517" 
d="M269 -10q-80 0 -129 37.5t-71 99t-22 132.5q0 57 14.5 113t44.5 101.5t76.5 72.5t111.5 27q46 0 77 -13t49.5 -30t26.5 -30.5l8 -13.5l-43 -13l-12 14.5t-38.5 29.5t-69.5 15q-55 0 -96.5 -27t-67 -74t-34 -107t0.5 -125q3 24 16 54t37.5 57t61.5 43.5t88 14.5
q63 -1 103 -29t58.5 -71t16 -91t-27 -90.5t-69.5 -69.5t-110 -27zM270 29q51 0 86.5 21.5t55 55t22 71.5t-12 72.5t-47.5 57.5t-85 26q-61 2 -102 -25t-61.5 -68.5t-20.5 -84.5q13 -57 56.5 -91.5t108.5 -34.5z" />
    <glyph glyph-name="seven" unicode="7" horiz-adv-x="457" 
d="M172 0h-46q0 115 30 209t85.5 171t130.5 143h-335v40h383v-38q-23 -20 -55 -50.5t-65.5 -73.5t-62.5 -100.5t-47 -132t-18 -168.5z" />
    <glyph glyph-name="eight" unicode="8" horiz-adv-x="529" 
d="M262 -10q-64 0 -114 18t-79 54t-29 89q0 54 36.5 94t96.5 53q-41 10 -62.5 31.5t-29.5 46.5t-8 46q0 44 24.5 78t67 53.5t97.5 19.5q56 0 99 -19.5t66.5 -54t23.5 -77.5q0 -21 -7.5 -46t-29 -46.5t-63.5 -31.5q61 -14 97.5 -53t36.5 -94q0 -54 -29.5 -90t-80 -53.5
t-113.5 -17.5zM262 311q65 0 106 24t41 78q0 56 -42 88.5t-105 32.5q-66 0 -107 -33t-41 -88q0 -37 20 -59.5t53.5 -32.5t74.5 -10zM262 30q83 0 130.5 36t47.5 93q0 61 -47.5 93t-130.5 32t-130 -32t-47 -93q0 -57 47 -93t130 -36z" />
    <glyph glyph-name="nine" unicode="9" horiz-adv-x="521" 
d="M255 -10q-55 0 -92 15t-59 34.5t-32 35t-11 16.5l42 14q0 -1 8 -12.5t26 -26t47 -25.5t71 -11q57 0 92.5 25t55 69t25.5 102.5t3 124.5q-5 -33 -27.5 -70t-63 -63t-97.5 -26q-67 0 -110.5 27t-65 69.5t-20 90t25.5 90t70 69.5t114 27q80 0 130 -40t71.5 -108t15.5 -151
q-6 -80 -27 -142.5t-66.5 -98t-125.5 -35.5zM249 225q77 0 120 46.5t55 115.5q-17 66 -59.5 102.5t-107.5 36.5q-54 0 -90.5 -21.5t-55 -56t-19.5 -73t16.5 -72.5t52.5 -56t88 -22z" />
    <glyph glyph-name="zero.subs" horiz-adv-x="250" 
d="M125 -139q-56 0 -83 37.5t-27 101.5q0 62 26 100t84 38q57 0 83.5 -37.5t26.5 -100.5q0 -61 -26.5 -100t-83.5 -39zM124 -111q41 0 60 29t19 82q0 52 -18.5 81t-60.5 29q-77 0 -77 -110q0 -52 18 -81.5t59 -29.5z" />
    <glyph glyph-name="one.subs" horiz-adv-x="162" 
d="M31 -139v31h44v202q-6 -21 -19 -31.5t-25 -14t-16 -3.5v37q4 0 19 3.5t29 15.5t15 37h30v-246h39v-31h-116z" />
    <glyph glyph-name="two.subs" horiz-adv-x="232" 
d="M15 -139v29l19.5 12.5t46.5 32.5t51.5 43.5t36.5 46.5q17 35 0 59.5t-54 24.5q-28 0 -45.5 -17.5t-15.5 -51.5l-32 3q-2 44 25.5 69.5t71.5 25.5q35 0 59 -16.5t31 -43.5t-9 -58q-11 -22 -33.5 -44t-47.5 -40.5t-44 -31t-24 -13.5h166v-30h-202z" />
    <glyph glyph-name="three.subs" horiz-adv-x="235" 
d="M121 -149q-42 0 -74 23t-32 70l32 5q2 -35 23.5 -51.5t50.5 -16.5q27 0 47.5 14.5t20.5 38.5q0 19 -10 30t-24 15t-24 4h-36v19h37q23 0 37 11.5t14 30.5q0 26 -18 41t-47 15q-35 0 -50.5 -21t-15.5 -37l-31 4q0 10 9 29.5t30 36t58 16.5q44 0 69.5 -20.5t25.5 -56.5
q0 -47 -46 -58q22 -5 37.5 -22.5t15.5 -42.5q0 -35 -28.5 -56t-70.5 -21z" />
    <glyph glyph-name="four.subs" horiz-adv-x="247" 
d="M15 -81v30q32 15 57.5 46.5t40 69.5t15.5 73h37q0 -53 -32 -104.5t-81 -84.5h108v50h35v-50h37v-30h-37v-58h-35v58h-145z" />
    <glyph glyph-name="five.subs" horiz-adv-x="237" 
d="M117 -149q-43 0 -69 21t-33 52l35 4q0 -3 5.5 -14.5t20 -22.5t42.5 -11q34 0 52 20t19 44q2 24 -16 45.5t-52 21.5q-23 0 -37 -7.5t-20 -15l-6 -7.5l-34 7l14 140h171v-30h-146l-10 -95l7.5 8t24 16.5t44.5 8.5q49 0 72 -29t21 -64q-2 -34 -29 -63t-76 -29z" />
    <glyph glyph-name="six.subs" horiz-adv-x="241" 
d="M124 -149q-58 0 -83.5 39t-25.5 92q0 36 13 69.5t39 55t67 21.5q33 0 51 -12t25 -24.5l7 -12.5l-33 -8l-5 7t-16 14t-31 7q-41 0 -66 -39.5t-17 -101.5q1 12 10.5 29.5t29 30.5t50.5 11q36 0 57 -18.5t27 -45t-3.5 -52.5t-33.5 -44t-62 -18zM125 -121q33 0 50 18.5
t18.5 43.5t-13.5 44t-48 21q-36 1 -56.5 -22.5t-20.5 -52.5q5 -24 24.5 -38t45.5 -14z" />
    <glyph glyph-name="seven.subs" horiz-adv-x="228" 
d="M89 -139h-35q0 85 35 146t90 100h-164v31h198v-30q-14 -10 -35 -28.5t-41.5 -48t-34 -71.5t-13.5 -99z" />
    <glyph glyph-name="eight.subs" horiz-adv-x="249" 
d="M124 -149q-47 0 -78 20t-31 57q0 26 17.5 44.5t47.5 24.5q-31 7 -40 26t-9 33q0 32 26 52t67 20q42 0 68 -20.5t26 -51.5q0 -14 -9 -33t-41 -26q30 -6 48 -24t18 -45q0 -39 -32 -58t-78 -19zM124 6q28 0 45.5 10.5t17.5 33.5q0 24 -18 37t-45 13q-29 0 -46 -13.5
t-17 -36.5q0 -24 18 -34t45 -10zM124 -122q35 0 56 15.5t21 39.5q0 28 -21 42t-56 14t-55.5 -14t-20.5 -42q0 -24 20.5 -39.5t55.5 -15.5z" />
    <glyph glyph-name="nine.subs" horiz-adv-x="243" 
d="M118 -149q-38 0 -58.5 13t-29 26.5t-9.5 14.5l32 9q1 -1 7 -9t20 -16t38 -8q42 0 60.5 36t16.5 101q-2 -11 -12 -27.5t-28.5 -28.5t-46.5 -12q-38 0 -60.5 18t-29 44.5t2 53t33 44.5t64.5 18q60 0 86.5 -42t22.5 -100q-3 -58 -26.5 -96.5t-82.5 -38.5zM115 -28
q33 0 52 20t23 50q-7 27 -25 42.5t-47 15.5q-34 0 -51.5 -19.5t-18 -44.5t16 -44.5t50.5 -19.5z" />
    <glyph glyph-name="zero.dnom" horiz-adv-x="250" 
d="M125 -14q-56 0 -83 37.5t-27 101.5q0 62 26 100t84 38q57 0 83.5 -37.5t26.5 -100.5q0 -61 -26.5 -100t-83.5 -39zM124 14q41 0 60 29t19 82q0 52 -18.5 81t-60.5 29q-77 0 -77 -110q0 -52 18 -81.5t59 -29.5z" />
    <glyph glyph-name="one.dnom" horiz-adv-x="162" 
d="M31 0v31h44v202q-6 -21 -19 -31.5t-25 -14t-16 -3.5v37q4 0 19 3.5t29 15.5t15 37h30v-246h39v-31h-116z" />
    <glyph glyph-name="two.dnom" horiz-adv-x="232" 
d="M15 0v29l19.5 12.5t46.5 32.5t51.5 43.5t36.5 46.5q17 35 0 59.5t-54 24.5q-28 0 -45.5 -17.5t-15.5 -51.5l-32 3q-2 44 25.5 69.5t71.5 25.5q35 0 59 -16.5t31 -43.5t-9 -58q-11 -22 -33.5 -44t-47.5 -40.5t-44 -31t-24 -13.5h166v-30h-202z" />
    <glyph glyph-name="three.dnom" horiz-adv-x="235" 
d="M121 -10q-43 0 -74.5 23t-31.5 70l32 5q2 -35 23.5 -51.5t50.5 -16.5q27 0 47.5 14.5t20.5 38.5q0 19 -10 30t-24 15t-24 4h-36v19h37q23 0 37 11.5t14 30.5q0 26 -18 41t-47 15q-35 0 -50.5 -21t-15.5 -37l-31 4q0 10 9 29.5t30 36t58 16.5q44 0 69.5 -20.5t25.5 -56.5
q0 -47 -46 -58q22 -5 37.5 -22.5t15.5 -42.5q0 -35 -28.5 -56t-70.5 -21z" />
    <glyph glyph-name="four.dnom" horiz-adv-x="247" 
d="M15 58v30q32 15 57.5 46.5t40 69.5t15.5 73h37q0 -53 -32 -104.5t-81 -84.5h108v50h35v-50h37v-30h-37v-58h-35v58h-145z" />
    <glyph glyph-name="five.dnom" horiz-adv-x="237" 
d="M117 -10q-43 0 -69 21t-33 52l35 4q0 -3 5.5 -14.5t20 -22.5t42.5 -11q34 0 52 20t19 44q2 24 -16 45.5t-52 21.5q-23 0 -37 -7.5t-20 -15l-6 -7.5l-34 7l14 140h171v-30h-146l-10 -95l7.5 8t24 16.5t44.5 8.5q49 0 72 -29t21 -64t-29 -63.5t-76 -28.5z" />
    <glyph glyph-name="six.dnom" horiz-adv-x="241" 
d="M124 -10q-58 0 -83.5 39t-25.5 92q0 36 13 69.5t39 55t67 21.5q33 0 51 -12t25 -24.5l7 -12.5l-33 -8l-5 7t-16 14t-31 7q-41 0 -66 -39.5t-17 -101.5q1 12 10.5 29.5t29 30.5t50.5 11q36 0 57 -18.5t27 -45t-3.5 -52.5t-33.5 -44t-62 -18zM125 18q33 0 50 18.5
t18.5 43.5t-13.5 44t-48 21q-36 1 -56.5 -22.5t-20.5 -52.5q5 -24 24.5 -38t45.5 -14z" />
    <glyph glyph-name="seven.dnom" horiz-adv-x="228" 
d="M89 0h-35q0 85 35 146t90 100h-164v31h198v-30q-14 -10 -35 -28.5t-41.5 -48t-34 -71.5t-13.5 -99z" />
    <glyph glyph-name="eight.dnom" horiz-adv-x="249" 
d="M124 -10q-47 0 -78 20t-31 57q0 26 17.5 44.5t47.5 24.5q-31 7 -40 26t-9 33q0 32 26 52t67 20q42 0 68 -20.5t26 -51.5q0 -14 -9 -33t-41 -26q30 -6 48 -24t18 -45q0 -39 -32 -58t-78 -19zM124 145q28 0 45.5 10.5t17.5 33.5q0 24 -18 37t-45 13q-29 0 -46 -13.5
t-17 -36.5q0 -24 18 -34t45 -10zM124 17q35 0 56 15.5t21 39.5q0 28 -21 42t-56 14t-55.5 -14t-20.5 -42q0 -24 20.5 -39.5t55.5 -15.5z" />
    <glyph glyph-name="nine.dnom" horiz-adv-x="243" 
d="M118 -10q-38 0 -58.5 13t-29 26.5t-9.5 14.5l32 9q1 -1 7 -9t20 -16t38 -8q42 0 60.5 36t16.5 101q-2 -11 -12 -27.5t-28.5 -28.5t-46.5 -12q-38 0 -60.5 18t-29 44.5t2 53t33 44.5t64.5 18q60 0 86.5 -42t22.5 -100q-3 -58 -26.5 -96.5t-82.5 -38.5zM115 111q33 0 52 20
t23 50q-7 27 -25 42.5t-47 15.5q-34 0 -51.5 -19.5t-18 -44.5t16 -44.5t50.5 -19.5z" />
    <glyph glyph-name="zero.numr" horiz-adv-x="250" 
d="M125 -14q-56 0 -83 37.5t-27 101.5q0 62 26 100t84 38q57 0 83.5 -37.5t26.5 -100.5q0 -61 -26.5 -100t-83.5 -39zM124 14q41 0 60 29t19 82q0 52 -18.5 81t-60.5 29q-77 0 -77 -110q0 -52 18 -81.5t59 -29.5z" />
    <glyph glyph-name="one.numr" horiz-adv-x="162" 
d="M31 0v31h44v202q-6 -21 -19 -31.5t-25 -14t-16 -3.5v37q4 0 19 3.5t29 15.5t15 37h30v-246h39v-31h-116z" />
    <glyph glyph-name="two.numr" horiz-adv-x="232" 
d="M15 0v29l19.5 12.5t46.5 32.5t51.5 43.5t36.5 46.5q17 35 0 59.5t-54 24.5q-28 0 -45.5 -17.5t-15.5 -51.5l-32 3q-2 44 25.5 69.5t71.5 25.5q35 0 59 -16.5t31 -43.5t-9 -58q-11 -22 -33.5 -44t-47.5 -40.5t-44 -31t-24 -13.5h166v-30h-202z" />
    <glyph glyph-name="three.numr" horiz-adv-x="235" 
d="M121 -10q-42 0 -74 23t-32 70l32 5q2 -35 23.5 -51.5t50.5 -16.5q27 0 47.5 14.5t20.5 38.5q0 19 -10 30t-24 15t-24 4h-36v19h37q23 0 37 11.5t14 30.5q0 26 -18 41t-47 15q-35 0 -50.5 -21t-15.5 -37l-31 4q0 10 9 29.5t30 36t58 16.5q44 0 69.5 -20.5t25.5 -56.5
q0 -47 -46 -58q22 -5 37.5 -22.5t15.5 -42.5q0 -35 -28.5 -56t-70.5 -21z" />
    <glyph glyph-name="four.numr" horiz-adv-x="247" 
d="M15 58v30q32 15 57.5 46.5t40 69.5t15.5 73h37q0 -53 -32 -104.5t-81 -84.5h108v50h35v-50h37v-30h-37v-58h-35v58h-145z" />
    <glyph glyph-name="five.numr" horiz-adv-x="237" 
d="M117 -10q-43 0 -69 21t-33 52l35 4q0 -3 5.5 -14.5t20 -22.5t42.5 -11q34 0 52 20t19 44q2 24 -16 45.5t-52 21.5q-23 0 -37 -7.5t-20 -15l-6 -7.5l-34 7l14 140h171v-30h-146l-10 -95l7.5 8t24 16.5t44.5 8.5q49 0 72 -29t21 -64t-29 -63.5t-76 -28.5z" />
    <glyph glyph-name="six.numr" horiz-adv-x="241" 
d="M124 -10q-58 0 -83.5 39t-25.5 92q0 36 13 69.5t39 55t67 21.5q33 0 51 -12t25 -24.5l7 -12.5l-33 -8l-5 7t-16 14t-31 7q-41 0 -66 -39.5t-17 -101.5q1 12 10.5 29.5t29 30.5t50.5 11q36 0 57 -18.5t27 -45t-3.5 -52.5t-33.5 -44t-62 -18zM125 18q33 0 50 18.5
t18.5 43.5t-13.5 44t-48 21q-36 1 -56.5 -22.5t-20.5 -52.5q5 -24 24.5 -38t45.5 -14z" />
    <glyph glyph-name="seven.numr" horiz-adv-x="228" 
d="M89 0h-35q0 85 35 146t90 100h-164v31h198v-30q-14 -10 -35 -28.5t-41.5 -48t-34 -71.5t-13.5 -99z" />
    <glyph glyph-name="eight.numr" horiz-adv-x="249" 
d="M124 -10q-47 0 -78 20t-31 57q0 26 17.5 44.5t47.5 24.5q-31 7 -40 26t-9 33q0 32 26 52t67 20q42 0 68 -20.5t26 -51.5q0 -14 -9 -33t-41 -26q30 -6 48 -24t18 -45q0 -39 -32 -58t-78 -19zM124 145q28 0 45.5 10.5t17.5 33.5q0 24 -18 37t-45 13q-29 0 -46 -13.5
t-17 -36.5q0 -24 18 -34t45 -10zM124 17q35 0 56 15.5t21 39.5q0 28 -21 42t-56 14t-55.5 -14t-20.5 -42q0 -24 20.5 -39.5t55.5 -15.5z" />
    <glyph glyph-name="nine.numr" horiz-adv-x="243" 
d="M118 -10q-38 0 -58.5 13t-29 26.5t-9.5 14.5l32 9q1 -1 7 -9t20 -16t38 -8q42 0 60.5 36t16.5 101q-2 -11 -12 -27.5t-28.5 -28.5t-46.5 -12q-38 0 -60.5 18t-29 44.5t2 53t33 44.5t64.5 18q60 0 86.5 -42t22.5 -100q-3 -58 -26.5 -96.5t-82.5 -38.5zM115 111q33 0 52 20
t23 50q-7 27 -25 42.5t-47 15.5q-34 0 -51.5 -19.5t-18 -44.5t16 -44.5t50.5 -19.5z" />
    <glyph glyph-name="uni00B9" unicode="&#xb9;" horiz-adv-x="162" 
d="M31 403v31h44v202q-6 -21 -19 -31.5t-25 -14t-16 -3.5v37q4 0 19 3.5t29 15.5t15 37h30v-246h39v-31h-116z" />
    <glyph glyph-name="uni00B2" unicode="&#xb2;" horiz-adv-x="232" 
d="M15 406v28q0 1 19.5 13t46.5 32.5t51.5 44t36.5 46.5q17 34 0 59t-54 25q-28 0 -45.5 -17.5t-15.5 -52.5l-32 4q-2 44 25.5 69.5t71.5 25.5q35 0 59 -16.5t31 -43.5t-9 -59q-11 -21 -33.5 -43t-47.5 -41t-44 -31t-24 -14h166v-29h-202z" />
    <glyph glyph-name="uni00B3" unicode="&#xb3;" horiz-adv-x="235" 
d="M121 396q-42 0 -74 23t-32 70l32 4q2 -34 23.5 -51t50.5 -17q27 0 47.5 14.5t20.5 39.5q0 19 -10 29.5t-24 15t-24 4.5h-36v19h37q23 0 37 11t14 31q0 26 -18 40.5t-47 14.5q-35 0 -50.5 -20.5t-15.5 -36.5l-31 4q0 10 9 29.5t30 36t58 16.5q44 0 69.5 -20.5t25.5 -56.5
q0 -47 -46 -59q22 -4 37.5 -21.5t15.5 -42.5q0 -36 -28.5 -56.5t-70.5 -20.5z" />
    <glyph glyph-name="uni2074" unicode="&#x2074;" horiz-adv-x="247" 
d="M160 406v57h-145v31q32 15 57.5 46.5t40 69.5t15.5 73h37q0 -53 -32 -104.5t-81 -84.5h108v50h35v-50h37v-31h-37v-57h-35z" />
    <glyph glyph-name="zero.sups" horiz-adv-x="250" 
d="M125 403q-56 0 -83 38t-27 101t26 100.5t84 37.5q57 0 83.5 -37.5t26.5 -100.5q0 -61 -26.5 -100t-83.5 -39zM124 432q41 0 60 28.5t19 81.5q0 52 -18.5 81t-60.5 29q-77 0 -77 -110q0 -52 18 -81t59 -29z" />
    <glyph glyph-name="one.sups" horiz-adv-x="162" 
d="M31 403v31h44v202q-6 -21 -19 -31.5t-25 -14t-16 -3.5v37q4 0 19 3.5t29 15.5t15 37h30v-246h39v-31h-116z" />
    <glyph glyph-name="two.sups" horiz-adv-x="232" 
d="M15 406v28q0 1 19.5 13t46.5 32.5t51.5 44t36.5 46.5q17 34 0 59t-54 25q-28 0 -45.5 -17.5t-15.5 -52.5l-32 4q-2 44 25.5 69.5t71.5 25.5q35 0 59 -16.5t31 -43.5t-9 -59q-11 -21 -33.5 -43t-47.5 -41t-44 -31t-24 -14h166v-29h-202z" />
    <glyph glyph-name="three.sups" horiz-adv-x="235" 
d="M121 396q-42 0 -74 23t-32 70l32 4q2 -34 23.5 -51t50.5 -17q27 0 47.5 14.5t20.5 39.5q0 19 -10 29.5t-24 15t-24 4.5h-36v19h37q23 0 37 11t14 31q0 26 -18 40.5t-47 14.5q-35 0 -50.5 -20.5t-15.5 -36.5l-31 4q0 10 9 29.5t30 36t58 16.5q44 0 69.5 -20.5t25.5 -56.5
q0 -47 -46 -59q22 -4 37.5 -21.5t15.5 -42.5q0 -36 -28.5 -56.5t-70.5 -20.5z" />
    <glyph glyph-name="four.sups" horiz-adv-x="247" 
d="M160 406v57h-145v31q32 15 57.5 46.5t40 69.5t15.5 73h37q0 -53 -32 -104.5t-81 -84.5h108v50h35v-50h37v-31h-37v-57h-35z" />
    <glyph glyph-name="five.sups" horiz-adv-x="237" 
d="M117 396q-43 0 -69 20.5t-33 52.5l35 4q0 -3 5.5 -15t20 -22.5t42.5 -10.5q34 0 52 20t19 43q2 25 -16 46.5t-52 21.5q-23 0 -37 -7.5t-20 -15l-6 -7.5l-34 6l14 141h171v-31h-146l-10 -94l7.5 8t24 16.5t44.5 8.5q49 0 72 -29.5t21 -64.5q-2 -34 -29 -62.5t-76 -28.5z
" />
    <glyph glyph-name="six.sups" horiz-adv-x="241" 
d="M124 396q-58 0 -83.5 38.5t-25.5 91.5q0 37 13 70.5t39 55t67 21.5q33 0 51 -12.5t25 -24.5l7 -12l-33 -8l-5 7t-16 13.5t-31 6.5q-41 0 -66 -39.5t-17 -100.5q1 12 10.5 29t29 30t50.5 12q36 -1 57 -19t27 -44.5t-3.5 -53t-33.5 -44t-62 -17.5zM125 424q33 0 50 18.5
t18.5 43t-13.5 44t-48 21.5q-36 1 -56.5 -22.5t-20.5 -52.5q5 -24 24.5 -38t45.5 -14z" />
    <glyph glyph-name="seven.sups" horiz-adv-x="228" 
d="M89 406h-35q0 84 35 145t90 101h-164v31h198v-30q-14 -11 -35 -29.5t-41.5 -47.5t-34 -71t-13.5 -99z" />
    <glyph glyph-name="eight.sups" horiz-adv-x="249" 
d="M124 396q-47 0 -78 19.5t-31 57.5q0 25 17.5 44t47.5 25q-31 7 -40 26t-9 33q0 31 26 51.5t67 20.5q42 0 68 -20.5t26 -51.5q0 -14 -9 -33t-41 -26q30 -6 48 -24t18 -45q0 -39 -32 -58t-78 -19zM124 551q28 0 45.5 10t17.5 33q0 25 -18 38t-45 13q-29 0 -46 -13.5
t-17 -37.5q0 -23 18 -33t45 -10zM124 423q35 0 56 15.5t21 39.5q0 27 -21 41t-56 14t-55.5 -14t-20.5 -41q0 -24 20.5 -39.5t55.5 -15.5z" />
    <glyph glyph-name="nine.sups" horiz-adv-x="243" 
d="M118 396q-38 0 -58.5 13t-29 26.5t-9.5 14.5l32 9q1 -1 7 -9t20 -16t38 -8q42 0 60.5 36t16.5 101q-2 -12 -12 -28t-28.5 -28.5t-46.5 -12.5q-38 0 -60.5 18t-29 45t2 53.5t33 44.5t64.5 18q60 0 86.5 -42t22.5 -100q-3 -58 -26.5 -96.5t-82.5 -38.5zM115 517q33 0 52 20
t23 49q-7 27 -25 43t-47 16q-34 0 -51.5 -19.5t-18 -45t16 -44.5t50.5 -19z" />
    <glyph glyph-name="fraction" unicode="&#x2044;" horiz-adv-x="501" 
d="M64 0l-32 24l215 270l190 268l32 -22l-204 -259z" />
    <glyph glyph-name="onehalf" unicode="&#xbd;" horiz-adv-x="685" 
d="M37 288v31h44v202q-6 -21 -19 -31.5t-25 -14t-16 -3.5v37q4 0 19 3.5t29 15.5t15 37h30v-246h39v-31h-116zM145 0l-32 24l215 270l190 268l32 -22l-204 -259zM447 0v29l19.5 12.5t46.5 32.5t51.5 43.5t36.5 46.5q17 35 0 59.5t-54 24.5q-28 0 -45.5 -17.5t-15.5 -51.5
l-32 3q-2 44 25.5 69.5t71.5 25.5q35 0 59 -16.5t31 -43.5t-9 -58q-11 -22 -33.5 -44t-47.5 -40.5t-44 -31t-24 -13.5h166v-30h-202z" />
    <glyph glyph-name="onequarter" unicode="&#xbc;" horiz-adv-x="654" 
d="M37 288v31h44v202q-6 -21 -19 -31.5t-25 -14t-16 -3.5v37q4 0 19 3.5t29 15.5t15 37h30v-246h39v-31h-116zM145 0l-32 24l215 270l190 268l32 -22l-204 -259zM401 58v30q32 15 57.5 46.5t40 69.5t15.5 73h37q0 -53 -32 -104.5t-81 -84.5h108v50h35v-50h37v-30h-37v-58
h-35v58h-145z" />
    <glyph glyph-name="threequarters" unicode="&#xbe;" horiz-adv-x="654" 
d="M127 296q-42 0 -74 23t-32 70l32 5q2 -35 23.5 -51.5t50.5 -16.5q27 0 47.5 14.5t20.5 38.5q0 19 -10 30t-24 15t-24 4h-36v19h37q23 0 37 11.5t14 30.5q0 26 -18 41t-47 15q-35 0 -50.5 -21t-15.5 -37l-31 4q0 10 9 29.5t30 36t58 16.5q44 0 69.5 -20.5t25.5 -56.5
q0 -47 -46 -58q22 -5 37.5 -22.5t15.5 -42.5q0 -35 -28.5 -56t-70.5 -21zM145 0l-32 24l215 270l190 268l32 -22l-204 -259zM401 58v30q32 15 57.5 46.5t40 69.5t15.5 73h37q0 -53 -32 -104.5t-81 -84.5h108v50h35v-50h37v-30h-37v-58h-35v58h-145z" />
    <glyph glyph-name="oneeighth" unicode="&#x215b;" horiz-adv-x="669" 
d="M524 -10q-47 0 -78 20t-31 57q0 26 17.5 44.5t47.5 24.5q-31 7 -40 26t-9 33q0 32 26 52t67 20q42 0 68 -20.5t26 -51.5q0 -14 -9 -33t-41 -26q30 -6 48 -24t18 -45q0 -39 -32 -58t-78 -19zM524 145q28 0 45.5 10.5t17.5 33.5q0 24 -18 37t-45 13q-29 0 -46 -13.5
t-17 -36.5q0 -24 18 -34t45 -10zM524 17q35 0 56 15.5t21 39.5q0 28 -21 42t-56 14t-55.5 -14t-20.5 -42q0 -24 20.5 -39.5t55.5 -15.5zM37 288v31h44v202q-6 -21 -19 -31.5t-25 -14t-16 -3.5v37q4 0 19 3.5t29 15.5t15 37h30v-246h39v-31h-116zM145 0l-32 24l215 270
l190 268l32 -22l-204 -259z" />
    <glyph glyph-name="threeeighths" unicode="&#x215c;" horiz-adv-x="684" 
d="M127 296q-42 0 -74 23t-32 70l32 5q2 -35 23.5 -51.5t50.5 -16.5q27 0 47.5 14.5t20.5 38.5q0 19 -10 30t-24 15t-24 4h-36v19h37q23 0 37 11.5t14 30.5q0 26 -18 41t-47 15q-35 0 -50.5 -21t-15.5 -37l-31 4q0 10 9 29.5t30 36t58 16.5q44 0 69.5 -20.5t25.5 -56.5
q0 -47 -46 -58q22 -5 37.5 -22.5t15.5 -42.5q0 -35 -28.5 -56t-70.5 -21zM145 0l-32 24l215 270l190 268l32 -22l-204 -259zM539 -10q-47 0 -78 20t-31 57q0 26 17.5 44.5t47.5 24.5q-31 7 -40 26t-9 33q0 32 26 52t67 20q42 0 68 -20.5t26 -51.5q0 -14 -9 -33t-41 -26
q30 -6 48 -24t18 -45q0 -39 -32 -58t-78 -19zM539 145q28 0 45.5 10.5t17.5 33.5q0 24 -18 37t-45 13q-29 0 -46 -13.5t-17 -36.5q0 -24 18 -34t45 -10zM539 17q35 0 56 15.5t21 39.5q0 28 -21 42t-56 14t-55.5 -14t-20.5 -42q0 -24 20.5 -39.5t55.5 -15.5z" />
    <glyph glyph-name="fiveeighths" unicode="&#x215d;" horiz-adv-x="711" 
d="M123 285q-43 0 -69 21t-33 52l35 4q0 -3 5.5 -14.5t20 -22.5t42.5 -11q34 0 52 20t19 44q2 24 -16 45.5t-52 21.5q-23 0 -37 -7.5t-20 -15l-6 -7.5l-34 7l14 140h171v-30h-146l-10 -95l7.5 8t24 16.5t44.5 8.5q49 0 72 -29t21 -64t-29 -63.5t-76 -28.5zM172 0l-32 24
l215 270l190 268l32 -22l-204 -259zM566 -10q-47 0 -78 20t-31 57q0 26 17.5 44.5t47.5 24.5q-31 7 -40 26t-9 33q0 32 26 52t67 20q42 0 68 -20.5t26 -51.5q0 -14 -9 -33t-41 -26q30 -6 48 -24t18 -45q0 -39 -32 -58t-78 -19zM566 145q28 0 45.5 10.5t17.5 33.5
q0 24 -18 37t-45 13q-29 0 -46 -13.5t-17 -36.5q0 -24 18 -34t45 -10zM566 17q35 0 56 15.5t21 39.5q0 28 -21 42t-56 14t-55.5 -14t-20.5 -42q0 -24 20.5 -39.5t55.5 -15.5z" />
    <glyph glyph-name="seveneighths" unicode="&#x215e;" horiz-adv-x="671" 
d="M95 287h-35q0 85 35 146t90 100h-164v31h198v-30q-14 -10 -35 -28.5t-41.5 -48t-34 -71.5t-13.5 -99zM132 0l-32 24l215 270l190 268l32 -22l-204 -259zM526 -10q-47 0 -78 20t-31 57q0 26 17.5 44.5t47.5 24.5q-31 7 -40 26t-9 33q0 32 26 52t67 20q42 0 68 -20.5
t26 -51.5q0 -14 -9 -33t-41 -26q30 -6 48 -24t18 -45q0 -39 -32 -58t-78 -19zM526 145q28 0 45.5 10.5t17.5 33.5q0 24 -18 37t-45 13q-29 0 -46 -13.5t-17 -36.5q0 -24 18 -34t45 -10zM526 17q35 0 56 15.5t21 39.5q0 28 -21 42t-56 14t-55.5 -14t-20.5 -42
q0 -24 20.5 -39.5t55.5 -15.5z" />
    <glyph glyph-name="period" unicode="." horiz-adv-x="156" 
d="M68 0q-20 0 -26.5 11t-6.5 26t7 26.5t26 11.5q20 0 26.5 -11.5t6.5 -26.5t-6.5 -26t-26.5 -11z" />
    <glyph glyph-name="comma" unicode="," horiz-adv-x="167" 
d="M48 -81v39h14q24 0 29 12.5t5 28.5q-43 -6 -43 37q0 14 7 24.5t27 10.5q18 0 25.5 -11t7.5 -37q0 -50 -12 -77t-44 -27h-16z" />
    <glyph glyph-name="colon" unicode=":" horiz-adv-x="176" 
d="M87 285q-19 0 -25.5 10t-6.5 26q0 14 6.5 25.5t25.5 11.5t25.5 -11.5t6.5 -25.5q0 -16 -6.5 -26t-25.5 -10zM87 51q-19 0 -25.5 10.5t-6.5 25.5q0 14 6.5 25.5t25.5 11.5t25.5 -11.5t6.5 -25.5q0 -15 -6.5 -25.5t-25.5 -10.5z" />
    <glyph glyph-name="semicolon" unicode=";" horiz-adv-x="166" 
d="M85 332q-20 0 -26.5 10t-6.5 26q0 14 6.5 25.5t26.5 11.5q18 0 25 -11.5t7 -25.5q0 -16 -7 -26t-25 -10zM46 -81v39h14q24 0 29 12.5t5 28.5q-43 -6 -43 37q0 14 7 24.5t27 10.5q19 0 26 -11t7 -37q0 -50 -11.5 -77t-43.5 -27h-17z" />
    <glyph glyph-name="ellipsis" unicode="&#x2026;" horiz-adv-x="435" 
d="M80 0q-20 0 -26.5 11t-6.5 26t6.5 26.5t26.5 11.5q19 0 26 -11.5t7 -26.5t-7 -26t-26 -11zM213 0q-20 0 -26.5 11t-6.5 26t6.5 26.5t26.5 11.5t26.5 -11.5t6.5 -26.5t-6.5 -26t-26.5 -11zM347 0q-19 0 -26 11t-7 26t7 26.5t26 11.5q20 0 26.5 -11.5t6.5 -26.5t-6.5 -26
t-26.5 -11z" />
    <glyph glyph-name="exclam" unicode="!" horiz-adv-x="172" 
d="M77 124q-4 135 -9 221t-6.5 133.5t5 66t26.5 18.5q18 0 24.5 -18.5t5 -66t-6 -133.5t-7.5 -221l-5 1t-11 1t-11 -1zM94 -9q-18 0 -24 10t-6 25q0 13 6 22.5t24 9.5q17 0 23 -9.5t6 -22.5q0 -15 -6 -25t-23 -10z" />
    <glyph glyph-name="exclamdown" unicode="&#xa1;" horiz-adv-x="167" 
d="M89 373q17 0 23 -9.5t6 -24.5q0 -13 -6 -22.5t-23 -9.5t-23 9.5t-6 22.5q0 14 6 24t23 10zM72 240l5 -1t12 -1q8 0 12 1l4 1q4 -140 8.5 -226.5t5 -132.5t-6 -63t-23.5 -17q-18 0 -24.5 17t-6 63t5 132.5t8.5 226.5z" />
    <glyph glyph-name="question" unicode="?" horiz-adv-x="430" 
d="M228 128h-39q0 42 17 71t41 51.5t48.5 44t41 47.5t16.5 62q1 55 -36 88t-95 33q-47 0 -77 -20.5t-44 -54t-14 -72.5h-44q-2 52 17.5 94.5t60 68t100.5 25.5q48 0 88 -19t64 -54.5t24 -85.5q0 -43 -17 -72t-41.5 -50.5t-49.5 -42t-42.5 -47.5t-18.5 -67zM210 -9
q-18 0 -23.5 10t-5.5 25q0 13 5.5 22.5t23.5 9.5q17 0 23 -9.5t6 -22.5q0 -15 -6 -25t-23 -10z" />
    <glyph glyph-name="questiondown" unicode="&#xbf;" horiz-adv-x="429" 
d="M227 376q18 0 23.5 -10.5t5.5 -24.5q0 -13 -5.5 -23t-23.5 -10q-17 0 -23 10t-6 23q0 15 6 25t23 10zM209 238h39q0 -41 -17 -70.5t-41 -52t-48.5 -43.5t-41 -47t-16.5 -62q-1 -55 36 -88t95 -33q47 0 77 20.5t44 54t14 72.5h45q1 -52 -18.5 -94.5t-60 -68t-100.5 -25.5
q-48 0 -88 19t-64 54.5t-24 84.5q0 44 17 72.5t41.5 50t49.5 42.5t42.5 47.5t18.5 66.5z" />
    <glyph glyph-name="periodcentered" unicode="&#xb7;" horiz-adv-x="194" 
d="M93 198q-29 0 -38.5 14.5t-9.5 33.5q0 18 9.5 32t38.5 14q28 0 37 -14t9 -32q0 -19 -9 -33.5t-37 -14.5z" />
    <glyph glyph-name="bullet" unicode="&#x2022;" horiz-adv-x="206" 
d="M93 198q-29 0 -38.5 14.5t-9.5 33.5q0 18 9.5 32t38.5 14q28 0 37 -14t9 -32q0 -19 -9 -33.5t-37 -14.5z" />
    <glyph glyph-name="asterisk" unicode="*" horiz-adv-x="375" 
d="M350 430l-144 -36l95 -110l-37 -27l-77 123l-76 -123l-37 27l96 110l-144 36l15 43l135 -58l-11 148h46l-11 -148l135 58z" />
    <glyph glyph-name="numbersign" unicode="#" horiz-adv-x="692" 
d="M110 0l69 175h-143v40h159l59 151h-163v40h177l53 157h45l-62 -157h165l53 157h45l-62 -157h139v-40h-155l-59 -151h162v-40h-176l-60 -175h-45l69 175h-166l-60 -175h-44zM228 216v-1h168l60 151h-168z" />
    <glyph glyph-name="slash" unicode="/" horiz-adv-x="336" 
d="M25 0l254 563h47l-254 -563h-47z" />
    <glyph glyph-name="backslash" unicode="\" horiz-adv-x="316" 
d="M287 0l-254 563h46l254 -563h-46z" />
    <glyph glyph-name="periodcentered.case" horiz-adv-x="194" 
d="M93 249q-29 0 -38.5 14t-9.5 34q0 18 9.5 32t38.5 14q28 0 37 -14t9 -32q0 -20 -9 -34t-37 -14z" />
    <glyph glyph-name="bullet.case" horiz-adv-x="206" 
d="M93 249q-29 0 -38.5 14t-9.5 34q0 18 9.5 32t38.5 14q28 0 37 -14t9 -32q0 -20 -9 -34t-37 -14z" />
    <glyph glyph-name="parenleft" unicode="(" horiz-adv-x="273" 
d="M232 -199l-19 15.5t-47 47t-56 79.5t-47 112t-19 145t19 146t47 113t56 80t47 48l19 16l34 -36q-4 -3 -24 -17.5t-47.5 -42.5t-54 -70.5t-44.5 -101t-18 -135.5q0 -78 19 -137t47 -101.5t56 -69.5t47 -40l19 -13z" />
    <glyph glyph-name="parenright" unicode=")" horiz-adv-x="263" 
d="M31 -199l-33 38q-1 0 18 13t47 40t56 69.5t47 101.5t19 137q0 77 -18 135.5t-44.5 101t-54 70.5t-47.5 42.5t-23 17.5l33 36l19 -16t47 -48t56 -80t47 -113t19 -146t-19 -145t-47 -112t-56 -79.5t-47 -47z" />
    <glyph glyph-name="braceleft" unicode="{" horiz-adv-x="272" 
d="M250 -196q-81 -11 -117 7t-41.5 73.5t5.5 153.5q7 54 2 83.5t-16 42t-24.5 15t-24.5 2.5v46q11 0 24.5 2.5t24.5 15t16 42t-2 83.5q-7 74 -6.5 122.5t15 75.5t49.5 35t95 0v-42q-54 13 -81.5 6t-35.5 -32t-4 -66t11 -97q8 -48 7.5 -80.5t-17.5 -53.5t-59 -35
q42 -14 59.5 -34.5t17.5 -52.5t-8 -80q-7 -56 -11 -97t4 -66t35.5 -32t81.5 5v-42z" />
    <glyph glyph-name="braceright" unicode="}" horiz-adv-x="286" 
d="M36 -196v42q55 -12 82 -5t35 32t4 66t-11 97q-8 48 -7.5 80t17.5 52.5t59 34.5q-42 14 -59 35t-17.5 53.5t7.5 80.5q7 56 11 97t-4 66t-35 32t-82 -6v42q63 6 97.5 -2t49 -34.5t14.5 -74.5t-8 -122q-6 -54 -1.5 -83.5t15.5 -42t24.5 -15t24.5 -2.5v-46q-11 0 -24.5 -2.5
t-24.5 -15t-15.5 -42t1.5 -83.5q8 -74 8.5 -122.5t-14 -75t-49.5 -34.5t-98 -2z" />
    <glyph glyph-name="bracketleft" unicode="[" horiz-adv-x="233" 
d="M221 -199h-186v802h186v-42h-145v-718h145v-42z" />
    <glyph glyph-name="bracketright" unicode="]" horiz-adv-x="249" 
d="M35 -199v42h153v718h-145v42h186v-802h-194z" />
    <glyph glyph-name="parenleft.case" horiz-adv-x="273" 
d="M232 -147l-19 15.5t-47 47t-56 79t-47 112t-19 145.5t19 145.5t47 113t56 80.5t47 48l19 16l34 -37q-4 -2 -24 -16.5t-47.5 -42.5t-54 -70.5t-44.5 -101.5t-18 -135q0 -78 19 -137.5t47 -102t56 -69.5t47 -39.5l19 -12.5z" />
    <glyph glyph-name="parenright.case" horiz-adv-x="263" 
d="M31 -147l-33 38q-1 0 18 12.5t47 39.5t56 69.5t47 102t19 137.5q0 76 -18 135t-44.5 101.5t-54 70.5t-47.5 42.5t-23 16.5l33 37l19 -16t47 -48t56 -80.5t47 -113t19 -145.5t-19 -145.5t-47 -112t-56 -79t-47 -47z" />
    <glyph glyph-name="braceleft.case" horiz-adv-x="272" 
d="M250 -144q-81 -12 -117 6.5t-41.5 73.5t5.5 154q7 53 2 82.5t-16 42.5t-24.5 15.5t-24.5 2.5v46q11 0 24.5 2.5t24.5 15t16 42t-2 83.5q-7 73 -6.5 122t15 75.5t49.5 34.5t95 1v-42q-54 12 -81.5 5t-35.5 -32t-4 -66t11 -96q8 -48 7.5 -80.5t-17.5 -54t-59 -34.5
q42 -14 59.5 -34.5t17.5 -52.5t-8 -80q-7 -56 -11 -97.5t4 -66t35.5 -32t81.5 4.5v-41z" />
    <glyph glyph-name="braceright.case" horiz-adv-x="286" 
d="M36 -144v41q55 -12 82 -4.5t35 32t4 66t-11 97.5q-8 48 -7.5 80t17.5 52.5t59 34.5q-42 13 -59 34.5t-17.5 54t7.5 80.5q7 55 11 96t-4 66t-35 32t-82 -5v42q63 6 97.5 -2t49 -34.5t14.5 -75t-8 -121.5q-6 -54 -1.5 -83.5t15.5 -42t24.5 -15t24.5 -2.5v-46
q-11 0 -24.5 -2.5t-24.5 -15.5t-15.5 -42.5t1.5 -82.5q8 -74 8.5 -122.5t-14 -75t-49.5 -35t-98 -1.5z" />
    <glyph glyph-name="bracketleft.case" horiz-adv-x="233" 
d="M35 -147v802h186v-43h-145v-717l145 -1v-41h-186z" />
    <glyph glyph-name="bracketright.case" horiz-adv-x="249" 
d="M35 -147v41l153 1v717h-145v43h186v-802h-194z" />
    <glyph glyph-name="hyphen" unicode="-" horiz-adv-x="317" 
d="M40 206v37h222v-37h-222z" />
    <glyph glyph-name="uni00AD" unicode="&#xad;" horiz-adv-x="280" 
d="M29 206v37h222v-37h-222z" />
    <glyph glyph-name="endash" unicode="&#x2013;" horiz-adv-x="404" 
d="M40 206v37h309v-37h-309z" />
    <glyph glyph-name="emdash" unicode="&#x2014;" horiz-adv-x="517" 
d="M40 206v37h422v-37h-422z" />
    <glyph glyph-name="underscore" unicode="_" horiz-adv-x="500" 
d="M23 0v37h422v-37h-422z" />
    <glyph glyph-name="hyphen.case" horiz-adv-x="317" 
d="M40 255v37h222v-37h-222z" />
    <glyph glyph-name="endash.case" horiz-adv-x="404" 
d="M40 255v37h309v-37h-309z" />
    <glyph glyph-name="emdash.case" horiz-adv-x="517" 
d="M40 255v37h422v-37h-422z" />
    <glyph glyph-name="quotesinglbase" unicode="&#x201a;" horiz-adv-x="196" 
d="M46 -77v43q35 0 50.5 14t19.5 29h-7q-20 0 -27 10.5t-7 25.5t7 26t27 11q19 0 26 -11t7 -26v0v0v0v0q0 -4 -2 -23t-10.5 -42t-28.5 -40t-55 -17z" />
    <glyph glyph-name="quotedblbase" unicode="&#x201e;" horiz-adv-x="299" 
d="M43 -77l-1 43q36 0 51.5 14t19.5 29h-7q-20 0 -27 10.5t-7 25.5t7 26t26 11q20 0 27 -11t7 -26v0v0v0v0q0 -4 -2 -23t-11 -42t-28.5 -40t-54.5 -17zM152 -77v43q35 0 50.5 14t19.5 29h-7q-20 0 -27 10.5t-7 25.5t7 26t27 11q19 0 26 -11t7 -26v0v0v0v0q0 -4 -2 -23
t-10.5 -42t-28.5 -40t-55 -17z" />
    <glyph glyph-name="quotedblleft" unicode="&#x201c;" horiz-adv-x="290" 
d="M26 404v43q35 0 50.5 14t19.5 30q-3 -1 -7 -1q-20 0 -27 10.5t-7 25.5t7 26t27 11q19 0 26 -11t7 -26v0v0v0v0q0 -3 -2 -22t-10.5 -42t-28.5 -40.5t-55 -17.5zM135 404v43q35 0 50.5 14t20.5 30q-4 -1 -8 -1q-20 0 -27 10.5t-7 25.5t7 26t27 11q19 0 26 -11t7 -26h1h-1h1
h-1q0 -3 -2 -22t-10.5 -42t-28.5 -40.5t-55 -17.5z" />
    <glyph glyph-name="quotedblright" unicode="&#x201d;" horiz-adv-x="290" 
d="M169 404q-20 0 -27 11t-7 26v0v0v0v0q0 4 2 22.5t11 42t28.5 40.5t55.5 17v-43q-36 0 -51.5 -14t-19.5 -29h7q20 0 27 -10.5t7 -25.5t-7 -26t-26 -11zM60 404q-20 0 -27 11t-7 26v0v0v0v0q0 4 2 22.5t10.5 42t28.5 40.5t55 17v-43q-35 0 -50.5 -14t-19.5 -29h7
q20 0 27 -10.5t7 -25.5t-7 -26t-26 -11z" />
    <glyph glyph-name="quoteleft" unicode="&#x2018;" horiz-adv-x="182" 
d="M60 404q-20 0 -27 11t-7 26v0v0v0v0q0 4 2 22.5t10.5 42t28.5 40.5t55 17v-43q-35 0 -50.5 -14t-19.5 -29h7q20 0 27 -10.5t7 -25.5t-7 -26t-26 -11z" />
    <glyph glyph-name="quoteright" unicode="&#x2019;" horiz-adv-x="151" 
d="M20 404v43q35 0 50.5 14t20.5 30q-4 -1 -8 -1q-20 0 -27 10.5t-7 25.5t7 26t27 11q19 0 26 -11t7 -26h1h-1h1h-1q0 -3 -2 -22t-10.5 -42t-28.5 -40.5t-55 -17.5z" />
    <glyph glyph-name="guillemotleft" unicode="&#xab;" horiz-adv-x="483" 
d="M302 502v-50l-234 -157l234 -159v-51l-285 210zM459 502v-52l-234 -155l234 -157v-53l-285 210z" />
    <glyph glyph-name="guillemotright" unicode="&#xbb;" horiz-adv-x="472" 
d="M172 502l285 -207l-285 -210v51l234 159l-234 157v50zM15 502l285 -207l-285 -210v53l234 157l-234 155v52z" />
    <glyph glyph-name="guilsinglleft" unicode="&#x2039;" horiz-adv-x="384" 
d="M344 374v-43l-256 -105l256 -106v-44l-304 150z" />
    <glyph glyph-name="guilsinglright" unicode="&#x203a;" horiz-adv-x="390" 
d="M41 374l304 -148l-304 -150v44l256 106l-256 105v43z" />
    <glyph glyph-name="quotedbl" unicode="&#x22;" horiz-adv-x="248" 
d="M34 411v39h15q23 0 28 12.5t5 28.5q-43 -6 -43 37q0 14 7 24.5t27 10.5q19 0 26.5 -11t7.5 -38q0 -49 -12 -76t-44 -27h-17zM145 411v39h15q23 0 28 12.5t5 28.5q-43 -6 -43 37q0 14 7 24.5t27 10.5q19 0 26.5 -11t7.5 -38q0 -49 -12 -76t-44 -27h-17z" />
    <glyph glyph-name="quotesingle" unicode="'" horiz-adv-x="147" 
d="M39 411v39h15q23 0 28 12.5t5 28.5q-43 -6 -43 37q0 14 7 24.5t27 10.5q19 0 26.5 -11t7.5 -38q0 -49 -12 -76t-44 -27h-17z" />
    <glyph glyph-name="hyphen_greater.dlig" horiz-adv-x="481" 
d="M35 206v40h302q-20 19 -28 41.5t-10 38.5t-2 17h35q0 -2 2 -17t12.5 -33.5t34 -32.5t65.5 -14v-40q-42 0 -65.5 -14t-34 -33t-12.5 -33.5t-2 -16.5h-35l2 16t10.5 38.5t27.5 42.5h-302z" />
    <glyph glyph-name="parenleft_greater.dlig" horiz-adv-x="657" 
d="M329 -23q-61 0 -114 23t-93.5 63t-63.5 93.5t-23 114.5q0 60 23 113t63.5 93.5t93.5 63.5t114 23t114 -23t93 -63.5t63 -93.5t23 -113q0 -61 -23 -114.5t-63 -93.5t-93 -63t-114 -23zM329 8q72 0 131.5 35.5t95 95t35.5 132.5q0 72 -35.5 131.5t-95 94.5t-131.5 35
q-54 0 -101.5 -20t-84 -56t-56.5 -83.5t-20 -101.5q0 -55 20 -102.5t56.5 -83.5t84 -56.5t101.5 -20.5zM257 135v268l202 -130zM289 193l117 80l-117 76v-156z" />
    <glyph glyph-name="colon_parenleft.dlig" horiz-adv-x="657" 
d="M329 -14q-61 0 -114.5 23t-93.5 63t-63 93.5t-23 114.5q0 60 23 113t63 93.5t93.5 63.5t114.5 23q60 0 113 -23t93.5 -63.5t63.5 -93.5t23 -113q0 -61 -23 -114.5t-63.5 -93.5t-93.5 -63t-113 -23zM329 18q54 0 101 20.5t83 56.5t56.5 83.5t20.5 101.5t-20.5 101
t-56.5 83t-83 56.5t-101 20.5t-101.5 -20.5t-83.5 -56.5t-56.5 -83t-20.5 -101q0 -72 35.5 -131.5t95 -95t131.5 -35.5zM195 272v147h35v-147h-35zM427 272v147h35v-147h-35zM157 125q6 62 53.5 102t118.5 40q48 0 85.5 -19t60.5 -51t27 -72h-36q0 21 -14 47.5t-44 45
t-79 18.5t-79 -18.5t-43.5 -45t-13.5 -47.5h-36z" />
    <glyph glyph-name="colon_parenright.dlig" horiz-adv-x="657" 
d="M329 -14q-61 0 -114.5 23t-93.5 63t-63 93.5t-23 114.5q0 60 23 113t63 93.5t93.5 63.5t114.5 23q60 0 113 -23t93.5 -63.5t63.5 -93.5t23 -113q0 -61 -23 -114.5t-63.5 -93.5t-93.5 -63t-113 -23zM329 18q54 0 101 20.5t83 56.5t56.5 83.5t20.5 101.5t-20.5 101
t-56.5 83t-83 56.5t-101 20.5t-101.5 -20.5t-83.5 -56.5t-56.5 -83t-20.5 -101q0 -72 35.5 -131.5t95 -95t131.5 -35.5zM195 272v147h35v-147h-35zM427 272v147h35v-147h-35zM329 79q-60 0 -104 27t-69.5 73t-29.5 103h36q0 -2 2 -20.5t10.5 -43.5t26.5 -50t49 -41.5
t79 -16.5q51 0 82.5 17.5t49 43t25 51t9 43l1.5 17.5h35q-5 -89 -58.5 -146t-143.5 -57z" />
    <glyph glyph-name="space" unicode=" " horiz-adv-x="246" 
 />
    <glyph glyph-name="uni00A0" unicode="&#xa0;" horiz-adv-x="246" 
 />
    <glyph glyph-name="CR" unicode="&#xd;" horiz-adv-x="600" 
 />
    <glyph glyph-name="cent" unicode="&#xa2;" horiz-adv-x="442" 
d="M197 -85l2 76q-78 6 -126.5 59.5t-48.5 142.5q2 89 50 146.5t125 65.5l-2 76h45l-2 -76q67 -5 109.5 -43.5t54.5 -95.5l-43 -4q-11 48 -47.5 75t-91.5 27q-69 0 -110.5 -47t-41.5 -122t40 -119t109 -44q56 0 94 27.5t48 75.5l43 -4q-12 -57 -55 -95.5t-109 -44.5l2 -76
h-45z" />
    <glyph glyph-name="currency" unicode="&#xa4;" horiz-adv-x="517" 
d="M427 1h-34l-41 59q-38 -27 -93 -27q-57 0 -96 28l-42 -60h-31l54 77q-41 45 -41 126q0 89 50 135l-47 65h34l35 -50q34 20 84 20q49 0 82 -19l34 49h35l-47 -65q51 -47 51 -135q0 -79 -41 -126zM259 54q25 0 45 6t36 17q4 3 7 6l6 6q-9 -10 -9.5 -10.5t3.5 4t8.5 9
l4.5 4.5q32 39 32 108q0 78 -41 118q-8 8 -22 15q-30 16 -70 16q-41 0 -72 -16q-1 -1 -11 -8.5l-10 -7.5q-41 -38 -41 -117q0 -33 12.5 -67.5t38.5 -58.5q16 -12 36.5 -18t46.5 -6z" />
    <glyph glyph-name="dollar" unicode="$" horiz-adv-x="527" 
d="M258 -110l2 97q-53 3 -101 23t-79 59.5t-34 101.5l45 4q0 -3 2 -18.5t10.5 -37t28 -42.5t55.5 -35t93 -14q52 0 83 13t47 31t21.5 35.5t5.5 25.5q1 39 -18.5 62.5t-53 38t-73.5 24.5t-80 21.5t-73.5 29.5t-52.5 47t-18 76q2 41 27.5 72t68 48.5t96.5 20.5l-2 100h45
l-2 -101q50 -4 91 -25.5t64 -60t22 -92.5l-45 -4q1 44 -16 72t-43.5 43t-54.5 20.5t-47 5.5q-67 0 -111.5 -29t-45.5 -73q-1 -38 19 -61t53 -36.5t73 -23.5t80 -21.5t73 -29.5t52.5 -48t17.5 -78q-2 -43 -26.5 -73.5t-65.5 -48.5t-90 -22l2 -97h-45z" />
    <glyph glyph-name="Euro" unicode="&#x20ac;" horiz-adv-x="611" 
d="M32 288v33h53q11 125 79 188.5t170 63.5q91 0 151.5 -53t77.5 -152l-47 -5q-14 81 -60.5 125t-121.5 44q-86 0 -139.5 -55t-62.5 -156h253l-15 -33h-240v-6v-13l172 8l50 -21l-221 -10q8 -105 61 -159.5t139 -54.5q80 0 127.5 44t60.5 122l48 -4q-17 -97 -77.5 -150.5
t-158.5 -53.5q-66 0 -119.5 29t-87 86t-39.5 142l-53 18l52 2v14v7h-52z" />
    <glyph glyph-name="sterling" unicode="&#xa3;" horiz-adv-x="588" 
d="M80 -12l-22 34q52 41 72 89t0 111h-96v37h81l-4 10q-29 56 -31 110t20.5 97.5t66.5 69.5t107 26q94 0 147.5 -52t54.5 -138l-44 -4q-2 6 -4.5 23.5t-11 40t-25.5 44t-46.5 35.5t-75.5 14q-65 -1 -103 -37t-43.5 -94t26.5 -124q5 -11 10 -21h243v-37h-230
q16 -57 2.5 -95.5t-39.5 -74.5q37 16 73.5 14t71.5 -11.5t68 -17.5t64 -4.5t59 28.5q23 21 28 53t-7 68l43 11q13 -47 8.5 -80.5t-20.5 -54.5t-35 -31q-33 -27 -65 -32.5t-63.5 1t-64 16.5t-66 15.5t-69 -1t-74.5 -34.5q-1 0 -2.5 -1t-3.5 -3z" />
    <glyph glyph-name="yen" unicode="&#xa5;" horiz-adv-x="440" 
d="M75 113v33h117v49h-117v32h107l-181 336h50l165 -310l164 310h50l-183 -336h109v-32h-118v-49h118v-33h-118v-113h-46v113h-117z" />
    <glyph glyph-name="uni2215" unicode="&#x2215;" horiz-adv-x="336" 
d="M25 0l254 563h47l-254 -563h-47z" />
    <glyph glyph-name="plus" unicode="+" horiz-adv-x="338" 
d="M150 89v116h-114v37h114v113h37v-113h116v-37h-116v-116h-37z" />
    <glyph glyph-name="minus" unicode="&#x2212;" horiz-adv-x="317" 
d="M40 206v37h222v-37h-222z" />
    <glyph glyph-name="multiply" unicode="&#xd7;" horiz-adv-x="309" 
d="M274 312l-91 -92l91 -93l-26 -28l-94 93l-90 -91l-29 29l91 90l-90 90l28 29l90 -90l92 91z" />
    <glyph glyph-name="divide" unicode="&#xf7;" horiz-adv-x="317" 
d="M152 280q-15 0 -23 9.5t-8 24.5t8 24.5t23 9.5t23 -9.5t8 -24.5t-7.5 -24.5t-23.5 -9.5zM40 206v37h222v-37h-222zM152 101q-15 0 -23 9.5t-8 24.5t8 24.5t23 9.5t23 -9.5t8 -24.5q0 -14 -7.5 -24t-23.5 -10z" />
    <glyph glyph-name="equal" unicode="=" horiz-adv-x="372" 
d="M40 264v35h277v-35h-277zM40 147v35h277v-35h-277z" />
    <glyph glyph-name="notequal" unicode="&#x2260;" horiz-adv-x="368" 
d="M72 47l50 110h-82v35h98l13 29h-111v35h126l50 111h47l-50 -111h100v-35h-116l-13 -29h129v-35h-144l-50 -110h-47z" />
    <glyph glyph-name="greater" unicode="&#x3e;" horiz-adv-x="390" 
d="M41 374l304 -148l-304 -150v44l256 106l-256 105v43z" />
    <glyph glyph-name="less" unicode="&#x3c;" horiz-adv-x="388" 
d="M345 374v-43l-256 -105l256 -106v-44l-304 150z" />
    <glyph glyph-name="plusminus" unicode="&#xb1;" horiz-adv-x="317" 
d="M137 135v78h-97v35h97v82h34v-82h91v-35h-91v-78h-34zM40 53v34h222v-34h-222z" />
    <glyph glyph-name="asciitilde" unicode="~" horiz-adv-x="304" 
d="M205 192q-24 0 -37.5 10.5t-22.5 24.5t-18.5 24.5t-25.5 10.5q-21 0 -26 -18t-4 -43h-34q-1 20 3 41t17.5 35.5t41.5 14.5q24 0 37.5 -10.5t22.5 -24.5t18.5 -24.5t26.5 -10.5q21 0 25.5 19t4.5 43h33q2 -20 -2.5 -41.5t-18 -36t-41.5 -14.5z" />
    <glyph glyph-name="logicalnot" unicode="&#xac;" horiz-adv-x="317" 
d="M40 206v36h222v-122h-37v86h-185z" />
    <glyph glyph-name="asciicircum" unicode="^" horiz-adv-x="384" 
d="M26 320v17l166 225l166 -225v-17h-48l-117 188h-2l-117 -188h-48z" />
    <glyph glyph-name="uni00B5" unicode="&#xb5;" horiz-adv-x="458" 
d="M50 -153v559h45v-212q0 -45 9.5 -81.5t36 -58t77.5 -21.5q47 0 75.5 22t42.5 57.5t17 74.5v219h46v-405h-38l-6 91h-2q-8 -23 -25 -46.5t-44 -39t-65 -15.5q-47 0 -76 15.5t-46 43.5h-2v-203h-45z" />
    <glyph glyph-name="percent" unicode="%" horiz-adv-x="558" 
d="M125 327q-50 0 -73 33.5t-23 89.5t22.5 89.5t73.5 33.5q50 0 72.5 -33.5t22.5 -89.5q0 -54 -22.5 -88.5t-72.5 -34.5zM91 0l-33 24l215 270l190 268l32 -22l-204 -259zM124 358q35 0 49 26t14 66q0 41 -14 67t-49 26q-34 0 -48.5 -25.5t-14.5 -67.5q0 -40 14.5 -66
t48.5 -26zM433 -10q-49 0 -72 33.5t-23 89.5t22.5 89.5t72.5 33.5t73 -33.5t23 -89.5q0 -54 -23 -88.5t-73 -34.5zM433 20q35 0 49 26.5t14 65.5q0 41 -14 67.5t-49 26.5q-34 0 -48.5 -25.5t-14.5 -68.5q0 -39 14.5 -65.5t48.5 -26.5z" />
    <glyph glyph-name="perthousand" unicode="&#x2030;" horiz-adv-x="772" 
d="M125 327q-50 0 -73 33.5t-23 89.5t22.5 89.5t73.5 33.5q50 0 72.5 -33.5t22.5 -89.5q0 -54 -22.5 -88.5t-72.5 -34.5zM91 0l-33 24l215 270l190 268l32 -22l-204 -259zM124 358q35 0 49 26t14 66q0 41 -14 67t-49 26q-34 0 -48.5 -25.5t-14.5 -67.5q0 -40 14.5 -66
t48.5 -26zM433 -10q-49 0 -72 33.5t-23 89.5t22.5 89.5t72.5 33.5t73 -33.5t23 -89.5q0 -54 -23 -88.5t-73 -34.5zM662 -10q-50 0 -72.5 33.5t-22.5 89.5t22.5 89.5t72.5 33.5t72.5 -33.5t22.5 -89.5q0 -54 -22.5 -88.5t-72.5 -34.5zM433 20q35 0 49 26.5t14 65.5
q0 41 -14 67.5t-49 26.5q-34 0 -48.5 -25.5t-14.5 -68.5q0 -39 14.5 -65.5t48.5 -26.5zM662 20q34 0 48.5 26.5t14.5 65.5q0 41 -14.5 67.5t-48.5 26.5q-35 0 -49 -25.5t-14 -68.5q0 -39 14 -65.5t49 -26.5z" />
    <glyph glyph-name="plus.case" horiz-adv-x="338" 
d="M150 139v117h-114v37h114v113h37v-113h116v-37h-116v-117h-37z" />
    <glyph glyph-name="minus.case" horiz-adv-x="317" 
d="M40 256v38h222v-38h-222z" />
    <glyph glyph-name="equal.case" horiz-adv-x="372" 
d="M40 339v35h277v-35h-277zM40 223v35h277v-35h-277z" />
    <glyph glyph-name="notequal.case" horiz-adv-x="368" 
d="M72 126l50 110h-82v35h98l13 29h-111v35h126l50 111h47l-50 -111h100v-35h-116l-13 -29h129v-35h-144l-50 -110h-47z" />
    <glyph glyph-name="greater.case" horiz-adv-x="390" 
d="M41 423l304 -148l-304 -150v44l256 106l-256 105v43z" />
    <glyph glyph-name="less.case" horiz-adv-x="388" 
d="M345 423v-43l-256 -105l256 -106v-44l-304 150z" />
    <glyph glyph-name="asciitilde.case" horiz-adv-x="409" 
d="M195 280q-15 22 -30 39.5t-40 17.5q-26 0 -35 -20t-6 -48t12 -55h-41q-8 21 -10 47t4 50t22.5 39.5t46.5 15.5q33 0 54 -23t38 -49q15 -23 31 -42.5t40 -19.5t34 18.5t9 47t-12 57.5h41q8 -20 9.5 -45.5t-5 -50t-23.5 -40t-47 -15.5q-35 0 -55 25t-37 51z" />
    <glyph glyph-name="arrowup" unicode="&#x2191;" horiz-adv-x="303" 
d="M132 123v216q-20 -20 -42.5 -28.5t-38 -10.5t-16.5 -2v35q2 0 16.5 2.5t33.5 13t33 33.5t14 65h39q0 -42 14.5 -65t33 -33.5t33.5 -13t16 -2.5v-35l-16 2t-38.5 10.5t-42.5 28.5v-216h-39z" />
    <glyph glyph-name="uni2197" unicode="&#x2197;" horiz-adv-x="338" 
d="M35 166l-29 27l155 155q-28 0 -50 9.5t-34.5 19.5t-13.5 11l26 25q1 -1 13 -10t32.5 -15.5t47 0t56.5 36.5l28 -27q-30 -30 -36.5 -56.5t-0.5 -47t15 -32.5t9 -13l-23 -25q-1 1 -11 13t-20 34t-10 50z" />
    <glyph glyph-name="arrowright" unicode="&#x2192;" horiz-adv-x="394" 
d="M35 206v40h216q-20 19 -28.5 41.5t-10.5 38.5t-2 17h35q0 -2 2.5 -17t13 -33.5t33.5 -32.5t65 -14v-40q-42 0 -65 -14t-33.5 -33t-13 -33.5t-2.5 -16.5h-35l2 16t10.5 38.5t28.5 42.5h-216z" />
    <glyph glyph-name="uni2198" unicode="&#x2198;" horiz-adv-x="338" 
d="M275 146q-30 29 -56.5 35.5t-47 0.5t-32.5 -15t-13 -10l-24 25l12.5 10t34.5 20t50 9l-164 165l28 26l163 -163q1 29 11 51t19.5 34l9.5 12l25 -24q-1 -1 -10 -13t-15 -32.5t0.5 -47t36.5 -56.5z" />
    <glyph glyph-name="arrowdown" unicode="&#x2193;" horiz-adv-x="303" 
d="M132 123q0 42 -14 65t-33 33.5t-33.5 13t-16.5 2.5v35q1 0 16.5 -2t38 -10.5t42.5 -28.5v216h39v-216q20 20 42.5 28.5t38.5 10.5l16 2v-35q-1 0 -16 -2.5t-33.5 -13t-33 -33.5t-14.5 -65h-39z" />
    <glyph glyph-name="uni2199" unicode="&#x2199;" horiz-adv-x="369" 
d="M63 146l-28 27q33 33 47 56t15.5 38t-1.5 22t-4 7l5 5l9 -12t10 -35l159 158l28 -26l-159 -160q22 -1 34.5 -9.5l12.5 -8.5l-4 -6q-1 1 -8 4.5t-21.5 1.5t-38 -15.5t-56.5 -46.5z" />
    <glyph glyph-name="arrowleft" unicode="&#x2190;" horiz-adv-x="394" 
d="M149 109q0 2 -2.5 16.5t-13 33.5t-33.5 33t-65 14v40q42 0 65 14t33.5 32.5t13 33.5t2.5 17h35q0 -1 -2 -17t-10.5 -38.5t-28.5 -41.5h216v-40h-216q20 -20 28.5 -42.5t10.5 -38.5l2 -16h-35z" />
    <glyph glyph-name="uni2196" unicode="&#x2196;" horiz-adv-x="338" 
d="M42 223l-24 25q1 1 10 13t15 32.5t-0.5 47t-36.5 56.5l28 27q30 -30 56.5 -36.5t46.5 0t32 15.5t14 10l25 -25q-1 -1 -13.5 -11t-34.5 -19.5t-50 -9.5l156 -155l-29 -27l-154 154q-1 -28 -11 -50t-20 -34t-10 -13z" />
    <glyph glyph-name="arrowboth" unicode="&#x2194;" horiz-adv-x="527" 
d="M149 109q0 2 -2.5 16.5t-13 33.5t-33.5 33t-65 14v39q42 0 65 14.5t33.5 33t13 33.5t2.5 16h35l-2 -16t-10.5 -38.5t-28.5 -42.5h241q-20 20 -28.5 42.5t-10 38.5l-1.5 16h34q0 -1 2.5 -16t13 -33.5t34 -33t64.5 -14.5v-39q-41 0 -64.5 -14t-34 -33t-13 -33.5t-2.5 -16.5
h-34l1.5 16t10 38.5t28.5 42.5h-241q20 -20 28.5 -42.5t10.5 -38.5l2 -16h-35z" />
    <glyph glyph-name="arrowupdn" unicode="&#x2195;" horiz-adv-x="303" 
d="M132 -10q0 41 -14 64.5t-33 34t-33.5 13t-16.5 2.5v34q1 0 16.5 -1.5t38 -10t42.5 -28.5v241q-20 -20 -42.5 -28.5t-38 -10.5t-16.5 -2v35q2 0 16.5 2.5t33.5 13t33 33.5t14 65h39q0 -42 14.5 -65t33 -33.5t33.5 -13t16 -2.5v-35l-16 2t-38.5 10.5t-42.5 28.5v-241
q20 20 42.5 28.5t38.5 10l16 1.5v-34q-1 0 -16 -2.5t-33.5 -13t-33 -34t-14.5 -64.5h-39z" />
    <glyph glyph-name="uni21A9" unicode="&#x21a9;" horiz-adv-x="600" 
 />
    <glyph glyph-name="carriagereturn" unicode="&#x21b5;" horiz-adv-x="468" 
d="M174 115h-25q0 2 -2.5 16.5t-13 33.5t-33.5 33t-65 14v26q42 0 65 14t33.5 33t13 34t2.5 16h25q0 -1 -2 -17.5t-12.5 -39t-34.5 -40.5h280v166h28v-192h-308q24 -18 34 -40.5t12.5 -39.5z" />
    <glyph glyph-name="at" unicode="@" horiz-adv-x="710" 
d="M322 33q-60 0 -88.5 43.5t-18.5 107.5q6 43 27.5 76.5t52.5 53t67 19.5q37 0 62.5 -17t37.5 -46l6 50h37l-34 -206q-3 -25 3.5 -43.5t30.5 -18.5q40 0 68.5 29t42 73.5t11 93t-23.5 88.5q-26 46 -69.5 75t-95.5 40.5t-104.5 5.5t-97.5 -30q-64 -35 -102 -100.5
t-42 -147.5q-5 -73 20.5 -126t72.5 -86.5t108 -45t128 -0.5t132 47l22 -38q-70 -40 -145.5 -52.5t-145 0t-125 50.5t-86.5 100.5t-27 148.5q4 95 49.5 170t120.5 113q53 28 114.5 34t121.5 -8.5t108.5 -49t75.5 -87.5q18 -37 22 -80.5t-5.5 -86t-31 -77.5t-53.5 -56t-73 -21
q-33 -1 -47.5 18t-11.5 49q-21 -29 -50.5 -45.5t-63.5 -16.5zM329 61q36 0 58.5 14t34.5 34.5t17 41t8 33.5q9 53 -8 86.5t-70 33.5q-45 0 -79.5 -32.5t-42.5 -89.5q-7 -53 13.5 -87t68.5 -34z" />
    <glyph glyph-name="ampersand" unicode="&#x26;" horiz-adv-x="630" 
d="M594 -1q-38 14 -70.5 33t-73.5 47q-37 -43 -88 -65t-105 -23.5t-100 16.5t-75 55t-29 93q0 46 22 77t54 51.5t61 36.5q-20 28 -39 62.5t-19 72.5t19 64t50 39t65.5 13.5t65 -11.5t50 -36.5t19.5 -60.5q0 -32 -19 -58.5t-45.5 -46t-50.5 -32t-34 -17.5q18 -24 49.5 -55.5
t67.5 -62.5t69 -54q18 29 29.5 68.5t10.5 77t-21 61.5l37 28q20 -26 25.5 -72t-5 -97t-38.5 -91q38 -26 68 -44t67 -32zM227 331q2 1 22.5 10.5t46 26t45 39.5t19.5 50q1 30 -18 48t-46.5 24t-55.5 -1t-47 -26.5t-19 -51.5q0 -49 53 -119zM414 104q-35 26 -72.5 59.5
t-71 68.5t-56.5 65q-46 -23 -80 -54.5t-34 -82.5q0 -44 23 -73t60 -42.5t79.5 -12t82.5 19.5t69 52z" />
    <glyph glyph-name="paragraph" unicode="&#xb6;" horiz-adv-x="495" 
d="M227 -93v403h-13q-54 2 -99 20.5t-72 60t-27 112.5q0 69 26 110.5t70.5 61t98.5 21.5h76v0h192v-56h-71v-733h-59l-1 733h-61v-733h-60z" />
    <glyph glyph-name="section" unicode="&#xa7;" horiz-adv-x="600" 
d="M418 223v-2q23 -15 39 -40t15 -60q-3 -56 -51.5 -88t-116.5 -32q-47 0 -90.5 16t-71.5 50t-30 86h31q0 -2 1.5 -15t9 -31t24.5 -35.5t48 -29t80 -11.5q45 0 72 11t40.5 27t18 31t4.5 22q1 38 -21 59.5t-58 33.5t-76.5 21.5t-76.5 24t-58 40t-20 70.5q1 28 20.5 48.5
t47.5 31.5v1q-31 17 -50 42.5t-18 61.5q2 36 25 61.5t61.5 39.5t84.5 14q47 0 84.5 -16.5t59.5 -48.5t20 -81h-30q1 36 -13 59t-36 35.5t-45.5 17.5t-41.5 5q-59 0 -97.5 -25t-40.5 -63q0 -37 22.5 -58t58 -32.5t76 -20.5t76 -23.5t57.5 -41t20 -72.5q-1 -28 -16 -48
t-38 -35zM162 369q0 -35 17.5 -55.5t47.5 -32t65.5 -19.5t69.5 -18q11 -2 15 -3t6 -2q8 -2 12 -0.5t6 2.5q26 17 33 37t7 29q1 33 -16.5 54t-47 34t-64.5 21.5t-69 17.5q-14 3 -21.5 4.5t-20.5 -6.5q-39 -26 -40 -63z" />
    <glyph glyph-name="copyright" unicode="&#xa9;" horiz-adv-x="644" 
d="M328 -10q-61 0 -114 22.5t-93.5 63t-63 93.5t-22.5 114q0 59 22.5 111.5t63 92.5t93.5 63t114 23q59 0 111.5 -23t92.5 -63t63 -92.5t23 -111.5q0 -61 -23 -114t-63 -93.5t-92.5 -63t-111.5 -22.5zM328 22q72 0 130.5 35t93.5 94t35 132q0 71 -35 130t-93.5 93.5
t-130.5 34.5q-73 0 -132 -34.5t-94 -93.5t-35 -130q0 -73 35 -132t94 -94t132 -35zM329 114q-68 0 -113.5 43t-45.5 125q1 81 46.5 124.5t114.5 43.5q59 0 98 -33t48 -90l-35 -4q-10 45 -37 68.5t-74 23.5q-57 0 -90 -34.5t-33 -96.5q0 -66 32 -101.5t90 -35.5q48 0 76 25.5
t37 68.5l38 -6q-11 -56 -49 -88.5t-103 -32.5z" />
    <glyph glyph-name="registered" unicode="&#xae;" horiz-adv-x="408" 
d="M203 229q-48 0 -87 23t-62.5 62t-23.5 86q0 48 23.5 87t62.5 62t87 23q47 0 85.5 -23t61.5 -62t23 -87q0 -47 -23 -86t-61.5 -62t-85.5 -23zM203 254q41 0 74 20t52 53t19 73q0 41 -19 74.5t-52 53t-74 19.5q-42 0 -75.5 -19.5t-52.5 -53t-19 -74.5q0 -40 19 -73
t52.5 -53t75.5 -20zM137 313v184h63q36 0 55.5 -12t19.5 -42q0 -20 -11.5 -35t-36.5 -15q21 0 27.5 -11t7.5 -25t4 -22.5t17 -3.5v-16q-6 -5 -16 -6t-18.5 6.5t-8.5 27.5q0 23 -4.5 33.5t-20.5 12.5t-52 1v-77h-26zM163 410h39q25 0 37 5.5t12 25.5q0 23 -15 28.5t-42 5.5
h-31v-65z" />
    <glyph glyph-name="trademark" unicode="&#x2122;" horiz-adv-x="446" 
d="M157 537h-71v-183h-29v183h-71v26h171v-26zM411 354h-31l3 194l-60 -194h-46l-58 194v-194h-30v209h52l59 -194l59 194h52v-209z" />
    <glyph glyph-name="degree" unicode="&#xb0;" horiz-adv-x="297" 
d="M127 380q-51 0 -74 26t-23 69q0 44 22.5 71t74.5 27q50 0 74 -27t24 -71q0 -41 -24 -68t-74 -27zM127 412q37 0 51 18.5t14 45.5q0 28 -14 48t-51 20q-38 0 -52.5 -20.5t-14.5 -47.5q0 -28 16.5 -46t50.5 -18z" />
    <glyph glyph-name="bar" unicode="|" horiz-adv-x="166" 
d="M60 -151v752h46v-752h-46z" />
    <glyph glyph-name="brokenbar" unicode="&#xa6;" horiz-adv-x="166" 
d="M60 285v316h46v-316h-46zM60 -151v316h46v-316h-46z" />
    <glyph glyph-name="uni240D" unicode="&#x240d;" horiz-adv-x="576" 
d="M168 180q-55 0 -91.5 35.5t-36.5 105.5t36 104.5t94 34.5q44 0 76 -23.5t41 -73.5h-13q-8 41 -35 63.5t-69 22.5q-53 0 -85.5 -33t-32.5 -95q0 -64 32 -96.5t84 -32.5q46 0 73.5 22.5t34.5 62.5h14q-9 -48 -41 -72.5t-81 -24.5zM339 184v268h78q50 0 76.5 -15t26.5 -59
q0 -25 -15.5 -46.5t-48.5 -21.5q28 0 39 -13.5t12.5 -33t1 -38t3 -28.5t19.5 -5v-11l-8.5 -0.5t-17 5.5t-8.5 27q0 39 -4 58t-17.5 25.5t-43 6.5h-80.5v-119h-13zM352 316h77q40 0 59.5 14t19.5 48q0 39 -23.5 50t-67.5 11h-65v-123z" />
    <glyph glyph-name="less_hyphen.dlig" horiz-adv-x="490" 
d="M184 109h-35q0 2 -2.5 16.5t-13 33.5t-33.5 33t-65 14v40q42 0 65 14t33.5 32.5t13 33.5t2.5 17h35q0 -1 -2 -17t-10.5 -38.5t-28.5 -41.5h303v-40h-303q20 -20 28.5 -42.5t10.5 -38.5z" />
    <glyph glyph-name="less_three.dlig" horiz-adv-x="499" 
d="M242 0q-54 20 -96.5 57.5t-70.5 83.5t-40 92.5t-6 85.5t32.5 63t75.5 24q47 0 71 -31t33 -75q9 48 35.5 77t69.5 29q51 0 78 -24t33.5 -63.5t-6.5 -86t-41.5 -92.5t-71 -83t-96.5 -57zM242 40q51 19 89 57.5t60 84t25 86.5t-16 68t-63 27q-47 0 -62 -36t-15 -87h-36
q-1 52 -17 87.5t-61 35.5q-44 0 -62 -27t-14 -69t26.5 -87t60 -83t85.5 -57z" />
    <glyph glyph-name="uni0308" unicode="&#x308;" 
d="M86 688q-24 0 -32.5 12t-8.5 29q0 15 8.5 27t32.5 12t32 -12t8 -27q0 -17 -8 -29t-32 -12zM230 688q-24 0 -32.5 12t-8.5 29q0 15 8.5 27t32.5 12q25 0 32.5 -12t7.5 -27q0 -17 -7.5 -29t-32.5 -12z" />
    <glyph glyph-name="uni0307" unicode="&#x307;" 
d="M86 689q-24 0 -32.5 12.5t-8.5 28.5t8.5 28t32.5 12t32 -12t8 -28t-8 -28.5t-32 -12.5z" />
    <glyph glyph-name="gravecomb" unicode="&#x300;" 
d="M112 632l-75 100v12h44l54 -104v-8h-23z" />
    <glyph glyph-name="acutecomb" unicode="&#x301;" 
d="M61 632h-24v8l54 104h44v-12z" />
    <glyph glyph-name="uni030B" unicode="&#x30b;" 
d="M31 643l79 132l43 -20l-99 -123zM156 643l79 132l43 -20l-99 -123z" />
    <glyph glyph-name="uni0302" unicode="&#x302;" 
d="M86 642v6l104 101h22l105 -101v-6h-46l-69 74h-2l-68 -74h-46z" />
    <glyph glyph-name="uni030C" unicode="&#x30c;" 
d="M54 753h50l94 -100l94 100h50v-12l-134 -124h-21l-133 124v12z" />
    <glyph glyph-name="uni0306" unicode="&#x306;" 
d="M164 679q-51 0 -81 23t-30 61h35q0 -33 22 -42t53 -9q30 0 52 9t22 42h35q0 -38 -29 -61t-79 -23z" />
    <glyph glyph-name="uni030A" unicode="&#x30a;" 
d="M125 594q-40 0 -63.5 23.5t-23.5 61.5q0 40 23 64t64 24t65 -24t24 -64q0 -37 -24 -61t-65 -24zM125 623q27 0 42 17t15 41t-15 40.5t-42 16.5t-42 -16.5t-15 -40.5q0 -25 16 -41.5t41 -16.5z" />
    <glyph glyph-name="tildecomb" unicode="&#x303;" 
d="M230 592q-22 0 -35 8t-22.5 19t-19 19t-22.5 8q-18 0 -21.5 -14t-3.5 -39h-34q-1 31 9 57t48 26q22 0 35 -8.5t22 -19t18.5 -18.5t23.5 -8q18 0 21.5 14t3.5 40h33q2 -34 -9 -59t-47 -25z" />
    <glyph glyph-name="uni0304" unicode="&#x304;" 
d="M40 733v37h235v-37h-235z" />
    <glyph glyph-name="hookabovecomb" unicode="&#x309;" 
d="M75 617v9q4 13 18 22.5t27 20t13 27.5q0 16 -15 23t-32 1.5t-24 -27.5l-27 11q7 26 27.5 39t44.5 12t41 -14.5t17 -39.5q0 -25 -12.5 -38t-26 -22.5t-14.5 -23.5h-37z" />
    <glyph glyph-name="uni0312" unicode="&#x312;" 
d="M78 687q19 0 26 -10.5t7 -24.5q0 -15 -7 -25.5t-26 -10.5q-18 0 -25 10.5t-7 24.5v0v1v0v1q0 6 2.5 24.5t11 40t27 37t50.5 15.5v-43q-32 0 -46.5 -13t-19.5 -28z" />
    <glyph glyph-name="uni031B" unicode="&#x31b;" 
d="M45 626l2 32h22q18 0 22.5 6.5t5.5 28.5h48q0 -37 -19.5 -52t-56.5 -15h-24z" />
    <glyph glyph-name="dotbelowcomb" unicode="&#x323;" 
d="M79 -89q-20 0 -27 10t-7 24q0 13 7 23t27 10q21 0 27.5 -10t6.5 -23q0 -14 -6.5 -24t-27.5 -10z" />
    <glyph glyph-name="uni0326" unicode="&#x326;" 
d="M47 -215v39h15q24 0 29 12.5t5 28.5q-44 -6 -44 37q0 14 7 24.5t27 10.5q19 0 26.5 -11t7.5 -38q0 -49 -12 -76t-44 -27h-17z" />
    <glyph glyph-name="uni0327" unicode="&#x327;" 
d="M32 -117l19 26q14 -16 36.5 -24.5t45 -8t37.5 10.5t14 30q-2 20 -18.5 26t-39 1t-40.5 -19l-22 18l38 77l28 -11l-40 -62q12 13 33.5 19.5t43.5 4.5t37 -15t15 -39q0 -29 -19.5 -46.5t-49.5 -23t-61.5 3t-56.5 32.5z" />
    <glyph glyph-name="uni0328" unicode="&#x328;" 
d="M121 -199q-37 0 -59.5 21.5t-22.5 56.5q0 34 19.5 59.5t45 43t45 26.5l19.5 9v-21l-14 -8t-32 -22.5t-32 -35.5t-14 -46q0 -20 12 -33.5t35 -13.5q19 0 29.5 8.5t15 16.5l4.5 8l30 -23l-8.5 -11.5t-26.5 -23t-46 -11.5z" />
    <glyph glyph-name="acute" unicode="&#xb4;" horiz-adv-x="600" 
d="M61 632h-24v8l54 104h44v-12z" />
    <glyph glyph-name="breve" unicode="&#x2d8;" horiz-adv-x="600" 
d="M164 679q-51 0 -81 23t-30 61h35q0 -33 22 -42t53 -9q30 0 52 9t22 42h35q0 -38 -29 -61t-79 -23z" />
    <glyph glyph-name="caron" unicode="&#x2c7;" horiz-adv-x="396" 
d="M54 753h50l94 -109l94 109h50l-134 -136h-21z" />
    <glyph glyph-name="cedilla" unicode="&#xb8;" horiz-adv-x="251" 
d="M32 -117l19 26q14 -16 36.5 -24.5t45 -8t37.5 10.5t14 30q-2 20 -18.5 26t-39 1t-40.5 -19l-22 18l38 77l28 -11l-40 -62q12 13 33.5 19.5t43.5 4.5t37 -15t15 -39q0 -29 -19.5 -46.5t-49.5 -23t-61.5 3t-56.5 32.5z" />
    <glyph glyph-name="circumflex" unicode="&#x2c6;" horiz-adv-x="421" 
d="M86 642v6l104 101h22l105 -101v-6h-46l-69 74h-2l-68 -74h-46z" />
    <glyph glyph-name="dieresis" unicode="&#xa8;" horiz-adv-x="600" 
d="M86 688q-24 0 -32.5 12t-8.5 29q0 15 8.5 27t32.5 12t32 -12t8 -27q0 -17 -8 -29t-32 -12zM230 688q-24 0 -32.5 12t-8.5 29q0 15 8.5 27t32.5 12q25 0 32.5 -12t7.5 -27q0 -17 -7.5 -29t-32.5 -12z" />
    <glyph glyph-name="dotaccent" unicode="&#x2d9;" horiz-adv-x="600" 
d="M86 689q-24 0 -32.5 12.5t-8.5 28.5t8.5 28t32.5 12t32 -12t8 -28t-8 -28.5t-32 -12.5z" />
    <glyph glyph-name="grave" unicode="`" horiz-adv-x="600" 
d="M112 632l-75 100v12h44l54 -104v-8h-23z" />
    <glyph glyph-name="macron" unicode="&#xaf;" horiz-adv-x="315" 
d="M40 733v37h235v-37h-235z" />
    <glyph glyph-name="ring" unicode="&#x2da;" horiz-adv-x="600" 
d="M125 594q-40 0 -63.5 23.5t-23.5 61.5q0 40 23 64t64 24t65 -24t24 -64q0 -37 -24 -61t-65 -24zM125 623q27 0 42 17t15 41t-15 40.5t-42 16.5t-42 -16.5t-15 -40.5q0 -25 16 -41.5t41 -16.5z" />
    <glyph glyph-name="tilde" unicode="&#x2dc;" horiz-adv-x="600" 
d="M230 592q-22 0 -35 8t-22.5 19t-19 19t-22.5 8q-18 0 -21.5 -14t-3.5 -39h-34q-1 31 9 57t48 26q22 0 35 -8.5t22 -19t18.5 -18.5t23.5 -8q18 0 21.5 14t3.5 40h33q2 -34 -9 -59t-47 -25z" />
    <glyph glyph-name="uni03060301" 
d="M164 679q-51 0 -81 23t-30 61h35q0 -33 22 -42t53 -9q30 0 52 9t22 42h35q0 -38 -29 -61t-79 -23zM175 775h-24v8l54 104h44v-12z" />
    <glyph glyph-name="uni03060300" 
d="M169 679q-51 0 -81 23t-30 61h35q0 -33 22 -42t53 -9q30 0 52 9t22 42h35q0 -38 -29 -61t-79 -23zM148 775l-75 100v12h44l54 -104v-8h-23z" />
    <glyph glyph-name="uni03060309" 
d="M164 679q-51 0 -81 23t-30 61h35q0 -33 22 -42t53 -9q30 0 52 9t22 42h35q0 -38 -29 -61t-79 -23zM143 772v9q4 13 18 22.5t27 20t13 27.5q0 16 -15 23t-32 1.5t-24 -27.5l-27 11q7 26 27.5 39t44.5 12t41 -14.5t17 -39.5q0 -25 -12.5 -38t-26 -22.5t-14.5 -23.5h-37z
" />
    <glyph glyph-name="uni03060303" 
d="M184 679q-51 0 -81 23t-30 61h35q0 -33 22 -42t53 -9q30 0 52 9t22 42h35q0 -38 -29 -61t-79 -23zM235 816q-22 0 -35 8t-22.5 19t-19 19t-22.5 8q-18 0 -21.5 -14t-3.5 -39h-34q-1 31 9 57t48 26q22 0 35 -8.5t22 -19t18.5 -18.5t23.5 -8q18 0 21.5 14t3.5 40h33
q2 -34 -9 -59t-47 -25z" />
    <glyph glyph-name="uni03020301" 
d="M82 631v6l104 101h22l105 -101v-6h-46l-69 74h-2l-68 -74h-46zM323 717h-24v8l54 104h44v-12z" />
    <glyph glyph-name="uni03020300" 
d="M149 717l-75 100v12h44l54 -104v-8h-23zM166 631v6l104 101h22l105 -101v-6h-46l-69 74h-2l-68 -74h-46z" />
    <glyph glyph-name="uni03020309" 
d="M82 642v6l104 101h22l105 -101v-6h-46l-69 74h-2l-68 -74h-46zM287 726v9q4 13 18 22.5t27 20t13 27.5q0 16 -15 23t-32 1.5t-24 -27.5l-27 11q7 26 27.5 39t44.5 12t41 -14.5t17 -39.5q0 -25 -12.5 -38t-26 -22.5t-14.5 -23.5h-37z" />
    <glyph glyph-name="uni03020303" 
d="M78 642v6l104 101h22l105 -101v-6h-46l-69 74h-2l-68 -74h-46zM242 796q-22 0 -35 8t-22.5 19t-19 19t-22.5 8q-18 0 -21.5 -14t-3.5 -39h-34q-1 31 9 57t48 26q22 0 35 -8.5t22 -19t18.5 -18.5t23.5 -8q18 0 21.5 14t3.5 40h33q2 -34 -9 -59t-47 -25z" />
    </font>
</defs>
</svg>
